<svg width="325" height="169" fill="none" xmlns="http://www.w3.org/2000/svg"><path fill="#f87171" d="M0 .348h156v168H0z"/><path d="M62.853 51.796c-1.685 0-3.179-.298-4.48-.896-1.301-.597-2.325-1.45-3.072-2.56-.725-1.13-1.088-2.464-1.088-4v-.576h4.096v.448c0 1.195.416 2.155 1.248 2.88.832.704 1.93 1.056 3.296 1.056 1.387 0 2.453-.33 3.2-.992.768-.66 1.152-1.493 1.152-2.496v-.32c0-.682-.17-1.237-.512-1.664-.341-.426-.8-.736-1.376-.928-.576-.213-1.227-.32-1.952-.32h-4.48v-4.48l7.232-3.84v-.512H54.789v-3.648h15.872v5.44l-6.752 3.584v.512h1.184c1.003 0 1.973.203 2.912.608a5.535 5.535 0 0 1 2.368 1.888c.619.832.928 1.92.928 3.264v.384c0 1.451-.352 2.72-1.056 3.808-.704 1.067-1.696 1.9-2.976 2.496-1.259.576-2.73.864-4.416.864zm17.434-.448V31.956h-.576l-3.008 7.104h-4.288l4.576-10.112h7.392v22.4h-4.096zM92.868 46.556l-1.216-.976 8.608-10.64 1.216.976-8.608 10.64zm6.752-.048c-.81 0-1.445-.213-1.904-.64-.459-.437-.688-1.029-.688-1.776v-.112c0-.757.23-1.349.688-1.776.459-.437 1.093-.656 1.904-.656.789 0 1.419.22 1.888.656.469.427.704 1.02.704 1.776v.112c0 .747-.229 1.34-.688 1.776-.459.427-1.093.64-1.904.64zm0-1.312c.31 0 .549-.096.72-.288.181-.192.272-.442.272-.752V43.9c0-.309-.091-.56-.272-.752-.171-.192-.41-.288-.72-.288s-.555.096-.736.288c-.17.192-.256.443-.256.752v.256c0 .31.085.56.256.752.181.192.427.288.736.288zm-6.112-5.248c-.81 0-1.445-.213-1.904-.64-.459-.437-.688-1.029-.688-1.776v-.112c0-.757.23-1.349.688-1.776.459-.437 1.093-.656 1.904-.656.79 0 1.419.22 1.888.656.47.427.704 1.02.704 1.776v.112c0 .747-.23 1.34-.688 1.776-.459.427-1.093.64-1.904.64zm0-1.312c.31 0 .55-.096.72-.288.181-.192.272-.442.272-.752v-.256c0-.309-.09-.56-.272-.752-.17-.192-.41-.288-.72-.288s-.555.096-.736.288c-.17.192-.256.443-.256.752v.256c0 .31.085.56.256.752.181.192.427.288.736.288zM49.695 102.572c-.832 0-1.557-.149-2.176-.448a3.269 3.269 0 0 1-1.44-1.328c-.341-.597-.512-1.328-.512-2.192v-7.456h1.328v7.472c0 .918.245 1.606.736 2.064.49.459 1.179.688 2.064.688.886 0 1.574-.229 2.064-.688.49-.458.736-1.146.736-2.064v-7.472h1.344v7.456c0 .864-.17 1.595-.512 2.192a3.252 3.252 0 0 1-1.456 1.328c-.619.299-1.344.448-2.176.448zm6.656-.224v-7.824h1.232v1.328h.224c.171-.373.46-.709.864-1.008.416-.309 1.024-.464 1.824-.464.587 0 1.11.123 1.568.368.47.246.843.608 1.12 1.088.278.48.416 1.072.416 1.776v4.736h-1.264v-4.64c0-.778-.197-1.344-.592-1.696-.384-.352-.906-.528-1.568-.528-.757 0-1.376.246-1.856.736-.469.491-.704 1.222-.704 2.192v3.936h-1.264zm13.397.224c-.79 0-1.483-.165-2.08-.496a3.574 3.574 0 0 1-1.392-1.424c-.33-.608-.496-1.312-.496-2.112v-.192c0-.81.165-1.52.496-2.128.33-.608.79-1.077 1.376-1.408.587-.34 1.259-.512 2.016-.512.736 0 1.387.16 1.952.48a3.29 3.29 0 0 1 1.328 1.344c.32.587.48 1.275.48 2.064v.576h-6.384c.032.843.304 1.504.816 1.984.512.47 1.152.704 1.92.704.672 0 1.19-.154 1.552-.464.363-.309.64-.677.832-1.104l1.088.528c-.16.331-.384.662-.672.992-.277.331-.645.608-1.104.832-.448.224-1.024.336-1.728.336zm-2.688-4.848h5.088c-.043-.725-.293-1.29-.752-1.696-.448-.405-1.024-.608-1.728-.608-.715 0-1.301.203-1.76.608-.459.406-.741.971-.848 1.696zm14.957 7.824v-4.432h-.224c-.128.235-.31.464-.544.688-.235.224-.544.406-.928.544-.374.15-.832.224-1.376.224-.683 0-1.307-.16-1.872-.48-.555-.32-.998-.784-1.328-1.392-.331-.608-.496-1.328-.496-2.16v-.208c0-.842.165-1.562.496-2.16a3.478 3.478 0 0 1 1.344-1.376 3.61 3.61 0 0 1 1.856-.496c.81 0 1.44.155 1.888.464.448.31.778.662.992 1.056h.224v-1.296h1.232v11.024h-1.264zm-2.736-4.096c.81 0 1.466-.256 1.968-.768.512-.522.768-1.248.768-2.176v-.144c0-.928-.256-1.648-.768-2.16-.502-.522-1.158-.784-1.968-.784-.8 0-1.462.262-1.984.784-.512.512-.768 1.232-.768 2.16v.144c0 .928.256 1.654.768 2.176.522.512 1.184.768 1.984.768zm9.64 1.04a3.387 3.387 0 0 1-1.567-.368 2.744 2.744 0 0 1-1.12-1.088c-.267-.49-.4-1.082-.4-1.776v-4.736h1.264v4.64c0 .78.192 1.344.576 1.696.394.352.922.528 1.584.528.746 0 1.36-.245 1.84-.736.48-.49.72-1.22.72-2.192v-3.936h1.264v7.824H91.85v-1.328h-.224c-.171.374-.464.715-.88 1.024-.416.299-1.024.448-1.824.448zm9.205.08a3.74 3.74 0 0 1-1.488-.288 2.426 2.426 0 0 1-1.056-.832c-.256-.362-.384-.805-.384-1.328 0-.533.128-.97.384-1.312a2.265 2.265 0 0 1 1.056-.784c.448-.18.95-.272 1.504-.272h2.64v-.576c0-.554-.165-.992-.496-1.312-.32-.32-.8-.48-1.44-.48-.629 0-1.12.155-1.472.464-.352.3-.592.704-.72 1.216l-1.184-.384a3.47 3.47 0 0 1 .608-1.184c.278-.362.646-.65 1.104-.864.47-.224 1.03-.336 1.68-.336 1.003 0 1.782.262 2.336.784.555.512.832 1.238.832 2.176v3.536c0 .32.15.48.448.48h.72v1.072h-1.104c-.352 0-.634-.096-.848-.288-.213-.202-.32-.469-.32-.8v-.08h-.192a3.791 3.791 0 0 1-.48.64c-.192.214-.458.39-.8.528-.34.15-.784.224-1.328.224zm.144-1.088c.747 0 1.35-.218 1.808-.656.47-.448.704-1.072.704-1.872v-.176H98.19c-.5 0-.917.112-1.248.336-.32.214-.48.54-.48.976 0 .438.166.779.496 1.024.342.246.78.368 1.312.368zm6.66.864v-11.2h1.264v11.2h-1.264zm-40.149 27.2v-11.024h1.232v1.296h.224c.203-.394.528-.746.976-1.056.459-.309 1.094-.464 1.904-.464.672 0 1.285.166 1.84.496.566.32 1.014.779 1.344 1.376.341.598.512 1.318.512 2.16v.208c0 .832-.165 1.552-.496 2.16a3.45 3.45 0 0 1-1.344 1.392c-.555.32-1.173.48-1.856.48-.544 0-1.008-.074-1.392-.224a2.615 2.615 0 0 1-.912-.544 2.845 2.845 0 0 1-.544-.688h-.224v4.432h-1.264zm4-4.096c.81 0 1.467-.256 1.968-.768.512-.522.768-1.248.768-2.176v-.144c0-.928-.256-1.648-.768-2.16-.501-.522-1.157-.784-1.968-.784-.8 0-1.461.262-1.984.784-.512.512-.768 1.232-.768 2.16v.144c0 .928.256 1.654.768 2.176.523.512 1.184.768 1.984.768zm8.697 1.12a3.74 3.74 0 0 1-1.488-.288 2.426 2.426 0 0 1-1.056-.832c-.256-.362-.384-.805-.384-1.328 0-.533.128-.97.384-1.312a2.267 2.267 0 0 1 1.056-.784c.448-.181.95-.272 1.504-.272h2.64v-.576c0-.554-.165-.992-.496-1.312-.32-.32-.8-.48-1.44-.48-.63 0-1.12.155-1.472.464-.352.299-.592.704-.72 1.216l-1.184-.384c.128-.437.33-.832.608-1.184a2.91 2.91 0 0 1 1.104-.864c.47-.224 1.03-.336 1.68-.336 1.003 0 1.781.262 2.336.784.555.512.832 1.238.832 2.176v3.536c0 .32.15.48.448.48h.72v1.072h-1.104c-.352 0-.635-.096-.848-.288-.213-.202-.32-.469-.32-.8v-.08h-.192a3.824 3.824 0 0 1-.48.64c-.192.214-.459.39-.8.528-.341.15-.784.224-1.328.224zm.144-1.088c.747 0 1.35-.218 1.808-.656.47-.448.704-1.072.704-1.872v-.176h-2.592c-.501 0-.917.112-1.248.336-.32.214-.48.539-.48.976 0 .438.165.779.496 1.024.341.246.779.368 1.312.368zm7.4 4.064v-1.12h4.48c.31 0 .464-.16.464-.48V125.1h-.224a2.431 2.431 0 0 1-1.344 1.2c-.352.128-.795.192-1.328.192a3.387 3.387 0 0 1-1.568-.368 2.744 2.744 0 0 1-1.12-1.088c-.267-.48-.4-1.066-.4-1.76v-4.752h1.264v4.656c0 .768.192 1.328.576 1.68.395.352.923.528 1.584.528.747 0 1.36-.245 1.84-.736.48-.49.72-1.221.72-2.192v-3.936h1.264v9.648c0 .427-.123.763-.368 1.008-.235.246-.581.368-1.04.368h-4.8z" fill="#fff"/><path fill="#f87171" d="M169 .615h156v168H169z"/><path d="M228.791 52.063c-1.686 0-3.179-.298-4.48-.896-1.302-.597-2.326-1.45-3.072-2.56-.726-1.13-1.088-2.464-1.088-4v-.576h4.096v.448c0 1.195.416 2.155 1.248 2.88.832.704 1.93 1.056 3.296 1.056 1.386 0 2.453-.33 3.2-.992.768-.661 1.152-1.493 1.152-2.496v-.32c0-.682-.171-1.237-.512-1.664-.342-.426-.8-.736-1.376-.928-.576-.213-1.227-.32-1.952-.32h-4.48v-4.48l7.232-3.84v-.512h-11.328v-3.648h15.872v5.44l-6.752 3.584v.512h1.184c1.002 0 1.973.203 2.912.608a5.536 5.536 0 0 1 2.368 1.888c.618.832.928 1.92.928 3.264v.384c0 1.451-.352 2.72-1.056 3.808-.704 1.067-1.696 1.899-2.976 2.496-1.259.576-2.731.864-4.416.864zm19.468 0c-1.685 0-3.178-.298-4.48-.896-1.301-.597-2.325-1.45-3.072-2.56-.725-1.13-1.088-2.464-1.088-4v-.576h4.096v.448c0 1.195.416 2.155 1.248 2.88.832.704 1.931 1.056 3.296 1.056 1.387 0 2.454-.33 3.2-.992.768-.661 1.152-1.493 1.152-2.496v-.32c0-.682-.17-1.237-.512-1.664-.341-.426-.8-.736-1.376-.928-.576-.213-1.226-.32-1.952-.32h-4.48v-4.48l7.232-3.84v-.512h-11.328v-3.648h15.872v5.44l-6.752 3.584v.512h1.184a7.27 7.27 0 0 1 2.912.608 5.53 5.53 0 0 1 2.368 1.888c.619.832.928 1.92.928 3.264v.384c0 1.451-.352 2.72-1.056 3.808-.704 1.067-1.696 1.899-2.976 2.496-1.258.576-2.73.864-4.416.864zM264.368 46.823l-1.216-.976 8.608-10.64 1.216.976-8.608 10.64zm6.752-.048c-.811 0-1.445-.213-1.904-.64-.459-.437-.688-1.029-.688-1.776v-.112c0-.757.229-1.349.688-1.776.459-.437 1.093-.656 1.904-.656.789 0 1.419.219 1.888.656.469.427.704 1.019.704 1.776v.112c0 .747-.229 1.339-.688 1.776-.459.427-1.093.64-1.904.64zm0-1.312c.309 0 .549-.096.72-.288.181-.192.272-.442.272-.752v-.256c0-.309-.091-.56-.272-.752-.171-.192-.411-.288-.72-.288s-.555.096-.736.288c-.171.192-.256.443-.256.752v.256c0 .31.085.56.256.752.181.192.427.288.736.288zm-6.112-5.248c-.811 0-1.445-.213-1.904-.64-.459-.437-.688-1.029-.688-1.776v-.112c0-.757.229-1.349.688-1.776.459-.437 1.093-.656 1.904-.656.789 0 1.419.219 1.888.656.469.427.704 1.019.704 1.776v.112c0 .747-.229 1.339-.688 1.776-.459.427-1.093.64-1.904.64zm0-1.312c.309 0 .549-.096.72-.288.181-.192.272-.442.272-.752v-.256c0-.309-.091-.56-.272-.752-.171-.192-.411-.288-.72-.288s-.555.096-.736.288c-.171.192-.256.443-.256.752v.256c0 .31.085.56.256.752.181.192.427.288.736.288zM225.272 90.615v-11.2h6.768v1.216h-5.424v3.76h4.992v1.216h-4.992v5.008h-1.344zm12.179.224c-.789 0-1.483-.165-2.08-.496a3.58 3.58 0 0 1-1.392-1.424c-.331-.608-.496-1.312-.496-2.112v-.192c0-.81.165-1.52.496-2.128a3.498 3.498 0 0 1 1.376-1.408c.587-.341 1.259-.512 2.016-.512.736 0 1.387.16 1.952.48.565.31 1.008.758 1.328 1.344.32.587.48 1.275.48 2.064v.576h-6.384c.032.843.304 1.504.816 1.984.512.47 1.152.704 1.92.704.672 0 1.189-.154 1.552-.464.363-.309.64-.677.832-1.104l1.088.528c-.16.331-.384.662-.672.992-.277.331-.645.608-1.104.832-.448.224-1.024.336-1.728.336zm-2.688-4.848h5.088c-.043-.725-.293-1.29-.752-1.696-.448-.405-1.024-.608-1.728-.608-.715 0-1.301.203-1.76.608-.459.406-.741.971-.848 1.696zm9.505 4.624-1.568-7.824h1.28l1.296 6.976h.224l1.712-6.976h2.096l1.712 6.976h.224l1.296-6.976h1.28l-1.568 7.824h-2.16l-1.728-6.976h-.208l-1.728 6.976h-2.16zm15.152.224c-.79 0-1.483-.165-2.08-.496a3.568 3.568 0 0 1-1.392-1.424c-.331-.608-.496-1.312-.496-2.112v-.192c0-.81.165-1.52.496-2.128a3.491 3.491 0 0 1 1.376-1.408c.586-.341 1.258-.512 2.016-.512.736 0 1.386.16 1.952.48.565.31 1.008.758 1.328 1.344.32.587.48 1.275.48 2.064v.576h-6.384c.032.843.304 1.504.816 1.984.512.47 1.152.704 1.92.704.672 0 1.189-.154 1.552-.464.362-.309.64-.677.832-1.104l1.088.528c-.16.331-.384.662-.672.992-.278.331-.646.608-1.104.832-.448.224-1.024.336-1.728.336zm-2.688-4.848h5.088c-.043-.725-.294-1.29-.752-1.696-.448-.405-1.024-.608-1.728-.608-.715 0-1.302.203-1.76.608-.459.406-.742.971-.848 1.696zm8.573 4.624v-7.824h1.232v.96h.224c.138-.341.352-.592.64-.752.288-.16.666-.24 1.136-.24h.928v1.152h-1.008c-.566 0-1.024.16-1.376.48-.342.31-.512.795-.512 1.456v4.768h-1.264zm-66.603 24.224c-.79 0-1.488-.165-2.096-.496a3.59 3.59 0 0 1-1.408-1.392c-.331-.608-.496-1.322-.496-2.144v-.208c0-.81.165-1.52.496-2.128a3.57 3.57 0 0 1 1.408-1.408c.608-.33 1.306-.496 2.096-.496.789 0 1.482.166 2.08.496.608.331 1.077.8 1.408 1.408.341.608.512 1.318.512 2.128v.208c0 .822-.171 1.536-.512 2.144a3.463 3.463 0 0 1-1.408 1.392c-.598.331-1.291.496-2.08.496zm0-1.136c.832 0 1.493-.261 1.984-.784.501-.533.752-1.248.752-2.144v-.144c0-.896-.251-1.605-.752-2.128-.491-.533-1.152-.8-1.984-.8-.822 0-1.483.267-1.984.8-.502.523-.752 1.232-.752 2.128v.144c0 .896.25 1.611.752 2.144.501.523 1.162.784 1.984.784zm6.274 4.112v-11.024h1.232v1.296h.224c.203-.394.528-.746.976-1.056.459-.309 1.094-.464 1.904-.464a3.53 3.53 0 0 1 1.84.496 3.47 3.47 0 0 1 1.344 1.376c.342.598.512 1.318.512 2.16v.208c0 .832-.165 1.552-.496 2.16a3.443 3.443 0 0 1-1.344 1.392c-.554.32-1.173.48-1.856.48-.544 0-1.008-.074-1.392-.224a2.62 2.62 0 0 1-.912-.544 2.86 2.86 0 0 1-.544-.688h-.224v4.432h-1.264zm4-4.096c.811 0 1.467-.256 1.968-.768.512-.522.768-1.248.768-2.176v-.144c0-.928-.256-1.648-.768-2.16-.501-.522-1.157-.784-1.968-.784-.8 0-1.461.262-1.984.784-.512.512-.768 1.232-.768 2.16v.144c0 .928.256 1.654.768 2.176.523.512 1.184.768 1.984.768zm6.297 4.096v-11.024h1.232v1.296h.224c.203-.394.528-.746.976-1.056.459-.309 1.094-.464 1.904-.464a3.53 3.53 0 0 1 1.84.496 3.47 3.47 0 0 1 1.344 1.376c.342.598.512 1.318.512 2.16v.208c0 .832-.165 1.552-.496 2.16a3.443 3.443 0 0 1-1.344 1.392c-.554.32-1.173.48-1.856.48-.544 0-1.008-.074-1.392-.224a2.62 2.62 0 0 1-.912-.544 2.86 2.86 0 0 1-.544-.688h-.224v4.432h-1.264zm4-4.096c.811 0 1.467-.256 1.968-.768.512-.522.768-1.248.768-2.176v-.144c0-.928-.256-1.648-.768-2.16-.501-.522-1.157-.784-1.968-.784-.8 0-1.461.262-1.984.784-.512.512-.768 1.232-.768 2.16v.144c0 .928.256 1.654.768 2.176.523.512 1.184.768 1.984.768zm9.913 1.12c-.789 0-1.488-.165-2.096-.496a3.602 3.602 0 0 1-1.408-1.392c-.33-.608-.496-1.322-.496-2.144v-.208c0-.81.166-1.52.496-2.128a3.584 3.584 0 0 1 1.408-1.408c.608-.33 1.307-.496 2.096-.496.79 0 1.483.166 2.08.496.608.331 1.078.8 1.408 1.408.342.608.512 1.318.512 2.128v.208c0 .822-.17 1.536-.512 2.144-.33.598-.8 1.062-1.408 1.392-.597.331-1.29.496-2.08.496zm0-1.136c.832 0 1.494-.261 1.984-.784.502-.533.752-1.248.752-2.144v-.144c0-.896-.25-1.605-.752-2.128-.49-.533-1.152-.8-1.984-.8-.821 0-1.482.267-1.984.8-.501.523-.752 1.232-.752 2.128v.144c0 .896.251 1.611.752 2.144.502.523 1.163.784 1.984.784zm6.275.912v-7.824h1.232v.96h.224c.138-.341.352-.592.64-.752.288-.16.666-.24 1.136-.24h.928v1.152h-1.008c-.566 0-1.024.16-1.376.48-.342.31-.512.795-.512 1.456v4.768h-1.264zm8.911 0c-.448 0-.795-.122-1.04-.368-.235-.245-.352-.581-.352-1.008v-5.344h-2.352v-1.104h2.352v-2.784h1.264v2.784h2.56v1.104h-2.56v5.152c0 .32.155.48.464.48h1.744v1.088h-2.08zm7.471.144a3.388 3.388 0 0 1-1.568-.368 2.75 2.75 0 0 1-1.12-1.088c-.266-.49-.4-1.082-.4-1.776v-4.736h1.264v4.64c0 .779.192 1.344.576 1.696.395.352.923.528 1.584.528.747 0 1.36-.245 1.84-.736.48-.49.72-1.221.72-2.192v-3.936h1.264v7.824h-1.232v-1.328h-.224c-.17.374-.464.715-.88 1.024-.416.299-1.024.448-1.824.448zm6.805-.144v-7.824h1.232v1.328h.224c.171-.373.459-.709.864-1.008.416-.309 1.024-.464 1.824-.464.587 0 1.11.123 1.568.368.47.246.843.608 1.12 1.088.278.48.416 1.072.416 1.776v4.736h-1.264v-4.64c0-.778-.197-1.344-.592-1.696-.384-.352-.906-.528-1.568-.528-.757 0-1.376.246-1.856.736-.469.491-.704 1.222-.704 2.192v3.936h-1.264zm9.813 0v-7.824h1.264v7.824h-1.264zm.64-9.04a.983.983 0 0 1-.704-.272.928.928 0 0 1-.272-.688c0-.288.09-.522.272-.704a.987.987 0 0 1 .704-.272c.277 0 .506.091.688.272a.955.955 0 0 1 .272.704.931.931 0 0 1-.96.96zm6.162 9.04c-.448 0-.795-.122-1.04-.368-.235-.245-.352-.581-.352-1.008v-5.344h-2.352v-1.104h2.352v-2.784h1.264v2.784h2.56v1.104h-2.56v5.152c0 .32.154.48.464.48h1.744v1.088h-2.08zm4.479 0v-7.824h1.264v7.824h-1.264zm.64-9.04a.985.985 0 0 1-.704-.272.932.932 0 0 1-.272-.688c0-.288.091-.522.272-.704a.99.99 0 0 1 .704-.272c.277 0 .507.091.688.272a.955.955 0 0 1 .272.704.93.93 0 0 1-.96.96zm6.866 9.264c-.789 0-1.483-.165-2.08-.496a3.578 3.578 0 0 1-1.392-1.424c-.331-.608-.496-1.312-.496-2.112v-.192c0-.81.165-1.52.496-2.128a3.5 3.5 0 0 1 1.376-1.408c.587-.341 1.259-.512 2.016-.512.736 0 1.387.16 1.952.48a3.3 3.3 0 0 1 1.328 1.344c.32.587.48 1.275.48 2.064v.576h-6.384c.032.843.304 1.504.816 1.984.512.47 1.152.704 1.92.704.672 0 1.189-.154 1.552-.464.363-.309.64-.677.832-1.104l1.088.528c-.16.331-.384.662-.672.992-.277.331-.645.608-1.104.832-.448.224-1.024.336-1.728.336zm-2.688-4.848h5.088c-.043-.725-.293-1.29-.752-1.696-.448-.405-1.024-.608-1.728-.608-.715 0-1.301.203-1.76.608-.459.406-.741.971-.848 1.696zm11.725 4.848c-.971 0-1.792-.224-2.464-.672-.662-.448-1.062-1.157-1.2-2.128l1.2-.272c.085.512.245.918.48 1.216.234.288.522.496.864.624.352.118.725.176 1.12.176.586 0 1.05-.117 1.392-.352.341-.234.512-.549.512-.944 0-.405-.166-.688-.496-.848-.32-.17-.763-.309-1.328-.416l-.656-.112a5.86 5.86 0 0 1-1.376-.4 2.51 2.51 0 0 1-.992-.736c-.246-.309-.368-.698-.368-1.168 0-.704.272-1.253.816-1.648.544-.394 1.264-.592 2.16-.592.885 0 1.6.203 2.144.608.554.395.912.955 1.072 1.68l-1.184.304c-.096-.565-.326-.96-.688-1.184-.363-.234-.811-.352-1.344-.352-.534 0-.955.102-1.264.304-.31.192-.464.48-.464.864 0 .374.144.651.432.832.298.171.693.299 1.184.384l.656.112c.554.096 1.05.23 1.488.4.448.16.8.395 1.056.704.266.31.4.715.4 1.216 0 .768-.288 1.36-.864 1.776-.566.416-1.328.624-2.288.624zm-99.905 23.776v-6.72h-2.4v-1.104h2.4v-2c0-.426.117-.762.352-1.008.245-.245.592-.368 1.04-.368h1.968v1.088h-1.616c-.32 0-.48.16-.48.48v1.808h2.464v1.104h-2.464v6.72h-1.264zm8.767.224c-.789 0-1.488-.165-2.096-.496a3.596 3.596 0 0 1-1.408-1.392c-.331-.608-.496-1.322-.496-2.144v-.208c0-.81.165-1.52.496-2.128a3.577 3.577 0 0 1 1.408-1.408c.608-.33 1.307-.496 2.096-.496.789 0 1.483.166 2.08.496.608.331 1.077.8 1.408 1.408.341.608.512 1.318.512 2.128v.208c0 .822-.171 1.536-.512 2.144a3.463 3.463 0 0 1-1.408 1.392c-.597.331-1.291.496-2.08.496zm0-1.136c.832 0 1.493-.261 1.984-.784.501-.533.752-1.248.752-2.144v-.144c0-.896-.251-1.605-.752-2.128-.491-.533-1.152-.8-1.984-.8-.821 0-1.483.267-1.984.8-.501.523-.752 1.232-.752 2.128v.144c0 .896.251 1.611.752 2.144.501.523 1.163.784 1.984.784zm6.275.912v-7.824h1.232v.96h.224c.138-.341.352-.592.64-.752.288-.16.666-.24 1.136-.24h.928v1.152h-1.008c-.566 0-1.024.16-1.376.48-.342.31-.512.795-.512 1.456v4.768h-1.264zm10.14 3.2v-11.024h1.232v1.296h.224c.203-.394.528-.746.976-1.056.459-.309 1.094-.464 1.904-.464a3.53 3.53 0 0 1 1.84.496 3.47 3.47 0 0 1 1.344 1.376c.342.598.512 1.318.512 2.16v.208c0 .832-.165 1.552-.496 2.16a3.443 3.443 0 0 1-1.344 1.392c-.554.32-1.173.48-1.856.48-.544 0-1.008-.074-1.392-.224a2.62 2.62 0 0 1-.912-.544 2.86 2.86 0 0 1-.544-.688h-.224v4.432h-1.264zm4-4.096c.811 0 1.467-.256 1.968-.768.512-.522.768-1.248.768-2.176v-.144c0-.928-.256-1.648-.768-2.16-.501-.522-1.157-.784-1.968-.784-.8 0-1.461.262-1.984.784-.512.512-.768 1.232-.768 2.16v.144c0 .928.256 1.654.768 2.176.523.512 1.184.768 1.984.768zm6.297.896v-7.824h1.232v.96h.224c.139-.341.352-.592.64-.752.288-.16.667-.24 1.136-.24h.928v1.152h-1.008c-.565 0-1.024.16-1.376.48-.341.31-.512.795-.512 1.456v4.768h-1.264zm9.366.224c-.789 0-1.488-.165-2.096-.496a3.602 3.602 0 0 1-1.408-1.392c-.33-.608-.496-1.322-.496-2.144v-.208c0-.81.166-1.52.496-2.128a3.584 3.584 0 0 1 1.408-1.408c.608-.33 1.307-.496 2.096-.496.79 0 1.483.166 2.08.496.608.331 1.078.8 1.408 1.408.342.608.512 1.318.512 2.128v.208c0 .822-.17 1.536-.512 2.144-.33.598-.8 1.062-1.408 1.392-.597.331-1.29.496-2.08.496zm0-1.136c.832 0 1.494-.261 1.984-.784.502-.533.752-1.248.752-2.144v-.144c0-.896-.25-1.605-.752-2.128-.49-.533-1.152-.8-1.984-.8-.821 0-1.482.267-1.984.8-.501.523-.752 1.232-.752 2.128v.144c0 .896.251 1.611.752 2.144.502.523 1.163.784 1.984.784zm6.275.912v-7.824h1.232v.976h.224c.149-.277.395-.533.736-.768.341-.234.821-.352 1.44-.352.608 0 1.099.134 1.472.4.384.267.661.592.832.976h.224c.181-.384.453-.709.816-.976.373-.266.891-.4 1.552-.4.523 0 .981.107 1.376.32.395.214.704.523.928.928.235.395.352.87.352 1.424v5.296h-1.264v-5.184c0-.522-.155-.933-.464-1.232-.299-.309-.72-.464-1.264-.464-.576 0-1.051.187-1.424.56-.363.374-.544.912-.544 1.616v4.704h-1.264v-5.184c0-.522-.155-.933-.464-1.232-.299-.309-.72-.464-1.264-.464-.576 0-1.051.187-1.424.56-.363.374-.544.912-.544 1.616v4.704H247.5zm17.382.224c-.79 0-1.488-.165-2.096-.496a3.59 3.59 0 0 1-1.408-1.392c-.331-.608-.496-1.322-.496-2.144v-.208c0-.81.165-1.52.496-2.128a3.57 3.57 0 0 1 1.408-1.408c.608-.33 1.306-.496 2.096-.496.789 0 1.482.166 2.08.496.608.331 1.077.8 1.408 1.408.341.608.512 1.318.512 2.128v.208c0 .822-.171 1.536-.512 2.144a3.463 3.463 0 0 1-1.408 1.392c-.598.331-1.291.496-2.08.496zm0-1.136c.832 0 1.493-.261 1.984-.784.501-.533.752-1.248.752-2.144v-.144c0-.896-.251-1.605-.752-2.128-.491-.533-1.152-.8-1.984-.8-.822 0-1.483.267-1.984.8-.502.523-.752 1.232-.752 2.128v.144c0 .896.25 1.611.752 2.144.501.523 1.162.784 1.984.784zm8.826.912c-.448 0-.795-.122-1.04-.368-.235-.245-.352-.581-.352-1.008v-5.344h-2.352v-1.104h2.352v-2.784h1.264v2.784h2.56v1.104h-2.56v5.152c0 .32.155.48.464.48h1.744v1.088h-2.08zm4.479 0v-7.824h1.264v7.824h-1.264zm.64-9.04a.985.985 0 0 1-.704-.272.932.932 0 0 1-.272-.688c0-.288.091-.522.272-.704a.99.99 0 0 1 .704-.272c.278 0 .507.091.688.272.182.182.272.416.272.704a.928.928 0 0 1-.96.96zm6.898 9.264c-.789 0-1.488-.165-2.096-.496a3.602 3.602 0 0 1-1.408-1.392c-.33-.608-.496-1.322-.496-2.144v-.208c0-.81.166-1.52.496-2.128a3.584 3.584 0 0 1 1.408-1.408c.608-.33 1.307-.496 2.096-.496.79 0 1.483.166 2.08.496.608.331 1.078.8 1.408 1.408.342.608.512 1.318.512 2.128v.208c0 .822-.17 1.536-.512 2.144-.33.598-.8 1.062-1.408 1.392-.597.331-1.29.496-2.08.496zm0-1.136c.832 0 1.494-.261 1.984-.784.502-.533.752-1.248.752-2.144v-.144c0-.896-.25-1.605-.752-2.128-.49-.533-1.152-.8-1.984-.8-.821 0-1.482.267-1.984.8-.501.523-.752 1.232-.752 2.128v.144c0 .896.251 1.611.752 2.144.502.523 1.163.784 1.984.784zm6.275.912v-7.824h1.232v1.328h.224c.171-.373.459-.709.864-1.008.416-.309 1.024-.464 1.824-.464.587 0 1.109.123 1.568.368a2.75 2.75 0 0 1 1.12 1.088c.277.48.416 1.072.416 1.776v4.736h-1.264v-4.64c0-.778-.197-1.344-.592-1.696-.384-.352-.907-.528-1.568-.528-.757 0-1.376.246-1.856.736-.469.491-.704 1.222-.704 2.192v3.936H292z" fill="#fff"/></svg>