<svg width="390" height="120" fill="none" xmlns="http://www.w3.org/2000/svg"><path d="m28.321 32.264-1.824-11.2h1.344l1.584 10.337h.224l2.064-10.337h2.4l2.048 10.337h.224l1.584-10.337h1.344l-1.824 11.2h-2.4l-2.064-10.4h-.224l-2.064 10.4h-2.416zm16.31.224c-.79 0-1.489-.165-2.096-.495a3.606 3.606 0 0 1-1.408-1.392c-.331-.608-.497-1.323-.497-2.145v-.207c0-.811.166-1.52.496-2.128a3.575 3.575 0 0 1 1.409-1.409c.608-.33 1.306-.495 2.096-.495.789 0 1.482.165 2.08.495.608.331 1.077.8 1.407 1.409.342.608.512 1.317.512 2.128v.207c0 .822-.17 1.537-.512 2.145a3.47 3.47 0 0 1-1.407 1.392c-.598.33-1.291.496-2.08.496zm0-1.136c.831 0 1.493-.26 1.983-.784.502-.533.753-1.248.753-2.144v-.143c0-.896-.251-1.606-.752-2.128-.491-.534-1.153-.8-1.985-.8-.82 0-1.482.266-1.983.8-.502.522-.752 1.232-.752 2.128v.143c0 .896.25 1.611.752 2.145.5.522 1.162.784 1.983.784zm6.274.912V24.44h1.232v.96h.224c.139-.34.352-.591.64-.752.288-.16.667-.24 1.136-.24h.928v1.152h-1.008c-.565 0-1.024.16-1.376.48-.341.31-.512.795-.512 1.457v4.767h-1.264zm6.031 0v-11.2H58.2v11.2h-1.264zm7.234.224c-.672 0-1.29-.16-1.856-.48a3.45 3.45 0 0 1-1.344-1.392c-.33-.607-.496-1.328-.496-2.16v-.207c0-.832.166-1.547.496-2.144.33-.608.774-1.073 1.328-1.393a3.64 3.64 0 0 1 1.872-.495c.544 0 1.003.074 1.376.224.384.138.694.32.928.544.235.213.416.442.544.688h.224v-4.608h1.264v11.2h-1.232v-1.297h-.224c-.213.395-.544.747-.992 1.057-.448.309-1.077.464-1.888.464zm.336-1.12c.81 0 1.467-.255 1.968-.767.512-.523.768-1.248.768-2.177v-.143c0-.928-.256-1.648-.768-2.16-.501-.523-1.157-.784-1.968-.784-.8 0-1.461.26-1.984.784-.512.512-.768 1.232-.768 2.16v.143c0 .928.256 1.654.768 2.177.523.512 1.184.768 1.984.768zM6.496 103.799c-.832 0-1.568-.17-2.208-.512a3.758 3.758 0 0 1-1.488-1.536c-.352-.672-.528-1.504-.528-2.496v-2.56c0-1.482.394-2.608 1.184-3.376.789-.778 1.85-1.168 3.184-1.168 1.322 0 2.33.363 3.024 1.088.693.726 1.04 1.696 1.04 2.912v.08H9.376v-.112c0-.533-.096-1.008-.288-1.424a2.143 2.143 0 0 0-.896-.976c-.406-.245-.923-.368-1.552-.368-.95 0-1.691.294-2.224.88-.534.576-.8 1.387-.8 2.432v2.624c0 1.046.266 1.862.8 2.448.533.576 1.28.864 2.24.864.938 0 1.626-.266 2.064-.8.448-.533.672-1.242.672-2.128V99.4H6v-1.152h4.704v5.328H9.488v-1.216h-.224a2.855 2.855 0 0 1-.496.688c-.214.224-.502.406-.864.544-.363.139-.832.208-1.408.208zm10.29 0c-.79 0-1.483-.165-2.08-.496a3.574 3.574 0 0 1-1.392-1.424c-.33-.608-.496-1.312-.496-2.112v-.192c0-.81.165-1.52.496-2.128.33-.608.79-1.077 1.376-1.408.587-.341 1.259-.512 2.016-.512.736 0 1.387.16 1.952.48a3.29 3.29 0 0 1 1.328 1.344c.32.587.48 1.275.48 2.064v.576h-6.384c.032.843.304 1.504.816 1.984.512.47 1.152.704 1.92.704.672 0 1.19-.154 1.552-.464.363-.309.64-.677.832-1.104l1.088.528c-.16.331-.384.662-.672.992-.277.331-.645.608-1.104.832-.448.224-1.024.336-1.728.336zm-2.688-4.848h5.088c-.043-.725-.293-1.29-.752-1.696-.448-.405-1.024-.608-1.728-.608-.715 0-1.301.203-1.76.608-.459.406-.741.97-.848 1.696zm8.573 4.624v-7.824h1.232v.96h.224c.138-.341.352-.592.64-.752.288-.16.666-.24 1.136-.24h.928v1.152h-1.008c-.566 0-1.024.16-1.376.48-.342.31-.512.795-.512 1.456v4.768H22.67zm6.031 0v-7.824h1.232v.976h.224c.15-.277.395-.533.736-.768.341-.234.821-.352 1.44-.352.608 0 1.099.134 1.472.4.384.267.661.592.832.976h.224c.181-.384.453-.71.816-.976.373-.266.89-.4 1.552-.4.523 0 .981.107 1.376.32.395.214.704.523.928.928.235.395.352.87.352 1.424v5.296h-1.264v-5.184c0-.522-.155-.933-.464-1.232-.299-.31-.72-.464-1.264-.464-.576 0-1.05.187-1.424.56-.363.374-.544.912-.544 1.616v4.704h-1.264v-5.184c0-.522-.155-.933-.464-1.232-.299-.31-.72-.464-1.264-.464-.576 0-1.05.187-1.424.56-.363.374-.544.912-.544 1.616v4.704h-1.264zm16.166.224a3.74 3.74 0 0 1-1.488-.288 2.426 2.426 0 0 1-1.056-.832c-.256-.362-.384-.805-.384-1.328 0-.533.128-.97.384-1.312a2.266 2.266 0 0 1 1.056-.784c.448-.181.949-.272 1.504-.272h2.64v-.576c0-.554-.166-.992-.496-1.312-.32-.32-.8-.48-1.44-.48-.63 0-1.12.155-1.472.464-.352.299-.592.704-.72 1.216l-1.184-.384c.128-.437.33-.832.608-1.184.277-.362.645-.65 1.104-.864.469-.224 1.029-.336 1.68-.336 1.002 0 1.781.262 2.336.784.554.512.832 1.238.832 2.176v3.536c0 .32.149.48.448.48h.72v1.072h-1.104c-.352 0-.635-.096-.848-.288-.214-.202-.32-.469-.32-.8v-.08h-.192a3.824 3.824 0 0 1-.48.64c-.192.214-.459.39-.8.528-.342.15-.784.224-1.328.224zm.144-1.088c.746 0 1.349-.218 1.808-.656.469-.448.704-1.072.704-1.872v-.176h-2.592c-.502 0-.918.112-1.248.336-.32.214-.48.539-.48.976 0 .438.165.779.496 1.024.341.246.778.368 1.312.368zm6.659.864v-7.824h1.232v1.328h.224c.17-.373.458-.71.864-1.008.416-.31 1.024-.464 1.824-.464.586 0 1.11.123 1.568.368.47.246.842.608 1.12 1.088.277.48.416 1.072.416 1.776v4.736h-1.264v-4.64c0-.778-.198-1.344-.592-1.696-.384-.352-.907-.528-1.568-.528-.758 0-1.376.246-1.856.736-.47.49-.704 1.222-.704 2.192v3.936H51.67zm10.631 3.2v-1.12h4.48c.31 0 .464-.16.464-.48v-2.848h-.224a2.432 2.432 0 0 1-1.344 1.2c-.352.128-.794.192-1.328.192a3.387 3.387 0 0 1-1.568-.368 2.744 2.744 0 0 1-1.12-1.088c-.266-.48-.4-1.066-.4-1.76v-4.752h1.264v4.656c0 .768.192 1.328.576 1.68.395.352.923.528 1.584.528.747 0 1.36-.245 1.84-.736.48-.49.72-1.221.72-2.192v-3.936h1.264v9.648c0 .427-.122.763-.368 1.008-.234.246-.581.368-1.04.368h-4.8z" fill="#000"/><path fill="#0063E2" d="M89.092.264h135v48h-135z"/><path fill="#000" d="M224.092.264h165v48h-165z"/><path fill="#0063E2" d="M89.092 71.575h150v48h-150z"/><path fill="#000" d="M239.092 71.575h150v48h-150z"/><path d="M114.532 31.265v-2.86h-7.3v-1.92l5.88-9.22h3.04v9.68h2.4v1.46h-2.4v2.86h-1.62zm-5.68-4.32h5.68v-8.7h-.28l-5.4 8.46v.24zm16.28 4.6c-1.027 0-1.913-.194-2.66-.58a4.389 4.389 0 0 1-1.74-1.64c-.413-.707-.62-1.52-.62-2.44v-.24h1.62v.18c0 1.053.307 1.86.92 2.42.613.56 1.427.84 2.44.84 1.067 0 1.9-.3 2.5-.9.6-.6.9-1.42.9-2.46v-.18c0-1-.293-1.794-.88-2.38-.573-.6-1.32-.9-2.24-.9-.533 0-.973.086-1.32.26-.347.16-.62.366-.82.62-.2.24-.367.473-.5.7h-2.2v-7.58h9.2v1.46h-7.58v4.84h.28c.147-.267.347-.527.6-.78.267-.254.62-.467 1.06-.64.44-.174.987-.26 1.64-.26.813 0 1.547.186 2.2.56a4.053 4.053 0 0 1 1.58 1.6c.4.693.6 1.52.6 2.48v.22c0 .946-.2 1.78-.6 2.5-.4.72-.973 1.286-1.72 1.7-.747.4-1.633.6-2.66.6zm8.633 0-1.08-.86 11.14-13.7 1.06.86-11.12 13.7zm8.88-.02c-.974 0-1.754-.28-2.34-.84-.574-.574-.86-1.347-.86-2.32v-.12c0-.974.286-1.74.86-2.3.586-.574 1.366-.86 2.34-.86.946 0 1.713.286 2.3.86.586.56.88 1.326.88 2.3v.12c0 .973-.294 1.746-.88 2.32-.574.56-1.34.84-2.3.84zm0-1.16c.56 0 1-.18 1.32-.54.333-.36.5-.827.5-1.4v-.24c0-.587-.167-1.054-.5-1.4-.32-.36-.76-.54-1.32-.54-.574 0-1.027.18-1.36.54-.32.346-.48.813-.48 1.4v.24c0 .573.16 1.04.48 1.4.333.36.786.54 1.36.54zm-7.7-6.92c-.974 0-1.747-.287-2.32-.86-.574-.574-.86-1.34-.86-2.3v-.12c0-.974.286-1.74.86-2.3.573-.574 1.346-.86 2.32-.86.96 0 1.726.286 2.3.86.586.56.88 1.326.88 2.3v.12c0 .96-.294 1.726-.88 2.3-.574.573-1.34.86-2.3.86zm0-1.16c.56 0 1.006-.18 1.34-.54.333-.36.5-.827.5-1.4v-.24c0-.587-.167-1.054-.5-1.4-.334-.36-.78-.54-1.34-.54-.574 0-1.027.18-1.36.54-.32.346-.48.813-.48 1.4v.24c0 .573.16 1.04.48 1.4.333.36.786.54 1.36.54zM112.632 102.855c-1.027 0-1.913-.193-2.66-.58a4.384 4.384 0 0 1-1.74-1.64c-.413-.706-.62-1.52-.62-2.44v-.24h1.62v.18c0 1.054.307 1.86.92 2.42.613.56 1.427.84 2.44.84 1.067 0 1.9-.3 2.5-.9.6-.6.9-1.42.9-2.46v-.18c0-1-.293-1.793-.88-2.38-.573-.6-1.32-.9-2.24-.9-.533 0-.973.087-1.32.26-.347.16-.62.367-.82.62-.2.24-.367.474-.5.7h-2.2v-7.58h9.2v1.46h-7.58v4.84h.28c.147-.266.347-.526.6-.78.267-.253.62-.466 1.06-.64.44-.173.987-.26 1.64-.26.813 0 1.547.187 2.2.56a4.053 4.053 0 0 1 1.58 1.6c.4.694.6 1.52.6 2.48v.22c0 .947-.2 1.78-.6 2.5-.4.72-.973 1.287-1.72 1.7-.747.4-1.633.6-2.66.6zm12.333 0c-1.587 0-2.854-.466-3.8-1.4-.934-.946-1.4-2.36-1.4-4.24v-3.28c0-1.866.466-3.273 1.4-4.22.946-.946 2.213-1.42 3.8-1.42 1.6 0 2.866.474 3.8 1.42.946.947 1.42 2.354 1.42 4.22v3.28c0 1.88-.474 3.294-1.42 4.24-.934.934-2.2 1.4-3.8 1.4zm0-1.46c1.2 0 2.1-.36 2.7-1.08.6-.72.9-1.726.9-3.02v-3.46c0-1.293-.307-2.293-.92-3-.614-.72-1.507-1.08-2.68-1.08-1.174 0-2.067.36-2.68 1.08-.6.72-.9 1.72-.9 3v3.46c0 1.307.3 2.32.9 3.04.6.707 1.493 1.06 2.68 1.06zm9.112 1.46-1.08-.86 11.14-13.7 1.06.86-11.12 13.7zm8.88-.02c-.973 0-1.753-.28-2.34-.84-.573-.573-.86-1.346-.86-2.32v-.12c0-.973.287-1.74.86-2.3.587-.573 1.367-.86 2.34-.86.947 0 1.714.287 2.3.86.587.56.88 1.327.88 2.3v.12c0 .974-.293 1.747-.88 2.32-.573.56-1.34.84-2.3.84zm0-1.16c.56 0 1-.18 1.32-.54.334-.36.5-.826.5-1.4v-.24c0-.586-.166-1.053-.5-1.4-.32-.36-.76-.54-1.32-.54-.573 0-1.026.18-1.36.54-.32.347-.48.814-.48 1.4v.24c0 .574.16 1.04.48 1.4.334.36.787.54 1.36.54zm-7.7-6.92c-.973 0-1.746-.286-2.32-.86-.573-.573-.86-1.34-.86-2.3v-.12c0-.973.287-1.74.86-2.3.574-.573 1.347-.86 2.32-.86.96 0 1.727.287 2.3.86.587.56.88 1.327.88 2.3v.12c0 .96-.293 1.727-.88 2.3-.573.574-1.34.86-2.3.86zm0-1.16c.56 0 1.007-.18 1.34-.54.334-.36.5-.826.5-1.4v-.24c0-.586-.166-1.053-.5-1.4-.333-.36-.78-.54-1.34-.54-.573 0-1.026.18-1.36.54-.32.347-.48.814-.48 1.4v.24c0 .574.16 1.04.48 1.4.334.36.787.54 1.36.54z" fill="#fff"/></svg>