<svg width="325" height="172" fill="none" xmlns="http://www.w3.org/2000/svg"><path fill="#0063E2" d="M169 .683h156v144H169z"/><path d="M231.859 52.131c-1.707 0-3.189-.32-4.448-.96-1.259-.64-2.229-1.525-2.912-2.656-.683-1.13-1.024-2.432-1.024-3.904v-7.648c0-1.813.363-3.317 1.088-4.512a6.947 6.947 0 0 1 3.04-2.72c1.301-.597 2.784-.896 4.448-.896 1.664 0 3.104.278 4.32.832 1.237.555 2.187 1.355 2.848 2.4.683 1.046 1.024 2.294 1.024 3.744h-4.16c0-.896-.309-1.674-.928-2.336-.619-.661-1.653-.992-3.104-.992-1.429 0-2.539.374-3.328 1.12-.768.747-1.152 1.782-1.152 3.104v2.304h.576c.363-.426.917-.832 1.664-1.216.747-.384 1.835-.576 3.264-.576 1.301 0 2.496.278 3.584.832a6.707 6.707 0 0 1 2.688 2.432c.683 1.046 1.024 2.315 1.024 3.808v.384c0 1.472-.352 2.774-1.056 3.904-.704 1.11-1.696 1.984-2.976 2.624-1.28.619-2.773.928-4.48.928zm.064-3.648c1.344 0 2.4-.352 3.168-1.056.789-.704 1.184-1.642 1.184-2.816v-.256c0-.789-.181-1.472-.544-2.048-.341-.576-.843-1.024-1.504-1.344-.64-.32-1.408-.48-2.304-.48-.875 0-1.643.16-2.304.48-.661.32-1.173.768-1.536 1.344-.341.576-.512 1.259-.512 2.048v.256c0 1.174.384 2.112 1.152 2.816.789.704 1.856 1.056 3.2 1.056zm17.864 3.2V32.291h-.576l-3.008 7.104h-4.288l4.576-10.112h7.392v22.4h-4.096zM262.368 46.891l-1.216-.976 8.608-10.64 1.216.976-8.608 10.64zm6.752-.048c-.811 0-1.445-.213-1.904-.64-.459-.437-.688-1.029-.688-1.776v-.112c0-.757.229-1.349.688-1.776.459-.437 1.093-.656 1.904-.656.789 0 1.419.219 1.888.656.469.427.704 1.019.704 1.776v.112c0 .747-.229 1.339-.688 1.776-.459.427-1.093.64-1.904.64zm0-1.312c.309 0 .549-.096.72-.288.181-.192.272-.442.272-.752v-.256c0-.309-.091-.56-.272-.752-.171-.192-.411-.288-.72-.288s-.555.096-.736.288c-.171.192-.256.443-.256.752v.256c0 .31.085.56.256.752.181.192.427.288.736.288zm-6.112-5.248c-.811 0-1.445-.213-1.904-.64-.459-.437-.688-1.029-.688-1.776v-.112c0-.757.229-1.349.688-1.776.459-.437 1.093-.656 1.904-.656.789 0 1.419.219 1.888.656.469.427.704 1.019.704 1.776v.112c0 .747-.229 1.339-.688 1.776-.459.427-1.093.64-1.904.64zm0-1.312c.309 0 .549-.096.72-.288.181-.192.272-.442.272-.752v-.256c0-.309-.091-.56-.272-.752-.171-.192-.411-.288-.72-.288s-.555.096-.736.288c-.171.192-.256.443-.256.752v.256c0 .31.085.56.256.752.181.192.427.288.736.288zM195.346 90.683v-1.2h1.568v-8.8h-1.568v-1.2h5.616c.65 0 1.226.118 1.728.352.512.235.906.566 1.184.992.288.416.432.907.432 1.472v.128c0 .523-.102.955-.304 1.296a2.57 2.57 0 0 1-.72.784c-.278.182-.55.315-.816.4v.224c.266.064.544.192.832.384.288.182.528.443.72.784.202.342.304.774.304 1.296v.16c0 .608-.15 1.136-.448 1.584a2.79 2.79 0 0 1-1.2 1.008c-.502.224-1.078.336-1.728.336h-5.6zm2.912-1.216h2.544c.704 0 1.242-.165 1.616-.496.373-.33.56-.778.56-1.344v-.144c0-.565-.187-1.013-.56-1.344-.374-.33-.912-.496-1.616-.496h-2.544v3.824zm0-5.04h2.592c.64 0 1.152-.16 1.536-.48.384-.33.576-.762.576-1.296v-.16c0-.544-.192-.976-.576-1.296-.374-.33-.886-.496-1.536-.496h-2.592v3.728zm11.826 6.48c-.789 0-1.483-.165-2.08-.496a3.58 3.58 0 0 1-1.392-1.424c-.331-.608-.496-1.312-.496-2.112v-.192c0-.81.165-1.52.496-2.128a3.498 3.498 0 0 1 1.376-1.408c.587-.341 1.259-.512 2.016-.512.736 0 1.387.16 1.952.48.565.31 1.008.758 1.328 1.344.32.587.48 1.275.48 2.064v.576h-6.384c.032.843.304 1.504.816 1.984.512.47 1.152.704 1.92.704.672 0 1.189-.154 1.552-.464.363-.309.64-.677.832-1.104l1.088.528c-.16.331-.384.662-.672.992-.277.331-.645.608-1.104.832-.448.224-1.024.336-1.728.336zm-2.688-4.848h5.088c-.043-.725-.293-1.29-.752-1.696-.448-.405-1.024-.608-1.728-.608-.715 0-1.301.203-1.76.608-.459.406-.741.971-.848 1.696zm12.173 4.848c-.758 0-1.44-.16-2.048-.48a3.68 3.68 0 0 1-1.424-1.408c-.342-.608-.512-1.328-.512-2.16v-.176c0-.842.17-1.562.512-2.16a3.568 3.568 0 0 1 1.424-1.392c.608-.33 1.29-.496 2.048-.496.746 0 1.381.139 1.904.416.533.278.949.646 1.248 1.104.309.459.506.95.592 1.472l-1.232.256a2.645 2.645 0 0 0-.384-1.056 2.1 2.1 0 0 0-.816-.768c-.352-.192-.784-.288-1.296-.288-.523 0-.992.118-1.408.352-.406.235-.731.571-.976 1.008-.235.438-.352.96-.352 1.568v.144c0 .608.117 1.131.352 1.568.245.438.57.774.976 1.008.416.235.885.352 1.408.352.778 0 1.37-.202 1.776-.608.416-.405.672-.906.768-1.504l1.248.272a4.33 4.33 0 0 1-.64 1.456c-.31.459-.731.827-1.264 1.104-.523.278-1.158.416-1.904.416zm9.578 0c-.789 0-1.488-.165-2.096-.496a3.604 3.604 0 0 1-1.408-1.392c-.331-.608-.496-1.322-.496-2.144v-.208c0-.81.165-1.52.496-2.128a3.575 3.575 0 0 1 1.408-1.408c.608-.33 1.307-.496 2.096-.496.789 0 1.483.166 2.08.496.608.331 1.077.8 1.408 1.408.341.608.512 1.318.512 2.128v.208c0 .822-.171 1.536-.512 2.144a3.47 3.47 0 0 1-1.408 1.392c-.597.331-1.291.496-2.08.496zm0-1.136c.832 0 1.493-.261 1.984-.784.501-.533.752-1.248.752-2.144V86.7c0-.896-.251-1.605-.752-2.128-.491-.533-1.152-.8-1.984-.8-.821 0-1.483.267-1.984.8-.501.523-.752 1.232-.752 2.128v.144c0 .896.251 1.611.752 2.144.501.523 1.163.784 1.984.784zm6.275.912V82.86h1.232v.976h.224c.149-.277.394-.533.736-.768.341-.234.821-.352 1.44-.352.608 0 1.098.134 1.472.4.384.267.661.592.832.976h.224a2.55 2.55 0 0 1 .816-.976c.373-.266.89-.4 1.552-.4.522 0 .981.107 1.376.32.394.214.704.523.928.928.234.395.352.87.352 1.424v5.296h-1.264V85.5c0-.522-.155-.933-.464-1.232-.299-.309-.72-.464-1.264-.464-.576 0-1.051.187-1.424.56-.363.374-.544.912-.544 1.616v4.704h-1.264V85.5c0-.522-.155-.933-.464-1.232-.299-.309-.72-.464-1.264-.464-.576 0-1.051.187-1.424.56-.363.374-.544.912-.544 1.616v4.704h-1.264zm13.765 0V82.86h1.264v7.824h-1.264zm.64-9.04a.987.987 0 0 1-.704-.272.934.934 0 0 1-.272-.688c0-.288.091-.522.272-.704a.988.988 0 0 1 .704-.272c.278 0 .507.091.688.272.182.182.272.416.272.704a.93.93 0 0 1-.96.96zm3.282 9.04V82.86h1.232v1.328h.224c.171-.373.459-.709.864-1.008.416-.309 1.024-.464 1.824-.464.587 0 1.11.123 1.568.368.47.246.843.608 1.12 1.088.278.48.416 1.072.416 1.776v4.736h-1.264v-4.64c0-.778-.197-1.344-.592-1.696-.384-.352-.906-.528-1.568-.528-.757 0-1.376.246-1.856.736-.469.491-.704 1.222-.704 2.192v3.936h-1.264zm9.429-3.872v-.224c0-.821.165-1.525.496-2.112.33-.586.778-1.04 1.344-1.36a3.702 3.702 0 0 1 1.856-.48c.821 0 1.45.16 1.888.48.448.31.778.656.992 1.04h.224V82.86h1.2v9.648c0 .427-.118.763-.352 1.008-.235.246-.576.368-1.024.368h-5.312v-1.12h4.976c.32 0 .48-.16.48-.48v-2.976h-.224c-.128.235-.31.464-.544.688-.235.224-.539.411-.912.56-.374.139-.838.208-1.392.208-.672 0-1.291-.16-1.856-.48a3.496 3.496 0 0 1-1.344-1.36c-.331-.597-.496-1.301-.496-2.112zm4.032 2.832c.81 0 1.466-.256 1.968-.768.512-.512.768-1.216.768-2.112v-.128c0-.906-.256-1.61-.768-2.112-.502-.512-1.158-.768-1.968-.768-.8 0-1.462.256-1.984.768-.512.502-.768 1.206-.768 2.112v.128c0 .896.256 1.6.768 2.112.522.512 1.184.768 1.984.768zm10.727 1.04V82.86h1.232v.976h.224c.149-.277.394-.533.736-.768.341-.234.821-.352 1.44-.352.608 0 1.098.134 1.472.4.384.267.661.592.832.976h.224a2.55 2.55 0 0 1 .816-.976c.373-.266.89-.4 1.552-.4.522 0 .981.107 1.376.32.394.214.704.523.928.928.234.395.352.87.352 1.424v5.296h-1.264V85.5c0-.522-.155-.933-.464-1.232-.299-.309-.72-.464-1.264-.464-.576 0-1.051.187-1.424.56-.363.374-.544.912-.544 1.616v4.704h-1.264V85.5c0-.522-.155-.933-.464-1.232-.299-.309-.72-.464-1.264-.464-.576 0-1.051.187-1.424.56-.363.374-.544.912-.544 1.616v4.704h-1.264zm14.584 3.2v-1.12h4.48c.31 0 .464-.16.464-.48v-2.848h-.224a2.446 2.446 0 0 1-1.344 1.2c-.352.128-.794.192-1.328.192a3.395 3.395 0 0 1-1.568-.368 2.752 2.752 0 0 1-1.12-1.088c-.266-.48-.4-1.066-.4-1.76V82.86h1.264v4.656c0 .768.192 1.328.576 1.68.395.352.923.528 1.584.528.747 0 1.36-.245 1.84-.736.48-.49.72-1.221.72-2.192V82.86h1.264v9.648c0 .427-.122.763-.368 1.008-.234.246-.581.368-1.04.368h-4.8zm-76.703 21.024c-.789 0-1.488-.165-2.096-.496a3.602 3.602 0 0 1-1.408-1.392c-.33-.608-.496-1.322-.496-2.144v-.208c0-.81.166-1.52.496-2.128a3.584 3.584 0 0 1 1.408-1.408c.608-.33 1.307-.496 2.096-.496.79 0 1.483.166 2.08.496.608.331 1.078.8 1.408 1.408.342.608.512 1.318.512 2.128v.208c0 .822-.17 1.536-.512 2.144-.33.598-.8 1.062-1.408 1.392-.597.331-1.29.496-2.08.496zm0-1.136c.832 0 1.494-.261 1.984-.784.502-.533.752-1.248.752-2.144v-.144c0-.896-.25-1.605-.752-2.128-.49-.533-1.152-.8-1.984-.8-.821 0-1.482.267-1.984.8-.501.523-.752 1.232-.752 2.128v.144c0 .896.251 1.611.752 2.144.502.523 1.163.784 1.984.784zm7.207.912-1.568-7.824h1.28l1.296 6.976h.224l1.712-6.976h2.096l1.712 6.976h.224l1.296-6.976h1.28l-1.568 7.824h-2.16l-1.728-6.976h-.208l-1.728 6.976h-2.16zm11.724 0v-7.824h1.232v1.328h.224c.171-.373.459-.709.864-1.008.416-.309 1.024-.464 1.824-.464.587 0 1.11.123 1.568.368.47.246.843.608 1.12 1.088.278.48.416 1.072.416 1.776v4.736h-1.264v-4.64c0-.778-.197-1.344-.592-1.696-.384-.352-.906-.528-1.568-.528-.757 0-1.376.246-1.856.736-.469.491-.704 1.222-.704 2.192v3.936h-1.264zm18.258.224c-.811 0-1.445-.154-1.904-.464-.448-.309-.773-.661-.976-1.056h-.224v1.296h-1.232v-11.2h1.264v4.608h.224c.128-.245.309-.474.544-.688.235-.224.539-.405.912-.544.384-.149.848-.224 1.392-.224.683 0 1.301.166 1.856.496.565.32 1.013.784 1.344 1.392.331.598.496 1.312.496 2.144v.208c0 .832-.171 1.552-.512 2.16a3.456 3.456 0 0 1-1.344 1.392c-.555.32-1.168.48-1.84.48zm-.336-1.12c.811 0 1.467-.256 1.968-.768.512-.522.768-1.248.768-2.176v-.144c0-.928-.256-1.648-.768-2.16-.501-.522-1.157-.784-1.968-.784-.8 0-1.461.262-1.984.784-.512.512-.768 1.232-.768 2.16v.144c0 .928.256 1.654.768 2.176.523.512 1.184.768 1.984.768zm9.913 1.12c-.789 0-1.488-.165-2.096-.496a3.596 3.596 0 0 1-1.408-1.392c-.331-.608-.496-1.322-.496-2.144v-.208c0-.81.165-1.52.496-2.128a3.577 3.577 0 0 1 1.408-1.408c.608-.33 1.307-.496 2.096-.496.789 0 1.483.166 2.08.496.608.331 1.077.8 1.408 1.408.341.608.512 1.318.512 2.128v.208c0 .822-.171 1.536-.512 2.144a3.463 3.463 0 0 1-1.408 1.392c-.597.331-1.291.496-2.08.496zm0-1.136c.832 0 1.493-.261 1.984-.784.501-.533.752-1.248.752-2.144v-.144c0-.896-.251-1.605-.752-2.128-.491-.533-1.152-.8-1.984-.8-.821 0-1.483.267-1.984.8-.501.523-.752 1.232-.752 2.128v.144c0 .896.251 1.611.752 2.144.501.523 1.163.784 1.984.784zm9.427 1.136c-.971 0-1.792-.224-2.464-.672-.662-.448-1.062-1.157-1.2-2.128l1.2-.272c.085.512.245.918.48 1.216.234.288.522.496.864.624.352.118.725.176 1.12.176.586 0 1.05-.117 1.392-.352.341-.234.512-.549.512-.944 0-.405-.166-.688-.496-.848-.32-.17-.763-.309-1.328-.416l-.656-.112a5.86 5.86 0 0 1-1.376-.4 2.51 2.51 0 0 1-.992-.736c-.246-.309-.368-.698-.368-1.168 0-.704.272-1.253.816-1.648.544-.394 1.264-.592 2.16-.592.885 0 1.6.203 2.144.608.554.395.912.955 1.072 1.68l-1.184.304c-.096-.565-.326-.96-.688-1.184-.363-.234-.811-.352-1.344-.352-.534 0-.955.102-1.264.304-.31.192-.464.48-.464.864 0 .374.144.651.432.832.298.171.693.299 1.184.384l.656.112c.554.096 1.05.23 1.488.4.448.16.8.395 1.056.704.266.31.4.715.4 1.216 0 .768-.288 1.36-.864 1.776-.566.416-1.328.624-2.288.624zm8.437 0c-.971 0-1.792-.224-2.464-.672-.661-.448-1.061-1.157-1.2-2.128l1.2-.272c.085.512.245.918.48 1.216.235.288.523.496.864.624.352.118.725.176 1.12.176.587 0 1.051-.117 1.392-.352.341-.234.512-.549.512-.944 0-.405-.165-.688-.496-.848-.32-.17-.763-.309-1.328-.416l-.656-.112a5.874 5.874 0 0 1-1.376-.4 2.51 2.51 0 0 1-.992-.736c-.245-.309-.368-.698-.368-1.168 0-.704.272-1.253.816-1.648.544-.394 1.264-.592 2.16-.592.885 0 1.6.203 2.144.608.555.395.912.955 1.072 1.68l-1.184.304c-.096-.565-.325-.96-.688-1.184-.363-.234-.811-.352-1.344-.352s-.955.102-1.264.304c-.309.192-.464.48-.464.864 0 .374.144.651.432.832.299.171.693.299 1.184.384l.656.112c.555.096 1.051.23 1.488.4.448.16.8.395 1.056.704.267.31.4.715.4 1.216 0 .768-.288 1.36-.864 1.776-.565.416-1.328.624-2.288.624z" fill="#fff"/><path fill="#F6331C" d="M0 .95h156v144H0z"/><path d="M60.328 52.398c-1.707 0-3.19-.32-4.448-.96-1.259-.64-2.23-1.525-2.912-2.656-.683-1.13-1.024-2.432-1.024-3.904V37.23c0-1.813.362-3.317 1.088-4.512a6.944 6.944 0 0 1 3.04-2.72c1.301-.597 2.784-.896 4.448-.896 1.664 0 3.104.278 4.32.832 1.237.555 2.186 1.355 2.848 2.4.682 1.046 1.024 2.294 1.024 3.744h-4.16c0-.896-.31-1.674-.928-2.336-.619-.661-1.654-.992-3.104-.992-1.43 0-2.539.374-3.328 1.12-.768.747-1.152 1.782-1.152 3.104v2.304h.576c.362-.426.917-.832 1.664-1.216.746-.384 1.834-.576 3.264-.576 1.301 0 2.496.278 3.584.832a6.703 6.703 0 0 1 2.688 2.432c.682 1.046 1.024 2.315 1.024 3.808v.384c0 1.472-.352 2.774-1.056 3.904-.704 1.11-1.696 1.984-2.976 2.624-1.28.619-2.774.928-4.48.928zm.064-3.648c1.344 0 2.4-.352 3.168-1.056.79-.704 1.184-1.642 1.184-2.816v-.256c0-.789-.182-1.472-.544-2.048-.342-.576-.843-1.024-1.504-1.344-.64-.32-1.408-.48-2.304-.48-.875 0-1.643.16-2.304.48-.662.32-1.174.768-1.536 1.344-.342.576-.512 1.259-.512 2.048v.256c0 1.174.384 2.112 1.152 2.816.79.704 1.856 1.056 3.2 1.056zm10.952 3.2v-2.688c0-1.557.256-2.848.768-3.872a6.568 6.568 0 0 1 2.208-2.56c.981-.682 2.176-1.237 3.584-1.664l2.144-.672c.79-.256 1.45-.565 1.984-.928a3.92 3.92 0 0 0 1.216-1.376c.299-.533.448-1.141.448-1.824v-.128c0-1.066-.363-1.909-1.088-2.528-.725-.64-1.717-.96-2.976-.96-1.237 0-2.24.342-3.008 1.024-.747.662-1.12 1.622-1.12 2.88v.576h-4.096v-.512c0-1.621.363-2.997 1.088-4.128a7.081 7.081 0 0 1 2.944-2.592c1.259-.597 2.656-.896 4.192-.896s2.923.299 4.16.896c1.237.576 2.208 1.398 2.912 2.464.725 1.046 1.088 2.283 1.088 3.712v.32c0 1.43-.299 2.646-.896 3.648a7.163 7.163 0 0 1-2.368 2.432c-1.003.619-2.144 1.131-3.424 1.536l-2.048.64c-.917.278-1.632.587-2.144.928-.512.32-.875.683-1.088 1.088-.192.384-.288.854-.288 1.408v.128H87.6v3.648H71.344zM95.368 47.158l-1.216-.976 8.608-10.64 1.216.976-8.608 10.64zm6.752-.048c-.811 0-1.445-.213-1.904-.64-.459-.437-.688-1.029-.688-1.776v-.112c0-.757.23-1.349.688-1.776.459-.437 1.093-.656 1.904-.656.789 0 1.419.219 1.888.656.469.427.704 1.019.704 1.776v.112c0 .747-.229 1.339-.688 1.776-.459.427-1.093.64-1.904.64zm0-1.312c.309 0 .549-.096.72-.288.181-.192.272-.442.272-.752v-.256c0-.309-.091-.56-.272-.752-.171-.192-.411-.288-.72-.288s-.555.096-.736.288c-.171.192-.256.443-.256.752v.256c0 .31.085.56.256.752.181.192.427.288.736.288zm-6.112-5.248c-.81 0-1.445-.213-1.904-.64-.459-.437-.688-1.029-.688-1.776v-.112c0-.757.23-1.349.688-1.776.459-.437 1.093-.656 1.904-.656.79 0 1.419.219 1.888.656.47.427.704 1.019.704 1.776v.112c0 .747-.23 1.339-.688 1.776-.459.427-1.093.64-1.904.64zm0-1.312c.31 0 .55-.096.72-.288.181-.192.272-.442.272-.752v-.256c0-.309-.09-.56-.272-.752-.17-.192-.41-.288-.72-.288s-.555.096-.736.288c-.17.192-.256.443-.256.752v.256c0 .31.085.56.256.752.181.192.427.288.736.288zM18.695 91.174c-.832 0-1.557-.149-2.176-.448a3.274 3.274 0 0 1-1.44-1.328c-.341-.597-.512-1.328-.512-2.192V79.75h1.328v7.472c0 .918.245 1.606.736 2.064.49.459 1.179.688 2.064.688.886 0 1.573-.229 2.064-.688.49-.458.736-1.146.736-2.064V79.75h1.344v7.456c0 .864-.17 1.595-.512 2.192a3.257 3.257 0 0 1-1.456 1.328c-.618.299-1.344.448-2.176.448zm6.656-.224v-7.824h1.232v1.328h.224c.171-.373.46-.709.864-1.008.416-.309 1.024-.464 1.824-.464.587 0 1.11.123 1.568.368.47.246.843.608 1.12 1.088.278.48.416 1.072.416 1.776v4.736h-1.264v-4.64c0-.778-.197-1.344-.592-1.696-.384-.352-.906-.528-1.568-.528-.757 0-1.376.246-1.856.736-.469.491-.704 1.222-.704 2.192v3.936h-1.264zm11.13 0v-6.72h-2.4v-1.104h2.4v-2c0-.426.117-.762.352-1.008.245-.245.592-.368 1.04-.368h1.968v1.088h-1.616c-.32 0-.48.16-.48.48v1.808h2.464v1.104h-2.464v6.72h-1.264zm7.802.224a3.74 3.74 0 0 1-1.488-.288c-.448-.192-.8-.469-1.056-.832-.256-.362-.384-.805-.384-1.328 0-.533.128-.97.384-1.312a2.265 2.265 0 0 1 1.056-.784c.448-.181.949-.272 1.504-.272h2.64v-.576c0-.554-.166-.992-.496-1.312-.32-.32-.8-.48-1.44-.48-.63 0-1.12.155-1.472.464-.352.299-.592.704-.72 1.216l-1.184-.384a3.47 3.47 0 0 1 .608-1.184c.277-.362.645-.65 1.104-.864.469-.224 1.029-.336 1.68-.336 1.002 0 1.781.262 2.336.784.554.512.832 1.238.832 2.176v3.536c0 .32.149.48.448.48h.72v1.072H48.25c-.352 0-.635-.096-.848-.288-.214-.202-.32-.469-.32-.8v-.08h-.192a3.836 3.836 0 0 1-.48.64c-.192.214-.459.39-.8.528-.342.15-.784.224-1.328.224zm.144-1.088c.746 0 1.349-.218 1.808-.656.469-.448.704-1.072.704-1.872v-.176h-2.592c-.502 0-.918.112-1.248.336-.32.214-.48.539-.48.976 0 .438.165.779.496 1.024.341.246.778.368 1.312.368zm6.659.864v-7.824h1.264v7.824h-1.264zm.64-9.04a.987.987 0 0 1-.704-.272.932.932 0 0 1-.272-.688c0-.288.09-.522.272-.704a.987.987 0 0 1 .704-.272c.277 0 .507.091.688.272.181.182.272.416.272.704 0 .278-.09.507-.272.688a.932.932 0 0 1-.688.272zm3.282 9.04v-7.824h1.232v.96h.224c.138-.341.352-.592.64-.752.288-.16.666-.24 1.136-.24h.928v1.152H58.16c-.566 0-1.024.16-1.376.48-.342.31-.512.795-.512 1.456v4.768h-1.264zm13.02 0c-.448 0-.794-.122-1.04-.368-.234-.245-.352-.581-.352-1.008V84.23h-2.352v-1.104h2.352v-2.784H67.9v2.784h2.56v1.104H67.9v5.152c0 .32.155.48.464.48h1.744v1.088h-2.08zm4.48 0v-7.824h1.232v.96h.224c.138-.341.352-.592.64-.752.288-.16.666-.24 1.136-.24h.928v1.152H75.66c-.566 0-1.024.16-1.376.48-.342.31-.512.795-.512 1.456v4.768h-1.264zm9.334.224c-.79 0-1.483-.165-2.08-.496a3.576 3.576 0 0 1-1.392-1.424c-.331-.608-.496-1.312-.496-2.112v-.192c0-.81.165-1.52.496-2.128.33-.608.789-1.077 1.376-1.408.586-.341 1.258-.512 2.016-.512.736 0 1.386.16 1.952.48.565.31 1.008.758 1.328 1.344.32.587.48 1.275.48 2.064v.576h-6.384c.032.843.304 1.504.816 1.984.512.47 1.152.704 1.92.704.672 0 1.189-.154 1.552-.464.362-.309.64-.677.832-1.104l1.088.528c-.16.331-.384.662-.672.992-.278.331-.646.608-1.104.832-.448.224-1.024.336-1.728.336zm-2.688-4.848h5.088c-.043-.725-.294-1.29-.752-1.696-.448-.405-1.024-.608-1.728-.608-.715 0-1.302.203-1.76.608-.459.406-.742.971-.848 1.696zm10.972 4.848a3.74 3.74 0 0 1-1.488-.288c-.448-.192-.8-.469-1.056-.832-.256-.362-.384-.805-.384-1.328 0-.533.128-.97.384-1.312a2.265 2.265 0 0 1 1.056-.784c.448-.181.95-.272 1.504-.272h2.64v-.576c0-.554-.165-.992-.496-1.312-.32-.32-.8-.48-1.44-.48-.629 0-1.12.155-1.472.464-.352.299-.592.704-.72 1.216l-1.184-.384a3.47 3.47 0 0 1 .608-1.184 2.9 2.9 0 0 1 1.104-.864c.47-.224 1.03-.336 1.68-.336 1.003 0 1.782.262 2.336.784.555.512.832 1.238.832 2.176v3.536c0 .32.15.48.448.48h.72v1.072h-1.104c-.352 0-.634-.096-.848-.288-.213-.202-.32-.469-.32-.8v-.08h-.192a3.836 3.836 0 0 1-.48.64c-.192.214-.458.39-.8.528-.34.15-.784.224-1.328.224zm.144-1.088c.747 0 1.35-.218 1.808-.656.47-.448.704-1.072.704-1.872v-.176H90.19c-.5 0-.917.112-1.248.336-.32.214-.48.539-.48.976 0 .438.166.779.496 1.024.342.246.78.368 1.312.368zm9.024.864c-.448 0-.795-.122-1.04-.368-.235-.245-.352-.581-.352-1.008V84.23H95.55v-1.104h2.352v-2.784h1.264v2.784h2.56v1.104h-2.56v5.152c0 .32.155.48.464.48h1.744v1.088h-2.08zm4.479 0v-7.824h1.232v.976h.224c.15-.277.395-.533.736-.768.342-.234.822-.352 1.44-.352.608 0 1.099.134 1.472.4.384.267.662.592.832.976h.224c.182-.384.454-.709.816-.976.374-.266.891-.4 1.552-.4.523 0 .982.107 1.376.32.395.214.704.523.928.928.235.395.352.87.352 1.424v5.296h-1.264v-5.184c0-.522-.154-.933-.464-1.232-.298-.309-.72-.464-1.264-.464-.576 0-1.05.187-1.424.56-.362.374-.544.912-.544 1.616v4.704h-1.264v-5.184c0-.522-.154-.933-.464-1.232-.298-.309-.72-.464-1.264-.464-.576 0-1.05.187-1.424.56-.362.374-.544.912-.544 1.616v4.704h-1.264zm17.35.224c-.789 0-1.483-.165-2.08-.496a3.58 3.58 0 0 1-1.392-1.424c-.331-.608-.496-1.312-.496-2.112v-.192c0-.81.165-1.52.496-2.128a3.498 3.498 0 0 1 1.376-1.408c.587-.341 1.259-.512 2.016-.512.736 0 1.387.16 1.952.48.565.31 1.008.758 1.328 1.344.32.587.48 1.275.48 2.064v.576h-6.384c.032.843.304 1.504.816 1.984.512.47 1.152.704 1.92.704.672 0 1.189-.154 1.552-.464.363-.309.64-.677.832-1.104l1.088.528c-.16.331-.384.662-.672.992-.277.331-.645.608-1.104.832-.448.224-1.024.336-1.728.336zm-2.688-4.848h5.088c-.043-.725-.293-1.29-.752-1.696-.448-.405-1.024-.608-1.728-.608-.715 0-1.301.203-1.76.608-.459.406-.741.971-.848 1.696zm8.573 4.624v-7.824h1.232v1.328h.224c.17-.373.458-.709.864-1.008.416-.309 1.024-.464 1.824-.464.586 0 1.109.123 1.568.368.469.246.842.608 1.12 1.088.277.48.416 1.072.416 1.776v4.736h-1.264v-4.64c0-.778-.198-1.344-.592-1.696-.384-.352-.907-.528-1.568-.528-.758 0-1.376.246-1.856.736-.47.491-.704 1.222-.704 2.192v3.936h-1.264zm12.473 0c-.448 0-.794-.122-1.04-.368-.234-.245-.352-.581-.352-1.008V84.23h-2.352v-1.104h2.352v-2.784h1.264v2.784h2.56v1.104h-2.56v5.152c0 .32.155.48.464.48h1.744v1.088h-2.08zm-108.184 24v-7.824h1.264v7.824h-1.264zm.64-9.04a.984.984 0 0 1-.704-.272.93.93 0 0 1-.272-.688c0-.288.09-.522.272-.704a.988.988 0 0 1 .704-.272c.277 0 .506.091.688.272a.954.954 0 0 1 .272.704.931.931 0 0 1-.96.96zm3.282 9.04v-7.824h1.232v1.328h.224c.17-.373.458-.709.864-1.008.416-.309 1.024-.464 1.824-.464.586 0 1.109.123 1.568.368.469.246.842.608 1.12 1.088.277.48.416 1.072.416 1.776v4.736h-1.264v-4.64c0-.778-.198-1.344-.592-1.696-.384-.352-.907-.528-1.568-.528-.758 0-1.376.246-1.856.736-.47.491-.704 1.222-.704 2.192v3.936h-1.264zm13.922 3.2v-11.024h1.232v1.296h.224c.202-.394.527-.746.975-1.056.46-.309 1.094-.464 1.904-.464.672 0 1.286.166 1.84.496a3.48 3.48 0 0 1 1.344 1.376c.342.598.513 1.318.513 2.16v.208c0 .832-.166 1.552-.497 2.16a3.452 3.452 0 0 1-1.343 1.392c-.555.32-1.174.48-1.856.48-.544 0-1.008-.074-1.392-.224a2.615 2.615 0 0 1-.913-.544 2.843 2.843 0 0 1-.543-.688h-.224v4.432H49.14zm4-4.096c.81 0 1.466-.256 1.968-.768.511-.522.767-1.248.767-2.176v-.144c0-.928-.255-1.648-.767-2.16-.502-.522-1.158-.784-1.968-.784-.8 0-1.462.262-1.984.784-.512.512-.768 1.232-.768 2.16v.144c0 .928.255 1.654.767 2.176.523.512 1.184.768 1.985.768zm6.296.896v-7.824h1.232v.96h.224c.139-.341.352-.592.64-.752.288-.16.667-.24 1.136-.24h.928v1.152H62.59c-.565 0-1.024.16-1.376.48-.341.31-.512.795-.512 1.456v4.768h-1.264zm9.334.224c-.789 0-1.482-.165-2.08-.496a3.573 3.573 0 0 1-1.392-1.424c-.33-.608-.496-1.312-.496-2.112v-.192c0-.81.166-1.52.496-2.128a3.5 3.5 0 0 1 1.376-1.408c.587-.341 1.259-.512 2.016-.512.736 0 1.387.16 1.952.48.566.31 1.008.758 1.328 1.344.32.587.48 1.275.48 2.064v.576h-6.384c.032.843.304 1.504.816 1.984.512.47 1.152.704 1.92.704.672 0 1.19-.154 1.552-.464.363-.309.64-.677.832-1.104l1.088.528c-.16.331-.384.662-.672.992-.277.331-.645.608-1.104.832-.448.224-1.024.336-1.728.336zm-2.688-4.848h5.088c-.042-.725-.293-1.29-.752-1.696-.448-.405-1.024-.608-1.728-.608-.714 0-1.301.203-1.76.608-.458.406-.741.971-.848 1.696zm10.229 4.624-2.8-7.824h1.344l2.352 6.88h.224l2.352-6.88h1.344l-2.8 7.824h-2.016zm6.642.224c-.31 0-.571-.101-.784-.304-.203-.202-.305-.464-.305-.784s.102-.581.305-.784c.213-.202.474-.304.784-.304.32 0 .58.102.784.304.202.203.303.464.303.784s-.1.582-.303.784c-.203.203-.465.304-.784.304zm6.937-.224v-7.824h1.231v.96h.225a1.45 1.45 0 0 1 .64-.752c.288-.16.666-.24 1.136-.24h.927v1.152h-1.007c-.566 0-1.025.16-1.377.48-.34.31-.511.795-.511 1.456v4.768H89.89zm9.365.224c-.789 0-1.487-.165-2.096-.496a3.596 3.596 0 0 1-1.407-1.392c-.331-.608-.496-1.322-.496-2.144v-.208c0-.81.165-1.52.495-2.128a3.577 3.577 0 0 1 1.409-1.408c.608-.33 1.306-.496 2.096-.496.789 0 1.482.166 2.08.496.608.331 1.077.8 1.408 1.408.341.608.512 1.318.512 2.128v.208c0 .822-.171 1.536-.512 2.144a3.463 3.463 0 0 1-1.408 1.392c-.598.331-1.291.496-2.08.496zm0-1.136c.833 0 1.494-.261 1.985-.784.501-.533.752-1.248.752-2.144v-.144c0-.896-.251-1.605-.752-2.128-.491-.533-1.152-.8-1.984-.8-.822 0-1.483.267-1.985.8-.5.523-.752 1.232-.752 2.128v.144c0 .896.251 1.611.752 2.144.502.523 1.163.784 1.984.784zm6.275.912v-11.2h1.264v11.2h-1.264zm7.506.224c-.789 0-1.483-.165-2.08-.496a3.578 3.578 0 0 1-1.392-1.424c-.331-.608-.496-1.312-.496-2.112v-.192c0-.81.165-1.52.496-2.128a3.5 3.5 0 0 1 1.376-1.408c.587-.341 1.259-.512 2.016-.512.736 0 1.387.16 1.952.48a3.3 3.3 0 0 1 1.328 1.344c.32.587.48 1.275.48 2.064v.576h-6.384c.032.843.304 1.504.816 1.984.512.47 1.152.704 1.92.704.672 0 1.189-.154 1.552-.464.363-.309.64-.677.832-1.104l1.088.528c-.16.331-.384.662-.672.992-.277.331-.645.608-1.104.832-.448.224-1.024.336-1.728.336zm-2.688-4.848h5.088c-.043-.725-.293-1.29-.752-1.696-.448-.405-1.024-.608-1.728-.608-.715 0-1.301.203-1.76.608-.459.406-.741.971-.848 1.696zm11.725 4.848c-.971 0-1.792-.224-2.464-.672-.662-.448-1.062-1.157-1.2-2.128l1.2-.272c.085.512.245.918.48 1.216.234.288.522.496.864.624.352.118.725.176 1.12.176.586 0 1.05-.117 1.392-.352.341-.234.512-.549.512-.944 0-.405-.166-.688-.496-.848-.32-.17-.763-.309-1.328-.416l-.656-.112a5.86 5.86 0 0 1-1.376-.4 2.51 2.51 0 0 1-.992-.736c-.246-.309-.368-.698-.368-1.168 0-.704.272-1.253.816-1.648.544-.394 1.264-.592 2.16-.592.885 0 1.6.203 2.144.608.554.395.912.955 1.072 1.68l-1.184.304c-.096-.565-.326-.96-.688-1.184-.363-.234-.811-.352-1.344-.352-.534 0-.955.102-1.264.304-.31.192-.464.48-.464.864 0 .374.144.651.432.832.298.171.693.299 1.184.384l.656.112c.554.096 1.05.23 1.488.4.448.16.8.395 1.056.704.266.31.4.715.4 1.216 0 .768-.288 1.36-.864 1.776-.566.416-1.328.624-2.288.624z" fill="#fff"/><path fill-rule="evenodd" clip-rule="evenodd" d="M86 144.95H70v12.403h-6l14 14.122 14-14.122h-6V144.95z" fill="#F6331C"/></svg>