<svg width="325" height="671" fill="none" xmlns="http://www.w3.org/2000/svg"><path d="M3.66 28 .9 7h3.93l2.04 18.24h.54L10.05 7h6.84l2.64 18.24h.54L22.11 7h3.93l-2.76 21h-6.84l-2.7-18.66h-.54L10.5 28H3.66zm25.273 0V7h3.96v8.67h7.8V7h3.96v21h-3.96v-8.73h-7.8V28h-3.96zm25.088 0v-7.23L46.88 7h4.41l4.44 9h.54l4.44-9h4.41l-7.14 13.77V28h-3.96z" fill="#0063E2"/><path d="M74.476 28v-2.25h2.94V9.25h-2.94V7h8.19c2.76 0 4.89.7 6.39 2.1 1.52 1.4 2.28 3.55 2.28 6.45v3.9c0 2.92-.76 5.08-2.28 6.48-1.5 1.38-3.63 2.07-6.39 2.07h-8.19zm5.46-2.28h2.73c2.04 0 3.58-.5 4.62-1.5s1.56-2.55 1.56-4.65v-4.11c0-2.14-.52-3.7-1.56-4.68-1.04-.98-2.58-1.47-4.62-1.47h-2.73v16.41zM95.36 28V7h2.52v21h-2.52zm6.334 0v-2.25h2.94V9.25h-2.94V7h8.19c2.76 0 4.89.7 6.39 2.1 1.52 1.4 2.28 3.55 2.28 6.45v3.9c0 2.92-.76 5.08-2.28 6.48-1.5 1.38-3.63 2.07-6.39 2.07h-8.19zm5.46-2.28h2.73c2.04 0 3.58-.5 4.62-1.5s1.56-2.55 1.56-4.65v-4.11c0-2.14-.52-3.7-1.56-4.68-1.04-.98-2.58-1.47-4.62-1.47h-2.73v16.41zM135.39 28v-8.01L127.92 7h2.88l5.64 10.08h.42L142.5 7h2.88l-7.47 12.99V28h-2.52zm19.62.42c-2.5 0-4.5-.72-6-2.16-1.48-1.46-2.22-3.58-2.22-6.36v-4.8c0-2.78.74-4.89 2.22-6.33 1.5-1.46 3.5-2.19 6-2.19 2.52 0 4.52.73 6 2.19 1.5 1.44 2.25 3.55 2.25 6.33v4.8c0 2.78-.75 4.9-2.25 6.36-1.48 1.44-3.48 2.16-6 2.16zm0-2.25c1.82 0 3.23-.54 4.23-1.62 1-1.1 1.5-2.62 1.5-4.56v-4.98c0-1.94-.5-3.45-1.5-4.53-1-1.1-2.41-1.65-4.23-1.65-1.8 0-3.2.55-4.2 1.65-1 1.08-1.5 2.59-1.5 4.53v4.98c0 1.94.5 3.46 1.5 4.56 1 1.08 2.4 1.62 4.2 1.62zm20.039 2.25c-1.56 0-2.92-.28-4.08-.84a6.14 6.14 0 0 1-2.7-2.49c-.64-1.12-.96-2.49-.96-4.11V7h2.49v14.01c0 1.72.46 3.01 1.38 3.87.92.86 2.21 1.29 3.87 1.29 1.66 0 2.95-.43 3.87-1.29.92-.86 1.38-2.15 1.38-3.87V7h2.52v13.98c0 1.62-.32 2.99-.96 4.11-.64 1.1-1.55 1.93-2.73 2.49-1.16.56-2.52.84-4.08.84zm27.056 0c-1.52 0-2.88-.27-4.08-.81a6.497 6.497 0 0 1-2.85-2.43c-.68-1.1-1.02-2.47-1.02-4.11v-.63h2.49v.63c0 1.74.51 3.04 1.53 3.9 1.02.84 2.33 1.26 3.93 1.26 1.64 0 2.89-.37 3.75-1.11.86-.74 1.29-1.67 1.29-2.79 0-.78-.2-1.4-.6-1.86-.38-.46-.92-.83-1.62-1.11-.7-.3-1.52-.56-2.46-.78l-1.56-.39c-1.22-.32-2.3-.71-3.24-1.17-.94-.46-1.68-1.06-2.22-1.8-.52-.76-.78-1.73-.78-2.91 0-1.18.29-2.2.87-3.06.6-.86 1.43-1.52 2.49-1.98 1.08-.46 2.32-.69 3.72-.69 1.42 0 2.69.25 3.81.75 1.14.48 2.03 1.2 2.67 2.16.66.94.99 2.13.99 3.57v1.26h-2.49v-1.26c0-1.02-.22-1.84-.66-2.46-.42-.62-1.01-1.08-1.77-1.38-.74-.3-1.59-.45-2.55-.45-1.38 0-2.49.31-3.33.93-.84.6-1.26 1.46-1.26 2.58 0 .74.18 1.34.54 1.8.36.46.87.84 1.53 1.14.66.28 1.45.53 2.37.75l1.56.39c1.22.26 2.31.62 3.27 1.08.98.44 1.76 1.05 2.34 1.83.58.76.87 1.76.87 3s-.31 2.32-.93 3.24c-.62.92-1.5 1.64-2.64 2.16-1.12.5-2.44.75-3.96.75zm15.66-.42V9.28h-6.75V7h16.02v2.28h-6.75V28h-2.52zm8.571 0 6.48-21h4.44l6.48 21h-2.61l-1.62-5.31h-8.94l-1.62 5.31h-2.61zm4.86-7.59h7.65l-3.6-11.88h-.42l-3.63 11.88zM246.882 28V7h8.49c1.3 0 2.44.23 3.42.69 1 .44 1.78 1.08 2.34 1.92.56.82.84 1.81.84 2.97v.33c0 1.38-.33 2.47-.99 3.27-.66.8-1.44 1.34-2.34 1.62v.42c.72.02 1.31.26 1.77.72.48.44.72 1.11.72 2.01V28h-2.49v-6.75c0-.6-.17-1.06-.51-1.38-.32-.32-.81-.48-1.47-.48h-7.26V28h-2.52zm2.52-10.89h5.73c1.38 0 2.44-.33 3.18-.99.76-.68 1.14-1.62 1.14-2.82v-.21c0-1.2-.37-2.13-1.11-2.79-.74-.68-1.81-1.02-3.21-1.02h-5.73v7.83zM270.646 28V9.28h-6.75V7h16.02v2.28h-6.75V28h-2.52zM7.89 64v-8.01L.42 43H3.3l5.64 10.08h.42L15 43h2.88l-7.47 12.99V64H7.89zm19.62.42c-2.5 0-4.5-.72-6-2.16-1.48-1.46-2.22-3.58-2.22-6.36v-4.8c0-2.78.74-4.89 2.22-6.33 1.5-1.46 3.5-2.19 6-2.19 2.52 0 4.52.73 6 2.19 1.5 1.44 2.25 3.55 2.25 6.33v4.8c0 2.78-.75 4.9-2.25 6.36-1.48 1.44-3.48 2.16-6 2.16zm0-2.25c1.82 0 3.23-.54 4.23-1.62 1-1.1 1.5-2.62 1.5-4.56v-4.98c0-1.94-.5-3.45-1.5-4.53-1-1.1-2.41-1.65-4.23-1.65-1.8 0-3.2.55-4.2 1.65-1 1.08-1.5 2.59-1.5 4.53v4.98c0 1.94.5 3.46 1.5 4.56 1 1.08 2.4 1.62 4.2 1.62zm20.039 2.25c-1.56 0-2.92-.28-4.08-.84a6.14 6.14 0 0 1-2.7-2.49c-.64-1.12-.96-2.49-.96-4.11V43h2.49v14.01c0 1.72.46 3.01 1.38 3.87.92.86 2.21 1.29 3.87 1.29 1.66 0 2.95-.43 3.87-1.29.92-.86 1.38-2.15 1.38-3.87V43h2.52v13.98c0 1.62-.32 2.99-.96 4.11-.64 1.1-1.55 1.93-2.73 2.49-1.16.56-2.52.84-4.08.84zm12.39-.42V43h8.49c1.3 0 2.44.23 3.42.69 1 .44 1.78 1.08 2.34 1.92.56.82.84 1.81.84 2.97v.33c0 1.38-.33 2.47-.99 3.27-.66.8-1.44 1.34-2.34 1.62v.42c.72.02 1.31.26 1.77.72.48.44.72 1.11.72 2.01V64H71.7v-6.75c0-.6-.17-1.06-.51-1.38-.32-.32-.81-.48-1.47-.48h-7.26V64h-2.52zm2.52-10.89h5.73c1.38 0 2.44-.33 3.18-.99.76-.68 1.14-1.62 1.14-2.82v-.21c0-1.2-.37-2.13-1.11-2.79-.74-.68-1.81-1.02-3.21-1.02h-5.73v7.83zM85.58 64v-2.25h2.94v-16.5h-2.94V43h10.53c1.22 0 2.3.22 3.24.66.961.44 1.701 1.06 2.221 1.86.54.78.81 1.7.81 2.76v.24c0 .98-.19 1.79-.57 2.43-.38.62-.83 1.11-1.35 1.47-.52.34-1.03.59-1.53.75v.42c.5.12 1.02.36 1.56.72.54.34.99.83 1.35 1.47.38.64.57 1.45.57 2.43v.3c0 1.14-.28 2.13-.84 2.97-.54.82-1.29 1.45-2.25 1.89-.94.42-2.02.63-3.24.63h-10.5zm5.46-2.28h4.77c1.32 0 2.33-.31 3.03-.93.7-.62 1.05-1.46 1.05-2.52V58c0-1.06-.35-1.9-1.05-2.52-.7-.62-1.71-.93-3.03-.93h-4.77v7.17zm0-9.45h4.86c1.2 0 2.16-.3 2.88-.9.72-.62 1.08-1.43 1.08-2.43v-.3c0-1.02-.36-1.83-1.08-2.43-.7-.62-1.66-.93-2.88-.93h-4.86v6.99zm22.955 12.15c-1.56 0-2.92-.28-4.08-.84a6.14 6.14 0 0 1-2.7-2.49c-.64-1.12-.96-2.49-.96-4.11V43h2.49v14.01c0 1.72.46 3.01 1.38 3.87.92.86 2.21 1.29 3.87 1.29 1.66 0 2.95-.43 3.87-1.29.92-.86 1.38-2.15 1.38-3.87V43h2.52v13.98c0 1.62-.32 2.99-.96 4.11-.64 1.1-1.55 1.93-2.73 2.49-1.16.56-2.52.84-4.08.84zm19.38 0c-1.52 0-2.88-.27-4.08-.81a6.497 6.497 0 0 1-2.85-2.43c-.68-1.1-1.02-2.47-1.02-4.11v-.63h2.49v.63c0 1.74.51 3.04 1.53 3.9 1.02.84 2.33 1.26 3.93 1.26 1.64 0 2.89-.37 3.75-1.11.86-.74 1.29-1.67 1.29-2.79 0-.78-.2-1.4-.6-1.86-.38-.46-.92-.83-1.62-1.11-.7-.3-1.52-.56-2.46-.78l-1.56-.39c-1.22-.32-2.3-.71-3.24-1.17-.94-.46-1.68-1.06-2.22-1.8-.52-.76-.78-1.73-.78-2.91 0-1.18.29-2.2.87-3.06.6-.86 1.43-1.52 2.49-1.98 1.08-.46 2.32-.69 3.72-.69 1.42 0 2.69.25 3.81.75 1.14.48 2.03 1.2 2.67 2.16.66.94.99 2.13.99 3.57v1.26h-2.49v-1.26c0-1.02-.22-1.84-.66-2.46-.42-.62-1.01-1.08-1.77-1.38-.74-.3-1.59-.45-2.55-.45-1.38 0-2.49.31-3.33.93-.84.6-1.26 1.46-1.26 2.58 0 .74.18 1.34.54 1.8.36.46.87.84 1.53 1.14.66.28 1.45.53 2.37.75l1.56.39c1.22.26 2.31.62 3.27 1.08.98.44 1.76 1.05 2.34 1.83.58.76.87 1.76.87 3s-.31 2.32-.93 3.24c-.62.92-1.5 1.64-2.64 2.16-1.12.5-2.44.75-3.96.75zm11.409-.42V43h2.52v21h-2.52zm7.324 0V43h4.89l7.32 19.41h.39V43h2.49v21h-4.89l-7.29-19.44h-.42V64h-2.49zm19.922 0V43h12.93v2.28h-10.41v7.02h9.57v2.28h-9.57v7.14h10.56V64h-13.08zm23.894.42c-1.52 0-2.88-.27-4.08-.81a6.497 6.497 0 0 1-2.85-2.43c-.68-1.1-1.02-2.47-1.02-4.11v-.63h2.49v.63c0 1.74.51 3.04 1.53 3.9 1.02.84 2.33 1.26 3.93 1.26 1.64 0 2.89-.37 3.75-1.11.86-.74 1.29-1.67 1.29-2.79 0-.78-.2-1.4-.6-1.86-.38-.46-.92-.83-1.62-1.11-.7-.3-1.52-.56-2.46-.78l-1.56-.39c-1.22-.32-2.3-.71-3.24-1.17-.94-.46-1.68-1.06-2.22-1.8-.52-.76-.78-1.73-.78-2.91 0-1.18.29-2.2.87-3.06.6-.86 1.43-1.52 2.49-1.98 1.08-.46 2.32-.69 3.72-.69 1.42 0 2.69.25 3.81.75 1.14.48 2.03 1.2 2.67 2.16.66.94.99 2.13.99 3.57v1.26h-2.49v-1.26c0-1.02-.22-1.84-.66-2.46-.42-.62-1.01-1.08-1.77-1.38-.74-.3-1.59-.45-2.55-.45-1.38 0-2.49.31-3.33.93-.84.6-1.26 1.46-1.26 2.58 0 .74.18 1.34.54 1.8.36.46.87.84 1.53 1.14.66.28 1.45.53 2.37.75l1.56.39c1.22.26 2.31.62 3.27 1.08.98.44 1.76 1.05 2.34 1.83.58.76.87 1.76.87 3s-.31 2.32-.93 3.24c-.62.92-1.5 1.64-2.64 2.16-1.12.5-2.44.75-3.96.75zm18.399 0c-1.52 0-2.88-.27-4.08-.81a6.497 6.497 0 0 1-2.85-2.43c-.68-1.1-1.02-2.47-1.02-4.11v-.63h2.49v.63c0 1.74.51 3.04 1.53 3.9 1.02.84 2.33 1.26 3.93 1.26 1.64 0 2.89-.37 3.75-1.11.86-.74 1.29-1.67 1.29-2.79 0-.78-.2-1.4-.6-1.86-.38-.46-.92-.83-1.62-1.11-.7-.3-1.52-.56-2.46-.78l-1.56-.39c-1.22-.32-2.3-.71-3.24-1.17-.94-.46-1.68-1.06-2.22-1.8-.52-.76-.78-1.73-.78-2.91 0-1.18.29-2.2.87-3.06.6-.86 1.43-1.52 2.49-1.98 1.08-.46 2.32-.69 3.72-.69 1.42 0 2.69.25 3.81.75 1.14.48 2.03 1.2 2.67 2.16.66.94.99 2.13.99 3.57v1.26h-2.49v-1.26c0-1.02-.22-1.84-.66-2.46-.42-.62-1.01-1.08-1.77-1.38-.74-.3-1.59-.45-2.55-.45-1.38 0-2.49.31-3.33.93-.84.6-1.26 1.46-1.26 2.58 0 .74.18 1.34.54 1.8.36.46.87.84 1.53 1.14.66.28 1.45.53 2.37.75l1.56.39c1.22.26 2.31.62 3.27 1.08.98.44 1.76 1.05 2.34 1.83.58.76.87 1.76.87 3s-.31 2.32-.93 3.24c-.62.92-1.5 1.64-2.64 2.16-1.12.5-2.44.75-3.96.75zm16.118-6.03v-1.83c0-.92.17-1.64.51-2.16.34-.54.94-1 1.8-1.38l.84-.36c1.04-.44 1.85-.96 2.43-1.56.58-.62.87-1.48.87-2.58 0-.82-.21-1.51-.63-2.07-.42-.56-.99-.99-1.71-1.29-.72-.3-1.53-.45-2.43-.45-.9 0-1.74.16-2.52.48-.76.3-1.38.77-1.86 1.41-.46.62-.69 1.41-.69 2.37v1.05h-2.43v-1.05c0-1.38.32-2.54.96-3.48.66-.96 1.55-1.68 2.67-2.16 1.14-.5 2.43-.75 3.87-.75 1.42 0 2.67.26 3.75.78 1.1.5 1.95 1.2 2.55 2.1.62.88.93 1.9.93 3.06 0 1.14-.22 2.09-.66 2.85-.42.74-.97 1.36-1.65 1.86-.68.48-1.43.9-2.25 1.26l-.81.36c-.38.16-.65.37-.81.63-.16.26-.24.63-.24 1.11v1.8h-2.49zm1.29 6.03c-.6 0-1.09-.19-1.47-.57-.38-.38-.57-.87-.57-1.47s.19-1.09.57-1.47c.38-.38.87-.57 1.47-.57.58 0 1.06.19 1.44.57.4.38.6.87.6 1.47s-.2 1.09-.6 1.47c-.38.38-.86.57-1.44.57zM10.02 419.42c-2.5 0-4.5-.72-6-2.16-1.48-1.46-2.22-3.58-2.22-6.36v-4.8c0-2.78.74-4.89 2.22-6.33 1.5-1.46 3.5-2.19 6-2.19 2.52 0 4.52.73 6 2.19 1.5 1.44 2.25 3.55 2.25 6.33v4.8c0 2.78-.75 4.9-2.25 6.36-1.48 1.44-3.48 2.16-6 2.16zm0-2.25c1.82 0 3.23-.54 4.23-1.62 1-1.1 1.5-2.62 1.5-4.56v-4.98c0-1.94-.5-3.45-1.5-4.53-1-1.1-2.41-1.65-4.23-1.65-1.8 0-3.2.55-4.2 1.65-1 1.08-1.5 2.59-1.5 4.53v4.98c0 1.94.5 3.46 1.5 4.56 1 1.08 2.4 1.62 4.2 1.62zM22.468 419v-21h12.69v2.28h-10.17v7.05h9.36v2.28h-9.36V419h-2.52zm28.276 0v-18.72h-6.75V398h16.02v2.28h-6.75V419h-2.52zm12.476 0v-21h2.52v9.33h9.84V398h2.52v21h-2.52v-9.39h-9.84V419h-2.52zm27.308.42c-2.5 0-4.5-.72-6-2.16-1.48-1.46-2.22-3.58-2.22-6.36v-4.8c0-2.78.74-4.89 2.22-6.33 1.5-1.46 3.5-2.19 6-2.19 2.52 0 4.52.73 6 2.19 1.5 1.44 2.25 3.55 2.25 6.33v4.8c0 2.78-.75 4.9-2.25 6.36-1.48 1.44-3.48 2.16-6 2.16zm0-2.25c1.82 0 3.23-.54 4.23-1.62 1-1.1 1.5-2.62 1.5-4.56v-4.98c0-1.94-.5-3.45-1.5-4.53-1-1.1-2.41-1.65-4.23-1.65-1.8 0-3.2.55-4.2 1.65-1 1.08-1.5 2.59-1.5 4.53v4.98c0 1.94.5 3.46 1.5 4.56 1 1.08 2.4 1.62 4.2 1.62zm19.438 2.25c-1.52 0-2.88-.27-4.08-.81a6.497 6.497 0 0 1-2.85-2.43c-.68-1.1-1.02-2.47-1.02-4.11v-.63h2.49v.63c0 1.74.51 3.04 1.53 3.9 1.02.84 2.33 1.26 3.93 1.26 1.64 0 2.89-.37 3.75-1.11.86-.74 1.29-1.67 1.29-2.79 0-.78-.2-1.4-.6-1.86-.38-.46-.92-.83-1.62-1.11-.7-.3-1.52-.56-2.46-.78l-1.56-.39c-1.22-.32-2.3-.71-3.24-1.17-.94-.46-1.68-1.06-2.22-1.8-.52-.76-.78-1.73-.78-2.91 0-1.18.29-2.2.87-3.06.6-.86 1.43-1.52 2.49-1.98 1.08-.46 2.32-.69 3.72-.69 1.42 0 2.69.25 3.81.75 1.14.48 2.03 1.2 2.67 2.16.66.94.99 2.13.99 3.57v1.26h-2.49v-1.26c0-1.02-.22-1.84-.66-2.46-.42-.62-1.01-1.08-1.77-1.38-.74-.3-1.59-.45-2.55-.45-1.38 0-2.49.31-3.33.93-.84.6-1.26 1.46-1.26 2.58 0 .74.18 1.34.54 1.8.36.46.87.84 1.53 1.14.66.28 1.45.53 2.37.75l1.56.39c1.22.26 2.31.62 3.27 1.08.98.44 1.76 1.05 2.34 1.83.58.76.87 1.76.87 3s-.31 2.32-.93 3.24c-.62.92-1.5 1.64-2.64 2.16-1.12.5-2.44.75-3.96.75zm11.409-.42v-21h12.93v2.28h-10.41v7.02h9.57v2.28h-9.57v7.14h10.56V419h-13.08zm26.534 0-3.42-21h2.52l2.97 19.38h.42l3.87-19.38h4.5l3.84 19.38h.42l2.97-19.38h2.52l-3.42 21h-4.5l-3.87-19.5h-.42l-3.87 19.5h-4.53zm24.12 0v-21h2.52v9.33h9.84V398h2.52v21h-2.52v-9.39h-9.84V419h-2.52zm27.307.42c-2.5 0-4.5-.72-6-2.16-1.48-1.46-2.22-3.58-2.22-6.36v-4.8c0-2.78.74-4.89 2.22-6.33 1.5-1.46 3.5-2.19 6-2.19 2.52 0 4.52.73 6 2.19 1.5 1.44 2.25 3.55 2.25 6.33v4.8c0 2.78-.75 4.9-2.25 6.36-1.48 1.44-3.48 2.16-6 2.16zm0-2.25c1.82 0 3.23-.54 4.23-1.62 1-1.1 1.5-2.62 1.5-4.56v-4.98c0-1.94-.5-3.45-1.5-4.53-1-1.1-2.41-1.65-4.23-1.65-1.8 0-3.2.55-4.2 1.65-1 1.08-1.5 2.59-1.5 4.53v4.98c0 1.94.5 3.46 1.5 4.56 1 1.08 2.4 1.62 4.2 1.62zm27.744 2.25c-2.5 0-4.49-.72-5.97-2.16-1.48-1.46-2.22-3.58-2.22-6.36v-4.8c0-2.78.74-4.89 2.22-6.33 1.48-1.46 3.47-2.19 5.97-2.19 2.48 0 4.38.69 5.7 2.07 1.34 1.38 2.01 3.27 2.01 5.67v.15h-2.49v-.24c0-1.58-.43-2.87-1.29-3.87-.84-1.02-2.15-1.53-3.93-1.53-1.78 0-3.17.55-4.17 1.65-1 1.08-1.5 2.6-1.5 4.56v4.92c0 1.96.5 3.49 1.5 4.59 1 1.08 2.39 1.62 4.17 1.62 1.78 0 3.09-.5 3.93-1.5.86-1.02 1.29-2.32 1.29-3.9v-.48h2.49v.39c0 2.4-.67 4.29-2.01 5.67-1.32 1.38-3.22 2.07-5.7 2.07zm11.658-.42v-21h2.52v21h-2.52zm12.484 0v-18.72h-6.75V398h16.02v2.28h-6.75V419h-2.52zm12.477 0v-21h12.93v2.28h-10.41v7.02h9.57v2.28h-9.57v7.14h10.56V419h-13.08zm15.914 0v-2.25h2.94v-16.5h-2.94V398h8.19c2.76 0 4.89.7 6.39 2.1 1.52 1.4 2.28 3.55 2.28 6.45v3.9c0 2.92-.76 5.08-2.28 6.48-1.5 1.38-3.63 2.07-6.39 2.07h-8.19zm5.46-2.28h2.73c2.04 0 3.58-.5 4.62-1.5s1.56-2.55 1.56-4.65v-4.11c0-2.14-.52-3.7-1.56-4.68-1.04-.98-2.58-1.47-4.62-1.47h-2.73v16.41zM9.99 455.42c-1.56 0-2.92-.28-4.08-.84a6.14 6.14 0 0 1-2.7-2.49c-.64-1.12-.96-2.49-.96-4.11V434h2.49v14.01c0 1.72.46 3.01 1.38 3.87.92.86 2.21 1.29 3.87 1.29 1.66 0 2.95-.43 3.87-1.29.92-.86 1.38-2.15 1.38-3.87V434h2.52v13.98c0 1.62-.32 2.99-.96 4.11-.64 1.1-1.55 1.93-2.73 2.49-1.16.56-2.52.84-4.08.84zm12.39-.42v-21h4.89l7.32 19.41h.39V434h2.49v21h-4.89l-7.29-19.44h-.42V455h-2.49zm19.922 0v-21h12.69v2.28h-10.17v7.05h9.36v2.28h-9.36V455h-2.52zm13.233 0 6.48-21h4.44l6.48 21h-2.61l-1.62-5.31h-8.94l-1.62 5.31h-2.61zm4.86-7.59h7.65l-3.6-11.88h-.42l-3.63 11.88zM76.082 455v-21h2.52v21h-2.52zm7.324 0v-21h8.49c1.3 0 2.44.23 3.42.69 1 .44 1.78 1.08 2.34 1.92.56.82.84 1.81.84 2.97v.33c0 1.38-.33 2.47-.99 3.27-.66.8-1.44 1.34-2.34 1.62v.42c.72.02 1.31.26 1.77.72.48.44.72 1.11.72 2.01V455h-2.49v-6.75c0-.6-.17-1.06-.51-1.38-.32-.32-.81-.48-1.47-.48h-7.26V455h-2.52zm2.52-10.89h5.73c1.38 0 2.44-.33 3.18-.99.76-.68 1.14-1.62 1.14-2.82v-.21c0-1.2-.37-2.13-1.11-2.79-.74-.68-1.81-1.02-3.21-1.02h-5.73v7.83zm28.48 10.89v-18.72h-6.75V434h16.02v2.28h-6.75V455h-2.52zm12.476 0v-21h8.49c1.3 0 2.44.23 3.42.69 1 .44 1.78 1.08 2.34 1.92.56.82.84 1.81.84 2.97v.33c0 1.38-.33 2.47-.99 3.27-.66.8-1.44 1.34-2.34 1.62v.42c.72.02 1.31.26 1.77.72.48.44.72 1.11.72 2.01V455h-2.49v-6.75c0-.6-.17-1.06-.51-1.38-.32-.32-.81-.48-1.47-.48h-7.26V455h-2.52zm2.52-10.89h5.73c1.38 0 2.44-.33 3.18-.99.76-.68 1.14-1.62 1.14-2.82v-.21c0-1.2-.37-2.13-1.11-2.79-.74-.68-1.81-1.02-3.21-1.02h-5.73v7.83zM145.808 455v-21h12.93v2.28h-10.41v7.02h9.57v2.28h-9.57v7.14h10.56V455h-13.08zm15.255 0 6.48-21h4.44l6.48 21h-2.61l-1.62-5.31h-8.94l-1.62 5.31h-2.61zm4.86-7.59h7.65l-3.6-11.88h-.42l-3.63 11.88zm18.59 7.59v-18.72h-6.75V434h16.02v2.28h-6.75V455h-2.52zm12.477 0v-21h4.8l5.58 19.41h.39l5.58-19.41h4.8v21h-2.43v-19.35h-.42L209.74 455h-4.35l-5.55-19.35h-.42V455h-2.43zm25.957 0v-21h12.93v2.28h-10.41v7.02h9.57v2.28h-9.57v7.14h10.56V455h-13.08zm16.904 0v-21h4.89l7.32 19.41h.39V434h2.49v21h-4.89l-7.29-19.44h-.42V455h-2.49zm25.082 0v-18.72h-6.75V434h16.02v2.28h-6.75V455h-2.52z" fill="#000"/><path d="M1.6 103V89h3.2l3.72 12.94h.26L12.5 89h3.2v14h-1.62V90.1h-.28L10.1 103H7.2L3.5 90.1h-.28V103H1.6zm21.105.18a4.24 4.24 0 0 1-1.96-.46 3.435 3.435 0 0 1-1.4-1.36c-.334-.613-.5-1.353-.5-2.22v-5.92h1.58v5.8c0 .973.24 1.68.72 2.12.493.44 1.153.66 1.98.66.933 0 1.7-.307 2.3-.92.6-.613.9-1.527.9-2.74v-4.92h1.58V103h-1.54v-1.66h-.28c-.214.467-.58.893-1.1 1.28-.52.373-1.28.56-2.28.56zm8.506-.18V89h1.58v14h-1.58zm8.502 0c-.56 0-.993-.153-1.3-.46-.293-.307-.44-.727-.44-1.26V94.6h-2.94v-1.38h2.94v-3.48h1.58v3.48h3.2v1.38h-3.2v6.44c0 .4.194.6.58.6h2.18V103h-2.6zm5.6 0v-9.78h1.58V103h-1.58zm.8-11.3c-.347 0-.64-.113-.88-.34a1.166 1.166 0 0 1-.34-.86c0-.36.113-.653.34-.88.24-.227.533-.34.88-.34.346 0 .633.113.86.34.226.227.34.52.34.88 0 .347-.114.633-.34.86-.227.227-.514.34-.86.34zm4.102 15.3V93.22h1.54v1.62h.28c.253-.493.66-.933 1.22-1.32.573-.387 1.366-.58 2.38-.58.84 0 1.606.207 2.3.62.706.4 1.266.973 1.68 1.72.426.747.64 1.647.64 2.7v.26c0 1.04-.207 1.94-.62 2.7-.414.76-.974 1.34-1.68 1.74-.694.4-1.467.6-2.32.6-.68 0-1.26-.093-1.74-.28-.467-.173-.847-.4-1.14-.68a3.57 3.57 0 0 1-.68-.86h-.28V107h-1.58zm5-5.12c1.013 0 1.833-.32 2.46-.96.64-.653.96-1.56.96-2.72v-.18c0-1.16-.32-2.06-.96-2.7-.627-.653-1.447-.98-2.46-.98-1 0-1.827.327-2.48.98-.64.64-.96 1.54-.96 2.7v.18c0 1.16.32 2.067.96 2.72.653.64 1.48.96 2.48.96zm7.87 1.12V89h1.58v14h-1.58zm9.383.28c-.987 0-1.853-.207-2.6-.62a4.473 4.473 0 0 1-1.74-1.78c-.413-.76-.62-1.64-.62-2.64V98c0-1.013.207-1.9.62-2.66a4.373 4.373 0 0 1 1.72-1.76c.734-.427 1.573-.64 2.52-.64.92 0 1.734.2 2.44.6.707.387 1.26.947 1.66 1.68.4.733.6 1.593.6 2.58v.72h-7.98c.04 1.053.38 1.88 1.02 2.48.64.587 1.44.88 2.4.88.84 0 1.487-.193 1.94-.58.454-.387.8-.847 1.04-1.38l1.36.66c-.2.413-.48.827-.84 1.24-.346.413-.806.76-1.38 1.04-.56.28-1.28.42-2.16.42zm-3.36-6.06h6.36c-.053-.907-.367-1.613-.94-2.12-.56-.507-1.28-.76-2.16-.76-.893 0-1.626.253-2.2.76-.573.507-.927 1.213-1.06 2.12zm20.853 6.06c-1.667 0-2.994-.48-3.98-1.44-.987-.973-1.48-2.387-1.48-4.24v-3.2c0-1.853.493-3.26 1.48-4.22.986-.973 2.313-1.46 3.98-1.46 1.653 0 2.92.46 3.8 1.38.893.92 1.34 2.18 1.34 3.78v.1h-1.66v-.16c0-1.053-.287-1.913-.86-2.58-.56-.68-1.434-1.02-2.62-1.02-1.187 0-2.114.367-2.78 1.1-.667.72-1 1.733-1 3.04v3.28c0 1.307.333 2.327 1 3.06.666.72 1.593 1.08 2.78 1.08 1.186 0 2.06-.333 2.62-1 .573-.68.86-1.547.86-2.6v-.32h1.66v.26c0 1.6-.447 2.86-1.34 3.78-.88.92-2.147 1.38-3.8 1.38zm7.832-.28V89h1.58v5.78h.28a2.64 2.64 0 0 1 .6-.82c.28-.267.633-.487 1.06-.66.44-.173.993-.26 1.66-.26.733 0 1.386.16 1.96.48a3.44 3.44 0 0 1 1.4 1.36c.346.587.52 1.32.52 2.2V103h-1.58v-5.8c0-.973-.247-1.68-.74-2.12-.48-.44-1.134-.66-1.96-.66-.947 0-1.72.307-2.32.92-.587.613-.88 1.527-.88 2.74V103h-1.58zm16.785.28c-.986 0-1.86-.207-2.62-.62a4.508 4.508 0 0 1-1.76-1.74c-.413-.76-.62-1.653-.62-2.68v-.26c0-1.013.207-1.9.62-2.66a4.475 4.475 0 0 1 1.76-1.76c.76-.413 1.634-.62 2.62-.62.987 0 1.854.207 2.6.62.76.413 1.347 1 1.76 1.76.427.76.64 1.647.64 2.66v.26c0 1.027-.213 1.92-.64 2.68a4.33 4.33 0 0 1-1.76 1.74c-.746.413-1.613.62-2.6.62zm0-1.42c1.04 0 1.867-.327 2.48-.98.627-.667.94-1.56.94-2.68v-.18c0-1.12-.313-2.007-.94-2.66-.613-.667-1.44-1-2.48-1-1.026 0-1.853.333-2.48 1-.626.653-.94 1.54-.94 2.66v.18c0 1.12.314 2.013.94 2.68.627.653 1.454.98 2.48.98zm7.844 1.14v-9.78h1.58V103h-1.58zm.8-11.3c-.347 0-.64-.113-.88-.34a1.164 1.164 0 0 1-.34-.86c0-.36.113-.653.34-.88.24-.227.533-.34.88-.34.346 0 .633.113.86.34.226.227.34.52.34.88 0 .347-.114.633-.34.86-.227.227-.514.34-.86.34zm8.602 11.58c-.947 0-1.8-.2-2.56-.6-.747-.413-1.34-1-1.78-1.76-.427-.76-.64-1.66-.64-2.7V98c0-1.053.213-1.953.64-2.7a4.463 4.463 0 0 1 1.78-1.74c.76-.413 1.613-.62 2.56-.62.933 0 1.727.173 2.38.52.667.347 1.187.807 1.56 1.38a4.58 4.58 0 0 1 .74 1.84l-1.54.32a3.291 3.291 0 0 0-.48-1.32c-.24-.4-.58-.72-1.02-.96-.44-.24-.98-.36-1.62-.36a3.52 3.52 0 0 0-1.76.44 3.264 3.264 0 0 0-1.22 1.26c-.293.547-.44 1.2-.44 1.96v.18c0 .76.147 1.413.44 1.96a3.26 3.26 0 0 0 1.22 1.26c.52.293 1.107.44 1.76.44.973 0 1.713-.253 2.22-.76a3.28 3.28 0 0 0 .96-1.88l1.56.34a5.386 5.386 0 0 1-.8 1.82c-.387.573-.913 1.033-1.58 1.38-.653.347-1.447.52-2.38.52zm11.933 0c-.986 0-1.853-.207-2.6-.62a4.48 4.48 0 0 1-1.74-1.78c-.413-.76-.62-1.64-.62-2.64V98c0-1.013.207-1.9.62-2.66a4.379 4.379 0 0 1 1.72-1.76c.734-.427 1.574-.64 2.52-.64.92 0 1.734.2 2.44.6a4.11 4.11 0 0 1 1.66 1.68c.4.733.6 1.593.6 2.58v.72h-7.98c.04 1.053.38 1.88 1.02 2.48.64.587 1.44.88 2.4.88.84 0 1.487-.193 1.94-.58.454-.387.8-.847 1.04-1.38l1.36.66c-.2.413-.48.827-.84 1.24-.346.413-.806.76-1.38 1.04-.56.28-1.28.42-2.16.42zm-3.36-6.06h6.36c-.053-.907-.366-1.613-.94-2.12-.56-.507-1.28-.76-2.16-.76-.893 0-1.626.253-2.2.76-.573.507-.926 1.213-1.06 2.12z" fill="#707070"/><path fill="#3885E8" d="M0 490.348h156v180H0z"/><path d="M62.853 541.796c-1.685 0-3.179-.298-4.48-.896-1.301-.597-2.325-1.45-3.072-2.56-.725-1.13-1.088-2.464-1.088-4v-.576h4.096v.448c0 1.195.416 2.155 1.248 2.88.832.704 1.93 1.056 3.296 1.056 1.387 0 2.453-.33 3.2-.992.768-.661 1.152-1.493 1.152-2.496v-.32c0-.682-.17-1.237-.512-1.664-.341-.426-.8-.736-1.376-.928-.576-.213-1.227-.32-1.952-.32h-4.48v-4.48l7.232-3.84v-.512H54.789v-3.648h15.872v5.44l-6.752 3.584v.512h1.184a7.28 7.28 0 0 1 2.912.608 5.543 5.543 0 0 1 2.368 1.888c.619.832.928 1.92.928 3.264v.384c0 1.451-.352 2.72-1.056 3.808-.704 1.067-1.696 1.899-2.976 2.496-1.259.576-2.73.864-4.416.864zm17.434-.448v-19.392h-.576l-3.008 7.104h-4.288l4.576-10.112h7.392v22.4h-4.096zM92.868 536.556l-1.216-.976 8.608-10.64 1.216.976-8.608 10.64zm6.752-.048c-.81 0-1.445-.213-1.904-.64-.459-.437-.688-1.029-.688-1.776v-.112c0-.757.23-1.349.688-1.776.459-.437 1.093-.656 1.904-.656.789 0 1.419.219 1.888.656.469.427.704 1.019.704 1.776v.112c0 .747-.229 1.339-.688 1.776-.459.427-1.093.64-1.904.64zm0-1.312c.31 0 .549-.096.72-.288.181-.192.272-.442.272-.752v-.256c0-.309-.091-.56-.272-.752-.171-.192-.41-.288-.72-.288s-.555.096-.736.288c-.17.192-.256.443-.256.752v.256c0 .31.085.56.256.752.181.192.427.288.736.288zm-6.112-5.248c-.81 0-1.445-.213-1.904-.64-.459-.437-.688-1.029-.688-1.776v-.112c0-.757.23-1.349.688-1.776.459-.437 1.093-.656 1.904-.656.79 0 1.419.219 1.888.656.47.427.704 1.019.704 1.776v.112c0 .747-.23 1.339-.688 1.776-.459.427-1.093.64-1.904.64zm0-1.312c.31 0 .55-.096.72-.288.181-.192.272-.442.272-.752v-.256c0-.309-.09-.56-.272-.752-.17-.192-.41-.288-.72-.288s-.555.096-.736.288c-.17.192-.256.443-.256.752v.256c0 .31.085.56.256.752.181.192.427.288.736.288zM42.619 597.628c-1.04 0-1.947-.186-2.72-.56a4.088 4.088 0 0 1-1.8-1.66c-.427-.746-.64-1.66-.64-2.74v-9.32h1.66v9.34c0 1.147.307 2.007.92 2.58.613.574 1.473.86 2.58.86s1.967-.286 2.58-.86c.613-.573.92-1.433.92-2.58v-9.34h1.68v9.32c0 1.08-.213 1.994-.64 2.74a4.067 4.067 0 0 1-1.82 1.66c-.773.374-1.68.56-2.72.56zm8.32-.28v-9.78h1.54v1.66h.28c.214-.466.574-.886 1.08-1.26.52-.386 1.28-.58 2.28-.58.734 0 1.387.154 1.96.46.587.307 1.054.76 1.4 1.36.347.6.52 1.34.52 2.22v5.92h-1.58v-5.8c0-.973-.246-1.68-.74-2.12-.48-.44-1.133-.66-1.96-.66-.946 0-1.72.307-2.32.92-.586.614-.88 1.527-.88 2.74v4.92h-1.58zm16.746.28c-.987 0-1.853-.206-2.6-.62a4.467 4.467 0 0 1-1.74-1.78c-.413-.76-.62-1.64-.62-2.64v-.24c0-1.013.207-1.9.62-2.66a4.377 4.377 0 0 1 1.72-1.76c.733-.426 1.573-.64 2.52-.64.92 0 1.733.2 2.44.6.707.387 1.26.947 1.66 1.68.4.734.6 1.594.6 2.58v.72h-7.98c.04 1.054.38 1.88 1.02 2.48.64.587 1.44.88 2.4.88.84 0 1.487-.193 1.94-.58.453-.386.8-.846 1.04-1.38l1.36.66c-.2.414-.48.827-.84 1.24-.347.414-.807.76-1.38 1.04-.56.28-1.28.42-2.16.42zm-3.36-6.06h6.36c-.053-.906-.367-1.613-.94-2.12-.56-.506-1.28-.76-2.16-.76-.893 0-1.627.254-2.2.76-.573.507-.927 1.214-1.06 2.12zm18.696 9.78v-5.54h-.28a3.55 3.55 0 0 1-.68.86c-.294.28-.68.507-1.16.68-.467.187-1.04.28-1.72.28-.853 0-1.633-.2-2.34-.6-.694-.4-1.247-.98-1.66-1.74-.413-.76-.62-1.66-.62-2.7v-.26c0-1.053.206-1.953.62-2.7a4.35 4.35 0 0 1 1.68-1.72 4.516 4.516 0 0 1 2.32-.62c1.013 0 1.8.194 2.36.58.56.387.973.827 1.24 1.32h.28v-1.62h1.54v13.78h-1.58zm-3.42-5.12c1.013 0 1.833-.32 2.46-.96.64-.653.96-1.56.96-2.72v-.18c0-1.16-.32-2.06-.96-2.7-.627-.653-1.447-.98-2.46-.98-1 0-1.827.327-2.48.98-.64.64-.96 1.54-.96 2.7v.18c0 1.16.32 2.067.96 2.72.653.64 1.48.96 2.48.96zm12.051 1.3a4.24 4.24 0 0 1-1.96-.46 3.428 3.428 0 0 1-1.4-1.36c-.333-.613-.5-1.353-.5-2.22v-5.92h1.58v5.8c0 .974.24 1.68.72 2.12.493.44 1.153.66 1.98.66.933 0 1.7-.306 2.3-.92.6-.613.9-1.526.9-2.74v-4.92h1.58v9.78h-1.54v-1.66h-.28c-.213.467-.58.894-1.1 1.28-.52.374-1.28.56-2.28.56zm11.506.1c-.68 0-1.3-.12-1.86-.36s-1-.586-1.32-1.04c-.32-.453-.48-1.006-.48-1.66 0-.666.16-1.213.48-1.64.32-.44.76-.766 1.32-.98.56-.226 1.187-.34 1.88-.34h3.3v-.72c0-.693-.207-1.24-.62-1.64-.4-.4-1-.6-1.8-.6-.787 0-1.4.194-1.84.58-.44.374-.74.88-.9 1.52l-1.48-.48c.16-.546.413-1.04.76-1.48a3.633 3.633 0 0 1 1.38-1.08c.587-.28 1.287-.42 2.1-.42 1.253 0 2.227.327 2.92.98.693.64 1.04 1.547 1.04 2.72v4.42c0 .4.187.6.56.6h.9v1.34h-1.38c-.44 0-.793-.12-1.06-.36-.267-.253-.4-.586-.4-1v-.1h-.24a4.81 4.81 0 0 1-.6.8c-.24.267-.573.487-1 .66-.427.187-.98.28-1.66.28zm.18-1.36c.933 0 1.687-.273 2.26-.82.587-.56.88-1.34.88-2.34v-.22h-3.24c-.627 0-1.147.14-1.56.42-.4.267-.6.674-.6 1.22 0 .547.207.974.62 1.28.427.307.973.46 1.64.46zm8.324 1.08v-14h1.58v14h-1.58zm-50.186 32v-13.78h1.54v1.62h.28c.254-.493.66-.933 1.22-1.32.574-.386 1.367-.58 2.38-.58.84 0 1.607.207 2.3.62a4.35 4.35 0 0 1 1.68 1.72c.427.747.64 1.647.64 2.7v.26c0 1.04-.206 1.94-.62 2.7-.413.76-.973 1.34-1.68 1.74-.693.4-1.466.6-2.32.6-.68 0-1.26-.093-1.74-.28-.466-.173-.846-.4-1.14-.68a3.55 3.55 0 0 1-.68-.86h-.28v5.54h-1.58zm5-5.12c1.014 0 1.834-.32 2.46-.96.64-.653.96-1.56.96-2.72v-.18c0-1.16-.32-2.06-.96-2.7-.626-.653-1.446-.98-2.46-.98-1 0-1.826.327-2.48.98-.64.64-.96 1.54-.96 2.7v.18c0 1.16.32 2.067.96 2.72.654.64 1.48.96 2.48.96zm10.871 1.4c-.68 0-1.3-.12-1.86-.36s-1-.586-1.32-1.04c-.32-.453-.48-1.006-.48-1.66 0-.666.16-1.213.48-1.64.32-.44.76-.766 1.32-.98.56-.226 1.187-.34 1.88-.34h3.3v-.72c0-.693-.206-1.24-.62-1.64-.4-.4-1-.6-1.8-.6-.786 0-1.4.194-1.84.58-.44.374-.74.88-.9 1.52l-1.48-.48c.16-.546.414-1.04.76-1.48a3.628 3.628 0 0 1 1.38-1.08c.587-.28 1.287-.42 2.1-.42 1.254 0 2.227.327 2.92.98.694.64 1.04 1.547 1.04 2.72v4.42c0 .4.187.6.56.6h.9v1.34h-1.38c-.44 0-.793-.12-1.06-.36-.266-.253-.4-.586-.4-1v-.1h-.24c-.146.254-.346.52-.6.8-.24.267-.573.487-1 .66-.426.187-.98.28-1.66.28zm.18-1.36c.934 0 1.687-.273 2.26-.82.587-.56.88-1.34.88-2.34v-.22h-3.24c-.626 0-1.146.14-1.56.42-.4.267-.6.674-.6 1.22 0 .547.207.974.62 1.28.427.307.974.46 1.64.46zm9.25 5.08v-1.4h5.6c.387 0 .58-.2.58-.6v-3.56h-.28c-.133.28-.34.56-.62.84-.266.267-.62.487-1.06.66-.44.16-.993.24-1.66.24a4.24 4.24 0 0 1-1.96-.46 3.429 3.429 0 0 1-1.4-1.36c-.333-.6-.5-1.333-.5-2.2v-5.94h1.58v5.82c0 .96.24 1.66.72 2.1.494.44 1.154.66 1.98.66.934 0 1.7-.306 2.3-.92.6-.613.9-1.526.9-2.74v-4.92h1.58v12.06c0 .534-.153.954-.46 1.26-.293.307-.726.46-1.3.46h-6z" fill="#fff"/><path fill="#3885E8" d="M169 490.615h156v180H169z"/><path d="M228.791 542.063c-1.686 0-3.179-.298-4.48-.896-1.302-.597-2.326-1.45-3.072-2.56-.726-1.13-1.088-2.464-1.088-4v-.576h4.096v.448c0 1.195.416 2.155 1.248 2.88.832.704 1.93 1.056 3.296 1.056 1.386 0 2.453-.33 3.2-.992.768-.661 1.152-1.493 1.152-2.496v-.32c0-.682-.171-1.237-.512-1.664-.342-.426-.8-.736-1.376-.928-.576-.213-1.227-.32-1.952-.32h-4.48v-4.48l7.232-3.84v-.512h-11.328v-3.648h15.872v5.44l-6.752 3.584v.512h1.184c1.002 0 1.973.203 2.912.608a5.545 5.545 0 0 1 2.368 1.888c.618.832.928 1.92.928 3.264v.384c0 1.451-.352 2.72-1.056 3.808-.704 1.067-1.696 1.899-2.976 2.496-1.259.576-2.731.864-4.416.864zm19.468 0c-1.685 0-3.178-.298-4.48-.896-1.301-.597-2.325-1.45-3.072-2.56-.725-1.13-1.088-2.464-1.088-4v-.576h4.096v.448c0 1.195.416 2.155 1.248 2.88.832.704 1.931 1.056 3.296 1.056 1.387 0 2.454-.33 3.2-.992.768-.661 1.152-1.493 1.152-2.496v-.32c0-.682-.17-1.237-.512-1.664-.341-.426-.8-.736-1.376-.928-.576-.213-1.226-.32-1.952-.32h-4.48v-4.48l7.232-3.84v-.512h-11.328v-3.648h15.872v5.44l-6.752 3.584v.512h1.184c1.003 0 1.974.203 2.912.608a5.539 5.539 0 0 1 2.368 1.888c.619.832.928 1.92.928 3.264v.384c0 1.451-.352 2.72-1.056 3.808-.704 1.067-1.696 1.899-2.976 2.496-1.258.576-2.73.864-4.416.864zM264.368 536.823l-1.216-.976 8.608-10.64 1.216.976-8.608 10.64zm6.752-.048c-.811 0-1.445-.213-1.904-.64-.459-.437-.688-1.029-.688-1.776v-.112c0-.757.229-1.349.688-1.776.459-.437 1.093-.656 1.904-.656.789 0 1.419.219 1.888.656.469.427.704 1.019.704 1.776v.112c0 .747-.229 1.339-.688 1.776-.459.427-1.093.64-1.904.64zm0-1.312c.309 0 .549-.096.72-.288.181-.192.272-.442.272-.752v-.256c0-.309-.091-.56-.272-.752-.171-.192-.411-.288-.72-.288s-.555.096-.736.288c-.171.192-.256.443-.256.752v.256c0 .31.085.56.256.752.181.192.427.288.736.288zm-6.112-5.248c-.811 0-1.445-.213-1.904-.64-.459-.437-.688-1.029-.688-1.776v-.112c0-.757.229-1.349.688-1.776.459-.437 1.093-.656 1.904-.656.789 0 1.419.219 1.888.656.469.427.704 1.019.704 1.776v.112c0 .747-.229 1.339-.688 1.776-.459.427-1.093.64-1.904.64zm0-1.312c.309 0 .549-.096.72-.288.181-.192.272-.442.272-.752v-.256c0-.309-.091-.56-.272-.752-.171-.192-.411-.288-.72-.288s-.555.096-.736.288c-.171.192-.256.443-.256.752v.256c0 .31.085.56.256.752.181.192.427.288.736.288zM219.84 583.615v-14h8.46v1.52h-6.78v4.7h6.24v1.52h-6.24v6.26h-1.68zm15.224.28c-.987 0-1.854-.206-2.6-.62a4.461 4.461 0 0 1-1.74-1.78c-.414-.76-.62-1.64-.62-2.64v-.24c0-1.013.206-1.9.62-2.66a4.37 4.37 0 0 1 1.72-1.76c.733-.426 1.573-.64 2.52-.64.92 0 1.733.2 2.44.6a4.12 4.12 0 0 1 1.66 1.68c.4.734.6 1.594.6 2.58v.72h-7.98c.04 1.054.38 1.88 1.02 2.48.64.587 1.44.88 2.4.88.84 0 1.486-.193 1.94-.58.453-.386.8-.846 1.04-1.38l1.36.66c-.2.414-.48.827-.84 1.24-.347.414-.807.76-1.38 1.04-.56.28-1.28.42-2.16.42zm-3.36-6.06h6.36c-.054-.906-.367-1.613-.94-2.12-.56-.506-1.28-.76-2.16-.76-.894 0-1.627.254-2.2.76-.574.507-.927 1.214-1.06 2.12zm11.88 5.78-1.96-9.78h1.6l1.62 8.72h.28l2.14-8.72h2.62l2.14 8.72h.28l1.62-8.72h1.6l-1.96 9.78h-2.7l-2.16-8.72h-.26l-2.16 8.72h-2.7zm18.941.28c-.987 0-1.854-.206-2.6-.62a4.461 4.461 0 0 1-1.74-1.78c-.414-.76-.62-1.64-.62-2.64v-.24c0-1.013.206-1.9.62-2.66a4.37 4.37 0 0 1 1.72-1.76c.733-.426 1.573-.64 2.52-.64.92 0 1.733.2 2.44.6a4.12 4.12 0 0 1 1.66 1.68c.4.734.6 1.594.6 2.58v.72h-7.98c.04 1.054.38 1.88 1.02 2.48.64.587 1.44.88 2.4.88.84 0 1.486-.193 1.94-.58.453-.386.8-.846 1.04-1.38l1.36.66c-.2.414-.48.827-.84 1.24-.347.414-.807.76-1.38 1.04-.56.28-1.28.42-2.16.42zm-3.36-6.06h6.36c-.054-.906-.367-1.613-.94-2.12-.56-.506-1.28-.76-2.16-.76-.894 0-1.627.254-2.2.76-.574.507-.927 1.214-1.06 2.12zm10.716 5.78v-9.78h1.54v1.2h.28c.173-.426.44-.74.8-.94.36-.2.833-.3 1.42-.3h1.16v1.44h-1.26c-.707 0-1.28.2-1.72.6-.427.387-.64.994-.64 1.82v5.96h-1.58zm-83.254 28.28c-.986 0-1.86-.206-2.62-.62a4.508 4.508 0 0 1-1.76-1.74c-.413-.76-.62-1.653-.62-2.68v-.26c0-1.013.207-1.9.62-2.66a4.48 4.48 0 0 1 1.76-1.76c.76-.413 1.634-.62 2.62-.62.987 0 1.854.207 2.6.62.76.414 1.347 1 1.76 1.76.427.76.64 1.647.64 2.66v.26c0 1.027-.213 1.92-.64 2.68a4.33 4.33 0 0 1-1.76 1.74c-.746.414-1.613.62-2.6.62zm0-1.42c1.04 0 1.867-.326 2.48-.98.627-.666.94-1.56.94-2.68v-.18c0-1.12-.313-2.006-.94-2.66-.613-.666-1.44-1-2.48-1-1.026 0-1.853.334-2.48 1-.626.654-.94 1.54-.94 2.66v.18c0 1.12.314 2.014.94 2.68.627.654 1.454.98 2.48.98zm7.844 5.14v-13.78h1.54v1.62h.28c.253-.493.66-.933 1.22-1.32.573-.386 1.366-.58 2.38-.58.84 0 1.606.207 2.3.62a4.36 4.36 0 0 1 1.68 1.72c.426.747.64 1.647.64 2.7v.26c0 1.04-.207 1.94-.62 2.7-.414.76-.974 1.34-1.68 1.74-.694.4-1.467.6-2.32.6-.68 0-1.26-.093-1.74-.28-.467-.173-.847-.4-1.14-.68a3.534 3.534 0 0 1-.68-.86h-.28v5.54h-1.58zm5-5.12c1.013 0 1.833-.32 2.46-.96.64-.653.96-1.56.96-2.72v-.18c0-1.16-.32-2.06-.96-2.7-.627-.653-1.447-.98-2.46-.98-1 0-1.827.327-2.48.98-.64.64-.96 1.54-.96 2.7v.18c0 1.16.32 2.067.96 2.72.653.64 1.48.96 2.48.96zm7.871 5.12v-13.78h1.54v1.62h.28c.253-.493.66-.933 1.22-1.32.573-.386 1.366-.58 2.38-.58.84 0 1.606.207 2.3.62a4.36 4.36 0 0 1 1.68 1.72c.426.747.64 1.647.64 2.7v.26c0 1.04-.207 1.94-.62 2.7-.414.76-.974 1.34-1.68 1.74-.694.4-1.467.6-2.32.6-.68 0-1.26-.093-1.74-.28-.467-.173-.847-.4-1.14-.68a3.534 3.534 0 0 1-.68-.86h-.28v5.54h-1.58zm5-5.12c1.013 0 1.833-.32 2.46-.96.64-.653.96-1.56.96-2.72v-.18c0-1.16-.32-2.06-.96-2.7-.627-.653-1.447-.98-2.46-.98-1 0-1.827.327-2.48.98-.64.64-.96 1.54-.96 2.7v.18c0 1.16.32 2.067.96 2.72.653.64 1.48.96 2.48.96zm12.391 1.4c-.987 0-1.86-.206-2.62-.62a4.495 4.495 0 0 1-1.76-1.74c-.414-.76-.62-1.653-.62-2.68v-.26c0-1.013.206-1.9.62-2.66a4.467 4.467 0 0 1 1.76-1.76c.76-.413 1.633-.62 2.62-.62.986 0 1.853.207 2.6.62.76.414 1.346 1 1.76 1.76.426.76.64 1.647.64 2.66v.26c0 1.027-.214 1.92-.64 2.68-.414.747-1 1.327-1.76 1.74-.747.414-1.614.62-2.6.62zm0-1.42c1.04 0 1.866-.326 2.48-.98.626-.666.94-1.56.94-2.68v-.18c0-1.12-.314-2.006-.94-2.66-.614-.666-1.44-1-2.48-1-1.027 0-1.854.334-2.48 1-.627.654-.94 1.54-.94 2.66v.18c0 1.12.313 2.014.94 2.68.626.654 1.453.98 2.48.98zm7.843 1.14v-9.78h1.54v1.2h.28c.173-.426.44-.74.8-.94.36-.2.833-.3 1.42-.3h1.16v1.44h-1.26c-.707 0-1.28.2-1.72.6-.427.387-.64.994-.64 1.82v5.96h-1.58zm11.139 0c-.56 0-.993-.153-1.3-.46-.293-.306-.44-.726-.44-1.26v-6.68h-2.94v-1.38h2.94v-3.48h1.58v3.48h3.2v1.38h-3.2v6.44c0 .4.193.6.58.6h2.18v1.36h-2.6zm9.339.18c-.706 0-1.36-.153-1.96-.46a3.435 3.435 0 0 1-1.4-1.36c-.333-.613-.5-1.353-.5-2.22v-5.92h1.58v5.8c0 .974.24 1.68.72 2.12.494.44 1.154.66 1.98.66.934 0 1.7-.306 2.3-.92.6-.613.9-1.526.9-2.74v-4.92h1.58v9.78h-1.54v-1.66h-.28c-.213.467-.58.894-1.1 1.28-.52.374-1.28.56-2.28.56zm8.506-.18v-9.78h1.54v1.66h.28c.214-.466.574-.886 1.08-1.26.52-.386 1.28-.58 2.28-.58.734 0 1.387.154 1.96.46a3.43 3.43 0 0 1 1.4 1.36c.347.6.52 1.34.52 2.22v5.92h-1.58v-5.8c0-.973-.246-1.68-.74-2.12-.48-.44-1.133-.66-1.96-.66-.946 0-1.72.307-2.32.92-.586.614-.88 1.527-.88 2.74v4.92h-1.58zm12.266 0v-9.78h1.58v9.78h-1.58zm.8-11.3c-.347 0-.64-.113-.88-.34a1.163 1.163 0 0 1-.34-.86c0-.36.113-.653.34-.88.24-.226.533-.34.88-.34s.633.114.86.34c.227.227.34.52.34.88a1.163 1.163 0 0 1-1.2 1.2zm7.702 11.3c-.56 0-.993-.153-1.3-.46-.293-.306-.44-.726-.44-1.26v-6.68h-2.94v-1.38h2.94v-3.48h1.58v3.48h3.2v1.38h-3.2v6.44c0 .4.194.6.58.6h2.18v1.36h-2.6zm5.6 0v-9.78h1.58v9.78h-1.58zm.8-11.3c-.347 0-.64-.113-.88-.34a1.163 1.163 0 0 1-.34-.86c0-.36.113-.653.34-.88.24-.226.533-.34.88-.34.346 0 .633.114.86.34.226.227.34.52.34.88 0 .347-.114.634-.34.86-.227.227-.514.34-.86.34zm8.582 11.58c-.987 0-1.853-.206-2.6-.62a4.461 4.461 0 0 1-1.74-1.78c-.413-.76-.62-1.64-.62-2.64v-.24c0-1.013.207-1.9.62-2.66a4.377 4.377 0 0 1 1.72-1.76c.733-.426 1.573-.64 2.52-.64.92 0 1.733.2 2.44.6.707.387 1.26.947 1.66 1.68.4.734.6 1.594.6 2.58v.72h-7.98c.04 1.054.38 1.88 1.02 2.48.64.587 1.44.88 2.4.88.84 0 1.487-.193 1.94-.58.453-.386.8-.846 1.04-1.38l1.36.66c-.2.414-.48.827-.84 1.24-.347.414-.807.76-1.38 1.04-.56.28-1.28.42-2.16.42zm-3.36-6.06h6.36c-.053-.906-.367-1.613-.94-2.12-.56-.506-1.28-.76-2.16-.76-.893 0-1.627.254-2.2.76-.573.507-.927 1.214-1.06 2.12zm14.656 6.06c-1.213 0-2.24-.28-3.08-.84-.827-.56-1.327-1.446-1.5-2.66l1.5-.34c.107.64.307 1.147.6 1.52.293.36.653.62 1.08.78.44.147.907.22 1.4.22.733 0 1.313-.146 1.74-.44.427-.293.64-.686.64-1.18 0-.506-.207-.86-.62-1.06-.4-.213-.953-.386-1.66-.52l-.82-.14a7.344 7.344 0 0 1-1.72-.5c-.52-.226-.933-.533-1.24-.92-.307-.386-.46-.873-.46-1.46 0-.88.34-1.566 1.02-2.06.68-.493 1.58-.74 2.7-.74 1.107 0 2 .254 2.68.76.693.494 1.14 1.194 1.34 2.1l-1.48.38c-.12-.706-.407-1.2-.86-1.48-.453-.293-1.013-.44-1.68-.44s-1.193.127-1.58.38c-.387.24-.58.6-.58 1.08 0 .467.18.814.54 1.04.373.214.867.374 1.48.48l.82.14c.693.12 1.313.287 1.86.5.56.2 1 .494 1.32.88.333.387.5.894.5 1.52 0 .96-.36 1.7-1.08 2.22-.707.52-1.66.78-2.86.78zm-124.881 27.72v-8.4h-3v-1.38h3v-2.5c0-.533.146-.953.44-1.26.306-.306.74-.46 1.3-.46h2.46v1.36h-2.02c-.4 0-.6.2-.6.6v2.26h3.08v1.38h-3.08v8.4h-1.58zm10.959.28c-.987 0-1.86-.206-2.62-.62a4.501 4.501 0 0 1-1.76-1.74c-.413-.76-.62-1.653-.62-2.68v-.26c0-1.013.207-1.9.62-2.66a4.473 4.473 0 0 1 1.76-1.76c.76-.413 1.633-.62 2.62-.62.987 0 1.853.207 2.6.62.76.414 1.347 1 1.76 1.76.427.76.64 1.647.64 2.66v.26c0 1.027-.213 1.92-.64 2.68a4.33 4.33 0 0 1-1.76 1.74c-.747.414-1.613.62-2.6.62zm0-1.42c1.04 0 1.867-.326 2.48-.98.627-.666.94-1.56.94-2.68v-.18c0-1.12-.313-2.006-.94-2.66-.613-.666-1.44-1-2.48-1-1.027 0-1.853.334-2.48 1-.627.654-.94 1.54-.94 2.66v.18c0 1.12.313 2.014.94 2.68.627.654 1.453.98 2.48.98zm7.843 1.14v-9.78h1.54v1.2h.28c.174-.426.44-.74.8-.94.36-.2.834-.3 1.42-.3h1.16v1.44h-1.26c-.706 0-1.28.2-1.72.6-.426.387-.64.994-.64 1.82v5.96h-1.58zm12.676 4v-13.78h1.54v1.62h.28c.253-.493.66-.933 1.22-1.32.573-.386 1.367-.58 2.38-.58.84 0 1.607.207 2.3.62.707.4 1.267.974 1.68 1.72.427.747.64 1.647.64 2.7v.26c0 1.04-.207 1.94-.62 2.7-.413.76-.973 1.34-1.68 1.74-.693.4-1.467.6-2.32.6-.68 0-1.26-.093-1.74-.28-.467-.173-.847-.4-1.14-.68a3.558 3.558 0 0 1-.68-.86h-.28v5.54h-1.58zm5-5.12c1.013 0 1.833-.32 2.46-.96.64-.653.96-1.56.96-2.72v-.18c0-1.16-.32-2.06-.96-2.7-.627-.653-1.447-.98-2.46-.98-1 0-1.827.327-2.48.98-.64.64-.96 1.54-.96 2.7v.18c0 1.16.32 2.067.96 2.72.653.64 1.48.96 2.48.96zm7.871 1.12v-9.78h1.54v1.2h.28c.173-.426.44-.74.8-.94.36-.2.833-.3 1.42-.3h1.16v1.44h-1.26c-.707 0-1.28.2-1.72.6-.427.387-.64.994-.64 1.82v5.96h-1.58zm11.708.28c-.987 0-1.86-.206-2.62-.62a4.495 4.495 0 0 1-1.76-1.74c-.414-.76-.62-1.653-.62-2.68v-.26c0-1.013.206-1.9.62-2.66a4.467 4.467 0 0 1 1.76-1.76c.76-.413 1.633-.62 2.62-.62.986 0 1.853.207 2.6.62.76.414 1.346 1 1.76 1.76.426.76.64 1.647.64 2.66v.26c0 1.027-.214 1.92-.64 2.68-.414.747-1 1.327-1.76 1.74-.747.414-1.614.62-2.6.62zm0-1.42c1.04 0 1.866-.326 2.48-.98.626-.666.94-1.56.94-2.68v-.18c0-1.12-.314-2.006-.94-2.66-.614-.666-1.44-1-2.48-1-1.027 0-1.854.334-2.48 1-.627.654-.94 1.54-.94 2.66v.18c0 1.12.313 2.014.94 2.68.626.654 1.453.98 2.48.98zm7.843 1.14v-9.78h1.54v1.22h.28c.187-.346.493-.666.92-.96.427-.293 1.027-.44 1.8-.44.76 0 1.373.167 1.84.5.48.334.827.74 1.04 1.22h.28c.227-.48.567-.886 1.02-1.22.467-.333 1.113-.5 1.94-.5.653 0 1.227.134 1.72.4.493.267.88.654 1.16 1.16.293.494.44 1.087.44 1.78v6.62h-1.58v-6.48c0-.653-.193-1.166-.58-1.54-.373-.386-.9-.58-1.58-.58-.72 0-1.313.234-1.78.7-.453.467-.68 1.14-.68 2.02v5.88h-1.58v-6.48c0-.653-.193-1.166-.58-1.54-.373-.386-.9-.58-1.58-.58-.72 0-1.313.234-1.78.7-.453.467-.68 1.14-.68 2.02v5.88h-1.58zm21.727.28c-.987 0-1.86-.206-2.62-.62a4.501 4.501 0 0 1-1.76-1.74c-.413-.76-.62-1.653-.62-2.68v-.26c0-1.013.207-1.9.62-2.66a4.473 4.473 0 0 1 1.76-1.76c.76-.413 1.633-.62 2.62-.62.987 0 1.853.207 2.6.62.76.414 1.347 1 1.76 1.76.427.76.64 1.647.64 2.66v.26c0 1.027-.213 1.92-.64 2.68a4.33 4.33 0 0 1-1.76 1.74c-.747.414-1.613.62-2.6.62zm0-1.42c1.04 0 1.867-.326 2.48-.98.627-.666.94-1.56.94-2.68v-.18c0-1.12-.313-2.006-.94-2.66-.613-.666-1.44-1-2.48-1-1.027 0-1.853.334-2.48 1-.627.654-.94 1.54-.94 2.66v.18c0 1.12.313 2.014.94 2.68.627.654 1.453.98 2.48.98zm11.033 1.14c-.56 0-.993-.153-1.3-.46-.293-.306-.44-.726-.44-1.26v-6.68h-2.94v-1.38h2.94v-3.48h1.58v3.48h3.2v1.38h-3.2v6.44c0 .4.193.6.58.6h2.18v1.36h-2.6zm5.599 0v-9.78h1.58v9.78h-1.58zm.8-11.3c-.346 0-.64-.113-.88-.34a1.167 1.167 0 0 1-.34-.86c0-.36.114-.653.34-.88.24-.226.534-.34.88-.34.347 0 .634.114.86.34.227.227.34.52.34.88a1.163 1.163 0 0 1-1.2 1.2zm8.623 11.58c-.987 0-1.86-.206-2.62-.62a4.495 4.495 0 0 1-1.76-1.74c-.414-.76-.62-1.653-.62-2.68v-.26c0-1.013.206-1.9.62-2.66a4.467 4.467 0 0 1 1.76-1.76c.76-.413 1.633-.62 2.62-.62.986 0 1.853.207 2.6.62.76.414 1.346 1 1.76 1.76.426.76.64 1.647.64 2.66v.26c0 1.027-.214 1.92-.64 2.68-.414.747-1 1.327-1.76 1.74-.747.414-1.614.62-2.6.62zm0-1.42c1.04 0 1.866-.326 2.48-.98.626-.666.94-1.56.94-2.68v-.18c0-1.12-.314-2.006-.94-2.66-.614-.666-1.44-1-2.48-1-1.027 0-1.854.334-2.48 1-.627.654-.94 1.54-.94 2.66v.18c0 1.12.313 2.014.94 2.68.626.654 1.453.98 2.48.98zm7.843 1.14v-9.78h1.54v1.66h.28c.213-.466.573-.886 1.08-1.26.52-.386 1.28-.58 2.28-.58.733 0 1.387.154 1.96.46.587.307 1.053.76 1.4 1.36.347.6.52 1.34.52 2.22v5.92h-1.58v-5.8c0-.973-.247-1.68-.74-2.12-.48-.44-1.133-.66-1.96-.66-.947 0-1.72.307-2.32.92-.587.614-.88 1.527-.88 2.74v4.92h-1.58z" fill="#fff"/><path fill="#0063E2" d="M169 146.683h156v180H169z"/><path d="M231.859 198.131c-1.707 0-3.189-.32-4.448-.96-1.259-.64-2.229-1.525-2.912-2.656-.683-1.13-1.024-2.432-1.024-3.904v-7.648c0-1.813.363-3.317 1.088-4.512a6.95 6.95 0 0 1 3.04-2.72c1.301-.597 2.784-.896 4.448-.896 1.664 0 3.104.278 4.32.832 1.237.555 2.187 1.355 2.848 2.4.683 1.046 1.024 2.294 1.024 3.744h-4.16c0-.896-.309-1.674-.928-2.336-.619-.661-1.653-.992-3.104-.992-1.429 0-2.539.374-3.328 1.12-.768.747-1.152 1.782-1.152 3.104v2.304h.576c.363-.426.917-.832 1.664-1.216.747-.384 1.835-.576 3.264-.576 1.301 0 2.496.278 3.584.832a6.714 6.714 0 0 1 2.688 2.432c.683 1.046 1.024 2.315 1.024 3.808v.384c0 1.472-.352 2.774-1.056 3.904-.704 1.11-1.696 1.984-2.976 2.624-1.28.619-2.773.928-4.48.928zm.064-3.648c1.344 0 2.4-.352 3.168-1.056.789-.704 1.184-1.642 1.184-2.816v-.256c0-.789-.181-1.472-.544-2.048-.341-.576-.843-1.024-1.504-1.344-.64-.32-1.408-.48-2.304-.48-.875 0-1.643.16-2.304.48-.661.32-1.173.768-1.536 1.344-.341.576-.512 1.259-.512 2.048v.256c0 1.174.384 2.112 1.152 2.816.789.704 1.856 1.056 3.2 1.056zm17.864 3.2v-19.392h-.576l-3.008 7.104h-4.288l4.576-10.112h7.392v22.4h-4.096zM262.368 192.891l-1.216-.976 8.608-10.64 1.216.976-8.608 10.64zm6.752-.048c-.811 0-1.445-.213-1.904-.64-.459-.437-.688-1.029-.688-1.776v-.112c0-.757.229-1.349.688-1.776.459-.437 1.093-.656 1.904-.656.789 0 1.419.219 1.888.656.469.427.704 1.019.704 1.776v.112c0 .747-.229 1.339-.688 1.776-.459.427-1.093.64-1.904.64zm0-1.312c.309 0 .549-.096.72-.288.181-.192.272-.442.272-.752v-.256c0-.309-.091-.56-.272-.752-.171-.192-.411-.288-.72-.288s-.555.096-.736.288c-.171.192-.256.443-.256.752v.256c0 .31.085.56.256.752.181.192.427.288.736.288zm-6.112-5.248c-.811 0-1.445-.213-1.904-.64-.459-.437-.688-1.029-.688-1.776v-.112c0-.757.229-1.349.688-1.776.459-.437 1.093-.656 1.904-.656.789 0 1.419.219 1.888.656.469.427.704 1.019.704 1.776v.112c0 .747-.229 1.339-.688 1.776-.459.427-1.093.64-1.904.64zm0-1.312c.309 0 .549-.096.72-.288.181-.192.272-.442.272-.752v-.256c0-.309-.091-.56-.272-.752-.171-.192-.411-.288-.72-.288s-.555.096-.736.288c-.171.192-.256.443-.256.752v.256c0 .31.085.56.256.752.181.192.427.288.736.288zM199.649 239.683v-1.5h1.96v-11h-1.96v-1.5h7.02c.813 0 1.533.147 2.16.44.64.294 1.133.707 1.48 1.24.36.52.54 1.134.54 1.84v.16c0 .654-.127 1.194-.38 1.62-.253.414-.553.74-.9.98a4.208 4.208 0 0 1-1.02.5v.28c.333.08.68.24 1.04.48.36.227.66.554.9.98.253.427.38.967.38 1.62v.2c0 .76-.187 1.42-.56 1.98-.36.547-.86.967-1.5 1.26-.627.28-1.347.42-2.16.42h-7zm3.64-1.52h3.18c.88 0 1.553-.206 2.02-.62.467-.413.7-.973.7-1.68v-.18c0-.706-.233-1.266-.7-1.68-.467-.413-1.14-.62-2.02-.62h-3.18v4.78zm0-6.3h3.24c.8 0 1.44-.2 1.92-.6.48-.413.72-.953.72-1.62v-.2c0-.68-.24-1.22-.72-1.62-.467-.413-1.107-.62-1.92-.62h-3.24v4.66zm14.783 8.1c-.987 0-1.854-.206-2.6-.62a4.461 4.461 0 0 1-1.74-1.78c-.414-.76-.62-1.64-.62-2.64v-.24c0-1.013.206-1.9.62-2.66a4.37 4.37 0 0 1 1.72-1.76c.733-.426 1.573-.64 2.52-.64.92 0 1.733.2 2.44.6a4.12 4.12 0 0 1 1.66 1.68c.4.734.6 1.594.6 2.58v.72h-7.98c.04 1.054.38 1.88 1.02 2.48.64.587 1.44.88 2.4.88.84 0 1.486-.193 1.94-.58.453-.386.8-.846 1.04-1.38l1.36.66c-.2.414-.48.827-.84 1.24-.347.414-.807.76-1.38 1.04-.56.28-1.28.42-2.16.42zm-3.36-6.06h6.36c-.054-.906-.367-1.613-.94-2.12-.56-.506-1.28-.76-2.16-.76-.894 0-1.627.254-2.2.76-.574.507-.927 1.214-1.06 2.12zm15.216 6.06c-.947 0-1.8-.2-2.56-.6-.747-.413-1.34-1-1.78-1.76-.427-.76-.64-1.66-.64-2.7v-.22c0-1.053.213-1.953.64-2.7a4.463 4.463 0 0 1 1.78-1.74c.76-.413 1.613-.62 2.56-.62.933 0 1.726.174 2.38.52.666.347 1.186.807 1.56 1.38a4.6 4.6 0 0 1 .74 1.84l-1.54.32a3.291 3.291 0 0 0-.48-1.32c-.24-.4-.58-.72-1.02-.96-.44-.24-.98-.36-1.62-.36a3.52 3.52 0 0 0-1.76.44 3.266 3.266 0 0 0-1.22 1.26c-.294.547-.44 1.2-.44 1.96v.18c0 .76.146 1.414.44 1.96.306.547.713.967 1.22 1.26.52.294 1.106.44 1.76.44.973 0 1.713-.253 2.22-.76.52-.506.84-1.133.96-1.88l1.56.34a5.406 5.406 0 0 1-.8 1.82c-.387.574-.914 1.034-1.58 1.38-.654.347-1.447.52-2.38.52zm11.973 0c-.987 0-1.86-.206-2.62-.62a4.495 4.495 0 0 1-1.76-1.74c-.414-.76-.62-1.653-.62-2.68v-.26c0-1.013.206-1.9.62-2.66a4.467 4.467 0 0 1 1.76-1.76c.76-.413 1.633-.62 2.62-.62.986 0 1.853.207 2.6.62.76.414 1.346 1 1.76 1.76.426.76.64 1.647.64 2.66v.26c0 1.027-.214 1.92-.64 2.68-.414.747-1 1.327-1.76 1.74-.747.414-1.614.62-2.6.62zm0-1.42c1.04 0 1.866-.326 2.48-.98.626-.666.94-1.56.94-2.68v-.18c0-1.12-.314-2.006-.94-2.66-.614-.666-1.44-1-2.48-1-1.027 0-1.854.334-2.48 1-.627.654-.94 1.54-.94 2.66v.18c0 1.12.313 2.014.94 2.68.626.654 1.453.98 2.48.98zm7.843 1.14v-9.78h1.54v1.22h.28c.187-.346.493-.666.92-.96.427-.293 1.027-.44 1.8-.44.76 0 1.373.167 1.84.5.48.334.827.74 1.04 1.22h.28c.227-.48.567-.886 1.02-1.22.467-.333 1.113-.5 1.94-.5.653 0 1.227.134 1.72.4.493.267.88.654 1.16 1.16.293.494.44 1.087.44 1.78v6.62h-1.58v-6.48c0-.653-.193-1.166-.58-1.54-.373-.386-.9-.58-1.58-.58-.72 0-1.313.234-1.78.7-.453.467-.68 1.14-.68 2.02v5.88h-1.58v-6.48c0-.653-.193-1.166-.58-1.54-.373-.386-.9-.58-1.58-.58-.72 0-1.313.234-1.78.7-.453.467-.68 1.14-.68 2.02v5.88h-1.58zm17.207 0v-9.78h1.58v9.78h-1.58zm.8-11.3c-.347 0-.64-.113-.88-.34a1.163 1.163 0 0 1-.34-.86c0-.36.113-.653.34-.88.24-.226.533-.34.88-.34s.633.114.86.34c.227.227.34.52.34.88a1.163 1.163 0 0 1-1.2 1.2zm4.102 11.3v-9.78h1.54v1.66h.28c.214-.466.574-.886 1.08-1.26.52-.386 1.28-.58 2.28-.58.734 0 1.387.154 1.96.46a3.43 3.43 0 0 1 1.4 1.36c.347.6.52 1.34.52 2.22v5.92h-1.58v-5.8c0-.973-.246-1.68-.74-2.12-.48-.44-1.133-.66-1.96-.66-.946 0-1.72.307-2.32.92-.586.614-.88 1.527-.88 2.74v4.92h-1.58zm11.786-4.84v-.28c0-1.026.207-1.906.62-2.64a4.38 4.38 0 0 1 1.68-1.7c.707-.4 1.48-.6 2.32-.6 1.027 0 1.813.2 2.36.6.56.387.973.82 1.24 1.3h.28v-1.62h1.5v12.06c0 .534-.147.954-.44 1.26-.293.307-.72.46-1.28.46h-6.64v-1.4h6.22c.4 0 .6-.2.6-.6v-3.72h-.28c-.16.294-.387.58-.68.86-.293.28-.673.514-1.14.7-.467.174-1.047.26-1.74.26-.84 0-1.613-.2-2.32-.6a4.373 4.373 0 0 1-1.68-1.7c-.413-.746-.62-1.626-.62-2.64zm5.04 3.54c1.013 0 1.833-.32 2.46-.96.64-.64.96-1.52.96-2.64v-.16c0-1.133-.32-2.013-.96-2.64-.627-.64-1.447-.96-2.46-.96-1 0-1.827.32-2.48.96-.64.627-.96 1.507-.96 2.64v.16c0 1.12.32 2 .96 2.64.653.64 1.48.96 2.48.96zm-80.029 29.3v-9.78h1.54v1.22h.28c.187-.346.494-.666.92-.96.427-.293 1.027-.44 1.8-.44.76 0 1.374.167 1.84.5.48.334.827.74 1.04 1.22h.28c.227-.48.567-.886 1.02-1.22.467-.333 1.114-.5 1.94-.5.654 0 1.227.134 1.72.4.494.267.88.654 1.16 1.16.294.494.44 1.087.44 1.78v6.62h-1.58v-6.48c0-.653-.193-1.166-.58-1.54-.373-.386-.9-.58-1.58-.58-.72 0-1.313.234-1.78.7-.453.467-.68 1.14-.68 2.02v5.88h-1.58v-6.48c0-.653-.193-1.166-.58-1.54-.373-.386-.9-.58-1.58-.58-.72 0-1.313.234-1.78.7-.453.467-.68 1.14-.68 2.02v5.88h-1.58zm18.231 4v-1.4h5.6c.387 0 .58-.2.58-.6v-3.56h-.28c-.133.28-.34.56-.62.84-.267.267-.62.487-1.06.66-.44.16-.993.24-1.66.24-.707 0-1.36-.153-1.96-.46a3.429 3.429 0 0 1-1.4-1.36c-.333-.6-.5-1.333-.5-2.2v-5.94h1.58v5.82c0 .96.24 1.66.72 2.1.493.44 1.153.66 1.98.66.933 0 1.7-.306 2.3-.92.6-.613.9-1.526.9-2.74v-4.92h1.58v12.06c0 .534-.153.954-.46 1.26-.293.307-.727.46-1.3.46h-6zm20.723-3.72c-.987 0-1.86-.206-2.62-.62a4.495 4.495 0 0 1-1.76-1.74c-.414-.76-.62-1.653-.62-2.68v-.26c0-1.013.206-1.9.62-2.66a4.467 4.467 0 0 1 1.76-1.76c.76-.413 1.633-.62 2.62-.62.986 0 1.853.207 2.6.62.76.414 1.346 1 1.76 1.76.426.76.64 1.647.64 2.66v.26c0 1.027-.214 1.92-.64 2.68-.414.747-1 1.327-1.76 1.74-.747.414-1.614.62-2.6.62zm0-1.42c1.04 0 1.866-.326 2.48-.98.626-.666.94-1.56.94-2.68v-.18c0-1.12-.314-2.006-.94-2.66-.614-.666-1.44-1-2.48-1-1.027 0-1.854.334-2.48 1-.627.654-.94 1.54-.94 2.66v.18c0 1.12.313 2.014.94 2.68.626.654 1.453.98 2.48.98zm9.008 1.14-1.96-9.78h1.6l1.62 8.72h.28l2.14-8.72h2.62l2.14 8.72h.28l1.62-8.72h1.6l-1.96 9.78h-2.7l-2.16-8.72h-.26l-2.16 8.72h-2.7zm14.655 0v-9.78h1.54v1.66h.28c.214-.466.574-.886 1.08-1.26.52-.386 1.28-.58 2.28-.58.734 0 1.387.154 1.96.46a3.43 3.43 0 0 1 1.4 1.36c.347.6.52 1.34.52 2.22v5.92h-1.58v-5.8c0-.973-.246-1.68-.74-2.12-.48-.44-1.133-.66-1.96-.66-.946 0-1.72.307-2.32.92-.586.614-.88 1.527-.88 2.74v4.92h-1.58zm-40.351 28.28c-1.013 0-1.807-.193-2.38-.58-.56-.386-.967-.826-1.22-1.32h-.28v1.62h-1.54v-14h1.58v5.76h.28c.16-.306.387-.593.68-.86.293-.28.673-.506 1.14-.68.48-.186 1.06-.28 1.74-.28.853 0 1.627.207 2.32.62.707.4 1.267.98 1.68 1.74.413.747.62 1.64.62 2.68v.26c0 1.04-.213 1.94-.64 2.7-.413.76-.973 1.34-1.68 1.74-.693.4-1.46.6-2.3.6zm-.42-1.4c1.013 0 1.833-.32 2.46-.96.64-.653.96-1.56.96-2.72v-.18c0-1.16-.32-2.06-.96-2.7-.627-.653-1.447-.98-2.46-.98-1 0-1.827.327-2.48.98-.64.64-.96 1.54-.96 2.7v.18c0 1.16.32 2.067.96 2.72.653.64 1.48.96 2.48.96zm12.391 1.4c-.987 0-1.86-.206-2.62-.62a4.501 4.501 0 0 1-1.76-1.74c-.413-.76-.62-1.653-.62-2.68v-.26c0-1.013.207-1.9.62-2.66a4.473 4.473 0 0 1 1.76-1.76c.76-.413 1.633-.62 2.62-.62.987 0 1.853.207 2.6.62.76.414 1.347 1 1.76 1.76.427.76.64 1.647.64 2.66v.26c0 1.027-.213 1.92-.64 2.68a4.33 4.33 0 0 1-1.76 1.74c-.747.414-1.613.62-2.6.62zm0-1.42c1.04 0 1.867-.326 2.48-.98.627-.666.94-1.56.94-2.68v-.18c0-1.12-.313-2.006-.94-2.66-.613-.666-1.44-1-2.48-1-1.027 0-1.853.334-2.48 1-.627.654-.94 1.54-.94 2.66v.18c0 1.12.313 2.014.94 2.68.627.654 1.453.98 2.48.98zm11.783 1.42c-1.213 0-2.24-.28-3.08-.84-.826-.56-1.326-1.446-1.5-2.66l1.5-.34c.107.64.307 1.147.6 1.52.294.36.654.62 1.08.78.44.147.907.22 1.4.22.734 0 1.314-.146 1.74-.44.427-.293.64-.686.64-1.18 0-.506-.206-.86-.62-1.06-.4-.213-.953-.386-1.66-.52l-.82-.14a7.358 7.358 0 0 1-1.72-.5c-.52-.226-.933-.533-1.24-.92-.306-.386-.46-.873-.46-1.46 0-.88.34-1.566 1.02-2.06.68-.493 1.58-.74 2.7-.74 1.107 0 2 .254 2.68.76.694.494 1.14 1.194 1.34 2.1l-1.48.38c-.12-.706-.406-1.2-.86-1.48-.453-.293-1.013-.44-1.68-.44-.666 0-1.193.127-1.58.38-.386.24-.58.6-.58 1.08 0 .467.18.814.54 1.04.374.214.867.374 1.48.48l.82.14c.694.12 1.314.287 1.86.5.56.2 1 .494 1.32.88.334.387.5.894.5 1.52 0 .96-.36 1.7-1.08 2.22-.706.52-1.66.78-2.86.78zm10.547 0c-1.213 0-2.24-.28-3.08-.84-.826-.56-1.326-1.446-1.5-2.66l1.5-.34c.107.64.307 1.147.6 1.52.294.36.654.62 1.08.78.44.147.907.22 1.4.22.734 0 1.314-.146 1.74-.44.427-.293.64-.686.64-1.18 0-.506-.206-.86-.62-1.06-.4-.213-.953-.386-1.66-.52l-.82-.14a7.358 7.358 0 0 1-1.72-.5c-.52-.226-.933-.533-1.24-.92-.306-.386-.46-.873-.46-1.46 0-.88.34-1.566 1.02-2.06.68-.493 1.58-.74 2.7-.74 1.107 0 2 .254 2.68.76.694.494 1.14 1.194 1.34 2.1l-1.48.38c-.12-.706-.406-1.2-.86-1.48-.453-.293-1.013-.44-1.68-.44-.666 0-1.193.127-1.58.38-.386.24-.58.6-.58 1.08 0 .467.18.814.54 1.04.374.214.867.374 1.48.48l.82.14c.694.12 1.314.287 1.86.5.56.2 1 .494 1.32.88.334.387.5.894.5 1.52 0 .96-.36 1.7-1.08 2.22-.706.52-1.66.78-2.86.78z" fill="#fff"/><path fill="#0063E2" d="M0 146.95h156v180H0z"/><path d="M60.328 198.398c-1.707 0-3.19-.32-4.448-.96-1.259-.64-2.23-1.525-2.912-2.656-.683-1.13-1.024-2.432-1.024-3.904v-7.648c0-1.813.362-3.317 1.088-4.512a6.948 6.948 0 0 1 3.04-2.72c1.301-.597 2.784-.896 4.448-.896 1.664 0 3.104.278 4.32.832 1.237.555 2.186 1.355 2.848 2.4.682 1.046 1.024 2.294 1.024 3.744h-4.16c0-.896-.31-1.674-.928-2.336-.619-.661-1.654-.992-3.104-.992-1.43 0-2.539.374-3.328 1.12-.768.747-1.152 1.782-1.152 3.104v2.304h.576c.362-.426.917-.832 1.664-1.216.746-.384 1.834-.576 3.264-.576 1.301 0 2.496.278 3.584.832a6.71 6.71 0 0 1 2.688 2.432c.682 1.046 1.024 2.315 1.024 3.808v.384c0 1.472-.352 2.774-1.056 3.904-.704 1.11-1.696 1.984-2.976 2.624-1.28.619-2.774.928-4.48.928zm.064-3.648c1.344 0 2.4-.352 3.168-1.056.79-.704 1.184-1.642 1.184-2.816v-.256c0-.789-.182-1.472-.544-2.048-.342-.576-.843-1.024-1.504-1.344-.64-.32-1.408-.48-2.304-.48-.875 0-1.643.16-2.304.48-.662.32-1.174.768-1.536 1.344-.342.576-.512 1.259-.512 2.048v.256c0 1.174.384 2.112 1.152 2.816.79.704 1.856 1.056 3.2 1.056zm10.952 3.2v-2.688c0-1.557.256-2.848.768-3.872a6.574 6.574 0 0 1 2.208-2.56c.981-.682 2.176-1.237 3.584-1.664l2.144-.672c.79-.256 1.45-.565 1.984-.928a3.913 3.913 0 0 0 1.216-1.376c.299-.533.448-1.141.448-1.824v-.128c0-1.066-.363-1.909-1.088-2.528-.725-.64-1.717-.96-2.976-.96-1.237 0-2.24.342-3.008 1.024-.747.662-1.12 1.622-1.12 2.88v.576h-4.096v-.512c0-1.621.363-2.997 1.088-4.128a7.09 7.09 0 0 1 2.944-2.592c1.259-.597 2.656-.896 4.192-.896s2.923.299 4.16.896c1.237.576 2.208 1.398 2.912 2.464.725 1.046 1.088 2.283 1.088 3.712v.32c0 1.43-.299 2.646-.896 3.648a7.157 7.157 0 0 1-2.368 2.432c-1.003.619-2.144 1.131-3.424 1.536l-2.048.64c-.917.278-1.632.587-2.144.928-.512.32-.875.683-1.088 1.088-.192.384-.288.854-.288 1.408v.128H87.6v3.648H71.344zM95.368 193.158l-1.216-.976 8.608-10.64 1.216.976-8.608 10.64zm6.752-.048c-.811 0-1.445-.213-1.904-.64-.459-.437-.688-1.029-.688-1.776v-.112c0-.757.23-1.349.688-1.776.459-.437 1.093-.656 1.904-.656.789 0 1.419.219 1.888.656.469.427.704 1.019.704 1.776v.112c0 .747-.229 1.339-.688 1.776-.459.427-1.093.64-1.904.64zm0-1.312c.309 0 .549-.096.72-.288.181-.192.272-.442.272-.752v-.256c0-.309-.091-.56-.272-.752-.171-.192-.411-.288-.72-.288s-.555.096-.736.288c-.171.192-.256.443-.256.752v.256c0 .31.085.56.256.752.181.192.427.288.736.288zm-6.112-5.248c-.81 0-1.445-.213-1.904-.64-.459-.437-.688-1.029-.688-1.776v-.112c0-.757.23-1.349.688-1.776.459-.437 1.093-.656 1.904-.656.79 0 1.419.219 1.888.656.47.427.704 1.019.704 1.776v.112c0 .747-.23 1.339-.688 1.776-.459.427-1.093.64-1.904.64zm0-1.312c.31 0 .55-.096.72-.288.181-.192.272-.442.272-.752v-.256c0-.309-.09-.56-.272-.752-.17-.192-.41-.288-.72-.288s-.555.096-.736.288c-.17.192-.256.443-.256.752v.256c0 .31.085.56.256.752.181.192.427.288.736.288zM55.695 240.23c-1.04 0-1.947-.186-2.72-.56a4.087 4.087 0 0 1-1.8-1.66c-.426-.746-.64-1.66-.64-2.74v-9.32h1.66v9.34c0 1.147.307 2.007.92 2.58.613.574 1.474.86 2.58.86 1.107 0 1.967-.286 2.58-.86.614-.573.92-1.433.92-2.58v-9.34h1.68v9.32c0 1.08-.213 1.994-.64 2.74a4.067 4.067 0 0 1-1.82 1.66c-.773.374-1.68.56-2.72.56zm8.32-.28v-9.78h1.54v1.66h.28c.214-.466.574-.886 1.08-1.26.52-.386 1.28-.58 2.28-.58.734 0 1.387.154 1.96.46.587.307 1.054.76 1.4 1.36.347.6.52 1.34.52 2.22v5.92h-1.58v-5.8c0-.973-.246-1.68-.74-2.12-.48-.44-1.133-.66-1.96-.66-.946 0-1.72.307-2.32.92-.586.614-.88 1.527-.88 2.74v4.92h-1.58zm13.913 0v-8.4h-3v-1.38h3v-2.5c0-.533.146-.953.44-1.26.306-.306.74-.46 1.3-.46h2.46v1.36h-2.02c-.4 0-.6.2-.6.6v2.26h3.08v1.38h-3.08v8.4h-1.58zm9.752.28c-.68 0-1.3-.12-1.86-.36s-1-.586-1.32-1.04c-.32-.453-.48-1.006-.48-1.66 0-.666.16-1.213.48-1.64.32-.44.76-.766 1.32-.98.56-.226 1.186-.34 1.88-.34H91v-.72c0-.693-.207-1.24-.62-1.64-.4-.4-1-.6-1.8-.6-.787 0-1.4.194-1.84.58-.44.374-.74.88-.9 1.52l-1.48-.48c.16-.546.413-1.04.76-1.48a3.628 3.628 0 0 1 1.38-1.08c.586-.28 1.286-.42 2.1-.42 1.253 0 2.226.327 2.92.98.693.64 1.04 1.547 1.04 2.72v4.42c0 .4.186.6.56.6h.9v1.34h-1.38c-.44 0-.794-.12-1.06-.36-.267-.253-.4-.586-.4-1v-.1h-.24c-.147.254-.347.52-.6.8-.24.267-.574.487-1 .66-.427.187-.98.28-1.66.28zm.18-1.36c.933 0 1.686-.273 2.26-.82.586-.56.88-1.34.88-2.34v-.22h-3.24c-.627 0-1.147.14-1.56.42-.4.267-.6.674-.6 1.22 0 .547.206.974.62 1.28.426.307.973.46 1.64.46zm8.323 1.08v-9.78h1.58v9.78h-1.58zm.8-11.3c-.346 0-.64-.113-.88-.34a1.164 1.164 0 0 1-.34-.86c0-.36.114-.653.34-.88.24-.226.534-.34.88-.34.347 0 .634.114.86.34.227.227.34.52.34.88 0 .347-.113.634-.34.86-.226.227-.513.34-.86.34zm4.103 11.3v-9.78h1.54v1.2h.28c.173-.426.44-.74.8-.94.36-.2.833-.3 1.42-.3h1.16v1.44h-1.26c-.707 0-1.28.2-1.72.6-.427.387-.64.994-.64 1.82v5.96h-1.58zm-78.236 28c-.56 0-.994-.153-1.3-.46-.294-.306-.44-.726-.44-1.26v-6.68h-2.94v-1.38h2.94v-3.48h1.58v3.48h3.2v1.38h-3.2v6.44c0 .4.193.6.58.6h2.18v1.36h-2.6zm5.6 0v-9.78h1.54v1.2h.28c.172-.426.44-.74.8-.94.36-.2.832-.3 1.42-.3h1.16v1.44h-1.26c-.708 0-1.28.2-1.72.6-.428.387-.64.994-.64 1.82v5.96h-1.58zm11.667.28c-.987 0-1.854-.206-2.6-.62a4.465 4.465 0 0 1-1.74-1.78c-.414-.76-.62-1.64-.62-2.64v-.24c0-1.013.206-1.9.62-2.66a4.376 4.376 0 0 1 1.72-1.76c.733-.426 1.573-.64 2.52-.64.92 0 1.733.2 2.44.6.706.387 1.26.947 1.66 1.68.4.734.6 1.594.6 2.58v.72h-7.98c.04 1.054.38 1.88 1.02 2.48.64.587 1.44.88 2.4.88.84 0 1.486-.193 1.94-.58.453-.386.8-.846 1.04-1.38l1.36.66c-.2.414-.48.827-.84 1.24-.347.414-.807.76-1.38 1.04-.56.28-1.28.42-2.16.42zm-3.36-6.06h6.36c-.054-.906-.367-1.613-.94-2.12-.56-.506-1.28-.76-2.16-.76-.894 0-1.627.254-2.2.76-.574.507-.927 1.214-1.06 2.12zm13.715 6.06c-.68 0-1.3-.12-1.86-.36s-1-.586-1.32-1.04c-.32-.453-.48-1.006-.48-1.66 0-.666.16-1.213.48-1.64.32-.44.76-.766 1.32-.98.56-.226 1.187-.34 1.88-.34h3.3v-.72c0-.693-.206-1.24-.62-1.64-.4-.4-1-.6-1.8-.6-.786 0-1.4.194-1.84.58-.44.374-.74.88-.9 1.52l-1.48-.48c.16-.546.414-1.04.76-1.48a3.628 3.628 0 0 1 1.38-1.08c.587-.28 1.287-.42 2.1-.42 1.254 0 2.227.327 2.92.98.694.64 1.04 1.547 1.04 2.72v4.42c0 .4.187.6.56.6h.9v1.34h-1.38c-.44 0-.793-.12-1.06-.36-.266-.253-.4-.586-.4-1v-.1h-.24c-.146.254-.346.52-.6.8-.24.267-.573.487-1 .66-.426.187-.98.28-1.66.28zm.18-1.36c.934 0 1.687-.273 2.26-.82.587-.56.88-1.34.88-2.34v-.22h-3.24c-.626 0-1.146.14-1.56.42-.4.267-.6.674-.6 1.22 0 .547.207.974.62 1.28.427.307.974.46 1.64.46zm11.28 1.08c-.56 0-.994-.153-1.3-.46-.293-.306-.44-.726-.44-1.26v-6.68h-2.94v-1.38h2.94v-3.48h1.58v3.48h3.2v1.38h-3.2v6.44c0 .4.193.6.58.6h2.18v1.36h-2.6zm5.6 0v-9.78h1.54v1.22h.28c.186-.346.492-.666.92-.96.426-.293 1.026-.44 1.8-.44.76 0 1.372.167 1.84.5.48.334.826.74 1.04 1.22h.28a3.2 3.2 0 0 1 1.02-1.22c.466-.333 1.112-.5 1.94-.5.652 0 1.226.134 1.72.4.492.267.88.654 1.16 1.16.292.494.44 1.087.44 1.78v6.62h-1.58v-6.48c0-.653-.194-1.166-.58-1.54-.374-.386-.9-.58-1.58-.58-.72 0-1.314.234-1.78.7-.454.467-.68 1.14-.68 2.02v5.88h-1.58v-6.48c0-.653-.194-1.166-.58-1.54-.374-.386-.9-.58-1.58-.58-.72 0-1.314.234-1.78.7-.454.467-.68 1.14-.68 2.02v5.88h-1.58zm21.686.28c-.987 0-1.853-.206-2.6-.62a4.467 4.467 0 0 1-1.74-1.78c-.413-.76-.62-1.64-.62-2.64v-.24c0-1.013.207-1.9.62-2.66a4.377 4.377 0 0 1 1.72-1.76c.734-.426 1.573-.64 2.52-.64.92 0 1.734.2 2.44.6.707.387 1.26.947 1.66 1.68.4.734.6 1.594.6 2.58v.72h-7.98c.04 1.054.38 1.88 1.02 2.48.64.587 1.44.88 2.4.88.84 0 1.487-.193 1.94-.58.454-.386.8-.846 1.04-1.38l1.36.66c-.2.414-.48.827-.84 1.24-.346.414-.806.76-1.38 1.04-.56.28-1.28.42-2.16.42zm-3.36-6.06h6.36c-.053-.906-.367-1.613-.94-2.12-.56-.506-1.28-.76-2.16-.76-.893 0-1.626.254-2.2.76-.573.507-.927 1.214-1.06 2.12zm10.716 5.78v-9.78h1.54v1.66h.28c.213-.466.573-.886 1.08-1.26.52-.386 1.28-.58 2.28-.58.733 0 1.387.154 1.96.46.587.307 1.053.76 1.4 1.36.347.6.52 1.34.52 2.22v5.92h-1.58v-5.8c0-.973-.247-1.68-.74-2.12-.48-.44-1.133-.66-1.96-.66-.947 0-1.72.307-2.32.92-.587.614-.88 1.527-.88 2.74v4.92h-1.58zm15.592 0c-.56 0-.993-.153-1.3-.46-.293-.306-.44-.726-.44-1.26v-6.68h-2.94v-1.38h2.94v-3.48h1.58v3.48h3.2v1.38h-3.2v6.44c0 .4.194.6.58.6h2.18v1.36h-2.6zm10.736 0v-9.78h1.58v9.78h-1.58zm.8-11.3c-.346 0-.64-.113-.88-.34a1.167 1.167 0 0 1-.34-.86c0-.36.114-.653.34-.88.24-.226.534-.34.88-.34.347 0 .634.114.86.34.227.227.34.52.34.88a1.163 1.163 0 0 1-1.2 1.2zm4.103 11.3v-9.78h1.54v1.66h.28c.213-.466.573-.886 1.08-1.26.52-.386 1.28-.58 2.28-.58.733 0 1.386.154 1.96.46.586.307 1.053.76 1.4 1.36.346.6.52 1.34.52 2.22v5.92h-1.58v-5.8c0-.973-.247-1.68-.74-2.12-.48-.44-1.134-.66-1.96-.66-.947 0-1.72.307-2.32.92-.587.614-.88 1.527-.88 2.74v4.92h-1.58zm-97.032 32v-13.78h1.54v1.62h.28c.254-.493.66-.933 1.22-1.32.574-.386 1.367-.58 2.38-.58.84 0 1.607.207 2.3.62.707.4 1.267.974 1.68 1.72.427.747.64 1.647.64 2.7v.26c0 1.04-.206 1.94-.62 2.7-.413.76-.973 1.34-1.68 1.74-.693.4-1.466.6-2.32.6-.68 0-1.26-.093-1.74-.28-.466-.173-.846-.4-1.14-.68a3.548 3.548 0 0 1-.68-.86h-.28v5.54h-1.58zm5-5.12c1.014 0 1.834-.32 2.46-.96.64-.653.96-1.56.96-2.72v-.18c0-1.16-.32-2.06-.96-2.7-.626-.653-1.446-.98-2.46-.98-1 0-1.826.327-2.48.98-.64.64-.96 1.54-.96 2.7v.18c0 1.16.32 2.067.96 2.72.654.64 1.48.96 2.48.96zm7.871 1.12v-9.78h1.54v1.2h.28c.174-.426.44-.74.8-.94.36-.2.834-.3 1.42-.3h1.16v1.44h-1.26c-.706 0-1.28.2-1.72.6-.426.387-.64.994-.64 1.82v5.96h-1.58zm11.668.28c-.987 0-1.853-.206-2.6-.62a4.465 4.465 0 0 1-1.74-1.78c-.413-.76-.62-1.64-.62-2.64v-.24c0-1.013.207-1.9.62-2.66a4.376 4.376 0 0 1 1.72-1.76c.733-.426 1.573-.64 2.52-.64.92 0 1.733.2 2.44.6.706.387 1.26.947 1.66 1.68.4.734.6 1.594.6 2.58v.72h-7.98c.04 1.054.38 1.88 1.02 2.48.64.587 1.44.88 2.4.88.84 0 1.487-.193 1.94-.58.453-.386.8-.846 1.04-1.38l1.36.66c-.2.414-.48.827-.84 1.24-.347.414-.807.76-1.38 1.04-.56.28-1.28.42-2.16.42zm-3.36-6.06h6.36c-.053-.906-.367-1.613-.94-2.12-.56-.506-1.28-.76-2.16-.76-.894 0-1.627.254-2.2.76-.574.507-.927 1.214-1.06 2.12zm12.786 5.78-3.5-9.78h1.68l2.94 8.6h.28l2.94-8.6h1.68l-3.5 9.78h-2.52zm8.302.28c-.387 0-.714-.126-.98-.38-.254-.253-.38-.58-.38-.98s.126-.726.38-.98a1.37 1.37 0 0 1 .98-.38c.4 0 .726.127.98.38.253.254.38.58.38.98s-.127.727-.38.98c-.254.254-.58.38-.98.38zm8.67-.28v-9.78h1.54v1.2h.28c.174-.426.44-.74.8-.94.36-.2.834-.3 1.42-.3h1.16v1.44h-1.26c-.706 0-1.28.2-1.72.6-.426.387-.64.994-.64 1.82v5.96h-1.58zm11.708.28c-.986 0-1.86-.206-2.62-.62a4.5 4.5 0 0 1-1.76-1.74c-.413-.76-.62-1.653-.62-2.68v-.26c0-1.013.207-1.9.62-2.66a4.473 4.473 0 0 1 1.76-1.76c.76-.413 1.634-.62 2.62-.62.987 0 1.854.207 2.6.62.76.414 1.347 1 1.76 1.76.427.76.64 1.647.64 2.66v.26c0 1.027-.213 1.92-.64 2.68-.413.747-1 1.327-1.76 1.74-.746.414-1.613.62-2.6.62zm0-1.42c1.04 0 1.867-.326 2.48-.98.627-.666.94-1.56.94-2.68v-.18c0-1.12-.313-2.006-.94-2.66-.613-.666-1.44-1-2.48-1-1.026 0-1.853.334-2.48 1-.626.654-.94 1.54-.94 2.66v.18c0 1.12.314 2.014.94 2.68.627.654 1.454.98 2.48.98zm7.844 1.14v-14h1.58v14h-1.58zm9.382.28c-.987 0-1.853-.206-2.6-.62a4.461 4.461 0 0 1-1.74-1.78c-.413-.76-.62-1.64-.62-2.64v-.24c0-1.013.207-1.9.62-2.66a4.377 4.377 0 0 1 1.72-1.76c.733-.426 1.573-.64 2.52-.64.92 0 1.733.2 2.44.6.707.387 1.26.947 1.66 1.68.4.734.6 1.594.6 2.58v.72h-7.98c.04 1.054.38 1.88 1.02 2.48.64.587 1.44.88 2.4.88.84 0 1.487-.193 1.94-.58.453-.386.8-.846 1.04-1.38l1.36.66c-.2.414-.48.827-.84 1.24-.347.414-.807.76-1.38 1.04-.56.28-1.28.42-2.16.42zm-3.36-6.06h6.36c-.053-.906-.367-1.613-.94-2.12-.56-.506-1.28-.76-2.16-.76-.893 0-1.627.254-2.2.76-.573.507-.927 1.214-1.06 2.12zm14.656 6.06c-1.213 0-2.24-.28-3.08-.84-.827-.56-1.327-1.446-1.5-2.66l1.5-.34c.107.64.307 1.147.6 1.52.293.36.653.62 1.08.78.44.147.907.22 1.4.22.733 0 1.313-.146 1.74-.44.427-.293.64-.686.64-1.18 0-.506-.207-.86-.62-1.06-.4-.213-.953-.386-1.66-.52l-.82-.14a7.344 7.344 0 0 1-1.72-.5c-.52-.226-.933-.533-1.24-.92-.307-.386-.46-.873-.46-1.46 0-.88.34-1.566 1.02-2.06.68-.493 1.58-.74 2.7-.74 1.107 0 2 .254 2.68.76.693.494 1.14 1.194 1.34 2.1l-1.48.38c-.12-.706-.407-1.2-.86-1.48-.453-.293-1.013-.44-1.68-.44s-1.193.127-1.58.38c-.387.24-.58.6-.58 1.08 0 .467.18.814.54 1.04.373.214.867.374 1.48.48l.82.14c.693.12 1.313.287 1.86.5.56.2 1 .494 1.32.88.333.387.5.894.5 1.52 0 .96-.36 1.7-1.08 2.22-.707.52-1.66.78-2.86.78z" fill="#fff"/><path d="m78 353.475-14-14.122h28l-14 14.122z" fill="#0063E2"/><path fill="#0063E2" d="M70 326.95h16v15.087H70z"/></svg>