<svg width="286" height="371" fill="none" xmlns="http://www.w3.org/2000/svg"><path fill="#F6331C" d="M.5 0h284.819v371H.5z"/><path d="m80.93 69-2.28-14h1.68l1.98 12.92h.28L85.17 55h3l2.56 12.92h.28L92.99 55h1.68l-2.28 14h-3l-2.58-13h-.28l-2.58 13h-3.02zm21.023.28c-1.667 0-3-.48-4-1.44-.987-.973-1.48-2.387-1.48-4.24v-3.2c0-1.853.493-3.26 1.48-4.22 1-.973 2.333-1.46 4-1.46 1.68 0 3.013.487 4 1.46 1 .96 1.5 2.367 1.5 4.22v3.2c0 1.853-.5 3.267-1.5 4.24-.987.96-2.32 1.44-4 1.44zm0-1.5c1.213 0 2.153-.36 2.82-1.08.667-.733 1-1.747 1-3.04v-3.32c0-1.293-.333-2.3-1-3.02-.667-.733-1.607-1.1-2.82-1.1-1.2 0-2.133.367-2.8 1.1-.667.72-1 1.727-1 3.02v3.32c0 1.293.333 2.307 1 3.04.666.72 1.6 1.08 2.8 1.08zm8.299 1.22V55h3.2l3.72 12.94h.26l3.72-12.94h3.2v14h-1.62V56.1h-.28l-3.7 12.9h-2.9l-3.7-12.9h-.28V69h-1.62zm17.304 0V55h8.62v1.52h-6.94v4.68h6.38v1.52h-6.38v4.76h7.04V69h-8.72zm11.27 0V55h3.26l4.88 12.94h.26V55h1.66v14h-3.26l-4.86-12.96h-.28V69h-1.66zm19.701 0-2.28-14h1.68l1.98 12.92h.28l2.58-12.92h3l2.56 12.92h.28l1.98-12.92h1.68l-2.28 14h-3l-2.58-13h-.28l-2.58 13h-3.02zm16.08 0V55h1.68v14h-1.68zm8.323 0V56.52h-4.5V55h10.68v1.52h-4.5V69h-1.68zm8.318 0V55h1.68v6.22h6.56V55h1.68v14h-1.68v-6.26h-6.56V69h-1.68zm-87.772 28.28c-1.667 0-2.994-.48-3.98-1.44-.987-.973-1.48-2.387-1.48-4.24v-3.2c0-1.853.493-3.26 1.48-4.22.986-.973 2.313-1.46 3.98-1.46 1.653 0 2.92.46 3.8 1.38.893.92 1.34 2.18 1.34 3.78v.1h-1.66v-.16c0-1.053-.287-1.913-.86-2.58-.56-.68-1.434-1.02-2.62-1.02-1.187 0-2.114.367-2.78 1.1-.667.72-1 1.733-1 3.04v3.28c0 1.307.333 2.327 1 3.06.666.72 1.593 1.08 2.78 1.08 1.186 0 2.06-.333 2.62-1 .573-.68.86-1.547.86-2.6v-.32h1.66v.26c0 1.6-.447 2.86-1.34 3.78-.88.92-2.147 1.38-3.8 1.38zm7.772-.28V83h1.68v6.22h6.56V83h1.68v14h-1.68v-6.26h-6.56V97h-1.68zm13.125 0V83h1.68v14h-1.68zm4.883 0V83h1.68v12.48h7.08V97h-8.76zm10.258 0v-1.5h1.96v-11h-1.96V83h5.46c1.84 0 3.26.467 4.26 1.4 1.013.933 1.52 2.367 1.52 4.3v2.6c0 1.947-.507 3.387-1.52 4.32-1 .92-2.42 1.38-4.26 1.38h-5.46zm3.64-1.52h1.82c1.36 0 2.386-.333 3.08-1 .693-.667 1.04-1.7 1.04-3.1v-2.74c0-1.427-.347-2.467-1.04-3.12-.694-.653-1.72-.98-3.08-.98h-1.82v10.94zM153.435 97V83h5.66c.867 0 1.627.153 2.28.46.667.293 1.187.72 1.56 1.28.374.547.56 1.207.56 1.98v.22c0 .92-.22 1.647-.66 2.18-.44.533-.96.893-1.56 1.08v.28c.48.013.874.173 1.18.48.32.293.48.74.48 1.34V97h-1.66v-4.5c0-.4-.113-.707-.34-.92-.213-.213-.54-.32-.98-.32h-4.84V97h-1.68zm1.68-7.26h3.82c.92 0 1.627-.22 2.12-.66.507-.453.76-1.08.76-1.88v-.14c0-.8-.246-1.42-.74-1.86-.493-.453-1.206-.68-2.14-.68h-3.82v5.22zM166.053 97V83h8.62v1.52h-6.94v4.68h6.38v1.52h-6.38v4.76h7.04V97h-8.72zm11.269 0V83h3.26l4.88 12.94h.26V83h1.66v14h-3.26l-4.86-12.96h-.28V97h-1.66zM82.536 206v-2.136c0-2.135.164-3.943.493-5.421.328-1.534 1.04-3.259 2.135-5.175l19.304-34.09v-1.314H73.911V148.5h41.4v12.485l-20.372 36.39c-.711 1.259-1.204 2.382-1.478 3.368-.274.986-.41 2.19-.41 3.614V206H82.535zm59.366 1.15c-4.272 0-7.996-.712-11.172-2.136-3.121-1.424-5.558-3.477-7.311-6.16-1.697-2.684-2.546-5.887-2.546-9.611h10.679c0 2.3.794 4.299 2.382 5.996 1.643 1.698 4.299 2.547 7.968 2.547 3.724 0 6.571-.959 8.543-2.875 1.971-1.972 2.957-4.628 2.957-7.968v-5.915h-1.479c-.931 1.096-2.355 2.136-4.271 3.122-1.862.986-4.655 1.478-8.379 1.478-3.286 0-6.352-.711-9.2-2.135-2.848-1.424-5.148-3.478-6.9-6.161-1.752-2.738-2.629-6.024-2.629-9.857v-.986c0-3.833.904-7.174 2.711-10.021 1.807-2.848 4.354-5.066 7.639-6.654 3.286-1.643 7.12-2.464 11.501-2.464 4.381 0 8.187.821 11.417 2.464 3.231 1.643 5.723 3.915 7.476 6.818 1.752 2.902 2.628 6.243 2.628 10.021v19.633c0 4.654-.958 8.543-2.875 11.664-1.862 3.067-4.463 5.367-7.804 6.9-3.285 1.533-7.064 2.3-11.335 2.3zm.328-29.9c2.3 0 4.272-.411 5.915-1.232 1.697-.822 2.984-1.972 3.86-3.45.931-1.479 1.397-3.231 1.397-5.257v-.658c0-3.066-1.013-5.476-3.04-7.228-1.971-1.807-4.682-2.711-8.132-2.711-3.45 0-6.188.904-8.214 2.711-1.972 1.752-2.957 4.162-2.957 7.228v.658c0 2.026.438 3.778 1.314 5.257.931 1.478 2.245 2.628 3.943 3.45 1.698.821 3.669 1.232 5.914 1.232zM188.861 192.034l-3.121-2.505 22.096-27.313 3.122 2.505-22.097 27.313zm17.332-.123c-2.081 0-3.71-.548-4.887-1.643-1.178-1.123-1.766-2.642-1.766-4.559v-.288c0-1.944.588-3.463 1.766-4.559 1.177-1.122 2.806-1.683 4.887-1.683 2.027 0 3.642.561 4.847 1.683 1.205 1.096 1.807 2.615 1.807 4.559v.288c0 1.917-.589 3.436-1.766 4.559-1.178 1.095-2.807 1.643-4.888 1.643zm0-3.368c.794 0 1.41-.247 1.849-.739.465-.493.698-1.137.698-1.931v-.657c0-.794-.233-1.437-.698-1.93-.439-.493-1.055-.74-1.849-.74s-1.424.247-1.889.74c-.438.493-.657 1.136-.657 1.93v.657c0 .794.219 1.438.657 1.931.465.492 1.095.739 1.889.739zm-15.689-13.472c-2.081 0-3.71-.547-4.888-1.643-1.177-1.122-1.766-2.642-1.766-4.558v-.288c0-1.944.589-3.464 1.766-4.559 1.178-1.123 2.807-1.684 4.888-1.684 2.026 0 3.642.561 4.846 1.684 1.205 1.095 1.808 2.615 1.808 4.559v.288c0 1.916-.589 3.436-1.767 4.558-1.177 1.096-2.806 1.643-4.887 1.643zm0-3.368c.794 0 1.41-.246 1.848-.739.466-.493.698-1.136.698-1.93v-.657c0-.794-.232-1.438-.698-1.931-.438-.493-1.054-.739-1.848-.739s-1.424.246-1.889.739c-.438.493-.658 1.137-.658 1.931v.657c0 .794.22 1.437.658 1.93.465.493 1.095.739 1.889.739zM58.807 269v-11.2h1.344v9.984h5.664V269h-7.008zm12.304.224c-.79 0-1.483-.165-2.08-.496a3.574 3.574 0 0 1-1.392-1.424c-.331-.608-.496-1.312-.496-2.112V265c0-.811.165-1.52.496-2.128a3.5 3.5 0 0 1 1.376-1.408c.586-.341 1.258-.512 2.016-.512.736 0 1.386.16 1.952.48a3.286 3.286 0 0 1 1.328 1.344c.32.587.48 1.275.48 2.064v.576h-6.384c.032.843.304 1.504.816 1.984.512.469 1.152.704 1.92.704.672 0 1.189-.155 1.552-.464.362-.309.64-.677.832-1.104l1.088.528c-.16.331-.384.661-.672.992-.278.331-.646.608-1.104.832-.448.224-1.024.336-1.728.336zm-2.688-4.848h5.088c-.043-.725-.294-1.291-.752-1.696-.448-.405-1.024-.608-1.728-.608-.715 0-1.302.203-1.76.608-.459.405-.742.971-.848 1.696zm11.724 4.848c-.97 0-1.792-.224-2.464-.672-.661-.448-1.061-1.157-1.2-2.128l1.2-.272c.086.512.246.917.48 1.216.235.288.523.496.864.624.352.117.726.176 1.12.176.587 0 1.051-.117 1.392-.352.342-.235.512-.549.512-.944 0-.405-.165-.688-.496-.848-.32-.171-.762-.309-1.328-.416l-.656-.112a5.916 5.916 0 0 1-1.376-.4 2.522 2.522 0 0 1-.992-.736c-.245-.309-.368-.699-.368-1.168 0-.704.272-1.253.816-1.648.544-.395 1.264-.592 2.16-.592.886 0 1.6.203 2.144.608.555.395.912.955 1.072 1.68l-1.184.304c-.096-.565-.325-.96-.688-1.184-.362-.235-.81-.352-1.344-.352-.533 0-.954.101-1.264.304-.309.192-.464.48-.464.864 0 .373.144.651.432.832.299.171.694.299 1.184.384l.656.112c.555.096 1.051.229 1.488.4.448.16.8.395 1.056.704.267.309.4.715.4 1.216 0 .768-.288 1.36-.864 1.776-.565.416-1.328.624-2.288.624zm8.438 0c-.97 0-1.792-.224-2.464-.672-.661-.448-1.061-1.157-1.2-2.128l1.2-.272c.085.512.245.917.48 1.216.234.288.523.496.864.624.352.117.725.176 1.12.176.587 0 1.05-.117 1.392-.352.341-.235.512-.549.512-.944 0-.405-.166-.688-.496-.848-.32-.171-.763-.309-1.328-.416l-.656-.112a5.916 5.916 0 0 1-1.376-.4 2.522 2.522 0 0 1-.992-.736c-.246-.309-.368-.699-.368-1.168 0-.704.272-1.253.816-1.648.544-.395 1.264-.592 2.16-.592.885 0 1.6.203 2.144.608.555.395.912.955 1.072 1.68l-1.184.304c-.096-.565-.326-.96-.688-1.184-.363-.235-.81-.352-1.344-.352-.533 0-.955.101-1.264.304-.31.192-.464.48-.464.864 0 .373.144.651.432.832.298.171.693.299 1.184.384l.656.112c.554.096 1.05.229 1.488.4.448.16.8.395 1.056.704.266.309.4.715.4 1.216 0 .768-.288 1.36-.864 1.776-.566.416-1.328.624-2.288.624zM97.98 269v-11.2h1.264V269H97.98zm3.922 0v-7.824h1.264V269h-1.264zm.64-9.04a.987.987 0 0 1-.704-.272.93.93 0 0 1-.272-.688c0-.288.09-.523.272-.704a.987.987 0 0 1 .704-.272c.277 0 .506.091.688.272.181.181.272.416.272.704a.934.934 0 0 1-.272.688.935.935 0 0 1-.688.272zm3.282 9.04v-11.2h1.264v6.592h.224l3.584-3.216h1.76l-4.336 3.808 4.464 4.016h-1.744l-3.728-3.408h-.224V269h-1.264zm11.771.224c-.789 0-1.483-.165-2.08-.496a3.578 3.578 0 0 1-1.392-1.424c-.331-.608-.496-1.312-.496-2.112V265c0-.811.165-1.52.496-2.128a3.5 3.5 0 0 1 1.376-1.408c.587-.341 1.259-.512 2.016-.512.736 0 1.387.16 1.952.48a3.288 3.288 0 0 1 1.328 1.344c.32.587.48 1.275.48 2.064v.576h-6.384c.032.843.304 1.504.816 1.984.512.469 1.152.704 1.92.704.672 0 1.189-.155 1.552-.464.363-.309.64-.677.832-1.104l1.088.528c-.16.331-.384.661-.672.992-.277.331-.645.608-1.104.832-.448.224-1.024.336-1.728.336zm-2.688-4.848h5.088c-.043-.725-.293-1.291-.752-1.696-.448-.405-1.024-.608-1.728-.608-.715 0-1.301.203-1.76.608-.459.405-.741.971-.848 1.696zM123.48 269v-11.2h1.264V269h-1.264zm4.866 3.2v-1.12h4.48c.309 0 .464-.16.464-.48v-2.848h-.224a2.478 2.478 0 0 1-.496.672 2.467 2.467 0 0 1-.848.528c-.352.128-.795.192-1.328.192a3.397 3.397 0 0 1-1.568-.368 2.738 2.738 0 0 1-1.12-1.088c-.267-.48-.4-1.067-.4-1.76v-4.752h1.264v4.656c0 .768.192 1.328.576 1.68.394.352.922.528 1.584.528.746 0 1.36-.245 1.84-.736s.72-1.221.72-2.192v-3.936h1.264v9.648c0 .427-.123.763-.368 1.008-.235.245-.582.368-1.04.368h-4.8zm15.842-3.2c-.448 0-.795-.123-1.04-.368-.235-.245-.352-.581-.352-1.008v-5.344h-2.352v-1.104h2.352v-2.784h1.264v2.784h2.56v1.104h-2.56v5.152c0 .32.155.48.464.48h1.744V269h-2.08zm7.814.224c-.789 0-1.488-.165-2.096-.496a3.609 3.609 0 0 1-1.408-1.392c-.331-.608-.496-1.323-.496-2.144v-.208c0-.811.165-1.52.496-2.128a3.577 3.577 0 0 1 1.408-1.408c.608-.331 1.307-.496 2.096-.496.789 0 1.483.165 2.08.496.608.331 1.077.8 1.408 1.408.341.608.512 1.317.512 2.128v.208c0 .821-.171 1.536-.512 2.144a3.476 3.476 0 0 1-1.408 1.392c-.597.331-1.291.496-2.08.496zm0-1.136c.832 0 1.493-.261 1.984-.784.501-.533.752-1.248.752-2.144v-.144c0-.896-.251-1.605-.752-2.128-.491-.533-1.152-.8-1.984-.8-.821 0-1.483.267-1.984.8-.501.523-.752 1.232-.752 2.128v.144c0 .896.251 1.611.752 2.144.501.523 1.163.784 1.984.784zm14.72 1.136c-.811 0-1.445-.155-1.904-.464-.448-.309-.773-.661-.976-1.056h-.224V269h-1.232v-11.2h1.264v4.608h.224c.128-.245.309-.475.544-.688.235-.224.539-.405.912-.544.384-.149.848-.224 1.392-.224.683 0 1.301.165 1.856.496.565.32 1.013.784 1.344 1.392.331.597.496 1.312.496 2.144v.208c0 .832-.171 1.552-.512 2.16a3.456 3.456 0 0 1-1.344 1.392c-.555.32-1.168.48-1.84.48zm-.336-1.12c.811 0 1.467-.256 1.968-.768.512-.523.768-1.248.768-2.176v-.144c0-.928-.256-1.648-.768-2.16-.501-.523-1.157-.784-1.968-.784-.8 0-1.461.261-1.984.784-.512.512-.768 1.232-.768 2.16v.144c0 .928.256 1.653.768 2.176.523.512 1.184.768 1.984.768zm9.881 1.12c-.789 0-1.483-.165-2.08-.496a3.578 3.578 0 0 1-1.392-1.424c-.331-.608-.496-1.312-.496-2.112V265c0-.811.165-1.52.496-2.128a3.5 3.5 0 0 1 1.376-1.408c.587-.341 1.259-.512 2.016-.512.736 0 1.387.16 1.952.48a3.288 3.288 0 0 1 1.328 1.344c.32.587.48 1.275.48 2.064v.576h-6.384c.032.843.304 1.504.816 1.984.512.469 1.152.704 1.92.704.672 0 1.189-.155 1.552-.464.363-.309.64-.677.832-1.104l1.088.528c-.16.331-.384.661-.672.992-.277.331-.645.608-1.104.832-.448.224-1.024.336-1.728.336zm-2.688-4.848h5.088c-.043-.725-.293-1.291-.752-1.696-.448-.405-1.024-.608-1.728-.608-.715 0-1.301.203-1.76.608-.459.405-.741.971-.848 1.696zM186.261 269v-11.2h1.264v4.624h.224c.107-.235.267-.453.48-.656.224-.213.507-.389.848-.528.352-.139.795-.208 1.328-.208.587 0 1.109.128 1.568.384.469.245.843.608 1.12 1.088.277.469.416 1.056.416 1.76V269h-1.264v-4.64c0-.779-.197-1.344-.592-1.696-.384-.352-.907-.528-1.568-.528-.757 0-1.376.245-1.856.736-.469.491-.704 1.221-.704 2.192V269h-1.264zm9.813 0v-7.824h1.264V269h-1.264zm.64-9.04a.987.987 0 0 1-.704-.272.93.93 0 0 1-.272-.688c0-.288.09-.523.272-.704a.987.987 0 0 1 .704-.272c.277 0 .506.091.688.272.181.181.272.416.272.704a.934.934 0 0 1-.272.688.935.935 0 0 1-.688.272zm3.281 9.04v-7.824h1.232v.96h.224c.139-.341.352-.592.64-.752.288-.16.667-.24 1.136-.24h.928v1.152h-1.008c-.565 0-1.024.16-1.376.48-.341.309-.512.795-.512 1.456V269h-1.264zm9.334.224c-.789 0-1.482-.165-2.08-.496a3.578 3.578 0 0 1-1.392-1.424c-.33-.608-.496-1.312-.496-2.112V265c0-.811.166-1.52.496-2.128a3.507 3.507 0 0 1 1.376-1.408c.587-.341 1.259-.512 2.016-.512.736 0 1.387.16 1.952.48a3.282 3.282 0 0 1 1.328 1.344c.32.587.48 1.275.48 2.064v.576h-6.384c.032.843.304 1.504.816 1.984.512.469 1.152.704 1.92.704.672 0 1.19-.155 1.552-.464.363-.309.64-.677.832-1.104l1.088.528c-.16.331-.384.661-.672.992-.277.331-.645.608-1.104.832-.448.224-1.024.336-1.728.336zm-2.688-4.848h5.088c-.042-.725-.293-1.291-.752-1.696-.448-.405-1.024-.608-1.728-.608-.714 0-1.301.203-1.76.608-.458.405-.741.971-.848 1.696zm11.885 4.848c-.672 0-1.291-.16-1.856-.48a3.456 3.456 0 0 1-1.344-1.392c-.331-.608-.496-1.328-.496-2.16v-.208c0-.832.165-1.547.496-2.144.331-.608.773-1.072 1.328-1.392a3.635 3.635 0 0 1 1.872-.496c.544 0 1.003.075 1.376.224.384.139.693.32.928.544.235.213.416.443.544.688h.224V257.8h1.264V269h-1.232v-1.296h-.224c-.213.395-.544.747-.992 1.056-.448.309-1.077.464-1.888.464zm.336-1.12c.811 0 1.467-.256 1.968-.768.512-.523.768-1.248.768-2.176v-.144c0-.928-.256-1.648-.768-2.16-.501-.523-1.157-.784-1.968-.784-.8 0-1.461.261-1.984.784-.512.512-.768 1.232-.768 2.16v.144c0 .928.256 1.653.768 2.176.523.512 1.184.768 1.984.768zM97.118 293c-.448 0-.795-.123-1.04-.368-.235-.245-.352-.581-.352-1.008v-5.344h-2.352v-1.104h2.352v-2.784h1.264v2.784h2.56v1.104h-2.56v5.152c0 .32.154.48.464.48h1.744V293h-2.08zm4.479 0v-11.2h1.264v4.624h.224c.107-.235.267-.453.48-.656.224-.213.507-.389.848-.528.352-.139.795-.208 1.328-.208.587 0 1.109.128 1.568.384.469.245.843.608 1.12 1.088.277.469.416 1.056.416 1.76V293h-1.264v-4.64c0-.779-.197-1.344-.592-1.696-.384-.352-.907-.528-1.568-.528-.757 0-1.376.245-1.856.736-.469.491-.704 1.221-.704 2.192V293h-1.264zm12.212.224a3.74 3.74 0 0 1-1.488-.288 2.426 2.426 0 0 1-1.056-.832c-.256-.363-.384-.805-.384-1.328 0-.533.128-.971.384-1.312a2.267 2.267 0 0 1 1.056-.784c.448-.181.95-.272 1.504-.272h2.64v-.576c0-.555-.165-.992-.496-1.312-.32-.32-.8-.48-1.44-.48-.629 0-1.12.155-1.472.464-.352.299-.592.704-.72 1.216l-1.184-.384c.128-.437.331-.832.608-1.184a2.901 2.901 0 0 1 1.104-.864c.47-.224 1.03-.336 1.68-.336 1.003 0 1.782.261 2.336.784.555.512.832 1.237.832 2.176v3.536c0 .32.15.48.448.48h.72V293h-1.104c-.352 0-.634-.096-.848-.288-.213-.203-.32-.469-.32-.8v-.08h-.192a3.791 3.791 0 0 1-.48.64c-.192.213-.458.389-.8.528-.341.149-.784.224-1.328.224zm.144-1.088c.747 0 1.35-.219 1.808-.656.47-.448.704-1.072.704-1.872v-.176h-2.592c-.501 0-.917.112-1.248.336-.32.213-.48.539-.48.976 0 .437.166.779.496 1.024.342.245.779.368 1.312.368zm6.66.864v-7.824h1.232v1.328h.224c.17-.373.458-.709.864-1.008.416-.309 1.024-.464 1.824-.464.586 0 1.109.123 1.568.368a2.75 2.75 0 0 1 1.12 1.088c.277.48.416 1.072.416 1.776V293h-1.264v-4.64c0-.779-.198-1.344-.592-1.696-.384-.352-.907-.528-1.568-.528-.758 0-1.376.245-1.856.736-.47.491-.704 1.221-.704 2.192V293h-1.264zm15.009 0-1.568-7.824h1.28l1.296 6.976h.224l1.712-6.976h2.096l1.712 6.976h.224l1.296-6.976h1.28L143.606 293h-2.16l-1.728-6.976h-.208L137.782 293h-2.16zm15.185.224c-.79 0-1.488-.165-2.096-.496a3.602 3.602 0 0 1-1.408-1.392c-.331-.608-.496-1.323-.496-2.144v-.208c0-.811.165-1.52.496-2.128a3.57 3.57 0 0 1 1.408-1.408c.608-.331 1.306-.496 2.096-.496.789 0 1.482.165 2.08.496.608.331 1.077.8 1.408 1.408.341.608.512 1.317.512 2.128v.208c0 .821-.171 1.536-.512 2.144a3.476 3.476 0 0 1-1.408 1.392c-.598.331-1.291.496-2.08.496zm0-1.136c.832 0 1.493-.261 1.984-.784.501-.533.752-1.248.752-2.144v-.144c0-.896-.251-1.605-.752-2.128-.491-.533-1.152-.8-1.984-.8-.822 0-1.483.267-1.984.8-.502.523-.752 1.232-.752 2.128v.144c0 .896.25 1.611.752 2.144.501.523 1.162.784 1.984.784zm6.274.912v-7.824h1.232v.976h.224c.15-.277.395-.533.736-.768.342-.235.822-.352 1.44-.352.608 0 1.099.133 1.472.4.384.267.662.592.832.976h.224a2.57 2.57 0 0 1 .816-.976c.374-.267.891-.4 1.552-.4.523 0 .982.107 1.376.32.395.213.704.523.928.928.235.395.352.869.352 1.424V293h-1.264v-5.184c0-.523-.154-.933-.464-1.232-.298-.309-.72-.464-1.264-.464-.576 0-1.05.187-1.424.56-.362.373-.544.912-.544 1.616V293h-1.264v-5.184c0-.523-.154-.933-.464-1.232-.298-.309-.72-.464-1.264-.464-.576 0-1.05.187-1.424.56-.362.373-.544.912-.544 1.616V293h-1.264zm17.35.224c-.789 0-1.483-.165-2.08-.496a3.578 3.578 0 0 1-1.392-1.424c-.331-.608-.496-1.312-.496-2.112V289c0-.811.165-1.52.496-2.128a3.5 3.5 0 0 1 1.376-1.408c.587-.341 1.259-.512 2.016-.512.736 0 1.387.16 1.952.48a3.288 3.288 0 0 1 1.328 1.344c.32.587.48 1.275.48 2.064v.576h-6.384c.032.843.304 1.504.816 1.984.512.469 1.152.704 1.92.704.672 0 1.189-.155 1.552-.464.363-.309.64-.677.832-1.104l1.088.528c-.16.331-.384.661-.672.992-.277.331-.645.608-1.104.832-.448.224-1.024.336-1.728.336zm-2.688-4.848h5.088c-.043-.725-.293-1.291-.752-1.696-.448-.405-1.024-.608-1.728-.608-.715 0-1.301.203-1.76.608-.459.405-.741.971-.848 1.696zm8.573 4.624v-7.824h1.232v1.328h.224c.17-.373.458-.709.864-1.008.416-.309 1.024-.464 1.824-.464.586 0 1.109.123 1.568.368a2.75 2.75 0 0 1 1.12 1.088c.277.48.416 1.072.416 1.776V293H186.3v-4.64c0-.779-.198-1.344-.592-1.696-.384-.352-.907-.528-1.568-.528-.758 0-1.376.245-1.856.736-.47.491-.704 1.221-.704 2.192V293h-1.264zm-98.795 24-1.568-7.824h1.28l1.296 6.976h.224l1.712-6.976h2.096l1.712 6.976h.224l1.296-6.976h1.28L89.505 317h-2.16l-1.728-6.976h-.208L83.68 317h-2.16zm11.724 0v-7.824h1.264V317h-1.264zm.64-9.04a.988.988 0 0 1-.704-.272.932.932 0 0 1-.272-.688c0-.288.091-.523.272-.704a.988.988 0 0 1 .704-.272c.278 0 .507.091.688.272.182.181.272.416.272.704 0 .277-.09.507-.272.688a.934.934 0 0 1-.688.272zm6.162 9.04c-.448 0-.794-.123-1.04-.368-.234-.245-.352-.581-.352-1.008v-5.344h-2.352v-1.104h2.352v-2.784h1.264v2.784h2.56v1.104h-2.56v5.152c0 .32.155.48.464.48h1.744V317h-2.08zm4.48 0v-11.2h1.264v4.624h.224c.106-.235.266-.453.48-.656.224-.213.506-.389.848-.528.352-.139.794-.208 1.328-.208.586 0 1.109.128 1.568.384a2.75 2.75 0 0 1 1.12 1.088c.277.469.416 1.056.416 1.76V317h-1.264v-4.64c0-.779-.198-1.344-.592-1.696-.384-.352-.907-.528-1.568-.528-.758 0-1.376.245-1.856.736-.47.491-.704 1.221-.704 2.192V317h-1.264zm13.428.224c-.789 0-1.488-.165-2.096-.496a3.609 3.609 0 0 1-1.408-1.392c-.331-.608-.496-1.323-.496-2.144v-.208c0-.811.165-1.52.496-2.128a3.577 3.577 0 0 1 1.408-1.408c.608-.331 1.307-.496 2.096-.496.789 0 1.483.165 2.08.496.608.331 1.077.8 1.408 1.408.341.608.512 1.317.512 2.128v.208c0 .821-.171 1.536-.512 2.144a3.476 3.476 0 0 1-1.408 1.392c-.597.331-1.291.496-2.08.496zm0-1.136c.832 0 1.493-.261 1.984-.784.501-.533.752-1.248.752-2.144v-.144c0-.896-.251-1.605-.752-2.128-.491-.533-1.152-.8-1.984-.8-.821 0-1.483.267-1.984.8-.501.523-.752 1.232-.752 2.128v.144c0 .896.251 1.611.752 2.144.501.523 1.163.784 1.984.784zm9.267 1.056a3.397 3.397 0 0 1-1.568-.368 2.738 2.738 0 0 1-1.12-1.088c-.267-.491-.4-1.083-.4-1.776v-4.736h1.264v4.64c0 .779.192 1.344.576 1.696.394.352.922.528 1.584.528.746 0 1.36-.245 1.84-.736s.72-1.221.72-2.192v-3.936h1.264V317h-1.232v-1.328h-.224c-.171.373-.464.715-.88 1.024-.416.299-1.024.448-1.824.448zm9.685-.144c-.448 0-.795-.123-1.04-.368-.235-.245-.352-.581-.352-1.008v-5.344h-2.352v-1.104h2.352v-2.784h1.264v2.784h2.56v1.104h-2.56v5.152c0 .32.154.48.464.48h1.744V317h-2.08zm12.188.224c-.757 0-1.44-.16-2.048-.48a3.69 3.69 0 0 1-1.424-1.408c-.341-.608-.512-1.328-.512-2.16V313c0-.843.171-1.563.512-2.16a3.575 3.575 0 0 1 1.424-1.392c.608-.331 1.291-.496 2.048-.496.747 0 1.382.139 1.904.416.534.277.95.645 1.248 1.104.31.459.507.949.592 1.472l-1.232.256a2.615 2.615 0 0 0-.384-1.056 2.1 2.1 0 0 0-.816-.768c-.352-.192-.784-.288-1.296-.288-.522 0-.992.117-1.408.352-.405.235-.73.571-.976 1.008-.234.437-.352.96-.352 1.568v.144c0 .608.118 1.131.352 1.568.246.437.571.773.976 1.008.416.235.886.352 1.408.352.779 0 1.371-.203 1.776-.608.416-.405.672-.907.768-1.504l1.248.272c-.117.512-.33.997-.64 1.456-.309.459-.73.827-1.264 1.104-.522.277-1.157.416-1.904.416zm5.963-.224v-11.2h1.264v4.624h.224c.107-.235.267-.453.48-.656.224-.213.507-.389.848-.528.352-.139.795-.208 1.328-.208.587 0 1.109.128 1.568.384.469.245.843.608 1.12 1.088.277.469.416 1.056.416 1.76V317h-1.264v-4.64c0-.779-.197-1.344-.592-1.696-.384-.352-.907-.528-1.568-.528-.757 0-1.376.245-1.856.736-.469.491-.704 1.221-.704 2.192V317h-1.264zm9.812 0v-7.824h1.264V317h-1.264zm.64-9.04a.99.99 0 0 1-.704-.272.934.934 0 0 1-.272-.688c0-.288.091-.523.272-.704a.99.99 0 0 1 .704-.272c.278 0 .507.091.688.272.182.181.272.416.272.704a.93.93 0 0 1-.96.96zm3.282 9.04v-11.2h1.264V317h-1.264zm7.234.224c-.672 0-1.291-.16-1.856-.48a3.456 3.456 0 0 1-1.344-1.392c-.331-.608-.496-1.328-.496-2.16v-.208c0-.832.165-1.547.496-2.144.331-.608.773-1.072 1.328-1.392a3.635 3.635 0 0 1 1.872-.496c.544 0 1.003.075 1.376.224.384.139.693.32.928.544.235.213.416.443.544.688h.224V305.8h1.264V317h-1.232v-1.296h-.224c-.213.395-.544.747-.992 1.056-.448.309-1.077.464-1.888.464zm.336-1.12c.811 0 1.467-.256 1.968-.768.512-.523.768-1.248.768-2.176v-.144c0-.928-.256-1.648-.768-2.16-.501-.523-1.157-.784-1.968-.784-.8 0-1.461.261-1.984.784-.512.512-.768 1.232-.768 2.16v.144c0 .928.256 1.653.768 2.176.523.512 1.184.768 1.984.768zm6.649.896v-7.824h1.232v.96h.224c.139-.341.352-.592.64-.752.288-.16.667-.24 1.136-.24h.928v1.152h-1.008c-.565 0-1.024.16-1.376.48-.341.309-.512.795-.512 1.456V317h-1.264zm9.334.224c-.789 0-1.483-.165-2.08-.496a3.578 3.578 0 0 1-1.392-1.424c-.331-.608-.496-1.312-.496-2.112V313c0-.811.165-1.52.496-2.128a3.5 3.5 0 0 1 1.376-1.408c.587-.341 1.259-.512 2.016-.512.736 0 1.387.16 1.952.48a3.288 3.288 0 0 1 1.328 1.344c.32.587.48 1.275.48 2.064v.576h-6.384c.032.843.304 1.504.816 1.984.512.469 1.152.704 1.92.704.672 0 1.189-.155 1.552-.464.363-.309.64-.677.832-1.104l1.088.528c-.16.331-.384.661-.672.992-.277.331-.645.608-1.104.832-.448.224-1.024.336-1.728.336zm-2.688-4.848h5.088c-.043-.725-.293-1.291-.752-1.696-.448-.405-1.024-.608-1.728-.608-.715 0-1.301.203-1.76.608-.459.405-.741.971-.848 1.696zM198.23 317v-7.824h1.232v1.328h.224c.17-.373.458-.709.864-1.008.416-.309 1.024-.464 1.824-.464.586 0 1.109.123 1.568.368a2.75 2.75 0 0 1 1.12 1.088c.277.48.416 1.072.416 1.776V317h-1.264v-4.64c0-.779-.198-1.344-.592-1.696-.384-.352-.907-.528-1.568-.528-.758 0-1.376.245-1.856.736-.47.491-.704 1.221-.704 2.192V317h-1.264z" fill="#fff"/></svg>