<svg width="286" height="371" fill="none" xmlns="http://www.w3.org/2000/svg"><path fill="#F6331C" d="M.68 0H285.5v371H.68z"/><path d="M77.78 69 75.5 55h1.68l1.98 12.92h.28L82.02 55h3l2.56 12.92h.28L89.84 55h1.68l-2.28 14h-3l-2.58-13h-.28L80.8 69h-3.02zm21.024.28c-1.667 0-3-.48-4-1.44-.987-.973-1.48-2.387-1.48-4.24v-3.2c0-1.853.493-3.26 1.48-4.22 1-.973 2.333-1.46 4-1.46 1.68 0 3.013.487 4 1.46 1 .96 1.5 2.367 1.5 4.22v3.2c0 1.853-.5 3.267-1.5 4.24-.987.96-2.32 1.44-4 1.44zm0-1.5c1.213 0 2.153-.36 2.82-1.08.666-.733 1-1.747 1-3.04v-3.32c0-1.293-.334-2.3-1-3.02-.667-.733-1.607-1.1-2.82-1.1-1.2 0-2.134.367-2.8 1.1-.667.72-1 1.727-1 3.02v3.32c0 1.293.333 2.307 1 3.04.666.72 1.6 1.08 2.8 1.08zm8.298 1.22V55h3.2l3.72 12.94h.26l3.72-12.94h3.2v14h-1.62V56.1h-.28l-3.7 12.9h-2.9l-3.7-12.9h-.28V69h-1.62zm17.305 0V55h8.62v1.52h-6.94v4.68h6.38v1.52h-6.38v4.76h7.04V69h-8.72zm11.27 0V55h3.26l4.88 12.94h.26V55h1.66v14h-3.26l-4.86-12.96h-.28V69h-1.66zm18.418 0V55h1.68v14h-1.68zm4.882 0V55h3.26l4.88 12.94h.26V55h1.66v14h-3.26l-4.86-12.96h-.28V69h-1.66zm21.331 0V56.52h-4.5V55h10.68v1.52h-4.5V69h-1.68zm8.318 0V55h1.68v6.22h6.56V55h1.68v14h-1.68v-6.26h-6.56V69h-1.68zm13.125 0V55h8.62v1.52h-6.94v4.68h6.38v1.52h-6.38v4.76h7.04V69h-8.72zM87.946 97l-2.28-14h1.68l1.98 12.92h.28L92.186 83h3l2.56 12.92h.28l1.98-12.92h1.68l-2.28 14h-3l-2.58-13h-.28l-2.58 13h-3.02zm21.024.28c-1.667 0-3-.48-4-1.44-.987-.973-1.48-2.387-1.48-4.24v-3.2c0-1.853.493-3.26 1.48-4.22 1-.973 2.333-1.46 4-1.46 1.68 0 3.013.487 4 1.46 1 .96 1.5 2.367 1.5 4.22v3.2c0 1.853-.5 3.267-1.5 4.24-.987.96-2.32 1.44-4 1.44zm0-1.5c1.213 0 2.153-.36 2.82-1.08.666-.733 1-1.747 1-3.04v-3.32c0-1.293-.334-2.3-1-3.02-.667-.733-1.607-1.1-2.82-1.1-1.2 0-2.134.367-2.8 1.1-.667.72-1 1.727-1 3.02v3.32c0 1.293.333 2.307 1 3.04.666.72 1.6 1.08 2.8 1.08zm8.298 1.22V83h5.66c.867 0 1.627.153 2.28.46.667.293 1.187.72 1.56 1.28.374.547.56 1.207.56 1.98v.22c0 .92-.22 1.647-.66 2.18-.44.533-.96.893-1.56 1.08v.28c.48.013.874.173 1.18.48.32.293.48.74.48 1.34V97h-1.66v-4.5c0-.4-.113-.707-.34-.92-.213-.213-.54-.32-.98-.32h-4.84V97h-1.68zm1.68-7.26h3.82c.92 0 1.627-.22 2.12-.66.507-.453.76-1.08.76-1.88v-.14c0-.8-.246-1.42-.74-1.86-.493-.453-1.206-.68-2.14-.68h-3.82v5.22zM129.886 97V83h1.68v6.1h.28l5.92-6.1h2.24l-6.82 6.92 7.06 7.08h-2.3l-6.1-6.22h-.28V97h-1.68zm12.207 0V83h8.46v1.52h-6.78v4.7h6.24v1.52h-6.24V97h-1.68zm15.744.28c-1.667 0-3-.48-4-1.44-.987-.973-1.48-2.387-1.48-4.24v-3.2c0-1.853.493-3.26 1.48-4.22 1-.973 2.333-1.46 4-1.46 1.68 0 3.013.487 4 1.46 1 .96 1.5 2.367 1.5 4.22v3.2c0 1.853-.5 3.267-1.5 4.24-.987.96-2.32 1.44-4 1.44zm0-1.5c1.213 0 2.153-.36 2.82-1.08.666-.733 1-1.747 1-3.04v-3.32c0-1.293-.334-2.3-1-3.02-.667-.733-1.607-1.1-2.82-1.1-1.2 0-2.134.367-2.8 1.1-.667.72-1 1.727-1 3.02v3.32c0 1.293.333 2.307 1 3.04.666.72 1.6 1.08 2.8 1.08zm8.299 1.22V83h5.66c.866 0 1.626.153 2.28.46.666.293 1.186.72 1.56 1.28.373.547.56 1.207.56 1.98v.22c0 .92-.22 1.647-.66 2.18-.44.533-.96.893-1.56 1.08v.28c.48.013.873.173 1.18.48.32.293.48.74.48 1.34V97h-1.66v-4.5c0-.4-.114-.707-.34-.92-.214-.213-.54-.32-.98-.32h-4.84V97h-1.68zm1.68-7.26h3.82c.92 0 1.626-.22 2.12-.66.506-.453.76-1.08.76-1.88v-.14c0-.8-.247-1.42-.74-1.86-.494-.453-1.207-.68-2.14-.68h-3.82v5.22zm15.997 7.54c-1.667 0-2.993-.48-3.98-1.44-.987-.973-1.48-2.387-1.48-4.24v-3.2c0-1.853.493-3.26 1.48-4.22.987-.973 2.313-1.46 3.98-1.46 1.653 0 2.92.46 3.8 1.38.893.92 1.34 2.18 1.34 3.78v.1h-1.66v-.16c0-1.053-.287-1.913-.86-2.58-.56-.68-1.433-1.02-2.62-1.02s-2.113.367-2.78 1.1c-.667.72-1 1.733-1 3.04v3.28c0 1.307.333 2.327 1 3.06.667.72 1.593 1.08 2.78 1.08 1.187 0 2.06-.333 2.62-1 .573-.68.86-1.547.86-2.6v-.32h1.66v.26c0 1.6-.447 2.86-1.34 3.78-.88.92-2.147 1.38-3.8 1.38zm7.772-.28V83h8.62v1.52h-6.94v4.68h6.38v1.52h-6.38v4.76h7.04V97h-8.72zM106.111 206v-11.664H77.853v-12.158L97.732 148.5h18.893v36.471h9.529v9.365h-9.529V206h-10.514zm-18.236-21.029h18.236v-29.736h-1.479l-16.757 28.422v1.314zm65.036 22.179c-4.326 0-8.16-.767-11.5-2.3-3.341-1.533-5.969-3.724-7.886-6.571-1.862-2.903-2.793-6.326-2.793-10.268v-1.479h10.515v1.15c0 3.067 1.068 5.531 3.203 7.393 2.136 1.807 4.956 2.711 8.461 2.711 3.56 0 6.298-.849 8.214-2.547 1.972-1.697 2.958-3.833 2.958-6.407v-.821c0-1.753-.439-3.177-1.315-4.272-.876-1.095-2.053-1.889-3.532-2.382-1.478-.548-3.149-.821-5.011-.821h-11.5v-11.5l18.565-9.858v-1.314h-29.079V148.5h40.743v13.964l-17.332 9.2v1.314h3.039c2.574 0 5.066.521 7.475 1.561 2.464 1.041 4.491 2.656 6.079 4.847 1.588 2.135 2.382 4.928 2.382 8.378v.986c0 3.724-.904 6.982-2.711 9.775-1.807 2.738-4.353 4.874-7.639 6.407-3.231 1.479-7.01 2.218-11.336 2.218zM184.542 192.034l-3.122-2.505 22.097-27.313 3.121 2.505-22.096 27.313zm17.332-.123c-2.081 0-3.71-.548-4.887-1.643-1.178-1.123-1.767-2.642-1.767-4.559v-.288c0-1.944.589-3.463 1.767-4.559 1.177-1.122 2.806-1.683 4.887-1.683 2.026 0 3.642.561 4.847 1.683 1.204 1.096 1.807 2.615 1.807 4.559v.288c0 1.917-.589 3.436-1.766 4.559-1.178 1.095-2.807 1.643-4.888 1.643zm0-3.368c.794 0 1.41-.247 1.848-.739.466-.493.699-1.137.699-1.931v-.657c0-.794-.233-1.437-.699-1.93-.438-.493-1.054-.74-1.848-.74s-1.424.247-1.889.74c-.438.493-.657 1.136-.657 1.93v.657c0 .794.219 1.438.657 1.931.465.492 1.095.739 1.889.739zm-15.689-13.472c-2.081 0-3.71-.547-4.888-1.643-1.177-1.122-1.766-2.642-1.766-4.558v-.288c0-1.944.589-3.464 1.766-4.559 1.178-1.123 2.807-1.684 4.888-1.684 2.026 0 3.641.561 4.846 1.684 1.205 1.095 1.807 2.615 1.807 4.559v.288c0 1.916-.588 3.436-1.766 4.558-1.177 1.096-2.806 1.643-4.887 1.643zm0-3.368c.794 0 1.41-.246 1.848-.739.465-.493.698-1.136.698-1.93v-.657c0-.794-.233-1.438-.698-1.931-.438-.493-1.054-.739-1.848-.739s-1.424.246-1.89.739c-.438.493-.657 1.137-.657 1.931v.657c0 .794.219 1.437.657 1.93.466.493 1.096.739 1.89.739zM33.577 269v-1.2h1.568V259h-1.568v-1.2h4.368c1.472 0 2.608.373 3.408 1.12.81.747 1.216 1.893 1.216 3.44v2.08c0 1.557-.406 2.709-1.216 3.456-.8.736-1.936 1.104-3.408 1.104h-4.368zm2.912-1.216h1.456c1.088 0 1.91-.267 2.464-.8s.832-1.36.832-2.48v-2.192c0-1.141-.278-1.973-.832-2.496-.555-.523-1.376-.784-2.464-.784h-1.456v8.752zm11.857 1.44c-.79 0-1.483-.165-2.08-.496a3.574 3.574 0 0 1-1.392-1.424c-.33-.608-.496-1.312-.496-2.112V265c0-.811.165-1.52.496-2.128a3.5 3.5 0 0 1 1.376-1.408c.587-.341 1.259-.512 2.016-.512.736 0 1.387.16 1.952.48a3.286 3.286 0 0 1 1.328 1.344c.32.587.48 1.275.48 2.064v.576h-6.384c.032.843.304 1.504.816 1.984.512.469 1.152.704 1.92.704.672 0 1.19-.155 1.552-.464.363-.309.64-.677.832-1.104l1.088.528c-.16.331-.384.661-.672.992-.277.331-.645.608-1.104.832-.448.224-1.024.336-1.728.336zm-2.688-4.848h5.088c-.043-.725-.293-1.291-.752-1.696-.448-.405-1.024-.608-1.728-.608-.715 0-1.301.203-1.76.608-.459.405-.741.971-.848 1.696zM54.231 269v-11.2h1.264V269H54.23zm6.322.224a3.74 3.74 0 0 1-1.488-.288 2.426 2.426 0 0 1-1.056-.832c-.256-.363-.384-.805-.384-1.328 0-.533.128-.971.384-1.312a2.267 2.267 0 0 1 1.056-.784c.448-.181.95-.272 1.504-.272h2.64v-.576c0-.555-.166-.992-.496-1.312-.32-.32-.8-.48-1.44-.48-.63 0-1.12.155-1.472.464-.352.299-.592.704-.72 1.216l-1.184-.384c.128-.437.33-.832.608-1.184a2.892 2.892 0 0 1 1.104-.864c.47-.224 1.03-.336 1.68-.336 1.002 0 1.781.261 2.336.784.554.512.832 1.237.832 2.176v3.536c0 .32.15.48.448.48h.72V269H64.52c-.352 0-.635-.096-.848-.288-.214-.203-.32-.469-.32-.8v-.08h-.192a3.824 3.824 0 0 1-.48.64c-.192.213-.459.389-.8.528-.342.149-.784.224-1.328.224zm.144-1.088c.746 0 1.35-.219 1.808-.656.47-.448.704-1.072.704-1.872v-.176h-2.592c-.502 0-.918.112-1.248.336-.32.213-.48.539-.48.976 0 .437.165.779.496 1.024.341.245.778.368 1.312.368zm7.4 4.064v-1.12h4.48c.31 0 .464-.16.464-.48v-2.848h-.224a2.47 2.47 0 0 1-.496.672 2.46 2.46 0 0 1-.848.528c-.352.128-.795.192-1.328.192a3.4 3.4 0 0 1-1.568-.368 2.745 2.745 0 0 1-1.12-1.088c-.267-.48-.4-1.067-.4-1.76v-4.752h1.264v4.656c0 .768.192 1.328.576 1.68.394.352.922.528 1.584.528.746 0 1.36-.245 1.84-.736s.72-1.221.72-2.192v-3.936h1.264v9.648c0 .427-.123.763-.368 1.008-.235.245-.582.368-1.04.368h-4.8zm12.437-2.976c-.79 0-1.483-.165-2.08-.496a3.574 3.574 0 0 1-1.392-1.424c-.331-.608-.496-1.312-.496-2.112V265c0-.811.165-1.52.496-2.128a3.5 3.5 0 0 1 1.376-1.408c.586-.341 1.258-.512 2.016-.512.736 0 1.386.16 1.952.48a3.286 3.286 0 0 1 1.328 1.344c.32.587.48 1.275.48 2.064v.576H77.83c.032.843.304 1.504.816 1.984.512.469 1.152.704 1.92.704.672 0 1.189-.155 1.552-.464.362-.309.64-.677.832-1.104l1.088.528c-.16.331-.384.661-.672.992-.278.331-.646.608-1.104.832-.448.224-1.024.336-1.728.336zm-2.688-4.848h5.088c-.043-.725-.294-1.291-.752-1.696-.448-.405-1.024-.608-1.728-.608-.715 0-1.302.203-1.76.608-.46.405-.742.971-.848 1.696zm11.884 4.848c-.672 0-1.29-.16-1.856-.48a3.45 3.45 0 0 1-1.344-1.392c-.33-.608-.496-1.328-.496-2.16v-.208c0-.832.166-1.547.496-2.144.331-.608.774-1.072 1.328-1.392a3.637 3.637 0 0 1 1.872-.496c.544 0 1.003.075 1.376.224.384.139.694.32.928.544.235.213.416.443.544.688h.224V257.8h1.264V269h-1.232v-1.296h-.224c-.213.395-.544.747-.992 1.056-.448.309-1.077.464-1.888.464zm.336-1.12c.811 0 1.467-.256 1.968-.768.512-.523.768-1.248.768-2.176v-.144c0-.928-.256-1.648-.768-2.16-.501-.523-1.157-.784-1.968-.784-.8 0-1.461.261-1.984.784-.512.512-.768 1.232-.768 2.16v.144c0 .928.256 1.653.768 2.176.523.512 1.184.768 1.984.768zm13.911 1.12c-.971 0-1.792-.224-2.464-.672-.662-.448-1.062-1.157-1.2-2.128l1.2-.272c.085.512.245.917.48 1.216.234.288.522.496.864.624.352.117.725.176 1.12.176.586 0 1.05-.117 1.392-.352.341-.235.512-.549.512-.944 0-.405-.166-.688-.496-.848-.32-.171-.763-.309-1.328-.416l-.656-.112a5.908 5.908 0 0 1-1.376-.4 2.52 2.52 0 0 1-.992-.736c-.246-.309-.368-.699-.368-1.168 0-.704.272-1.253.816-1.648.544-.395 1.264-.592 2.16-.592.885 0 1.6.203 2.144.608.554.395.912.955 1.072 1.68l-1.184.304c-.096-.565-.326-.96-.688-1.184-.363-.235-.811-.352-1.344-.352-.534 0-.955.101-1.264.304-.31.192-.464.48-.464.864 0 .373.144.651.432.832.298.171.693.299 1.184.384l.656.112c.554.096 1.05.229 1.488.4.448.16.8.395 1.056.704.266.309.4.715.4 1.216 0 .768-.288 1.36-.864 1.776-.566.416-1.328.624-2.288.624zm7.993-.224c-.448 0-.794-.123-1.04-.368-.234-.245-.352-.581-.352-1.008v-5.344h-2.352v-1.104h2.352v-2.784h1.264v2.784h2.56v1.104h-2.56v5.152c0 .32.155.48.464.48h1.744V269h-2.08zm6.833.224a3.74 3.74 0 0 1-1.488-.288 2.426 2.426 0 0 1-1.056-.832c-.256-.363-.384-.805-.384-1.328 0-.533.128-.971.384-1.312a2.267 2.267 0 0 1 1.056-.784 3.982 3.982 0 0 1 1.504-.272h2.64v-.576c0-.555-.166-.992-.496-1.312-.32-.32-.8-.48-1.44-.48-.63 0-1.12.155-1.472.464-.352.299-.592.704-.72 1.216l-1.184-.384a3.46 3.46 0 0 1 .608-1.184 2.886 2.886 0 0 1 1.104-.864c.469-.224 1.029-.336 1.68-.336 1.002 0 1.781.261 2.336.784.554.512.832 1.237.832 2.176v3.536c0 .32.149.48.448.48h.72V269h-1.104c-.352 0-.635-.096-.848-.288-.214-.203-.32-.469-.32-.8v-.08h-.192a3.902 3.902 0 0 1-.48.64c-.192.213-.459.389-.8.528-.342.149-.784.224-1.328.224zm.144-1.088c.746 0 1.349-.219 1.808-.656.469-.448.704-1.072.704-1.872v-.176h-2.592c-.502 0-.918.112-1.248.336-.32.213-.48.539-.48.976 0 .437.165.779.496 1.024.341.245.778.368 1.312.368zm6.659.864v-7.824h1.232v.96h.224c.139-.341.352-.592.64-.752.288-.16.667-.24 1.136-.24h.928v1.152h-1.008c-.565 0-1.024.16-1.376.48-.341.309-.512.795-.512 1.456V269h-1.264zm8.911 0c-.448 0-.795-.123-1.04-.368-.235-.245-.352-.581-.352-1.008v-5.344h-2.352v-1.104h2.352v-2.784h1.264v2.784h2.56v1.104h-2.56v5.152c0 .32.155.48.464.48h1.744V269h-2.08zm4.479 0v-7.824h1.264V269h-1.264zm.64-9.04a.99.99 0 0 1-.704-.272.934.934 0 0 1-.272-.688c0-.288.091-.523.272-.704a.99.99 0 0 1 .704-.272c.278 0 .507.091.688.272.182.181.272.416.272.704a.93.93 0 0 1-.96.96zm3.282 9.04v-7.824h1.232v1.328h.224c.171-.373.459-.709.864-1.008.416-.309 1.024-.464 1.824-.464.587 0 1.11.123 1.568.368.47.245.843.608 1.12 1.088.278.48.416 1.072.416 1.776V269h-1.264v-4.64c0-.779-.197-1.344-.592-1.696-.384-.352-.906-.528-1.568-.528-.757 0-1.376.245-1.856.736-.469.491-.704 1.221-.704 2.192V269h-1.264zm9.429-3.872v-.224c0-.821.165-1.525.496-2.112a3.507 3.507 0 0 1 1.344-1.36 3.702 3.702 0 0 1 1.856-.48c.821 0 1.451.16 1.888.48.448.309.779.656.992 1.04h.224v-1.296h1.2v9.648c0 .427-.117.763-.352 1.008s-.576.368-1.024.368h-5.312v-1.12h4.976c.32 0 .48-.16.48-.48v-2.976h-.224a2.836 2.836 0 0 1-.544.688 2.822 2.822 0 0 1-.912.56c-.373.139-.837.208-1.392.208-.672 0-1.291-.16-1.856-.48a3.507 3.507 0 0 1-1.344-1.36c-.331-.597-.496-1.301-.496-2.112zm4.032 2.832c.811 0 1.467-.256 1.968-.768.512-.512.768-1.216.768-2.112v-.128c0-.907-.256-1.611-.768-2.112-.501-.512-1.157-.768-1.968-.768-.8 0-1.461.256-1.984.768-.512.501-.768 1.205-.768 2.112v.128c0 .896.256 1.6.768 2.112.523.512 1.184.768 1.984.768zm13.127 1.264a3.74 3.74 0 0 1-1.488-.288 2.426 2.426 0 0 1-1.056-.832c-.256-.363-.384-.805-.384-1.328 0-.533.128-.971.384-1.312a2.267 2.267 0 0 1 1.056-.784 3.982 3.982 0 0 1 1.504-.272h2.64v-.576c0-.555-.165-.992-.496-1.312-.32-.32-.8-.48-1.44-.48-.629 0-1.12.155-1.472.464-.352.299-.592.704-.72 1.216l-1.184-.384c.128-.437.331-.832.608-1.184a2.886 2.886 0 0 1 1.104-.864c.469-.224 1.029-.336 1.68-.336 1.003 0 1.781.261 2.336.784.555.512.832 1.237.832 2.176v3.536c0 .32.149.48.448.48h.72V269h-1.104c-.352 0-.635-.096-.848-.288-.213-.203-.32-.469-.32-.8v-.08h-.192a3.791 3.791 0 0 1-.48.64c-.192.213-.459.389-.8.528-.341.149-.784.224-1.328.224zm.144-1.088c.747 0 1.349-.219 1.808-.656.469-.448.704-1.072.704-1.872v-.176h-2.592c-.501 0-.917.112-1.248.336-.32.213-.48.539-.48.976 0 .437.165.779.496 1.024.341.245.779.368 1.312.368zm12.304.864v-6.72h-2.4v-1.104h2.4v-2c0-.427.118-.763.352-1.008.246-.245.592-.368 1.04-.368h1.968v1.088h-1.616c-.32 0-.48.16-.48.48v1.808h2.464v1.104h-2.464V269h-1.264zm7.802.224a3.74 3.74 0 0 1-1.488-.288 2.426 2.426 0 0 1-1.056-.832c-.256-.363-.384-.805-.384-1.328 0-.533.128-.971.384-1.312a2.267 2.267 0 0 1 1.056-.784 3.982 3.982 0 0 1 1.504-.272h2.64v-.576c0-.555-.165-.992-.496-1.312-.32-.32-.8-.48-1.44-.48-.629 0-1.12.155-1.472.464-.352.299-.592.704-.72 1.216l-1.184-.384c.128-.437.331-.832.608-1.184a2.886 2.886 0 0 1 1.104-.864c.469-.224 1.029-.336 1.68-.336 1.003 0 1.781.261 2.336.784.555.512.832 1.237.832 2.176v3.536c0 .32.149.48.448.48h.72V269h-1.104c-.352 0-.635-.096-.848-.288-.213-.203-.32-.469-.32-.8v-.08h-.192a3.791 3.791 0 0 1-.48.64c-.192.213-.459.389-.8.528-.341.149-.784.224-1.328.224zm.144-1.088c.747 0 1.349-.219 1.808-.656.469-.448.704-1.072.704-1.872v-.176h-2.592c-.501 0-.917.112-1.248.336-.32.213-.48.539-.48.976 0 .437.165.779.496 1.024.341.245.779.368 1.312.368zm6.659.864v-7.824h1.232v.976h.224c.149-.277.395-.533.736-.768.341-.235.821-.352 1.44-.352.608 0 1.099.133 1.472.4.384.267.661.592.832.976h.224c.181-.384.453-.709.816-.976.373-.267.891-.4 1.552-.4.523 0 .981.107 1.376.32.395.213.704.523.928.928.235.395.352.869.352 1.424V269h-1.264v-5.184c0-.523-.155-.933-.464-1.232-.299-.309-.72-.464-1.264-.464-.576 0-1.051.187-1.424.56-.363.373-.544.912-.544 1.616V269h-1.264v-5.184c0-.523-.155-.933-.464-1.232-.299-.309-.72-.464-1.264-.464-.576 0-1.051.187-1.424.56-.363.373-.544.912-.544 1.616V269h-1.264zm13.766 0v-7.824h1.264V269h-1.264zm.64-9.04a.987.987 0 0 1-.704-.272.93.93 0 0 1-.272-.688c0-.288.09-.523.272-.704a.987.987 0 0 1 .704-.272c.277 0 .506.091.688.272.181.181.272.416.272.704a.934.934 0 0 1-.272.688.935.935 0 0 1-.688.272zm3.281 9.04v-11.2h1.264V269h-1.264zm4.866 3.2v-1.12h4.48c.31 0 .464-.16.464-.48v-2.848h-.224a2.458 2.458 0 0 1-1.344 1.2c-.352.128-.794.192-1.328.192a3.4 3.4 0 0 1-1.568-.368 2.75 2.75 0 0 1-1.12-1.088c-.266-.48-.4-1.067-.4-1.76v-4.752h1.264v4.656c0 .768.192 1.328.576 1.68.395.352.923.528 1.584.528.747 0 1.36-.245 1.84-.736s.72-1.221.72-2.192v-3.936h1.264v9.648c0 .427-.122.763-.368 1.008-.234.245-.581.368-1.04.368h-4.8zm14.499-3.2v-6.72h-2.4v-1.104h2.4v-2c0-.427.117-.763.352-1.008.245-.245.592-.368 1.04-.368h1.968v1.088h-1.616c-.32 0-.48.16-.48.48v1.808h2.464v1.104h-2.464V269h-1.264zm8.767.224c-.789 0-1.488-.165-2.096-.496a3.609 3.609 0 0 1-1.408-1.392c-.331-.608-.496-1.323-.496-2.144v-.208c0-.811.165-1.52.496-2.128a3.577 3.577 0 0 1 1.408-1.408c.608-.331 1.307-.496 2.096-.496.789 0 1.483.165 2.08.496.608.331 1.077.8 1.408 1.408.341.608.512 1.317.512 2.128v.208c0 .821-.171 1.536-.512 2.144a3.476 3.476 0 0 1-1.408 1.392c-.597.331-1.291.496-2.08.496zm0-1.136c.832 0 1.493-.261 1.984-.784.501-.533.752-1.248.752-2.144v-.144c0-.896-.251-1.605-.752-2.128-.491-.533-1.152-.8-1.984-.8-.821 0-1.483.267-1.984.8-.501.523-.752 1.232-.752 2.128v.144c0 .896.251 1.611.752 2.144.501.523 1.163.784 1.984.784zm6.275.912v-7.824h1.232v.96h.224c.138-.341.352-.592.64-.752.288-.16.666-.24 1.136-.24h.928v1.152h-1.008c-.566 0-1.024.16-1.376.48-.342.309-.512.795-.512 1.456V269h-1.264zM48.04 293v-6.72h-2.4v-1.104h2.4v-2c0-.427.118-.763.352-1.008.246-.245.592-.368 1.04-.368H51.4v1.088h-1.616c-.32 0-.48.16-.48.48v1.808h2.464v1.104h-2.464V293H48.04zm8.736.224c-.79 0-1.483-.165-2.08-.496a3.574 3.574 0 0 1-1.392-1.424c-.33-.608-.496-1.312-.496-2.112V289c0-.811.165-1.52.496-2.128a3.5 3.5 0 0 1 1.376-1.408c.587-.341 1.258-.512 2.016-.512.736 0 1.387.16 1.952.48a3.286 3.286 0 0 1 1.328 1.344c.32.587.48 1.275.48 2.064v.576h-6.384c.032.843.304 1.504.816 1.984.512.469 1.152.704 1.92.704.672 0 1.19-.155 1.552-.464.362-.309.64-.677.832-1.104l1.088.528c-.16.331-.384.661-.672.992-.277.331-.645.608-1.104.832-.448.224-1.024.336-1.728.336zm-2.688-4.848h5.088c-.043-.725-.294-1.291-.752-1.696-.448-.405-1.024-.608-1.728-.608-.715 0-1.301.203-1.76.608-.459.405-.742.971-.848 1.696zm10.973 4.848a3.74 3.74 0 0 1-1.489-.288 2.426 2.426 0 0 1-1.056-.832c-.255-.363-.383-.805-.383-1.328 0-.533.127-.971.383-1.312a2.267 2.267 0 0 1 1.056-.784c.448-.181.95-.272 1.504-.272h2.64v-.576c0-.555-.165-.992-.495-1.312-.32-.32-.8-.48-1.44-.48-.63 0-1.12.155-1.473.464-.352.299-.592.704-.72 1.216l-1.184-.384c.128-.437.331-.832.608-1.184a2.892 2.892 0 0 1 1.105-.864c.469-.224 1.029-.336 1.68-.336 1.002 0 1.78.261 2.335.784.555.512.832 1.237.832 2.176v3.536c0 .32.15.48.448.48h.72V293h-1.104c-.352 0-.634-.096-.848-.288-.213-.203-.32-.469-.32-.8v-.08h-.192a3.824 3.824 0 0 1-.48.64c-.192.213-.458.389-.8.528-.34.149-.784.224-1.328.224zm.143-1.088c.747 0 1.35-.219 1.809-.656.469-.448.703-1.072.703-1.872v-.176h-2.591c-.502 0-.918.112-1.248.336-.32.213-.48.539-.48.976 0 .437.165.779.495 1.024.342.245.78.368 1.312.368zm6.66.864v-7.824h1.232v.96h.224c.138-.341.352-.592.64-.752.288-.16.666-.24 1.136-.24h.928v1.152h-1.008c-.566 0-1.024.16-1.376.48-.342.309-.512.795-.512 1.456V293h-1.264zm10.14 0v-7.824h1.264V293h-1.264zm.64-9.04a.989.989 0 0 1-.704-.272.933.933 0 0 1-.272-.688c0-.288.091-.523.272-.704a.989.989 0 0 1 .704-.272c.278 0 .507.091.688.272.182.181.272.416.272.704 0 .277-.09.507-.272.688a.934.934 0 0 1-.688.272zm6.162 9.04c-.448 0-.794-.123-1.04-.368-.235-.245-.352-.581-.352-1.008v-5.344h-2.352v-1.104h2.352v-2.784h1.264v2.784h2.56v1.104h-2.56v5.152c0 .32.155.48.464.48h1.744V293h-2.08zm9.677 0-1.568-7.824h1.28l1.296 6.976h.224l1.712-6.976h2.096l1.712 6.976h.224l1.296-6.976h1.28L106.467 293h-2.16l-1.728-6.976h-.208L100.643 293h-2.16zm15.184.224c-.789 0-1.488-.165-2.096-.496a3.616 3.616 0 0 1-1.408-1.392c-.33-.608-.496-1.323-.496-2.144v-.208c0-.811.166-1.52.496-2.128a3.584 3.584 0 0 1 1.408-1.408c.608-.331 1.307-.496 2.096-.496.79 0 1.483.165 2.08.496.608.331 1.078.8 1.408 1.408.342.608.512 1.317.512 2.128v.208c0 .821-.17 1.536-.512 2.144a3.47 3.47 0 0 1-1.408 1.392c-.597.331-1.29.496-2.08.496zm0-1.136c.832 0 1.494-.261 1.984-.784.502-.533.752-1.248.752-2.144v-.144c0-.896-.25-1.605-.752-2.128-.49-.533-1.152-.8-1.984-.8-.821 0-1.482.267-1.984.8-.501.523-.752 1.232-.752 2.128v.144c0 .896.251 1.611.752 2.144.502.523 1.163.784 1.984.784zm9.267 1.056a3.397 3.397 0 0 1-1.568-.368 2.738 2.738 0 0 1-1.12-1.088c-.267-.491-.4-1.083-.4-1.776v-4.736h1.264v4.64c0 .779.192 1.344.576 1.696.394.352.922.528 1.584.528.746 0 1.36-.245 1.84-.736s.72-1.221.72-2.192v-3.936h1.264V293h-1.232v-1.328h-.224c-.171.373-.464.715-.88 1.024-.416.299-1.024.448-1.824.448zm6.805-.144v-11.2h1.264V293h-1.264zm7.234.224c-.672 0-1.291-.16-1.856-.48a3.443 3.443 0 0 1-1.344-1.392c-.331-.608-.496-1.328-.496-2.16v-.208c0-.832.165-1.547.496-2.144.33-.608.773-1.072 1.328-1.392a3.635 3.635 0 0 1 1.872-.496c.544 0 1.002.075 1.376.224.384.139.693.32.928.544.234.213.416.443.544.688h.224V281.8h1.264V293h-1.232v-1.296h-.224c-.214.395-.544.747-.992 1.056-.448.309-1.078.464-1.888.464zm.336-1.12c.81 0 1.466-.256 1.968-.768.512-.523.768-1.248.768-2.176v-.144c0-.928-.256-1.648-.768-2.16-.502-.523-1.158-.784-1.968-.784-.8 0-1.462.261-1.984.784-.512.512-.768 1.232-.768 2.16v.144c0 .928.256 1.653.768 2.176.522.512 1.184.768 1.984.768zm10.758.896v-7.824h1.264V293h-1.264zm.64-9.04a.987.987 0 0 1-.704-.272.93.93 0 0 1-.272-.688c0-.288.09-.523.272-.704a.987.987 0 0 1 .704-.272c.277 0 .506.091.688.272.181.181.272.416.272.704a.934.934 0 0 1-.272.688.935.935 0 0 1-.688.272zm3.282 9.04v-7.824h1.232v.976h.224c.149-.277.394-.533.736-.768.341-.235.821-.352 1.44-.352.608 0 1.098.133 1.472.4.384.267.661.592.832.976h.224c.181-.384.453-.709.816-.976.373-.267.89-.4 1.552-.4.522 0 .981.107 1.376.32.394.213.704.523.928.928.234.395.352.869.352 1.424V293h-1.264v-5.184c0-.523-.155-.933-.464-1.232-.299-.309-.72-.464-1.264-.464-.576 0-1.051.187-1.424.56-.363.373-.544.912-.544 1.616V293h-1.264v-5.184c0-.523-.155-.933-.464-1.232-.299-.309-.72-.464-1.264-.464-.576 0-1.051.187-1.424.56-.363.373-.544.912-.544 1.616V293h-1.264zm13.765 3.2v-11.024h1.232v1.296h.224c.203-.395.528-.747.976-1.056.459-.309 1.094-.464 1.904-.464.672 0 1.286.165 1.84.496a3.47 3.47 0 0 1 1.344 1.376c.342.597.512 1.317.512 2.16v.208c0 .832-.165 1.552-.496 2.16a3.443 3.443 0 0 1-1.344 1.392c-.554.32-1.173.48-1.856.48-.544 0-1.008-.075-1.392-.224a2.636 2.636 0 0 1-.912-.544 2.86 2.86 0 0 1-.544-.688h-.224v4.432h-1.264zm4-4.096c.811 0 1.467-.256 1.968-.768.512-.523.768-1.248.768-2.176v-.144c0-.928-.256-1.648-.768-2.16-.501-.523-1.157-.784-1.968-.784-.8 0-1.461.261-1.984.784-.512.512-.768 1.232-.768 2.16v.144c0 .928.256 1.653.768 2.176.523.512 1.184.768 1.984.768zm8.697 1.12a3.74 3.74 0 0 1-1.488-.288 2.426 2.426 0 0 1-1.056-.832c-.256-.363-.384-.805-.384-1.328 0-.533.128-.971.384-1.312a2.267 2.267 0 0 1 1.056-.784c.448-.181.95-.272 1.504-.272h2.64v-.576c0-.555-.165-.992-.496-1.312-.32-.32-.8-.48-1.44-.48-.629 0-1.12.155-1.472.464-.352.299-.592.704-.72 1.216l-1.184-.384c.128-.437.331-.832.608-1.184a2.901 2.901 0 0 1 1.104-.864c.47-.224 1.03-.336 1.68-.336 1.003 0 1.782.261 2.336.784.555.512.832 1.237.832 2.176v3.536c0 .32.15.48.448.48h.72V293h-1.104c-.352 0-.634-.096-.848-.288-.213-.203-.32-.469-.32-.8v-.08h-.192a3.791 3.791 0 0 1-.48.64c-.192.213-.458.389-.8.528-.341.149-.784.224-1.328.224zm.144-1.088c.747 0 1.35-.219 1.808-.656.47-.448.704-1.072.704-1.872v-.176h-2.592c-.501 0-.917.112-1.248.336-.32.213-.48.539-.48.976 0 .437.166.779.496 1.024.342.245.779.368 1.312.368zm10.041 1.088c-.758 0-1.44-.16-2.048-.48a3.683 3.683 0 0 1-1.424-1.408c-.342-.608-.512-1.328-.512-2.16V289c0-.843.17-1.563.512-2.16a3.568 3.568 0 0 1 1.424-1.392c.608-.331 1.29-.496 2.048-.496.746 0 1.381.139 1.904.416a3.23 3.23 0 0 1 1.248 1.104c.309.459.506.949.592 1.472l-1.232.256a2.645 2.645 0 0 0-.384-1.056 2.1 2.1 0 0 0-.816-.768c-.352-.192-.784-.288-1.296-.288-.523 0-.992.117-1.408.352a2.609 2.609 0 0 0-.976 1.008c-.235.437-.352.96-.352 1.568v.144c0 .608.117 1.131.352 1.568.245.437.57.773.976 1.008.416.235.885.352 1.408.352.778 0 1.37-.203 1.776-.608.416-.405.672-.907.768-1.504l1.248.272a4.334 4.334 0 0 1-.64 1.456 3.36 3.36 0 0 1-1.264 1.104c-.523.277-1.158.416-1.904.416zm8.514-.224c-.448 0-.795-.123-1.04-.368-.235-.245-.352-.581-.352-1.008v-5.344h-2.352v-1.104h2.352v-2.784h1.264v2.784h2.56v1.104h-2.56v5.152c0 .32.155.48.464.48h1.744V293h-2.08zm11.469 0c-.448 0-.795-.123-1.04-.368-.235-.245-.352-.581-.352-1.008v-5.344h-2.352v-1.104h2.352v-2.784h1.264v2.784h2.56v1.104h-2.56v5.152c0 .32.154.48.464.48h1.744V293h-2.08zm4.479 0v-11.2h1.264v4.624h.224c.107-.235.267-.453.48-.656.224-.213.507-.389.848-.528.352-.139.795-.208 1.328-.208.587 0 1.109.128 1.568.384.469.245.843.608 1.12 1.088.277.469.416 1.056.416 1.76V293h-1.264v-4.64c0-.779-.197-1.344-.592-1.696-.384-.352-.907-.528-1.568-.528-.757 0-1.376.245-1.856.736-.469.491-.704 1.221-.704 2.192V293h-1.264zm13.397.224c-.79 0-1.483-.165-2.08-.496a3.565 3.565 0 0 1-1.392-1.424c-.331-.608-.496-1.312-.496-2.112V289c0-.811.165-1.52.496-2.128a3.494 3.494 0 0 1 1.376-1.408c.586-.341 1.258-.512 2.016-.512.736 0 1.386.16 1.952.48a3.288 3.288 0 0 1 1.328 1.344c.32.587.48 1.275.48 2.064v.576h-6.384c.032.843.304 1.504.816 1.984.512.469 1.152.704 1.92.704.672 0 1.189-.155 1.552-.464a3.12 3.12 0 0 0 .832-1.104l1.088.528c-.16.331-.384.661-.672.992-.278.331-.646.608-1.104.832-.448.224-1.024.336-1.728.336zm-2.688-4.848h5.088c-.043-.725-.294-1.291-.752-1.696-.448-.405-1.024-.608-1.728-.608-.715 0-1.302.203-1.76.608-.459.405-.742.971-.848 1.696zm8.572 4.624v-7.824h1.264V293h-1.264zm.64-9.04a.99.99 0 0 1-.704-.272.934.934 0 0 1-.272-.688c0-.288.091-.523.272-.704a.99.99 0 0 1 .704-.272c.278 0 .507.091.688.272.182.181.272.416.272.704a.93.93 0 0 1-.96.96zm3.282 9.04v-7.824h1.232v.96h.224c.139-.341.352-.592.64-.752.288-.16.667-.24 1.136-.24h.928v1.152h-1.008c-.565 0-1.024.16-1.376.48-.341.309-.512.795-.512 1.456V293h-1.264zm-117.165 24.224c-.758 0-1.44-.16-2.048-.48a3.683 3.683 0 0 1-1.424-1.408c-.342-.608-.512-1.328-.512-2.16V313c0-.843.17-1.563.512-2.16a3.568 3.568 0 0 1 1.424-1.392c.608-.331 1.29-.496 2.048-.496.746 0 1.381.139 1.904.416a3.23 3.23 0 0 1 1.248 1.104c.309.459.506.949.592 1.472l-1.232.256a2.645 2.645 0 0 0-.384-1.056 2.1 2.1 0 0 0-.816-.768c-.352-.192-.784-.288-1.296-.288-.523 0-.992.117-1.408.352a2.609 2.609 0 0 0-.976 1.008c-.235.437-.352.96-.352 1.568v.144c0 .608.117 1.131.352 1.568.245.437.57.773.976 1.008.416.235.885.352 1.408.352.778 0 1.37-.203 1.776-.608.416-.405.672-.907.768-1.504l1.248.272a4.334 4.334 0 0 1-.64 1.456 3.36 3.36 0 0 1-1.264 1.104c-.523.277-1.158.416-1.904.416zm8.362 0a3.74 3.74 0 0 1-1.488-.288 2.426 2.426 0 0 1-1.056-.832c-.256-.363-.384-.805-.384-1.328 0-.533.128-.971.384-1.312a2.267 2.267 0 0 1 1.056-.784 3.982 3.982 0 0 1 1.504-.272h2.64v-.576c0-.555-.165-.992-.496-1.312-.32-.32-.8-.48-1.44-.48-.629 0-1.12.155-1.472.464-.352.299-.592.704-.72 1.216l-1.184-.384c.128-.437.331-.832.608-1.184a2.886 2.886 0 0 1 1.104-.864c.469-.224 1.029-.336 1.68-.336 1.003 0 1.781.261 2.336.784.555.512.832 1.237.832 2.176v3.536c0 .32.149.48.448.48h.72V317h-1.104c-.352 0-.635-.096-.848-.288-.213-.203-.32-.469-.32-.8v-.08h-.192a3.791 3.791 0 0 1-.48.64c-.192.213-.459.389-.8.528-.341.149-.784.224-1.328.224zm.144-1.088c.747 0 1.349-.219 1.808-.656.469-.448.704-1.072.704-1.872v-.176h-2.592c-.501 0-.917.112-1.248.336-.32.213-.48.539-.48.976 0 .437.165.779.496 1.024.341.245.779.368 1.312.368zm6.659.864v-7.824h1.232v.96h.224c.139-.341.352-.592.64-.752.288-.16.667-.24 1.136-.24h.928v1.152h-1.008c-.565 0-1.024.16-1.376.48-.341.309-.512.795-.512 1.456V317h-1.264zm9.334.224c-.789 0-1.482-.165-2.08-.496a3.578 3.578 0 0 1-1.392-1.424c-.33-.608-.496-1.312-.496-2.112V313c0-.811.166-1.52.496-2.128a3.507 3.507 0 0 1 1.376-1.408c.587-.341 1.259-.512 2.016-.512.736 0 1.387.16 1.952.48a3.282 3.282 0 0 1 1.328 1.344c.32.587.48 1.275.48 2.064v.576h-6.384c.032.843.304 1.504.816 1.984.512.469 1.152.704 1.92.704.672 0 1.19-.155 1.552-.464.363-.309.64-.677.832-1.104l1.088.528c-.16.331-.384.661-.672.992-.277.331-.645.608-1.104.832-.448.224-1.024.336-1.728.336zm-2.688-4.848h5.088c-.042-.725-.293-1.291-.752-1.696-.448-.405-1.024-.608-1.728-.608-.714 0-1.301.203-1.76.608-.458.405-.741.971-.848 1.696zm12.157 4.848c-.789 0-1.483-.165-2.08-.496a3.578 3.578 0 0 1-1.392-1.424c-.331-.608-.496-1.312-.496-2.112V313c0-.811.165-1.52.496-2.128a3.5 3.5 0 0 1 1.376-1.408c.587-.341 1.259-.512 2.016-.512.736 0 1.387.16 1.952.48a3.288 3.288 0 0 1 1.328 1.344c.32.587.48 1.275.48 2.064v.576H150.4c.032.843.304 1.504.816 1.984.512.469 1.152.704 1.92.704.672 0 1.189-.155 1.552-.464.363-.309.64-.677.832-1.104l1.088.528c-.16.331-.384.661-.672.992-.277.331-.645.608-1.104.832-.448.224-1.024.336-1.728.336zm-2.688-4.848h5.088c-.043-.725-.293-1.291-.752-1.696-.448-.405-1.024-.608-1.728-.608-.715 0-1.301.203-1.76.608-.459.405-.741.971-.848 1.696zm8.573 4.624v-7.824h1.232v.96h.224c.138-.341.352-.592.64-.752.288-.16.666-.24 1.136-.24h.928v1.152h-1.008c-.566 0-1.024.16-1.376.48-.342.309-.512.795-.512 1.456V317h-1.264zm9.027.224c-.971 0-1.792-.224-2.464-.672-.662-.448-1.062-1.157-1.2-2.128l1.2-.272c.085.512.245.917.48 1.216.234.288.522.496.864.624.352.117.725.176 1.12.176.586 0 1.05-.117 1.392-.352.341-.235.512-.549.512-.944 0-.405-.166-.688-.496-.848-.32-.171-.763-.309-1.328-.416l-.656-.112a5.908 5.908 0 0 1-1.376-.4 2.52 2.52 0 0 1-.992-.736c-.246-.309-.368-.699-.368-1.168 0-.704.272-1.253.816-1.648.544-.395 1.264-.592 2.16-.592.885 0 1.6.203 2.144.608.554.395.912.955 1.072 1.68l-1.184.304c-.096-.565-.326-.96-.688-1.184-.363-.235-.811-.352-1.344-.352-.534 0-.955.101-1.264.304-.31.192-.464.48-.464.864 0 .373.144.651.432.832.298.171.693.299 1.184.384l.656.112c.554.096 1.05.229 1.488.4.448.16.8.395 1.056.704.266.309.4.715.4 1.216 0 .768-.288 1.36-.864 1.776-.566.416-1.328.624-2.288.624z" fill="#fff"/></svg>