<svg width="320" height="320" viewBox="0 0 320 320" fill="none" xmlns="http://www.w3.org/2000/svg">
<g clip-path="url(#clip0_888_929)">
<path d="M227.281 137.008V130.714C227.281 95.0522 208.661 70.9219 175.091 65.4196V37.3574H143.624V65.4196C108.22 71.4463 88.2969 98.7234 88.2969 139.106V180.018C88.2969 223.029 109.278 248.202 143.633 253.71V281.778H175.1V253.971C210.244 248.463 227.289 224.077 227.289 188.409V182.116H192.664V186.836C192.664 203.094 187.941 215.423 175.091 220.667V98.7233C186.892 104.229 192.664 116.297 192.664 132.288V137.008H227.281ZM122.907 182.637V136.483C122.907 119.443 129.722 104.753 143.624 98.4596V220.931C129.201 215.423 122.907 201.52 122.907 182.64" fill="white"/>
</g>
<defs>
<clipPath id="clip0_888_929">
<rect width="320" height="320" fill="white"/>
</clipPath>
</defs>
</svg>
