<svg width="320" height="320" viewBox="0 0 320 320" fill="none" xmlns="http://www.w3.org/2000/svg">
<g clip-path="url(#clip0_888_930)">
<path d="M197.333 164.947V160.76C197.333 130.043 182.672 111.196 159.999 111.196C137.327 111.196 123.35 130.043 123.35 160.76V164.947C123.35 195.661 137.312 214.52 159.999 214.52C182.687 214.52 197.333 195.673 197.333 164.959V164.947ZM5.37695 164.251V155.871C5.37695 60.2358 64.7162 0.890625 161.048 0.890625H168.725C256.331 0.890625 314.618 59.5277 314.618 146.787V172.615C314.618 221.477 294.728 250.1 254.586 250.1H234.346C212.355 250.1 200.488 240.674 200.488 225.67V224.98H194.204C188.278 239.99 176.405 252.206 150.924 252.206C106.944 252.206 80.0673 213.812 80.0673 165.646V160.064C80.0673 111.196 106.248 73.501 147.433 73.501C173.261 73.501 183.733 84.3188 191.063 96.541H197.333V75.5928H239.928V199.148C239.928 207.178 242.719 211.021 250.746 211.021H252.147C265.759 211.021 271.344 198.105 271.344 172.624V147.495C271.344 81.181 237.487 40.6921 167.344 40.6921H162.441C91.9221 40.6921 48.6629 81.181 48.6629 157.27V162.852C48.6629 238.944 92.6421 280.126 168.035 280.126H240.627V319.919H165.235C65.4095 319.919 5.37695 259.886 5.37695 164.251Z" fill="white"/>
</g>
<defs>
<clipPath id="clip0_888_930">
<rect width="320" height="320" fill="white"/>
</clipPath>
</defs>
</svg>
