<svg width="320" height="320" viewBox="0 0 320 320" fill="none" xmlns="http://www.w3.org/2000/svg">
<g clip-path="url(#clip0_888_950)">
<path d="M123.692 61.4239C119.611 57.3302 114.762 54.0828 109.423 51.8679C104.084 49.653 98.3607 48.5143 92.5806 48.5173C68.308 48.5173 48.5628 68.2654 48.5628 92.538C48.5613 98.3187 49.6987 104.043 51.91 109.384C54.1214 114.725 57.3634 119.578 61.4508 123.666C65.5382 127.753 70.391 130.996 75.7318 133.207C81.0727 135.419 86.797 136.557 92.5776 136.556H136.592V92.538C136.596 86.7578 135.457 81.0339 133.243 75.695C131.028 70.356 127.78 65.5072 123.686 61.4269L123.692 61.4239ZM28.9421 156.174C16.3557 143.588 7.78417 127.553 4.31147 110.096C0.838774 92.6385 2.62091 74.5435 9.43249 58.0993C16.2441 41.655 27.7791 27.6 42.5789 17.7117C57.3787 7.8234 74.7784 2.54599 92.5776 2.54688C142.201 2.54688 182.572 42.9113 182.575 92.538V182.52H92.5776C80.7539 182.55 69.0416 180.235 58.1186 175.709C47.1956 171.182 37.2788 164.534 28.9421 156.15" fill="white"/>
<path d="M183.406 183.357V227.378C183.502 238.99 188.181 250.094 196.426 258.271C204.671 266.449 215.813 271.037 227.426 271.037C239.038 271.037 250.18 266.449 258.425 258.271C266.67 250.094 271.35 238.99 271.445 227.378C271.445 203.105 251.697 183.357 227.424 183.357H183.406ZM163.783 291.013C155.398 282.677 148.75 272.76 144.223 261.837C139.697 250.914 137.382 239.202 137.412 227.378V137.387H227.406C277.03 137.387 317.398 177.76 317.404 227.384C317.402 245.181 312.123 262.579 302.235 277.376C292.346 292.174 278.292 303.707 261.85 310.518C245.407 317.328 227.314 319.11 209.858 315.639C192.402 312.167 176.368 303.597 163.783 291.013Z" fill="white"/>
</g>
<defs>
<clipPath id="clip0_888_950">
<rect width="320" height="320" fill="white"/>
</clipPath>
</defs>
</svg>
