<svg width="320" height="320" viewBox="0 0 320 320" fill="none" xmlns="http://www.w3.org/2000/svg">
<g clip-path="url(#clip0_888_971)">
<path d="M143.704 176.257L142.359 202.551L160.006 182.995L177.642 202.551L176.296 176.257L202.593 177.6L183.037 159.958L202.593 142.317L176.296 143.659L177.639 117.365L160 136.906L142.353 117.365L143.704 143.659L117.413 142.317L136.951 159.958L117.396 177.6L143.704 176.257ZM215.973 295.111L160 233.093L104.024 295.111L108.285 211.674L24.8653 215.934L86.8623 159.958L24.8594 103.982L108.285 108.243L104.024 24.8203L160 86.8144L215.973 24.8203L211.713 108.243L295.135 103.982L233.132 159.958L295.135 215.934L211.713 211.674L215.973 295.111Z" fill="white"/>
</g>
<defs>
<clipPath id="clip0_888_971">
<rect width="320" height="320" fill="white"/>
</clipPath>
</defs>
</svg>
