
<svg width="1080" height="1080" viewBox="0 0 1080 1080" xmlns="http://www.w3.org/2000/svg" xmlns:xlink="http://www.w3.org/1999/xlink">
    <path id="path1" fill="none" stroke="#ffffff" stroke-width="69"  d="M 481.76001 223.900024 C 481.76001 223.900024 220.890015 223.900024 220.890015 223.900024 C 220.890015 223.900024 220.890015 484.780029 220.890015 484.780029 M 850.75 592.900024 L 850.75 853.77002 L 589.880005 853.77002 M 841 845 L 678 684 M 850.720032 484.780029 L 850.720032 223.900024 L 589.880005 223.900024 M 481.76001 853.77002 L 220.890015 853.77002 L 220.890015 592.900024 M 398 677 C 398 677 214.669678 858.923462 232 843"/>
    <path id="path2" fill="none" stroke="#ffffff" stroke-width="69"  d="M 590.23999 854.099976 C 590.23999 854.099976 851.109985 854.099976 851.109985 854.099976 C 851.109985 854.099976 851.109985 593.219971 851.109985 593.219971 M 221.25 485.099976 L 221.25 224.22998 L 482.119995 224.22998 M 231 233 L 394 394 M 221.279968 593.219971 L 221.279968 854.099976 L 482.119995 854.099976 M 590.23999 224.22998 L 851.109985 224.22998 L 851.109985 485.099976 M 674 401 C 674 401 857.330322 219.076538 840 235"/>
</svg>
