<svg width="320" height="320" viewBox="0 0 320 320" fill="none" xmlns="http://www.w3.org/2000/svg">
<g clip-path="url(#clip0_888_974)">
<path d="M215.431 137.563C215.431 133.704 214.095 130.444 211.425 127.786C208.754 125.127 205.495 123.794 201.647 123.786C199.843 123.764 198.054 124.107 196.387 124.795C194.719 125.482 193.208 126.499 191.943 127.786C190.622 129.043 189.576 130.562 188.872 132.245C188.168 133.928 187.822 135.739 187.854 137.563C187.854 141.317 189.217 144.551 191.943 147.267C194.669 149.983 197.904 151.346 201.647 151.356C203.471 151.388 205.282 151.042 206.965 150.338C208.648 149.634 210.167 148.588 211.425 147.267C212.711 146.002 213.728 144.491 214.416 142.823C215.105 141.156 215.45 139.367 215.431 137.563ZM110.02 194.962C115.697 205.743 122.678 213.97 130.962 219.643C139.247 225.317 148.955 228.151 160.085 228.147C171.094 228.147 180.773 225.311 189.122 219.638C197.472 213.964 204.484 205.733 210.159 194.944L199.434 188.814C190.572 205.159 177.456 213.332 160.085 213.332C142.715 213.332 129.55 205.161 120.592 188.82L110.02 194.962ZM132.148 137.563C132.148 133.704 130.814 130.444 128.148 127.786C125.481 125.127 122.222 123.794 118.37 123.786C116.565 123.764 114.775 124.107 113.107 124.795C111.438 125.482 109.926 126.499 108.66 127.786C107.34 129.044 106.296 130.563 105.593 132.246C104.89 133.929 104.544 135.74 104.577 137.563C104.577 141.317 105.938 144.551 108.66 147.267C111.382 149.983 114.619 151.346 118.37 151.356C120.194 151.389 122.005 151.042 123.688 150.338C125.371 149.634 126.89 148.588 128.148 147.267C129.434 146.003 130.451 144.491 131.139 142.824C131.826 141.156 132.169 139.367 132.148 137.563ZM268.554 160.04C268.554 190.014 257.967 215.585 236.794 236.755C215.62 257.924 190.051 268.511 160.085 268.515C130.112 268.515 104.511 257.928 83.2824 236.755C62.0538 215.581 51.4395 190.01 51.4395 160.04C51.4395 129.958 62.0538 104.33 83.2824 83.1545C104.511 61.9792 130.112 51.3926 160.085 51.3945C190.057 51.3945 215.628 61.9812 236.799 83.1545C257.971 104.328 268.557 129.957 268.559 160.04" fill="white"/>
</g>
<defs>
<clipPath id="clip0_888_974">
<rect width="320" height="320" fill="white"/>
</clipPath>
</defs>
</svg>
