<svg width="320" height="320" viewBox="0 0 320 320" fill="none" xmlns="http://www.w3.org/2000/svg">
<g clip-path="url(#clip0_888_977)">
<path d="M163.704 69.9772C151.397 69.9443 139.205 72.3522 127.835 77.0618C116.465 81.7713 106.141 88.6889 97.4612 97.4143C60.9398 133.942 60.9398 193.376 97.4612 229.9C115.031 247.468 138.859 257.337 163.704 257.337C188.55 257.337 212.378 247.468 229.947 229.9C266.469 193.376 266.469 133.942 229.947 97.4143C221.267 88.6891 210.944 81.7717 199.573 77.0622C188.203 72.3527 176.011 69.9446 163.704 69.9772ZM163.704 291.225C129.63 291.225 97.5916 277.954 73.4998 253.859C23.7605 204.119 23.7605 123.192 73.4998 73.4587C97.5916 49.3639 129.627 36.0898 163.704 36.0898C197.781 36.0898 229.814 49.3639 253.909 73.4587C303.645 123.195 303.645 204.125 253.909 253.859C229.814 277.954 197.778 291.225 163.704 291.225Z" fill="white"/>
<path d="M163.704 121.529C155.368 121.525 147.219 123.994 140.287 128.623C133.356 133.252 127.953 139.834 124.762 147.534C121.571 155.235 120.736 163.708 122.363 171.884C123.989 180.059 128.004 187.568 133.899 193.461C150.332 209.893 177.076 209.896 193.511 193.461C199.409 187.569 203.427 180.059 205.055 171.883C206.683 163.706 205.848 155.231 202.657 147.529C199.465 139.827 194.06 133.245 187.126 128.617C180.192 123.989 172.041 121.522 163.704 121.529ZM163.704 234.646C149.659 234.651 135.927 230.49 124.247 222.69C112.568 214.889 103.463 203.8 98.0872 190.825C92.7109 177.849 91.3039 163.571 94.0441 149.795C96.7844 136.02 103.549 123.367 113.482 113.437C141.176 85.745 186.231 85.745 213.926 113.437C223.863 123.365 230.631 136.019 233.374 149.795C236.117 163.572 234.711 177.853 229.334 190.83C223.957 203.807 214.85 214.897 203.168 222.697C191.485 230.497 177.751 234.655 163.704 234.646Z" fill="white"/>
<path d="M163.711 156.963C162.163 156.966 160.663 157.504 159.468 158.488C158.272 159.472 157.455 160.84 157.154 162.359C156.854 163.878 157.09 165.453 157.821 166.818C158.552 168.183 159.734 169.252 161.165 169.843C162.596 170.434 164.187 170.511 165.669 170.06C167.15 169.61 168.429 168.659 169.288 167.372C170.148 166.084 170.534 164.538 170.381 162.997C170.229 161.456 169.547 160.016 168.452 158.922C167.829 158.299 167.09 157.805 166.277 157.469C165.463 157.133 164.591 156.961 163.711 156.963ZM163.711 188.563C157.949 188.559 152.367 186.557 147.915 182.899C143.464 179.241 140.418 174.152 139.298 168.5C138.177 162.848 139.051 156.983 141.77 151.903C144.489 146.823 148.885 142.843 154.21 140.641C159.534 138.439 165.458 138.151 170.971 139.826C176.484 141.501 181.245 145.036 184.444 149.828C187.643 154.621 189.082 160.374 188.515 166.108C187.948 171.842 185.41 177.202 181.335 181.274C179.023 183.59 176.278 185.426 173.255 186.677C170.232 187.928 166.991 188.569 163.72 188.563" fill="white"/>
</g>
<defs>
<clipPath id="clip0_888_977">
<rect width="320" height="320" fill="white"/>
</clipPath>
</defs>
</svg>
