<svg width="320" height="320" viewBox="0 0 320 320" fill="none" xmlns="http://www.w3.org/2000/svg">
<g clip-path="url(#clip0_888_1083)">
<path d="M123.746 221.333C107.462 221.333 91.8449 214.864 80.3304 203.35C68.816 191.835 62.3472 176.218 62.3472 159.934C62.3472 143.65 68.816 128.033 80.3304 116.519C91.8449 105.005 107.462 98.5358 123.746 98.5358C128.47 98.5411 133.179 99.0889 137.778 100.168C144.281 93.7836 151.788 88.5104 160.001 84.5595C128.889 69.6291 90.3709 75.0365 64.6109 100.799C50.9533 114.492 42.4602 132.493 40.576 151.74C38.6917 170.987 43.5327 190.293 54.2756 206.374C65.0185 222.456 81 234.319 99.5023 239.948C118.005 245.576 137.885 244.622 155.764 237.247C157.198 236.654 158.61 236.021 160.001 235.348C151.8 231.377 144.3 226.099 137.793 219.721C133.189 220.799 128.475 221.34 123.746 221.333Z" fill="white"/>
<path d="M185.132 159.935C185.143 146.091 180.469 132.65 171.872 121.799C163.274 110.948 151.258 103.325 137.778 100.169C137.571 100.38 137.34 100.593 137.129 100.8C121.453 116.487 112.646 137.756 112.646 159.934C112.646 182.111 121.453 203.38 137.129 219.067C137.361 219.301 137.571 219.508 137.802 219.719C151.279 216.555 163.289 208.926 171.882 198.072C180.475 187.219 185.145 173.778 185.132 159.935ZM255.408 100.8C229.63 75.0373 191.112 69.621 160.001 84.5573C168.487 88.6434 176.222 94.1352 182.878 100.8C215.491 133.411 215.491 186.454 182.878 219.067C176.221 225.74 168.487 231.245 160.001 235.348C177.802 243.9 198.055 245.879 217.176 240.934C236.296 235.989 253.05 224.44 264.474 208.329C275.898 192.219 281.254 172.587 279.595 152.908C277.935 133.228 269.368 114.77 255.408 100.8Z" fill="white"/>
</g>
<defs>
<clipPath id="clip0_888_1083">
<rect width="320" height="320" fill="white"/>
</clipPath>
</defs>
</svg>
