<svg width="320" height="320" viewBox="0 0 320 320" fill="none" xmlns="http://www.w3.org/2000/svg">
<g clip-path="url(#clip0_888_1085)">
<path d="M172.617 64.8594C182.604 64.8594 191.628 65.9112 199.69 68.0149C207.338 69.8044 214.813 72.2664 222.027 75.372L210.202 104.806C204.177 102.554 198.036 100.625 191.805 99.0283C186.158 97.4431 180.319 96.6455 174.454 96.6579C168.331 96.6579 163.425 98.3221 159.737 101.65C156.235 104.811 154.484 110.506 154.484 118.735V133.188H200.475V155.793H154.484V170.51H200.475V193.378H154.22C154.22 197.931 152.818 202.925 150.016 208.359C147.213 213.793 142.218 218.261 135.032 221.763H227.281V255.138H92.7207V223.336C101.13 220.362 107.087 216.245 110.593 210.987C114.037 205.761 115.866 199.637 115.853 193.378H92.9844V170.51H115.853V155.793H92.9844V133.191H115.853V118.474C115.853 105.504 118.306 95.1665 123.213 87.4609C127.937 79.7306 135.036 73.7371 143.45 70.3764C152.036 66.6964 161.761 64.8574 172.623 64.8594" fill="white"/>
</g>
<defs>
<clipPath id="clip0_888_1085">
<rect width="320" height="320" fill="white"/>
</clipPath>
</defs>
</svg>
