<svg width="320" height="320" viewBox="0 0 320 320" fill="none" xmlns="http://www.w3.org/2000/svg">
<g clip-path="url(#clip0_888_1084)">
<path d="M237.63 137.519V131.258C237.63 90.485 213.334 64.8672 169.669 64.8672C129.941 64.8672 105.106 87.8687 100.14 124.989H82.3711V152.171H99.1V165.241H82.3711V192.426H99.6244C103.805 233.463 129.944 255.161 169.672 255.161C215.408 255.146 237.63 229.267 237.63 188.74V182.479H203.13V187.184C203.13 208.876 194.501 223.774 169.672 223.774C147.716 223.774 136.738 211.756 134.116 192.411H169.672V165.226H133.601V152.156H169.672V124.974H134.91C138.309 108.242 149.808 96.2331 169.672 96.2331C192.155 96.2331 203.13 110.867 203.13 132.826V137.531L237.63 137.519Z" fill="white"/>
</g>
<defs>
<clipPath id="clip0_888_1084">
<rect width="320" height="320" fill="white"/>
</clipPath>
</defs>
</svg>
