<svg width="320" height="320" viewBox="0 0 320 320" fill="none" xmlns="http://www.w3.org/2000/svg">
<g clip-path="url(#clip0_888_1086)">
<path d="M163.072 157.628C119.875 157.628 84.8496 122.612 84.8496 79.4058C84.8496 36.1999 119.869 1.18359 163.072 1.18359" fill="white"/>
<path d="M163.072 157.629C206.266 157.629 241.294 192.648 241.294 235.851C241.294 279.054 206.275 314.073 163.072 314.073" fill="white"/>
<path d="M164.589 157.629C164.589 200.823 129.573 235.851 86.3668 235.851C43.1608 235.851 8.14453 200.829 8.14453 157.629" fill="white"/>
<path d="M163.072 157.628C163.072 114.434 198.086 79.4062 241.294 79.4062C284.503 79.4062 319.517 114.428 319.517 157.628" fill="white"/>
</g>
<defs>
<clipPath id="clip0_888_1086">
<rect width="320" height="320" fill="white"/>
</clipPath>
</defs>
</svg>
