<svg width="320" height="320" viewBox="0 0 320 320" fill="none" xmlns="http://www.w3.org/2000/svg">
<g clip-path="url(#clip0_888_911)">
<path d="M253.004 233.932C238.329 233.932 227.203 223.769 219.938 203.731C215.834 192.418 212.732 178.154 209.73 164.359C208.815 160.154 207.71 155.061 206.498 149.899C205.283 155.061 204.175 160.154 203.262 164.359C200.258 178.154 197.159 192.418 193.058 203.731C185.778 223.769 174.664 233.932 160 233.932C145.336 233.932 134.204 223.769 126.933 203.731C122.839 192.418 119.733 178.154 116.729 164.359C115.816 160.157 114.714 155.067 113.499 149.905C112.287 155.067 111.179 160.157 110.267 164.359C107.262 178.154 104.163 192.418 100.062 203.731C92.797 223.769 81.6741 233.932 66.9956 233.932C52.317 233.932 41.1852 223.769 33.92 203.725C29.8193 192.412 26.72 178.148 23.7037 164.353C21.2415 153.022 17.3659 135.203 13.837 127.043H0V86.0684H20.4889C35.1644 86.0684 46.2874 96.2313 53.5496 116.276C57.6504 127.582 60.7526 141.846 63.7541 155.642C64.6696 159.843 65.7748 164.934 66.9867 170.092C68.1985 164.934 69.3037 159.846 70.2193 155.648C73.2207 141.852 76.323 127.588 80.4237 116.276C87.7037 96.2313 98.8148 86.0684 113.481 86.0684C128.148 86.0684 139.28 96.2313 146.545 116.276C150.646 127.588 153.751 141.852 156.75 155.648C157.665 159.846 158.77 164.934 159.982 170.092C161.194 164.934 162.299 159.843 163.215 155.648C166.216 141.852 169.319 127.582 173.419 116.276C180.687 96.2313 191.81 86.0684 206.483 86.0684C221.156 86.0684 232.284 96.2313 239.55 116.276C243.656 127.582 246.756 141.852 249.76 155.648C250.673 159.846 251.784 164.948 252.996 170.11C254.204 164.948 255.319 159.846 256.231 155.648C259.233 141.852 262.335 127.582 266.436 116.276C273.704 96.2313 284.833 86.0684 299.505 86.0684H320V127.043H306.151C302.622 135.203 298.744 153.028 296.279 164.359C293.277 178.154 290.175 192.418 286.071 203.731C278.815 223.769 267.677 233.932 253.004 233.932Z" fill="white"/>
</g>
<defs>
<clipPath id="clip0_888_911">
<rect width="320" height="320" fill="white"/>
</clipPath>
</defs>
</svg>
