<svg width="320" height="320" viewBox="0 0 320 320" fill="none" xmlns="http://www.w3.org/2000/svg">
<g clip-path="url(#clip0_888_1141)">
<path d="M78.605 119.629C70.5648 119.629 62.7052 122.013 56.02 126.48C49.3349 130.947 44.1244 137.296 41.0476 144.724C37.9707 152.152 37.1657 160.326 38.7343 168.212C40.3028 176.097 44.1745 183.341 49.8598 189.026C55.5451 194.711 62.7885 198.583 70.6742 200.151C78.5599 201.72 86.7336 200.915 94.1618 197.838C101.59 194.761 107.939 189.551 112.406 182.866C116.873 176.181 119.257 168.321 119.257 160.281C119.256 149.499 114.973 139.16 107.349 131.536C99.7258 123.913 89.3863 119.63 78.605 119.629Z" fill="white"/>
<path d="M160.277 37.9258C152.237 37.9258 144.377 40.31 137.692 44.7769C131.007 49.2437 125.796 55.5927 122.719 63.0208C119.643 70.449 118.838 78.6227 120.406 86.5084C121.975 94.3941 125.846 101.638 131.532 107.323C137.217 113.008 144.46 116.88 152.346 118.448C160.232 120.017 168.405 119.212 175.834 116.135C183.262 113.058 189.611 107.848 194.078 101.163C198.545 94.4774 200.929 86.6178 200.929 78.5776C200.929 67.7961 196.646 57.4561 189.022 49.8324C181.398 42.2087 171.058 37.9258 160.277 37.9258Z" fill="white"/>
<path d="M159.728 200.754C151.688 200.754 143.828 203.138 137.143 207.605C130.458 212.072 125.247 218.421 122.171 225.849C119.094 233.277 118.289 241.451 119.857 249.337C121.426 257.222 125.298 264.466 130.983 270.151C136.668 275.836 143.912 279.708 151.797 281.276C159.683 282.845 167.857 282.04 175.285 278.963C182.713 275.886 189.062 270.676 193.529 263.991C197.996 257.306 200.38 249.446 200.38 241.406C200.379 230.624 196.096 220.285 188.472 212.661C180.849 205.038 170.509 200.755 159.728 200.754Z" fill="white"/>
<path d="M241.402 119.066C233.362 119.066 225.502 121.451 218.817 125.917C212.132 130.384 206.921 136.733 203.844 144.161C200.768 151.59 199.963 159.763 201.531 167.649C203.1 175.535 206.971 182.778 212.657 188.463C218.342 194.149 225.585 198.02 233.471 199.589C241.357 201.158 249.531 200.353 256.959 197.276C264.387 194.199 270.736 188.988 275.203 182.303C279.67 175.618 282.054 167.758 282.054 159.718C282.054 148.937 277.771 138.597 270.147 130.973C262.523 123.349 252.183 119.066 241.402 119.066Z" fill="white"/>
</g>
<defs>
<clipPath id="clip0_888_1141">
<rect width="320" height="320" fill="white"/>
</clipPath>
</defs>
</svg>
