<svg width="320" height="320" viewBox="0 0 320 320" fill="none" xmlns="http://www.w3.org/2000/svg">
<g clip-path="url(#clip0_888_1142)">
<path d="M160.27 154.999L125.254 31.8438H195.287L160.27 154.999Z" fill="white"/>
<path d="M156.548 156.232L44.6992 93.9058L94.2222 44.3828L156.548 156.232Z" fill="white"/>
<path d="M154.784 159.731L31.6289 194.75V124.715L154.784 159.731Z" fill="white"/>
<path d="M156.015 163.453L93.689 275.302L44.166 225.779L156.015 163.453Z" fill="white"/>
<path d="M159.514 165.215L194.534 288.37H124.498L159.514 165.215Z" fill="white"/>
<path d="M163.236 163.984L275.085 226.31L225.562 275.836L163.236 163.984Z" fill="white"/>
<path d="M164.998 160.485L288.154 125.469V195.501L164.998 160.485Z" fill="white"/>
<path d="M163.77 156.767L226.095 44.918L275.615 94.4409L163.77 156.767Z" fill="white"/>
</g>
<defs>
<clipPath id="clip0_888_1142">
<rect width="320" height="320" fill="white"/>
</clipPath>
</defs>
</svg>
