<svg width="320" height="320" viewBox="0 0 320 320" fill="none" xmlns="http://www.w3.org/2000/svg">
<g clip-path="url(#clip0_888_1146)">
<path d="M249.881 84.9648C228.147 63.2285 192.888 63.2285 171.149 84.9648C170.097 86.0137 169.146 87.1219 168.186 88.2241L160.085 96.3219L151.579 87.8152C150.627 86.707 149.673 85.5989 148.616 84.5559C126.891 62.8137 91.6467 62.8137 69.9015 84.5618C48.1563 106.31 48.1593 141.549 69.9015 163.294L158.222 251.154C158.737 251.67 159.436 251.959 160.165 251.959C160.894 251.959 161.593 251.67 162.109 251.154C162.109 251.154 248.829 164.74 249.881 163.697C271.62 141.957 271.62 106.71 249.881 84.9648Z" fill="white"/>
</g>
<defs>
<clipPath id="clip0_888_1146">
<rect width="320" height="320" fill="white"/>
</clipPath>
</defs>
</svg>
