<svg width="193" height="98" viewBox="0 0 193 98" fill="none" xmlns="http://www.w3.org/2000/svg">
<g clip-path="url(#clip0_181_1199)">
<rect width="193" height="98" fill="white"/>
<path d="M130.3 57.2003C130.3 65.4003 128.4 71.6003 121 77.4003L112.9 70.6003C117.1 66.6003 118.5 63.6003 118.6 58.7003H112.1V40.3003H130.3V57.2003Z" fill="#1D1D1B"/>
<path d="M130.3 9.80029H112.3V28.1003H130.3V9.80029Z" fill="#1D1D1B"/>
<path d="M0 58.7002V0.700195H43.6V14.5002H17.5V24.7002H41.6V38.5002H17.5V58.7002H0Z" fill="#1D1D1B"/>
<path d="M84.3004 58.7002V36.0002H67.3004V58.7002H49.4004V0.700195H67.3004V21.1002H84.2004V0.700195H102.2V58.7002H84.3004Z" fill="#1D1D1B"/>
<path d="M140.5 58.7002V0.700195H165.3C176.7 0.700195 181.6 1.9002 185.1 4.2002C190.2 7.6002 192.7 13.1002 192.7 20.3002C192.7 27.0002 190.1 32.8002 185.4 36.2002C181.4 39.1002 176.1 40.5002 167.1 40.5002H158.3V58.7002H140.5ZM165.1 27.0002C168.6 27.0002 171.1 26.5002 172.5 25.4002C173.8 24.3002 174.3 22.7002 174.3 20.8002C174.3 19.0002 173.8 17.4002 172.5 16.2002C171.2 15.0002 169.1 14.6002 165.4 14.6002H158.3V27.0002H165.1Z" fill="#1D1D1B"/>
<path d="M2.30291 87.462V90.7032H5.54404V92.409H2.30291V97.2707H0V85.6709H5.9705V87.462H2.30291Z" fill="#1D1D1B"/>
<path d="M12.367 97.2705L12.1964 96.4176C11.4287 97.0146 10.6611 97.5264 9.55229 97.5264C7.84643 97.5264 6.9082 96.6735 6.9082 95.0529C6.9082 93.2618 8.35818 92.0677 11.3434 92.0677H11.8552V91.3853C11.8552 90.5324 11.3434 90.1059 10.2346 90.1059C9.38171 90.1059 8.35819 90.3618 7.59055 90.6177L7.33467 89.253C8.35818 88.8265 9.467 88.4854 10.8317 88.4854C13.0493 88.4854 14.0728 89.5089 14.0728 91.1294V97.2705H12.367ZM11.8552 93.347H11.1728C9.46699 93.347 9.04053 93.8588 9.04053 94.7117C9.04053 95.3941 9.467 95.8205 10.2346 95.8205C10.7464 95.8205 11.3434 95.5647 11.8552 95.0529V93.347Z" fill="#1D1D1B"/>
<path d="M19.4469 97.4411C17.144 97.4411 16.0352 95.9911 16.0352 93.0912C16.0352 90.3618 17.3999 88.4854 19.6175 88.4854C20.7263 88.4854 21.5792 88.9118 22.1763 89.5942L21.4086 90.703C20.9821 90.3618 20.5557 90.1059 19.9586 90.1059C18.9351 90.1059 18.3381 91.0441 18.3381 92.8353C18.3381 94.9676 18.9351 95.7352 19.8733 95.7352C20.5557 95.7352 21.1527 95.4794 21.6645 95.0529L22.3468 96.1617C21.7498 96.8441 20.8116 97.4411 19.4469 97.4411Z" fill="#1D1D1B"/>
<path d="M31.0464 97.2706H28.8288C28.8288 95.4795 28.9141 93.6883 28.9141 92.7501C28.9141 90.7031 28.4877 90.1913 27.72 90.1913C27.2936 90.1913 26.6965 90.4472 26.0994 90.8736V97.1853H23.8818V85.0737H26.0994V89.4237C26.6965 88.9119 27.5494 88.4854 28.4876 88.4854C30.1935 88.4854 31.1317 89.5943 31.1317 92.4089C31.1317 93.4324 31.0464 95.3942 31.0464 97.2706Z" fill="#1D1D1B"/>
<path d="M40.6841 97.2706H38.4665C38.4665 95.4795 38.5518 93.6883 38.5518 92.7501C38.5518 90.7031 38.1253 90.1913 37.3577 90.1913C36.9312 90.1913 36.3342 90.4472 35.7372 90.8736V97.1853H33.5195V85.0737H35.7372V89.4237C36.3342 88.9119 37.1871 88.4854 38.1253 88.4854C39.8312 88.4854 40.7694 89.5943 40.7694 92.4089C40.7694 93.4324 40.6841 95.3942 40.6841 97.2706Z" fill="#1D1D1B"/>
<path d="M46.4847 97.441C44.0112 97.441 42.6465 96.1616 42.6465 93.091C42.6465 89.9352 44.267 88.3999 46.8258 88.3999C49.2993 88.3999 50.664 89.6793 50.664 92.7498C50.664 95.991 49.0435 97.441 46.4847 97.441ZM46.6552 90.1058C45.6317 90.1058 44.9494 90.7881 44.9494 92.7498C44.9494 95.138 45.5464 95.8204 46.6552 95.8204C47.6788 95.8204 48.3611 95.138 48.3611 93.1763C48.4464 90.7028 47.764 90.1058 46.6552 90.1058Z" fill="#1D1D1B"/>
<path d="M55.6959 97.4411C53.393 97.4411 52.2842 95.9911 52.2842 93.0912C52.2842 90.3618 53.6489 88.4854 55.8665 88.4854C56.9753 88.4854 57.8282 88.9118 58.4253 89.5942L57.6576 90.703C57.2312 90.3618 56.8047 90.1059 56.2077 90.1059C55.1841 90.1059 54.5871 91.0441 54.5871 92.8353C54.5871 94.9676 55.1841 95.7352 56.1224 95.7352C56.8047 95.7352 57.4018 95.4794 57.9135 95.0529L58.5958 96.1617C57.9135 96.8441 56.9753 97.4411 55.6959 97.4411Z" fill="#1D1D1B"/>
<path d="M67.2105 97.2706H64.9929C64.9929 95.4795 65.0782 93.6883 65.0782 92.7501C65.0782 90.7031 64.6517 90.1913 63.8841 90.1913C63.4576 90.1913 62.8606 90.4472 62.2635 90.8736V97.1853H60.0459V85.0737H62.2635V89.4237C62.8606 88.9119 63.7135 88.4854 64.6517 88.4854C66.3576 88.4854 67.2958 89.5943 67.2958 92.4089C67.2958 93.4324 67.2105 95.3942 67.2105 97.2706Z" fill="#1D1D1B"/>
<path d="M71.731 97.441C70.7928 97.441 69.8546 97.1851 69.0869 96.7586L69.2575 95.5645C70.281 95.8204 70.7928 95.8204 71.3898 95.8204C72.4986 95.8204 72.9251 95.3939 72.9251 94.8822C72.9251 94.2851 72.6692 94.0292 71.3898 93.6028C69.7692 93.0057 69.0869 92.3234 69.0869 91.044C69.0869 89.5087 70.3663 88.3999 72.2427 88.3999C73.0104 88.3999 73.778 88.5705 74.631 88.997L74.3751 90.1911C73.6927 90.0205 73.181 89.9352 72.6692 89.9352C71.8163 89.9352 71.3898 90.3616 71.3898 90.7881C71.3898 91.2999 71.6457 91.5557 72.9251 91.9822C74.631 92.5793 75.228 93.3469 75.228 94.6263C75.228 96.2468 73.9486 97.441 71.731 97.441Z" fill="#1D1D1B"/>
<path d="M80.0895 97.4411C77.7865 97.4411 76.6777 95.9911 76.6777 93.0912C76.6777 90.3618 78.0424 88.4854 80.26 88.4854C81.3689 88.4854 82.2218 88.9118 82.8188 89.5942L82.0512 90.703C81.6247 90.3618 81.1983 90.1059 80.6012 90.1059C79.5777 90.1059 78.9807 91.0441 78.9807 92.8353C78.9807 94.9676 79.5777 95.7352 80.5159 95.7352C81.1983 95.7352 81.7953 95.4794 82.3071 95.0529L82.9894 96.1617C82.3071 96.8441 81.3688 97.4411 80.0895 97.4411Z" fill="#1D1D1B"/>
<path d="M91.605 97.2706H89.3874C89.3874 95.4795 89.4727 93.6883 89.4727 92.7501C89.4727 90.7031 89.0462 90.1913 88.2786 90.1913C87.8521 90.1913 87.2551 90.4472 86.6581 90.8736V97.1853H84.4404V85.0737H86.6581V89.4237C87.2551 88.9119 88.108 88.4854 89.0462 88.4854C90.7521 88.4854 91.6903 89.5943 91.6903 92.4089C91.6903 93.4324 91.605 95.3942 91.605 97.2706Z" fill="#1D1D1B"/>
<path d="M99.4516 97.2708L99.281 96.3326C98.5134 97.015 97.6604 97.4414 96.7222 97.4414C94.9311 97.4414 94.0781 96.3326 94.0781 93.5179C94.0781 92.4091 94.1634 90.5327 94.1634 88.6562H96.381C96.381 90.3621 96.2957 92.1533 96.2957 93.1768C96.2957 95.2238 96.7222 95.6503 97.4898 95.6503C98.0016 95.6503 98.5134 95.3944 99.1104 94.9679V88.6562H101.328V97.2708H99.4516Z" fill="#1D1D1B"/>
<path d="M105.422 97.4412C104.313 97.4412 103.716 97.1 103.716 95.7353V85.0737H105.933V94.7971C105.933 95.7353 106.019 95.9059 106.53 95.9059C106.701 95.9059 106.872 95.9059 106.957 95.9059L107.042 97.1853C106.616 97.3559 106.104 97.4412 105.422 97.4412Z" fill="#1D1D1B"/>
<path d="M110.369 93.4323V93.5176C110.369 95.1382 111.051 95.7352 112.331 95.7352C113.098 95.7352 114.122 95.5647 115.145 95.2235L115.487 96.5029C114.463 97.0146 113.184 97.4411 111.904 97.4411C109.687 97.4411 108.151 96.3323 108.151 93.1765C108.151 90.1059 109.687 88.4854 112.075 88.4854C114.292 88.4854 115.742 89.7647 115.487 93.4323H110.369ZM113.269 91.9824C113.269 90.6177 112.842 89.9353 111.904 89.9353C110.966 89.9353 110.454 90.7883 110.369 91.9824H113.269Z" fill="#1D1D1B"/>
<path d="M124.953 93.3473H124.442V97.2707H122.139V85.6709C123.247 85.6709 124.356 85.6709 125.55 85.6709C128.706 85.6709 129.815 87.1209 129.815 89.3385C129.815 91.6414 128.536 93.3473 124.953 93.3473ZM125.124 87.2915H124.442V91.6414H125.124C126.659 91.6414 127.342 90.8738 127.342 89.5091C127.342 88.0591 126.744 87.2915 125.124 87.2915Z" fill="#1D1D1B"/>
<path d="M134.763 97.441C132.289 97.441 130.925 96.1616 130.925 93.091C130.925 89.9352 132.545 88.3999 135.104 88.3999C137.578 88.3999 138.942 89.6793 138.942 92.7498C138.942 95.991 137.322 97.441 134.763 97.441ZM134.934 90.1058C133.91 90.1058 133.228 90.7881 133.228 92.7498C133.228 95.138 133.825 95.8204 134.934 95.8204C135.957 95.8204 136.639 95.138 136.639 93.1763C136.639 90.7028 136.042 90.1058 134.934 90.1058Z" fill="#1D1D1B"/>
<path d="M143.207 97.4408C141.587 97.4408 140.99 96.8437 140.99 95.2232V90.1909H139.881V88.6556H141.075C141.246 87.888 141.416 87.1204 141.587 86.1821H143.207V88.6556H145.084V90.1909H143.207V94.6261C143.207 95.4791 143.378 95.8202 143.975 95.8202C144.231 95.8202 144.572 95.8202 145.169 95.6496L145.34 96.929C144.572 97.2702 143.89 97.4408 143.207 97.4408Z" fill="#1D1D1B"/>
<path d="M149.091 97.441C148.153 97.441 147.215 97.1851 146.447 96.7586L146.618 95.5645C147.641 95.8204 148.153 95.8204 148.75 95.8204C149.859 95.8204 150.285 95.3939 150.285 94.8822C150.285 94.2851 150.03 94.0292 148.75 93.6028C147.13 93.0057 146.447 92.3234 146.447 91.044C146.447 89.5087 147.727 88.3999 149.603 88.3999C150.371 88.3999 151.138 88.5705 151.991 88.997L151.821 90.1911C151.138 90.0205 150.627 89.9352 150.115 89.9352C149.262 89.9352 148.835 90.3616 148.835 90.7881C148.835 91.2999 149.091 91.5557 150.371 91.9822C152.077 92.5793 152.674 93.3469 152.674 94.6263C152.674 96.2468 151.309 97.441 149.091 97.441Z" fill="#1D1D1B"/>
<path d="M159.668 97.2706L159.497 96.4177C158.815 97.0147 157.962 97.5265 157.109 97.5265C155.062 97.5265 154.124 95.6501 154.124 93.3471C154.124 89.8501 156 88.4854 158.389 88.4854C158.73 88.4854 159.156 88.4854 159.327 88.5707V85.0737H161.545V97.2706H159.668ZM159.242 90.1913C158.9 90.106 158.559 90.0207 158.218 90.0207C157.109 90.0207 156.342 90.9589 156.342 93.006C156.342 94.7971 156.853 95.7353 157.792 95.7353C158.218 95.7353 158.73 95.4795 159.327 95.053V90.1913H159.242Z" fill="#1D1D1B"/>
<path d="M168.88 97.2705L168.709 96.4176C167.941 97.0146 167.174 97.5264 166.065 97.5264C164.359 97.5264 163.421 96.6735 163.421 95.0529C163.421 93.2618 164.871 92.0677 167.856 92.0677H168.368V91.3853C168.368 90.5324 167.856 90.1059 166.747 90.1059C165.894 90.1059 164.871 90.3618 164.103 90.6177L163.847 89.253C164.871 88.8265 165.98 88.4854 167.344 88.4854C169.562 88.4854 170.585 89.5089 170.585 91.1294V97.2705H168.88ZM168.368 93.347H167.686C165.98 93.347 165.553 93.8588 165.553 94.7117C165.553 95.3941 165.98 95.8205 166.747 95.8205C167.259 95.8205 167.856 95.5647 168.368 95.0529V93.347V93.347Z" fill="#1D1D1B"/>
<path d="M184.914 97.2705H182.697C182.697 95.5647 182.782 93.7735 182.782 92.75C182.782 90.703 182.441 90.1912 181.673 90.1912C181.247 90.1912 180.564 90.5324 180.053 90.9588C180.138 91.2147 180.138 91.6412 180.138 92.2382V97.1852H177.92V92.75C177.92 90.703 177.579 90.1912 176.811 90.1912C176.385 90.1912 175.788 90.4471 175.276 90.8736V97.1852H173.059V88.6559H174.85L175.02 89.5942C175.703 88.9971 176.556 88.4854 177.579 88.4854C178.603 88.4854 179.37 88.9971 179.711 89.7647C180.564 88.9971 181.417 88.4854 182.441 88.4854C184.147 88.4854 185 89.5942 185 92.4088C185 93.4323 184.914 95.3941 184.914 97.2705Z" fill="#1D1D1B"/>
</g>
<defs>
<clipPath id="clip0_181_1199">
<rect width="193" height="98" fill="white"/>
</clipPath>
</defs>
</svg>
