<svg width="366" height="347" viewBox="0 0 366 347" fill="none" xmlns="http://www.w3.org/2000/svg">
<g clip-path="url(#clip0_178_1106)">
<rect width="366" height="347" fill="white"/>
<rect width="179" height="179" fill="black"/>
<path d="M26.0488 52.3081H52.4106V58.8531H34.2083V60.9328H48.4551V67.2362H34.2083V73.7995H26.0488V52.3081Z" fill="white"/>
<path d="M69.2163 52.0023C71.1835 51.983 73.1498 52.0852 75.1005 52.3081C76.7199 52.5028 78.3066 52.8674 79.8261 53.3939C81.1571 53.8383 82.3673 54.5206 83.3791 55.3971C84.3471 56.2883 85.0816 57.3527 85.5318 58.5167C86.0764 59.9404 86.3369 61.4353 86.3019 62.9361C86.3292 64.4078 86.093 65.8742 85.6018 67.2821C85.1997 68.4236 84.5324 69.4804 83.6416 70.3864C82.7122 71.2816 81.5635 71.9821 80.2812 72.4355C78.7738 72.9843 77.1912 73.3595 75.5731 73.5518C73.542 73.7931 71.4936 73.9056 69.4438 73.8882C63.6588 73.8882 59.4583 72.9707 56.8423 71.1357C54.2263 69.3006 52.9136 66.44 52.9043 62.5538C52.9043 58.9653 54.2461 56.3095 56.9298 54.5866C59.6135 52.8637 63.709 52.0023 69.2163 52.0023ZM69.5314 68.2761C72.005 68.2761 73.9197 67.8377 75.2756 66.961C76.6314 66.0842 77.3081 64.7477 77.3058 62.9514C77.3058 61.2203 76.5941 59.9001 75.1706 58.9907C73.747 58.0814 71.8335 57.6277 69.4298 57.6298C68.307 57.6141 67.1871 57.7324 66.1009 57.9815C65.234 58.1769 64.4272 58.5372 63.7381 59.0366C63.131 59.4935 62.657 60.0701 62.3555 60.7187C62.0395 61.4301 61.885 62.1884 61.9004 62.9514C61.8674 63.6817 62.0234 64.4092 62.3567 65.0795C62.69 65.7499 63.1921 66.346 63.8256 66.8233C65.0998 67.7898 67.0017 68.274 69.5314 68.2761Z" fill="white"/>
<path d="M103.773 73.7997C100.109 73.7997 97.052 73.4837 94.6017 72.8516C92.1514 72.2195 90.4642 71.1328 89.5401 69.5913C88.7999 68.2293 88.3379 66.7647 88.1749 65.2637C87.8994 62.6754 87.7825 60.0762 87.8248 57.477L87.8634 52.3389H96.4744V61.9423C96.4701 62.4891 96.5051 63.0356 96.5794 63.5785C96.6718 64.1238 96.8546 64.6544 97.122 65.1536C97.3941 65.7033 97.8073 66.1909 98.3296 66.5788C98.9764 67.0141 99.7133 67.3361 100.5 67.5269C101.575 67.7979 102.69 67.9268 103.808 67.9092C104.92 67.9281 106.03 67.7992 107.098 67.5269C107.863 67.3423 108.577 67.0251 109.198 66.5941C109.697 66.201 110.086 65.7135 110.336 65.1689C110.591 64.6678 110.762 64.1373 110.844 63.5938C110.905 63.045 110.935 62.4937 110.931 61.9423V52.3389H119.542V57.477C119.607 60.0757 119.501 62.6755 119.227 65.2637C119.064 66.7647 118.602 68.2293 117.862 69.5913C117.361 70.4163 116.641 71.1242 115.762 71.6558C114.777 72.2506 113.682 72.6905 112.524 72.9556C111.215 73.27 109.88 73.49 108.53 73.6132C106.949 73.7504 105.361 73.8127 103.773 73.7997V73.7997Z" fill="white"/>
<path d="M152.755 73.7997H141.62L129.578 60.8596V73.7997H121.419V52.3389H132.799L144.63 65.0618V52.3389H152.755V73.7997Z" fill="white"/>
<path d="M42.9594 100.747H26.0488V79.3382H42.8509C44.2671 79.3287 45.6824 79.4053 47.0864 79.5676C48.3746 79.7327 49.6333 80.0411 50.8319 80.4851C52.0158 80.9002 53.0884 81.525 53.9823 82.3201C54.9115 83.2147 55.612 84.2719 56.037 85.4214C56.595 86.9111 56.8613 88.4724 56.8246 90.0396C56.8507 91.5 56.5659 92.9519 55.9846 94.3213C55.5064 95.4661 54.7546 96.5087 53.7793 97.3797C52.8373 98.1857 51.7476 98.8484 50.5554 99.3402C49.376 99.8489 48.1249 100.219 46.8344 100.441C45.5562 100.647 44.2591 100.749 42.9594 100.747V100.747ZM42.3994 94.9024C43.5425 94.9325 44.6753 94.7061 45.6898 94.2449C46.5406 93.8597 47.2367 93.2569 47.685 92.5169C48.1173 91.7575 48.3335 90.9181 48.3151 90.0702C48.3151 88.6021 47.8425 87.4246 46.8974 86.5377C45.9523 85.6508 44.453 85.2073 42.3994 85.2073H34.2083V94.9024H42.3994Z" fill="white"/>
<path d="M58.2598 79.2715H85.3916V85.2384H66.4158V87.1346H84.2015V92.8539H66.4158V94.7806H85.3916V100.748H58.2598V79.2715Z" fill="white"/>
<path d="M91.7305 79.2715H109.796C110.262 79.2715 110.706 79.2715 111.126 79.3021C111.546 79.3326 112.134 79.3908 112.894 79.5009C113.596 79.6018 114.287 79.7553 114.959 79.9596C115.655 80.1891 116.318 80.4867 116.937 80.8466C117.613 81.226 118.211 81.7027 118.705 82.2565C119.234 82.8801 119.636 83.5784 119.895 84.3209C120.225 85.241 120.384 86.2012 120.368 87.1652C120.368 90.5499 118.862 92.966 115.852 94.4137L120.893 100.748L111.476 100.717L107.276 95.6676H99.8865V100.748H91.7305V79.2715ZM109.026 89.3979C111.056 89.3979 112.071 88.725 112.071 87.3793C112.071 86.156 111.01 85.5443 108.886 85.5443H99.8865V89.3979H109.026Z" fill="white"/>
<path d="M34.156 121.061H51.9767V128.19H26V106.717H34.156V121.061Z" fill="white"/>
<path d="M77.0117 106.779L88.0381 128.188H78.5869L76.7282 124.569H64.5817L62.7265 128.178H53.3418L64.3367 106.77L77.0117 106.779ZM67.487 118.401H73.8228L70.6374 112.773L67.487 118.401Z" fill="white"/>
<path d="M120.949 128.19H109.814L97.7728 115.25V128.19H89.6133V106.717H100.993L112.825 119.44V106.717H120.949V128.19Z" fill="white"/>
<path d="M140.135 128.19H123.225V106.782H140.027C141.443 106.772 142.858 106.849 144.262 107.011C145.55 107.176 146.809 107.485 148.008 107.928C149.192 108.343 150.265 108.968 151.158 109.763C152.086 110.659 152.785 111.717 153.206 112.868C153.765 114.357 154.032 115.919 153.997 117.486C154.021 118.947 153.735 120.398 153.153 121.768C152.673 122.912 151.922 123.954 150.948 124.826C150.007 125.63 148.918 126.292 147.728 126.784C146.545 127.287 145.292 127.653 144 127.869C142.726 128.081 141.432 128.188 140.135 128.19V128.19ZM139.575 122.349C140.718 122.377 141.85 122.151 142.866 121.691C143.716 121.304 144.412 120.7 144.861 119.96C145.293 119.201 145.509 118.361 145.491 117.513C145.491 116.045 145.018 114.868 144.073 113.981C143.128 113.094 141.629 112.648 139.575 112.641H131.381V122.34L139.575 122.349Z" fill="white"/>
<path d="M127.229 84.6843H142.298L128.093 96.9209L132.238 100.741L146.628 88.4675V100.741H152.754V79.332H127.229V84.6843Z" fill="white"/>
<path fill-rule="evenodd" clip-rule="evenodd" d="M366 0H187V179L250.5 52L264.584 80.1672L292 22L366 179V0Z" fill="black"/>
<rect width="366" height="160" transform="translate(0 187)" fill="black"/>
<path d="M25 213H58.3079C59.1686 213 59.9862 213.022 60.7608 213.066C61.5354 213.109 62.6112 213.262 63.9883 213.524C65.4084 213.743 66.6779 214.07 67.7968 214.507C68.9587 214.9 70.1851 215.534 71.4761 216.407C72.7671 217.237 73.843 218.242 74.7036 219.422C75.6073 220.557 76.3389 222.021 76.8983 223.812C77.5008 225.603 77.802 227.634 77.802 229.906C77.802 237.158 75.0264 242.334 69.4751 245.436L78.7703 259L61.4063 258.934L53.6603 248.123H40.0402V259H25V213ZM56.8878 234.689C60.6317 234.689 62.5037 233.248 62.5037 230.365C62.5037 227.744 60.5456 226.433 56.6296 226.433H40.0402V234.689H56.8878Z" fill="white"/>
<path d="M81.3044 259V213H96.3446V259H81.3044Z" fill="white"/>
<path d="M127.52 213.131C131.565 213.131 135.03 213.24 137.913 213.459C140.796 213.633 143.357 213.983 145.594 214.507C147.832 215.031 149.618 215.687 150.952 216.473C152.329 217.216 153.448 218.242 154.309 219.553C155.212 220.863 155.836 222.327 156.181 223.943C156.525 225.516 156.697 227.46 156.697 229.775H140.689C140.689 229.076 140.559 228.53 140.301 228.137C140.086 227.744 139.57 227.372 138.752 227.023C137.934 226.63 136.643 226.368 134.879 226.236C133.115 226.062 130.791 225.974 127.908 225.974C124.078 225.974 121.28 226.062 119.516 226.236C117.752 226.411 116.633 226.63 116.159 226.892C115.686 227.154 115.449 227.613 115.449 228.268C115.492 228.836 116.073 229.229 117.192 229.447C118.354 229.622 121.797 229.95 127.52 230.43C127.606 230.43 127.671 230.452 127.714 230.496C139.075 231.413 146.283 232.243 149.338 232.986C153.34 233.947 155.922 235.585 157.084 237.9C157.859 239.473 158.246 241.745 158.246 244.715C158.246 246.812 158.096 248.538 157.794 249.892C157.536 251.246 156.977 252.491 156.116 253.627C155.298 254.763 154.223 255.658 152.889 256.313C151.554 256.925 149.704 257.449 147.337 257.886C144.97 258.323 142.259 258.629 139.204 258.803C136.192 258.934 132.426 259 127.908 259C124.809 259 122.12 258.956 119.839 258.869C117.601 258.782 115.492 258.629 113.513 258.41C111.576 258.192 109.963 257.908 108.672 257.558C107.381 257.209 106.219 256.728 105.186 256.117C104.153 255.505 103.336 254.85 102.733 254.151C102.174 253.408 101.7 252.469 101.313 251.333C100.926 250.198 100.667 248.996 100.538 247.729C100.409 246.462 100.345 244.955 100.345 243.208H115.901C115.901 243.951 116.009 244.519 116.224 244.912C116.482 245.305 117.063 245.632 117.967 245.895C118.871 246.157 120.119 246.331 121.711 246.419C123.346 246.506 125.648 246.55 128.618 246.55C128.962 246.55 129.478 246.55 130.167 246.55C135.073 246.55 138.042 246.462 139.075 246.288C140.151 246.113 140.689 245.545 140.689 244.584C140.689 244.016 140.323 243.645 139.591 243.47C138.86 243.295 136.837 243.099 133.523 242.88C131.114 242.706 129.113 242.553 127.52 242.422C124.981 242.203 123.023 242.028 121.646 241.897C120.312 241.766 118.634 241.592 116.611 241.373C114.632 241.111 113.126 240.871 112.093 240.652C111.06 240.39 109.834 240.085 108.413 239.735C106.993 239.342 105.918 238.905 105.186 238.424C104.497 237.944 103.723 237.376 102.862 236.721C102.045 236.066 101.442 235.323 101.055 234.493C100.71 233.663 100.388 232.724 100.086 231.675C99.8283 230.583 99.6992 229.404 99.6992 228.137C99.6992 226.608 99.8068 225.232 100.022 224.009C100.237 222.785 100.538 221.693 100.926 220.732C101.313 219.771 101.851 218.919 102.539 218.177C103.228 217.434 103.959 216.801 104.734 216.276C105.509 215.708 106.498 215.25 107.703 214.9C108.951 214.507 110.178 214.201 111.383 213.983C112.631 213.764 114.158 213.59 115.966 213.459C117.773 213.328 119.538 213.24 121.259 213.197C123.023 213.153 125.11 213.131 127.52 213.131Z" fill="white"/>
<path d="M161.614 213H211.64V225.778H176.654V229.84H209.446V242.094H176.654V246.222H211.64V259H161.614V213Z" fill="white"/>
<path d="M291.743 237.9C291.657 238.075 291.528 238.315 291.356 238.621C291.184 238.927 290.775 239.538 290.13 240.456C289.484 241.373 288.774 242.29 287.999 243.208C287.268 244.125 286.257 245.217 284.966 246.484C283.718 247.707 282.362 248.843 280.899 249.892L291.743 259H273.863L269.925 255.855C264.288 257.951 258.156 259 251.529 259C242.664 259 235.886 257.143 231.195 253.43C227.58 250.59 226.117 247.38 226.806 243.798C227.537 239.91 230.722 236.633 236.359 233.968C237.564 233.401 238.855 232.876 240.232 232.396C237.091 230.648 234.982 228.377 233.906 225.581C232.658 222.13 233.541 219.269 236.553 216.997C240.039 214.42 245.87 213.131 254.046 213.131C265.235 213.131 270.894 216.276 271.023 222.567C271.023 224.882 270.162 226.892 268.441 228.595C266.719 230.299 264.331 231.893 261.276 233.379L271.862 242.29C273.325 240.98 274.508 239.516 275.412 237.9H291.743ZM256.693 222.829C256.693 222.086 255.961 221.562 254.498 221.256C253.035 220.907 251.572 220.929 250.108 221.322C248.645 221.671 247.914 222.305 247.914 223.222C247.914 223.746 248.258 224.336 248.947 224.991C249.635 225.647 250.345 226.171 251.077 226.564L252.11 227.154C252.153 227.154 252.217 227.132 252.303 227.088C252.432 227.001 252.647 226.892 252.949 226.76C253.293 226.586 253.616 226.411 253.917 226.236C254.218 226.018 254.541 225.778 254.885 225.515C255.229 225.253 255.531 224.991 255.789 224.729C256.047 224.467 256.262 224.183 256.434 223.877C256.607 223.528 256.693 223.178 256.693 222.829ZM243.137 244.387C243.137 245.61 243.955 246.615 245.59 247.402C247.268 248.144 249.355 248.559 251.851 248.647C254.347 248.734 257.058 248.494 259.985 247.926L248.624 238.817C244.966 240.652 243.137 242.509 243.137 244.387Z" fill="white"/>
<path d="M25 276H84.7798V290.872H62.4027V321H47.4416V290.872H25V276Z" fill="white"/>
<path d="M130.335 276H145.361V321H130.335V305.359H103.379V321H88.3538V276H103.379V291.577H130.335V276Z" fill="white"/>
<path d="M150.385 276H183.661C184.52 276 185.337 276.021 186.111 276.064C186.885 276.107 187.96 276.256 189.335 276.513C190.754 276.726 192.022 277.047 193.14 277.474C194.301 277.859 195.526 278.479 196.816 279.333C198.106 280.145 199.18 281.128 200.04 282.282C200.943 283.393 201.674 284.825 202.233 286.577C202.835 288.329 203.136 290.316 203.136 292.538C203.136 299.632 200.363 304.697 194.817 307.731L204.103 321L186.756 320.936L179.017 310.359H165.411V321H150.385V276ZM182.242 297.218C185.982 297.218 187.852 295.808 187.852 292.987C187.852 290.423 185.896 289.141 181.984 289.141H165.411V297.218H182.242Z" fill="white"/>
<path d="M206.635 321V276H221.66V321H206.635Z" fill="white"/>
<path d="M272.651 276H289.869L267.685 321H248.017L225.704 276H242.922L257.819 307.859L272.651 276Z" fill="white"/>
<path d="M291.022 276H341V288.5H306.048V292.474H338.807V304.462H306.048V308.5H341V321H291.022V276Z" fill="white"/>
</g>
<defs>
<clipPath id="clip0_178_1106">
<rect width="366" height="347" fill="white"/>
</clipPath>
</defs>
</svg>
