<svg width="193" height="65" viewBox="0 0 193 65" fill="none" xmlns="http://www.w3.org/2000/svg">
<g clip-path="url(#clip0_185_1346)">
<rect width="193" height="64.7359" fill="white"/>
<path d="M33.4935 28.7914C31.7424 32.5437 27.4897 35.1078 23.112 35.1078C16.2327 35.1078 10.7292 29.2292 10.7292 21.9746C10.7292 14.7826 16.2327 8.84141 23.112 8.84141C27.4272 8.84141 31.6798 11.2179 33.4309 15.0328H43.8749C40.9981 6.33985 32.8055 0.0859375 23.112 0.0859375C11.0419 0.0859375 1.22327 9.90458 1.22327 21.9746C1.22327 34.0447 11.0419 43.8633 23.112 43.8633C32.8055 43.8633 41.0607 37.5469 43.9375 28.7914H33.4935Z" fill="#3E3E3E"/>
<path d="M120.379 26.9957H109.623L115.001 11.8612L120.379 26.9957ZM136.264 43.2558L119.004 0.729259H111.061L93.8003 43.2558H103.869L106.934 34.688H123.131L126.196 43.2558H136.264Z" fill="#3E3E3E"/>
<path d="M154.429 22.3678C157.681 22.3678 159.745 24.0563 159.87 26.7455H169.188C168.75 20.3665 163.059 15.0507 154.116 15.0507C144.923 15.0507 138.794 21.6173 138.794 29.4972C138.794 37.3772 144.548 43.8812 154.116 43.8812C162.497 43.8812 168.063 39.1283 169.001 32.9994H159.87C159.557 35.501 157.306 36.7518 154.429 36.7518C150.051 36.7518 148.8 32.7493 148.8 29.5598C148.8 26.4328 150.176 22.3678 154.429 22.3678Z" fill="#3E3E3E"/>
<path d="M186.684 22.9306H191.687V15.6761H186.684V5.16953H177.366V15.6761H172.363V22.9306H177.366V43.2558H186.684V22.9306Z" fill="#3E3E3E"/>
<path d="M9.76432 61.297H8.61734C8.25984 61.9524 7.76828 62.4886 7.14266 62.8759C6.51703 63.2781 5.81693 63.4718 5.07214 63.4718C3.95495 63.4718 3.00162 63.0696 2.21214 62.2354C1.43756 61.4459 1.06517 60.4777 1.06517 59.3456C1.06517 58.2135 1.43756 57.2453 2.21214 56.4409C2.56964 56.0685 3.00162 55.7706 3.49318 55.5472C3.96985 55.3238 4.44652 55.2046 4.92318 55.2046C5.38495 55.2046 5.78714 55.2642 6.14464 55.3684C7.23203 55.6961 8.0513 56.3516 8.60245 57.3496H9.74942C9.36213 56.3962 8.7514 55.6217 7.90234 55.0258C7.03839 54.43 6.09995 54.1321 5.07214 54.1321C3.65704 54.1321 2.46537 54.6534 1.48225 55.6813C1.02048 56.1579 0.662981 56.724 0.409752 57.3496C0.141627 57.9752 0.0224609 58.6455 0.0224609 59.3456C0.0224609 60.7756 0.499127 61.9822 1.48225 62.9951C2.46537 64.0378 3.65704 64.5443 5.07214 64.5443C6.09995 64.5443 7.03839 64.2463 7.91724 63.6505C8.7663 63.0547 9.37703 62.2801 9.76432 61.297Z" fill="#3E3E3E"/>
<path d="M14.7621 55.577C14.628 55.4578 14.4642 55.3833 14.2854 55.3833C14.1067 55.3833 13.9428 55.4578 13.8237 55.577C13.6896 55.711 13.63 55.8749 13.63 56.0536C13.63 56.2324 13.6896 56.3963 13.8237 56.5154C13.9428 56.6495 14.1067 56.7091 14.2854 56.7091C14.4642 56.7091 14.628 56.6495 14.7621 56.5154C14.8813 56.3963 14.9557 56.2324 14.9557 56.0536C14.9557 55.8749 14.8813 55.711 14.7621 55.577ZM14.8217 64.3953V57.8411H13.779V64.3953H14.8217Z" fill="#3E3E3E"/>
<path d="M18.6725 58.8094H20.311V64.3953H21.3537V58.8094H22.9774V57.8411H21.3537V55.294H20.311V57.8411H18.6725V58.8094Z" fill="#3E3E3E"/>
<path d="M27.8349 55.577C27.7008 55.4578 27.537 55.3833 27.3582 55.3833C27.1795 55.3833 27.0156 55.4578 26.8965 55.577C26.7624 55.711 26.7028 55.8749 26.7028 56.0536C26.7028 56.2324 26.7624 56.3963 26.8965 56.5154C27.0156 56.6495 27.1795 56.7091 27.3582 56.7091C27.537 56.7091 27.7008 56.6495 27.8349 56.5154C27.9541 56.3963 28.0286 56.2324 28.0286 56.0536C28.0286 55.8749 27.9541 55.711 27.8349 55.577ZM27.8945 64.3953V57.8411H26.8518V64.3953H27.8945Z" fill="#3E3E3E"/>
<path d="M31.5963 64.3953H38.076V63.4271H33.5924L37.8824 57.8411H31.8496V58.8094H35.8863L31.5963 64.3953Z" fill="#3E3E3E"/>
<path d="M48.1318 60.9693C48.1318 60.0755 47.7743 59.3009 47.0891 58.6306C46.4188 57.9901 45.6145 57.6624 44.7058 57.6624C43.7525 57.6624 42.9481 58.005 42.2778 58.6753C41.6075 59.3456 41.2798 60.15 41.2798 61.0884C41.2798 62.0418 41.6075 62.8461 42.2778 63.5015C42.5906 63.8144 42.9481 64.0527 43.3652 64.2314C43.7823 64.4102 44.2738 64.4996 44.8548 64.4996C45.4357 64.4996 46.0017 64.3208 46.5678 63.9633C47.1338 63.6058 47.5509 63.0994 47.8339 62.4737H46.6423C46.4039 62.7866 46.1209 63.0249 45.7783 63.2036C45.4357 63.3824 45.0782 63.4569 44.7058 63.4569C44.1398 63.4569 43.6333 63.2781 43.1864 62.9057C42.7396 62.5482 42.4565 62.0865 42.3672 61.5204H48.1318V60.9693ZM47.0296 60.6267H42.3821C42.4416 60.3585 42.5459 60.1053 42.6949 59.867C43.1715 59.0924 43.8419 58.7051 44.7058 58.7051C45.257 58.7051 45.7485 58.8838 46.1805 59.2413C46.6274 59.6137 46.8955 60.0755 47.0296 60.6267Z" fill="#3E3E3E"/>
<path d="M56.7554 64.3953H57.7981V60.299C57.7981 59.5393 57.5895 58.9285 57.2022 58.4668C56.9937 58.2284 56.7554 58.0497 56.4723 57.9156C56.1744 57.7816 55.802 57.7071 55.3403 57.7071C54.8636 57.7071 54.4614 57.8411 54.1039 58.0795C53.7613 58.3029 53.4783 58.6008 53.2697 58.9732V57.8411H52.227V64.3953H53.2697V61.6545C53.2697 60.8203 53.4187 60.1649 53.7315 59.6733C53.9103 59.4052 54.1337 59.1818 54.4167 59.003C54.6848 58.8392 55.0572 58.7498 55.5041 58.7498C55.951 58.7498 56.2638 58.9136 56.4574 59.2116C56.6511 59.5095 56.7554 59.8819 56.7554 60.299V64.3953Z" fill="#3E3E3E"/>
<path d="M71.3878 59.6286C72.6986 59.9415 73.5924 60.2841 74.0691 60.6713C74.3968 60.9395 74.5606 61.2821 74.5606 61.6992C74.5606 62.1162 74.4712 62.4588 74.2925 62.6972C73.8456 63.3228 73.0412 63.6356 71.9092 63.6356C70.3302 63.6356 69.4365 63.0994 69.2428 62.0269H68.0214C68.3789 63.7399 69.6748 64.5889 71.9092 64.5889C72.9072 64.5889 73.7413 64.3804 74.4117 63.9335C75.216 63.4122 75.6331 62.6376 75.6331 61.6247C75.6331 60.7905 75.3054 60.15 74.65 59.7031C74.1882 59.3754 73.4434 59.0775 72.4156 58.8094C71.3729 58.5412 70.7026 58.3178 70.3898 58.154C69.7046 57.8114 69.362 57.3347 69.3769 56.7091C69.3769 56.3814 69.4365 56.0983 69.5854 55.8898C69.9727 55.3089 70.6579 55.0109 71.641 55.0109C73.0263 55.0109 73.8158 55.4578 74.0244 56.3218H75.1564C74.784 54.862 73.6073 54.1172 71.641 54.1172C70.7473 54.1172 69.9578 54.3555 69.3024 54.8322C68.6321 55.3089 68.2895 56.009 68.2895 56.9623C68.2895 58.2582 69.3322 59.152 71.3878 59.6286Z" fill="#3E3E3E"/>
<path d="M84.8867 61.0884C84.8867 61.7438 84.6483 62.295 84.1866 62.7568C83.7099 63.2334 83.1588 63.4569 82.5033 63.4569C81.8479 63.4569 81.2819 63.2334 80.8201 62.7568C80.3434 62.295 80.12 61.7438 80.12 61.0884C80.12 60.433 80.3434 59.8819 80.8201 59.4052C81.2819 58.9434 81.8479 58.7051 82.5033 58.7051C83.1588 58.7051 83.7099 58.9434 84.1866 59.4052C84.6483 59.8819 84.8867 60.433 84.8867 61.0884ZM85.9294 61.0884C85.9294 60.15 85.5868 59.3456 84.9165 58.6753C84.2461 58.005 83.4418 57.6624 82.5033 57.6624C81.55 57.6624 80.7456 58.005 80.0753 58.6753C79.405 59.3456 79.0773 60.15 79.0773 61.0884C79.0773 62.0418 79.405 62.8461 80.0753 63.5015C80.7456 64.1719 81.5649 64.4996 82.5033 64.4996C83.4269 64.4996 84.2461 64.1719 84.9165 63.5015C85.5868 62.8461 85.9294 62.0418 85.9294 61.0884Z" fill="#3E3E3E"/>
<path d="M96.2195 60.1947C96.0109 59.4648 95.6087 58.869 95.0278 58.4072C94.4171 57.9454 93.7468 57.7071 93.002 57.7071C92.0635 57.7071 91.2592 58.0497 90.6186 58.72C89.9632 59.3903 89.6504 60.1947 89.6504 61.1182C89.6504 62.0567 89.9632 62.8461 90.6186 63.5313C90.9166 63.8442 91.2592 64.0974 91.6762 64.2761C92.0784 64.4549 92.4955 64.5443 92.9126 64.5443C93.3297 64.5443 93.7021 64.4996 94.0298 64.3804C95.0725 64.008 95.7875 63.3079 96.1599 62.2503H94.9831C94.7746 62.6227 94.5065 62.9206 94.149 63.1292C93.7915 63.3526 93.4191 63.4569 93.002 63.4569C92.3615 63.4569 91.8252 63.2334 91.3783 62.7717C90.9315 62.3099 90.7229 61.7587 90.7229 61.1182C90.7229 60.5075 90.9315 59.9563 91.3783 59.4946C91.5869 59.286 91.8252 59.1073 92.1082 58.9881C92.3764 58.869 92.719 58.7945 93.1062 58.7945C93.4935 58.7945 93.8659 58.9285 94.2532 59.1818C94.6256 59.4499 94.9086 59.7776 95.0874 60.1947H96.2195Z" fill="#3E3E3E"/>
<path d="M101.306 55.577C101.172 55.4578 101.008 55.3833 100.829 55.3833C100.651 55.3833 100.487 55.4578 100.368 55.577C100.234 55.711 100.174 55.8749 100.174 56.0536C100.174 56.2324 100.234 56.3963 100.368 56.5154C100.487 56.6495 100.651 56.7091 100.829 56.7091C101.008 56.7091 101.172 56.6495 101.306 56.5154C101.425 56.3963 101.5 56.2324 101.5 56.0536C101.5 55.8749 101.425 55.711 101.306 55.577ZM101.366 64.3953V57.8411H100.323V64.3953H101.366Z" fill="#3E3E3E"/>
<path d="M111.249 61.1182C111.249 61.7587 111.026 62.3248 110.579 62.7865C110.132 63.2632 109.581 63.5015 108.94 63.5015C108.285 63.5015 107.734 63.2632 107.287 62.7865C106.84 62.3248 106.632 61.7587 106.632 61.1182C106.632 60.4926 106.84 59.9266 107.287 59.4499C107.734 58.9732 108.285 58.7349 108.94 58.7349C109.581 58.7349 110.132 58.9732 110.579 59.4499C111.026 59.9266 111.249 60.4926 111.249 61.1182ZM112.292 64.3953V57.8411H111.249V58.9732C111.19 58.8839 111.115 58.8094 111.056 58.7349C110.43 58.0497 109.67 57.6922 108.777 57.6922C107.868 57.6922 107.108 58.0497 106.483 58.7349C105.887 59.4201 105.589 60.2096 105.589 61.1182C105.589 62.0418 105.887 62.8312 106.483 63.5015C107.108 64.2017 107.868 64.5443 108.777 64.5443C109.67 64.5443 110.43 64.2017 111.056 63.5015C111.115 63.442 111.19 63.3675 111.249 63.2781V64.3953H112.292Z" fill="#3E3E3E"/>
<path d="M117.957 64.3953V53.2234H116.914V64.3953H117.957Z" fill="#3E3E3E"/>
<path d="M131.769 59.6286C133.08 59.9415 133.974 60.2841 134.451 60.6713C134.778 60.9395 134.942 61.2821 134.942 61.6992C134.942 62.1162 134.853 62.4588 134.674 62.6972C134.227 63.3228 133.423 63.6356 132.291 63.6356C130.712 63.6356 129.818 63.0994 129.624 62.0269H128.403C128.76 63.7399 130.056 64.5889 132.291 64.5889C133.289 64.5889 134.123 64.3804 134.793 63.9335C135.598 63.4122 136.015 62.6376 136.015 61.6247C136.015 60.7905 135.687 60.15 135.032 59.7031C134.57 59.3754 133.825 59.0775 132.797 58.8094C131.754 58.5412 131.084 58.3178 130.771 58.154C130.086 57.8114 129.744 57.3347 129.758 56.7091C129.758 56.3814 129.818 56.0983 129.967 55.8898C130.354 55.3089 131.039 55.0109 132.023 55.0109C133.408 55.0109 134.197 55.4578 134.406 56.3218H135.538C135.166 54.862 133.989 54.1172 132.023 54.1172C131.129 54.1172 130.339 54.3555 129.684 54.8322C129.014 55.3089 128.671 56.009 128.671 56.9623C128.671 58.2582 129.714 59.152 131.769 59.6286Z" fill="#3E3E3E"/>
<path d="M146.028 60.1947C145.819 59.4648 145.417 58.869 144.836 58.4072C144.226 57.9454 143.555 57.7071 142.81 57.7071C141.872 57.7071 141.068 58.0497 140.427 58.72C139.772 59.3903 139.459 60.1947 139.459 61.1182C139.459 62.0567 139.772 62.8461 140.427 63.5313C140.725 63.8442 141.068 64.0974 141.485 64.2761C141.887 64.4549 142.304 64.5443 142.721 64.5443C143.138 64.5443 143.511 64.4996 143.838 64.3804C144.881 64.008 145.596 63.3079 145.968 62.2503H144.792C144.583 62.6227 144.315 62.9206 143.957 63.1292C143.6 63.3526 143.227 63.4569 142.81 63.4569C142.17 63.4569 141.634 63.2334 141.187 62.7717C140.74 62.3099 140.531 61.7587 140.531 61.1182C140.531 60.5075 140.74 59.9563 141.187 59.4946C141.395 59.286 141.634 59.1073 141.917 58.9881C142.185 58.869 142.527 58.7945 142.915 58.7945C143.302 58.7945 143.674 58.9285 144.062 59.1818C144.434 59.4499 144.717 59.7776 144.896 60.1947H146.028Z" fill="#3E3E3E"/>
<path d="M151.115 55.577C150.981 55.4578 150.817 55.3833 150.638 55.3833C150.459 55.3833 150.295 55.4578 150.176 55.577C150.042 55.711 149.983 55.8749 149.983 56.0536C149.983 56.2324 150.042 56.3963 150.176 56.5154C150.295 56.6495 150.459 56.7091 150.638 56.7091C150.817 56.7091 150.981 56.6495 151.115 56.5154C151.234 56.3963 151.308 56.2324 151.308 56.0536C151.308 55.8749 151.234 55.711 151.115 55.577ZM151.174 64.3953V57.8411H150.131V64.3953H151.174Z" fill="#3E3E3E"/>
<path d="M162.249 60.9693C162.249 60.0755 161.892 59.3009 161.207 58.6306C160.536 57.9901 159.732 57.6624 158.823 57.6624C157.87 57.6624 157.066 58.005 156.395 58.6753C155.725 59.3456 155.397 60.15 155.397 61.0884C155.397 62.0418 155.725 62.8461 156.395 63.5015C156.708 63.8144 157.066 64.0527 157.483 64.2314C157.9 64.4102 158.391 64.4996 158.972 64.4996C159.553 64.4996 160.119 64.3208 160.685 63.9633C161.251 63.6058 161.669 63.0994 161.952 62.4737H160.76C160.522 62.7866 160.239 63.0249 159.896 63.2036C159.553 63.3824 159.196 63.4569 158.823 63.4569C158.257 63.4569 157.751 63.2781 157.304 62.9057C156.857 62.5482 156.574 62.0865 156.485 61.5204H162.249V60.9693ZM161.147 60.6267H156.5C156.559 60.3585 156.664 60.1053 156.812 59.867C157.289 59.0924 157.959 58.7051 158.823 58.7051C159.375 58.7051 159.866 58.8838 160.298 59.2413C160.745 59.6137 161.013 60.0755 161.147 60.6267Z" fill="#3E3E3E"/>
<path d="M170.873 64.3953H171.916V60.299C171.916 59.5393 171.707 58.9285 171.32 58.4668C171.111 58.2284 170.873 58.0497 170.59 57.9156C170.292 57.7816 169.92 57.7071 169.458 57.7071C168.981 57.7071 168.579 57.8411 168.221 58.0795C167.879 58.3029 167.596 58.6008 167.387 58.9732V57.8411H166.345V64.3953H167.387V61.6545C167.387 60.8203 167.536 60.1649 167.849 59.6733C168.028 59.4052 168.251 59.1818 168.534 59.003C168.802 58.8392 169.175 58.7498 169.622 58.7498C170.069 58.7498 170.381 58.9136 170.575 59.2116C170.769 59.5095 170.873 59.8819 170.873 60.299V64.3953Z" fill="#3E3E3E"/>
<path d="M182.429 60.1947C182.22 59.4648 181.818 58.869 181.237 58.4072C180.627 57.9454 179.956 57.7071 179.211 57.7071C178.273 57.7071 177.469 58.0497 176.828 58.72C176.173 59.3903 175.86 60.1947 175.86 61.1182C175.86 62.0567 176.173 62.8461 176.828 63.5313C177.126 63.8442 177.469 64.0974 177.886 64.2761C178.288 64.4549 178.705 64.5443 179.122 64.5443C179.539 64.5443 179.912 64.4996 180.239 64.3804C181.282 64.008 181.997 63.3079 182.369 62.2503H181.193C180.984 62.6227 180.716 62.9206 180.358 63.1292C180.001 63.3526 179.629 63.4569 179.211 63.4569C178.571 63.4569 178.035 63.2334 177.588 62.7717C177.141 62.3099 176.932 61.7587 176.932 61.1182C176.932 60.5075 177.141 59.9563 177.588 59.4946C177.796 59.286 178.035 59.1073 178.318 58.9881C178.586 58.869 178.928 58.7945 179.316 58.7945C179.703 58.7945 180.075 58.9285 180.463 59.1818C180.835 59.4499 181.118 59.7776 181.297 60.1947H182.429Z" fill="#3E3E3E"/>
<path d="M192.863 60.9693C192.863 60.0755 192.506 59.3009 191.821 58.6306C191.15 57.9901 190.346 57.6624 189.437 57.6624C188.484 57.6624 187.679 58.005 187.009 58.6753C186.339 59.3456 186.011 60.15 186.011 61.0884C186.011 62.0418 186.339 62.8461 187.009 63.5015C187.322 63.8144 187.68 64.0527 188.097 64.2314C188.514 64.4102 189.005 64.4996 189.586 64.4996C190.167 64.4996 190.733 64.3208 191.299 63.9633C191.865 63.6058 192.282 63.0994 192.565 62.4737H191.374C191.135 62.7866 190.852 63.0249 190.51 63.2036C190.167 63.3824 189.81 63.4569 189.437 63.4569C188.871 63.4569 188.365 63.2781 187.918 62.9057C187.471 62.5482 187.188 62.0865 187.099 61.5204H192.863V60.9693ZM191.761 60.6267H187.113C187.173 60.3585 187.277 60.1053 187.426 59.867C187.903 59.0924 188.573 58.7051 189.437 58.7051C189.988 58.7051 190.48 58.8838 190.912 59.2413C191.359 59.6137 191.627 60.0755 191.761 60.6267Z" fill="#3E3E3E"/>
<path fill-rule="evenodd" clip-rule="evenodd" d="M90.1111 25.3632C91.712 25.3632 93.0097 24.0654 93.0097 22.4645C93.0097 20.8637 91.712 19.5659 90.1111 19.5659C88.6748 19.5659 87.4825 20.6105 87.2525 21.9814H78.5166V22.9476H87.2525C87.4825 24.3186 88.6748 25.3632 90.1111 25.3632Z" fill="#246F72"/>
<path fill-rule="evenodd" clip-rule="evenodd" d="M51.2079 25.4838C49.607 25.4838 48.3093 24.186 48.3093 22.5851C48.3093 20.9843 49.607 19.6865 51.2079 19.6865C52.6442 19.6865 53.8365 20.7311 54.0664 22.102H63.0439V23.0683H54.0664C53.8365 24.4392 52.6442 25.4838 51.2079 25.4838Z" fill="#246F72"/>
<path fill-rule="evenodd" clip-rule="evenodd" d="M82.2233 39.2128C83.3553 40.3448 85.1906 40.3448 86.3225 39.2128C87.4545 38.0808 87.4545 36.2455 86.3225 35.1136C85.3069 34.0979 83.7252 33.9935 82.5932 34.8003L78.1239 30.3311L77.4407 31.0143L81.91 35.4836C81.1033 36.6156 81.2077 38.1973 82.2233 39.2128Z" fill="#D4893A"/>
<path fill-rule="evenodd" clip-rule="evenodd" d="M54.6291 11.79C53.4971 10.658 53.4971 8.82274 54.6291 7.69075C55.7611 6.55877 57.5964 6.55877 58.7284 7.69075C59.744 8.70637 59.8484 10.2881 59.0416 11.4201L63.6816 16.0601L62.9984 16.7433L58.3583 12.1033C57.2263 12.91 55.6447 12.8056 54.6291 11.79Z" fill="#D4893A"/>
<path fill-rule="evenodd" clip-rule="evenodd" d="M58.8422 39.2128C57.7102 40.3448 55.8749 40.3448 54.7429 39.2128C53.6109 38.0808 53.6109 36.2455 54.7429 35.1136C55.7585 34.0979 57.3403 33.9935 58.4723 34.8003L62.9415 30.3311L63.6247 31.0143L59.1555 35.4836C59.9622 36.6156 59.8577 38.1973 58.8422 39.2128Z" fill="#CD5C32"/>
<path fill-rule="evenodd" clip-rule="evenodd" d="M86.4364 11.79C87.5683 10.658 87.5683 8.82274 86.4364 7.69075C85.3044 6.55877 83.4691 6.55877 82.3371 7.69075C81.3215 8.70637 81.2171 10.2881 82.0239 11.4201L77.3839 16.0601L78.0671 16.7433L82.7071 12.1033C83.8391 12.91 85.4208 12.8056 86.4364 11.79Z" fill="#CD5C32"/>
<path fill-rule="evenodd" clip-rule="evenodd" d="M73.431 41.801C73.431 43.4019 72.1333 44.6997 70.5324 44.6997C68.9315 44.6997 67.6338 43.4019 67.6338 41.801C67.6338 40.3648 68.6784 39.1725 70.0493 38.9425L70.0493 32.6221L71.0155 32.6221L71.0155 38.9425C72.3864 39.1725 73.431 40.3648 73.431 41.801Z" fill="#728943"/>
<path fill-rule="evenodd" clip-rule="evenodd" d="M73.5512 2.89832C73.5512 1.29746 72.2534 -0.000302281 70.6525 -0.000302351C69.0517 -0.000302421 67.7539 1.29746 67.7539 2.89832C67.7539 4.33459 68.7985 5.52687 70.1694 5.75687L70.1694 12.3188L71.1356 12.3188L71.1356 5.75687C72.5065 5.52687 73.5512 4.33459 73.5512 2.89832Z" fill="#728943"/>
<path fill-rule="evenodd" clip-rule="evenodd" d="M71.4995 21.2365L72.0675 20.9795C73.1589 20.4858 73.9151 19.3885 73.9151 18.1166C73.9151 16.3824 72.5092 14.9765 70.7749 14.9765C69.0406 14.9765 67.6347 16.3824 67.6347 18.1166C67.6347 19.3885 68.3909 20.4858 69.4823 20.9795L70.0502 21.2365V23.4137L69.1385 23.4651C67.599 23.552 66.5087 23.8377 65.7777 24.5292C65.1616 25.112 64.653 26.129 64.5254 28.0203H76.7828C76.6589 26.1846 76.176 25.173 75.5865 24.5836C74.8929 23.8902 73.86 23.5843 72.3968 23.4796L71.4995 23.4154V21.2365ZM77.751 28.0203C77.7701 28.3254 77.7799 28.6471 77.7799 28.9865H63.5283C63.5283 28.6471 63.5381 28.3254 63.5572 28.0203C63.8124 23.9542 65.7308 22.8505 68.3303 22.5621C68.4798 22.5456 68.6315 22.5317 68.7853 22.5201C68.884 22.5126 68.9836 22.5061 69.084 22.5005V21.8599C69.0716 21.8542 69.0592 21.8486 69.0469 21.8428C68.8749 21.763 68.7094 21.6715 68.5514 21.5695C67.4185 20.8385 66.6685 19.5652 66.6685 18.1166C66.6685 15.8487 68.507 14.0103 70.7749 14.0103C73.0428 14.0103 74.8813 15.8487 74.8813 18.1166C74.8813 19.5783 74.1175 20.8617 72.9674 21.5893C72.8222 21.6812 72.671 21.7641 72.5143 21.8375C72.4981 21.8451 72.482 21.8525 72.4657 21.8599V22.5159C72.5695 22.5233 72.6722 22.5317 72.774 22.5413C72.9098 22.554 73.0438 22.5688 73.1759 22.5859C75.6743 22.9088 77.5023 24.0581 77.751 28.0203Z" fill="#276D6F"/>
</g>
<defs>
<clipPath id="clip0_185_1346">
<rect width="193" height="64.7359" fill="white"/>
</clipPath>
</defs>
</svg>
