<?xml version="1.0"?>
<svg width="990" height="409" xmlns="http://www.w3.org/2000/svg" xmlns:svg="http://www.w3.org/2000/svg">
 <defs>
  <clipPath id="clip0_206_1281">
   <rect fill="white" height="409" id="svg_1" width="990"/>
  </clipPath>
 </defs>
 <g class="layer">
  <title>Layer 1</title>
  <g clip-path="url(#clip0_206_1281)" id="svg_2">
   <rect fill="white" height="409" id="svg_3" width="990"/>
   <path d="m398.5,205.25c0,37.58 -11.75,74.22 -33.6,104.8c-21.85,30.58 -52.71,53.56 -88.26,65.73c-35.56,12.17 -74.03,12.93 -110.04,2.16c-36,-10.76 -67.74,-32.52 -90.78,-62.21c-23.03,-29.7 -36.21,-65.85 -37.68,-103.4c-1.48,-37.56 8.82,-74.63 29.46,-106.04c20.63,-31.41 50.56,-55.59 85.61,-69.15c35.05,-13.56 73.47,-15.82 109.87,-6.48l-31.38,122.21c-10.92,-2.8 -22.45,-2.12 -32.96,1.95c-10.52,4.06 -19.5,11.32 -25.69,20.74c-6.19,9.43 -9.28,20.55 -8.83,31.81c0.44,11.27 4.39,22.11 11.3,31.02c6.91,8.91 16.43,15.44 27.24,18.67c10.8,3.23 22.34,3 33.01,-0.65c10.66,-3.65 19.92,-10.55 26.48,-19.72c6.55,-9.17 10.07,-20.17 10.07,-31.44l126.18,0z" fill="#E197B3" id="svg_4"/>
   <path d="m357.04,90.24c26.77,32.3 41.43,72.92 41.46,114.86l-126.18,0.11c-0.01,-12.59 -4.4,-24.77 -12.43,-34.46l97.15,-80.51z" fill="#DFF851" id="svg_5"/>
   <path d="m294.73,42.03c24.03,11.26 45.27,27.68 62.22,48.1l-97.09,80.58c-5.08,-6.12 -11.46,-11.05 -18.67,-14.43l53.54,-114.25z" fill="#2565DA" id="svg_6"/>
   <path d="m263.03,30.65c10.98,2.82 21.67,6.66 31.92,11.48l-53.69,114.18c-3.08,-1.44 -6.28,-2.59 -9.58,-3.44l31.35,-122.22z" fill="#E24630" id="svg_7"/>
   <path d="m522.7,17.94l-8.82,20.97l0.03,0.09l-6.75,0l0.03,-0.09l-4.98,-11.13l-4.92,11.22l-6.75,0l-8.94,-21.06l7.38,0l4.92,11.91l4.92,-11.91l6.69,0l4.98,11.79l4.86,-11.79l7.35,0zm24.58,7.08c0.45,1.1 0.72,2.57 0.85,4.41c0.13,1.84 0.21,4.57 0.21,8.19l0,1.38l-6.67,0l0,-5.73c0,-0.46 -0.01,-0.85 -0.03,-1.17c-0.01,-0.32 -0.05,-0.72 -0.12,-1.2c-0.05,-0.5 -0.14,-0.92 -0.27,-1.26c-0.12,-0.34 -0.29,-0.7 -0.53,-1.08c-0.22,-0.38 -0.49,-0.68 -0.82,-0.9c-0.31,-0.24 -0.72,-0.43 -1.19,-0.57c-0.48,-0.16 -1.04,-0.24 -1.66,-0.24c-2.83,0 -4.92,0.62 -6.23,1.86l0,10.29l-6.99,0l0,-21l6.99,0l0,6.09c2.23,-1.72 4.94,-2.58 8.13,-2.58c0.59,0 1.13,0.01 1.58,0.03c0.48,0.02 1.02,0.07 1.62,0.15c0.6,0.06 1.14,0.18 1.62,0.36c0.48,0.16 0.96,0.36 1.41,0.6c0.48,0.24 0.9,0.57 1.23,0.99c0.36,0.4 0.66,0.86 0.87,1.38zm15.01,-3.63c2.07,0 3.85,0.18 5.37,0.54c1.52,0.36 2.84,0.95 3.97,1.77c1.12,0.82 1.94,1.94 2.46,3.36c0.52,1.4 0.69,3.09 0.54,5.07l-17.83,0c0.1,0.58 0.6,1.11 1.5,1.59c0.93,0.46 2.23,0.69 3.94,0.69c1.53,0 3.06,-0.1 4.59,-0.3c1.54,-0.2 2.69,-0.4 3.47,-0.6l1.15,-0.3l3,4.41c-0.07,0.04 -0.18,0.1 -0.33,0.18c-0.16,0.06 -0.58,0.18 -1.24,0.36c-0.63,0.18 -1.37,0.34 -2.18,0.48c-0.82,0.14 -1.96,0.26 -3.43,0.36c-1.45,0.12 -3.05,0.18 -4.79,0.18c-2.05,0 -3.83,-0.15 -5.35,-0.45c-1.5,-0.3 -2.73,-0.71 -3.68,-1.23c-0.95,-0.52 -1.7,-1.18 -2.29,-1.98c-0.57,-0.8 -0.98,-1.64 -1.19,-2.52c-0.22,-0.88 -0.34,-1.88 -0.34,-3c0,-1.34 0.33,-2.56 0.97,-3.66c0.64,-1.1 1.52,-2.01 2.64,-2.73c1.12,-0.72 2.44,-1.27 3.99,-1.65c1.55,-0.38 3.25,-0.57 5.06,-0.57zm0.07,4.77c-1.11,0 -2.04,0.08 -2.83,0.24c-0.78,0.14 -1.35,0.34 -1.7,0.6c-0.36,0.26 -0.62,0.51 -0.79,0.75c-0.16,0.22 -0.24,0.46 -0.24,0.72l11.08,0c0,-1.54 -1.85,-2.31 -5.52,-2.31zm36.56,-0.99c0.48,1.08 0.77,2.47 0.87,4.17c0.12,1.68 0.18,4.44 0.18,8.28l0,1.38l-6.72,0l0,-5.73c0,-0.48 -0.01,-0.87 -0.03,-1.17c0,-0.32 -0.04,-0.73 -0.12,-1.23c-0.06,-0.5 -0.15,-0.91 -0.27,-1.23c-0.12,-0.34 -0.3,-0.7 -0.54,-1.08c-0.24,-0.38 -0.53,-0.68 -0.87,-0.9c-0.34,-0.24 -0.77,-0.44 -1.29,-0.6c-0.52,-0.16 -1.11,-0.24 -1.77,-0.24c-2.26,0 -4.07,0.71 -5.43,2.13l0,10.05l-6.84,0l0,-17.37l6.84,0l0,2.4c0.8,-0.56 1.47,-0.99 2.01,-1.29c0.56,-0.32 1.34,-0.61 2.34,-0.87c1.02,-0.26 2.16,-0.39 3.42,-0.39c0.72,0 1.37,0.02 1.95,0.06c0.6,0.04 1.24,0.14 1.92,0.3c0.68,0.16 1.27,0.37 1.77,0.63c0.52,0.24 1.01,0.59 1.47,1.05c0.48,0.46 0.85,1.01 1.11,1.65zm17.16,-7.23l6.99,0l0,5.49c2.44,-1.22 5.18,-1.83 8.22,-1.83c1.48,0 2.87,0.18 4.17,0.54c1.32,0.34 2.5,0.85 3.54,1.53c1.04,0.66 1.86,1.55 2.46,2.67c0.6,1.1 0.9,2.35 0.9,3.75c0,1.12 -0.12,2.14 -0.36,3.06c-0.22,0.9 -0.53,1.66 -0.93,2.28c-0.38,0.6 -0.87,1.13 -1.47,1.59c-0.6,0.46 -1.21,0.82 -1.83,1.08c-0.62,0.26 -1.33,0.47 -2.13,0.63c-0.8,0.14 -1.54,0.23 -2.22,0.27c-0.68,0.06 -1.44,0.09 -2.28,0.09c-3.48,0 -6.17,-0.67 -8.07,-2.01l0,1.86l-6.99,0l0,-21zm6.99,11.34l0,2.37c0.56,0.9 1.33,1.5 2.31,1.8c0.98,0.28 2.44,0.42 4.38,0.42c3.44,0 5.16,-1.19 5.16,-3.57c0,-0.4 -0.04,-0.77 -0.12,-1.11c-0.08,-0.34 -0.18,-0.62 -0.3,-0.84c-0.12,-0.24 -0.3,-0.45 -0.54,-0.63c-0.22,-0.2 -0.41,-0.35 -0.57,-0.45c-0.14,-0.12 -0.37,-0.22 -0.69,-0.3c-0.32,-0.08 -0.55,-0.13 -0.69,-0.15c-0.14,-0.04 -0.38,-0.07 -0.72,-0.09c-0.34,-0.02 -0.54,-0.03 -0.6,-0.03c-0.04,0 -0.21,0 -0.51,0c-4.1,0 -6.47,0.86 -7.11,2.58zm34.35,-7.65c0.9,0 1.75,0.07 2.55,0.21c0.82,0.12 1.49,0.27 2.01,0.45c0.54,0.18 1.01,0.37 1.41,0.57c0.4,0.18 0.69,0.33 0.87,0.45l0.27,0.18l-2.61,5.34c-0.18,-0.1 -0.44,-0.22 -0.78,-0.36c-0.34,-0.16 -0.98,-0.37 -1.92,-0.63c-0.94,-0.26 -1.83,-0.42 -2.67,-0.48c-0.74,-0.04 -1.44,0 -2.1,0.12c-0.66,0.12 -1.18,0.25 -1.56,0.39c-0.38,0.12 -0.81,0.35 -1.29,0.69c-0.46,0.32 -0.75,0.54 -0.87,0.66c-0.1,0.1 -0.33,0.32 -0.69,0.66l0,9.12l-6.51,0l0,-17.4l6.51,0l0,2.43c1.28,-1.6 3.74,-2.4 7.38,-2.4zm19.25,-0.12c0.8,0 1.59,0.04 2.37,0.12c0.78,0.06 1.61,0.18 2.49,0.36c0.88,0.16 1.7,0.38 2.46,0.66c0.78,0.28 1.53,0.65 2.25,1.11c0.72,0.46 1.33,0.99 1.83,1.59c0.52,0.6 0.93,1.33 1.23,2.19c0.3,0.84 0.45,1.78 0.45,2.82c0,1.64 -0.3,3.04 -0.9,4.2c-0.58,1.16 -1.45,2.08 -2.61,2.76c-1.16,0.66 -2.5,1.14 -4.02,1.44c-1.52,0.28 -3.32,0.42 -5.4,0.42c-4.32,0 -7.52,-0.75 -9.6,-2.25c-2.06,-1.5 -3.09,-3.8 -3.09,-6.9c0,-1.28 0.27,-2.42 0.81,-3.42c0.54,-1.02 1.23,-1.84 2.07,-2.46c0.86,-0.62 1.86,-1.13 3,-1.53c1.14,-0.42 2.25,-0.71 3.33,-0.87c1.1,-0.16 2.21,-0.24 3.33,-0.24zm0.24,12.75c1.76,0 3.1,-0.29 4.02,-0.87c0.94,-0.6 1.41,-1.61 1.41,-3.03c0,-0.78 -0.18,-1.44 -0.54,-1.98c-0.36,-0.56 -0.84,-0.97 -1.44,-1.23c-0.58,-0.26 -1.16,-0.44 -1.74,-0.54c-0.56,-0.12 -1.16,-0.18 -1.8,-0.18c-0.6,0 -1.19,0.06 -1.77,0.18c-0.56,0.12 -1.12,0.32 -1.68,0.6c-0.54,0.26 -0.98,0.65 -1.32,1.17c-0.32,0.52 -0.48,1.13 -0.48,1.83c0,1.38 0.43,2.4 1.29,3.06c0.88,0.66 2.23,0.99 4.05,0.99zm29.52,-12.66l9.54,0l-9.33,8.73l9.33,8.67l-9.54,0l-5.55,-5.34l-2.25,2.19l0,3.15l-6.99,0l0,-21l6.99,0l0,10.53l7.8,-6.93zm20.1,-0.21c2.06,0 3.85,0.18 5.37,0.54c1.52,0.36 2.84,0.95 3.96,1.77c1.12,0.82 1.94,1.94 2.46,3.36c0.52,1.4 0.7,3.09 0.54,5.07l-17.82,0c0.1,0.58 0.6,1.11 1.5,1.59c0.92,0.46 2.23,0.69 3.93,0.69c1.54,0 3.07,-0.1 4.59,-0.3c1.54,-0.2 2.7,-0.4 3.48,-0.6l1.14,-0.3l3,4.41c-0.06,0.04 -0.17,0.1 -0.33,0.18c-0.16,0.06 -0.57,0.18 -1.23,0.36c-0.64,0.18 -1.37,0.34 -2.19,0.48c-0.82,0.14 -1.96,0.26 -3.42,0.36c-1.46,0.12 -3.06,0.18 -4.8,0.18c-2.04,0 -3.82,-0.15 -5.34,-0.45c-1.5,-0.3 -2.73,-0.71 -3.69,-1.23c-0.94,-0.52 -1.7,-1.18 -2.28,-1.98c-0.58,-0.8 -0.98,-1.64 -1.2,-2.52c-0.22,-0.88 -0.33,-1.88 -0.33,-3c0,-1.34 0.32,-2.56 0.96,-3.66c0.64,-1.1 1.52,-2.01 2.64,-2.73c1.12,-0.72 2.45,-1.27 3.99,-1.65c1.56,-0.38 3.25,-0.57 5.07,-0.57zm0.06,4.77c-1.1,0 -2.04,0.08 -2.82,0.24c-0.78,0.14 -1.35,0.34 -1.71,0.6c-0.36,0.26 -0.62,0.51 -0.78,0.75c-0.16,0.22 -0.24,0.46 -0.24,0.72l11.07,0c0,-1.54 -1.84,-2.31 -5.52,-2.31zm36.57,-0.99c0.48,1.08 0.77,2.47 0.87,4.17c0.12,1.68 0.18,4.44 0.18,8.28l0,1.38l-6.72,0l0,-5.73c0,-0.48 -0.01,-0.87 -0.03,-1.17c0,-0.32 -0.04,-0.73 -0.12,-1.23c-0.06,-0.5 -0.15,-0.91 -0.27,-1.23c-0.12,-0.34 -0.3,-0.7 -0.54,-1.08c-0.24,-0.38 -0.53,-0.68 -0.87,-0.9c-0.34,-0.24 -0.77,-0.44 -1.29,-0.6c-0.52,-0.16 -1.11,-0.24 -1.77,-0.24c-2.26,0 -4.07,0.71 -5.43,2.13l0,10.05l-6.84,0l0,-17.37l6.84,0l0,2.4c0.8,-0.56 1.47,-0.99 2.01,-1.29c0.56,-0.32 1.34,-0.61 2.34,-0.87c1.02,-0.26 2.16,-0.39 3.42,-0.39c0.72,0 1.37,0.02 1.95,0.06c0.6,0.04 1.24,0.14 1.92,0.3c0.68,0.16 1.27,0.37 1.77,0.63c0.52,0.24 1.01,0.59 1.47,1.05c0.48,0.46 0.85,1.01 1.11,1.65zm36.48,-7.17l6.96,0l0,21l-6.96,0l0,-1.86c-1.9,1.34 -4.59,2.01 -8.07,2.01c-0.84,0 -1.6,-0.03 -2.28,-0.09c-0.68,-0.04 -1.42,-0.13 -2.22,-0.27c-0.8,-0.16 -1.51,-0.37 -2.13,-0.63c-0.62,-0.26 -1.23,-0.62 -1.83,-1.08c-0.6,-0.46 -1.1,-0.99 -1.5,-1.59c-0.38,-0.62 -0.69,-1.38 -0.93,-2.28c-0.24,-0.92 -0.36,-1.94 -0.36,-3.06c0,-1.4 0.3,-2.65 0.9,-3.75c0.62,-1.12 1.45,-2.01 2.49,-2.67c1.04,-0.68 2.21,-1.19 3.51,-1.53c1.32,-0.36 2.72,-0.54 4.2,-0.54c3.04,0 5.78,0.61 8.22,1.83l0,-5.49zm0,13.71l0,-2.37c-0.64,-1.72 -3.01,-2.58 -7.11,-2.58c-0.02,0 -0.06,0 -0.12,0c-0.2,0 -0.36,0 -0.48,0c-0.12,0 -0.3,0.01 -0.54,0.03c-0.24,0 -0.44,0.02 -0.6,0.06c-0.16,0.04 -0.37,0.09 -0.63,0.15c-0.24,0.04 -0.45,0.11 -0.63,0.21c-0.16,0.08 -0.34,0.19 -0.54,0.33c-0.2,0.12 -0.37,0.27 -0.51,0.45c-0.12,0.18 -0.24,0.38 -0.36,0.6c-0.12,0.22 -0.21,0.48 -0.27,0.78c-0.06,0.3 -0.09,0.63 -0.09,0.99c0,2.38 1.73,3.57 5.19,3.57c1.3,0 2.33,-0.05 3.09,-0.15c0.78,-0.1 1.47,-0.31 2.07,-0.63c0.62,-0.34 1.13,-0.82 1.53,-1.44zm20.85,-10.2c0.8,0 1.59,0.04 2.37,0.12c0.78,0.06 1.61,0.18 2.49,0.36c0.88,0.16 1.7,0.38 2.46,0.66c0.78,0.28 1.53,0.65 2.25,1.11c0.72,0.46 1.33,0.99 1.83,1.59c0.52,0.6 0.93,1.33 1.23,2.19c0.3,0.84 0.45,1.78 0.45,2.82c0,1.64 -0.3,3.04 -0.9,4.2c-0.58,1.16 -1.45,2.08 -2.61,2.76c-1.16,0.66 -2.5,1.14 -4.02,1.44c-1.52,0.28 -3.32,0.42 -5.4,0.42c-4.32,0 -7.52,-0.75 -9.6,-2.25c-2.06,-1.5 -3.09,-3.8 -3.09,-6.9c0,-1.28 0.27,-2.42 0.81,-3.42c0.54,-1.02 1.23,-1.84 2.07,-2.46c0.86,-0.62 1.86,-1.13 3,-1.53c1.14,-0.42 2.25,-0.71 3.33,-0.87c1.1,-0.16 2.21,-0.24 3.33,-0.24zm0.24,12.75c1.76,0 3.1,-0.29 4.02,-0.87c0.94,-0.6 1.41,-1.61 1.41,-3.03c0,-0.78 -0.18,-1.44 -0.54,-1.98c-0.36,-0.56 -0.84,-0.97 -1.44,-1.23c-0.58,-0.26 -1.16,-0.44 -1.74,-0.54c-0.56,-0.12 -1.16,-0.18 -1.8,-0.18c-0.6,0 -1.19,0.06 -1.77,0.18c-0.56,0.12 -1.12,0.32 -1.68,0.6c-0.54,0.26 -0.98,0.65 -1.32,1.17c-0.32,0.52 -0.48,1.13 -0.48,1.83c0,1.38 0.43,2.4 1.29,3.06c0.88,0.66 2.23,0.99 4.05,0.99zm43.45,-12.66l6.94,0l-7.62,17.4l-6.39,0l-5.47,-9.84l-5.49,9.84l-6.39,0l-7.62,-17.4l6.94,0l4.02,9.78l5.85,-9.78l5.28,0l5.93,9.78l4.02,-9.78zm30.96,3.57c0.48,1.08 0.77,2.47 0.87,4.17c0.12,1.68 0.18,4.44 0.18,8.28l0,1.38l-6.72,0l0,-5.73c0,-0.48 -0.01,-0.87 -0.03,-1.17c0,-0.32 -0.04,-0.73 -0.12,-1.23c-0.06,-0.5 -0.15,-0.91 -0.27,-1.23c-0.12,-0.34 -0.3,-0.7 -0.54,-1.08c-0.24,-0.38 -0.53,-0.68 -0.87,-0.9c-0.34,-0.24 -0.77,-0.44 -1.29,-0.6c-0.52,-0.16 -1.11,-0.24 -1.77,-0.24c-2.26,0 -4.07,0.71 -5.43,2.13l0,10.05l-6.84,0l0,-17.37l6.84,0l0,2.4c0.8,-0.56 1.47,-0.99 2.01,-1.29c0.56,-0.32 1.34,-0.61 2.34,-0.87c1.02,-0.26 2.16,-0.39 3.42,-0.39c0.72,0 1.37,0.02 1.95,0.06c0.6,0.04 1.24,0.14 1.92,0.3c0.68,0.16 1.27,0.37 1.77,0.63c0.52,0.24 1.01,0.59 1.47,1.05c0.48,0.46 0.85,1.01 1.11,1.65zm17.16,-7.23l6.99,0l0,5.49c2.44,-1.22 5.18,-1.83 8.22,-1.83c1.48,0 2.87,0.18 4.17,0.54c1.32,0.34 2.5,0.85 3.54,1.53c1.04,0.66 1.86,1.55 2.46,2.67c0.6,1.1 0.9,2.35 0.9,3.75c0,1.12 -0.12,2.14 -0.36,3.06c-0.22,0.9 -0.53,1.66 -0.93,2.28c-0.38,0.6 -0.87,1.13 -1.47,1.59c-0.6,0.46 -1.21,0.82 -1.83,1.08c-0.62,0.26 -1.33,0.47 -2.13,0.63c-0.8,0.14 -1.54,0.23 -2.22,0.27c-0.68,0.06 -1.44,0.09 -2.28,0.09c-3.48,0 -6.17,-0.67 -8.07,-2.01l0,1.86l-6.99,0l0,-21zm6.99,11.34l0,2.37c0.56,0.9 1.33,1.5 2.31,1.8c0.98,0.28 2.44,0.42 4.38,0.42c3.44,0 5.16,-1.19 5.16,-3.57c0,-0.4 -0.04,-0.77 -0.12,-1.11c-0.08,-0.34 -0.18,-0.62 -0.3,-0.84c-0.12,-0.24 -0.3,-0.45 -0.54,-0.63c-0.22,-0.2 -0.41,-0.35 -0.57,-0.45c-0.14,-0.12 -0.37,-0.22 -0.69,-0.3c-0.32,-0.08 -0.55,-0.13 -0.69,-0.15c-0.14,-0.04 -0.38,-0.07 -0.72,-0.09c-0.34,-0.02 -0.54,-0.03 -0.6,-0.03c-0.04,0 -0.21,0 -0.51,0c-4.1,0 -6.47,0.86 -7.11,2.58zm37.35,-7.47l7.59,0l-12.48,23.13l-7.59,0l3.09,-5.76l-0.09,0.03l-9.69,-17.4l7.62,0l5.85,10.53l5.7,-10.53zm-462.05,41.58c2.06,0 3.85,0.18 5.37,0.54c1.52,0.36 2.84,0.95 3.96,1.77c1.12,0.82 1.94,1.94 2.46,3.36c0.52,1.4 0.7,3.09 0.54,5.07l-17.82,0c0.1,0.58 0.6,1.11 1.5,1.59c0.92,0.46 2.23,0.69 3.93,0.69c1.54,0 3.07,-0.1 4.59,-0.3c1.54,-0.2 2.7,-0.4 3.48,-0.6l1.14,-0.3l3,4.41c-0.06,0.04 -0.17,0.1 -0.33,0.18c-0.16,0.06 -0.57,0.18 -1.23,0.36c-0.64,0.18 -1.37,0.34 -2.19,0.48c-0.82,0.14 -1.96,0.26 -3.42,0.36c-1.46,0.12 -3.06,0.18 -4.8,0.18c-2.04,0 -3.82,-0.15 -5.34,-0.45c-1.5,-0.3 -2.73,-0.71 -3.69,-1.23c-0.94,-0.52 -1.7,-1.18 -2.28,-1.98c-0.58,-0.8 -0.98,-1.64 -1.2,-2.52c-0.22,-0.88 -0.33,-1.88 -0.33,-3c0,-1.34 0.32,-2.56 0.96,-3.66c0.64,-1.1 1.52,-2.01 2.64,-2.73c1.12,-0.72 2.45,-1.27 3.99,-1.65c1.56,-0.38 3.25,-0.57 5.07,-0.57zm0.06,4.77c-1.1,0 -2.04,0.08 -2.82,0.24c-0.78,0.14 -1.35,0.34 -1.71,0.6c-0.36,0.26 -0.62,0.51 -0.78,0.75c-0.16,0.22 -0.24,0.46 -0.24,0.72l11.07,0c0,-1.54 -1.84,-2.31 -5.52,-2.31zm25.46,7.14c0.5,0 1.04,-0.03 1.64,-0.09c0.61,-0.08 1.14,-0.17 1.63,-0.27c0.5,-0.1 0.96,-0.2 1.37,-0.3c0.42,-0.12 0.75,-0.21 1,-0.27c0.25,-0.08 0.38,-0.12 0.36,-0.12l2.49,5.4c-0.31,0.12 -0.74,0.26 -1.33,0.42c-0.57,0.14 -1.82,0.35 -3.75,0.63c-1.89,0.26 -3.89,0.39 -5.97,0.39c-0.95,0 -1.76,-0.03 -2.4,-0.09c-0.62,-0.08 -1.18,-0.24 -1.7,-0.48c-0.53,-0.26 -0.93,-0.57 -1.2,-0.93c-0.29,-0.38 -0.52,-0.92 -0.73,-1.62c-0.2,-0.7 -0.33,-1.49 -0.39,-2.37c-0.06,-0.88 -0.08,-2 -0.08,-3.36l0,-3.48l-3.49,0l0,-5.22l3.49,0l0,-3.63l6.66,0l0,3.63l8.79,0l0,5.22l-8.79,0l0,3.48c0,0.04 0,0.1 0,0.18c0,0.06 0.01,0.2 0.03,0.42c0.01,0.22 0.04,0.43 0.09,0.63c0.04,0.18 0.12,0.39 0.24,0.63c0.11,0.24 0.26,0.45 0.42,0.63c0.15,0.16 0.38,0.3 0.65,0.42c0.28,0.1 0.61,0.15 0.97,0.15zm32.92,-8.28c0.44,1.1 0.72,2.57 0.84,4.41c0.14,1.84 0.21,4.57 0.21,8.19l0,1.38l-6.66,0l0,-5.73c0,-0.46 -0.01,-0.85 -0.03,-1.17c-0.02,-0.32 -0.06,-0.72 -0.12,-1.2c-0.06,-0.5 -0.15,-0.92 -0.27,-1.26c-0.12,-0.34 -0.3,-0.7 -0.54,-1.08c-0.22,-0.38 -0.49,-0.68 -0.81,-0.9c-0.32,-0.24 -0.72,-0.43 -1.2,-0.57c-0.48,-0.16 -1.03,-0.24 -1.65,-0.24c-2.84,0 -4.92,0.62 -6.24,1.86l0,10.29l-6.99,0l0,-21l6.99,0l0,6.09c2.24,-1.72 4.95,-2.58 8.13,-2.58c0.6,0 1.13,0.01 1.59,0.03c0.48,0.02 1.02,0.07 1.62,0.15c0.6,0.06 1.14,0.18 1.62,0.36c0.48,0.16 0.95,0.36 1.41,0.6c0.48,0.24 0.89,0.57 1.23,0.99c0.36,0.4 0.65,0.86 0.87,1.38zm25.76,0.15c0.48,1.08 0.77,2.47 0.87,4.17c0.12,1.68 0.18,4.44 0.18,8.28l0,1.38l-6.72,0l0,-5.73c0,-0.48 -0.01,-0.87 -0.03,-1.17c0,-0.32 -0.04,-0.73 -0.12,-1.23c-0.06,-0.5 -0.15,-0.91 -0.27,-1.23c-0.12,-0.34 -0.3,-0.7 -0.54,-1.08c-0.24,-0.38 -0.53,-0.68 -0.87,-0.9c-0.34,-0.24 -0.77,-0.44 -1.29,-0.6c-0.52,-0.16 -1.11,-0.24 -1.77,-0.24c-2.26,0 -4.07,0.71 -5.43,2.13l0,10.05l-6.84,0l0,-17.37l6.84,0l0,2.4c0.8,-0.56 1.47,-0.99 2.01,-1.29c0.56,-0.32 1.34,-0.61 2.34,-0.87c1.02,-0.26 2.16,-0.39 3.42,-0.39c0.72,0 1.37,0.02 1.95,0.06c0.6,0.04 1.24,0.14 1.92,0.3c0.68,0.16 1.27,0.37 1.77,0.63c0.52,0.24 1.01,0.59 1.47,1.05c0.48,0.46 0.85,1.01 1.11,1.65zm2.93,-3.54l6.99,0l0,17.37l-6.99,0l0,-17.37zm0,-4.74l6.99,0l0,3.39l-6.99,0l0,-3.39zm26.79,15.03l6.96,0.96c-0.18,0.54 -0.52,1.26 -1.02,2.16l0.03,0c-0.06,0.1 -0.16,0.24 -0.3,0.42c-0.2,0.28 -0.45,0.55 -0.75,0.81c-0.28,0.26 -0.74,0.58 -1.38,0.96c-0.62,0.36 -1.33,0.68 -2.13,0.96c-0.8,0.26 -1.84,0.49 -3.12,0.69c-1.28,0.2 -2.67,0.3 -4.17,0.3c-1.64,0 -3.1,-0.09 -4.38,-0.27c-1.28,-0.2 -2.37,-0.48 -3.27,-0.84c-0.88,-0.36 -1.63,-0.78 -2.25,-1.26c-0.6,-0.5 -1.08,-1.08 -1.44,-1.74c-0.34,-0.66 -0.59,-1.34 -0.75,-2.04c-0.14,-0.72 -0.21,-1.52 -0.21,-2.4c0,-2 0.53,-3.69 1.59,-5.07c1.06,-1.4 2.48,-2.42 4.26,-3.06c1.8,-0.66 3.89,-0.99 6.27,-0.99c1.74,0 3.32,0.13 4.74,0.39c1.42,0.24 2.53,0.53 3.33,0.87c0.82,0.32 1.53,0.7 2.13,1.14c0.62,0.44 1.03,0.8 1.23,1.08c0.22,0.26 0.39,0.51 0.51,0.75c0.26,0.38 0.48,0.8 0.66,1.26c0.18,0.44 0.29,0.78 0.33,1.02l0.09,0.39l-7.02,1.05c0,-0.08 -0.03,-0.17 -0.09,-0.27c-0.04,-0.12 -0.18,-0.33 -0.42,-0.63c-0.24,-0.3 -0.54,-0.56 -0.9,-0.78c-0.36,-0.22 -0.91,-0.42 -1.65,-0.6c-0.72,-0.2 -1.55,-0.3 -2.49,-0.3c-1.04,0 -1.93,0.08 -2.67,0.24c-0.74,0.14 -1.31,0.32 -1.71,0.54c-0.4,0.2 -0.72,0.47 -0.96,0.81c-0.22,0.34 -0.36,0.65 -0.42,0.93c-0.04,0.26 -0.06,0.57 -0.06,0.93c0,0.42 0.07,0.81 0.21,1.17c0.16,0.36 0.43,0.73 0.81,1.11c0.38,0.38 0.98,0.68 1.8,0.9c0.82,0.22 1.82,0.33 3,0.33c0.98,0 1.84,-0.06 2.58,-0.18c0.74,-0.14 1.29,-0.3 1.65,-0.48c0.38,-0.2 0.68,-0.39 0.9,-0.57c0.22,-0.2 0.36,-0.37 0.42,-0.51l0.06,-0.18zm23.07,-13.98l6.99,0l0,5.49c2.44,-1.22 5.18,-1.83 8.22,-1.83c1.48,0 2.87,0.18 4.17,0.54c1.32,0.34 2.5,0.85 3.54,1.53c1.04,0.66 1.86,1.55 2.46,2.67c0.6,1.1 0.9,2.35 0.9,3.75c0,1.12 -0.12,2.14 -0.36,3.06c-0.22,0.9 -0.53,1.66 -0.93,2.28c-0.38,0.6 -0.87,1.13 -1.47,1.59c-0.6,0.46 -1.21,0.82 -1.83,1.08c-0.62,0.26 -1.33,0.47 -2.13,0.63c-0.8,0.14 -1.54,0.23 -2.22,0.27c-0.68,0.06 -1.44,0.09 -2.28,0.09c-3.48,0 -6.17,-0.67 -8.07,-2.01l0,1.86l-6.99,0l0,-21zm6.99,11.34l0,2.37c0.56,0.9 1.33,1.5 2.31,1.8c0.98,0.28 2.44,0.42 4.38,0.42c3.44,0 5.16,-1.19 5.16,-3.57c0,-0.4 -0.04,-0.77 -0.12,-1.11c-0.08,-0.34 -0.18,-0.62 -0.3,-0.84c-0.12,-0.24 -0.3,-0.45 -0.54,-0.63c-0.22,-0.2 -0.41,-0.35 -0.57,-0.45c-0.14,-0.12 -0.37,-0.22 -0.69,-0.3c-0.32,-0.08 -0.55,-0.13 -0.69,-0.15c-0.14,-0.04 -0.38,-0.07 -0.72,-0.09c-0.34,-0.02 -0.54,-0.03 -0.6,-0.03c-0.04,0 -0.21,0 -0.51,0c-4.1,0 -6.47,0.86 -7.11,2.58zm45.32,9.75l-6.78,0c0,-0.5 -0.01,-1.03 -0.03,-1.59c-2.12,1.26 -4.57,1.89 -7.35,1.89c-0.82,0 -1.52,-0.01 -2.1,-0.03c-0.56,-0.02 -1.26,-0.07 -2.1,-0.15c-0.84,-0.08 -1.55,-0.19 -2.13,-0.33c-0.58,-0.14 -1.19,-0.35 -1.83,-0.63c-0.64,-0.28 -1.16,-0.61 -1.56,-0.99c-0.4,-0.4 -0.73,-0.9 -0.99,-1.5c-0.26,-0.62 -0.39,-1.3 -0.39,-2.04c0,-0.94 0.3,-1.75 0.9,-2.43c0.62,-0.7 1.46,-1.25 2.52,-1.65c1.06,-0.4 2.22,-0.69 3.48,-0.87c1.26,-0.2 2.62,-0.3 4.08,-0.3c2.48,0 4.72,0.37 6.72,1.11c-0.4,-1.2 -1.08,-1.98 -2.04,-2.34c-0.94,-0.38 -2.44,-0.57 -4.5,-0.57c-1.68,0 -3.3,0.12 -4.86,0.36c-1.54,0.22 -2.53,0.4 -2.97,0.54c-0.42,0.12 -0.78,0.23 -1.08,0.33l-0.84,-4.77c3,-1.12 6.43,-1.68 10.29,-1.68c6.82,0 10.89,1.51 12.21,4.53c0.58,1.32 0.95,2.99 1.11,5.01c0.16,2 0.24,4.7 0.24,8.1zm-13.38,-4.11c0.98,0 1.94,-0.08 2.88,-0.24c0.96,-0.16 1.71,-0.34 2.25,-0.54c0.54,-0.2 0.87,-0.38 0.99,-0.54c0,-0.18 0,-0.29 0,-0.33c-0.56,-0.52 -2.48,-0.78 -5.76,-0.78c-1.66,0 -2.85,0.1 -3.57,0.3c-0.72,0.18 -1.08,0.47 -1.08,0.87c0,0.84 1.43,1.26 4.29,1.26zm32.86,-3l6.96,0.96c-0.18,0.54 -0.52,1.26 -1.02,2.16l0.03,0c-0.06,0.1 -0.16,0.24 -0.3,0.42c-0.2,0.28 -0.45,0.55 -0.75,0.81c-0.28,0.26 -0.74,0.58 -1.38,0.96c-0.62,0.36 -1.33,0.68 -2.13,0.96c-0.8,0.26 -1.84,0.49 -3.12,0.69c-1.28,0.2 -2.67,0.3 -4.17,0.3c-1.64,0 -3.1,-0.09 -4.38,-0.27c-1.28,-0.2 -2.37,-0.48 -3.27,-0.84c-0.88,-0.36 -1.63,-0.78 -2.25,-1.26c-0.6,-0.5 -1.08,-1.08 -1.44,-1.74c-0.34,-0.66 -0.59,-1.34 -0.75,-2.04c-0.14,-0.72 -0.21,-1.52 -0.21,-2.4c0,-2 0.53,-3.69 1.59,-5.07c1.06,-1.4 2.48,-2.42 4.26,-3.06c1.8,-0.66 3.89,-0.99 6.27,-0.99c1.74,0 3.32,0.13 4.74,0.39c1.42,0.24 2.53,0.53 3.33,0.87c0.82,0.32 1.53,0.7 2.13,1.14c0.62,0.44 1.03,0.8 1.23,1.08c0.22,0.26 0.39,0.51 0.51,0.75c0.26,0.38 0.48,0.8 0.66,1.26c0.18,0.44 0.29,0.78 0.33,1.02l0.09,0.39l-7.02,1.05c0,-0.08 -0.03,-0.17 -0.09,-0.27c-0.04,-0.12 -0.18,-0.33 -0.42,-0.63c-0.24,-0.3 -0.54,-0.56 -0.9,-0.78c-0.36,-0.22 -0.91,-0.42 -1.65,-0.6c-0.72,-0.2 -1.55,-0.3 -2.49,-0.3c-1.04,0 -1.93,0.08 -2.67,0.24c-0.74,0.14 -1.31,0.32 -1.71,0.54c-0.4,0.2 -0.72,0.47 -0.96,0.81c-0.22,0.34 -0.36,0.65 -0.42,0.93c-0.04,0.26 -0.06,0.57 -0.06,0.93c0,0.42 0.07,0.81 0.21,1.17c0.16,0.36 0.43,0.73 0.81,1.11c0.38,0.38 0.98,0.68 1.8,0.9c0.82,0.22 1.82,0.33 3,0.33c0.98,0 1.84,-0.06 2.58,-0.18c0.74,-0.14 1.29,-0.3 1.65,-0.48c0.38,-0.2 0.68,-0.39 0.9,-0.57c0.22,-0.2 0.36,-0.37 0.42,-0.51l0.06,-0.18zm23.15,-10.32l9.55,0l-9.33,8.73l9.33,8.67l-9.55,0l-5.54,-5.34l-2.25,2.19l0,3.15l-6.99,0l0,-21l6.99,0l0,10.53l7.79,-6.93zm26.8,0.33l6.96,0l0,14.7c0,3.46 -1.03,6 -3.09,7.62c-2.06,1.64 -5.41,2.46 -10.05,2.46c-1.74,0 -3.37,-0.07 -4.89,-0.21c-1.52,-0.12 -2.75,-0.27 -3.69,-0.45c-0.92,-0.18 -1.72,-0.37 -2.4,-0.57c-0.68,-0.18 -1.16,-0.33 -1.44,-0.45l-0.39,-0.18l2.28,-5.4c0.06,0.06 0.15,0.13 0.27,0.21c0.14,0.1 0.47,0.27 0.99,0.51c0.52,0.24 1.09,0.45 1.71,0.63c0.64,0.18 1.5,0.34 2.58,0.48c1.1,0.14 2.27,0.21 3.51,0.21c0.88,0 1.68,-0.05 2.4,-0.15c0.74,-0.1 1.36,-0.24 1.86,-0.42c0.5,-0.18 0.95,-0.39 1.35,-0.63c0.4,-0.24 0.71,-0.49 0.93,-0.75c0.24,-0.24 0.44,-0.49 0.6,-0.75c0.16,-0.26 0.27,-0.5 0.33,-0.72c0.06,-0.24 0.1,-0.45 0.12,-0.63c0.04,-0.18 0.06,-0.33 0.06,-0.45l0,-0.15l0,-0.72c-0.34,0.84 -1.31,1.56 -2.91,2.16c-1.6,0.6 -3.37,0.9 -5.31,0.9c-1.22,0 -2.35,-0.07 -3.39,-0.21c-1.04,-0.16 -2.05,-0.43 -3.03,-0.81c-0.96,-0.38 -1.78,-0.86 -2.46,-1.44c-0.66,-0.58 -1.2,-1.33 -1.62,-2.25c-0.4,-0.94 -0.6,-2.01 -0.6,-3.21c0,-1.18 0.12,-2.24 0.36,-3.18c0.24,-0.96 0.55,-1.76 0.93,-2.4c0.4,-0.66 0.9,-1.23 1.5,-1.71c0.6,-0.5 1.21,-0.88 1.83,-1.14c0.62,-0.28 1.33,-0.5 2.13,-0.66c0.8,-0.16 1.54,-0.26 2.22,-0.3c0.68,-0.06 1.44,-0.09 2.28,-0.09c3.48,0 6.17,0.71 8.07,2.13l0,-1.98zm0,9.12l0,-1.32c0,-0.46 -0.21,-0.87 -0.63,-1.23c-0.4,-0.36 -0.95,-0.64 -1.65,-0.84c-0.68,-0.2 -1.44,-0.35 -2.28,-0.45c-0.82,-0.12 -1.7,-0.18 -2.64,-0.18c-3.36,0 -5.04,1.15 -5.04,3.45c0,0.56 0.1,1.05 0.3,1.47c0.2,0.42 0.48,0.75 0.84,0.99c0.36,0.24 0.71,0.44 1.05,0.6c0.36,0.16 0.76,0.27 1.2,0.33c0.46,0.06 0.8,0.1 1.02,0.12c0.24,0 0.49,0 0.75,0c0.32,0 0.6,0 0.84,0c0.26,-0.02 0.68,-0.05 1.26,-0.09c0.58,-0.06 1.1,-0.15 1.56,-0.27c0.46,-0.14 0.94,-0.31 1.44,-0.51c0.52,-0.2 0.95,-0.48 1.29,-0.84c0.34,-0.36 0.57,-0.77 0.69,-1.23zm22.75,-9.42c0.9,0 1.75,0.07 2.55,0.21c0.82,0.12 1.49,0.27 2.01,0.45c0.54,0.18 1.01,0.37 1.41,0.57c0.4,0.18 0.69,0.33 0.87,0.45l0.27,0.18l-2.61,5.34c-0.18,-0.1 -0.44,-0.22 -0.78,-0.36c-0.34,-0.16 -0.98,-0.37 -1.92,-0.63c-0.94,-0.26 -1.83,-0.42 -2.67,-0.48c-0.74,-0.04 -1.44,0 -2.1,0.12c-0.66,0.12 -1.18,0.25 -1.56,0.39c-0.38,0.12 -0.81,0.35 -1.29,0.69c-0.46,0.32 -0.75,0.54 -0.87,0.66c-0.1,0.1 -0.33,0.32 -0.69,0.66l0,9.12l-6.51,0l0,-17.4l6.51,0l0,2.43c1.28,-1.6 3.74,-2.4 7.38,-2.4zm19.25,-0.12c0.8,0 1.59,0.04 2.37,0.12c0.78,0.06 1.61,0.18 2.49,0.36c0.88,0.16 1.7,0.38 2.46,0.66c0.78,0.28 1.53,0.65 2.25,1.11c0.72,0.46 1.33,0.99 1.83,1.59c0.52,0.6 0.93,1.33 1.23,2.19c0.3,0.84 0.45,1.78 0.45,2.82c0,1.64 -0.3,3.04 -0.9,4.2c-0.58,1.16 -1.45,2.08 -2.61,2.76c-1.16,0.66 -2.5,1.14 -4.02,1.44c-1.52,0.28 -3.32,0.42 -5.4,0.42c-4.32,0 -7.52,-0.75 -9.6,-2.25c-2.06,-1.5 -3.09,-3.8 -3.09,-6.9c0,-1.28 0.27,-2.42 0.81,-3.42c0.54,-1.02 1.23,-1.84 2.07,-2.46c0.86,-0.62 1.86,-1.13 3,-1.53c1.14,-0.42 2.25,-0.71 3.33,-0.87c1.1,-0.16 2.21,-0.24 3.33,-0.24zm0.24,12.75c1.76,0 3.1,-0.29 4.02,-0.87c0.94,-0.6 1.41,-1.61 1.41,-3.03c0,-0.78 -0.18,-1.44 -0.54,-1.98c-0.36,-0.56 -0.84,-0.97 -1.44,-1.23c-0.58,-0.26 -1.16,-0.44 -1.74,-0.54c-0.56,-0.12 -1.16,-0.18 -1.8,-0.18c-0.6,0 -1.19,0.06 -1.77,0.18c-0.56,0.12 -1.12,0.32 -1.68,0.6c-0.54,0.26 -0.98,0.65 -1.32,1.17c-0.32,0.52 -0.48,1.13 -0.48,1.83c0,1.38 0.43,2.4 1.29,3.06c0.88,0.66 2.23,0.99 4.05,0.99zm32.72,-12.66l6.9,0l0,17.4l-6.9,0l0,-2.67c-1.76,1.76 -4.31,2.64 -7.65,2.64c-2.7,0 -4.82,-0.29 -6.36,-0.87c-1.52,-0.6 -2.65,-1.69 -3.39,-3.27c-0.54,-1.14 -0.9,-2.55 -1.08,-4.23c-0.18,-1.68 -0.27,-4.22 -0.27,-7.62l0.03,-1.38l6.66,0c0,2.12 0,4.03 0,5.73c0,0.46 0.01,0.85 0.03,1.17c0.02,0.3 0.06,0.67 0.12,1.11c0.08,0.44 0.19,0.82 0.33,1.14c0.14,0.3 0.34,0.62 0.6,0.96c0.26,0.32 0.57,0.58 0.93,0.78c0.38,0.2 0.85,0.37 1.41,0.51c0.58,0.14 1.22,0.21 1.92,0.21c2.46,0 4.7,-0.91 6.72,-2.73l0,-8.88zm31.59,3.57c0.48,1.08 0.77,2.47 0.87,4.17c0.12,1.68 0.18,4.44 0.18,8.28l0,1.38l-6.72,0l0,-5.73c0,-0.48 -0.01,-0.87 -0.03,-1.17c0,-0.32 -0.04,-0.73 -0.12,-1.23c-0.06,-0.5 -0.15,-0.91 -0.27,-1.23c-0.12,-0.34 -0.3,-0.7 -0.54,-1.08c-0.24,-0.38 -0.53,-0.68 -0.87,-0.9c-0.34,-0.24 -0.77,-0.44 -1.29,-0.6c-0.52,-0.16 -1.11,-0.24 -1.77,-0.24c-2.26,0 -4.07,0.71 -5.43,2.13l0,10.05l-6.84,0l0,-17.37l6.84,0l0,2.4c0.8,-0.56 1.47,-0.99 2.01,-1.29c0.56,-0.32 1.34,-0.61 2.34,-0.87c1.02,-0.26 2.16,-0.39 3.42,-0.39c0.72,0 1.37,0.02 1.95,0.06c0.6,0.04 1.24,0.14 1.92,0.3c0.68,0.16 1.27,0.37 1.77,0.63c0.52,0.24 1.01,0.59 1.47,1.05c0.48,0.46 0.85,1.01 1.11,1.65zm21.8,-7.17l6.96,0l0,21l-6.96,0l0,-1.86c-1.9,1.34 -4.59,2.01 -8.07,2.01c-0.84,0 -1.6,-0.03 -2.28,-0.09c-0.68,-0.04 -1.42,-0.13 -2.22,-0.27c-0.8,-0.16 -1.51,-0.37 -2.13,-0.63c-0.62,-0.26 -1.23,-0.62 -1.83,-1.08c-0.6,-0.46 -1.1,-0.99 -1.5,-1.59c-0.38,-0.62 -0.69,-1.38 -0.93,-2.28c-0.24,-0.92 -0.36,-1.94 -0.36,-3.06c0,-1.4 0.3,-2.65 0.9,-3.75c0.62,-1.12 1.45,-2.01 2.49,-2.67c1.04,-0.68 2.21,-1.19 3.51,-1.53c1.32,-0.36 2.72,-0.54 4.2,-0.54c3.04,0 5.78,0.61 8.22,1.83l0,-5.49zm0,13.71l0,-2.37c-0.64,-1.72 -3.01,-2.58 -7.11,-2.58c-0.02,0 -0.06,0 -0.12,0c-0.2,0 -0.36,0 -0.48,0c-0.12,0 -0.3,0.01 -0.54,0.03c-0.24,0 -0.44,0.02 -0.6,0.06c-0.16,0.04 -0.37,0.09 -0.63,0.15c-0.24,0.04 -0.45,0.11 -0.63,0.21c-0.16,0.08 -0.34,0.19 -0.54,0.33c-0.2,0.12 -0.37,0.27 -0.51,0.45c-0.12,0.18 -0.24,0.38 -0.36,0.6c-0.12,0.22 -0.21,0.48 -0.27,0.78c-0.06,0.3 -0.09,0.63 -0.09,0.99c0,2.38 1.73,3.57 5.19,3.57c1.3,0 2.33,-0.05 3.09,-0.15c0.78,-0.1 1.47,-0.31 2.07,-0.63c0.62,-0.34 1.13,-0.82 1.53,-1.44zm35.76,-10.2c0.8,0 1.59,0.04 2.37,0.12c0.78,0.06 1.61,0.18 2.49,0.36c0.88,0.16 1.7,0.38 2.46,0.66c0.78,0.28 1.53,0.65 2.25,1.11c0.72,0.46 1.33,0.99 1.83,1.59c0.52,0.6 0.93,1.33 1.23,2.19c0.3,0.84 0.45,1.78 0.45,2.82c0,1.64 -0.3,3.04 -0.9,4.2c-0.58,1.16 -1.45,2.08 -2.61,2.76c-1.16,0.66 -2.5,1.14 -4.02,1.44c-1.52,0.28 -3.32,0.42 -5.4,0.42c-4.32,0 -7.52,-0.75 -9.6,-2.25c-2.06,-1.5 -3.09,-3.8 -3.09,-6.9c0,-1.28 0.27,-2.42 0.81,-3.42c0.54,-1.02 1.23,-1.84 2.07,-2.46c0.86,-0.62 1.86,-1.13 3,-1.53c1.14,-0.42 2.25,-0.71 3.33,-0.87c1.1,-0.16 2.21,-0.24 3.33,-0.24zm0.24,12.75c1.76,0 3.1,-0.29 4.02,-0.87c0.94,-0.6 1.41,-1.61 1.41,-3.03c0,-0.78 -0.18,-1.44 -0.54,-1.98c-0.36,-0.56 -0.84,-0.97 -1.44,-1.23c-0.58,-0.26 -1.16,-0.44 -1.74,-0.54c-0.56,-0.12 -1.16,-0.18 -1.8,-0.18c-0.6,0 -1.19,0.06 -1.77,0.18c-0.56,0.12 -1.12,0.32 -1.68,0.6c-0.54,0.26 -0.98,0.65 -1.32,1.17c-0.32,0.52 -0.48,1.13 -0.48,1.83c0,1.38 0.43,2.4 1.29,3.06c0.88,0.66 2.23,0.99 4.05,0.99zm27.25,-11.13c-0.33,0 -0.56,0.01 -0.68,0.03c-0.11,0 -0.29,0 -0.58,0c-0.26,0 -0.42,0.01 -0.51,0.03c-0.07,0.02 -0.23,0.05 -0.44,0.09c-0.21,0.04 -0.33,0.09 -0.39,0.15c-0.07,0.04 -0.17,0.1 -0.31,0.18c-0.12,0.08 -0.19,0.18 -0.24,0.3c-0.03,0.12 -0.1,0.25 -0.17,0.39c-0.07,0.14 -0.1,0.31 -0.12,0.51c0,0.18 0,0.39 0,0.63l8.4,0l0,4.83l-8.59,0l0,8.73l-6.99,0l0,-8.73l-2.57,0l0,-4.83l2.69,0c0,-2.8 0.57,-4.75 1.69,-5.85c1.12,-1.1 2.92,-1.65 5.42,-1.65c1.71,0 3.24,0.05 4.62,0.15c1.4,0.1 2.37,0.2 2.92,0.3l0.81,0.15l0,5.31c-1.21,-0.48 -2.86,-0.72 -4.96,-0.72zm-430.95,40.47l6.93,0l-7.62,17.4l-6.39,0l-5.46,-9.84l-5.49,9.84l-6.39,0l-7.62,-17.4l6.93,0l4.02,9.78l5.85,-9.78l5.28,0l5.94,9.78l4.02,-9.78zm18.47,-0.09c0.8,0 1.59,0.04 2.37,0.12c0.78,0.06 1.61,0.18 2.49,0.36c0.88,0.16 1.7,0.38 2.46,0.66c0.78,0.28 1.53,0.65 2.25,1.11c0.72,0.46 1.33,0.99 1.83,1.59c0.52,0.6 0.93,1.33 1.23,2.19c0.3,0.84 0.45,1.78 0.45,2.82c0,1.64 -0.3,3.04 -0.9,4.2c-0.58,1.16 -1.45,2.08 -2.61,2.76c-1.16,0.66 -2.5,1.14 -4.02,1.44c-1.52,0.28 -3.32,0.42 -5.4,0.42c-4.32,0 -7.52,-0.75 -9.6,-2.25c-2.06,-1.5 -3.09,-3.8 -3.09,-6.9c0,-1.28 0.27,-2.42 0.81,-3.42c0.54,-1.02 1.23,-1.84 2.07,-2.46c0.86,-0.62 1.86,-1.13 3,-1.53c1.14,-0.42 2.25,-0.71 3.33,-0.87c1.1,-0.16 2.21,-0.24 3.33,-0.24zm0.24,12.75c1.76,0 3.1,-0.29 4.02,-0.87c0.94,-0.6 1.41,-1.61 1.41,-3.03c0,-0.78 -0.18,-1.44 -0.54,-1.98c-0.36,-0.56 -0.84,-0.97 -1.44,-1.23c-0.58,-0.26 -1.16,-0.44 -1.74,-0.54c-0.56,-0.12 -1.16,-0.18 -1.8,-0.18c-0.6,0 -1.19,0.06 -1.77,0.18c-0.56,0.12 -1.12,0.32 -1.68,0.6c-0.54,0.26 -0.98,0.65 -1.32,1.17c-0.32,0.52 -0.48,1.13 -0.48,1.83c0,1.38 0.43,2.4 1.29,3.06c0.88,0.66 2.23,0.99 4.05,0.99zm51.17,-9.09c0.29,0.74 0.52,1.75 0.65,3.03c0.16,1.26 0.25,2.48 0.27,3.66c0.02,1.18 0.03,3.11 0.03,5.79l0,1.35l-6.59,0l0,-5.79c0,-0.14 0,-0.4 0,-0.78c0,-0.4 0,-0.69 0,-0.87c0,-0.2 -0.01,-0.48 -0.04,-0.84c-0.02,-0.38 -0.04,-0.67 -0.08,-0.87c-0.05,-0.22 -0.11,-0.48 -0.21,-0.78c-0.09,-0.32 -0.2,-0.57 -0.34,-0.75c-0.12,-0.18 -0.29,-0.38 -0.51,-0.6c-0.19,-0.22 -0.42,-0.38 -0.68,-0.48c-0.26,-0.12 -0.59,-0.22 -0.97,-0.3c-0.36,-0.08 -0.75,-0.12 -1.2,-0.12c-0.3,0 -0.6,0.03 -0.93,0.09c-0.29,0.04 -0.59,0.1 -0.87,0.18c-0.27,0.08 -0.55,0.18 -0.84,0.3c-0.28,0.1 -0.54,0.22 -0.8,0.36c-0.24,0.14 -0.48,0.29 -0.7,0.45c-0.19,0.14 -0.39,0.29 -0.56,0.45c-0.19,0.16 -0.34,0.32 -0.46,0.48c0.11,1.42 0.15,4.26 0.15,8.52l0,1.35l-6.59,0l0,-5.79c0,-0.14 0,-0.4 0,-0.78c0.02,-0.4 0.03,-0.69 0.03,-0.87c0,-0.2 -0.01,-0.48 -0.03,-0.84c-0.03,-0.38 -0.07,-0.67 -0.12,-0.87c-0.05,-0.22 -0.11,-0.48 -0.21,-0.78c-0.09,-0.32 -0.2,-0.57 -0.34,-0.75c-0.12,-0.18 -0.28,-0.38 -0.51,-0.6c-0.19,-0.22 -0.42,-0.38 -0.68,-0.48c-0.26,-0.12 -0.58,-0.22 -0.94,-0.3c-0.36,-0.08 -0.76,-0.12 -1.19,-0.12c-1.1,0 -2.1,0.23 -3,0.69c-0.88,0.44 -1.59,1.02 -2.1,1.74l0,9.75l-6.75,0l0,-17.37l6.75,0l0,2.13c2.26,-1.52 4.75,-2.28 7.47,-2.28c1.66,0 3.05,0.21 4.19,0.63c1.17,0.4 2.08,1.19 2.73,2.37c2.35,-2 5.25,-3 8.71,-3c0.86,0 1.61,0.04 2.25,0.12c0.64,0.08 1.29,0.25 1.98,0.51c0.68,0.24 1.27,0.62 1.77,1.14c0.52,0.5 0.93,1.14 1.26,1.92zm15.1,-3.78c2.05,0 3.84,0.18 5.37,0.54c1.52,0.36 2.83,0.95 3.95,1.77c1.12,0.82 1.95,1.94 2.47,3.36c0.51,1.4 0.69,3.09 0.53,5.07l-17.81,0c0.09,0.58 0.59,1.11 1.5,1.59c0.92,0.46 2.22,0.69 3.92,0.69c1.54,0 3.08,-0.1 4.6,-0.3c1.53,-0.2 2.69,-0.4 3.48,-0.6l1.14,-0.3l3,4.41c-0.07,0.04 -0.18,0.1 -0.34,0.18c-0.15,0.06 -0.56,0.18 -1.23,0.36c-0.64,0.18 -1.37,0.34 -2.18,0.48c-0.83,0.14 -1.97,0.26 -3.43,0.36c-1.45,0.12 -3.05,0.18 -4.79,0.18c-2.04,0 -3.83,-0.15 -5.35,-0.45c-1.5,-0.3 -2.73,-0.71 -3.68,-1.23c-0.95,-0.52 -1.71,-1.18 -2.28,-1.98c-0.58,-0.8 -0.98,-1.64 -1.2,-2.52c-0.23,-0.88 -0.34,-1.88 -0.34,-3c0,-1.34 0.33,-2.56 0.97,-3.66c0.63,-1.1 1.51,-2.01 2.63,-2.73c1.12,-0.72 2.46,-1.27 4,-1.65c1.55,-0.38 3.25,-0.57 5.07,-0.57zm0.05,4.77c-1.1,0 -2.03,0.08 -2.82,0.24c-0.78,0.14 -1.34,0.34 -1.7,0.6c-0.36,0.26 -0.62,0.51 -0.78,0.75c-0.17,0.22 -0.24,0.46 -0.24,0.72l11.06,0c0,-1.54 -1.84,-2.31 -5.52,-2.31zm36.57,-0.99c0.48,1.08 0.77,2.47 0.87,4.17c0.12,1.68 0.18,4.44 0.18,8.28l0,1.38l-6.72,0l0,-5.73c0,-0.48 -0.01,-0.87 -0.03,-1.17c0,-0.32 -0.04,-0.73 -0.12,-1.23c-0.06,-0.5 -0.15,-0.91 -0.27,-1.23c-0.12,-0.34 -0.3,-0.7 -0.54,-1.08c-0.24,-0.38 -0.53,-0.68 -0.87,-0.9c-0.34,-0.24 -0.77,-0.44 -1.29,-0.6c-0.52,-0.16 -1.11,-0.24 -1.77,-0.24c-2.26,0 -4.07,0.71 -5.43,2.13l0,10.05l-6.84,0l0,-17.37l6.84,0l0,2.4c0.8,-0.56 1.47,-0.99 2.01,-1.29c0.56,-0.32 1.34,-0.61 2.34,-0.87c1.02,-0.26 2.16,-0.39 3.42,-0.39c0.72,0 1.37,0.02 1.95,0.06c0.6,0.04 1.24,0.14 1.92,0.3c0.68,0.16 1.27,0.37 1.77,0.63c0.52,0.24 1.01,0.59 1.47,1.05c0.48,0.46 0.85,1.01 1.11,1.65zm49.2,-3.57l6.93,0l-7.62,17.4l-6.39,0l-5.46,-9.84l-5.49,9.84l-6.39,0l-7.62,-17.4l6.93,0l4.02,9.78l5.85,-9.78l5.28,0l5.94,9.78l4.02,-9.78zm18.47,-0.09c0.8,0 1.59,0.04 2.37,0.12c0.78,0.06 1.61,0.18 2.49,0.36c0.88,0.16 1.7,0.38 2.46,0.66c0.78,0.28 1.53,0.65 2.25,1.11c0.72,0.46 1.33,0.99 1.83,1.59c0.52,0.6 0.93,1.33 1.23,2.19c0.3,0.84 0.45,1.78 0.45,2.82c0,1.64 -0.3,3.04 -0.9,4.2c-0.58,1.16 -1.45,2.08 -2.61,2.76c-1.16,0.66 -2.5,1.14 -4.02,1.44c-1.52,0.28 -3.32,0.42 -5.4,0.42c-4.32,0 -7.52,-0.75 -9.6,-2.25c-2.06,-1.5 -3.09,-3.8 -3.09,-6.9c0,-1.28 0.27,-2.42 0.81,-3.42c0.54,-1.02 1.23,-1.84 2.07,-2.46c0.86,-0.62 1.86,-1.13 3,-1.53c1.14,-0.42 2.25,-0.71 3.33,-0.87c1.1,-0.16 2.21,-0.24 3.33,-0.24zm0.24,12.75c1.76,0 3.1,-0.29 4.02,-0.87c0.94,-0.6 1.41,-1.61 1.41,-3.03c0,-0.78 -0.18,-1.44 -0.54,-1.98c-0.36,-0.56 -0.84,-0.97 -1.44,-1.23c-0.58,-0.26 -1.16,-0.44 -1.74,-0.54c-0.56,-0.12 -1.16,-0.18 -1.8,-0.18c-0.6,0 -1.19,0.06 -1.77,0.18c-0.56,0.12 -1.12,0.32 -1.68,0.6c-0.54,0.26 -0.98,0.65 -1.32,1.17c-0.32,0.52 -0.48,1.13 -0.48,1.83c0,1.38 0.43,2.4 1.29,3.06c0.88,0.66 2.23,0.99 4.05,0.99zm28.09,-12.63c0.9,0 1.75,0.07 2.55,0.21c0.82,0.12 1.49,0.27 2.01,0.45c0.54,0.18 1.01,0.37 1.41,0.57c0.4,0.18 0.69,0.33 0.87,0.45l0.27,0.18l-2.61,5.34c-0.18,-0.1 -0.44,-0.22 -0.78,-0.36c-0.34,-0.16 -0.98,-0.37 -1.92,-0.63c-0.94,-0.26 -1.83,-0.42 -2.67,-0.48c-0.74,-0.04 -1.44,0 -2.1,0.12c-0.66,0.12 -1.18,0.25 -1.56,0.39c-0.38,0.12 -0.81,0.35 -1.29,0.69c-0.46,0.32 -0.75,0.54 -0.87,0.66c-0.1,0.1 -0.33,0.32 -0.69,0.66l0,9.12l-6.51,0l0,-17.4l6.51,0l0,2.43c1.28,-1.6 3.74,-2.4 7.38,-2.4zm23.11,-0.03l9.54,0l-9.33,8.73l9.33,8.67l-9.54,0l-5.55,-5.34l-2.25,2.19l0,3.15l-6.99,0l0,-21l6.99,0l0,10.53l7.8,-6.93zm10.58,0.03l6.99,0l0,17.37l-6.99,0l0,-17.37zm0,-4.74l6.99,0l0,3.39l-6.99,0l0,-3.39zm31.97,8.28c0.48,1.08 0.77,2.47 0.87,4.17c0.12,1.68 0.18,4.44 0.18,8.28l0,1.38l-6.72,0l0,-5.73c0,-0.48 -0.01,-0.87 -0.03,-1.17c0,-0.32 -0.04,-0.73 -0.12,-1.23c-0.06,-0.5 -0.15,-0.91 -0.27,-1.23c-0.12,-0.34 -0.3,-0.7 -0.54,-1.08c-0.24,-0.38 -0.53,-0.68 -0.87,-0.9c-0.34,-0.24 -0.77,-0.44 -1.29,-0.6c-0.52,-0.16 -1.11,-0.24 -1.77,-0.24c-2.26,0 -4.07,0.71 -5.43,2.13l0,10.05l-6.84,0l0,-17.37l6.84,0l0,2.4c0.8,-0.56 1.47,-0.99 2.01,-1.29c0.56,-0.32 1.34,-0.61 2.34,-0.87c1.02,-0.26 2.16,-0.39 3.42,-0.39c0.72,0 1.37,0.02 1.95,0.06c0.6,0.04 1.24,0.14 1.92,0.3c0.68,0.16 1.27,0.37 1.77,0.63c0.52,0.24 1.01,0.59 1.47,1.05c0.48,0.46 0.85,1.01 1.11,1.65zm21.8,-3.24l6.96,0l0,14.7c0,3.46 -1.03,6 -3.09,7.62c-2.06,1.64 -5.41,2.46 -10.05,2.46c-1.74,0 -3.37,-0.07 -4.89,-0.21c-1.52,-0.12 -2.75,-0.27 -3.69,-0.45c-0.92,-0.18 -1.72,-0.37 -2.4,-0.57c-0.68,-0.18 -1.16,-0.33 -1.44,-0.45l-0.39,-0.18l2.28,-5.4c0.06,0.06 0.15,0.13 0.27,0.21c0.14,0.1 0.47,0.27 0.99,0.51c0.52,0.24 1.09,0.45 1.71,0.63c0.64,0.18 1.5,0.34 2.58,0.48c1.1,0.14 2.27,0.21 3.51,0.21c0.88,0 1.68,-0.05 2.4,-0.15c0.74,-0.1 1.36,-0.24 1.86,-0.42c0.5,-0.18 0.95,-0.39 1.35,-0.63c0.4,-0.24 0.71,-0.49 0.93,-0.75c0.24,-0.24 0.44,-0.49 0.6,-0.75c0.16,-0.26 0.27,-0.5 0.33,-0.72c0.06,-0.24 0.1,-0.45 0.12,-0.63c0.04,-0.18 0.06,-0.33 0.06,-0.45l0,-0.15l0,-0.72c-0.34,0.84 -1.31,1.56 -2.91,2.16c-1.6,0.6 -3.37,0.9 -5.31,0.9c-1.22,0 -2.35,-0.07 -3.39,-0.21c-1.04,-0.16 -2.05,-0.43 -3.03,-0.81c-0.96,-0.38 -1.78,-0.86 -2.46,-1.44c-0.66,-0.58 -1.2,-1.33 -1.62,-2.25c-0.4,-0.94 -0.6,-2.01 -0.6,-3.21c0,-1.18 0.12,-2.24 0.36,-3.18c0.24,-0.96 0.55,-1.76 0.93,-2.4c0.4,-0.66 0.9,-1.23 1.5,-1.71c0.6,-0.5 1.21,-0.88 1.83,-1.14c0.62,-0.28 1.33,-0.5 2.13,-0.66c0.8,-0.16 1.54,-0.26 2.22,-0.3c0.68,-0.06 1.44,-0.09 2.28,-0.09c3.48,0 6.17,0.71 8.07,2.13l0,-1.98zm0,9.12l0,-1.32c0,-0.46 -0.21,-0.87 -0.63,-1.23c-0.4,-0.36 -0.95,-0.64 -1.65,-0.84c-0.68,-0.2 -1.44,-0.35 -2.28,-0.45c-0.82,-0.12 -1.7,-0.18 -2.64,-0.18c-3.36,0 -5.04,1.15 -5.04,3.45c0,0.56 0.1,1.05 0.3,1.47c0.2,0.42 0.48,0.75 0.84,0.99c0.36,0.24 0.71,0.44 1.05,0.6c0.36,0.16 0.76,0.27 1.2,0.33c0.46,0.06 0.8,0.1 1.02,0.12c0.24,0 0.49,0 0.75,0c0.32,0 0.6,0 0.84,0c0.26,-0.02 0.68,-0.05 1.26,-0.09c0.58,-0.06 1.1,-0.15 1.56,-0.27c0.46,-0.14 0.94,-0.31 1.44,-0.51c0.52,-0.2 0.95,-0.48 1.29,-0.84c0.34,-0.36 0.57,-0.77 0.69,-1.23zm23.1,-9.42l7,0l0,17.37l-7,0l0,-17.37zm0,-4.74l7,0l0,3.39l-7,0l0,-3.39zm31.98,8.28c0.48,1.08 0.77,2.47 0.87,4.17c0.12,1.68 0.18,4.44 0.18,8.28l0,1.38l-6.72,0l0,-5.73c0,-0.48 -0.01,-0.87 -0.03,-1.17c0,-0.32 -0.04,-0.73 -0.12,-1.23c-0.06,-0.5 -0.15,-0.91 -0.27,-1.23c-0.12,-0.34 -0.3,-0.7 -0.54,-1.08c-0.24,-0.38 -0.53,-0.68 -0.87,-0.9c-0.34,-0.24 -0.77,-0.44 -1.29,-0.6c-0.52,-0.16 -1.11,-0.24 -1.77,-0.24c-2.26,0 -4.07,0.71 -5.43,2.13l0,10.05l-6.84,0l0,-17.37l6.84,0l0,2.4c0.8,-0.56 1.47,-0.99 2.01,-1.29c0.56,-0.32 1.34,-0.61 2.34,-0.87c1.02,-0.26 2.16,-0.39 3.42,-0.39c0.72,0 1.37,0.02 1.95,0.06c0.6,0.04 1.24,0.14 1.92,0.3c0.68,0.16 1.27,0.37 1.77,0.63c0.52,0.24 1.01,0.59 1.47,1.05c0.48,0.46 0.85,1.01 1.11,1.65zm38.67,-7.23l8.01,0l-10.32,21.06l-9.15,0l-10.38,-21.06l8.01,0l6.93,14.91l6.9,-14.91zm20.1,-0.18c2.64,0 4.91,0.23 6.81,0.69c1.9,0.44 3.4,1.09 4.5,1.95c1.1,0.84 1.9,1.82 2.4,2.94c0.5,1.12 0.75,2.42 0.75,3.9l-7.17,0c-0.02,-0.1 -0.06,-0.23 -0.12,-0.39c-0.04,-0.16 -0.21,-0.43 -0.51,-0.81c-0.3,-0.4 -0.69,-0.75 -1.17,-1.05c-0.48,-0.32 -1.21,-0.6 -2.19,-0.84c-0.96,-0.26 -2.08,-0.39 -3.36,-0.39c-1.14,0 -2.14,0.09 -3,0.27c-0.84,0.18 -1.51,0.41 -2.01,0.69c-0.48,0.28 -0.87,0.64 -1.17,1.08c-0.28,0.42 -0.47,0.84 -0.57,1.26c-0.1,0.4 -0.15,0.85 -0.15,1.35c0,0.7 0.11,1.32 0.33,1.86c0.22,0.54 0.58,1.04 1.08,1.5c0.5,0.44 1.21,0.78 2.13,1.02c0.92,0.24 2.04,0.36 3.36,0.36c1.36,0 2.54,-0.1 3.54,-0.3c1,-0.2 1.73,-0.44 2.19,-0.72c0.46,-0.28 0.82,-0.56 1.08,-0.84c0.28,-0.3 0.44,-0.55 0.48,-0.75l0.06,-0.3l7.17,0c0,1.02 -0.13,1.95 -0.39,2.79c-0.26,0.82 -0.72,1.62 -1.38,2.4c-0.66,0.78 -1.52,1.43 -2.58,1.95c-1.04,0.52 -2.4,0.94 -4.08,1.26c-1.68,0.3 -3.63,0.45 -5.85,0.45c-2.72,0 -5,-0.2 -6.84,-0.6c-1.84,-0.42 -3.32,-1.07 -4.44,-1.95c-1.1,-0.9 -1.89,-1.98 -2.37,-3.24c-0.48,-1.26 -0.72,-2.81 -0.72,-4.65c0,-1.98 0.3,-3.67 0.9,-5.07c0.62,-1.42 1.54,-2.55 2.76,-3.39c1.22,-0.86 2.69,-1.48 4.41,-1.86c1.72,-0.38 3.76,-0.57 6.12,-0.57zm-438.29,45.75c0.8,0 1.59,0.04 2.37,0.12c0.78,0.06 1.61,0.18 2.49,0.36c0.88,0.16 1.7,0.38 2.46,0.66c0.78,0.28 1.53,0.65 2.25,1.11c0.72,0.46 1.33,0.99 1.83,1.59c0.52,0.6 0.93,1.33 1.23,2.19c0.3,0.84 0.45,1.78 0.45,2.82c0,1.64 -0.3,3.04 -0.9,4.2c-0.58,1.16 -1.45,2.08 -2.61,2.76c-1.16,0.66 -2.5,1.14 -4.02,1.44c-1.52,0.28 -3.32,0.42 -5.4,0.42c-4.32,0 -7.52,-0.75 -9.6,-2.25c-2.06,-1.5 -3.09,-3.8 -3.09,-6.9c0,-1.28 0.27,-2.42 0.81,-3.42c0.54,-1.02 1.23,-1.84 2.07,-2.46c0.86,-0.62 1.86,-1.13 3,-1.53c1.14,-0.42 2.25,-0.71 3.33,-0.87c1.1,-0.16 2.21,-0.24 3.33,-0.24zm0.24,12.75c1.76,0 3.1,-0.29 4.02,-0.87c0.94,-0.6 1.41,-1.61 1.41,-3.03c0,-0.78 -0.18,-1.44 -0.54,-1.98c-0.36,-0.56 -0.84,-0.97 -1.44,-1.23c-0.58,-0.26 -1.16,-0.44 -1.74,-0.54c-0.56,-0.12 -1.16,-0.18 -1.8,-0.18c-0.6,0 -1.19,0.06 -1.77,0.18c-0.56,0.12 -1.12,0.32 -1.68,0.6c-0.54,0.26 -0.98,0.65 -1.32,1.17c-0.32,0.52 -0.48,1.13 -0.48,1.83c0,1.38 0.43,2.4 1.29,3.06c0.88,0.66 2.23,0.99 4.05,0.99zm28.09,-12.63c0.9,0 1.75,0.07 2.55,0.21c0.82,0.12 1.49,0.27 2.01,0.45c0.54,0.18 1.01,0.37 1.41,0.57c0.4,0.18 0.69,0.33 0.87,0.45l0.27,0.18l-2.61,5.34c-0.18,-0.1 -0.44,-0.22 -0.78,-0.36c-0.34,-0.16 -0.98,-0.37 -1.92,-0.63c-0.94,-0.26 -1.83,-0.42 -2.67,-0.48c-0.74,-0.04 -1.44,0 -2.1,0.12c-0.66,0.12 -1.18,0.25 -1.56,0.39c-0.38,0.12 -0.81,0.35 -1.29,0.69c-0.46,0.32 -0.75,0.54 -0.87,0.66c-0.1,0.1 -0.33,0.32 -0.69,0.66l0,9.12l-6.51,0l0,-17.4l6.51,0l0,2.43c1.28,-1.6 3.74,-2.4 7.38,-2.4zm38.02,-3.69c0.4,0 0.78,0.01 1.14,0.03c0.36,0.02 0.86,0.09 1.5,0.21c0.66,0.1 1.25,0.26 1.77,0.48c0.54,0.2 1.11,0.5 1.71,0.9c0.6,0.4 1.1,0.88 1.5,1.44c0.42,0.54 0.76,1.25 1.02,2.13c0.28,0.86 0.42,1.83 0.42,2.91c0,1.06 -0.13,2.03 -0.39,2.91c-0.24,0.88 -0.56,1.62 -0.96,2.22c-0.4,0.58 -0.88,1.1 -1.44,1.56c-0.56,0.44 -1.11,0.79 -1.65,1.05c-0.54,0.24 -1.11,0.44 -1.71,0.6c-0.58,0.14 -1.08,0.24 -1.5,0.3c-0.42,0.04 -0.81,0.06 -1.17,0.06l-8.04,0l0,4.26l-6.99,0l0,-21.06l6.27,0l0.72,0l7.8,0zm-0.21,10.59c1.84,0 2.76,-0.76 2.76,-2.28c0,-0.4 -0.08,-0.74 -0.24,-1.02c-0.14,-0.28 -0.31,-0.48 -0.51,-0.6c-0.18,-0.14 -0.42,-0.25 -0.72,-0.33c-0.3,-0.08 -0.55,-0.13 -0.75,-0.15c-0.18,-0.02 -0.4,-0.03 -0.66,-0.03l-7.47,0l0,4.41l7.59,0zm25.06,-6.9c0.9,0 1.75,0.07 2.55,0.21c0.82,0.12 1.49,0.27 2.01,0.45c0.54,0.18 1.01,0.37 1.41,0.57c0.4,0.18 0.69,0.33 0.87,0.45l0.27,0.18l-2.61,5.34c-0.18,-0.1 -0.44,-0.22 -0.78,-0.36c-0.34,-0.16 -0.98,-0.37 -1.92,-0.63c-0.94,-0.26 -1.83,-0.42 -2.67,-0.48c-0.74,-0.04 -1.44,0 -2.1,0.12c-0.66,0.12 -1.18,0.25 -1.56,0.39c-0.38,0.12 -0.81,0.35 -1.29,0.69c-0.46,0.32 -0.75,0.54 -0.87,0.66c-0.1,0.1 -0.33,0.32 -0.69,0.66l0,9.12l-6.51,0l0,-17.4l6.51,0l0,2.43c1.28,-1.6 3.74,-2.4 7.38,-2.4zm7.79,0l6.99,0l0,17.37l-6.99,0l0,-17.37zm0,-4.74l6.99,0l0,3.39l-6.99,0l0,-3.39zm27.69,4.71l7.29,0l-8.97,17.4l-9.15,0l-8.97,-17.4l7.29,0l6.24,11.94l6.27,-11.94zm31.51,17.43l-6.78,0c0,-0.5 -0.01,-1.03 -0.03,-1.59c-2.12,1.26 -4.57,1.89 -7.35,1.89c-0.82,0 -1.52,-0.01 -2.1,-0.03c-0.56,-0.02 -1.26,-0.07 -2.1,-0.15c-0.84,-0.08 -1.55,-0.19 -2.13,-0.33c-0.58,-0.14 -1.19,-0.35 -1.83,-0.63c-0.64,-0.28 -1.16,-0.61 -1.56,-0.99c-0.4,-0.4 -0.73,-0.9 -0.99,-1.5c-0.26,-0.62 -0.39,-1.3 -0.39,-2.04c0,-0.94 0.3,-1.75 0.9,-2.43c0.62,-0.7 1.46,-1.25 2.52,-1.65c1.06,-0.4 2.22,-0.69 3.48,-0.87c1.26,-0.2 2.62,-0.3 4.08,-0.3c2.48,0 4.72,0.37 6.72,1.11c-0.4,-1.2 -1.08,-1.98 -2.04,-2.34c-0.94,-0.38 -2.44,-0.57 -4.5,-0.57c-1.68,0 -3.3,0.12 -4.86,0.36c-1.54,0.22 -2.53,0.4 -2.97,0.54c-0.42,0.12 -0.78,0.23 -1.08,0.33l-0.84,-4.77c3,-1.12 6.43,-1.68 10.29,-1.68c6.82,0 10.89,1.51 12.21,4.53c0.58,1.32 0.95,2.99 1.11,5.01c0.16,2 0.24,4.7 0.24,8.1zm-13.38,-4.11c0.98,0 1.94,-0.08 2.88,-0.24c0.96,-0.16 1.71,-0.34 2.25,-0.54c0.54,-0.2 0.87,-0.38 0.99,-0.54c0,-0.18 0,-0.29 0,-0.33c-0.56,-0.52 -2.48,-0.78 -5.76,-0.78c-1.66,0 -2.85,0.1 -3.57,0.3c-0.72,0.18 -1.08,0.47 -1.08,0.87c0,0.84 1.43,1.26 4.29,1.26zm25.7,-1.62c0.5,0 1.04,-0.03 1.65,-0.09c0.6,-0.08 1.13,-0.17 1.62,-0.27c0.5,-0.1 0.96,-0.2 1.38,-0.3c0.41,-0.12 0.75,-0.21 0.99,-0.27c0.26,-0.08 0.38,-0.12 0.36,-0.12l2.49,5.4c-0.31,0.12 -0.74,0.26 -1.33,0.42c-0.58,0.14 -1.83,0.35 -3.75,0.63c-1.89,0.26 -3.88,0.39 -5.97,0.39c-0.95,0 -1.76,-0.03 -2.4,-0.09c-0.62,-0.08 -1.18,-0.24 -1.71,-0.48c-0.52,-0.26 -0.92,-0.57 -1.19,-0.93c-0.28,-0.38 -0.52,-0.92 -0.73,-1.62c-0.19,-0.7 -0.33,-1.49 -0.38,-2.37c-0.06,-0.88 -0.1,-2 -0.1,-3.36l0,-3.48l-3.48,0l0,-5.22l3.48,0l0,-3.63l6.67,0l0,3.63l8.79,0l0,5.22l-8.79,0l0,3.48c0,0.04 0,0.1 0,0.18c0,0.06 0.01,0.2 0.03,0.42c0.02,0.22 0.04,0.43 0.09,0.63c0.04,0.18 0.11,0.39 0.23,0.63c0.12,0.24 0.27,0.45 0.43,0.63c0.15,0.16 0.38,0.3 0.65,0.42c0.28,0.1 0.61,0.15 0.97,0.15zm20.39,-11.91c2.06,0 3.85,0.18 5.37,0.54c1.52,0.36 2.84,0.95 3.96,1.77c1.12,0.82 1.94,1.94 2.46,3.36c0.52,1.4 0.7,3.09 0.54,5.07l-17.82,0c0.1,0.58 0.6,1.11 1.5,1.59c0.92,0.46 2.23,0.69 3.93,0.69c1.54,0 3.07,-0.1 4.59,-0.3c1.54,-0.2 2.7,-0.4 3.48,-0.6l1.14,-0.3l3,4.41c-0.06,0.04 -0.17,0.1 -0.33,0.18c-0.16,0.06 -0.57,0.18 -1.23,0.36c-0.64,0.18 -1.37,0.34 -2.19,0.48c-0.82,0.14 -1.96,0.26 -3.42,0.36c-1.46,0.12 -3.06,0.18 -4.8,0.18c-2.04,0 -3.82,-0.15 -5.34,-0.45c-1.5,-0.3 -2.73,-0.71 -3.69,-1.23c-0.94,-0.52 -1.7,-1.18 -2.28,-1.98c-0.58,-0.8 -0.98,-1.64 -1.2,-2.52c-0.22,-0.88 -0.33,-1.88 -0.33,-3c0,-1.34 0.32,-2.56 0.96,-3.66c0.64,-1.1 1.52,-2.01 2.64,-2.73c1.12,-0.72 2.45,-1.27 3.99,-1.65c1.56,-0.38 3.25,-0.57 5.07,-0.57zm0.06,4.77c-1.1,0 -2.04,0.08 -2.82,0.24c-0.78,0.14 -1.35,0.34 -1.71,0.6c-0.36,0.26 -0.62,0.51 -0.78,0.75c-0.16,0.22 -0.24,0.46 -0.24,0.72l11.07,0c0,-1.54 -1.84,-2.31 -5.52,-2.31zm28.59,-8.22l23.25,0l0,5.85l-16.26,0l0,1.86l15.24,0l0,5.61l-15.24,0l0,1.89l16.26,0l0,5.85l-23.25,0l0,-21.06zm51.17,26.91l-6.9,0l0,-8.07c-0.5,0.56 -1.53,1.08 -3.09,1.56c-1.56,0.48 -3.24,0.72 -5.04,0.72c-1.48,0 -2.87,-0.17 -4.17,-0.51c-1.28,-0.34 -2.44,-0.84 -3.48,-1.5c-1.04,-0.66 -1.86,-1.54 -2.46,-2.64c-0.6,-1.1 -0.9,-2.35 -0.9,-3.75c0,-1.1 0.12,-2.09 0.36,-2.97c0.24,-0.9 0.55,-1.65 0.93,-2.25c0.4,-0.62 0.89,-1.15 1.47,-1.59c0.6,-0.46 1.2,-0.82 1.8,-1.08c0.62,-0.26 1.32,-0.46 2.1,-0.6c0.8,-0.16 1.54,-0.26 2.22,-0.3c0.68,-0.06 1.44,-0.09 2.28,-0.09c3.16,0 5.82,0.77 7.98,2.31l0,-2.16l6.9,0l0,22.92zm-6.9,-15.75c-0.34,-0.58 -1.05,-1.09 -2.13,-1.53c-1.08,-0.44 -2.31,-0.66 -3.69,-0.66c-0.78,0 -1.45,0.03 -2.01,0.09c-0.54,0.04 -1.07,0.14 -1.59,0.3c-0.5,0.14 -0.91,0.34 -1.23,0.6c-0.32,0.26 -0.57,0.61 -0.75,1.05c-0.18,0.42 -0.27,0.93 -0.27,1.53c0,0.66 0.16,1.24 0.48,1.74c0.32,0.48 0.71,0.83 1.17,1.05c0.46,0.2 0.92,0.36 1.38,0.48c0.46,0.12 0.85,0.18 1.17,0.18l0.48,0.03c0.14,0 0.33,0 0.57,0c0.26,0 0.72,-0.03 1.38,-0.09c0.66,-0.08 1.28,-0.18 1.86,-0.3c0.58,-0.14 1.17,-0.37 1.77,-0.69c0.62,-0.32 1.09,-0.69 1.41,-1.11l0,-2.67zm27.24,-7.5l6.9,0l0,17.4l-6.9,0l0,-2.67c-1.76,1.76 -4.31,2.64 -7.65,2.64c-2.7,0 -4.82,-0.29 -6.36,-0.87c-1.52,-0.6 -2.65,-1.69 -3.39,-3.27c-0.54,-1.14 -0.9,-2.55 -1.08,-4.23c-0.18,-1.68 -0.27,-4.22 -0.27,-7.62l0.03,-1.38l6.66,0c0,2.12 0,4.03 0,5.73c0,0.46 0.01,0.85 0.03,1.17c0.02,0.3 0.06,0.67 0.12,1.11c0.08,0.44 0.19,0.82 0.33,1.14c0.14,0.3 0.34,0.62 0.6,0.96c0.26,0.32 0.57,0.58 0.93,0.78c0.38,0.2 0.85,0.37 1.41,0.51c0.58,0.14 1.22,0.21 1.92,0.21c2.46,0 4.7,-0.91 6.72,-2.73l0,-8.88zm8.76,0.03l6.99,0l0,17.37l-6.99,0l0,-17.37zm0,-4.74l6.99,0l0,3.39l-6.99,0l0,-3.39zm20.98,16.41c0.5,0 1.05,-0.03 1.65,-0.09c0.6,-0.08 1.14,-0.17 1.62,-0.27c0.5,-0.1 0.96,-0.2 1.38,-0.3c0.42,-0.12 0.75,-0.21 0.99,-0.27c0.26,-0.08 0.38,-0.12 0.36,-0.12l2.49,5.4c-0.3,0.12 -0.74,0.26 -1.32,0.42c-0.58,0.14 -1.83,0.35 -3.75,0.63c-1.9,0.26 -3.89,0.39 -5.97,0.39c-0.96,0 -1.76,-0.03 -2.4,-0.09c-0.62,-0.08 -1.19,-0.24 -1.71,-0.48c-0.52,-0.26 -0.92,-0.57 -1.2,-0.93c-0.28,-0.38 -0.52,-0.92 -0.72,-1.62c-0.2,-0.7 -0.33,-1.49 -0.39,-2.37c-0.06,-0.88 -0.09,-2 -0.09,-3.36l0,-3.48l-3.48,0l0,-5.22l3.48,0l0,-3.63l6.66,0l0,3.63l8.79,0l0,5.22l-8.79,0l0,3.48c0,0.04 0,0.1 0,0.18c0,0.06 0.01,0.2 0.03,0.42c0.02,0.22 0.05,0.43 0.09,0.63c0.04,0.18 0.12,0.39 0.24,0.63c0.12,0.24 0.26,0.45 0.42,0.63c0.16,0.16 0.38,0.3 0.66,0.42c0.28,0.1 0.6,0.15 0.96,0.15zm26.64,-11.49l7.59,0l-12.48,23.13l-7.59,0l3.09,-5.76l-0.09,0.03l-9.69,-17.4l7.62,0l5.85,10.53l5.7,-10.53z" fill="black" id="svg_8"/>
   <path d="m520.92,236.28l0,-12.87l-0.27,0l-2.53,5.79l-1.82,0l0,-0.13l2.88,-6.47l3.59,0l0,13.68l4.35,0l0,1.72l-10.56,0l0,-1.72l4.36,0zm13.47,0l0,-12.87l-0.26,0l-2.53,5.79l-1.83,0l0,-0.13l2.88,-6.47l3.59,0l0,13.68l4.35,0l0,1.72l-10.56,0l0,-1.72l4.36,0zm15.16,-10.51c0,0.53 -0.08,0.99 -0.26,1.41c-0.18,0.39 -0.42,0.74 -0.73,1.03c-0.29,0.28 -0.64,0.49 -1.03,0.64c-0.38,0.15 -0.78,0.22 -1.21,0.22c-0.43,0 -0.84,-0.07 -1.23,-0.22c-0.38,-0.15 -0.73,-0.36 -1.04,-0.64c-0.29,-0.29 -0.53,-0.64 -0.7,-1.03c-0.18,-0.42 -0.26,-0.88 -0.26,-1.41c0,-0.53 0.08,-0.99 0.26,-1.39c0.17,-0.41 0.41,-0.75 0.7,-1.03c0.31,-0.29 0.66,-0.51 1.04,-0.66c0.39,-0.15 0.8,-0.22 1.23,-0.22c0.43,0 0.83,0.07 1.21,0.22c0.39,0.15 0.74,0.37 1.03,0.66c0.31,0.28 0.55,0.62 0.73,1.03c0.18,0.4 0.26,0.86 0.26,1.39zm-3.23,2.11c0.57,0 1.03,-0.19 1.39,-0.57c0.35,-0.4 0.52,-0.91 0.52,-1.54c0,-0.63 -0.17,-1.14 -0.52,-1.52c-0.36,-0.4 -0.82,-0.59 -1.39,-0.59c-0.57,0 -1.04,0.19 -1.39,0.59c-0.35,0.38 -0.53,0.89 -0.53,1.52c0,0.7 0.18,1.23 0.53,1.58c0.35,0.35 0.82,0.53 1.39,0.53zm7.96,6.95c0,0.53 -0.08,1 -0.26,1.41c-0.18,0.4 -0.42,0.74 -0.73,1.03c-0.29,0.28 -0.64,0.49 -1.03,0.64c-0.38,0.15 -0.78,0.22 -1.21,0.22c-0.43,0 -0.84,-0.07 -1.23,-0.22c-0.38,-0.15 -0.73,-0.36 -1.04,-0.64c-0.29,-0.29 -0.53,-0.63 -0.7,-1.03c-0.18,-0.41 -0.26,-0.88 -0.26,-1.41c0,-0.53 0.08,-0.99 0.26,-1.38c0.17,-0.42 0.41,-0.76 0.7,-1.04c0.31,-0.29 0.66,-0.51 1.04,-0.66c0.39,-0.15 0.8,-0.22 1.23,-0.22c0.43,0 0.83,0.07 1.21,0.22c0.39,0.15 0.74,0.37 1.03,0.66c0.31,0.28 0.55,0.62 0.73,1.04c0.18,0.39 0.26,0.85 0.26,1.38zm-3.23,2.11c0.57,0 1.03,-0.19 1.38,-0.57c0.36,-0.39 0.53,-0.91 0.53,-1.54c0,-0.63 -0.17,-1.14 -0.53,-1.52c-0.35,-0.39 -0.81,-0.59 -1.38,-0.59c-0.57,0 -1.04,0.2 -1.39,0.59c-0.35,0.38 -0.53,0.89 -0.53,1.52c0,0.71 0.18,1.23 0.53,1.59c0.35,0.35 0.82,0.52 1.39,0.52zm2.57,-9.81l0.53,1.01l-10.4,5.31l-0.53,-1.02l10.4,-5.3zm25.29,7.04l-6.59,0l-1.13,3.83l-1.98,0l4.67,-15.4l3.47,0l4.67,15.4l-1.98,0l-1.13,-3.83zm-3.43,-10.78l-2.66,9.07l5.59,0l-2.66,-9.07l-0.27,0zm11.05,6.51c0,0.53 0.22,0.94 0.66,1.21c0.46,0.28 1.28,0.47 2.47,0.55c1.27,0.11 2.24,0.41 2.9,0.93c0.68,0.5 1.01,1.23 1.01,2.2l0,0.13c0,0.53 -0.11,1.01 -0.33,1.43c-0.2,0.41 -0.49,0.76 -0.88,1.06c-0.36,0.29 -0.82,0.51 -1.36,0.66c-0.53,0.16 -1.11,0.24 -1.74,0.24c-0.85,0 -1.58,-0.11 -2.2,-0.33c-0.6,-0.24 -1.11,-0.54 -1.52,-0.9c-0.39,-0.39 -0.69,-0.81 -0.9,-1.28c-0.2,-0.48 -0.32,-0.97 -0.35,-1.45l1.63,-0.4c0.07,0.84 0.39,1.51 0.97,2.03c0.57,0.49 1.33,0.74 2.28,0.74c0.81,0 1.46,-0.15 1.94,-0.46c0.5,-0.32 0.75,-0.77 0.75,-1.34c0,-0.62 -0.24,-1.06 -0.73,-1.32c-0.48,-0.26 -1.27,-0.43 -2.35,-0.51c-1.26,-0.08 -2.23,-0.38 -2.91,-0.88c-0.67,-0.49 -1.01,-1.22 -1.01,-2.17l0,-0.14c0,-0.51 0.11,-0.96 0.33,-1.34c0.22,-0.39 0.52,-0.72 0.88,-0.99c0.38,-0.26 0.81,-0.46 1.28,-0.59c0.47,-0.13 0.96,-0.2 1.47,-0.2c0.72,0 1.35,0.1 1.89,0.31c0.55,0.19 1,0.44 1.37,0.77c0.36,0.31 0.64,0.67 0.83,1.08c0.21,0.41 0.34,0.82 0.4,1.23l-1.63,0.39c-0.07,-0.7 -0.36,-1.25 -0.86,-1.65c-0.48,-0.39 -1.12,-0.59 -1.91,-0.59c-0.31,0 -0.61,0.04 -0.9,0.11c-0.28,0.06 -0.53,0.15 -0.75,0.29c-0.22,0.13 -0.4,0.3 -0.53,0.5c-0.13,0.19 -0.2,0.42 -0.2,0.68zm14.6,-6.07c0,-0.42 0.14,-0.78 0.44,-1.08c0.3,-0.3 0.67,-0.46 1.1,-0.46c0.42,0 0.78,0.16 1.07,0.46c0.31,0.3 0.47,0.66 0.47,1.08c0,0.43 -0.16,0.79 -0.47,1.1c-0.29,0.29 -0.65,0.44 -1.07,0.44c-0.43,0 -0.8,-0.15 -1.1,-0.44c-0.3,-0.31 -0.44,-0.67 -0.44,-1.1zm-3.13,12.59l3.83,0l0,-7.75l-3.43,0l0,-1.58l5.15,0l0,9.33l3.56,0l0,1.58l-9.11,0l0,-1.58zm21.13,-0.27l-0.26,0c-0.36,0.73 -0.85,1.28 -1.48,1.63c-0.62,0.35 -1.27,0.53 -1.96,0.53c-0.72,0 -1.38,-0.12 -2,-0.35c-0.61,-0.25 -1.16,-0.61 -1.63,-1.08c-0.45,-0.49 -0.81,-1.07 -1.07,-1.76c-0.27,-0.69 -0.4,-1.49 -0.4,-2.4l0,-0.35c0,-0.9 0.13,-1.69 0.4,-2.38c0.26,-0.69 0.62,-1.27 1.07,-1.74c0.47,-0.48 1.02,-0.85 1.63,-1.1c0.62,-0.24 1.27,-0.37 1.96,-0.37c0.75,0 1.42,0.17 2.02,0.51c0.62,0.32 1.1,0.83 1.46,1.51l0.26,0l0,-1.71l1.72,0l0,8.67c0,0.44 0.19,0.66 0.59,0.66l0.55,0l0,1.58l-1.17,0c-0.5,0 -0.91,-0.16 -1.23,-0.48c-0.31,-0.33 -0.46,-0.74 -0.46,-1.24l0,-0.13zm-3.52,0.53c0.51,0 0.98,-0.09 1.41,-0.29c0.44,-0.19 0.81,-0.46 1.12,-0.81c0.31,-0.35 0.55,-0.77 0.73,-1.25c0.17,-0.5 0.26,-1.05 0.26,-1.65l0,-0.27c0,-0.59 -0.09,-1.12 -0.26,-1.6c-0.18,-0.5 -0.43,-0.93 -0.75,-1.28c-0.31,-0.35 -0.69,-0.62 -1.12,-0.81c-0.43,-0.21 -0.89,-0.31 -1.39,-0.31c-0.51,0 -0.98,0.09 -1.41,0.28c-0.42,0.19 -0.8,0.47 -1.12,0.82c-0.31,0.33 -0.55,0.75 -0.73,1.25c-0.17,0.49 -0.26,1.02 -0.26,1.61l0,0.35c0,1.25 0.32,2.22 0.97,2.93c0.66,0.69 1.51,1.03 2.55,1.03zm10.79,1.32l-1.72,0l0,-10.91l1.72,0l0,1.85l0.26,0c0.67,-1.44 1.85,-2.16 3.52,-2.16c1.26,0 2.27,0.4 3.01,1.19c0.75,0.78 1.13,1.95 1.13,3.52l0,6.51l-1.72,0l0,-6.16c0,-1.14 -0.26,-2 -0.77,-2.57c-0.51,-0.58 -1.21,-0.86 -2.09,-0.86c-1.04,0 -1.86,0.36 -2.46,1.08c-0.59,0.7 -0.88,1.65 -0.88,2.83l0,5.68zm-109.82,32.6l10.3,0l0,2.68l-6.49,9.82c-0.31,0.46 -0.54,0.87 -0.7,1.21c-0.17,0.33 -0.25,0.68 -0.25,1.03l0,0.66l-1.8,0l0,-0.79c0,-0.27 0.02,-0.52 0.07,-0.75c0.05,-0.23 0.14,-0.47 0.24,-0.7c0.12,-0.25 0.26,-0.51 0.42,-0.77c0.17,-0.28 0.38,-0.6 0.61,-0.95l6.32,-9.46l0,-0.26l-8.72,0l0,-1.72zm19.5,3.17c0,0.53 -0.08,0.99 -0.26,1.41c-0.18,0.39 -0.42,0.74 -0.73,1.03c-0.29,0.28 -0.63,0.49 -1.03,0.64c-0.38,0.15 -0.79,0.22 -1.21,0.22c-0.43,0 -0.84,-0.07 -1.23,-0.22c-0.38,-0.15 -0.73,-0.36 -1.04,-0.64c-0.29,-0.29 -0.53,-0.64 -0.7,-1.03c-0.18,-0.42 -0.26,-0.88 -0.26,-1.41c0,-0.53 0.08,-0.99 0.26,-1.39c0.17,-0.41 0.41,-0.75 0.7,-1.03c0.31,-0.29 0.66,-0.52 1.04,-0.66c0.39,-0.15 0.8,-0.22 1.23,-0.22c0.42,0 0.83,0.07 1.21,0.22c0.4,0.14 0.74,0.37 1.03,0.66c0.31,0.28 0.55,0.62 0.73,1.03c0.18,0.4 0.26,0.86 0.26,1.39zm-3.23,2.11c0.57,0 1.03,-0.19 1.39,-0.57c0.35,-0.4 0.52,-0.91 0.52,-1.54c0,-0.63 -0.17,-1.14 -0.52,-1.52c-0.36,-0.4 -0.82,-0.59 -1.39,-0.59c-0.57,0 -1.03,0.19 -1.39,0.59c-0.35,0.38 -0.53,0.89 -0.53,1.52c0,0.7 0.18,1.23 0.53,1.58c0.36,0.35 0.82,0.53 1.39,0.53zm7.96,6.95c0,0.53 -0.08,1 -0.26,1.41c-0.18,0.4 -0.42,0.74 -0.73,1.03c-0.29,0.28 -0.64,0.49 -1.03,0.64c-0.38,0.15 -0.79,0.22 -1.21,0.22c-0.43,0 -0.84,-0.07 -1.23,-0.22c-0.38,-0.15 -0.73,-0.36 -1.04,-0.64c-0.29,-0.29 -0.53,-0.63 -0.7,-1.03c-0.18,-0.41 -0.26,-0.88 -0.26,-1.41c0,-0.53 0.08,-0.99 0.26,-1.38c0.17,-0.41 0.41,-0.76 0.7,-1.04c0.31,-0.29 0.66,-0.51 1.04,-0.66c0.39,-0.14 0.8,-0.22 1.23,-0.22c0.42,0 0.83,0.08 1.21,0.22c0.39,0.15 0.74,0.37 1.03,0.66c0.31,0.28 0.55,0.63 0.73,1.04c0.18,0.39 0.26,0.85 0.26,1.38zm-3.23,2.11c0.57,0 1.03,-0.19 1.39,-0.57c0.35,-0.39 0.52,-0.91 0.52,-1.54c0,-0.63 -0.17,-1.14 -0.52,-1.52c-0.36,-0.39 -0.82,-0.59 -1.39,-0.59c-0.57,0 -1.04,0.2 -1.39,0.59c-0.35,0.38 -0.53,0.89 -0.53,1.52c0,0.71 0.18,1.23 0.53,1.59c0.35,0.35 0.82,0.52 1.39,0.52zm2.57,-9.81l0.53,1.01l-10.41,5.31l-0.52,-1.02l10.4,-5.3zm16.27,-4.53l3.52,0l2.07,14.61l0.27,0l2.06,-14.61l3.52,0l0,15.4l-1.71,0l0,-14.61l-0.27,0l-2.06,14.61l-3.35,0l-2.07,-14.61l-0.26,0l0,14.61l-1.72,0l0,-15.4zm22.17,4.49l1.71,0l0,10.91l-1.71,0l0,-1.98l-0.27,0c-0.35,0.7 -0.81,1.26 -1.39,1.67c-0.57,0.41 -1.29,0.62 -2.17,0.62c-0.61,0 -1.16,-0.11 -1.67,-0.31c-0.5,-0.19 -0.94,-0.48 -1.3,-0.88c-0.36,-0.4 -0.63,-0.89 -0.84,-1.47c-0.19,-0.59 -0.29,-1.27 -0.29,-2.05l0,-6.51l1.72,0l0,6.29c0,1.14 0.24,1.98 0.71,2.51c0.46,0.53 1.18,0.79 2.15,0.79c1.04,0 1.86,-0.35 2.44,-1.06c0.6,-0.72 0.91,-1.67 0.91,-2.86l0,-5.67zm5.68,9.33l3.96,0l0,-12.24l-3.83,0l0,-1.58l5.54,0l0,13.82l3.96,0l0,1.58l-9.63,0l0,-1.58zm13.09,-9.33l3.44,0l0,-4.49l1.71,0l0,4.49l4.23,0l0,1.58l-4.23,0l0,7.09c0,0.44 0.2,0.66 0.6,0.66l3.1,0l0,1.58l-3.72,0c-0.5,0 -0.91,-0.16 -1.23,-0.48c-0.31,-0.33 -0.46,-0.74 -0.46,-1.24l0,-7.61l-3.44,0l0,-1.58zm17.24,-3.26c0,-0.42 0.14,-0.78 0.44,-1.08c0.31,-0.3 0.67,-0.46 1.1,-0.46c0.42,0 0.78,0.16 1.08,0.46c0.3,0.3 0.46,0.66 0.46,1.08c0,0.43 -0.16,0.79 -0.46,1.1c-0.3,0.3 -0.66,0.44 -1.08,0.44c-0.43,0 -0.79,-0.14 -1.1,-0.44c-0.3,-0.31 -0.44,-0.67 -0.44,-1.1zm-3.13,12.59l3.83,0l0,-7.75l-3.43,0l0,-1.58l5.15,0l0,9.33l3.56,0l0,1.58l-9.11,0l0,-1.58zm14.73,-4.93l6.6,0l0,1.58l-6.6,0l0,-1.58zm13.2,1.58c0.05,1.09 0.39,1.96 1.02,2.62c0.63,0.66 1.51,0.99 2.64,0.99c0.51,0 0.96,-0.06 1.34,-0.18c0.38,-0.11 0.7,-0.27 0.97,-0.48c0.27,-0.21 0.5,-0.44 0.66,-0.7c0.17,-0.28 0.31,-0.58 0.41,-0.88l1.63,0.44c-0.31,1.01 -0.88,1.84 -1.71,2.48c-0.83,0.63 -1.94,0.95 -3.35,0.95c-0.77,0 -1.49,-0.13 -2.15,-0.4c-0.65,-0.28 -1.21,-0.66 -1.68,-1.16c-0.46,-0.5 -0.83,-1.1 -1.1,-1.79c-0.26,-0.69 -0.39,-1.45 -0.39,-2.28l0,-0.53c0,-0.77 0.13,-1.48 0.39,-2.14c0.28,-0.66 0.66,-1.22 1.15,-1.69c0.48,-0.48 1.05,-0.86 1.69,-1.12c0.66,-0.28 1.37,-0.42 2.14,-0.42c0.89,0 1.66,0.17 2.31,0.51c0.66,0.32 1.19,0.72 1.6,1.21c0.43,0.48 0.74,1.01 0.93,1.58c0.2,0.57 0.3,1.1 0.3,1.58l0,1.41l-8.8,0zm3.66,-4.66c-0.49,0 -0.94,0.08 -1.37,0.24c-0.41,0.15 -0.78,0.36 -1.1,0.64c-0.31,0.28 -0.56,0.61 -0.77,0.99c-0.19,0.36 -0.31,0.77 -0.37,1.21l7.04,0c-0.03,-0.47 -0.15,-0.9 -0.35,-1.28c-0.19,-0.38 -0.45,-0.7 -0.77,-0.97c-0.31,-0.26 -0.67,-0.47 -1.08,-0.61c-0.4,-0.15 -0.81,-0.22 -1.23,-0.22zm8.19,-1.32l3.43,0l0,-4.49l1.71,0l0,4.49l4.23,0l0,1.58l-4.23,0l0,7.09c0,0.44 0.2,0.66 0.6,0.66l3.1,0l0,1.58l-3.72,0c-0.5,0 -0.91,-0.16 -1.23,-0.48c-0.31,-0.33 -0.46,-0.74 -0.46,-1.24l0,-7.61l-3.43,0l0,-1.58zm15.56,10.91l-1.72,0l0,-15.4l1.72,0l0,6.47l0.26,0c0.34,-0.71 0.81,-1.26 1.41,-1.67c0.62,-0.41 1.36,-0.62 2.24,-0.62c1.19,0 2.15,0.4 2.89,1.19c0.74,0.78 1.12,1.95 1.12,3.52l0,6.51l-1.72,0l0,-6.16c0,-1.14 -0.26,-2 -0.77,-2.57c-0.51,-0.58 -1.21,-0.86 -2.09,-0.86c-1.04,0 -1.86,0.36 -2.46,1.08c-0.59,0.7 -0.88,1.65 -0.88,2.83l0,5.68zm13.47,0l-1.72,0l0,-10.91l1.72,0l0,1.85l0.26,0c0.68,-1.44 1.85,-2.16 3.52,-2.16c1.26,0 2.27,0.4 3.02,1.19c0.74,0.78 1.12,1.95 1.12,3.52l0,6.51l-1.72,0l0,-6.16c0,-1.14 -0.25,-2 -0.77,-2.57c-0.51,-0.58 -1.21,-0.86 -2.09,-0.86c-1.04,0 -1.86,0.36 -2.46,1.08c-0.59,0.7 -0.88,1.65 -0.88,2.83l0,5.68zm15.14,-14.17c0,-0.42 0.15,-0.78 0.44,-1.08c0.31,-0.3 0.68,-0.46 1.1,-0.46c0.43,0 0.79,0.16 1.08,0.46c0.31,0.3 0.46,0.66 0.46,1.08c0,0.43 -0.15,0.79 -0.46,1.1c-0.29,0.3 -0.65,0.44 -1.08,0.44c-0.42,0 -0.79,-0.14 -1.1,-0.44c-0.29,-0.31 -0.44,-0.67 -0.44,-1.1zm-3.12,12.59l3.83,0l0,-7.75l-3.44,0l0,-1.58l5.15,0l0,9.33l3.56,0l0,1.58l-9.1,0l0,-1.58zm23.41,-2.29c-0.11,0.6 -0.32,1.16 -0.61,1.67c-0.28,0.51 -0.64,0.96 -1.08,1.34c-0.44,0.37 -0.95,0.66 -1.54,0.86c-0.59,0.2 -1.24,0.31 -1.96,0.31c-0.76,0 -1.49,-0.13 -2.18,-0.38c-0.67,-0.24 -1.27,-0.61 -1.78,-1.07c-0.51,-0.49 -0.92,-1.07 -1.23,-1.76c-0.3,-0.69 -0.44,-1.48 -0.44,-2.38l0,-0.26c0,-0.88 0.14,-1.68 0.44,-2.38c0.31,-0.7 0.72,-1.3 1.23,-1.78c0.51,-0.49 1.11,-0.86 1.78,-1.12c0.69,-0.27 1.42,-0.4 2.18,-0.4c0.69,0 1.33,0.1 1.91,0.31c0.59,0.2 1.1,0.5 1.54,0.88c0.46,0.36 0.82,0.8 1.1,1.32c0.3,0.51 0.5,1.07 0.6,1.67l-1.72,0.4c-0.04,-0.38 -0.15,-0.75 -0.33,-1.1c-0.16,-0.37 -0.39,-0.69 -0.68,-0.95c-0.28,-0.28 -0.62,-0.5 -1.03,-0.66c-0.41,-0.16 -0.89,-0.24 -1.43,-0.24c-0.53,0 -1.03,0.1 -1.5,0.31c-0.46,0.19 -0.86,0.47 -1.21,0.83c-0.35,0.35 -0.63,0.78 -0.84,1.28c-0.19,0.5 -0.28,1.04 -0.28,1.63l0,0.26c0,0.62 0.09,1.17 0.28,1.67c0.21,0.49 0.49,0.9 0.84,1.23c0.35,0.34 0.76,0.61 1.23,0.8c0.47,0.17 0.98,0.26 1.52,0.26c0.54,0 1.01,-0.08 1.41,-0.24c0.41,-0.18 0.75,-0.4 1.03,-0.66c0.29,-0.28 0.52,-0.6 0.68,-0.95c0.18,-0.35 0.3,-0.72 0.36,-1.1l1.71,0.4zm27.03,-1.45c0,0.9 -0.15,1.71 -0.46,2.42c-0.29,0.69 -0.69,1.27 -1.19,1.76c-0.5,0.46 -1.08,0.83 -1.76,1.07c-0.66,0.25 -1.35,0.38 -2.07,0.38c-0.73,0 -1.43,-0.13 -2.09,-0.38c-0.66,-0.24 -1.24,-0.61 -1.74,-1.07c-0.49,-0.49 -0.9,-1.07 -1.2,-1.76c-0.3,-0.71 -0.45,-1.52 -0.45,-2.42l0,-0.27c0,-0.89 0.15,-1.68 0.45,-2.37c0.3,-0.71 0.71,-1.3 1.2,-1.79c0.52,-0.48 1.1,-0.85 1.77,-1.1c0.66,-0.25 1.34,-0.37 2.06,-0.37c0.72,0 1.41,0.12 2.07,0.37c0.66,0.25 1.24,0.62 1.74,1.1c0.51,0.49 0.92,1.08 1.21,1.79c0.31,0.69 0.46,1.48 0.46,2.37l0,0.27zm-5.48,4c0.53,0 1.01,-0.09 1.46,-0.26c0.45,-0.19 0.85,-0.47 1.18,-0.82c0.34,-0.35 0.6,-0.77 0.8,-1.25c0.19,-0.5 0.28,-1.06 0.28,-1.67l0,-0.27c0,-0.59 -0.09,-1.12 -0.28,-1.6c-0.2,-0.5 -0.46,-0.93 -0.8,-1.28c-0.33,-0.35 -0.73,-0.62 -1.18,-0.81c-0.46,-0.21 -0.94,-0.31 -1.46,-0.31c-0.51,0 -0.99,0.1 -1.45,0.31c-0.45,0.19 -0.85,0.46 -1.19,0.81c-0.33,0.35 -0.6,0.78 -0.79,1.28c-0.19,0.48 -0.29,1.01 -0.29,1.6l0,0.27c0,0.61 0.1,1.17 0.29,1.67c0.19,0.48 0.46,0.9 0.79,1.25c0.34,0.35 0.73,0.63 1.17,0.82c0.45,0.17 0.95,0.26 1.47,0.26zm8.04,-9.59l3.96,0l0,1.45l0.26,0c0.28,-0.6 0.68,-1.04 1.19,-1.32c0.52,-0.29 1.1,-0.44 1.76,-0.44c1.1,0 1.99,0.36 2.66,1.08c0.68,0.72 1.04,1.77 1.08,3.14l-1.8,0.27c0,-1.01 -0.24,-1.74 -0.73,-2.18c-0.48,-0.46 -1.08,-0.68 -1.78,-0.68c-0.45,0 -0.85,0.09 -1.19,0.26c-0.32,0.18 -0.59,0.42 -0.81,0.73c-0.22,0.31 -0.38,0.66 -0.49,1.08c-0.1,0.41 -0.15,0.85 -0.15,1.32l0,4.62l2.77,0l0,1.58l-6.99,0l0,-1.58l2.5,0l0,-7.75l-2.24,0l0,-1.58zm26.96,1.49c0,-1.99 0.48,-3.54 1.43,-4.64c0.96,-1.1 2.28,-1.65 3.98,-1.65c1.71,0 3.03,0.55 3.99,1.65c0.95,1.1 1.43,2.65 1.43,4.64l0,3.44c0,2.05 -0.48,3.61 -1.43,4.68c-0.96,1.07 -2.28,1.61 -3.99,1.61c-1.7,0 -3.02,-0.54 -3.98,-1.61c-0.95,-1.07 -1.43,-2.63 -1.43,-4.68l0,-3.44zm5.41,8.01c1.19,0 2.08,-0.4 2.67,-1.21c0.6,-0.82 0.9,-1.99 0.9,-3.5l0,-3.16c0,-1.41 -0.3,-2.55 -0.9,-3.41c-0.59,-0.87 -1.48,-1.3 -2.67,-1.3c-1.18,0 -2.08,0.43 -2.68,1.3c-0.59,0.86 -0.88,2 -0.88,3.41l0,3.16c0,1.51 0.29,2.68 0.88,3.5c0.6,0.81 1.5,1.21 2.68,1.21zm8.28,-9.5l3.44,0l0,-4.49l1.71,0l0,4.49l4.23,0l0,1.58l-4.23,0l0,7.09c0,0.44 0.2,0.66 0.6,0.66l3.1,0l0,1.58l-3.72,0c-0.5,0 -0.91,-0.16 -1.23,-0.48c-0.31,-0.33 -0.46,-0.74 -0.46,-1.24l0,-7.61l-3.44,0l0,-1.58zm15.56,10.91l-1.71,0l0,-15.4l1.71,0l0,6.47l0.27,0c0.34,-0.71 0.81,-1.26 1.41,-1.67c0.61,-0.41 1.36,-0.62 2.24,-0.62c1.19,0 2.15,0.4 2.88,1.19c0.75,0.78 1.12,1.95 1.12,3.52l0,6.51l-1.71,0l0,-6.16c0,-1.14 -0.26,-2 -0.77,-2.57c-0.52,-0.58 -1.21,-0.86 -2.09,-0.86c-1.04,0 -1.86,0.36 -2.47,1.08c-0.58,0.7 -0.88,1.65 -0.88,2.83l0,5.68zm13.01,-4.93c0.05,1.09 0.38,1.96 1.01,2.62c0.64,0.66 1.52,0.99 2.64,0.99c0.52,0 0.97,-0.06 1.35,-0.18c0.38,-0.11 0.7,-0.27 0.97,-0.48c0.27,-0.21 0.49,-0.44 0.65,-0.7c0.18,-0.28 0.32,-0.58 0.42,-0.88l1.63,0.44c-0.31,1.01 -0.88,1.84 -1.71,2.48c-0.83,0.63 -1.94,0.95 -3.35,0.95c-0.78,0 -1.5,-0.13 -2.15,-0.4c-0.65,-0.28 -1.21,-0.66 -1.68,-1.16c-0.47,-0.5 -0.83,-1.1 -1.1,-1.79c-0.26,-0.69 -0.39,-1.45 -0.39,-2.28l0,-0.53c0,-0.77 0.13,-1.48 0.39,-2.14c0.28,-0.66 0.66,-1.22 1.15,-1.69c0.48,-0.48 1.05,-0.86 1.69,-1.12c0.66,-0.28 1.37,-0.42 2.13,-0.42c0.9,0 1.67,0.17 2.32,0.51c0.65,0.32 1.19,0.72 1.6,1.21c0.43,0.48 0.74,1.01 0.92,1.58c0.21,0.57 0.31,1.1 0.31,1.58l0,1.41l-8.8,0zm3.65,-4.66c-0.48,0 -0.93,0.08 -1.36,0.24c-0.41,0.15 -0.78,0.36 -1.1,0.64c-0.31,0.28 -0.56,0.61 -0.77,0.99c-0.19,0.36 -0.31,0.77 -0.37,1.21l7.04,0c-0.03,-0.47 -0.15,-0.9 -0.36,-1.28c-0.18,-0.38 -0.44,-0.7 -0.76,-0.97c-0.31,-0.26 -0.67,-0.47 -1.08,-0.61c-0.4,-0.15 -0.81,-0.22 -1.24,-0.22zm7.95,-1.32l3.96,0l0,1.45l0.27,0c0.28,-0.6 0.67,-1.04 1.19,-1.32c0.51,-0.29 1.1,-0.44 1.76,-0.44c1.1,0 1.98,0.36 2.66,1.08c0.67,0.72 1.03,1.77 1.08,3.14l-1.81,0.27c0,-1.01 -0.24,-1.74 -0.72,-2.18c-0.49,-0.46 -1.08,-0.68 -1.79,-0.68c-0.45,0 -0.85,0.09 -1.18,0.26c-0.33,0.18 -0.6,0.42 -0.82,0.73c-0.22,0.31 -0.38,0.66 -0.48,1.08c-0.1,0.41 -0.16,0.85 -0.16,1.32l0,4.62l2.78,0l0,1.58l-7,0l0,-1.58l2.51,0l0,-7.75l-2.25,0l0,-1.58zm-305.91,51.25l0,-2.55l5.02,-3.21l0,-0.26l-8.71,0l0,-1.72l10.29,0l0,2.82l-5.01,3.21l0,0.26l0.88,0c0.58,0 1.15,0.1 1.69,0.29c0.54,0.19 1.02,0.47 1.43,0.83c0.43,0.37 0.77,0.82 1.01,1.37c0.27,0.53 0.4,1.14 0.4,1.85l0,0.39c0,0.66 -0.13,1.28 -0.4,1.85c-0.26,0.57 -0.63,1.07 -1.1,1.5c-0.46,0.41 -1.02,0.74 -1.67,0.99c-0.63,0.23 -1.32,0.35 -2.07,0.35c-0.86,0 -1.64,-0.13 -2.33,-0.4c-0.69,-0.26 -1.27,-0.62 -1.76,-1.08c-0.48,-0.46 -0.86,-1.01 -1.12,-1.62c-0.25,-0.64 -0.37,-1.3 -0.37,-2.01l0,-1.18l1.84,0l0,1.05c0,0.56 0.09,1.06 0.27,1.5c0.19,0.42 0.45,0.79 0.77,1.1c0.34,0.29 0.73,0.52 1.19,0.68c0.45,0.16 0.94,0.24 1.47,0.24c0.48,0 0.93,-0.08 1.34,-0.24c0.43,-0.16 0.79,-0.38 1.1,-0.66c0.31,-0.29 0.55,-0.63 0.73,-1.01c0.17,-0.4 0.26,-0.82 0.26,-1.26l0,-0.13c0,-0.92 -0.29,-1.64 -0.88,-2.15c-0.59,-0.53 -1.32,-0.8 -2.2,-0.8l-2.07,0zm15.87,-4.57c0,0.53 -0.08,0.99 -0.26,1.41c-0.18,0.39 -0.42,0.74 -0.73,1.03c-0.29,0.28 -0.63,0.49 -1.03,0.64c-0.38,0.15 -0.79,0.22 -1.21,0.22c-0.43,0 -0.84,-0.07 -1.23,-0.22c-0.38,-0.15 -0.73,-0.36 -1.04,-0.64c-0.29,-0.29 -0.53,-0.64 -0.7,-1.03c-0.18,-0.42 -0.26,-0.88 -0.26,-1.41c0,-0.53 0.08,-0.99 0.26,-1.39c0.17,-0.41 0.41,-0.75 0.7,-1.03c0.31,-0.29 0.66,-0.52 1.04,-0.66c0.39,-0.15 0.8,-0.22 1.23,-0.22c0.42,0 0.83,0.07 1.21,0.22c0.4,0.14 0.74,0.37 1.03,0.66c0.31,0.28 0.55,0.62 0.73,1.03c0.18,0.4 0.26,0.86 0.26,1.39zm-3.23,2.11c0.57,0 1.03,-0.19 1.39,-0.57c0.35,-0.4 0.52,-0.91 0.52,-1.54c0,-0.63 -0.17,-1.14 -0.52,-1.52c-0.36,-0.4 -0.82,-0.59 -1.39,-0.59c-0.57,0 -1.03,0.19 -1.39,0.59c-0.35,0.38 -0.53,0.89 -0.53,1.52c0,0.7 0.18,1.23 0.53,1.58c0.36,0.35 0.82,0.53 1.39,0.53zm7.96,6.95c0,0.53 -0.08,1 -0.26,1.41c-0.18,0.4 -0.42,0.74 -0.73,1.03c-0.29,0.28 -0.64,0.49 -1.03,0.64c-0.38,0.15 -0.79,0.22 -1.21,0.22c-0.43,0 -0.84,-0.07 -1.23,-0.22c-0.38,-0.15 -0.73,-0.36 -1.04,-0.64c-0.29,-0.29 -0.53,-0.63 -0.7,-1.03c-0.18,-0.41 -0.26,-0.88 -0.26,-1.41c0,-0.53 0.08,-0.99 0.26,-1.38c0.17,-0.41 0.41,-0.76 0.7,-1.04c0.31,-0.29 0.66,-0.51 1.04,-0.66c0.39,-0.14 0.8,-0.22 1.23,-0.22c0.42,0 0.83,0.08 1.21,0.22c0.39,0.15 0.74,0.37 1.03,0.66c0.31,0.28 0.55,0.63 0.73,1.04c0.18,0.39 0.26,0.85 0.26,1.38zm-3.23,2.11c0.57,0 1.03,-0.19 1.39,-0.57c0.35,-0.39 0.52,-0.91 0.52,-1.54c0,-0.63 -0.17,-1.14 -0.52,-1.52c-0.36,-0.39 -0.82,-0.59 -1.39,-0.59c-0.57,0 -1.04,0.2 -1.39,0.59c-0.35,0.38 -0.53,0.89 -0.53,1.52c0,0.71 0.18,1.23 0.53,1.59c0.35,0.35 0.82,0.52 1.39,0.52zm2.57,-9.81l0.53,1.01l-10.41,5.31l-0.52,-1.02l10.4,-5.3zm16.52,9.15l1.32,0l0,-11.96l-1.32,0l0,-1.72l6.22,0c0.74,0 1.38,0.1 1.94,0.31c0.57,0.2 1.05,0.48 1.43,0.83c0.39,0.36 0.69,0.78 0.88,1.28c0.2,0.48 0.31,1.01 0.31,1.58l0,0.27c0,0.42 -0.07,0.81 -0.2,1.16c-0.13,0.36 -0.32,0.67 -0.55,0.95c-0.24,0.28 -0.52,0.52 -0.84,0.73c-0.31,0.19 -0.64,0.33 -1.01,0.44l0,0.26c0.73,0.21 1.35,0.6 1.85,1.19c0.5,0.57 0.75,1.27 0.75,2.11l0,0.26c0,0.58 -0.11,1.11 -0.31,1.61c-0.19,0.48 -0.49,0.91 -0.88,1.28c-0.38,0.35 -0.86,0.63 -1.43,0.83c-0.56,0.21 -1.2,0.31 -1.94,0.31l-6.22,0l0,-1.72zm3.16,0l2.93,0c0.87,0 1.57,-0.21 2.11,-0.63c0.54,-0.44 0.82,-1.04 0.82,-1.81l0,-0.13c0,-0.79 -0.26,-1.41 -0.77,-1.87c-0.52,-0.47 -1.21,-0.7 -2.09,-0.7l-3,0l0,5.14zm0,-6.86l3,0c0.88,0 1.57,-0.23 2.09,-0.68c0.51,-0.46 0.77,-1.08 0.77,-1.87l0,-0.13c0,-0.75 -0.28,-1.34 -0.82,-1.76c-0.54,-0.44 -1.24,-0.66 -2.11,-0.66l-2.93,0l0,5.1zm10.97,7l3.96,0l0,-12.24l-3.83,0l0,-1.58l5.54,0l0,13.82l3.96,0l0,1.58l-9.63,0l0,-1.58zm21.39,-0.27l-0.27,0c-0.35,0.73 -0.84,1.28 -1.47,1.63c-0.62,0.35 -1.27,0.53 -1.96,0.53c-0.72,0 -1.38,-0.12 -2,-0.35c-0.62,-0.25 -1.16,-0.61 -1.63,-1.08c-0.45,-0.49 -0.81,-1.07 -1.08,-1.76c-0.26,-0.69 -0.39,-1.49 -0.39,-2.4l0,-0.35c0,-0.9 0.13,-1.69 0.39,-2.38c0.27,-0.69 0.63,-1.27 1.08,-1.74c0.47,-0.48 1.01,-0.85 1.63,-1.1c0.62,-0.25 1.27,-0.37 1.96,-0.37c0.75,0 1.42,0.17 2.02,0.51c0.62,0.32 1.1,0.83 1.45,1.51l0.27,0l0,-1.71l1.71,0l0,8.67c0,0.44 0.2,0.66 0.6,0.66l0.55,0l0,1.58l-1.17,0c-0.5,0 -0.91,-0.16 -1.23,-0.48c-0.31,-0.33 -0.46,-0.74 -0.46,-1.24l0,-0.13zm-3.52,0.53c0.51,0 0.98,-0.1 1.41,-0.29c0.44,-0.19 0.81,-0.46 1.12,-0.81c0.31,-0.35 0.55,-0.77 0.72,-1.25c0.18,-0.5 0.27,-1.05 0.27,-1.65l0,-0.27c0,-0.59 -0.09,-1.12 -0.27,-1.6c-0.17,-0.5 -0.42,-0.93 -0.74,-1.28c-0.31,-0.35 -0.69,-0.62 -1.13,-0.81c-0.42,-0.21 -0.88,-0.31 -1.38,-0.31c-0.52,0 -0.99,0.09 -1.41,0.28c-0.43,0.19 -0.8,0.47 -1.12,0.82c-0.31,0.34 -0.55,0.75 -0.73,1.25c-0.17,0.49 -0.26,1.02 -0.26,1.61l0,0.35c0,1.25 0.32,2.22 0.97,2.93c0.66,0.68 1.51,1.03 2.55,1.03zm19.28,-2.55c-0.12,0.6 -0.33,1.16 -0.62,1.67c-0.28,0.51 -0.64,0.96 -1.08,1.34c-0.44,0.37 -0.95,0.66 -1.54,0.86c-0.58,0.2 -1.24,0.31 -1.96,0.31c-0.76,0 -1.48,-0.13 -2.17,-0.38c-0.68,-0.24 -1.27,-0.61 -1.79,-1.07c-0.51,-0.49 -0.92,-1.07 -1.23,-1.76c-0.29,-0.69 -0.44,-1.48 -0.44,-2.38l0,-0.26c0,-0.88 0.15,-1.68 0.44,-2.38c0.31,-0.7 0.72,-1.3 1.23,-1.78c0.52,-0.49 1.11,-0.86 1.79,-1.12c0.69,-0.27 1.41,-0.4 2.17,-0.4c0.69,0 1.33,0.1 1.92,0.31c0.58,0.2 1.1,0.5 1.54,0.88c0.45,0.36 0.82,0.8 1.1,1.32c0.29,0.51 0.49,1.07 0.59,1.67l-1.71,0.4c-0.05,-0.38 -0.16,-0.75 -0.33,-1.1c-0.16,-0.37 -0.39,-0.69 -0.69,-0.95c-0.27,-0.28 -0.62,-0.5 -1.03,-0.66c-0.41,-0.16 -0.89,-0.24 -1.43,-0.24c-0.53,0 -1.03,0.1 -1.5,0.31c-0.45,0.19 -0.85,0.47 -1.21,0.83c-0.35,0.35 -0.63,0.78 -0.83,1.28c-0.19,0.5 -0.29,1.04 -0.29,1.63l0,0.26c0,0.62 0.1,1.17 0.29,1.67c0.2,0.49 0.48,0.9 0.83,1.23c0.36,0.34 0.77,0.61 1.24,0.8c0.47,0.17 0.97,0.26 1.51,0.26c0.55,0 1.02,-0.08 1.41,-0.24c0.41,-0.18 0.76,-0.4 1.04,-0.66c0.29,-0.28 0.52,-0.6 0.68,-0.95c0.17,-0.35 0.29,-0.72 0.35,-1.1l1.72,0.4zm6.07,-2.51l0.38,0l4.16,-4.53l2.11,0l0,0.13l-4.53,4.99l0,0.4l5.06,5.26l0,0.13l-2.11,0l-4.65,-4.8l-0.42,0l0,4.8l-1.71,0l0,-15.4l1.71,0l0,9.02zm-97.44,38.98l10.3,0l0,2.68l-6.49,9.82c-0.31,0.46 -0.54,0.87 -0.7,1.21c-0.17,0.33 -0.25,0.68 -0.25,1.03l0,0.66l-1.8,0l0,-0.79c0,-0.27 0.02,-0.52 0.07,-0.75c0.05,-0.23 0.14,-0.47 0.24,-0.7c0.12,-0.25 0.26,-0.51 0.42,-0.77c0.17,-0.28 0.38,-0.6 0.61,-0.95l6.32,-9.46l0,-0.26l-8.72,0l0,-1.72zm15.39,10.91c0,0.95 0.29,1.73 0.88,2.31c0.58,0.57 1.4,0.86 2.44,0.86c0.5,0 0.95,-0.09 1.36,-0.26c0.43,-0.18 0.79,-0.43 1.08,-0.75c0.31,-0.34 0.54,-0.73 0.71,-1.17c0.17,-0.45 0.26,-0.96 0.26,-1.52l0,-2.28l-0.26,0c-0.34,0.64 -0.82,1.15 -1.45,1.51c-0.64,0.37 -1.37,0.55 -2.21,0.55c-0.71,0 -1.37,-0.11 -1.98,-0.33c-0.6,-0.22 -1.12,-0.54 -1.56,-0.96c-0.44,-0.44 -0.78,-0.97 -1.03,-1.59c-0.24,-0.61 -0.35,-1.32 -0.35,-2.11l0,-0.26c0,-0.77 0.13,-1.46 0.39,-2.09c0.27,-0.65 0.63,-1.2 1.1,-1.65c0.49,-0.47 1.05,-0.83 1.7,-1.08c0.66,-0.27 1.37,-0.4 2.15,-0.4c0.78,0 1.49,0.13 2.14,0.4c0.66,0.25 1.22,0.6 1.69,1.05c0.48,0.46 0.86,1 1.12,1.63c0.27,0.63 0.4,1.32 0.4,2.07l0,5.54c0,0.83 -0.14,1.57 -0.42,2.23c-0.26,0.64 -0.64,1.2 -1.12,1.67c-0.47,0.45 -1.03,0.81 -1.67,1.05c-0.65,0.25 -1.34,0.38 -2.09,0.38c-0.75,0 -1.44,-0.11 -2.07,-0.33c-0.63,-0.22 -1.18,-0.54 -1.63,-0.95c-0.45,-0.42 -0.81,-0.93 -1.05,-1.52c-0.25,-0.6 -0.38,-1.26 -0.38,-2l1.85,0zm3.23,-9.59c-0.53,0 -1.01,0.09 -1.45,0.26c-0.42,0.18 -0.79,0.43 -1.1,0.75c-0.31,0.32 -0.54,0.71 -0.7,1.15c-0.17,0.42 -0.24,0.88 -0.24,1.38l0,0.27c0,0.51 0.08,0.98 0.26,1.4c0.17,0.42 0.42,0.77 0.73,1.08c0.3,0.29 0.67,0.52 1.09,0.68c0.43,0.17 0.9,0.25 1.41,0.25c0.5,0 0.96,-0.08 1.39,-0.25c0.42,-0.17 0.79,-0.41 1.1,-0.7c0.32,-0.29 0.57,-0.64 0.75,-1.06c0.17,-0.41 0.26,-0.85 0.26,-1.32l0,-0.41c0,-0.49 -0.08,-0.94 -0.24,-1.37c-0.16,-0.42 -0.4,-0.79 -0.71,-1.1c-0.3,-0.32 -0.68,-0.57 -1.12,-0.75c-0.42,-0.17 -0.9,-0.26 -1.43,-0.26zm14.35,1.85c0,0.53 -0.08,0.99 -0.26,1.41c-0.18,0.39 -0.42,0.74 -0.73,1.03c-0.29,0.28 -0.64,0.49 -1.03,0.64c-0.38,0.15 -0.78,0.22 -1.21,0.22c-0.43,0 -0.84,-0.07 -1.23,-0.22c-0.38,-0.15 -0.73,-0.36 -1.04,-0.64c-0.29,-0.29 -0.53,-0.64 -0.7,-1.03c-0.18,-0.42 -0.26,-0.88 -0.26,-1.41c0,-0.53 0.08,-0.99 0.26,-1.39c0.17,-0.41 0.41,-0.75 0.7,-1.03c0.31,-0.29 0.66,-0.52 1.04,-0.66c0.39,-0.15 0.8,-0.22 1.23,-0.22c0.43,0 0.83,0.07 1.21,0.22c0.39,0.14 0.74,0.37 1.03,0.66c0.31,0.28 0.55,0.62 0.73,1.03c0.18,0.4 0.26,0.86 0.26,1.39zm-3.23,2.11c0.57,0 1.03,-0.19 1.39,-0.57c0.35,-0.4 0.52,-0.91 0.52,-1.54c0,-0.63 -0.17,-1.14 -0.52,-1.52c-0.36,-0.4 -0.82,-0.59 -1.39,-0.59c-0.57,0 -1.04,0.19 -1.39,0.59c-0.35,0.38 -0.53,0.89 -0.53,1.52c0,0.7 0.18,1.23 0.53,1.58c0.35,0.35 0.82,0.53 1.39,0.53zm7.96,6.95c0,0.53 -0.08,1 -0.26,1.41c-0.18,0.4 -0.42,0.74 -0.73,1.03c-0.29,0.28 -0.64,0.49 -1.03,0.64c-0.38,0.15 -0.78,0.22 -1.21,0.22c-0.43,0 -0.84,-0.07 -1.23,-0.22c-0.38,-0.15 -0.73,-0.36 -1.04,-0.64c-0.29,-0.29 -0.53,-0.63 -0.7,-1.03c-0.18,-0.41 -0.26,-0.88 -0.26,-1.41c0,-0.53 0.08,-0.99 0.26,-1.38c0.17,-0.41 0.41,-0.76 0.7,-1.04c0.31,-0.29 0.66,-0.51 1.04,-0.66c0.39,-0.14 0.8,-0.22 1.23,-0.22c0.43,0 0.83,0.08 1.21,0.22c0.39,0.15 0.74,0.37 1.03,0.66c0.31,0.28 0.55,0.63 0.73,1.04c0.18,0.39 0.26,0.85 0.26,1.38zm-3.23,2.11c0.57,0 1.03,-0.19 1.38,-0.57c0.36,-0.39 0.53,-0.91 0.53,-1.54c0,-0.63 -0.17,-1.14 -0.53,-1.52c-0.35,-0.39 -0.81,-0.59 -1.38,-0.59c-0.57,0 -1.04,0.2 -1.39,0.59c-0.35,0.38 -0.53,0.89 -0.53,1.52c0,0.71 0.18,1.23 0.53,1.59c0.35,0.35 0.82,0.52 1.39,0.52zm2.57,-9.81l0.53,1.01l-10.4,5.31l-0.53,-1.02l10.4,-5.3zm26.92,10.87l-3.36,0l-1.43,-14.61l-0.27,0l-1.43,14.61l-3.36,0l-1.56,-15.4l1.67,0l1.47,14.61l0.26,0l1.39,-14.61l3.39,0l1.39,14.61l0.26,0l1.47,-14.61l1.68,0l-1.57,15.4zm5.44,0l-1.71,0l0,-15.4l1.71,0l0,6.47l0.27,0c0.34,-0.71 0.8,-1.26 1.41,-1.67c0.61,-0.41 1.36,-0.62 2.24,-0.62c1.19,0 2.15,0.4 2.88,1.19c0.75,0.78 1.12,1.95 1.12,3.52l0,6.51l-1.71,0l0,-6.16c0,-1.14 -0.26,-2 -0.77,-2.57c-0.52,-0.58 -1.21,-0.86 -2.09,-0.86c-1.04,0 -1.86,0.36 -2.47,1.08c-0.58,0.7 -0.88,1.65 -0.88,2.83l0,5.68zm15.15,-14.17c0,-0.42 0.14,-0.78 0.44,-1.08c0.3,-0.3 0.67,-0.46 1.1,-0.46c0.42,0 0.78,0.16 1.07,0.46c0.31,0.3 0.47,0.66 0.47,1.08c0,0.43 -0.16,0.79 -0.47,1.1c-0.29,0.3 -0.65,0.44 -1.07,0.44c-0.43,0 -0.8,-0.14 -1.1,-0.44c-0.3,-0.31 -0.44,-0.67 -0.44,-1.1zm-3.13,12.59l3.83,0l0,-7.75l-3.43,0l0,-1.58l5.15,0l0,9.33l3.56,0l0,1.58l-9.11,0l0,-1.58zm12.84,-9.33l3.43,0l0,-4.49l1.71,0l0,4.49l4.23,0l0,1.58l-4.23,0l0,7.09c0,0.44 0.2,0.66 0.6,0.66l3.1,0l0,1.58l-3.72,0c-0.5,0 -0.91,-0.16 -1.23,-0.48c-0.31,-0.33 -0.46,-0.74 -0.46,-1.24l0,-7.61l-3.43,0l0,-1.58zm15.09,5.98c0.05,1.09 0.39,1.96 1.02,2.62c0.63,0.66 1.51,0.99 2.64,0.99c0.51,0 0.96,-0.06 1.34,-0.18c0.38,-0.11 0.7,-0.27 0.97,-0.48c0.27,-0.21 0.49,-0.44 0.66,-0.7c0.17,-0.28 0.31,-0.58 0.41,-0.88l1.63,0.44c-0.31,1.01 -0.88,1.84 -1.71,2.48c-0.83,0.63 -1.94,0.95 -3.35,0.95c-0.78,0 -1.49,-0.13 -2.15,-0.4c-0.65,-0.28 -1.21,-0.66 -1.68,-1.16c-0.47,-0.5 -0.83,-1.1 -1.1,-1.79c-0.26,-0.69 -0.39,-1.45 -0.39,-2.28l0,-0.53c0,-0.77 0.13,-1.48 0.39,-2.14c0.28,-0.66 0.66,-1.22 1.15,-1.69c0.48,-0.48 1.05,-0.86 1.69,-1.12c0.66,-0.28 1.37,-0.42 2.14,-0.42c0.89,0 1.66,0.17 2.31,0.51c0.66,0.32 1.19,0.72 1.6,1.21c0.43,0.48 0.74,1.01 0.93,1.58c0.2,0.57 0.3,1.1 0.3,1.58l0,1.41l-8.8,0zm3.66,-4.66c-0.49,0 -0.94,0.08 -1.37,0.24c-0.41,0.15 -0.78,0.36 -1.1,0.64c-0.31,0.28 -0.56,0.61 -0.77,0.99c-0.19,0.36 -0.31,0.77 -0.37,1.21l7.04,0c-0.03,-0.47 -0.15,-0.9 -0.35,-1.28c-0.19,-0.38 -0.45,-0.7 -0.77,-0.97c-0.31,-0.26 -0.67,-0.47 -1.08,-0.61c-0.4,-0.15 -0.81,-0.22 -1.23,-0.22z" fill="black" id="svg_9"/>
   <circle cx="492" cy="227" fill="#DFF851" id="svg_10" r="11"/>
   <circle cx="492" cy="275" fill="#2565DA" id="svg_11" r="11"/>
   <circle cx="492" cy="323" fill="#E24630" id="svg_12" r="11"/>
   <circle cx="492" cy="371" fill="#E197B3" id="svg_13" r="11"/>
  </g>
 </g>
</svg>