<svg width="315" height="151" viewBox="0 0 315 151" fill="none" xmlns="http://www.w3.org/2000/svg">
<rect width="150" height="150" transform="translate(0 0.348389)" fill="#F6331C"/>
<path d="M59.853 51.7964C58.1677 51.7964 56.6743 51.4977 55.373 50.9004C54.0717 50.3031 53.0477 49.4497 52.301 48.3404C51.5757 47.2097 51.213 45.8764 51.213 44.3404V43.7644H55.309V44.2124C55.309 45.4071 55.725 46.3671 56.557 47.0924C57.389 47.7964 58.4877 48.1484 59.853 48.1484C61.2397 48.1484 62.3063 47.8177 63.053 47.1564C63.821 46.4951 64.205 45.6631 64.205 44.6604V44.3404C64.205 43.6577 64.0343 43.1031 63.693 42.6764C63.3517 42.2497 62.893 41.9404 62.317 41.7484C61.741 41.5351 61.0903 41.4284 60.365 41.4284H55.885V36.9484L63.117 33.1084V32.5964H51.789V28.9484H67.661V34.3884L60.909 37.9724V38.4844H62.093C63.0957 38.4844 64.0663 38.6871 65.005 39.0924C65.965 39.4977 66.7543 40.1271 67.373 40.9804C67.9917 41.8124 68.301 42.9004 68.301 44.2444V44.6284C68.301 46.0791 67.949 47.3484 67.245 48.4364C66.541 49.5031 65.549 50.3351 64.269 50.9324C63.0103 51.5084 61.5383 51.7964 59.853 51.7964ZM77.2873 51.3484V31.9564H76.7113L73.7033 39.0604H69.4153L73.9913 28.9484H81.3833V51.3484H77.2873Z" fill="white"/>
<path d="M89.868 46.5564L88.652 45.5804L97.26 34.9404L98.476 35.9164L89.868 46.5564ZM96.62 46.5084C95.8093 46.5084 95.1747 46.2951 94.716 45.8684C94.2573 45.4311 94.028 44.8391 94.028 44.0924V43.9804C94.028 43.2231 94.2573 42.6311 94.716 42.2044C95.1747 41.7671 95.8093 41.5484 96.62 41.5484C97.4093 41.5484 98.0387 41.7671 98.508 42.2044C98.9773 42.6311 99.212 43.2231 99.212 43.9804V44.0924C99.212 44.8391 98.9827 45.4311 98.524 45.8684C98.0653 46.2951 97.4307 46.5084 96.62 46.5084ZM96.62 45.1964C96.9293 45.1964 97.1693 45.1004 97.34 44.9084C97.5213 44.7164 97.612 44.4657 97.612 44.1564V43.9004C97.612 43.5911 97.5213 43.3404 97.34 43.1484C97.1693 42.9564 96.9293 42.8604 96.62 42.8604C96.3107 42.8604 96.0653 42.9564 95.884 43.1484C95.7133 43.3404 95.628 43.5911 95.628 43.9004V44.1564C95.628 44.4657 95.7133 44.7164 95.884 44.9084C96.0653 45.1004 96.3107 45.1964 96.62 45.1964ZM90.508 39.9484C89.6973 39.9484 89.0627 39.7351 88.604 39.3084C88.1453 38.8711 87.916 38.2791 87.916 37.5324V37.4204C87.916 36.6631 88.1453 36.0711 88.604 35.6444C89.0627 35.2071 89.6973 34.9884 90.508 34.9884C91.2973 34.9884 91.9267 35.2071 92.396 35.6444C92.8653 36.0711 93.1 36.6631 93.1 37.4204V37.5324C93.1 38.2791 92.8707 38.8711 92.412 39.3084C91.9533 39.7351 91.3187 39.9484 90.508 39.9484ZM90.508 38.6364C90.8173 38.6364 91.0573 38.5404 91.228 38.3484C91.4093 38.1564 91.5 37.9057 91.5 37.5964V37.3404C91.5 37.0311 91.4093 36.7804 91.228 36.5884C91.0573 36.3964 90.8173 36.3004 90.508 36.3004C90.1987 36.3004 89.9533 36.3964 89.772 36.5884C89.6013 36.7804 89.516 37.0311 89.516 37.3404V37.5964C89.516 37.9057 89.6013 38.1564 89.772 38.3484C89.9533 38.5404 90.1987 38.6364 90.508 38.6364Z" fill="white"/>
<path d="M46.6952 102.572C45.8632 102.572 45.1379 102.423 44.5192 102.124C43.9005 101.826 43.4205 101.383 43.0792 100.796C42.7379 100.199 42.5672 99.4684 42.5672 98.6044V91.1484H43.8952V98.6204C43.8952 99.5377 44.1405 100.226 44.6312 100.684C45.1219 101.143 45.8099 101.372 46.6952 101.372C47.5805 101.372 48.2685 101.143 48.7592 100.684C49.2499 100.226 49.4952 99.5377 49.4952 98.6204V91.1484H50.8392V98.6044C50.8392 99.4684 50.6685 100.199 50.3272 100.796C49.9859 101.383 49.5005 101.826 48.8712 102.124C48.2525 102.423 47.5272 102.572 46.6952 102.572ZM53.3514 102.348V94.5244H54.5834V95.8524H54.8074C54.9781 95.4791 55.2661 95.1431 55.6714 94.8444C56.0874 94.5351 56.6954 94.3804 57.4954 94.3804C58.0821 94.3804 58.6048 94.5031 59.0634 94.7484C59.5328 94.9937 59.9061 95.3564 60.1834 95.8364C60.4608 96.3164 60.5994 96.9084 60.5994 97.6124V102.348H59.3354V97.7084C59.3354 96.9297 59.1381 96.3644 58.7434 96.0124C58.3594 95.6604 57.8368 95.4844 57.1754 95.4844C56.4181 95.4844 55.7994 95.7297 55.3194 96.2204C54.8501 96.7111 54.6154 97.4417 54.6154 98.4124V102.348H53.3514ZM66.7479 102.572C65.9586 102.572 65.2653 102.407 64.6679 102.076C64.0706 101.735 63.6066 101.26 63.2759 100.652C62.9453 100.044 62.7799 99.3404 62.7799 98.5404V98.3484C62.7799 97.5377 62.9453 96.8284 63.2759 96.2204C63.6066 95.6124 64.0653 95.1431 64.6519 94.8124C65.2386 94.4711 65.9106 94.3004 66.6679 94.3004C67.4039 94.3004 68.0546 94.4604 68.6199 94.7804C69.1853 95.0897 69.6279 95.5377 69.9479 96.1244C70.2679 96.7111 70.4279 97.3991 70.4279 98.1884V98.7644H64.0439C64.0759 99.6071 64.3479 100.268 64.8599 100.748C65.3719 101.218 66.0119 101.452 66.7799 101.452C67.4519 101.452 67.9693 101.298 68.3319 100.988C68.6946 100.679 68.9719 100.311 69.1639 99.8844L70.2519 100.412C70.0919 100.743 69.8679 101.074 69.5799 101.404C69.3026 101.735 68.9346 102.012 68.4759 102.236C68.0279 102.46 67.4519 102.572 66.7479 102.572ZM64.0599 97.7244H69.1479C69.1053 96.9991 68.8546 96.4337 68.3959 96.0284C67.9479 95.6231 67.3719 95.4204 66.6679 95.4204C65.9533 95.4204 65.3666 95.6231 64.9079 96.0284C64.4493 96.4337 64.1666 96.9991 64.0599 97.7244ZM79.0167 105.548V101.116H78.7927C78.6647 101.351 78.4834 101.58 78.2487 101.804C78.014 102.028 77.7047 102.21 77.3207 102.348C76.9474 102.498 76.4887 102.572 75.9447 102.572C75.262 102.572 74.638 102.412 74.0727 102.092C73.518 101.772 73.0754 101.308 72.7447 100.7C72.414 100.092 72.2487 99.3724 72.2487 98.5404V98.3324C72.2487 97.4897 72.414 96.7697 72.7447 96.1724C73.0754 95.5751 73.5234 95.1164 74.0887 94.7964C74.654 94.4657 75.2727 94.3004 75.9447 94.3004C76.7554 94.3004 77.3847 94.4551 77.8327 94.7644C78.2807 95.0737 78.6114 95.4257 78.8247 95.8204H79.0487V94.5244H80.2807V105.548H79.0167ZM76.2807 101.452C77.0914 101.452 77.7474 101.196 78.2487 100.684C78.7607 100.162 79.0167 99.4364 79.0167 98.5084V98.3644C79.0167 97.4364 78.7607 96.7164 78.2487 96.2044C77.7474 95.6817 77.0914 95.4204 76.2807 95.4204C75.4807 95.4204 74.8194 95.6817 74.2967 96.2044C73.7847 96.7164 73.5287 97.4364 73.5287 98.3644V98.5084C73.5287 99.4364 73.7847 100.162 74.2967 100.684C74.8194 101.196 75.4807 101.452 76.2807 101.452ZM85.9216 102.492C85.3562 102.492 84.8336 102.37 84.3536 102.124C83.8842 101.879 83.5109 101.516 83.2336 101.036C82.9669 100.546 82.8336 99.9537 82.8336 99.2604V94.5244H84.0976V99.1644C84.0976 99.9431 84.2896 100.508 84.6736 100.86C85.0682 101.212 85.5962 101.388 86.2576 101.388C87.0042 101.388 87.6176 101.143 88.0976 100.652C88.5776 100.162 88.8176 99.4311 88.8176 98.4604V94.5244H90.0816V102.348H88.8496V101.02H88.6256C88.4549 101.394 88.1616 101.735 87.7456 102.044C87.3296 102.343 86.7216 102.492 85.9216 102.492ZM95.1264 102.572C94.5824 102.572 94.0864 102.476 93.6384 102.284C93.1904 102.092 92.8384 101.815 92.5824 101.452C92.3264 101.09 92.1984 100.647 92.1984 100.124C92.1984 99.5911 92.3264 99.1537 92.5824 98.8124C92.8384 98.4604 93.1904 98.1991 93.6384 98.0284C94.0864 97.8471 94.5878 97.7564 95.1424 97.7564H97.7824V97.1804C97.7824 96.6257 97.6171 96.1884 97.2864 95.8684C96.9664 95.5484 96.4864 95.3884 95.8464 95.3884C95.2171 95.3884 94.7264 95.5431 94.3744 95.8524C94.0224 96.1511 93.7824 96.5564 93.6544 97.0684L92.4704 96.6844C92.5984 96.2471 92.8011 95.8524 93.0784 95.5004C93.3558 95.1377 93.7238 94.8497 94.1824 94.6364C94.6518 94.4124 95.2118 94.3004 95.8624 94.3004C96.8651 94.3004 97.6438 94.5617 98.1984 95.0844C98.7531 95.5964 99.0304 96.3217 99.0304 97.2604V100.796C99.0304 101.116 99.1798 101.276 99.4784 101.276H100.198V102.348H99.0944C98.7424 102.348 98.4598 102.252 98.2464 102.06C98.0331 101.858 97.9264 101.591 97.9264 101.26V101.18H97.7344C97.6171 101.383 97.4571 101.596 97.2544 101.82C97.0624 102.034 96.7958 102.21 96.4544 102.348C96.1131 102.498 95.6704 102.572 95.1264 102.572ZM95.2704 101.484C96.0171 101.484 96.6198 101.266 97.0784 100.828C97.5478 100.38 97.7824 99.7564 97.7824 98.9564V98.7804H95.1904C94.6891 98.7804 94.2731 98.8924 93.9424 99.1164C93.6224 99.3297 93.4624 99.6551 93.4624 100.092C93.4624 100.53 93.6278 100.871 93.9584 101.116C94.2998 101.362 94.7371 101.484 95.2704 101.484ZM101.93 102.348V91.1484H103.194V102.348H101.93ZM61.7811 129.548V118.524H63.0131V119.82H63.2371C63.4398 119.426 63.7651 119.074 64.2131 118.764C64.6718 118.455 65.3065 118.3 66.1171 118.3C66.7891 118.3 67.4025 118.466 67.9571 118.796C68.5225 119.116 68.9705 119.575 69.3011 120.172C69.6425 120.77 69.8131 121.49 69.8131 122.332V122.54C69.8131 123.372 69.6478 124.092 69.3171 124.7C68.9865 125.308 68.5385 125.772 67.9731 126.092C67.4185 126.412 66.7998 126.572 66.1171 126.572C65.5731 126.572 65.1091 126.498 64.7251 126.348C64.3518 126.21 64.0478 126.028 63.8131 125.804C63.5785 125.58 63.3971 125.351 63.2691 125.116H63.0451V129.548H61.7811ZM65.7811 125.452C66.5918 125.452 67.2478 125.196 67.7491 124.684C68.2611 124.162 68.5171 123.436 68.5171 122.508V122.364C68.5171 121.436 68.2611 120.716 67.7491 120.204C67.2478 119.682 66.5918 119.42 65.7811 119.42C64.9811 119.42 64.3198 119.682 63.7971 120.204C63.2851 120.716 63.0291 121.436 63.0291 122.364V122.508C63.0291 123.436 63.2851 124.162 63.7971 124.684C64.3198 125.196 64.9811 125.452 65.7811 125.452ZM74.478 126.572C73.934 126.572 73.438 126.476 72.99 126.284C72.542 126.092 72.19 125.815 71.934 125.452C71.678 125.09 71.55 124.647 71.55 124.124C71.55 123.591 71.678 123.154 71.934 122.812C72.19 122.46 72.542 122.199 72.99 122.028C73.438 121.847 73.9393 121.756 74.494 121.756H77.134V121.18C77.134 120.626 76.9687 120.188 76.638 119.868C76.318 119.548 75.838 119.388 75.198 119.388C74.5687 119.388 74.078 119.543 73.726 119.852C73.374 120.151 73.134 120.556 73.006 121.068L71.822 120.684C71.95 120.247 72.1527 119.852 72.43 119.5C72.7073 119.138 73.0753 118.85 73.534 118.636C74.0033 118.412 74.5633 118.3 75.214 118.3C76.2167 118.3 76.9953 118.562 77.55 119.084C78.1047 119.596 78.382 120.322 78.382 121.26V124.796C78.382 125.116 78.5313 125.276 78.83 125.276H79.55V126.348H78.446C78.094 126.348 77.8113 126.252 77.598 126.06C77.3847 125.858 77.278 125.591 77.278 125.26V125.18H77.086C76.9687 125.383 76.8087 125.596 76.606 125.82C76.414 126.034 76.1473 126.21 75.806 126.348C75.4647 126.498 75.022 126.572 74.478 126.572ZM74.622 125.484C75.3687 125.484 75.9713 125.266 76.43 124.828C76.8993 124.38 77.134 123.756 77.134 122.956V122.78H74.542C74.0407 122.78 73.6247 122.892 73.294 123.116C72.974 123.33 72.814 123.655 72.814 124.092C72.814 124.53 72.9793 124.871 73.31 125.116C73.6513 125.362 74.0887 125.484 74.622 125.484ZM82.022 129.548V128.428H86.502C86.8113 128.428 86.966 128.268 86.966 127.948V125.1H86.742C86.6353 125.324 86.47 125.548 86.246 125.772C86.0327 125.986 85.75 126.162 85.398 126.3C85.046 126.428 84.6033 126.492 84.07 126.492C83.5047 126.492 82.982 126.37 82.502 126.124C82.0327 125.879 81.6593 125.516 81.382 125.036C81.1153 124.556 80.982 123.97 80.982 123.276V118.524H82.246V123.18C82.246 123.948 82.438 124.508 82.822 124.86C83.2167 125.212 83.7447 125.388 84.406 125.388C85.1527 125.388 85.766 125.143 86.246 124.652C86.726 124.162 86.966 123.431 86.966 122.46V118.524H88.23V128.172C88.23 128.599 88.1073 128.935 87.862 129.18C87.6273 129.426 87.2807 129.548 86.822 129.548H82.022Z" fill="white"/>
<rect width="150" height="150" transform="translate(164.483 0.579346)" fill="#F6331C"/>
<path d="M221.274 52.0273C219.589 52.0273 218.095 51.7287 216.794 51.1313C215.493 50.534 214.469 49.6807 213.722 48.5713C212.997 47.4407 212.634 46.1073 212.634 44.5713V43.9953H216.73V44.4433C216.73 45.638 217.146 46.598 217.978 47.3233C218.81 48.0273 219.909 48.3793 221.274 48.3793C222.661 48.3793 223.727 48.0487 224.474 47.3873C225.242 46.726 225.626 45.894 225.626 44.8913V44.5713C225.626 43.8887 225.455 43.334 225.114 42.9073C224.773 42.4807 224.314 42.1713 223.738 41.9793C223.162 41.766 222.511 41.6593 221.786 41.6593H217.306V37.1793L224.538 33.3393V32.8273H213.21V29.1793H229.082V34.6193L222.33 38.2033V38.7153H223.514C224.517 38.7153 225.487 38.918 226.426 39.3233C227.386 39.7287 228.175 40.358 228.794 41.2113C229.413 42.0433 229.722 43.1313 229.722 44.4753V44.8593C229.722 46.31 229.37 47.5793 228.666 48.6673C227.962 49.734 226.97 50.566 225.69 51.1633C224.431 51.7393 222.959 52.0273 221.274 52.0273ZM240.743 52.0273C239.057 52.0273 237.564 51.7287 236.263 51.1313C234.961 50.534 233.937 49.6807 233.191 48.5713C232.465 47.4407 232.103 46.1073 232.103 44.5713V43.9953H236.199V44.4433C236.199 45.638 236.615 46.598 237.447 47.3233C238.279 48.0273 239.377 48.3793 240.743 48.3793C242.129 48.3793 243.196 48.0487 243.943 47.3873C244.711 46.726 245.095 45.894 245.095 44.8913V44.5713C245.095 43.8887 244.924 43.334 244.583 42.9073C244.241 42.4807 243.783 42.1713 243.207 41.9793C242.631 41.766 241.98 41.6593 241.255 41.6593H236.775V37.1793L244.007 33.3393V32.8273H232.679V29.1793H248.551V34.6193L241.799 38.2033V38.7153H242.983C243.985 38.7153 244.956 38.918 245.895 39.3233C246.855 39.7287 247.644 40.358 248.263 41.2113C248.881 42.0433 249.191 43.1313 249.191 44.4753V44.8593C249.191 46.31 248.839 47.5793 248.135 48.6673C247.431 49.734 246.439 50.566 245.159 51.1633C243.9 51.7393 242.428 52.0273 240.743 52.0273Z" fill="white"/>
<path d="M256.851 46.7873L255.635 45.8113L264.243 35.1713L265.459 36.1473L256.851 46.7873ZM263.603 46.7393C262.793 46.7393 262.158 46.526 261.699 46.0993C261.241 45.662 261.011 45.07 261.011 44.3233V44.2113C261.011 43.454 261.241 42.862 261.699 42.4353C262.158 41.998 262.793 41.7793 263.603 41.7793C264.393 41.7793 265.022 41.998 265.491 42.4353C265.961 42.862 266.195 43.454 266.195 44.2113V44.3233C266.195 45.07 265.966 45.662 265.507 46.0993C265.049 46.526 264.414 46.7393 263.603 46.7393ZM263.603 45.4273C263.913 45.4273 264.153 45.3313 264.323 45.1393C264.505 44.9473 264.595 44.6967 264.595 44.3873V44.1313C264.595 43.822 264.505 43.5713 264.323 43.3793C264.153 43.1873 263.913 43.0913 263.603 43.0913C263.294 43.0913 263.049 43.1873 262.867 43.3793C262.697 43.5713 262.611 43.822 262.611 44.1313V44.3873C262.611 44.6967 262.697 44.9473 262.867 45.1393C263.049 45.3313 263.294 45.4273 263.603 45.4273ZM257.491 40.1793C256.681 40.1793 256.046 39.966 255.587 39.5393C255.129 39.102 254.899 38.51 254.899 37.7633V37.6513C254.899 36.894 255.129 36.302 255.587 35.8753C256.046 35.438 256.681 35.2193 257.491 35.2193C258.281 35.2193 258.91 35.438 259.379 35.8753C259.849 36.302 260.083 36.894 260.083 37.6513V37.7633C260.083 38.51 259.854 39.102 259.395 39.5393C258.937 39.966 258.302 40.1793 257.491 40.1793ZM257.491 38.8673C257.801 38.8673 258.041 38.7713 258.211 38.5793C258.393 38.3873 258.483 38.1367 258.483 37.8273V37.5713C258.483 37.262 258.393 37.0113 258.211 36.8193C258.041 36.6273 257.801 36.5313 257.491 36.5313C257.182 36.5313 256.937 36.6273 256.755 36.8193C256.585 37.0113 256.499 37.262 256.499 37.5713V37.8273C256.499 38.1367 256.585 38.3873 256.755 38.5793C256.937 38.7713 257.182 38.8673 257.491 38.8673Z" fill="white"/>
<path d="M217.756 90.5793V79.3793H224.524V80.5953H219.1V84.3553H224.092V85.5713H219.1V90.5793H217.756ZM229.934 90.8033C229.145 90.8033 228.452 90.638 227.854 90.3073C227.257 89.966 226.793 89.4913 226.462 88.8833C226.132 88.2753 225.966 87.5713 225.966 86.7713V86.5793C225.966 85.7687 226.132 85.0593 226.462 84.4513C226.793 83.8433 227.252 83.374 227.838 83.0433C228.425 82.702 229.097 82.5313 229.854 82.5313C230.59 82.5313 231.241 82.6913 231.806 83.0113C232.372 83.3207 232.814 83.7687 233.134 84.3553C233.454 84.942 233.614 85.63 233.614 86.4193V86.9953H227.23C227.262 87.838 227.534 88.4993 228.046 88.9793C228.558 89.4487 229.198 89.6833 229.966 89.6833C230.638 89.6833 231.156 89.5287 231.518 89.2193C231.881 88.91 232.158 88.542 232.35 88.1153L233.438 88.6433C233.278 88.974 233.054 89.3047 232.766 89.6353C232.489 89.966 232.121 90.2433 231.662 90.4673C231.214 90.6913 230.638 90.8033 229.934 90.8033ZM227.246 85.9553H232.334C232.292 85.23 232.041 84.6647 231.582 84.2593C231.134 83.854 230.558 83.6513 229.854 83.6513C229.14 83.6513 228.553 83.854 228.094 84.2593C227.636 84.6647 227.353 85.23 227.246 85.9553ZM236.751 90.5793L235.183 82.7553H236.463L237.759 89.7313H237.983L239.695 82.7553H241.791L243.503 89.7313H243.727L245.023 82.7553H246.303L244.735 90.5793H242.575L240.847 83.6033H240.639L238.911 90.5793H236.751ZM251.903 90.8033C251.114 90.8033 250.421 90.638 249.823 90.3073C249.226 89.966 248.762 89.4913 248.431 88.8833C248.101 88.2753 247.935 87.5713 247.935 86.7713V86.5793C247.935 85.7687 248.101 85.0593 248.431 84.4513C248.762 83.8433 249.221 83.374 249.807 83.0433C250.394 82.702 251.066 82.5313 251.823 82.5313C252.559 82.5313 253.21 82.6913 253.775 83.0113C254.341 83.3207 254.783 83.7687 255.103 84.3553C255.423 84.942 255.583 85.63 255.583 86.4193V86.9953H249.199C249.231 87.838 249.503 88.4993 250.015 88.9793C250.527 89.4487 251.167 89.6833 251.935 89.6833C252.607 89.6833 253.125 89.5287 253.487 89.2193C253.85 88.91 254.127 88.542 254.319 88.1153L255.407 88.6433C255.247 88.974 255.023 89.3047 254.735 89.6353C254.458 89.966 254.09 90.2433 253.631 90.4673C253.183 90.6913 252.607 90.8033 251.903 90.8033ZM249.215 85.9553H254.303C254.261 85.23 254.01 84.6647 253.551 84.2593C253.103 83.854 252.527 83.6513 251.823 83.6513C251.109 83.6513 250.522 83.854 250.063 84.2593C249.605 84.6647 249.322 85.23 249.215 85.9553ZM257.788 90.5793V82.7553H259.02V83.7153H259.244C259.383 83.374 259.596 83.1233 259.884 82.9633C260.172 82.8033 260.551 82.7233 261.02 82.7233H261.948V83.8753H260.94C260.375 83.8753 259.916 84.0353 259.564 84.3553C259.223 84.6647 259.052 85.15 259.052 85.8113V90.5793H257.788ZM191.185 114.803C190.396 114.803 189.697 114.638 189.089 114.307C188.492 113.977 188.023 113.513 187.681 112.915C187.351 112.307 187.185 111.593 187.185 110.771V110.563C187.185 109.753 187.351 109.043 187.681 108.435C188.023 107.827 188.492 107.358 189.089 107.027C189.697 106.697 190.396 106.531 191.185 106.531C191.975 106.531 192.668 106.697 193.265 107.027C193.873 107.358 194.343 107.827 194.673 108.435C195.015 109.043 195.185 109.753 195.185 110.563V110.771C195.185 111.593 195.015 112.307 194.673 112.915C194.343 113.513 193.873 113.977 193.265 114.307C192.668 114.638 191.975 114.803 191.185 114.803ZM191.185 113.667C192.017 113.667 192.679 113.406 193.169 112.883C193.671 112.35 193.921 111.635 193.921 110.739V110.595C193.921 109.699 193.671 108.99 193.169 108.467C192.679 107.934 192.017 107.667 191.185 107.667C190.364 107.667 189.703 107.934 189.201 108.467C188.7 108.99 188.449 109.699 188.449 110.595V110.739C188.449 111.635 188.7 112.35 189.201 112.883C189.703 113.406 190.364 113.667 191.185 113.667ZM197.46 117.779V106.755H198.692V108.051H198.916C199.119 107.657 199.444 107.305 199.892 106.995C200.351 106.686 200.985 106.531 201.796 106.531C202.468 106.531 203.081 106.697 203.636 107.027C204.201 107.347 204.649 107.806 204.98 108.403C205.321 109.001 205.492 109.721 205.492 110.563V110.771C205.492 111.603 205.327 112.323 204.996 112.931C204.665 113.539 204.217 114.003 203.652 114.323C203.097 114.643 202.479 114.803 201.796 114.803C201.252 114.803 200.788 114.729 200.404 114.579C200.031 114.441 199.727 114.259 199.492 114.035C199.257 113.811 199.076 113.582 198.948 113.347H198.724V117.779H197.46ZM201.46 113.683C202.271 113.683 202.927 113.427 203.428 112.915C203.94 112.393 204.196 111.667 204.196 110.739V110.595C204.196 109.667 203.94 108.947 203.428 108.435C202.927 107.913 202.271 107.651 201.46 107.651C200.66 107.651 199.999 107.913 199.476 108.435C198.964 108.947 198.708 109.667 198.708 110.595V110.739C198.708 111.667 198.964 112.393 199.476 112.915C199.999 113.427 200.66 113.683 201.46 113.683ZM207.757 117.779V106.755H208.989V108.051H209.213C209.415 107.657 209.741 107.305 210.189 106.995C210.647 106.686 211.282 106.531 212.093 106.531C212.765 106.531 213.378 106.697 213.933 107.027C214.498 107.347 214.946 107.806 215.277 108.403C215.618 109.001 215.789 109.721 215.789 110.563V110.771C215.789 111.603 215.623 112.323 215.293 112.931C214.962 113.539 214.514 114.003 213.949 114.323C213.394 114.643 212.775 114.803 212.093 114.803C211.549 114.803 211.085 114.729 210.701 114.579C210.327 114.441 210.023 114.259 209.789 114.035C209.554 113.811 209.373 113.582 209.245 113.347H209.021V117.779H207.757ZM211.757 113.683C212.567 113.683 213.223 113.427 213.725 112.915C214.237 112.393 214.493 111.667 214.493 110.739V110.595C214.493 109.667 214.237 108.947 213.725 108.435C213.223 107.913 212.567 107.651 211.757 107.651C210.957 107.651 210.295 107.913 209.773 108.435C209.261 108.947 209.005 109.667 209.005 110.595V110.739C209.005 111.667 209.261 112.393 209.773 112.915C210.295 113.427 210.957 113.683 211.757 113.683ZM221.67 114.803C220.88 114.803 220.182 114.638 219.574 114.307C218.976 113.977 218.507 113.513 218.166 112.915C217.835 112.307 217.67 111.593 217.67 110.771V110.563C217.67 109.753 217.835 109.043 218.166 108.435C218.507 107.827 218.976 107.358 219.574 107.027C220.182 106.697 220.88 106.531 221.67 106.531C222.459 106.531 223.152 106.697 223.75 107.027C224.358 107.358 224.827 107.827 225.158 108.435C225.499 109.043 225.67 109.753 225.67 110.563V110.771C225.67 111.593 225.499 112.307 225.158 112.915C224.827 113.513 224.358 113.977 223.75 114.307C223.152 114.638 222.459 114.803 221.67 114.803ZM221.67 113.667C222.502 113.667 223.163 113.406 223.654 112.883C224.155 112.35 224.406 111.635 224.406 110.739V110.595C224.406 109.699 224.155 108.99 223.654 108.467C223.163 107.934 222.502 107.667 221.67 107.667C220.848 107.667 220.187 107.934 219.686 108.467C219.184 108.99 218.934 109.699 218.934 110.595V110.739C218.934 111.635 219.184 112.35 219.686 112.883C220.187 113.406 220.848 113.667 221.67 113.667ZM227.944 114.579V106.755H229.176V107.715H229.4C229.539 107.374 229.752 107.123 230.04 106.963C230.328 106.803 230.707 106.723 231.176 106.723H232.104V107.875H231.096C230.531 107.875 230.072 108.035 229.72 108.355C229.379 108.665 229.208 109.15 229.208 109.811V114.579H227.944ZM236.855 114.579C236.407 114.579 236.061 114.457 235.815 114.211C235.581 113.966 235.463 113.63 235.463 113.203V107.859H233.111V106.755H235.463V103.971H236.727V106.755H239.287V107.859H236.727V113.011C236.727 113.331 236.882 113.491 237.191 113.491H238.935V114.579H236.855ZM244.327 114.723C243.762 114.723 243.239 114.601 242.759 114.355C242.29 114.11 241.916 113.747 241.639 113.267C241.372 112.777 241.239 112.185 241.239 111.491V106.755H242.503V111.395C242.503 112.174 242.695 112.739 243.079 113.091C243.474 113.443 244.002 113.619 244.663 113.619C245.41 113.619 246.023 113.374 246.503 112.883C246.983 112.393 247.223 111.662 247.223 110.691V106.755H248.487V114.579H247.255V113.251H247.031C246.86 113.625 246.567 113.966 246.151 114.275C245.735 114.574 245.127 114.723 244.327 114.723ZM251.132 114.579V106.755H252.364V108.083H252.588C252.758 107.71 253.046 107.374 253.452 107.075C253.868 106.766 254.476 106.611 255.276 106.611C255.862 106.611 256.385 106.734 256.844 106.979C257.313 107.225 257.686 107.587 257.964 108.067C258.241 108.547 258.38 109.139 258.38 109.843V114.579H257.116V109.939C257.116 109.161 256.918 108.595 256.524 108.243C256.14 107.891 255.617 107.715 254.956 107.715C254.198 107.715 253.58 107.961 253.1 108.451C252.63 108.942 252.396 109.673 252.396 110.643V114.579H251.132ZM260.944 114.579V106.755H262.208V114.579H260.944ZM261.584 105.539C261.307 105.539 261.072 105.449 260.88 105.267C260.699 105.086 260.608 104.857 260.608 104.579C260.608 104.291 260.699 104.057 260.88 103.875C261.072 103.694 261.307 103.603 261.584 103.603C261.862 103.603 262.091 103.694 262.272 103.875C262.454 104.057 262.544 104.291 262.544 104.579C262.544 104.857 262.454 105.086 262.272 105.267C262.091 105.449 261.862 105.539 261.584 105.539ZM267.746 114.579C267.298 114.579 266.951 114.457 266.706 114.211C266.471 113.966 266.354 113.63 266.354 113.203V107.859H264.002V106.755H266.354V103.971H267.618V106.755H270.178V107.859H267.618V113.011C267.618 113.331 267.773 113.491 268.082 113.491H269.826V114.579H267.746ZM272.225 114.579V106.755H273.489V114.579H272.225ZM272.865 105.539C272.588 105.539 272.353 105.449 272.161 105.267C271.98 105.086 271.889 104.857 271.889 104.579C271.889 104.291 271.98 104.057 272.161 103.875C272.353 103.694 272.588 103.603 272.865 103.603C273.143 103.603 273.372 103.694 273.553 103.875C273.735 104.057 273.825 104.291 273.825 104.579C273.825 104.857 273.735 105.086 273.553 105.267C273.372 105.449 273.143 105.539 272.865 105.539ZM279.731 114.803C278.942 114.803 278.249 114.638 277.651 114.307C277.054 113.966 276.59 113.491 276.259 112.883C275.929 112.275 275.763 111.571 275.763 110.771V110.579C275.763 109.769 275.929 109.059 276.259 108.451C276.59 107.843 277.049 107.374 277.635 107.043C278.222 106.702 278.894 106.531 279.651 106.531C280.387 106.531 281.038 106.691 281.603 107.011C282.169 107.321 282.611 107.769 282.931 108.355C283.251 108.942 283.411 109.63 283.411 110.419V110.995H277.027C277.059 111.838 277.331 112.499 277.843 112.979C278.355 113.449 278.995 113.683 279.763 113.683C280.435 113.683 280.953 113.529 281.315 113.219C281.678 112.91 281.955 112.542 282.147 112.115L283.235 112.643C283.075 112.974 282.851 113.305 282.563 113.635C282.286 113.966 281.918 114.243 281.459 114.467C281.011 114.691 280.435 114.803 279.731 114.803ZM277.043 109.955H282.131C282.089 109.23 281.838 108.665 281.379 108.259C280.931 107.854 280.355 107.651 279.651 107.651C278.937 107.651 278.35 107.854 277.891 108.259C277.433 108.665 277.15 109.23 277.043 109.955ZM288.768 114.803C287.797 114.803 286.976 114.579 286.304 114.131C285.643 113.683 285.243 112.974 285.104 112.003L286.304 111.731C286.389 112.243 286.549 112.649 286.784 112.947C287.019 113.235 287.307 113.443 287.648 113.571C288 113.689 288.373 113.747 288.768 113.747C289.355 113.747 289.819 113.63 290.16 113.395C290.501 113.161 290.672 112.846 290.672 112.451C290.672 112.046 290.507 111.763 290.176 111.603C289.856 111.433 289.413 111.294 288.848 111.187L288.192 111.075C287.691 110.99 287.232 110.857 286.816 110.675C286.4 110.494 286.069 110.249 285.824 109.939C285.579 109.63 285.456 109.241 285.456 108.771C285.456 108.067 285.728 107.518 286.272 107.123C286.816 106.729 287.536 106.531 288.432 106.531C289.317 106.531 290.032 106.734 290.576 107.139C291.131 107.534 291.488 108.094 291.648 108.819L290.464 109.123C290.368 108.558 290.139 108.163 289.776 107.939C289.413 107.705 288.965 107.587 288.432 107.587C287.899 107.587 287.477 107.689 287.168 107.891C286.859 108.083 286.704 108.371 286.704 108.755C286.704 109.129 286.848 109.406 287.136 109.587C287.435 109.758 287.829 109.886 288.32 109.971L288.976 110.083C289.531 110.179 290.027 110.313 290.464 110.483C290.912 110.643 291.264 110.878 291.52 111.187C291.787 111.497 291.92 111.902 291.92 112.403C291.92 113.171 291.632 113.763 291.056 114.179C290.491 114.595 289.728 114.803 288.768 114.803ZM188.863 138.579V131.859H186.463V130.755H188.863V128.755C188.863 128.329 188.98 127.993 189.215 127.747C189.46 127.502 189.807 127.379 190.255 127.379H192.223V128.467H190.607C190.287 128.467 190.127 128.627 190.127 128.947V130.755H192.591V131.859H190.127V138.579H188.863ZM197.631 138.803C196.841 138.803 196.143 138.638 195.535 138.307C194.937 137.977 194.468 137.513 194.127 136.915C193.796 136.307 193.631 135.593 193.631 134.771V134.563C193.631 133.753 193.796 133.043 194.127 132.435C194.468 131.827 194.937 131.358 195.535 131.027C196.143 130.697 196.841 130.531 197.631 130.531C198.42 130.531 199.113 130.697 199.711 131.027C200.319 131.358 200.788 131.827 201.119 132.435C201.46 133.043 201.631 133.753 201.631 134.563V134.771C201.631 135.593 201.46 136.307 201.119 136.915C200.788 137.513 200.319 137.977 199.711 138.307C199.113 138.638 198.42 138.803 197.631 138.803ZM197.631 137.667C198.463 137.667 199.124 137.406 199.615 136.883C200.116 136.35 200.367 135.635 200.367 134.739V134.595C200.367 133.699 200.116 132.99 199.615 132.467C199.124 131.934 198.463 131.667 197.631 131.667C196.809 131.667 196.148 131.934 195.647 132.467C195.145 132.99 194.895 133.699 194.895 134.595V134.739C194.895 135.635 195.145 136.35 195.647 136.883C196.148 137.406 196.809 137.667 197.631 137.667ZM203.905 138.579V130.755H205.137V131.715H205.361C205.5 131.374 205.713 131.123 206.001 130.963C206.289 130.803 206.668 130.723 207.137 130.723H208.065V131.875H207.057C206.492 131.875 206.033 132.035 205.681 132.355C205.34 132.665 205.169 133.15 205.169 133.811V138.579H203.905ZM214.046 141.779V130.755H215.278V132.051H215.502C215.704 131.657 216.03 131.305 216.478 130.995C216.936 130.686 217.571 130.531 218.382 130.531C219.054 130.531 219.667 130.697 220.222 131.027C220.787 131.347 221.235 131.806 221.566 132.403C221.907 133.001 222.078 133.721 222.078 134.563V134.771C222.078 135.603 221.912 136.323 221.582 136.931C221.251 137.539 220.803 138.003 220.238 138.323C219.683 138.643 219.064 138.803 218.382 138.803C217.838 138.803 217.374 138.729 216.99 138.579C216.616 138.441 216.312 138.259 216.078 138.035C215.843 137.811 215.662 137.582 215.534 137.347H215.31V141.779H214.046ZM218.046 137.683C218.856 137.683 219.512 137.427 220.014 136.915C220.526 136.393 220.782 135.667 220.782 134.739V134.595C220.782 133.667 220.526 132.947 220.014 132.435C219.512 131.913 218.856 131.651 218.046 131.651C217.246 131.651 216.584 131.913 216.062 132.435C215.55 132.947 215.294 133.667 215.294 134.595V134.739C215.294 135.667 215.55 136.393 216.062 136.915C216.584 137.427 217.246 137.683 218.046 137.683ZM224.343 138.579V130.755H225.575V131.715H225.799C225.937 131.374 226.151 131.123 226.439 130.963C226.727 130.803 227.105 130.723 227.575 130.723H228.503V131.875H227.495C226.929 131.875 226.471 132.035 226.119 132.355C225.777 132.665 225.607 133.15 225.607 133.811V138.579H224.343ZM233.709 138.803C232.919 138.803 232.221 138.638 231.613 138.307C231.015 137.977 230.546 137.513 230.205 136.915C229.874 136.307 229.709 135.593 229.709 134.771V134.563C229.709 133.753 229.874 133.043 230.205 132.435C230.546 131.827 231.015 131.358 231.613 131.027C232.221 130.697 232.919 130.531 233.709 130.531C234.498 130.531 235.191 130.697 235.789 131.027C236.397 131.358 236.866 131.827 237.197 132.435C237.538 133.043 237.709 133.753 237.709 134.563V134.771C237.709 135.593 237.538 136.307 237.197 136.915C236.866 137.513 236.397 137.977 235.789 138.307C235.191 138.638 234.498 138.803 233.709 138.803ZM233.709 137.667C234.541 137.667 235.202 137.406 235.693 136.883C236.194 136.35 236.445 135.635 236.445 134.739V134.595C236.445 133.699 236.194 132.99 235.693 132.467C235.202 131.934 234.541 131.667 233.709 131.667C232.887 131.667 232.226 131.934 231.725 132.467C231.223 132.99 230.973 133.699 230.973 134.595V134.739C230.973 135.635 231.223 136.35 231.725 136.883C232.226 137.406 232.887 137.667 233.709 137.667ZM239.983 138.579V130.755H241.215V131.731H241.439C241.589 131.454 241.834 131.198 242.175 130.963C242.517 130.729 242.997 130.611 243.615 130.611C244.223 130.611 244.714 130.745 245.087 131.011C245.471 131.278 245.749 131.603 245.919 131.987H246.143C246.325 131.603 246.597 131.278 246.959 131.011C247.333 130.745 247.85 130.611 248.511 130.611C249.034 130.611 249.493 130.718 249.887 130.931C250.282 131.145 250.591 131.454 250.815 131.859C251.05 132.254 251.167 132.729 251.167 133.283V138.579H249.903V133.395C249.903 132.873 249.749 132.462 249.439 132.163C249.141 131.854 248.719 131.699 248.175 131.699C247.599 131.699 247.125 131.886 246.751 132.259C246.389 132.633 246.207 133.171 246.207 133.875V138.579H244.943V133.395C244.943 132.873 244.789 132.462 244.479 132.163C244.181 131.854 243.759 131.699 243.215 131.699C242.639 131.699 242.165 131.886 241.791 132.259C241.429 132.633 241.247 133.171 241.247 133.875V138.579H239.983ZM257.365 138.803C256.576 138.803 255.877 138.638 255.269 138.307C254.672 137.977 254.202 137.513 253.861 136.915C253.53 136.307 253.365 135.593 253.365 134.771V134.563C253.365 133.753 253.53 133.043 253.861 132.435C254.202 131.827 254.672 131.358 255.269 131.027C255.877 130.697 256.576 130.531 257.365 130.531C258.154 130.531 258.848 130.697 259.445 131.027C260.053 131.358 260.522 131.827 260.853 132.435C261.194 133.043 261.365 133.753 261.365 134.563V134.771C261.365 135.593 261.194 136.307 260.853 136.915C260.522 137.513 260.053 137.977 259.445 138.307C258.848 138.638 258.154 138.803 257.365 138.803ZM257.365 137.667C258.197 137.667 258.858 137.406 259.349 136.883C259.85 136.35 260.101 135.635 260.101 134.739V134.595C260.101 133.699 259.85 132.99 259.349 132.467C258.858 131.934 258.197 131.667 257.365 131.667C256.544 131.667 255.882 131.934 255.381 132.467C254.88 132.99 254.629 133.699 254.629 134.595V134.739C254.629 135.635 254.88 136.35 255.381 136.883C255.882 137.406 256.544 137.667 257.365 137.667ZM266.191 138.579C265.743 138.579 265.397 138.457 265.151 138.211C264.917 137.966 264.799 137.63 264.799 137.203V131.859H262.447V130.755H264.799V127.971H266.063V130.755H268.623V131.859H266.063V137.011C266.063 137.331 266.218 137.491 266.527 137.491H268.271V138.579H266.191ZM270.671 138.579V130.755H271.935V138.579H270.671ZM271.311 129.539C271.033 129.539 270.799 129.449 270.607 129.267C270.425 129.086 270.335 128.857 270.335 128.579C270.335 128.291 270.425 128.057 270.607 127.875C270.799 127.694 271.033 127.603 271.311 127.603C271.588 127.603 271.817 127.694 271.999 127.875C272.18 128.057 272.271 128.291 272.271 128.579C272.271 128.857 272.18 129.086 271.999 129.267C271.817 129.449 271.588 129.539 271.311 129.539ZM278.209 138.803C277.419 138.803 276.721 138.638 276.113 138.307C275.515 137.977 275.046 137.513 274.705 136.915C274.374 136.307 274.209 135.593 274.209 134.771V134.563C274.209 133.753 274.374 133.043 274.705 132.435C275.046 131.827 275.515 131.358 276.113 131.027C276.721 130.697 277.419 130.531 278.209 130.531C278.998 130.531 279.691 130.697 280.289 131.027C280.897 131.358 281.366 131.827 281.697 132.435C282.038 133.043 282.209 133.753 282.209 134.563V134.771C282.209 135.593 282.038 136.307 281.697 136.915C281.366 137.513 280.897 137.977 280.289 138.307C279.691 138.638 278.998 138.803 278.209 138.803ZM278.209 137.667C279.041 137.667 279.702 137.406 280.193 136.883C280.694 136.35 280.945 135.635 280.945 134.739V134.595C280.945 133.699 280.694 132.99 280.193 132.467C279.702 131.934 279.041 131.667 278.209 131.667C277.387 131.667 276.726 131.934 276.225 132.467C275.723 132.99 275.473 133.699 275.473 134.595V134.739C275.473 135.635 275.723 136.35 276.225 136.883C276.726 137.406 277.387 137.667 278.209 137.667ZM284.483 138.579V130.755H285.715V132.083H285.939C286.11 131.71 286.398 131.374 286.803 131.075C287.219 130.766 287.827 130.611 288.627 130.611C289.214 130.611 289.737 130.734 290.195 130.979C290.665 131.225 291.038 131.587 291.315 132.067C291.593 132.547 291.731 133.139 291.731 133.843V138.579H290.467V133.939C290.467 133.161 290.27 132.595 289.875 132.243C289.491 131.891 288.969 131.715 288.307 131.715C287.55 131.715 286.931 131.961 286.451 132.451C285.982 132.942 285.747 133.673 285.747 134.643V138.579H284.483Z" fill="white"/>
</svg>
