<?xml version="1.0" encoding="UTF-8"?>
<!-- Generated by Pixelmator Pro 3.1.1 -->
<svg width="325" height="169" viewBox="0 0 325 169" xmlns="http://www.w3.org/2000/svg" xmlns:xlink="http://www.w3.org/1999/xlink">
    <path id="Path" fill="#f6331c" stroke="none" d="M 0 13.348007 L 156 13.348007 L 156 157.348007 L 0 157.348007 Z"/>
    <path id="path1" fill="#ffffff" stroke="none" d="M 64.853004 56.796005 C 63.167999 56.796005 61.674 56.498001 60.373001 55.900002 C 59.071999 55.303001 58.048 54.449997 57.300999 53.339996 C 56.576 52.209999 56.213001 50.875999 56.213001 49.339996 L 56.213001 48.764 L 60.308998 48.764 L 60.308998 49.212006 C 60.308998 50.406998 60.724998 51.367004 61.556999 52.091995 C 62.389 52.796005 63.487 53.147995 64.853004 53.147995 C 66.239998 53.147995 67.306 52.818001 68.053001 52.155998 C 68.820999 51.496002 69.205002 50.662994 69.205002 49.660004 L 69.205002 49.339996 C 69.205002 48.658005 69.035004 48.102997 68.693001 47.675995 C 68.351997 47.25 67.892998 46.940002 67.317001 46.748001 C 66.740997 46.535004 66.089996 46.428001 65.365005 46.428001 L 60.884998 46.428001 L 60.884998 41.947998 L 68.116997 38.108002 L 68.116997 37.596008 L 56.789001 37.596008 L 56.789001 33.947998 L 72.661003 33.947998 L 72.661003 39.388 L 65.909004 42.972 L 65.909004 43.484009 L 67.093002 43.484009 C 68.096001 43.484009 69.066002 43.686996 70.004997 44.091995 C 70.954506 44.488953 71.774536 45.142761 72.373001 45.979996 C 72.991997 46.811996 73.301003 47.900002 73.301003 49.244003 L 73.301003 49.627998 C 73.301003 51.078995 72.948997 52.348 72.245003 53.436005 C 71.541 54.502998 70.549004 55.335999 69.268997 55.931999 C 68.010002 56.507996 66.539001 56.796005 64.853004 56.796005 Z M 82.287003 56.348 L 82.287003 36.955994 L 81.710999 36.955994 L 78.703003 44.059998 L 74.415001 44.059998 L 78.990997 33.947998 L 86.383003 33.947998 L 86.383003 56.348 L 82.287003 56.348 Z M 94.867996 51.556 L 93.652 50.580002 L 102.260002 39.940002 L 103.475998 40.916 L 94.867996 51.556 Z M 101.620003 51.507996 C 100.809998 51.507996 100.175003 51.294998 99.716003 50.867996 C 99.257004 50.431 99.028 49.839005 99.028 49.091995 L 99.028 48.979996 C 99.028 48.223 99.258003 47.630997 99.716003 47.203995 C 100.175003 46.766998 100.808998 46.548004 101.620003 46.548004 C 102.408997 46.548004 103.039001 46.768005 103.508003 47.203995 C 103.976997 47.630997 104.211998 48.223999 104.211998 48.979996 L 104.211998 49.091995 C 104.211998 49.839005 103.983002 50.431999 103.524002 50.867996 C 103.065002 51.294998 102.431 51.507996 101.620003 51.507996 Z M 101.620003 50.195999 C 101.93 50.195999 102.168999 50.099998 102.339996 49.908005 C 102.521004 49.716003 102.612 49.466003 102.612 49.155998 L 102.612 48.900002 C 102.612 48.591003 102.521004 48.339996 102.339996 48.147995 C 102.168999 47.956001 101.93 47.860001 101.620003 47.860001 C 101.309998 47.860001 101.065002 47.956001 100.884003 48.147995 C 100.713997 48.339996 100.627998 48.591003 100.627998 48.900002 L 100.627998 49.155998 C 100.627998 49.466003 100.712997 49.716003 100.884003 49.908005 C 101.065002 50.099998 101.310997 50.195999 101.620003 50.195999 Z M 95.508003 44.947998 C 94.697998 44.947998 94.063004 44.735001 93.603996 44.307999 C 93.144997 43.871002 92.916 43.278992 92.916 42.531998 L 92.916 42.419998 C 92.916 41.662994 93.146004 41.070999 93.603996 40.643997 C 94.063004 40.207001 94.696999 39.988007 95.508003 39.988007 C 96.297997 39.988007 96.927002 40.208008 97.396004 40.643997 C 97.865997 41.070999 98.099998 41.664001 98.099998 42.419998 L 98.099998 42.531998 C 98.099998 43.278992 97.870003 43.872009 97.412003 44.307999 C 96.953003 44.735001 96.319 44.947998 95.508003 44.947998 Z M 95.508003 43.636002 C 95.818001 43.636002 96.057999 43.540009 96.227997 43.347992 C 96.408997 43.156006 96.5 42.906006 96.5 42.596008 L 96.5 42.339996 C 96.5 42.031006 96.410004 41.779999 96.227997 41.587997 C 96.057999 41.395996 95.818001 41.300003 95.508003 41.300003 C 95.197998 41.300003 94.953003 41.395996 94.772003 41.587997 C 94.601997 41.779999 94.515999 42.031006 94.515999 42.339996 L 94.515999 42.596008 C 94.515999 42.906006 94.600998 43.156006 94.772003 43.347992 C 94.953003 43.540009 95.198997 43.636002 95.508003 43.636002 Z M 51.695 107.571999 C 50.862999 107.571999 50.138 107.422997 49.519001 107.124001 C 48.914539 106.838936 48.411968 106.375458 48.078999 105.795998 C 47.737999 105.198997 47.567001 104.468002 47.567001 103.603996 L 47.567001 96.148003 L 48.895 96.148003 L 48.895 103.620003 C 48.895 104.538002 49.139999 105.225998 49.631001 105.683998 C 50.120998 106.142998 50.810001 106.372002 51.695 106.372002 C 52.581001 106.372002 53.269001 106.142998 53.758999 105.683998 C 54.249001 105.225998 54.494999 104.538002 54.494999 103.620003 L 54.494999 96.148003 L 55.839001 96.148003 L 55.839001 103.603996 C 55.839001 104.468002 55.668999 105.198997 55.327 105.795998 C 54.9907 106.378601 54.482006 106.842583 53.870998 107.124001 C 53.251999 107.422997 52.527 107.571999 51.695 107.571999 Z M 58.351002 107.348 L 58.351002 99.524002 L 59.583 99.524002 L 59.583 100.851997 L 59.806999 100.851997 C 59.978001 100.478996 60.266998 100.142998 60.671001 99.844002 C 61.087002 99.535004 61.695 99.379997 62.494999 99.379997 C 63.082001 99.379997 63.605 99.502998 64.063004 99.748001 C 64.533005 99.994003 64.905998 100.356003 65.182999 100.835999 C 65.460999 101.316002 65.598999 101.907997 65.598999 102.612 L 65.598999 107.348 L 64.334999 107.348 L 64.334999 102.708 C 64.334999 101.93 64.138 101.363998 63.743 101.012001 C 63.359001 100.660004 62.837002 100.484001 62.174999 100.484001 C 61.417999 100.484001 60.799 100.730003 60.319 101.220001 C 59.849998 101.710999 59.615002 102.442001 59.615002 103.412003 L 59.615002 107.348 L 58.351002 107.348 Z M 71.748001 107.571999 C 70.958 107.571999 70.264999 107.406998 69.667999 107.075996 C 69.078461 106.74279 68.595726 106.248955 68.276001 105.652 C 67.945999 105.043999 67.779999 104.339996 67.779999 103.540001 L 67.779999 103.348 C 67.779999 102.538002 67.945 101.828003 68.276001 101.220001 C 68.606003 100.612 69.066002 100.142998 69.652 99.811996 C 70.238998 99.472 70.911003 99.300003 71.667999 99.300003 C 72.403999 99.300003 73.055 99.459999 73.620003 99.779999 C 74.184555 100.088516 74.646263 100.555794 74.947998 101.124001 C 75.267998 101.710999 75.428001 102.399002 75.428001 103.188004 L 75.428001 103.764 L 69.043999 103.764 C 69.075996 104.607002 69.348 105.267998 69.860001 105.748001 C 70.372002 106.218002 71.012001 106.452003 71.779999 106.452003 C 72.452003 106.452003 72.970001 106.297997 73.332001 105.987999 C 73.695 105.679001 73.972 105.310997 74.164001 104.884003 L 75.251999 105.412003 C 75.092003 105.742996 74.867996 106.073997 74.580002 106.403999 C 74.303001 106.735001 73.934998 107.012001 73.475998 107.236 C 73.028 107.459999 72.452003 107.571999 71.748001 107.571999 Z M 69.059998 102.723999 L 74.148003 102.723999 C 74.105003 101.999001 73.855003 101.433998 73.396004 101.028 C 72.947998 100.623001 72.372002 100.419998 71.667999 100.419998 C 70.953003 100.419998 70.366997 100.623001 69.907997 101.028 C 69.448997 101.433998 69.167 101.999001 69.059998 102.723999 Z M 84.016998 110.547997 L 84.016998 106.115997 L 83.792999 106.115997 C 83.665001 106.350998 83.483002 106.580002 83.249001 106.804001 C 83.014 107.028 82.705002 107.209999 82.320999 107.348 C 81.946999 107.498001 81.488998 107.571999 80.945 107.571999 C 80.262001 107.571999 79.638 107.412003 79.072998 107.092003 C 78.517998 106.772003 78.074997 106.307999 77.745003 105.699997 C 77.414001 105.092003 77.249001 104.372002 77.249001 103.540001 L 77.249001 103.332001 C 77.249001 102.489998 77.414001 101.769997 77.745003 101.171997 C 78.054741 100.596107 78.520554 100.119202 79.088997 99.795998 C 79.651512 99.466064 80.292892 99.294662 80.945 99.300003 C 81.754997 99.300003 82.385002 99.455002 82.833 99.764 C 83.280998 100.073997 83.611 100.426003 83.824997 100.82 L 84.049004 100.82 L 84.049004 99.524002 L 85.280998 99.524002 L 85.280998 110.547997 L 84.016998 110.547997 Z M 81.280998 106.452003 C 82.091003 106.452003 82.747002 106.195999 83.249001 105.683998 C 83.761002 105.162003 84.016998 104.435997 84.016998 103.508003 L 84.016998 103.363998 C 84.016998 102.435997 83.761002 101.716003 83.249001 101.204002 C 82.747002 100.681999 82.091003 100.419998 81.280998 100.419998 C 80.481003 100.419998 79.819 100.681999 79.296997 101.204002 C 78.785004 101.716003 78.528999 102.435997 78.528999 103.363998 L 78.528999 103.508003 C 78.528999 104.435997 78.785004 105.162003 79.296997 105.683998 C 79.819 106.195999 80.481003 106.452003 81.280998 106.452003 Z M 90.920998 107.491997 C 90.376686 107.497032 89.839172 107.370804 89.353996 107.124001 C 88.883179 106.877449 88.494095 106.499474 88.234001 106.036003 C 87.967003 105.545998 87.834 104.954002 87.834 104.260002 L 87.834 99.524002 L 89.098 99.524002 L 89.098 104.164001 C 89.098 104.944 89.290001 105.508003 89.674004 105.860001 C 90.068001 106.211998 90.596001 106.388 91.258003 106.388 C 92.003998 106.388 92.617996 106.142998 93.098 105.652 C 93.578003 105.162003 93.818001 104.431999 93.818001 103.459999 L 93.818001 99.524002 L 95.082001 99.524002 L 95.082001 107.348 L 93.849998 107.348 L 93.849998 106.019997 L 93.625999 106.019997 C 93.455002 106.393997 93.162003 106.735001 92.746002 107.043999 C 92.330002 107.343002 91.722 107.491997 90.921997 107.491997 Z M 100.125999 107.571999 C 99.61554 107.57856 99.109146 107.480545 98.638 107.283997 C 98.214653 107.111687 97.848595 106.823273 97.582001 106.452003 C 97.325996 106.089996 97.197998 105.647003 97.197998 105.124001 C 97.197998 104.591003 97.325996 104.153999 97.582001 103.811996 C 97.848709 103.451973 98.216202 103.179131 98.638 103.028 C 99.085999 102.848 99.587997 102.755997 100.141998 102.755997 L 102.781998 102.755997 L 102.781998 102.18 C 102.781998 101.625999 102.616997 101.188004 102.286003 100.867996 C 101.966003 100.547997 101.486 100.388 100.846001 100.388 C 100.217003 100.388 99.725998 100.542999 99.374001 100.851997 C 99.022003 101.152 98.781998 101.556 98.653999 102.068001 L 97.470001 101.683998 C 97.594368 101.253799 97.800835 100.851738 98.078003 100.5 C 98.356003 100.138 98.723999 99.849998 99.181999 99.636002 C 99.652 99.412003 100.211998 99.300003 100.862 99.300003 C 101.864998 99.300003 102.643997 99.561996 103.197998 100.084 C 103.752998 100.596001 104.029999 101.321999 104.029999 102.260002 L 104.029999 105.795998 C 104.029999 106.115997 104.18 106.276001 104.477997 106.276001 L 105.197998 106.276001 L 105.197998 107.348 L 104.094002 107.348 C 103.741997 107.348 103.459999 107.251999 103.246002 107.059998 C 103.032997 106.858002 102.926003 106.591003 102.926003 106.260002 L 102.926003 106.18 L 102.734001 106.18 C 102.597023 106.409668 102.436127 106.624191 102.253998 106.82 C 102.061996 107.033997 101.795998 107.209999 101.454002 107.348 C 101.113998 107.498001 100.669998 107.571999 100.125999 107.571999 Z M 100.269997 106.484001 C 101.016998 106.484001 101.620003 106.265999 102.078003 105.828003 C 102.547997 105.379997 102.781998 104.755997 102.781998 103.956001 L 102.781998 103.779999 L 100.190002 103.779999 C 99.690002 103.779999 99.273003 103.891998 98.942001 104.115997 C 98.622002 104.330002 98.461998 104.655998 98.461998 105.092003 C 98.461998 105.529999 98.627998 105.871002 98.958 106.115997 C 99.300003 106.362 99.737999 106.484001 100.269997 106.484001 Z M 106.93 107.348 L 106.93 96.148003 L 108.194 96.148003 L 108.194 107.348 L 106.93 107.348 Z M 66.780998 134.548004 L 66.780998 123.524002 L 68.013 123.524002 L 68.013 124.82 L 68.237 124.82 C 68.440002 124.426003 68.764999 124.073997 69.212997 123.764 C 69.671997 123.455002 70.306999 123.300003 71.116997 123.300003 C 71.789001 123.300003 72.402 123.466003 72.957001 123.795998 C 73.523003 124.115997 73.971001 124.574997 74.301003 125.171997 C 74.641998 125.769997 74.813004 126.489998 74.813004 127.332001 L 74.813004 127.540001 C 74.813004 128.372009 74.648003 129.09201 74.317001 129.699997 C 74.010956 130.282715 73.544609 130.765701 72.973 131.09201 C 72.417999 131.412003 71.800003 131.571991 71.116997 131.571991 C 70.572998 131.571991 70.109001 131.498001 69.724998 131.347992 C 69.386993 131.230957 69.076591 131.045807 68.813004 130.804001 C 68.597191 130.604156 68.413681 130.37207 68.268997 130.115997 L 68.044998 130.115997 L 68.044998 134.548004 L 66.780998 134.548004 Z M 70.780998 130.451996 C 71.591003 130.451996 72.248001 130.195999 72.749001 129.68399 C 73.261002 129.162003 73.516998 128.436005 73.516998 127.508003 L 73.516998 127.363998 C 73.516998 126.435997 73.261002 125.716003 72.749001 125.204002 C 72.248001 124.681999 71.592003 124.419998 70.780998 124.419998 C 69.981003 124.419998 69.32 124.681999 68.796997 125.204002 C 68.285004 125.716003 68.028999 126.435997 68.028999 127.363998 L 68.028999 127.508003 C 68.028999 128.436005 68.285004 129.162003 68.796997 129.68399 C 69.32 130.195999 69.981003 130.451996 70.780998 130.451996 Z M 79.477997 131.571991 C 78.967545 131.578552 78.461143 131.480545 77.989998 131.283997 C 77.56665 131.111694 77.200592 130.823273 76.933998 130.451996 C 76.678001 130.089996 76.550003 129.647003 76.550003 129.123993 C 76.550003 128.591003 76.678001 128.153992 76.933998 127.811996 C 77.20079 127.452057 77.56826 127.179237 77.989998 127.028 C 78.438004 126.847 78.940002 126.755997 79.494003 126.755997 L 82.134003 126.755997 L 82.134003 126.18 C 82.134003 125.625999 81.969002 125.188004 81.638 124.867996 C 81.318001 124.547997 80.837997 124.388 80.197998 124.388 C 79.568001 124.388 79.078003 124.542999 78.725998 124.851997 C 78.374001 125.151001 78.134003 125.556 78.005997 126.068001 L 76.821999 125.683998 C 76.949997 125.247002 77.152 124.851997 77.43 124.5 C 77.722092 124.126335 78.101089 123.829727 78.533997 123.636002 C 79.003998 123.412003 79.564003 123.300003 80.213997 123.300003 C 81.217003 123.300003 81.995003 123.561996 82.550003 124.084 C 83.105003 124.596001 83.382004 125.321999 83.382004 126.260002 L 83.382004 129.79599 C 83.382004 130.115997 83.531998 130.276001 83.830002 130.276001 L 84.550003 130.276001 L 84.550003 131.347992 L 83.445999 131.347992 C 83.094002 131.347992 82.810997 131.251999 82.598 131.059998 C 82.385002 130.858002 82.278 130.591003 82.278 130.26001 L 82.278 130.179993 L 82.085999 130.179993 C 81.948814 130.409531 81.787933 130.624039 81.606003 130.820007 C 81.414001 131.033997 81.147003 131.209991 80.806 131.347992 C 80.464996 131.498001 80.022003 131.571991 79.477997 131.571991 Z M 79.622002 130.484009 C 80.369003 130.484009 80.972 130.265991 81.43 129.828003 C 81.900002 129.380005 82.134003 128.755997 82.134003 127.956001 L 82.134003 127.779999 L 79.542 127.779999 C 79.041 127.779999 78.625 127.891998 78.293999 128.115997 C 77.973999 128.330002 77.814003 128.654999 77.814003 129.09201 C 77.814003 129.529999 77.978996 129.871002 78.309998 130.115997 C 78.651001 130.362 79.088997 130.484009 79.622002 130.484009 Z M 87.022003 134.548004 L 87.022003 133.427994 L 91.501999 133.427994 C 91.811996 133.427994 91.966003 133.268005 91.966003 132.947998 L 91.966003 130.100006 L 91.741997 130.100006 C 91.464241 130.657379 90.98317 131.086914 90.398003 131.300003 C 90.045998 131.428009 89.602997 131.492004 89.07 131.492004 C 88.525345 131.497192 87.987473 131.370972 87.501999 131.123993 C 87.031181 130.877441 86.64209 130.499481 86.382004 130.036011 C 86.114998 129.556 85.982002 128.970001 85.982002 128.276001 L 85.982002 123.524002 L 87.246002 123.524002 L 87.246002 128.179993 C 87.246002 128.947998 87.438004 129.507996 87.821999 129.860001 C 88.217003 130.212006 88.745003 130.388 89.405998 130.388 C 90.153 130.388 90.765999 130.143005 91.246002 129.652008 C 91.725998 129.162003 91.966003 128.431 91.966003 127.459999 L 91.966003 123.524002 L 93.230003 123.524002 L 93.230003 133.171997 C 93.230003 133.598999 93.107002 133.934998 92.862 134.179993 C 92.626999 134.425995 92.280998 134.548004 91.821999 134.548004 L 87.022003 134.548004 Z"/>
    <path id="path2" fill="#f6331c" stroke="none" d="M 169 12.615005 L 325 12.615005 L 325 156.615005 L 169 156.615005 Z"/>
    <path id="path3" fill="#ffffff" stroke="none" d="M 228.791 57.063004 C 227.104996 57.063004 225.612 56.764999 224.311005 56.167 C 223.009003 55.57 221.985001 54.716995 221.238998 53.606995 C 220.513 52.477005 220.151001 51.143005 220.151001 49.606995 L 220.151001 49.030998 L 224.246994 49.030998 L 224.246994 49.479004 C 224.246994 50.673996 224.662994 51.634003 225.494995 52.359001 C 226.326996 53.063004 227.425003 53.415001 228.791 53.415001 C 230.177002 53.415001 231.244003 53.084999 231.990997 52.423004 C 232.759003 51.762001 233.143005 50.93 233.143005 49.927002 L 233.143005 49.606995 C 233.143005 48.925003 232.972 48.369995 232.630997 47.943001 C 232.289001 47.516998 231.830994 47.207001 231.255005 47.014999 C 230.679001 46.802002 230.028 46.695 229.302994 46.695 L 224.822998 46.695 L 224.822998 42.214996 L 232.054993 38.375 L 232.054993 37.863007 L 220.727005 37.863007 L 220.727005 34.214996 L 236.598999 34.214996 L 236.598999 39.654999 L 229.847 43.238998 L 229.847 43.751007 L 231.031006 43.751007 C 232.033005 43.751007 233.003998 43.953995 233.942993 44.359009 C 234.892471 44.755997 235.712494 45.40979 236.311005 46.247002 C 236.929001 47.078995 237.238998 48.167 237.238998 49.511002 L 237.238998 49.895004 C 237.238998 51.346001 236.886993 52.615005 236.182999 53.703003 C 235.479004 54.770004 234.487 55.602005 233.207001 56.199005 C 231.947998 56.775002 230.475998 57.063004 228.791 57.063004 Z M 248.259003 57.063004 C 246.574005 57.063004 245.080994 56.764999 243.779007 56.167 C 242.477997 55.57 241.453995 54.716995 240.707001 53.606995 C 239.981995 52.477005 239.619003 51.143005 239.619003 49.606995 L 239.619003 49.030998 L 243.714996 49.030998 L 243.714996 49.479004 C 243.714996 50.673996 244.130997 51.634003 244.962997 52.359001 C 245.794998 53.063004 246.893997 53.415001 248.259003 53.415001 C 249.645996 53.415001 250.712997 53.084999 251.459 52.423004 C 252.227005 51.762001 252.610992 50.93 252.610992 49.927002 L 252.610992 49.606995 C 252.610992 48.925003 252.440994 48.369995 252.098999 47.943001 C 251.757996 47.516998 251.298996 47.207001 250.723007 47.014999 C 250.147003 46.802002 249.496994 46.695 248.770996 46.695 L 244.291 46.695 L 244.291 42.214996 L 251.522995 38.375 L 251.522995 37.863007 L 240.195007 37.863007 L 240.195007 34.214996 L 256.066986 34.214996 L 256.066986 39.654999 L 249.315002 43.238998 L 249.315002 43.751007 L 250.498993 43.751007 C 251.501205 43.750793 252.492615 43.957779 253.410995 44.359009 C 254.360641 44.755722 255.180725 45.409576 255.779007 46.247002 C 256.39801 47.078995 256.707001 48.167 256.707001 49.511002 L 256.707001 49.895004 C 256.707001 51.346001 256.355011 52.615005 255.651001 53.703003 C 254.947006 54.770004 253.955002 55.602005 252.675003 56.199005 C 251.417007 56.775002 249.945007 57.063004 248.259003 57.063004 Z M 264.368011 51.822998 L 263.152008 50.847 L 271.76001 40.207001 L 272.976013 41.182999 L 264.368011 51.822998 Z M 271.119995 51.775002 C 270.30899 51.775002 269.674988 51.561996 269.216003 51.134995 C 268.756989 50.697998 268.528015 50.106003 268.528015 49.359001 L 268.528015 49.247002 C 268.528015 48.490005 268.756989 47.897995 269.216003 47.471001 C 269.674988 47.033997 270.30899 46.815002 271.119995 46.815002 C 271.908997 46.815002 272.539001 47.033997 273.007996 47.471001 C 273.47699 47.897995 273.712006 48.490005 273.712006 49.247002 L 273.712006 49.359001 C 273.712006 50.106003 273.483002 50.697998 273.023987 51.134995 C 272.565002 51.561996 271.931 51.775002 271.119995 51.775002 Z M 271.119995 50.462997 C 271.428986 50.462997 271.669006 50.367004 271.839996 50.175003 C 272.020996 49.983002 272.112 49.733002 272.112 49.423004 L 272.112 49.167 C 272.112 48.858002 272.020996 48.606995 271.839996 48.415001 C 271.669006 48.223 271.428986 48.126999 271.119995 48.126999 C 270.811005 48.126999 270.565002 48.223 270.384003 48.415001 C 270.213013 48.606995 270.127991 48.858002 270.127991 49.167 L 270.127991 49.423004 C 270.127991 49.733002 270.213013 49.983002 270.384003 50.175003 C 270.565002 50.367004 270.811005 50.462997 271.119995 50.462997 Z M 265.007996 45.214996 C 264.196991 45.214996 263.562988 45.001999 263.104004 44.574997 C 262.644989 44.138 262.415985 43.546005 262.415985 42.798996 L 262.415985 42.686996 C 262.415985 41.929993 262.644989 41.337997 263.104004 40.910995 C 263.562988 40.473999 264.196991 40.255005 265.007996 40.255005 C 265.796997 40.255005 266.427002 40.473999 266.895996 40.910995 C 267.36499 41.337997 267.600006 41.929993 267.600006 42.686996 L 267.600006 42.798996 C 267.600006 43.546005 267.371002 44.138 266.911987 44.574997 C 266.453003 45.001999 265.819 45.214996 265.007996 45.214996 Z M 265.007996 43.903 C 265.316986 43.903 265.557007 43.807007 265.727997 43.615005 C 265.908997 43.423004 266 43.173004 266 42.863007 L 266 42.606995 C 266 42.298004 265.908997 42.046997 265.727997 41.854996 C 265.557007 41.662994 265.316986 41.567001 265.007996 41.567001 C 264.699005 41.567001 264.453003 41.662994 264.272003 41.854996 C 264.101013 42.046997 264.015991 42.298004 264.015991 42.606995 L 264.015991 42.863007 C 264.015991 43.173004 264.101013 43.423004 264.272003 43.615005 C 264.453003 43.807007 264.699005 43.903 265.007996 43.903 Z M 225.272003 95.614998 L 225.272003 84.415001 L 232.039993 84.415001 L 232.039993 85.630997 L 226.615997 85.630997 L 226.615997 89.390999 L 231.608002 89.390999 L 231.608002 90.607002 L 226.615997 90.607002 L 226.615997 95.614998 L 225.272003 95.614998 Z M 237.451004 95.838997 C 236.662003 95.838997 235.968002 95.674004 235.371002 95.343002 C 234.781662 95.009529 234.298996 94.515762 233.979004 93.918999 C 233.647995 93.310997 233.483002 92.607002 233.483002 91.806999 L 233.483002 91.614998 C 233.483002 90.805 233.647995 90.095001 233.979004 89.487 C 234.293411 88.895615 234.770996 88.406921 235.354996 88.079002 C 235.942001 87.737999 236.613998 87.567001 237.371002 87.567001 C 238.106995 87.567001 238.757996 87.726997 239.322998 88.046997 C 239.888 88.357002 240.330994 88.805 240.651001 89.390999 C 240.970993 89.977997 241.130997 90.666 241.130997 91.455002 L 241.130997 92.030998 L 234.746994 92.030998 C 234.779007 92.874001 235.050995 93.535004 235.563004 94.014999 C 236.074997 94.485001 236.714996 94.719002 237.483002 94.719002 C 238.154999 94.719002 238.671997 94.565002 239.035004 94.254997 C 239.397995 93.945999 239.675003 93.578003 239.867004 93.151001 L 240.955002 93.679001 C 240.794998 94.010002 240.570999 94.341003 240.283005 94.670998 C 240.005997 95.001999 239.638 95.278999 239.179001 95.502998 C 238.731003 95.726997 238.154999 95.838997 237.451004 95.838997 Z M 234.763 90.990997 L 239.850998 90.990997 C 239.807999 90.265999 239.557999 89.700996 239.098999 89.294998 C 238.651001 88.889999 238.074997 88.686996 237.371002 88.686996 C 236.656006 88.686996 236.070007 88.889999 235.610992 89.294998 C 235.151993 89.700996 234.869995 90.265999 234.763 90.990997 Z M 244.268005 95.614998 L 242.699997 87.791 L 243.979996 87.791 L 245.276001 94.766998 L 245.5 94.766998 L 247.212006 87.791 L 249.307999 87.791 L 251.020004 94.766998 L 251.244003 94.766998 L 252.539993 87.791 L 253.820007 87.791 L 252.251999 95.614998 L 250.091995 95.614998 L 248.363998 88.639 L 248.156006 88.639 L 246.427994 95.614998 L 244.268005 95.614998 Z M 259.420013 95.838997 C 258.630005 95.838997 257.937012 95.674004 257.339996 95.343002 C 256.750275 95.010056 256.267456 94.516151 255.947998 93.918999 C 255.617004 93.310997 255.451996 92.607002 255.451996 91.806999 L 255.451996 91.614998 C 255.451996 90.805 255.617004 90.095001 255.947998 89.487 C 256.262085 88.895378 256.739746 88.406609 257.324005 88.079002 C 257.910004 87.737999 258.582001 87.567001 259.339996 87.567001 C 260.075989 87.567001 260.726013 87.726997 261.291992 88.046997 C 261.856995 88.357002 262.299988 88.805 262.619995 89.390999 C 262.940002 89.977997 263.100006 90.666 263.100006 91.455002 L 263.100006 92.030998 L 256.716003 92.030998 C 256.747986 92.874001 257.019989 93.535004 257.532013 94.014999 C 258.044006 94.485001 258.68399 94.719002 259.451996 94.719002 C 260.123993 94.719002 260.640991 94.565002 261.003998 94.254997 C 261.365997 93.945999 261.644012 93.578003 261.835999 93.151001 L 262.924011 93.679001 C 262.764008 94.010002 262.540009 94.341003 262.252014 94.670998 C 261.973999 95.001999 261.605988 95.278999 261.14801 95.502998 C 260.700012 95.726997 260.123993 95.838997 259.420013 95.838997 Z M 256.731995 90.990997 L 261.820007 90.990997 C 261.777008 90.265999 261.526001 89.700996 261.067993 89.294998 C 260.619995 88.889999 260.044006 88.686996 259.339996 88.686996 C 258.625 88.686996 258.037994 88.889999 257.579987 89.294998 C 257.121002 89.700996 256.838013 90.265999 256.731995 90.990997 Z M 265.304993 95.614998 L 265.304993 87.791 L 266.536987 87.791 L 266.536987 88.750999 L 266.760986 88.750999 C 266.898987 88.410004 267.113007 88.158997 267.401001 87.999001 C 267.688995 87.838997 268.066986 87.759003 268.536987 87.759003 L 269.464996 87.759003 L 269.464996 88.911003 L 268.457001 88.911003 C 267.890991 88.911003 267.433014 89.070999 267.080994 89.390999 C 266.739014 89.700996 266.569 90.185997 266.569 90.847 L 266.569 95.614998 L 265.304993 95.614998 Z M 198.701996 119.838997 C 197.912003 119.838997 197.214005 119.674004 196.606003 119.343002 C 196.015457 119.020157 195.527573 118.537804 195.197998 117.950996 C 194.867004 117.343002 194.701996 116.628998 194.701996 115.806999 L 194.701996 115.598999 C 194.701996 114.789001 194.867004 114.079002 195.197998 113.471001 C 195.524292 112.877625 196.012634 112.389297 196.606003 112.063004 C 197.214005 111.733002 197.912003 111.567001 198.701996 111.567001 C 199.490997 111.567001 200.184006 111.733002 200.781998 112.063004 C 201.389999 112.393997 201.858994 112.862999 202.190002 113.471001 C 202.531006 114.079002 202.701996 114.789001 202.701996 115.598999 L 202.701996 115.806999 C 202.701996 116.628998 202.531006 117.343002 202.190002 117.950996 C 201.866135 118.542137 201.376801 119.025917 200.781998 119.343002 C 200.184006 119.674004 199.490997 119.838997 198.701996 119.838997 Z M 198.701996 118.703003 C 199.533997 118.703003 200.195007 118.442001 200.686005 117.918999 C 201.186996 117.386002 201.438004 116.670998 201.438004 115.775002 L 201.438004 115.630997 C 201.438004 114.735001 201.186996 114.026001 200.686005 113.502998 C 200.195007 112.970001 199.533997 112.703003 198.701996 112.703003 C 197.880005 112.703003 197.218994 112.970001 196.718002 113.502998 C 196.216003 114.026001 195.966003 114.735001 195.966003 115.630997 L 195.966003 115.775002 C 195.966003 116.670998 196.216003 117.386002 196.718002 117.918999 C 197.218994 118.442001 197.880005 118.703003 198.701996 118.703003 Z M 204.975998 122.815002 L 204.975998 111.791 L 206.207993 111.791 L 206.207993 113.086998 L 206.432007 113.086998 C 206.634995 112.693001 206.960007 112.341003 207.408005 112.030998 C 207.867004 111.722 208.501999 111.567001 209.311996 111.567001 C 209.959213 111.560524 210.595734 111.732109 211.151993 112.063004 C 211.720718 112.385857 212.186615 112.862854 212.496002 113.439003 C 212.837997 114.037003 213.007996 114.757004 213.007996 115.598999 L 213.007996 115.806999 C 213.007996 116.639 212.843002 117.359001 212.511993 117.967003 C 212.206268 118.549934 211.739853 119.033012 211.167999 119.359001 C 210.613998 119.679001 209.994995 119.838997 209.311996 119.838997 C 208.768005 119.838997 208.304001 119.764999 207.919998 119.614998 C 207.582047 119.497818 207.271683 119.312683 207.007996 119.070999 C 206.792374 118.871002 206.608887 118.638939 206.464005 118.383003 L 206.240005 118.383003 L 206.240005 122.815002 L 204.975998 122.815002 Z M 208.975998 118.719002 C 209.787003 118.719002 210.442993 118.462997 210.944 117.950996 C 211.455994 117.429001 211.712006 116.703003 211.712006 115.775002 L 211.712006 115.630997 C 211.712006 114.703003 211.455994 113.983002 210.944 113.471001 C 210.442993 112.948997 209.787003 112.686996 208.975998 112.686996 C 208.175995 112.686996 207.514999 112.948997 206.992004 113.471001 C 206.479996 113.983002 206.223999 114.703003 206.223999 115.630997 L 206.223999 115.775002 C 206.223999 116.703003 206.479996 117.429001 206.992004 117.950996 C 207.514999 118.462997 208.175995 118.719002 208.975998 118.719002 Z M 215.272995 122.815002 L 215.272995 111.791 L 216.505005 111.791 L 216.505005 113.086998 L 216.729004 113.086998 C 216.932007 112.693001 217.257004 112.341003 217.705002 112.030998 C 218.164001 111.722 218.798996 111.567001 219.608994 111.567001 C 220.25621 111.560524 220.892731 111.732109 221.449005 112.063004 C 222.017715 112.385857 222.483612 112.862854 222.792999 113.439003 C 223.134995 114.037003 223.304993 114.757004 223.304993 115.598999 L 223.304993 115.806999 C 223.304993 116.639 223.139999 117.359001 222.809006 117.967003 C 222.503281 118.549934 222.03685 119.033012 221.464996 119.359001 C 220.910995 119.679001 220.292007 119.838997 219.608994 119.838997 C 219.065002 119.838997 218.600998 119.764999 218.216995 119.614998 C 217.879059 119.497818 217.56868 119.312683 217.304993 119.070999 C 217.089371 118.871002 216.905884 118.638939 216.761002 118.383003 L 216.537003 118.383003 L 216.537003 122.815002 L 215.272995 122.815002 Z M 219.272995 118.719002 C 220.084 118.719002 220.740005 118.462997 221.240997 117.950996 C 221.753006 117.429001 222.009003 116.703003 222.009003 115.775002 L 222.009003 115.630997 C 222.009003 114.703003 221.753006 113.983002 221.240997 113.471001 C 220.740005 112.948997 220.084 112.686996 219.272995 112.686996 C 218.473007 112.686996 217.811996 112.948997 217.289001 113.471001 C 216.776993 113.983002 216.520996 114.703003 216.520996 115.630997 L 216.520996 115.775002 C 216.520996 116.703003 216.776993 117.429001 217.289001 117.950996 C 217.811996 118.462997 218.473007 118.719002 219.272995 118.719002 Z M 229.186005 119.838997 C 228.397003 119.838997 227.697998 119.674004 227.089996 119.343002 C 226.499847 119.01963 226.012085 118.537415 225.682007 117.950996 C 225.352005 117.343002 225.186005 116.628998 225.186005 115.806999 L 225.186005 115.598999 C 225.186005 114.789001 225.352005 114.079002 225.682007 113.471001 C 226.008911 112.878098 226.497101 112.389915 227.089996 112.063004 C 227.697998 111.733002 228.397003 111.567001 229.186005 111.567001 C 229.975998 111.567001 230.669006 111.733002 231.266006 112.063004 C 231.873993 112.393997 232.343994 112.862999 232.673996 113.471001 C 233.016006 114.079002 233.186005 114.789001 233.186005 115.598999 L 233.186005 115.806999 C 233.186005 116.628998 233.016006 117.343002 232.673996 117.950996 C 232.343994 118.549004 231.873993 119.013 231.266006 119.343002 C 230.669006 119.674004 229.975998 119.838997 229.186005 119.838997 Z M 229.186005 118.703003 C 230.018005 118.703003 230.679993 118.442001 231.169998 117.918999 C 231.671997 117.386002 231.921997 116.670998 231.921997 115.775002 L 231.921997 115.630997 C 231.921997 114.735001 231.671997 114.026001 231.169998 113.502998 C 230.679993 112.970001 230.018005 112.703003 229.186005 112.703003 C 228.365005 112.703003 227.703995 112.970001 227.201996 113.502998 C 226.701004 114.026001 226.449997 114.735001 226.449997 115.630997 L 226.449997 115.775002 C 226.449997 116.670998 226.701004 117.386002 227.201996 117.918999 C 227.703995 118.442001 228.365005 118.703003 229.186005 118.703003 Z M 235.460999 119.614998 L 235.460999 111.791 L 236.692993 111.791 L 236.692993 112.750999 L 236.917007 112.750999 C 237.054993 112.410004 237.268997 112.158997 237.557007 111.999001 C 237.845001 111.838997 238.223007 111.759003 238.692993 111.759003 L 239.621002 111.759003 L 239.621002 112.911003 L 238.613007 112.911003 C 238.046997 112.911003 237.589005 113.070999 237.237 113.390999 C 236.895004 113.700996 236.725006 114.185997 236.725006 114.847 L 236.725006 119.614998 L 235.460999 119.614998 Z M 244.371994 119.614998 C 243.923996 119.614998 243.576996 119.492996 243.332001 119.247002 C 243.097 119.001999 242.979996 118.666 242.979996 118.238998 L 242.979996 112.894997 L 240.628006 112.894997 L 240.628006 111.791 L 242.979996 111.791 L 242.979996 109.007004 L 244.244003 109.007004 L 244.244003 111.791 L 246.804001 111.791 L 246.804001 112.894997 L 244.244003 112.894997 L 244.244003 118.046997 C 244.244003 118.366997 244.399002 118.527 244.707993 118.527 L 246.451996 118.527 L 246.451996 119.614998 L 244.371994 119.614998 Z M 251.843002 119.759003 C 251.298355 119.76416 250.760483 119.637924 250.274994 119.390999 C 249.804382 119.144165 249.415375 118.766266 249.154999 118.303001 C 248.889008 117.813004 248.755005 117.221001 248.755005 116.527 L 248.755005 111.791 L 250.018997 111.791 L 250.018997 116.431 C 250.018997 117.209999 250.210999 117.775002 250.595001 118.126999 C 250.990005 118.478996 251.518005 118.654999 252.179001 118.654999 C 252.925995 118.654999 253.539001 118.410004 254.018997 117.918999 C 254.498993 117.429001 254.738998 116.697998 254.738998 115.726997 L 254.738998 111.791 L 256.002991 111.791 L 256.002991 119.614998 L 254.770996 119.614998 L 254.770996 118.287003 L 254.546997 118.287003 C 254.376999 118.661003 254.082993 119.001999 253.667007 119.310997 C 253.251007 119.610001 252.643005 119.759003 251.843002 119.759003 Z M 258.64801 119.614998 L 258.64801 111.791 L 259.880005 111.791 L 259.880005 113.119003 L 260.104004 113.119003 C 260.274994 112.746002 260.562988 112.410004 260.967987 112.111 C 261.384003 111.802002 261.992004 111.647003 262.791992 111.647003 C 263.378998 111.647003 263.902008 111.769997 264.359985 112.014999 C 264.829987 112.261002 265.203003 112.623001 265.480011 113.102997 C 265.757996 113.583 265.895996 114.175003 265.895996 114.878998 L 265.895996 119.614998 L 264.631989 119.614998 L 264.631989 114.974998 C 264.631989 114.196999 264.434998 113.630997 264.040009 113.278999 C 263.656006 112.927002 263.134003 112.750999 262.471985 112.750999 C 261.714996 112.750999 261.096008 112.997002 260.615997 113.487 C 260.147003 113.977997 259.911987 114.709 259.911987 115.679001 L 259.911987 119.614998 L 258.64801 119.614998 Z M 268.460999 119.614998 L 268.460999 111.791 L 269.725006 111.791 L 269.725006 119.614998 L 268.460999 119.614998 Z M 269.101013 110.574997 C 268.839478 110.581619 268.586121 110.483727 268.397003 110.303001 C 268.214874 110.121284 268.116394 109.872124 268.125 109.614998 C 268.125 109.327003 268.214996 109.093002 268.397003 108.911003 C 268.586365 108.730652 268.839569 108.63282 269.101013 108.639 C 269.377991 108.639 269.606995 108.730003 269.789001 108.911003 C 269.972473 109.098366 270.070831 109.352943 270.061005 109.614998 C 270.069153 109.872017 269.970612 110.120956 269.788788 110.30278 C 269.606964 110.484612 269.358002 110.583138 269.101013 110.574997 Z M 275.263 119.614998 C 274.815002 119.614998 274.467987 119.492996 274.222992 119.247002 C 273.988007 119.001999 273.871002 118.666 273.871002 118.238998 L 273.871002 112.894997 L 271.519012 112.894997 L 271.519012 111.791 L 273.871002 111.791 L 273.871002 109.007004 L 275.13501 109.007004 L 275.13501 111.791 L 277.695007 111.791 L 277.695007 112.894997 L 275.13501 112.894997 L 275.13501 118.046997 C 275.13501 118.366997 275.289001 118.527 275.598999 118.527 L 277.342987 118.527 L 277.342987 119.614998 L 275.263 119.614998 Z M 279.742004 119.614998 L 279.742004 111.791 L 281.006012 111.791 L 281.006012 119.614998 L 279.742004 119.614998 Z M 280.381989 110.574997 C 280.120514 110.581398 279.867249 110.483536 279.678009 110.303001 C 279.496307 110.121017 279.397858 109.87204 279.406006 109.614998 C 279.406006 109.327003 279.497009 109.093002 279.678009 108.911003 C 279.867554 108.730934 280.120636 108.633156 280.381989 108.639 C 280.658997 108.639 280.889008 108.730003 281.070007 108.911003 C 281.253479 109.098366 281.351837 109.352943 281.34201 109.614998 C 281.350433 109.872101 281.252014 110.121216 281.070099 110.303108 C 280.888214 110.485008 280.639099 110.583435 280.381989 110.574997 Z M 287.247986 119.838997 C 286.459015 119.838997 285.765015 119.674004 285.167999 119.343002 C 284.578613 119.009621 284.095917 118.515823 283.776001 117.918999 C 283.445007 117.310997 283.279999 116.607002 283.279999 115.806999 L 283.279999 115.614998 C 283.279999 114.805 283.445007 114.095001 283.776001 113.487 C 284.090515 112.895676 284.568054 112.407013 285.152008 112.079002 C 285.739014 111.737999 286.411011 111.567001 287.167999 111.567001 C 287.903992 111.567001 288.554993 111.726997 289.119995 112.046997 C 289.684204 112.355988 290.145782 112.823143 290.447998 113.390999 C 290.768005 113.977997 290.928009 114.666 290.928009 115.455002 L 290.928009 116.030998 L 284.544006 116.030998 C 284.575989 116.874001 284.847992 117.535004 285.359985 118.014999 C 285.872009 118.485001 286.511993 118.719002 287.279999 118.719002 C 287.951996 118.719002 288.468994 118.565002 288.832001 118.254997 C 289.195007 117.945999 289.471985 117.578003 289.664001 117.151001 L 290.752014 117.679001 C 290.59201 118.010002 290.368011 118.341003 290.079987 118.670998 C 289.803009 119.001999 289.434998 119.278999 288.976013 119.502998 C 288.528015 119.726997 287.951996 119.838997 287.247986 119.838997 Z M 284.559998 114.990997 L 289.64801 114.990997 C 289.605011 114.265999 289.355011 113.700996 288.895996 113.294998 C 288.447998 112.889999 287.872009 112.686996 287.167999 112.686996 C 286.453003 112.686996 285.867004 112.889999 285.40799 113.294998 C 284.949005 113.700996 284.666992 114.265999 284.559998 114.990997 Z M 296.285004 119.838997 C 295.313995 119.838997 294.493011 119.614998 293.821014 119.167 C 293.158997 118.719002 292.759003 118.010002 292.621002 117.039001 L 293.821014 116.766998 C 293.906006 117.278999 294.06601 117.684998 294.300995 117.983002 C 294.535004 118.271004 294.822998 118.478996 295.165009 118.607002 C 295.516998 118.724998 295.890015 118.782997 296.285004 118.782997 C 296.871002 118.782997 297.334991 118.666 297.677002 118.431 C 298.018005 118.196999 298.188995 117.882004 298.188995 117.487 C 298.188995 117.082001 298.02301 116.799004 297.692993 116.639 C 297.372986 116.469002 296.929993 116.330002 296.36499 116.223 L 295.709015 116.111 C 295.235687 116.034462 294.77359 115.900124 294.333008 115.710999 C 293.946198 115.552132 293.605194 115.299133 293.341003 114.974998 C 293.095001 114.666 292.972992 114.277 292.972992 113.806999 C 292.972992 113.102997 293.244995 112.554001 293.789001 112.158997 C 294.333008 111.764999 295.053009 111.567001 295.949005 111.567001 C 296.834015 111.567001 297.549011 111.769997 298.092987 112.175003 C 298.647003 112.57 299.005005 113.129997 299.165009 113.855003 L 297.980988 114.158997 C 297.88501 113.594002 297.654999 113.198997 297.292999 112.974998 C 296.929993 112.740997 296.481995 112.623001 295.949005 112.623001 C 295.415009 112.623001 294.993988 112.724998 294.684998 112.927002 C 294.375 113.119003 294.221008 113.406998 294.221008 113.791 C 294.221008 114.165001 294.36499 114.442001 294.653015 114.623001 C 294.950989 114.793999 295.346008 114.921997 295.837006 115.007004 L 296.493011 115.119003 C 297.046997 115.214996 297.542999 115.348999 297.980988 115.518997 C 298.428986 115.679001 298.781006 115.914001 299.036987 116.223 C 299.303009 116.532997 299.437012 116.938004 299.437012 117.439003 C 299.437012 118.207001 299.148987 118.799004 298.572998 119.214996 C 298.006989 119.630997 297.244995 119.838997 296.285004 119.838997 Z M 196.380005 143.615005 L 196.380005 136.895004 L 193.979996 136.895004 L 193.979996 135.791 L 196.380005 135.791 L 196.380005 133.791 C 196.380005 133.365005 196.496994 133.029007 196.731995 132.78299 C 196.977005 132.537994 197.324005 132.415009 197.772003 132.415009 L 199.740005 132.415009 L 199.740005 133.503006 L 198.123993 133.503006 C 197.804001 133.503006 197.643997 133.662994 197.643997 133.983002 L 197.643997 135.791 L 200.108002 135.791 L 200.108002 136.895004 L 197.643997 136.895004 L 197.643997 143.615005 L 196.380005 143.615005 Z M 205.147003 143.839005 C 204.358002 143.839005 203.658997 143.673996 203.050995 143.343002 C 202.460663 143.019897 201.972839 142.537613 201.643005 141.951004 C 201.311996 141.343002 201.147003 140.628998 201.147003 139.807007 L 201.147003 139.598999 C 201.147003 138.789001 201.311996 138.078995 201.643005 137.470993 C 201.969604 136.877869 202.457855 136.389603 203.050995 136.063004 C 203.658997 135.733002 204.358002 135.567001 205.147003 135.567001 C 205.936005 135.567001 206.630005 135.733002 207.227005 136.063004 C 207.835007 136.393997 208.304001 136.863007 208.634995 137.470993 C 208.975998 138.078995 209.147003 138.789001 209.147003 139.598999 L 209.147003 139.807007 C 209.147003 140.628998 208.975998 141.343002 208.634995 141.951004 C 208.311142 142.542145 207.821808 143.025909 207.227005 143.343002 C 206.630005 143.673996 205.936005 143.839005 205.147003 143.839005 Z M 205.147003 142.703003 C 205.979004 142.703003 206.639999 142.442001 207.130997 141.919006 C 207.632004 141.386002 207.882996 140.671005 207.882996 139.774994 L 207.882996 139.630997 C 207.882996 138.735001 207.632004 138.026001 207.130997 137.503006 C 206.639999 136.970001 205.979004 136.703003 205.147003 136.703003 C 204.326004 136.703003 203.664001 136.970001 203.162994 137.503006 C 202.662003 138.026001 202.410995 138.735001 202.410995 139.630997 L 202.410995 139.774994 C 202.410995 140.671005 202.662003 141.386002 203.162994 141.919006 C 203.664001 142.442001 204.326004 142.703003 205.147003 142.703003 Z M 211.421997 143.615005 L 211.421997 135.791 L 212.654007 135.791 L 212.654007 136.751007 L 212.878006 136.751007 C 213.016006 136.410004 213.229996 136.158997 213.518005 135.998993 C 213.806 135.839005 214.184006 135.759003 214.654007 135.759003 L 215.582001 135.759003 L 215.582001 136.910995 L 214.574005 136.910995 C 214.007996 136.910995 213.550003 137.070999 213.197998 137.391006 C 212.856003 137.701004 212.686005 138.186005 212.686005 138.847 L 212.686005 143.615005 L 211.421997 143.615005 Z M 221.561996 146.815002 L 221.561996 135.791 L 222.794006 135.791 L 222.794006 137.087006 L 223.018005 137.087006 C 223.220993 136.692993 223.546005 136.341003 223.994003 136.031006 C 224.453003 135.722 225.087997 135.567001 225.897995 135.567001 C 226.545212 135.560516 227.181732 135.732101 227.738007 136.063004 C 228.306717 136.385849 228.772614 136.862854 229.082001 137.438995 C 229.423996 138.037003 229.593994 138.757004 229.593994 139.598999 L 229.593994 139.807007 C 229.593994 140.639008 229.429001 141.358994 229.098007 141.966995 C 228.792267 142.549942 228.325851 143.03302 227.753998 143.358994 C 227.199997 143.679001 226.580994 143.839005 225.897995 143.839005 C 225.354004 143.839005 224.889999 143.764999 224.505997 143.615005 C 224.16806 143.497818 223.857681 143.312683 223.593994 143.070999 C 223.378372 142.871002 223.194885 142.638947 223.050003 142.382996 L 222.826004 142.382996 L 222.826004 146.815002 L 221.561996 146.815002 Z M 225.561996 142.718994 C 226.373001 142.718994 227.029007 142.462997 227.529999 141.951004 C 228.042007 141.429001 228.298004 140.703003 228.298004 139.774994 L 228.298004 139.630997 C 228.298004 138.703003 228.042007 137.983002 227.529999 137.470993 C 227.029007 136.949005 226.373001 136.686996 225.561996 136.686996 C 224.761993 136.686996 224.100998 136.949005 223.578003 137.470993 C 223.065994 137.983002 222.809998 138.703003 222.809998 139.630997 L 222.809998 139.774994 C 222.809998 140.703003 223.065994 141.429001 223.578003 141.951004 C 224.100998 142.462997 224.761993 142.718994 225.561996 142.718994 Z M 231.858994 143.615005 L 231.858994 135.791 L 233.091003 135.791 L 233.091003 136.751007 L 233.315002 136.751007 C 233.453995 136.410004 233.667007 136.158997 233.955002 135.998993 C 234.242996 135.839005 234.621994 135.759003 235.091003 135.759003 L 236.018997 135.759003 L 236.018997 136.910995 L 235.011002 136.910995 C 234.445999 136.910995 233.987 137.070999 233.634995 137.391006 C 233.294006 137.701004 233.123001 138.186005 233.123001 138.847 L 233.123001 143.615005 L 231.858994 143.615005 Z M 241.225006 143.839005 C 240.436005 143.839005 239.737 143.673996 239.128998 143.343002 C 238.538849 143.019638 238.051086 142.537415 237.720993 141.951004 C 237.391006 141.343002 237.225006 140.628998 237.225006 139.807007 L 237.225006 139.598999 C 237.225006 138.789001 237.391006 138.078995 237.720993 137.470993 C 238.047913 136.878098 238.536087 136.389923 239.128998 136.063004 C 239.737 135.733002 240.436005 135.567001 241.225006 135.567001 C 242.014999 135.567001 242.707993 135.733002 243.304993 136.063004 C 243.912994 136.393997 244.382996 136.863007 244.712997 137.470993 C 245.054993 138.078995 245.225006 138.789001 245.225006 139.598999 L 245.225006 139.807007 C 245.225006 140.628998 245.054993 141.343002 244.712997 141.951004 C 244.382996 142.548996 243.912994 143.013 243.304993 143.343002 C 242.707993 143.673996 242.014999 143.839005 241.225006 143.839005 Z M 241.225006 142.703003 C 242.057007 142.703003 242.718994 142.442001 243.209 141.919006 C 243.710999 141.386002 243.960999 140.671005 243.960999 139.774994 L 243.960999 139.630997 C 243.960999 138.735001 243.710999 138.026001 243.209 137.503006 C 242.718994 136.970001 242.057007 136.703003 241.225006 136.703003 C 240.404007 136.703003 239.742996 136.970001 239.240997 137.503006 C 238.740005 138.026001 238.488998 138.735001 238.488998 139.630997 L 238.488998 139.774994 C 238.488998 140.671005 238.740005 141.386002 239.240997 141.919006 C 239.742996 142.442001 240.404007 142.703003 241.225006 142.703003 Z M 247.5 143.615005 L 247.5 135.791 L 248.731995 135.791 L 248.731995 136.766998 L 248.955994 136.766998 C 249.104996 136.490005 249.350998 136.233994 249.692001 135.998993 C 250.033005 135.764999 250.513 135.647003 251.132004 135.647003 C 251.740005 135.647003 252.231003 135.781006 252.604004 136.046997 C 252.988007 136.313995 253.264999 136.639008 253.436005 137.022995 L 253.660004 137.022995 C 253.841003 136.639008 254.113007 136.313995 254.475998 136.046997 C 254.848999 135.781006 255.367004 135.647003 256.028015 135.647003 C 256.550995 135.647003 257.009003 135.753998 257.403992 135.966995 C 257.799011 136.181 258.108002 136.490005 258.332001 136.895004 C 258.566986 137.289993 258.68399 137.764999 258.68399 138.319 L 258.68399 143.615005 L 257.420013 143.615005 L 257.420013 138.431 C 257.420013 137.908997 257.265015 137.498001 256.955994 137.199005 C 256.657013 136.889999 256.235992 136.735001 255.692001 136.735001 C 255.115997 136.735001 254.641006 136.921997 254.268005 137.294998 C 253.904999 137.669006 253.723999 138.207001 253.723999 138.910995 L 253.723999 143.615005 L 252.460007 143.615005 L 252.460007 138.431 C 252.460007 137.908997 252.304993 137.498001 251.996002 137.199005 C 251.697006 136.889999 251.276001 136.735001 250.731995 136.735001 C 250.156006 136.735001 249.681 136.921997 249.307999 137.294998 C 248.945007 137.669006 248.764008 138.207001 248.764008 138.910995 L 248.764008 143.615005 L 247.5 143.615005 Z M 264.881989 143.839005 C 264.09201 143.839005 263.394012 143.673996 262.786011 143.343002 C 262.195465 143.020157 261.707581 142.537811 261.377991 141.951004 C 261.046997 141.343002 260.881989 140.628998 260.881989 139.807007 L 260.881989 139.598999 C 260.881989 138.789001 261.046997 138.078995 261.377991 137.470993 C 261.704285 136.877625 262.192627 136.389297 262.786011 136.063004 C 263.394012 135.733002 264.09201 135.567001 264.881989 135.567001 C 265.67099 135.567001 266.364014 135.733002 266.962006 136.063004 C 267.570007 136.393997 268.039001 136.863007 268.369995 137.470993 C 268.710999 138.078995 268.881989 138.789001 268.881989 139.598999 L 268.881989 139.807007 C 268.881989 140.628998 268.710999 141.343002 268.369995 141.951004 C 268.046143 142.542145 267.556793 143.025909 266.962006 143.343002 C 266.364014 143.673996 265.67099 143.839005 264.881989 143.839005 Z M 264.881989 142.703003 C 265.713989 142.703003 266.375 142.442001 266.865997 141.919006 C 267.367004 141.386002 267.618011 140.671005 267.618011 139.774994 L 267.618011 139.630997 C 267.618011 138.735001 267.367004 138.026001 266.865997 137.503006 C 266.375 136.970001 265.713989 136.703003 264.881989 136.703003 C 264.059998 136.703003 263.398987 136.970001 262.89801 137.503006 C 262.395996 138.026001 262.145996 138.735001 262.145996 139.630997 L 262.145996 139.774994 C 262.145996 140.671005 262.395996 141.386002 262.89801 141.919006 C 263.398987 142.442001 264.059998 142.703003 264.881989 142.703003 Z M 273.708008 143.615005 C 273.26001 143.615005 272.912994 143.492996 272.667999 143.246994 C 272.433014 143.001999 272.31601 142.666 272.31601 142.238998 L 272.31601 136.895004 L 269.963989 136.895004 L 269.963989 135.791 L 272.31601 135.791 L 272.31601 133.007004 L 273.579987 133.007004 L 273.579987 135.791 L 276.140015 135.791 L 276.140015 136.895004 L 273.579987 136.895004 L 273.579987 142.046997 C 273.579987 142.367004 273.734985 142.526993 274.044006 142.526993 L 275.787994 142.526993 L 275.787994 143.615005 L 273.708008 143.615005 Z M 278.187012 143.615005 L 278.187012 135.791 L 279.450989 135.791 L 279.450989 143.615005 L 278.187012 143.615005 Z M 278.826996 134.574997 C 278.565521 134.58139 278.312256 134.483536 278.122986 134.302994 C 277.941284 134.121017 277.842865 133.87204 277.851013 133.615005 C 277.851013 133.326996 277.941986 133.093002 278.122986 132.911011 C 278.312561 132.730927 278.565613 132.633148 278.826996 132.639008 C 279.105011 132.639008 279.334015 132.730011 279.515015 132.911011 C 279.696991 133.093002 279.786987 133.326996 279.786987 133.615005 C 279.796021 133.872269 279.697784 134.121735 279.515778 134.303772 C 279.33374 134.485794 279.084259 134.58403 278.826996 134.574997 Z M 285.725006 143.839005 C 284.936005 143.839005 284.237 143.673996 283.628998 143.343002 C 283.038849 143.019638 282.551086 142.537415 282.221008 141.951004 C 281.890991 141.343002 281.725006 140.628998 281.725006 139.807007 L 281.725006 139.598999 C 281.725006 138.789001 281.890991 138.078995 282.221008 137.470993 C 282.547913 136.878098 283.036102 136.389923 283.628998 136.063004 C 284.237 135.733002 284.936005 135.567001 285.725006 135.567001 C 286.515015 135.567001 287.208008 135.733002 287.804993 136.063004 C 288.412994 136.393997 288.882996 136.863007 289.213013 137.470993 C 289.554993 138.078995 289.725006 138.789001 289.725006 139.598999 L 289.725006 139.807007 C 289.725006 140.628998 289.554993 141.343002 289.213013 141.951004 C 288.882996 142.548996 288.412994 143.013 287.804993 143.343002 C 287.208008 143.673996 286.515015 143.839005 285.725006 143.839005 Z M 285.725006 142.703003 C 286.557007 142.703003 287.218994 142.442001 287.709015 141.919006 C 288.210999 141.386002 288.460999 140.671005 288.460999 139.774994 L 288.460999 139.630997 C 288.460999 138.735001 288.210999 138.026001 287.709015 137.503006 C 287.218994 136.970001 286.557007 136.703003 285.725006 136.703003 C 284.903992 136.703003 284.243011 136.970001 283.740997 137.503006 C 283.23999 138.026001 282.989014 138.735001 282.989014 139.630997 L 282.989014 139.774994 C 282.989014 140.671005 283.23999 141.386002 283.740997 141.919006 C 284.243011 142.442001 284.903992 142.703003 285.725006 142.703003 Z M 292 143.615005 L 292 135.791 L 293.231995 135.791 L 293.231995 137.119003 L 293.455994 137.119003 C 293.627014 136.746002 293.915009 136.410004 294.320007 136.110992 C 294.735992 135.802002 295.343994 135.647003 296.144012 135.647003 C 296.730988 135.647003 297.252991 135.770004 297.712006 136.014999 C 298.182617 136.261826 298.571625 136.63974 298.832001 137.102997 C 299.109009 137.582993 299.247986 138.175003 299.247986 138.878998 L 299.247986 143.615005 L 297.984009 143.615005 L 297.984009 138.975006 C 297.984009 138.197006 297.786987 137.630997 297.391998 137.279007 C 297.007996 136.927002 296.484985 136.751007 295.824005 136.751007 C 295.066986 136.751007 294.447998 136.996994 293.967987 137.487 C 293.498993 137.977997 293.264008 138.709 293.264008 139.679001 L 293.264008 143.615005 L 292 143.615005 Z"/>
</svg>
