<svg width="326" height="244" viewBox="0 0 326 244" fill="none" xmlns="http://www.w3.org/2000/svg">
<path fill-rule="evenodd" clip-rule="evenodd" d="M81.875 0.177734H136.844H163.125H218.105H244.375H325.625V68.6504V81.4275V81.4277V162.677V243.927H270.137H244.375H163.125V162.677V81.4277V81.4275H163.125H136.844H81.875V0.177734Z" fill="#F8604E"/>
<path d="M81.875 0.177734V-1.82227H79.875V0.177734H81.875ZM325.625 0.177734H327.625V-1.82227H325.625V0.177734ZM325.625 243.927V245.927H327.625V243.927H325.625ZM163.125 243.927H161.125V245.927H163.125V243.927ZM163.125 81.4275H165.125V79.4275H163.125V81.4275ZM81.875 81.4275H79.875V83.4275H81.875V81.4275ZM136.844 -1.82227H81.875V2.17773H136.844V-1.82227ZM163.125 -1.82227H136.844V2.17773H163.125V-1.82227ZM218.105 -1.82227H163.125V2.17773H218.105V-1.82227ZM244.375 -1.82227H218.105V2.17773H244.375V-1.82227ZM325.625 -1.82227H244.375V2.17773H325.625V-1.82227ZM327.625 68.6504V0.177734H323.625V68.6504H327.625ZM327.625 81.4275V68.6504H323.625V81.4275H327.625ZM327.625 81.4277V81.4275H323.625V81.4277H327.625ZM327.625 162.677V81.4277H323.625V162.677H327.625ZM327.625 243.927V162.677H323.625V243.927H327.625ZM270.137 245.927H325.625V241.927H270.137V245.927ZM270.137 241.927H244.375V245.927H270.137V241.927ZM244.375 241.927H163.125V245.927H244.375V241.927ZM165.125 243.927V162.677H161.125V243.927H165.125ZM165.125 162.677V81.4277H161.125V162.677H165.125ZM165.125 81.4277V81.4275H161.125V81.4277H165.125ZM163.125 83.4275H163.125V79.4275H163.125V83.4275ZM136.844 83.4275H163.125V79.4275H136.844V83.4275ZM81.875 83.4275H136.844V79.4275H81.875V83.4275ZM79.875 0.177734V81.4275H83.875V0.177734H79.875Z" fill="white"/>
<path fill-rule="evenodd" clip-rule="evenodd" d="M0.621094 0.177734H81.875V81.4277H163.121V139.419V162.677V243.927H81.8708H60.9531H0.621094V162.677V139.419V114.035V81.4277V0.177734Z" fill="#F6331C"/>
<path d="M81.875 0.177734H83.875V-1.82227H81.875V0.177734ZM0.621094 0.177734V-1.82227H-1.37891V0.177734H0.621094ZM81.875 81.4277H79.875V83.4277H81.875V81.4277ZM163.121 81.4277H165.121V79.4277H163.121V81.4277ZM163.121 243.927V245.927H165.121V243.927H163.121ZM0.621094 243.927H-1.37891V245.927H0.621094V243.927ZM81.875 -1.82227H0.621094V2.17773H81.875V-1.82227ZM83.875 81.4277V0.177734H79.875V81.4277H83.875ZM163.121 79.4277H81.875V83.4277H163.121V79.4277ZM165.121 139.419V81.4277H161.121V139.419H165.121ZM161.121 139.419V162.677H165.121V139.419H161.121ZM161.121 162.677V243.927H165.121V162.677H161.121ZM163.121 241.927H81.8708V245.927H163.121V241.927ZM81.8708 241.927H60.9531V245.927H81.8708V241.927ZM0.621094 245.927H60.9531V241.927H0.621094V245.927ZM-1.37891 162.677V243.927H2.62109V162.677H-1.37891ZM-1.37891 139.419V162.677H2.62109V139.419H-1.37891ZM-1.37891 114.035V139.419H2.62109V114.035H-1.37891ZM-1.37891 81.4277V114.035H2.62109V81.4277H-1.37891ZM-1.37891 0.177734V81.4277H2.62109V0.177734H-1.37891Z" fill="white"/>
<path d="M11.4131 20.1777V11.7777H14.3531L15.8051 19.0977H16.0211L17.4731 11.7777H20.4131V20.1777H18.8771V12.9417H18.6611L17.2211 20.1777H14.6051L13.1651 12.9417H12.9491V20.1777H11.4131ZM24.8751 20.3457C24.2831 20.3457 23.7511 20.2257 23.2791 19.9857C22.8071 19.7457 22.4351 19.3977 22.1631 18.9417C21.8911 18.4857 21.7551 17.9377 21.7551 17.2977V17.1057C21.7551 16.4657 21.8911 15.9177 22.1631 15.4617C22.4351 15.0057 22.8071 14.6577 23.2791 14.4177C23.7511 14.1777 24.2831 14.0577 24.8751 14.0577C25.4671 14.0577 25.9991 14.1777 26.4711 14.4177C26.9431 14.6577 27.3151 15.0057 27.5871 15.4617C27.8591 15.9177 27.9951 16.4657 27.9951 17.1057V17.2977C27.9951 17.9377 27.8591 18.4857 27.5871 18.9417C27.3151 19.3977 26.9431 19.7457 26.4711 19.9857C25.9991 20.2257 25.4671 20.3457 24.8751 20.3457ZM24.8751 19.0017C25.3391 19.0017 25.7231 18.8537 26.0271 18.5577C26.3311 18.2537 26.4831 17.8217 26.4831 17.2617V17.1417C26.4831 16.5817 26.3311 16.1537 26.0271 15.8577C25.7311 15.5537 25.3471 15.4017 24.8751 15.4017C24.4111 15.4017 24.0271 15.5537 23.7231 15.8577C23.4191 16.1537 23.2671 16.5817 23.2671 17.1417V17.2617C23.2671 17.8217 23.4191 18.2537 23.7231 18.5577C24.0271 18.8537 24.4111 19.0017 24.8751 19.0017ZM31.4716 20.1777C31.0796 20.1777 30.7596 20.0577 30.5116 19.8177C30.2716 19.5697 30.1516 19.2417 30.1516 18.8337V15.4737H28.6636V14.2257H30.1516V12.3777H31.6636V14.2257H33.2956V15.4737H31.6636V18.5697C31.6636 18.8097 31.7756 18.9297 31.9996 18.9297H33.1516V20.1777H31.4716ZM34.6642 20.1777V11.7777H36.1762V14.9577H36.3922C36.4562 14.8297 36.5562 14.7017 36.6922 14.5737C36.8282 14.4457 37.0082 14.3417 37.2322 14.2617C37.4642 14.1737 37.7562 14.1297 38.1082 14.1297C38.5722 14.1297 38.9762 14.2377 39.3202 14.4537C39.6722 14.6617 39.9442 14.9537 40.1362 15.3297C40.3282 15.6977 40.4242 16.1297 40.4242 16.6257V20.1777H38.9122V16.7457C38.9122 16.2977 38.8002 15.9617 38.5762 15.7377C38.3602 15.5137 38.0482 15.4017 37.6402 15.4017C37.1762 15.4017 36.8162 15.5577 36.5602 15.8697C36.3042 16.1737 36.1762 16.6017 36.1762 17.1537V20.1777H34.6642ZM44.7708 20.3457C44.1788 20.3457 43.6548 20.2217 43.1988 19.9737C42.7508 19.7177 42.3988 19.3617 42.1428 18.9057C41.8948 18.4417 41.7708 17.8977 41.7708 17.2737V17.1297C41.7708 16.5057 41.8948 15.9657 42.1428 15.5097C42.3908 15.0457 42.7388 14.6897 43.1868 14.4417C43.6348 14.1857 44.1548 14.0577 44.7467 14.0577C45.3308 14.0577 45.8388 14.1897 46.2708 14.4537C46.7028 14.7097 47.0388 15.0697 47.2787 15.5337C47.5188 15.9897 47.6388 16.5217 47.6388 17.1297V17.6457H43.3068C43.3228 18.0537 43.4748 18.3857 43.7628 18.6417C44.0508 18.8977 44.4028 19.0257 44.8188 19.0257C45.2428 19.0257 45.5548 18.9337 45.7548 18.7497C45.9548 18.5657 46.1068 18.3617 46.2108 18.1377L47.4468 18.7857C47.3348 18.9937 47.1708 19.2217 46.9548 19.4697C46.7468 19.7097 46.4668 19.9177 46.1148 20.0937C45.7628 20.2617 45.3148 20.3457 44.7708 20.3457ZM43.3188 16.5177H46.1028C46.0708 16.1737 45.9308 15.8977 45.6828 15.6897C45.4428 15.4817 45.1268 15.3777 44.7348 15.3777C44.3268 15.3777 44.0028 15.4817 43.7628 15.6897C43.5228 15.8977 43.3748 16.1737 43.3188 16.5177ZM48.9845 20.1777V14.2257H50.4725V14.8977H50.6885C50.7765 14.6577 50.9205 14.4817 51.1205 14.3697C51.3285 14.2577 51.5685 14.2017 51.8405 14.2017H52.5605V15.5457H51.8165C51.4325 15.5457 51.1165 15.6497 50.8685 15.8577C50.6205 16.0577 50.4965 16.3697 50.4965 16.7937V20.1777H48.9845ZM56.0737 20.3457C55.2977 20.3457 54.6617 20.1777 54.1657 19.8417C53.6697 19.5057 53.3697 19.0257 53.2657 18.4017L54.6577 18.0417C54.7137 18.3217 54.8057 18.5417 54.9337 18.7017C55.0697 18.8617 55.2337 18.9777 55.4257 19.0497C55.6257 19.1137 55.8417 19.1457 56.0737 19.1457C56.4257 19.1457 56.6857 19.0857 56.8537 18.9657C57.0217 18.8377 57.1057 18.6817 57.1057 18.4977C57.1057 18.3137 57.0257 18.1737 56.8657 18.0777C56.7057 17.9737 56.4497 17.8897 56.0977 17.8257L55.7617 17.7657C55.3457 17.6857 54.9657 17.5777 54.6217 17.4417C54.2777 17.2977 54.0017 17.1017 53.7937 16.8537C53.5857 16.6057 53.4817 16.2857 53.4817 15.8937C53.4817 15.3017 53.6977 14.8497 54.1297 14.5377C54.5617 14.2177 55.1297 14.0577 55.8337 14.0577C56.4977 14.0577 57.0497 14.2057 57.4897 14.5017C57.9297 14.7977 58.2177 15.1857 58.3537 15.6657L56.9497 16.0977C56.8857 15.7937 56.7537 15.5777 56.5537 15.4497C56.3617 15.3217 56.1217 15.2577 55.8337 15.2577C55.5457 15.2577 55.3257 15.3097 55.1737 15.4137C55.0217 15.5097 54.9457 15.6457 54.9457 15.8217C54.9457 16.0137 55.0257 16.1577 55.1857 16.2537C55.3457 16.3417 55.5617 16.4097 55.8337 16.4577L56.1697 16.5177C56.6177 16.5977 57.0217 16.7057 57.3817 16.8417C57.7497 16.9697 58.0377 17.1577 58.2457 17.4057C58.4617 17.6457 58.5697 17.9737 58.5697 18.3897C58.5697 19.0137 58.3417 19.4977 57.8857 19.8417C57.4377 20.1777 56.8337 20.3457 56.0737 20.3457ZM13.6411 38.3177C13.1278 38.3177 12.6844 38.2211 12.3111 38.0277C11.9378 37.8277 11.6478 37.5544 11.4411 37.2077C11.2344 36.8544 11.1311 36.4477 11.1311 35.9877V35.8677H11.9411V35.9577C11.9411 36.4844 12.0944 36.8877 12.4011 37.1677C12.7078 37.4477 13.1144 37.5877 13.6211 37.5877C14.1544 37.5877 14.5711 37.4377 14.8711 37.1377C15.1711 36.8377 15.3211 36.4277 15.3211 35.9077V35.8177C15.3211 35.3177 15.1744 34.9211 14.8811 34.6277C14.5944 34.3277 14.2211 34.1777 13.7611 34.1777C13.4944 34.1777 13.2744 34.2211 13.1011 34.3077C12.9278 34.3877 12.7911 34.4911 12.6911 34.6177C12.5911 34.7377 12.5078 34.8544 12.4411 34.9677H11.3411V31.1777H15.9411V31.9077H12.1511V34.3277H12.2911C12.3644 34.1944 12.4644 34.0644 12.5911 33.9377C12.7244 33.8111 12.9011 33.7044 13.1211 33.6177C13.3411 33.5311 13.6144 33.4877 13.9411 33.4877C14.3478 33.4877 14.7144 33.5811 15.0411 33.7677C15.3744 33.9544 15.6378 34.2211 15.8311 34.5677C16.0311 34.9144 16.1311 35.3277 16.1311 35.8077V35.9177C16.1311 36.3911 16.0311 36.8077 15.8311 37.1677C15.6311 37.5277 15.3444 37.8111 14.9711 38.0177C14.5978 38.2177 14.1544 38.3177 13.6411 38.3177ZM20.0058 40.1777V33.2877H20.7758V34.0977H20.9158C21.0424 33.8511 21.2458 33.6311 21.5258 33.4377C21.8124 33.2444 22.2091 33.1477 22.7158 33.1477C23.1358 33.1477 23.5191 33.2511 23.8658 33.4577C24.2191 33.6577 24.4991 33.9444 24.7058 34.3177C24.9191 34.6911 25.0258 35.1411 25.0258 35.6677V35.7977C25.0258 36.3177 24.9224 36.7677 24.7158 37.1477C24.5091 37.5277 24.2291 37.8177 23.8758 38.0177C23.5291 38.2177 23.1424 38.3177 22.7158 38.3177C22.3758 38.3177 22.0858 38.2711 21.8458 38.1777C21.6124 38.0911 21.4224 37.9777 21.2758 37.8377C21.1291 37.6977 21.0158 37.5544 20.9358 37.4077H20.7958V40.1777H20.0058ZM22.5058 37.6177C23.0124 37.6177 23.4224 37.4577 23.7358 37.1377C24.0558 36.8111 24.2158 36.3577 24.2158 35.7777V35.6877C24.2158 35.1077 24.0558 34.6577 23.7358 34.3377C23.4224 34.0111 23.0124 33.8477 22.5058 33.8477C22.0058 33.8477 21.5924 34.0111 21.2658 34.3377C20.9458 34.6577 20.7858 35.1077 20.7858 35.6877V35.7777C20.7858 36.3577 20.9458 36.8111 21.2658 37.1377C21.5924 37.4577 22.0058 37.6177 22.5058 37.6177ZM28.6813 38.3177C28.188 38.3177 27.7547 38.2144 27.3813 38.0077C27.008 37.7944 26.718 37.4977 26.5113 37.1177C26.3047 36.7377 26.2013 36.2977 26.2013 35.7977V35.6777C26.2013 35.1711 26.3047 34.7277 26.5113 34.3477C26.718 33.9677 27.0047 33.6744 27.3713 33.4677C27.738 33.2544 28.158 33.1477 28.6313 33.1477C29.0913 33.1477 29.498 33.2477 29.8513 33.4477C30.2047 33.6411 30.4813 33.9211 30.6813 34.2877C30.8813 34.6544 30.9813 35.0844 30.9813 35.5777V35.9377H26.9913C27.0113 36.4644 27.1813 36.8777 27.5013 37.1777C27.8213 37.4711 28.2213 37.6177 28.7013 37.6177C29.1213 37.6177 29.4447 37.5211 29.6713 37.3277C29.898 37.1344 30.0713 36.9044 30.1913 36.6377L30.8713 36.9677C30.7713 37.1744 30.6313 37.3811 30.4513 37.5877C30.278 37.7944 30.048 37.9677 29.7613 38.1077C29.4813 38.2477 29.1213 38.3177 28.6813 38.3177ZM27.0013 35.2877H30.1813C30.1547 34.8344 29.998 34.4811 29.7113 34.2277C29.4313 33.9744 29.0713 33.8477 28.6313 33.8477C28.1847 33.8477 27.818 33.9744 27.5313 34.2277C27.2447 34.4811 27.068 34.8344 27.0013 35.2877ZM34.6193 38.3177C34.126 38.3177 33.6893 38.2144 33.3093 38.0077C32.936 37.8011 32.6426 37.5111 32.4293 37.1377C32.2226 36.7577 32.1193 36.3111 32.1193 35.7977V35.6677C32.1193 35.1611 32.2226 34.7177 32.4293 34.3377C32.6426 33.9577 32.936 33.6644 33.3093 33.4577C33.6893 33.2511 34.126 33.1477 34.6193 33.1477C35.1126 33.1477 35.546 33.2511 35.9193 33.4577C36.2993 33.6644 36.5926 33.9577 36.7993 34.3377C37.0126 34.7177 37.1193 35.1611 37.1193 35.6677V35.7977C37.1193 36.3111 37.0126 36.7577 36.7993 37.1377C36.5926 37.5111 36.2993 37.8011 35.9193 38.0077C35.546 38.2144 35.1126 38.3177 34.6193 38.3177ZM34.6193 37.6077C35.1393 37.6077 35.5526 37.4444 35.8593 37.1177C36.1726 36.7844 36.3293 36.3377 36.3293 35.7777V35.6877C36.3293 35.1277 36.1726 34.6844 35.8593 34.3577C35.5526 34.0244 35.1393 33.8577 34.6193 33.8577C34.106 33.8577 33.6926 34.0244 33.3793 34.3577C33.066 34.6844 32.9093 35.1277 32.9093 35.6877V35.7777C32.9093 36.3377 33.066 36.7844 33.3793 37.1177C33.6926 37.4444 34.106 37.6077 34.6193 37.6077ZM38.5409 40.1777V33.2877H39.3109V34.0977H39.4509C39.5776 33.8511 39.7809 33.6311 40.0609 33.4377C40.3476 33.2444 40.7443 33.1477 41.2509 33.1477C41.6709 33.1477 42.0543 33.2511 42.4009 33.4577C42.7543 33.6577 43.0343 33.9444 43.2409 34.3177C43.4543 34.6911 43.5609 35.1411 43.5609 35.6677V35.7977C43.5609 36.3177 43.4576 36.7677 43.2509 37.1477C43.0443 37.5277 42.7643 37.8177 42.4109 38.0177C42.0643 38.2177 41.6776 38.3177 41.2509 38.3177C40.9109 38.3177 40.6209 38.2711 40.3809 38.1777C40.1476 38.0911 39.9576 37.9777 39.8109 37.8377C39.6643 37.6977 39.5509 37.5544 39.4709 37.4077H39.3309V40.1777H38.5409ZM41.0409 37.6177C41.5476 37.6177 41.9576 37.4577 42.2709 37.1377C42.5909 36.8111 42.7509 36.3577 42.7509 35.7777V35.6877C42.7509 35.1077 42.5909 34.6577 42.2709 34.3377C41.9576 34.0111 41.5476 33.8477 41.0409 33.8477C40.5409 33.8477 40.1276 34.0111 39.8009 34.3377C39.4809 34.6577 39.3209 35.1077 39.3209 35.6877V35.7777C39.3209 36.3577 39.4809 36.8111 39.8009 37.1377C40.1276 37.4577 40.5409 37.6177 41.0409 37.6177ZM44.9765 38.1777V31.1777H45.7665V38.1777H44.9765ZM49.6677 38.3177C49.1743 38.3177 48.741 38.2144 48.3677 38.0077C47.9943 37.7944 47.7043 37.4977 47.4977 37.1177C47.291 36.7377 47.1877 36.2977 47.1877 35.7977V35.6777C47.1877 35.1711 47.291 34.7277 47.4977 34.3477C47.7043 33.9677 47.991 33.6744 48.3577 33.4677C48.7243 33.2544 49.1443 33.1477 49.6177 33.1477C50.0777 33.1477 50.4843 33.2477 50.8377 33.4477C51.191 33.6411 51.4677 33.9211 51.6677 34.2877C51.8677 34.6544 51.9677 35.0844 51.9677 35.5777V35.9377H47.9777C47.9977 36.4644 48.1677 36.8777 48.4877 37.1777C48.8077 37.4711 49.2077 37.6177 49.6877 37.6177C50.1077 37.6177 50.431 37.5211 50.6577 37.3277C50.8843 37.1344 51.0577 36.9044 51.1777 36.6377L51.8577 36.9677C51.7577 37.1744 51.6177 37.3811 51.4377 37.5877C51.2643 37.7944 51.0343 37.9677 50.7477 38.1077C50.4677 38.2477 50.1077 38.3177 49.6677 38.3177ZM47.9877 35.2877H51.1677C51.141 34.8344 50.9843 34.4811 50.6977 34.2277C50.4177 33.9744 50.0577 33.8477 49.6177 33.8477C49.171 33.8477 48.8043 33.9744 48.5177 34.2277C48.231 34.4811 48.0543 34.8344 47.9877 35.2877Z" fill="white"/>
</svg>
