<svg class="w-full" viewBox="0 0 678 329" fill="none" xmlns="http://www.w3.org/2000/svg">
                        <path
                            d="M10.908 112.504C8.94 112.504 7.236 112.156 5.796 111.46C4.38 110.764 3.288 109.78 2.52 108.508C1.752 107.236 1.368 105.76 1.368 104.08V103.72H6.048V104.044C6.048 105.244 6.444 106.276 7.236 107.14C8.052 107.98 9.252 108.4 10.836 108.4C12.42 108.4 13.632 107.98 14.472 107.14C15.336 106.276 15.768 105.16 15.768 103.792V103.432C15.768 102.088 15.336 101.02 14.472 100.228C13.632 99.436 12.576 99.04 11.304 99.04C10.608 99.04 10.032 99.136 9.576 99.328C9.12 99.52 8.748 99.76 8.46 100.048C8.172 100.336 7.932 100.624 7.74 100.912H2.16V86.8H19.368V90.976H6.768V97.132H7.416C7.656 96.82 7.98 96.52 8.388 96.232C8.796 95.944 9.324 95.704 9.972 95.512C10.62 95.32 11.388 95.224 12.276 95.224C13.764 95.224 15.12 95.536 16.344 96.16C17.568 96.784 18.54 97.708 19.26 98.932C20.004 100.132 20.376 101.62 20.376 103.396V103.828C20.376 105.604 19.992 107.14 19.224 108.436C18.48 109.732 17.4 110.74 15.984 111.46C14.568 112.156 12.876 112.504 10.908 112.504ZM30.2411 112V90.184H29.5931L26.2091 98.176H21.3851L26.5331 86.8H34.8491V112H30.2411ZM42.5585 112.468L39.8225 110.272L59.1905 86.332L61.9265 88.528L42.5585 112.468ZM57.7505 112.36C55.9265 112.36 54.4985 111.88 53.4665 110.92C52.4345 109.936 51.9185 108.604 51.9185 106.924V106.672C51.9185 104.968 52.4345 103.636 53.4665 102.676C54.4985 101.692 55.9265 101.2 57.7505 101.2C59.5265 101.2 60.9425 101.692 61.9985 102.676C63.0545 103.636 63.5825 104.968 63.5825 106.672V106.924C63.5825 108.604 63.0665 109.936 62.0345 110.92C61.0025 111.88 59.5745 112.36 57.7505 112.36ZM57.7505 109.408C58.4465 109.408 58.9865 109.192 59.3705 108.76C59.7785 108.328 59.9825 107.764 59.9825 107.068V106.492C59.9825 105.796 59.7785 105.232 59.3705 104.8C58.9865 104.368 58.4465 104.152 57.7505 104.152C57.0545 104.152 56.5025 104.368 56.0945 104.8C55.7105 105.232 55.5185 105.796 55.5185 106.492V107.068C55.5185 107.764 55.7105 108.328 56.0945 108.76C56.5025 109.192 57.0545 109.408 57.7505 109.408ZM43.9985 97.6C42.1745 97.6 40.7465 97.12 39.7145 96.16C38.6825 95.176 38.1665 93.844 38.1665 92.164V91.912C38.1665 90.208 38.6825 88.876 39.7145 87.916C40.7465 86.932 42.1745 86.44 43.9985 86.44C45.7745 86.44 47.1905 86.932 48.2465 87.916C49.3025 88.876 49.8305 90.208 49.8305 91.912V92.164C49.8305 93.844 49.3145 95.176 48.2825 96.16C47.2505 97.12 45.8225 97.6 43.9985 97.6ZM43.9985 94.648C44.6945 94.648 45.2345 94.432 45.6185 94C46.0265 93.568 46.2305 93.004 46.2305 92.308V91.732C46.2305 91.036 46.0265 90.472 45.6185 90.04C45.2345 89.608 44.6945 89.392 43.9985 89.392C43.3025 89.392 42.7505 89.608 42.3425 90.04C41.9585 90.472 41.7665 91.036 41.7665 91.732V92.308C41.7665 93.004 41.9585 93.568 42.3425 94C42.7505 94.432 43.3025 94.648 43.9985 94.648Z"
                            fill="#DFF851" />
                        <path
                            d="M5.796 111.46L5.35487 112.357L5.36083 112.36L5.796 111.46ZM2.52 108.508L1.66394 109.025L1.66394 109.025L2.52 108.508ZM1.368 103.72V102.72H0.368V103.72H1.368ZM6.048 103.72H7.048V102.72H6.048V103.72ZM7.236 107.14L6.49885 107.816L6.50863 107.826L6.51872 107.837L7.236 107.14ZM14.472 107.14L13.7649 106.433L13.7649 106.433L14.472 107.14ZM14.472 100.228L13.7859 100.956L13.7963 100.965L14.472 100.228ZM9.576 99.328L9.18794 98.4064L9.18794 98.4064L9.576 99.328ZM8.46 100.048L9.16711 100.755L9.16711 100.755L8.46 100.048ZM7.74 100.912V101.912H8.27518L8.57205 101.467L7.74 100.912ZM2.16 100.912H1.16V101.912H2.16V100.912ZM2.16 86.8V85.8H1.16V86.8H2.16ZM19.368 86.8H20.368V85.8H19.368V86.8ZM19.368 90.976V91.976H20.368V90.976H19.368ZM6.768 90.976V89.976H5.768V90.976H6.768ZM6.768 97.132H5.768V98.132H6.768V97.132ZM7.416 97.132V98.132H7.9084L8.20863 97.7417L7.416 97.132ZM8.388 96.232L8.96468 97.049L8.96468 97.049L8.388 96.232ZM9.972 95.512L9.68791 94.5532L9.68791 94.5532L9.972 95.512ZM16.344 96.16L16.7982 95.2691L16.7982 95.2691L16.344 96.16ZM19.26 98.932L18.3981 99.439L18.404 99.449L18.4101 99.4589L19.26 98.932ZM19.224 108.436L18.3636 107.926L18.3567 107.938L19.224 108.436ZM15.984 111.46L16.4252 112.358L16.4372 112.351L15.984 111.46ZM10.908 111.504C9.05668 111.504 7.50785 111.177 6.23117 110.56L5.36083 112.36C6.96415 113.135 8.82332 113.504 10.908 113.504V111.504ZM6.23712 110.563C4.98189 109.946 4.03883 109.089 3.37606 107.991L1.66394 109.025C2.53717 110.471 3.77811 111.582 5.35488 112.357L6.23712 110.563ZM3.37606 107.991C2.71407 106.895 2.368 105.602 2.368 104.08H0.368C0.368 105.918 0.78993 107.577 1.66394 109.025L3.37606 107.991ZM2.368 104.08V103.72H0.368V104.08H2.368ZM1.368 104.72H6.048V102.72H1.368V104.72ZM5.048 103.72V104.044H7.048V103.72H5.048ZM5.048 104.044C5.048 105.488 5.53338 106.762 6.49885 107.816L7.97315 106.464C7.35462 105.79 7.048 105 7.048 104.044H5.048ZM6.51872 107.837C7.58202 108.931 9.08014 109.4 10.836 109.4V107.4C9.42386 107.4 8.52198 107.029 7.95328 106.443L6.51872 107.837ZM10.836 109.4C12.5939 109.4 14.0956 108.931 15.1791 107.847L13.7649 106.433C13.1684 107.029 12.2461 107.4 10.836 107.4V109.4ZM15.1791 107.847C16.2538 106.772 16.768 105.391 16.768 103.792H14.768C14.768 104.929 14.4182 105.78 13.7649 106.433L15.1791 107.847ZM16.768 103.792V103.432H14.768V103.792H16.768ZM16.768 103.432C16.768 101.853 16.2495 100.501 15.1477 99.4908L13.7963 100.965C14.4225 101.539 14.768 102.323 14.768 103.432H16.768ZM15.158 99.5004C14.1129 98.515 12.8028 98.04 11.304 98.04V100.04C12.3492 100.04 13.1511 100.357 13.786 100.956L15.158 99.5004ZM11.304 98.04C10.525 98.04 9.80593 98.1462 9.18794 98.4064L9.96406 100.25C10.2581 100.126 10.691 100.04 11.304 100.04V98.04ZM9.18794 98.4064C8.63765 98.6381 8.14973 98.9441 7.75289 99.3409L9.16711 100.755C9.34627 100.576 9.60235 100.402 9.96406 100.25L9.18794 98.4064ZM7.75289 99.3409C7.42625 99.6675 7.14221 100.006 6.90795 100.357L8.57205 101.467C8.72179 101.242 8.91775 101.004 9.16711 100.755L7.75289 99.3409ZM7.74 99.912H2.16V101.912H7.74V99.912ZM3.16 100.912V86.8H1.16V100.912H3.16ZM2.16 87.8H19.368V85.8H2.16V87.8ZM18.368 86.8V90.976H20.368V86.8H18.368ZM19.368 89.976H6.768V91.976H19.368V89.976ZM5.768 90.976V97.132H7.768V90.976H5.768ZM6.768 98.132H7.416V96.132H6.768V98.132ZM8.20863 97.7417C8.37358 97.5273 8.61774 97.2939 8.96468 97.049L7.81132 95.415C7.34226 95.7461 6.93842 96.1127 6.62338 96.5223L8.20863 97.7417ZM8.96468 97.049C9.25829 96.8417 9.67826 96.642 10.2561 96.4708L9.68791 94.5532C8.96974 94.766 8.33371 95.0463 7.81132 95.415L8.96468 97.049ZM10.2561 96.4708C10.7882 96.3131 11.4559 96.224 12.276 96.224V94.224C11.3201 94.224 10.4518 94.3269 9.68791 94.5532L10.2561 96.4708ZM12.276 96.224C13.6195 96.224 14.8179 96.5045 15.8898 97.0509L16.7982 95.2691C15.4221 94.5675 13.9085 94.224 12.276 94.224V96.224ZM15.8898 97.0509C16.9382 97.5854 17.7712 98.3734 18.3981 99.439L20.1219 98.425C19.3088 97.0426 18.1978 95.9826 16.7982 95.2691L15.8898 97.0509ZM18.4101 99.4589C19.0336 100.465 19.376 101.759 19.376 103.396H21.376C21.376 101.481 20.9744 99.7994 20.1099 98.4051L18.4101 99.4589ZM19.376 103.396V103.828H21.376V103.396H19.376ZM19.376 103.828C19.376 105.457 19.0251 106.81 18.3637 107.926L20.0843 108.946C20.959 107.47 21.376 105.751 21.376 103.828H19.376ZM18.3567 107.938C17.7158 109.055 16.7849 109.931 15.5308 110.569L16.4372 112.351C18.0151 111.549 19.2442 110.409 20.0913 108.934L18.3567 107.938ZM15.5429 110.563C14.2938 111.176 12.76 111.504 10.908 111.504V113.504C12.992 113.504 14.8422 113.136 16.4251 112.357L15.5429 110.563ZM30.2411 112H29.2411V113H30.2411V112ZM30.2411 90.184H31.2411V89.184H30.2411V90.184ZM29.5931 90.184V89.184H28.9306L28.6723 89.7941L29.5931 90.184ZM26.2091 98.176V99.176H26.8717L27.13 98.5659L26.2091 98.176ZM21.3851 98.176L20.4741 97.7637L19.835 99.176H21.3851V98.176ZM26.5331 86.8V85.8H25.888L25.6221 86.3877L26.5331 86.8ZM34.8491 86.8H35.8491V85.8H34.8491V86.8ZM34.8491 112V113H35.8491V112H34.8491ZM31.2411 112V90.184H29.2411V112H31.2411ZM30.2411 89.184H29.5931V91.184H30.2411V89.184ZM28.6723 89.7941L25.2883 97.7861L27.13 98.5659L30.514 90.5739L28.6723 89.7941ZM26.2091 97.176H21.3851V99.176H26.2091V97.176ZM22.2962 98.5883L27.4442 87.2123L25.6221 86.3877L20.4741 97.7637L22.2962 98.5883ZM26.5331 87.8H34.8491V85.8H26.5331V87.8ZM33.8491 86.8V112H35.8491V86.8H33.8491ZM34.8491 111H30.2411V113H34.8491V111ZM42.5585 112.468L41.9325 113.248L42.7094 113.871L43.3359 113.097L42.5585 112.468ZM39.8225 110.272L39.045 109.643L38.4136 110.423L39.1965 111.052L39.8225 110.272ZM59.1905 86.332L59.8164 85.5521L59.0396 84.9286L58.413 85.703L59.1905 86.332ZM61.9265 88.528L62.7039 89.157L63.3353 88.3765L62.5524 87.7481L61.9265 88.528ZM53.4665 110.92L52.7763 111.644L52.7854 111.652L53.4665 110.92ZM53.4665 102.676L54.1476 103.408L54.1565 103.4L53.4665 102.676ZM61.9985 102.676L61.3167 103.408L61.3258 103.416L61.9985 102.676ZM62.0345 110.92L62.7156 111.652L62.7245 111.644L62.0345 110.92ZM59.3705 108.76L58.6435 108.073L58.6331 108.084L58.6231 108.096L59.3705 108.76ZM59.3705 104.8L58.6231 105.464L58.6331 105.476L58.6435 105.487L59.3705 104.8ZM56.0945 104.8L55.3675 104.113L55.3571 104.124L55.3471 104.136L56.0945 104.8ZM56.0945 108.76L55.3471 109.424L55.3571 109.436L55.3675 109.447L56.0945 108.76ZM39.7145 96.16L39.0243 96.8838L39.0334 96.8922L39.7145 96.16ZM39.7145 87.916L40.3956 88.6482L40.4045 88.6397L39.7145 87.916ZM48.2465 87.916L47.5647 88.6477L47.5738 88.6559L48.2465 87.916ZM48.2825 96.16L48.9636 96.8922L48.9725 96.8837L48.2825 96.16ZM45.6185 94L44.8915 93.3134L44.8811 93.3244L44.8711 93.3356L45.6185 94ZM45.6185 90.04L44.8711 90.7044L44.8811 90.7156L44.8915 90.7266L45.6185 90.04ZM42.3425 90.04L41.6155 89.3534L41.6051 89.3644L41.5951 89.3756L42.3425 90.04ZM42.3425 94L41.5951 94.6644L41.6051 94.6756L41.6155 94.6866L42.3425 94ZM43.1844 111.688L40.4484 109.492L39.1965 111.052L41.9325 113.248L43.1844 111.688ZM40.5999 110.901L59.9679 86.961L58.413 85.703L39.045 109.643L40.5999 110.901ZM58.5645 87.1119L61.3005 89.3079L62.5524 87.7481L59.8164 85.5521L58.5645 87.1119ZM61.149 87.899L41.781 111.839L43.3359 113.097L62.7039 89.157L61.149 87.899ZM57.7505 111.36C56.1024 111.36 54.9451 110.93 54.1476 110.188L52.7854 111.652C54.0518 112.83 55.7505 113.36 57.7505 113.36V111.36ZM54.1565 110.196C53.3577 109.435 52.9185 108.383 52.9185 106.924H50.9185C50.9185 108.825 51.5112 110.437 52.7764 111.644L54.1565 110.196ZM52.9185 106.924V106.672H50.9185V106.924H52.9185ZM52.9185 106.672C52.9185 105.183 53.3607 104.14 54.1476 103.408L52.7854 101.944C51.5082 103.132 50.9185 104.753 50.9185 106.672H52.9185ZM54.1565 103.4C54.9548 102.639 56.1088 102.2 57.7505 102.2V100.2C55.7441 100.2 54.0422 100.745 52.7764 101.952L54.1565 103.4ZM57.7505 102.2C59.3347 102.2 60.4863 102.634 61.3167 103.408L62.6802 101.944C61.3987 100.75 59.7182 100.2 57.7505 100.2V102.2ZM61.3258 103.416C62.133 104.15 62.5825 105.19 62.5825 106.672H64.5825C64.5825 104.746 63.9759 103.122 62.6711 101.936L61.3258 103.416ZM62.5825 106.672V106.924H64.5825V106.672H62.5825ZM62.5825 106.924C62.5825 108.383 62.1432 109.435 61.3444 110.196L62.7245 111.644C63.9897 110.437 64.5825 108.825 64.5825 106.924H62.5825ZM61.3534 110.188C60.5558 110.93 59.3985 111.36 57.7505 111.36V113.36C59.7504 113.36 61.4491 112.83 62.7156 111.652L61.3534 110.188ZM57.7505 110.408C58.6686 110.408 59.5056 110.113 60.1179 109.424L58.6231 108.096C58.4673 108.271 58.2244 108.408 57.7505 108.408V110.408ZM60.0975 109.447C60.7105 108.798 60.9825 107.973 60.9825 107.068H58.9825C58.9825 107.555 58.8465 107.858 58.6435 108.073L60.0975 109.447ZM60.9825 107.068V106.492H58.9825V107.068H60.9825ZM60.9825 106.492C60.9825 105.587 60.7105 104.762 60.0975 104.113L58.6435 105.487C58.8465 105.702 58.9825 106.005 58.9825 106.492H60.9825ZM60.1179 104.136C59.5056 103.447 58.6686 103.152 57.7505 103.152V105.152C58.2244 105.152 58.4673 105.289 58.6231 105.464L60.1179 104.136ZM57.7505 103.152C56.8306 103.152 55.9969 103.447 55.3675 104.113L56.8215 105.487C57.008 105.289 57.2783 105.152 57.7505 105.152V103.152ZM55.3471 104.136C54.7685 104.786 54.5185 105.604 54.5185 106.492H56.5185C56.5185 105.988 56.6524 105.678 56.8419 105.464L55.3471 104.136ZM54.5185 106.492V107.068H56.5185V106.492H54.5185ZM54.5185 107.068C54.5185 107.956 54.7685 108.774 55.3471 109.424L56.8419 108.096C56.6524 107.882 56.5185 107.572 56.5185 107.068H54.5185ZM55.3675 109.447C55.9969 110.113 56.8306 110.408 57.7505 110.408V108.408C57.2783 108.408 57.008 108.271 56.8215 108.073L55.3675 109.447ZM43.9985 96.6C42.3504 96.6 41.1931 96.1697 40.3956 95.4278L39.0334 96.8922C40.2998 98.0703 41.9985 98.6 43.9985 98.6V96.6ZM40.4045 95.4363C39.6057 94.6746 39.1665 93.6234 39.1665 92.164H37.1665C37.1665 94.0646 37.7592 95.6774 39.0244 96.8837L40.4045 95.4363ZM39.1665 92.164V91.912H37.1665V92.164H39.1665ZM39.1665 91.912C39.1665 90.4231 39.6087 89.3802 40.3956 88.6482L39.0334 87.1838C37.7562 88.3718 37.1665 89.9929 37.1665 91.912H39.1665ZM40.4045 88.6397C41.2028 87.8786 42.3568 87.44 43.9985 87.44V85.44C41.9921 85.44 40.2902 85.9854 39.0244 87.1923L40.4045 88.6397ZM43.9985 87.44C45.5827 87.44 46.7343 87.8737 47.5647 88.6476L48.9282 87.1844C47.6467 85.9903 45.9662 85.44 43.9985 85.44V87.44ZM47.5738 88.6559C48.381 89.3898 48.8305 90.4302 48.8305 91.912H50.8305C50.8305 89.9858 50.2239 88.3622 48.9191 87.1761L47.5738 88.6559ZM48.8305 91.912V92.164H50.8305V91.912H48.8305ZM48.8305 92.164C48.8305 93.6234 48.3912 94.6746 47.5924 95.4363L48.9725 96.8837C50.2377 95.6774 50.8305 94.0646 50.8305 92.164H48.8305ZM47.6014 95.4278C46.8038 96.1697 45.6465 96.6 43.9985 96.6V98.6C45.9984 98.6 47.6971 98.0703 48.9636 96.8922L47.6014 95.4278ZM43.9985 95.648C44.9166 95.648 45.7536 95.3531 46.3659 94.6644L44.8711 93.3356C44.7153 93.5108 44.4724 93.648 43.9985 93.648V95.648ZM46.3455 94.6866C46.9585 94.0376 47.2305 93.2126 47.2305 92.308H45.2305C45.2305 92.7954 45.0945 93.0984 44.8915 93.3134L46.3455 94.6866ZM47.2305 92.308V91.732H45.2305V92.308H47.2305ZM47.2305 91.732C47.2305 90.8274 46.9585 90.0024 46.3455 89.3534L44.8915 90.7266C45.0945 90.9416 45.2305 91.2446 45.2305 91.732H47.2305ZM46.3659 89.3756C45.7536 88.6868 44.9166 88.392 43.9985 88.392V90.392C44.4724 90.392 44.7153 90.5291 44.8711 90.7044L46.3659 89.3756ZM43.9985 88.392C43.0786 88.392 42.2449 88.6869 41.6155 89.3534L43.0695 90.7266C43.256 90.5291 43.5263 90.392 43.9985 90.392V88.392ZM41.5951 89.3756C41.0165 90.0265 40.7665 90.8436 40.7665 91.732H42.7665C42.7665 91.2284 42.9004 90.9175 43.0899 90.7044L41.5951 89.3756ZM40.7665 91.732V92.308H42.7665V91.732H40.7665ZM40.7665 92.308C40.7665 93.1964 41.0165 94.0135 41.5951 94.6644L43.0899 93.3356C42.9004 93.1225 42.7665 92.8116 42.7665 92.308H40.7665ZM41.6155 94.6866C42.2449 95.3531 43.0786 95.648 43.9985 95.648V93.648C43.5263 93.648 43.256 93.5109 43.0695 93.3134L41.6155 94.6866Z"
                            fill="black" />
                        <path
                            d="M10.656 32.504C8.88 32.504 7.308 32.132 5.94 31.388C4.596 30.62 3.54 29.552 2.772 28.184C2.028 26.792 1.656 25.16 1.656 23.288V22.856C1.656 20.984 2.028 19.364 2.772 17.996C3.516 16.604 4.56 15.536 5.904 14.792C7.248 14.024 8.808 13.64 10.584 13.64C12.336 13.64 13.86 14.036 15.156 14.828C16.452 15.596 17.46 16.676 18.18 18.068C18.9 19.436 19.26 21.032 19.26 22.856V24.404H6.264C6.312 25.628 6.768 26.624 7.632 27.392C8.496 28.16 9.552 28.544 10.8 28.544C12.072 28.544 13.008 28.268 13.608 27.716C14.208 27.164 14.664 26.552 14.976 25.88L18.684 27.824C18.348 28.448 17.856 29.132 17.208 29.876C16.584 30.596 15.744 31.22 14.688 31.748C13.632 32.252 12.288 32.504 10.656 32.504ZM6.3 21.02H14.652C14.556 19.988 14.136 19.16 13.392 18.536C12.672 17.912 11.724 17.6 10.548 17.6C9.324 17.6 8.352 17.912 7.632 18.536C6.912 19.16 6.468 19.988 6.3 21.02ZM26.514 32L20.826 14.144H25.65L29.79 28.688H30.438L34.578 14.144H39.402L33.714 32H26.514ZM50.1013 32.504C48.3253 32.504 46.7533 32.132 45.3853 31.388C44.0413 30.62 42.9853 29.552 42.2173 28.184C41.4733 26.792 41.1013 25.16 41.1013 23.288V22.856C41.1013 20.984 41.4733 19.364 42.2173 17.996C42.9613 16.604 44.0053 15.536 45.3493 14.792C46.6933 14.024 48.2533 13.64 50.0293 13.64C51.7813 13.64 53.3053 14.036 54.6013 14.828C55.8973 15.596 56.9053 16.676 57.6253 18.068C58.3453 19.436 58.7053 21.032 58.7053 22.856V24.404H45.7093C45.7573 25.628 46.2133 26.624 47.0773 27.392C47.9413 28.16 48.9973 28.544 50.2453 28.544C51.5173 28.544 52.4533 28.268 53.0533 27.716C53.6533 27.164 54.1093 26.552 54.4213 25.88L58.1293 27.824C57.7933 28.448 57.3013 29.132 56.6533 29.876C56.0293 30.596 55.1893 31.22 54.1333 31.748C53.0773 32.252 51.7333 32.504 50.1013 32.504ZM45.7453 21.02H54.0973C54.0013 19.988 53.5813 19.16 52.8373 18.536C52.1173 17.912 51.1693 17.6 49.9933 17.6C48.7693 17.6 47.7973 17.912 47.0773 18.536C46.3573 19.16 45.9133 19.988 45.7453 21.02ZM62.7427 32V14.144H67.2067V16.484H67.8547C68.1427 15.86 68.6827 15.272 69.4747 14.72C70.2667 14.144 71.4667 13.856 73.0747 13.856C74.4667 13.856 75.6787 14.18 76.7107 14.828C77.7667 15.452 78.5827 16.328 79.1587 17.456C79.7347 18.56 80.0227 19.856 80.0227 21.344V32H75.4867V21.704C75.4867 20.36 75.1507 19.352 74.4787 18.68C73.8307 18.008 72.8947 17.672 71.6707 17.672C70.2787 17.672 69.1987 18.14 68.4307 19.076C67.6627 19.988 67.2787 21.272 67.2787 22.928V32H62.7427ZM100.907 32C99.7309 32 98.7709 31.64 98.0269 30.92C97.3069 30.176 96.9469 29.192 96.9469 27.968V17.888H92.4829V14.144H96.9469V8.6H101.483V14.144H106.379V17.888H101.483V27.176C101.483 27.896 101.819 28.256 102.491 28.256H105.947V32H100.907ZM110.485 32V6.8H115.021V16.34H115.669C115.861 15.956 116.161 15.572 116.569 15.188C116.977 14.804 117.517 14.492 118.189 14.252C118.885 13.988 119.761 13.856 120.817 13.856C122.209 13.856 123.421 14.18 124.453 14.828C125.509 15.452 126.325 16.328 126.901 17.456C127.477 18.56 127.765 19.856 127.765 21.344V32H123.229V21.704C123.229 20.36 122.893 19.352 122.221 18.68C121.573 18.008 120.637 17.672 119.413 17.672C118.021 17.672 116.941 18.14 116.173 19.076C115.405 19.988 115.021 21.272 115.021 22.928V32H110.485ZM132.668 32V14.144H137.132V16.16H137.78C138.044 15.44 138.476 14.912 139.076 14.576C139.7 14.24 140.42 14.072 141.236 14.072H143.396V18.104H141.164C140.012 18.104 139.064 18.416 138.32 19.04C137.576 19.64 137.204 20.576 137.204 21.848V32H132.668ZM154.805 32.504C153.029 32.504 151.433 32.144 150.017 31.424C148.601 30.704 147.485 29.66 146.669 28.292C145.853 26.924 145.445 25.28 145.445 23.36V22.784C145.445 20.864 145.853 19.22 146.669 17.852C147.485 16.484 148.601 15.44 150.017 14.72C151.433 14 153.029 13.64 154.805 13.64C156.581 13.64 158.177 14 159.593 14.72C161.009 15.44 162.125 16.484 162.941 17.852C163.757 19.22 164.165 20.864 164.165 22.784V23.36C164.165 25.28 163.757 26.924 162.941 28.292C162.125 29.66 161.009 30.704 159.593 31.424C158.177 32.144 156.581 32.504 154.805 32.504ZM154.805 28.472C156.197 28.472 157.349 28.028 158.261 27.14C159.173 26.228 159.629 24.932 159.629 23.252V22.892C159.629 21.212 159.173 19.928 158.261 19.04C157.373 18.128 156.221 17.672 154.805 17.672C153.413 17.672 152.261 18.128 151.349 19.04C150.437 19.928 149.981 21.212 149.981 22.892V23.252C149.981 24.932 150.437 26.228 151.349 27.14C152.261 28.028 153.413 28.472 154.805 28.472ZM175.156 32.288C173.764 32.288 172.54 31.976 171.484 31.352C170.452 30.704 169.648 29.816 169.072 28.688C168.496 27.56 168.208 26.264 168.208 24.8V14.144H172.744V24.44C172.744 25.784 173.068 26.792 173.716 27.464C174.388 28.136 175.336 28.472 176.56 28.472C177.952 28.472 179.032 28.016 179.8 27.104C180.568 26.168 180.952 24.872 180.952 23.216V14.144H185.488V32H181.024V29.66H180.376C180.088 30.26 179.548 30.848 178.756 31.424C177.964 32 176.764 32.288 175.156 32.288ZM189.672 23.144V22.568C189.672 20.696 190.044 19.1 190.788 17.78C191.532 16.436 192.516 15.416 193.74 14.72C194.988 14 196.344 13.64 197.808 13.64C199.44 13.64 200.676 13.928 201.516 14.504C202.356 15.08 202.968 15.68 203.352 16.304H204V14.144H208.464V35.168C208.464 36.392 208.104 37.364 207.384 38.084C206.664 38.828 205.704 39.2 204.504 39.2H192.552V35.24H202.92C203.592 35.24 203.928 34.88 203.928 34.16V29.516H203.28C203.04 29.9 202.704 30.296 202.272 30.704C201.84 31.088 201.264 31.412 200.544 31.676C199.824 31.94 198.912 32.072 197.808 32.072C196.344 32.072 194.988 31.724 193.74 31.028C192.516 30.308 191.532 29.288 190.788 27.968C190.044 26.624 189.672 25.016 189.672 23.144ZM199.104 28.112C200.496 28.112 201.66 27.668 202.596 26.78C203.532 25.892 204 24.644 204 23.036V22.676C204 21.044 203.532 19.796 202.596 18.932C201.684 18.044 200.52 17.6 199.104 17.6C197.712 17.6 196.548 18.044 195.612 18.932C194.676 19.796 194.208 21.044 194.208 22.676V23.036C194.208 24.644 194.676 25.892 195.612 26.78C196.548 27.668 197.712 28.112 199.104 28.112ZM213.493 32V6.8H218.029V16.34H218.677C218.869 15.956 219.169 15.572 219.577 15.188C219.985 14.804 220.525 14.492 221.197 14.252C221.893 13.988 222.769 13.856 223.825 13.856C225.217 13.856 226.429 14.18 227.461 14.828C228.517 15.452 229.333 16.328 229.909 17.456C230.485 18.56 230.773 19.856 230.773 21.344V32H226.237V21.704C226.237 20.36 225.901 19.352 225.229 18.68C224.581 18.008 223.645 17.672 222.421 17.672C221.029 17.672 219.949 18.14 219.181 19.076C218.413 19.988 218.029 21.272 218.029 22.928V32H213.493ZM3.96 72L1.44 54.144H5.94L7.524 68.94H8.172L10.476 54.144H17.748L20.052 68.94H20.7L22.284 54.144H26.784L24.264 72H16.74L14.436 57.204H13.788L11.484 72H3.96ZM39.1762 72.504C37.4002 72.504 35.8042 72.144 34.3882 71.424C32.9722 70.704 31.8562 69.66 31.0402 68.292C30.2242 66.924 29.8162 65.28 29.8162 63.36V62.784C29.8162 60.864 30.2242 59.22 31.0402 57.852C31.8562 56.484 32.9722 55.44 34.3882 54.72C35.8042 54 37.4002 53.64 39.1762 53.64C40.9522 53.64 42.5482 54 43.9642 54.72C45.3802 55.44 46.4962 56.484 47.3122 57.852C48.1282 59.22 48.5362 60.864 48.5362 62.784V63.36C48.5362 65.28 48.1282 66.924 47.3122 68.292C46.4962 69.66 45.3802 70.704 43.9642 71.424C42.5482 72.144 40.9522 72.504 39.1762 72.504ZM39.1762 68.472C40.5682 68.472 41.7202 68.028 42.6322 67.14C43.5442 66.228 44.0002 64.932 44.0002 63.252V62.892C44.0002 61.212 43.5442 59.928 42.6322 59.04C41.7442 58.128 40.5922 57.672 39.1762 57.672C37.7842 57.672 36.6322 58.128 35.7202 59.04C34.8082 59.928 34.3522 61.212 34.3522 62.892V63.252C34.3522 64.932 34.8082 66.228 35.7202 67.14C36.6322 68.028 37.7842 68.472 39.1762 68.472ZM52.7231 72V54.144H57.1871V56.088H57.8351C58.1471 55.488 58.6631 54.972 59.3831 54.54C60.1031 54.084 61.0511 53.856 62.2271 53.856C63.4991 53.856 64.5191 54.108 65.2871 54.612C66.0551 55.092 66.6431 55.728 67.0511 56.52H67.6991C68.1071 55.752 68.6831 55.116 69.4271 54.612C70.1711 54.108 71.2271 53.856 72.5951 53.856C73.6991 53.856 74.6951 54.096 75.5831 54.576C76.4951 55.032 77.2151 55.74 77.7431 56.7C78.2951 57.636 78.5711 58.824 78.5711 60.264V72H74.0351V60.588C74.0351 59.604 73.7831 58.872 73.2791 58.392C72.7751 57.888 72.0671 57.636 71.1551 57.636C70.1231 57.636 69.3191 57.972 68.7431 58.644C68.1911 59.292 67.9151 60.228 67.9151 61.452V72H63.3791V60.588C63.3791 59.604 63.1271 58.872 62.6231 58.392C62.1191 57.888 61.4111 57.636 60.4991 57.636C59.4671 57.636 58.6631 57.972 58.0871 58.644C57.5351 59.292 57.2591 60.228 57.2591 61.452V72H52.7231ZM91.5857 72.504C89.8097 72.504 88.2377 72.132 86.8697 71.388C85.5257 70.62 84.4697 69.552 83.7017 68.184C82.9577 66.792 82.5857 65.16 82.5857 63.288V62.856C82.5857 60.984 82.9577 59.364 83.7017 57.996C84.4457 56.604 85.4897 55.536 86.8337 54.792C88.1777 54.024 89.7377 53.64 91.5137 53.64C93.2657 53.64 94.7897 54.036 96.0857 54.828C97.3817 55.596 98.3897 56.676 99.1097 58.068C99.8297 59.436 100.19 61.032 100.19 62.856V64.404H87.1937C87.2417 65.628 87.6977 66.624 88.5617 67.392C89.4257 68.16 90.4817 68.544 91.7297 68.544C93.0017 68.544 93.9377 68.268 94.5377 67.716C95.1377 67.164 95.5937 66.552 95.9057 65.88L99.6137 67.824C99.2777 68.448 98.7857 69.132 98.1377 69.876C97.5137 70.596 96.6737 71.22 95.6177 71.748C94.5617 72.252 93.2177 72.504 91.5857 72.504ZM87.2297 61.02H95.5817C95.4857 59.988 95.0657 59.16 94.3217 58.536C93.6017 57.912 92.6537 57.6 91.4777 57.6C90.2537 57.6 89.2817 57.912 88.5617 58.536C87.8417 59.16 87.3977 59.988 87.2297 61.02ZM104.227 72V54.144H108.691V56.484H109.339C109.627 55.86 110.167 55.272 110.959 54.72C111.751 54.144 112.951 53.856 114.559 53.856C115.951 53.856 117.163 54.18 118.195 54.828C119.251 55.452 120.067 56.328 120.643 57.456C121.219 58.56 121.507 59.856 121.507 61.344V72H116.971V61.704C116.971 60.36 116.635 59.352 115.963 58.68C115.315 58.008 114.379 57.672 113.155 57.672C111.763 57.672 110.683 58.14 109.915 59.076C109.147 59.988 108.763 61.272 108.763 62.928V72H104.227ZM141.095 72.504C139.823 72.504 138.683 72.288 137.675 71.856C136.667 71.4 135.863 70.752 135.263 69.912C134.687 69.048 134.399 68.004 134.399 66.78C134.399 65.556 134.687 64.536 135.263 63.72C135.863 62.88 136.679 62.256 137.711 61.848C138.767 61.416 139.967 61.2 141.311 61.2H146.207V60.192C146.207 59.352 145.943 58.668 145.415 58.14C144.887 57.588 144.047 57.312 142.895 57.312C141.767 57.312 140.927 57.576 140.375 58.104C139.823 58.608 139.463 59.268 139.295 60.084L135.119 58.68C135.407 57.768 135.863 56.94 136.487 56.196C137.135 55.428 137.987 54.816 139.043 54.36C140.123 53.88 141.431 53.64 142.967 53.64C145.319 53.64 147.179 54.228 148.547 55.404C149.915 56.58 150.599 58.284 150.599 60.516V67.176C150.599 67.896 150.935 68.256 151.607 68.256H153.047V72H150.023C149.135 72 148.403 71.784 147.827 71.352C147.251 70.92 146.963 70.344 146.963 69.624V69.588H146.279C146.183 69.876 145.967 70.26 145.631 70.74C145.295 71.196 144.767 71.604 144.047 71.964C143.327 72.324 142.343 72.504 141.095 72.504ZM141.887 68.832C143.159 68.832 144.191 68.484 144.983 67.788C145.799 67.068 146.207 66.12 146.207 64.944V64.584H141.635C140.795 64.584 140.135 64.764 139.655 65.124C139.175 65.484 138.935 65.988 138.935 66.636C138.935 67.284 139.187 67.812 139.691 68.22C140.195 68.628 140.927 68.832 141.887 68.832ZM156.364 72V54.144H160.828V56.16H161.476C161.74 55.44 162.172 54.912 162.772 54.576C163.396 54.24 164.116 54.072 164.932 54.072H167.092V58.104H164.86C163.708 58.104 162.76 58.416 162.016 59.04C161.272 59.64 160.9 60.576 160.9 61.848V72H156.364ZM178.14 72.504C176.364 72.504 174.792 72.132 173.424 71.388C172.08 70.62 171.024 69.552 170.256 68.184C169.512 66.792 169.14 65.16 169.14 63.288V62.856C169.14 60.984 169.512 59.364 170.256 57.996C171 56.604 172.044 55.536 173.388 54.792C174.732 54.024 176.292 53.64 178.068 53.64C179.82 53.64 181.344 54.036 182.64 54.828C183.936 55.596 184.944 56.676 185.664 58.068C186.384 59.436 186.744 61.032 186.744 62.856V64.404H173.748C173.796 65.628 174.252 66.624 175.116 67.392C175.98 68.16 177.036 68.544 178.284 68.544C179.556 68.544 180.492 68.268 181.092 67.716C181.692 67.164 182.148 66.552 182.46 65.88L186.168 67.824C185.832 68.448 185.34 69.132 184.692 69.876C184.068 70.596 183.228 71.22 182.172 71.748C181.116 72.252 179.772 72.504 178.14 72.504ZM173.784 61.02H182.136C182.04 59.988 181.62 59.16 180.876 58.536C180.156 57.912 179.208 57.6 178.032 57.6C176.808 57.6 175.836 57.912 175.116 58.536C174.396 59.16 173.952 59.988 173.784 61.02ZM84.6683 112.504C82.8923 112.504 81.2963 112.144 79.8803 111.424C78.4643 110.704 77.3483 109.66 76.5323 108.292C75.7163 106.924 75.3083 105.28 75.3083 103.36V102.784C75.3083 100.864 75.7163 99.22 76.5323 97.852C77.3483 96.484 78.4643 95.44 79.8803 94.72C81.2963 94 82.8923 93.64 84.6683 93.64C86.4443 93.64 88.0403 94 89.4563 94.72C90.8723 95.44 91.9883 96.484 92.8043 97.852C93.6203 99.22 94.0283 100.864 94.0283 102.784V103.36C94.0283 105.28 93.6203 106.924 92.8043 108.292C91.9883 109.66 90.8723 110.704 89.4563 111.424C88.0403 112.144 86.4443 112.504 84.6683 112.504ZM84.6683 108.472C86.0603 108.472 87.2123 108.028 88.1243 107.14C89.0363 106.228 89.4923 104.932 89.4923 103.252V102.892C89.4923 101.212 89.0363 99.928 88.1243 99.04C87.2363 98.128 86.0843 97.672 84.6683 97.672C83.2763 97.672 82.1243 98.128 81.2123 99.04C80.3003 99.928 79.8443 101.212 79.8443 102.892V103.252C79.8443 104.932 80.3003 106.228 81.2123 107.14C82.1243 108.028 83.2763 108.472 84.6683 108.472ZM100.57 112V97.888H96.0337V94.144H100.57V90.832C100.57 89.608 100.93 88.636 101.65 87.916C102.394 87.172 103.354 86.8 104.53 86.8H109.21V90.544H106.114C105.442 90.544 105.106 90.904 105.106 91.624V94.144H109.786V97.888H105.106V112H100.57ZM129.278 112C128.102 112 127.142 111.64 126.398 110.92C125.678 110.176 125.318 109.192 125.318 107.968V97.888H120.854V94.144H125.318V88.6H129.854V94.144H134.75V97.888H129.854V107.176C129.854 107.896 130.19 108.256 130.862 108.256H134.318V112H129.278ZM138.856 112V86.8H143.392V96.34H144.04C144.232 95.956 144.532 95.572 144.94 95.188C145.348 94.804 145.888 94.492 146.56 94.252C147.256 93.988 148.132 93.856 149.188 93.856C150.58 93.856 151.792 94.18 152.824 94.828C153.88 95.452 154.696 96.328 155.272 97.456C155.848 98.56 156.136 99.856 156.136 101.344V112H151.6V101.704C151.6 100.36 151.264 99.352 150.592 98.68C149.944 98.008 149.008 97.672 147.784 97.672C146.392 97.672 145.312 98.14 144.544 99.076C143.776 99.988 143.392 101.272 143.392 102.928V112H138.856ZM169.176 112.504C167.4 112.504 165.828 112.132 164.46 111.388C163.116 110.62 162.06 109.552 161.292 108.184C160.548 106.792 160.176 105.16 160.176 103.288V102.856C160.176 100.984 160.548 99.364 161.292 97.996C162.036 96.604 163.08 95.536 164.424 94.792C165.768 94.024 167.328 93.64 169.104 93.64C170.856 93.64 172.38 94.036 173.676 94.828C174.972 95.596 175.98 96.676 176.7 98.068C177.42 99.436 177.78 101.032 177.78 102.856V104.404H164.784C164.832 105.628 165.288 106.624 166.152 107.392C167.016 108.16 168.072 108.544 169.32 108.544C170.592 108.544 171.528 108.268 172.128 107.716C172.728 107.164 173.184 106.552 173.496 105.88L177.204 107.824C176.868 108.448 176.376 109.132 175.728 109.876C175.104 110.596 174.264 111.22 173.208 111.748C172.152 112.252 170.808 112.504 169.176 112.504ZM164.82 101.02H173.172C173.076 99.988 172.656 99.16 171.912 98.536C171.192 97.912 170.244 97.6 169.068 97.6C167.844 97.6 166.872 97.912 166.152 98.536C165.432 99.16 164.988 99.988 164.82 101.02ZM2.376 152V126.8H18.576V131.12H7.128V137.132H17.568V141.452H7.128V147.68H18.792V152H2.376ZM29.2576 152.288C27.8656 152.288 26.6416 151.976 25.5856 151.352C24.5536 150.704 23.7496 149.816 23.1736 148.688C22.5976 147.56 22.3096 146.264 22.3096 144.8V134.144H26.8456V144.44C26.8456 145.784 27.1696 146.792 27.8176 147.464C28.4896 148.136 29.4376 148.472 30.6616 148.472C32.0536 148.472 33.1336 148.016 33.9016 147.104C34.6696 146.168 35.0536 144.872 35.0536 143.216V134.144H39.5896V152H35.1256V149.66H34.4776C34.1896 150.26 33.6496 150.848 32.8576 151.424C32.0656 152 30.8656 152.288 29.2576 152.288ZM44.6372 152V134.144H49.1012V136.16H49.7492C50.0132 135.44 50.4452 134.912 51.0452 134.576C51.6692 134.24 52.3892 134.072 53.2052 134.072H55.3652V138.104H53.1332C51.9812 138.104 51.0332 138.416 50.2892 139.04C49.5452 139.64 49.1732 140.576 49.1732 141.848V152H44.6372ZM66.7738 152.504C64.9978 152.504 63.4018 152.144 61.9858 151.424C60.5698 150.704 59.4538 149.66 58.6378 148.292C57.8218 146.924 57.4138 145.28 57.4138 143.36V142.784C57.4138 140.864 57.8218 139.22 58.6378 137.852C59.4538 136.484 60.5698 135.44 61.9858 134.72C63.4018 134 64.9978 133.64 66.7738 133.64C68.5498 133.64 70.1458 134 71.5618 134.72C72.9778 135.44 74.0938 136.484 74.9098 137.852C75.7258 139.22 76.1338 140.864 76.1338 142.784V143.36C76.1338 145.28 75.7258 146.924 74.9098 148.292C74.0938 149.66 72.9778 150.704 71.5618 151.424C70.1458 152.144 68.5498 152.504 66.7738 152.504ZM66.7738 148.472C68.1658 148.472 69.3178 148.028 70.2298 147.14C71.1418 146.228 71.5978 144.932 71.5978 143.252V142.892C71.5978 141.212 71.1418 139.928 70.2298 139.04C69.3418 138.128 68.1898 137.672 66.7738 137.672C65.3818 137.672 64.2298 138.128 63.3178 139.04C62.4058 139.928 61.9498 141.212 61.9498 142.892V143.252C61.9498 144.932 62.4058 146.228 63.3178 147.14C64.2298 148.028 65.3818 148.472 66.7738 148.472ZM80.3208 159.2V134.144H84.7848V136.304H85.4328C85.8408 135.608 86.4768 134.996 87.3408 134.468C88.2048 133.916 89.4408 133.64 91.0488 133.64C92.4888 133.64 93.8208 134 95.0448 134.72C96.2688 135.416 97.2528 136.448 97.9968 137.816C98.7408 139.184 99.1128 140.84 99.1128 142.784V143.36C99.1128 145.304 98.7408 146.96 97.9968 148.328C97.2528 149.696 96.2688 150.74 95.0448 151.46C93.8208 152.156 92.4888 152.504 91.0488 152.504C89.9688 152.504 89.0568 152.372 88.3128 152.108C87.5928 151.868 87.0048 151.556 86.5488 151.172C86.1168 150.764 85.7688 150.356 85.5048 149.948H84.8568V159.2H80.3208ZM89.6808 148.544C91.0968 148.544 92.2608 148.1 93.1728 147.212C94.1088 146.3 94.5768 144.98 94.5768 143.252V142.892C94.5768 141.164 94.1088 139.856 93.1728 138.968C92.2368 138.056 91.0728 137.6 89.6808 137.6C88.2888 137.6 87.1248 138.056 86.1888 138.968C85.2528 139.856 84.7848 141.164 84.7848 142.892V143.252C84.7848 144.98 85.2528 146.3 86.1888 147.212C87.1248 148.1 88.2888 148.544 89.6808 148.544ZM111.414 152.504C109.638 152.504 108.066 152.132 106.698 151.388C105.354 150.62 104.298 149.552 103.53 148.184C102.786 146.792 102.414 145.16 102.414 143.288V142.856C102.414 140.984 102.786 139.364 103.53 137.996C104.274 136.604 105.318 135.536 106.662 134.792C108.006 134.024 109.566 133.64 111.342 133.64C113.094 133.64 114.618 134.036 115.914 134.828C117.21 135.596 118.218 136.676 118.938 138.068C119.658 139.436 120.018 141.032 120.018 142.856V144.404H107.022C107.07 145.628 107.526 146.624 108.39 147.392C109.254 148.16 110.31 148.544 111.558 148.544C112.83 148.544 113.766 148.268 114.366 147.716C114.966 147.164 115.422 146.552 115.734 145.88L119.442 147.824C119.106 148.448 118.614 149.132 117.966 149.876C117.342 150.596 116.502 151.22 115.446 151.748C114.39 152.252 113.046 152.504 111.414 152.504ZM107.058 141.02H115.41C115.314 139.988 114.894 139.16 114.15 138.536C113.43 137.912 112.482 137.6 111.306 137.6C110.082 137.6 109.11 137.912 108.39 138.536C107.67 139.16 107.226 139.988 107.058 141.02ZM129.599 152.504C128.327 152.504 127.187 152.288 126.179 151.856C125.171 151.4 124.367 150.752 123.767 149.912C123.191 149.048 122.903 148.004 122.903 146.78C122.903 145.556 123.191 144.536 123.767 143.72C124.367 142.88 125.183 142.256 126.215 141.848C127.271 141.416 128.471 141.2 129.815 141.2H134.711V140.192C134.711 139.352 134.447 138.668 133.919 138.14C133.391 137.588 132.551 137.312 131.399 137.312C130.271 137.312 129.431 137.576 128.879 138.104C128.327 138.608 127.967 139.268 127.799 140.084L123.623 138.68C123.911 137.768 124.367 136.94 124.991 136.196C125.639 135.428 126.491 134.816 127.547 134.36C128.627 133.88 129.935 133.64 131.471 133.64C133.823 133.64 135.683 134.228 137.051 135.404C138.419 136.58 139.103 138.284 139.103 140.516V147.176C139.103 147.896 139.439 148.256 140.111 148.256H141.551V152H138.527C137.639 152 136.907 151.784 136.331 151.352C135.755 150.92 135.467 150.344 135.467 149.624V149.588H134.783C134.687 149.876 134.471 150.26 134.135 150.74C133.799 151.196 133.271 151.604 132.551 151.964C131.831 152.324 130.847 152.504 129.599 152.504ZM130.391 148.832C131.663 148.832 132.695 148.484 133.487 147.788C134.303 147.068 134.711 146.12 134.711 144.944V144.584H130.139C129.299 144.584 128.639 144.764 128.159 145.124C127.679 145.484 127.439 145.988 127.439 146.636C127.439 147.284 127.691 147.812 128.195 148.22C128.699 148.628 129.431 148.832 130.391 148.832ZM144.868 152V134.144H149.332V136.484H149.98C150.268 135.86 150.808 135.272 151.6 134.72C152.392 134.144 153.592 133.856 155.2 133.856C156.592 133.856 157.804 134.18 158.836 134.828C159.892 135.452 160.708 136.328 161.284 137.456C161.86 138.56 162.148 139.856 162.148 141.344V152H157.612V141.704C157.612 140.36 157.276 139.352 156.604 138.68C155.956 138.008 155.02 137.672 153.796 137.672C152.404 137.672 151.324 138.14 150.556 139.076C149.788 139.988 149.404 141.272 149.404 142.928V152H144.868ZM2.52 199.2V174.144H6.984V176.304H7.632C8.04 175.608 8.676 174.996 9.54 174.468C10.404 173.916 11.64 173.64 13.248 173.64C14.688 173.64 16.02 174 17.244 174.72C18.468 175.416 19.452 176.448 20.196 177.816C20.94 179.184 21.312 180.84 21.312 182.784V183.36C21.312 185.304 20.94 186.96 20.196 188.328C19.452 189.696 18.468 190.74 17.244 191.46C16.02 192.156 14.688 192.504 13.248 192.504C12.168 192.504 11.256 192.372 10.512 192.108C9.792 191.868 9.204 191.556 8.748 191.172C8.316 190.764 7.968 190.356 7.704 189.948H7.056V199.2H2.52ZM11.88 188.544C13.296 188.544 14.46 188.1 15.372 187.212C16.308 186.3 16.776 184.98 16.776 183.252V182.892C16.776 181.164 16.308 179.856 15.372 178.968C14.436 178.056 13.272 177.6 11.88 177.6C10.488 177.6 9.324 178.056 8.388 178.968C7.452 179.856 6.984 181.164 6.984 182.892V183.252C6.984 184.98 7.452 186.3 8.388 187.212C9.324 188.1 10.488 188.544 11.88 188.544ZM33.973 192.504C32.197 192.504 30.601 192.144 29.185 191.424C27.769 190.704 26.653 189.66 25.837 188.292C25.021 186.924 24.613 185.28 24.613 183.36V182.784C24.613 180.864 25.021 179.22 25.837 177.852C26.653 176.484 27.769 175.44 29.185 174.72C30.601 174 32.197 173.64 33.973 173.64C35.749 173.64 37.345 174 38.761 174.72C40.177 175.44 41.293 176.484 42.109 177.852C42.925 179.22 43.333 180.864 43.333 182.784V183.36C43.333 185.28 42.925 186.924 42.109 188.292C41.293 189.66 40.177 190.704 38.761 191.424C37.345 192.144 35.749 192.504 33.973 192.504ZM33.973 188.472C35.365 188.472 36.517 188.028 37.429 187.14C38.341 186.228 38.797 184.932 38.797 183.252V182.892C38.797 181.212 38.341 179.928 37.429 179.04C36.541 178.128 35.389 177.672 33.973 177.672C32.581 177.672 31.429 178.128 30.517 179.04C29.605 179.928 29.149 181.212 29.149 182.892V183.252C29.149 184.932 29.605 186.228 30.517 187.14C31.429 188.028 32.581 188.472 33.973 188.472ZM47.52 199.2V174.144H51.984V176.304H52.632C53.04 175.608 53.676 174.996 54.54 174.468C55.404 173.916 56.64 173.64 58.248 173.64C59.688 173.64 61.02 174 62.244 174.72C63.468 175.416 64.452 176.448 65.196 177.816C65.94 179.184 66.312 180.84 66.312 182.784V183.36C66.312 185.304 65.94 186.96 65.196 188.328C64.452 189.696 63.468 190.74 62.244 191.46C61.02 192.156 59.688 192.504 58.248 192.504C57.168 192.504 56.256 192.372 55.512 192.108C54.792 191.868 54.204 191.556 53.748 191.172C53.316 190.764 52.968 190.356 52.704 189.948H52.056V199.2H47.52ZM56.88 188.544C58.296 188.544 59.46 188.1 60.372 187.212C61.308 186.3 61.776 184.98 61.776 183.252V182.892C61.776 181.164 61.308 179.856 60.372 178.968C59.436 178.056 58.272 177.6 56.88 177.6C55.488 177.6 54.324 178.056 53.388 178.968C52.452 179.856 51.984 181.164 51.984 182.892V183.252C51.984 184.98 52.452 186.3 53.388 187.212C54.324 188.1 55.488 188.544 56.88 188.544ZM77.281 192.288C75.889 192.288 74.665 191.976 73.609 191.352C72.577 190.704 71.773 189.816 71.197 188.688C70.621 187.56 70.333 186.264 70.333 184.8V174.144H74.869V184.44C74.869 185.784 75.193 186.792 75.841 187.464C76.513 188.136 77.461 188.472 78.685 188.472C80.077 188.472 81.157 188.016 81.925 187.104C82.693 186.168 83.077 184.872 83.077 183.216V174.144H87.613V192H83.149V189.66H82.501C82.213 190.26 81.673 190.848 80.881 191.424C80.089 192 78.889 192.288 77.281 192.288ZM92.6606 192V166.8H97.1966V192H92.6606ZM107.767 192.504C106.495 192.504 105.355 192.288 104.347 191.856C103.339 191.4 102.535 190.752 101.935 189.912C101.359 189.048 101.071 188.004 101.071 186.78C101.071 185.556 101.359 184.536 101.935 183.72C102.535 182.88 103.351 182.256 104.383 181.848C105.439 181.416 106.639 181.2 107.983 181.2H112.879V180.192C112.879 179.352 112.615 178.668 112.087 178.14C111.559 177.588 110.719 177.312 109.567 177.312C108.439 177.312 107.599 177.576 107.047 178.104C106.495 178.608 106.135 179.268 105.967 180.084L101.791 178.68C102.079 177.768 102.535 176.94 103.159 176.196C103.807 175.428 104.659 174.816 105.715 174.36C106.795 173.88 108.103 173.64 109.639 173.64C111.991 173.64 113.851 174.228 115.219 175.404C116.587 176.58 117.271 178.284 117.271 180.516V187.176C117.271 187.896 117.607 188.256 118.279 188.256H119.719V192H116.695C115.807 192 115.075 191.784 114.499 191.352C113.923 190.92 113.635 190.344 113.635 189.624V189.588H112.951C112.855 189.876 112.639 190.26 112.303 190.74C111.967 191.196 111.439 191.604 110.719 191.964C109.999 192.324 109.015 192.504 107.767 192.504ZM108.559 188.832C109.831 188.832 110.863 188.484 111.655 187.788C112.471 187.068 112.879 186.12 112.879 184.944V184.584H108.307C107.467 184.584 106.807 184.764 106.327 185.124C105.847 185.484 105.607 185.988 105.607 186.636C105.607 187.284 105.859 187.812 106.363 188.22C106.867 188.628 107.599 188.832 108.559 188.832ZM128.575 192C127.399 192 126.439 191.64 125.695 190.92C124.975 190.176 124.615 189.192 124.615 187.968V177.888H120.151V174.144H124.615V168.6H129.151V174.144H134.047V177.888H129.151V187.176C129.151 187.896 129.487 188.256 130.159 188.256H133.615V192H128.575ZM138.153 192V174.144H142.689V192H138.153ZM140.421 172.056C139.605 172.056 138.909 171.792 138.333 171.264C137.781 170.736 137.505 170.04 137.505 169.176C137.505 168.312 137.781 167.616 138.333 167.088C138.909 166.56 139.605 166.296 140.421 166.296C141.261 166.296 141.957 166.56 142.509 167.088C143.061 167.616 143.337 168.312 143.337 169.176C143.337 170.04 143.061 170.736 142.509 171.264C141.957 171.792 141.261 172.056 140.421 172.056ZM156.211 192.504C154.435 192.504 152.839 192.144 151.423 191.424C150.007 190.704 148.891 189.66 148.075 188.292C147.259 186.924 146.851 185.28 146.851 183.36V182.784C146.851 180.864 147.259 179.22 148.075 177.852C148.891 176.484 150.007 175.44 151.423 174.72C152.839 174 154.435 173.64 156.211 173.64C157.987 173.64 159.583 174 160.999 174.72C162.415 175.44 163.531 176.484 164.347 177.852C165.163 179.22 165.571 180.864 165.571 182.784V183.36C165.571 185.28 165.163 186.924 164.347 188.292C163.531 189.66 162.415 190.704 160.999 191.424C159.583 192.144 157.987 192.504 156.211 192.504ZM156.211 188.472C157.603 188.472 158.755 188.028 159.667 187.14C160.579 186.228 161.035 184.932 161.035 183.252V182.892C161.035 181.212 160.579 179.928 159.667 179.04C158.779 178.128 157.627 177.672 156.211 177.672C154.819 177.672 153.667 178.128 152.755 179.04C151.843 179.928 151.387 181.212 151.387 182.892V183.252C151.387 184.932 151.843 186.228 152.755 187.14C153.667 188.028 154.819 188.472 156.211 188.472ZM169.758 192V174.144H174.222V176.484H174.87C175.158 175.86 175.698 175.272 176.49 174.72C177.282 174.144 178.482 173.856 180.09 173.856C181.482 173.856 182.694 174.18 183.726 174.828C184.782 175.452 185.598 176.328 186.174 177.456C186.75 178.56 187.038 179.856 187.038 181.344V192H182.502V181.704C182.502 180.36 182.166 179.352 181.494 178.68C180.846 178.008 179.91 177.672 178.686 177.672C177.294 177.672 176.214 178.14 175.446 179.076C174.678 179.988 174.294 181.272 174.294 182.928V192H169.758Z"
                            fill="black" />
                        <path
                            d="M10.908 112.504C8.94 112.504 7.236 112.156 5.796 111.46C4.38 110.764 3.288 109.78 2.52 108.508C1.752 107.236 1.368 105.76 1.368 104.08V103.72H6.048V104.044C6.048 105.244 6.444 106.276 7.236 107.14C8.052 107.98 9.252 108.4 10.836 108.4C12.42 108.4 13.632 107.98 14.472 107.14C15.336 106.276 15.768 105.16 15.768 103.792V103.432C15.768 102.088 15.336 101.02 14.472 100.228C13.632 99.436 12.576 99.04 11.304 99.04C10.608 99.04 10.032 99.136 9.576 99.328C9.12 99.52 8.748 99.76 8.46 100.048C8.172 100.336 7.932 100.624 7.74 100.912H2.16V86.8H19.368V90.976H6.768V97.132H7.416C7.656 96.82 7.98 96.52 8.388 96.232C8.796 95.944 9.324 95.704 9.972 95.512C10.62 95.32 11.388 95.224 12.276 95.224C13.764 95.224 15.12 95.536 16.344 96.16C17.568 96.784 18.54 97.708 19.26 98.932C20.004 100.132 20.376 101.62 20.376 103.396V103.828C20.376 105.604 19.992 107.14 19.224 108.436C18.48 109.732 17.4 110.74 15.984 111.46C14.568 112.156 12.876 112.504 10.908 112.504ZM30.2411 112V90.184H29.5931L26.2091 98.176H21.3851L26.5331 86.8H34.8491V112H30.2411ZM42.5585 112.468L39.8225 110.272L59.1905 86.332L61.9265 88.528L42.5585 112.468ZM57.7505 112.36C55.9265 112.36 54.4985 111.88 53.4665 110.92C52.4345 109.936 51.9185 108.604 51.9185 106.924V106.672C51.9185 104.968 52.4345 103.636 53.4665 102.676C54.4985 101.692 55.9265 101.2 57.7505 101.2C59.5265 101.2 60.9425 101.692 61.9985 102.676C63.0545 103.636 63.5825 104.968 63.5825 106.672V106.924C63.5825 108.604 63.0665 109.936 62.0345 110.92C61.0025 111.88 59.5745 112.36 57.7505 112.36ZM57.7505 109.408C58.4465 109.408 58.9865 109.192 59.3705 108.76C59.7785 108.328 59.9825 107.764 59.9825 107.068V106.492C59.9825 105.796 59.7785 105.232 59.3705 104.8C58.9865 104.368 58.4465 104.152 57.7505 104.152C57.0545 104.152 56.5025 104.368 56.0945 104.8C55.7105 105.232 55.5185 105.796 55.5185 106.492V107.068C55.5185 107.764 55.7105 108.328 56.0945 108.76C56.5025 109.192 57.0545 109.408 57.7505 109.408ZM43.9985 97.6C42.1745 97.6 40.7465 97.12 39.7145 96.16C38.6825 95.176 38.1665 93.844 38.1665 92.164V91.912C38.1665 90.208 38.6825 88.876 39.7145 87.916C40.7465 86.932 42.1745 86.44 43.9985 86.44C45.7745 86.44 47.1905 86.932 48.2465 87.916C49.3025 88.876 49.8305 90.208 49.8305 91.912V92.164C49.8305 93.844 49.3145 95.176 48.2825 96.16C47.2505 97.12 45.8225 97.6 43.9985 97.6ZM43.9985 94.648C44.6945 94.648 45.2345 94.432 45.6185 94C46.0265 93.568 46.2305 93.004 46.2305 92.308V91.732C46.2305 91.036 46.0265 90.472 45.6185 90.04C45.2345 89.608 44.6945 89.392 43.9985 89.392C43.3025 89.392 42.7505 89.608 42.3425 90.04C41.9585 90.472 41.7665 91.036 41.7665 91.732V92.308C41.7665 93.004 41.9585 93.568 42.3425 94C42.7505 94.432 43.3025 94.648 43.9985 94.648Z"
                            fill="#DFF851" />
                        <path
                            d="M545.71 164.839C545.71 171.337 543.783 177.69 540.173 183.093C536.563 188.496 531.432 192.707 525.428 195.193C519.425 197.68 512.819 198.331 506.445 197.063C500.072 195.795 494.218 192.666 489.623 188.071C485.028 183.477 481.899 177.622 480.631 171.249C479.364 164.876 480.014 158.27 482.501 152.266C484.988 146.263 489.199 141.132 494.602 137.521C500.005 133.911 506.357 131.984 512.855 131.984L512.855 164.839H545.71Z"
                            fill="#DFF851" />
                        <circle cx="381.855" cy="98.565" r="31.355" fill="#DFF851" stroke="black" stroke-width="3" />
                        <circle cx="381.855" cy="32.855" r="31.355" fill="#DFF851" stroke="black" stroke-width="3" />
                        <circle cx="381.855" cy="164.275" r="31.355" fill="#DFF851" stroke="black" stroke-width="3" />
                        <circle cx="381.855" cy="229.985" r="31.355" stroke="black" stroke-width="3" />
                        <circle cx="381.855" cy="295.695" r="31.355" stroke="black" stroke-width="3" />
                        <circle cx="447.563" cy="32.855" r="31.355" fill="#DFF851" stroke="black" stroke-width="3" />
                        <circle cx="447.563" cy="98.565" r="31.355" fill="#DFF851" stroke="black" stroke-width="3" />
                        <circle cx="447.563" cy="164.275" r="31.355" fill="#DFF851" stroke="black" stroke-width="3" />
                        <circle cx="447.563" cy="229.985" r="31.355" stroke="black" stroke-width="3" />
                        <circle cx="447.563" cy="295.695" r="31.355" stroke="black" stroke-width="3" />
                        <circle cx="513.276" cy="32.855" r="31.355" fill="#DFF851" stroke="black" stroke-width="3" />
                        <circle cx="513.276" cy="98.565" r="31.355" fill="#DFF851" stroke="black" stroke-width="3" />
                        <circle cx="513.276" cy="164.275" r="31.355" stroke="black" stroke-width="3" />
                        <circle cx="513.276" cy="229.985" r="31.355" stroke="black" stroke-width="3" />
                        <circle cx="513.276" cy="295.695" r="31.355" stroke="black" stroke-width="3" />
                        <circle cx="578.984" cy="32.855" r="31.355" fill="#DFF851" stroke="black" stroke-width="3" />
                        <circle cx="578.984" cy="98.565" r="31.355" fill="#DFF851" stroke="black" stroke-width="3" />
                        <circle cx="578.984" cy="164.275" r="31.355" stroke="black" stroke-width="3" />
                        <circle cx="578.984" cy="229.985" r="31.355" stroke="black" stroke-width="3" />
                        <circle cx="578.984" cy="295.695" r="31.355" stroke="black" stroke-width="3" />
                        <circle cx="644.697" cy="32.855" r="31.355" fill="#DFF851" stroke="black" stroke-width="3" />
                        <circle cx="644.697" cy="98.565" r="31.355" fill="#DFF851" stroke="black" stroke-width="3" />
                        <circle cx="644.697" cy="164.275" r="31.355" stroke="black" stroke-width="3" />
                        <circle cx="644.697" cy="229.985" r="31.355" stroke="black" stroke-width="3" />
                        <circle cx="645.145" cy="296.145" r="31.355" stroke="black" stroke-width="3" />
                    </svg>