<svg width="326" height="244" viewBox="0 0 326 244" fill="none" xmlns="http://www.w3.org/2000/svg">
<path fill-rule="evenodd" clip-rule="evenodd" d="M244.371 0.177734H325.621V81.4277V162.678V243.928H244.371H163.121H81.8711H0.621094V162.678V81.4277V0.177734H81.8711V81.4277H163.121H244.371V0.177734Z" fill="#F6331C"/>
<path d="M325.621 0.177734H327.621V-1.82227H325.621V0.177734ZM244.371 0.177734V-1.82227H242.371V0.177734H244.371ZM325.621 243.928V245.928H327.621V243.928H325.621ZM0.621094 243.928H-1.37891V245.928H0.621094V243.928ZM0.621094 0.177734V-1.82227H-1.37891V0.177734H0.621094ZM81.8711 0.177734H83.8711V-1.82227H81.8711V0.177734ZM81.8711 81.4277H79.8711V83.4277H81.8711V81.4277ZM244.371 81.4277V83.4277H246.371V81.4277H244.371ZM325.621 -1.82227H244.371V2.17773H325.621V-1.82227ZM327.621 81.4277V0.177734H323.621V81.4277H327.621ZM327.621 162.678V81.4277H323.621V162.678H327.621ZM327.621 243.928V162.678H323.621V243.928H327.621ZM244.371 245.928H325.621V241.928H244.371V245.928ZM163.121 245.928H244.371V241.928H163.121V245.928ZM163.121 241.928H81.8711V245.928H163.121V241.928ZM0.621094 245.928H81.8711V241.928H0.621094V245.928ZM-1.37891 162.678V243.928H2.62109V162.678H-1.37891ZM-1.37891 81.4277V162.678H2.62109V81.4277H-1.37891ZM-1.37891 0.177734V81.4277H2.62109V0.177734H-1.37891ZM81.8711 -1.82227H0.621094V2.17773H81.8711V-1.82227ZM83.8711 81.4277V0.177734H79.8711V81.4277H83.8711ZM163.121 79.4277H81.8711V83.4277H163.121V79.4277ZM244.371 79.4277H163.121V83.4277H244.371V79.4277ZM242.371 0.177734V81.4277H246.371V0.177734H242.371Z" fill="white"/>
<path fill-rule="evenodd" clip-rule="evenodd" d="M163.121 0.177734H81.8711V81.4277H163.121H244.371V0.177734H163.121Z" fill="#F8604E"/>
<path d="M81.8711 0.177734V-1.82227H79.8711V0.177734H81.8711ZM81.8711 81.4277H79.8711V83.4277H81.8711V81.4277ZM244.371 81.4277V83.4277H246.371V81.4277H244.371ZM244.371 0.177734H246.371V-1.82227H244.371V0.177734ZM81.8711 2.17773H163.121V-1.82227H81.8711V2.17773ZM83.8711 81.4277V0.177734H79.8711V81.4277H83.8711ZM163.121 79.4277H81.8711V83.4277H163.121V79.4277ZM244.371 79.4277H163.121V83.4277H244.371V79.4277ZM242.371 0.177734V81.4277H246.371V0.177734H242.371ZM163.121 2.17773H244.371V-1.82227H163.121V2.17773Z" fill="white"/>
<path d="M11.4131 20.1777V11.7777H16.6931V13.2177H12.9971V15.2457H16.4051V16.6857H12.9971V20.1777H11.4131ZM17.8713 20.1777V14.2257H19.3833V20.1777H17.8713ZM18.6273 13.5297C18.3553 13.5297 18.1233 13.4417 17.9313 13.2657C17.7473 13.0897 17.6553 12.8577 17.6553 12.5697C17.6553 12.2817 17.7473 12.0497 17.9313 11.8737C18.1233 11.6977 18.3553 11.6097 18.6273 11.6097C18.9073 11.6097 19.1393 11.6977 19.3233 11.8737C19.5073 12.0497 19.5993 12.2817 19.5993 12.5697C19.5993 12.8577 19.5073 13.0897 19.3233 13.2657C19.1393 13.4417 18.9073 13.5297 18.6273 13.5297ZM21.0588 20.1777V14.2257H22.5468V14.8977H22.7628C22.8508 14.6577 22.9948 14.4817 23.1948 14.3697C23.4028 14.2577 23.6428 14.2017 23.9148 14.2017H24.6348V15.5457H23.8908C23.5068 15.5457 23.1908 15.6497 22.9428 15.8577C22.6948 16.0577 22.5708 16.3697 22.5708 16.7937V20.1777H21.0588ZM28.1479 20.3457C27.3719 20.3457 26.7359 20.1777 26.2399 19.8417C25.7439 19.5057 25.4439 19.0257 25.3399 18.4017L26.7319 18.0417C26.7879 18.3217 26.8799 18.5417 27.0079 18.7017C27.1439 18.8617 27.3079 18.9777 27.4999 19.0497C27.6999 19.1137 27.9159 19.1457 28.1479 19.1457C28.4999 19.1457 28.7599 19.0857 28.9279 18.9657C29.0959 18.8377 29.1799 18.6817 29.1799 18.4977C29.1799 18.3137 29.0999 18.1737 28.9399 18.0777C28.7799 17.9737 28.5239 17.8897 28.1719 17.8257L27.8359 17.7657C27.4199 17.6857 27.0399 17.5777 26.6959 17.4417C26.3519 17.2977 26.0759 17.1017 25.8679 16.8537C25.6599 16.6057 25.5559 16.2857 25.5559 15.8937C25.5559 15.3017 25.7719 14.8497 26.2039 14.5377C26.6359 14.2177 27.2039 14.0577 27.9079 14.0577C28.5719 14.0577 29.1239 14.2057 29.5639 14.5017C30.0039 14.7977 30.2919 15.1857 30.4279 15.6657L29.0239 16.0977C28.9599 15.7937 28.8279 15.5777 28.6279 15.4497C28.4359 15.3217 28.1959 15.2577 27.9079 15.2577C27.6199 15.2577 27.3999 15.3097 27.2479 15.4137C27.0959 15.5097 27.0199 15.6457 27.0199 15.8217C27.0199 16.0137 27.0999 16.1577 27.2599 16.2537C27.4199 16.3417 27.6359 16.4097 27.9079 16.4577L28.2439 16.5177C28.6919 16.5977 29.0959 16.7057 29.4559 16.8417C29.8239 16.9697 30.1119 17.1577 30.3199 17.4057C30.5359 17.6457 30.6439 17.9737 30.6439 18.3897C30.6439 19.0137 30.4159 19.4977 29.9599 19.8417C29.5119 20.1777 28.9079 20.3457 28.1479 20.3457ZM34.1317 20.1777C33.7397 20.1777 33.4197 20.0577 33.1717 19.8177C32.9317 19.5697 32.8117 19.2417 32.8117 18.8337V15.4737H31.3237V14.2257H32.8117V12.3777H34.3237V14.2257H35.9557V15.4737H34.3237V18.5697C34.3237 18.8097 34.4357 18.9297 34.6597 18.9297H35.8117V20.1777H34.1317ZM37.066 17.8017V16.4337H40.618V17.8017H37.066ZM45.1257 20.3457C44.5497 20.3457 44.0257 20.2177 43.5537 19.9617C43.0897 19.6977 42.7177 19.3177 42.4377 18.8217C42.1657 18.3177 42.0297 17.7057 42.0297 16.9857V14.9697C42.0297 13.8897 42.3337 13.0617 42.9417 12.4857C43.5497 11.9017 44.3737 11.6097 45.4137 11.6097C46.4457 11.6097 47.2417 11.8857 47.8017 12.4377C48.3697 12.9817 48.6537 13.7217 48.6537 14.6577V14.7057H47.0937V14.6097C47.0937 14.3137 47.0297 14.0457 46.9017 13.8057C46.7817 13.5657 46.5977 13.3777 46.3497 13.2417C46.1017 13.0977 45.7897 13.0257 45.4137 13.0257C44.8537 13.0257 44.4137 13.1977 44.0937 13.5417C43.7737 13.8857 43.6137 14.3537 43.6137 14.9457V17.0097C43.6137 17.5937 43.7737 18.0657 44.0937 18.4257C44.4137 18.7777 44.8617 18.9537 45.4377 18.9537C46.0137 18.9537 46.4337 18.8017 46.6977 18.4977C46.9617 18.1937 47.0937 17.8097 47.0937 17.3457V17.2257H45.1017V15.8817H48.6537V20.1777H47.1897V19.3737H46.9737C46.9177 19.5097 46.8257 19.6537 46.6977 19.8057C46.5777 19.9577 46.3937 20.0857 46.1457 20.1897C45.8977 20.2937 45.5577 20.3457 45.1257 20.3457ZM52.927 20.3457C52.335 20.3457 51.811 20.2217 51.355 19.9737C50.907 19.7177 50.555 19.3617 50.299 18.9057C50.051 18.4417 49.927 17.8977 49.927 17.2737V17.1297C49.927 16.5057 50.051 15.9657 50.299 15.5097C50.547 15.0457 50.895 14.6897 51.343 14.4417C51.791 14.1857 52.311 14.0577 52.903 14.0577C53.487 14.0577 53.995 14.1897 54.427 14.4537C54.859 14.7097 55.195 15.0697 55.435 15.5337C55.675 15.9897 55.795 16.5217 55.795 17.1297V17.6457H51.463C51.479 18.0537 51.631 18.3857 51.919 18.6417C52.207 18.8977 52.559 19.0257 52.975 19.0257C53.399 19.0257 53.711 18.9337 53.911 18.7497C54.111 18.5657 54.263 18.3617 54.367 18.1377L55.603 18.7857C55.491 18.9937 55.327 19.2217 55.111 19.4697C54.903 19.7097 54.623 19.9177 54.271 20.0937C53.919 20.2617 53.471 20.3457 52.927 20.3457ZM51.475 16.5177H54.259C54.227 16.1737 54.087 15.8977 53.839 15.6897C53.599 15.4817 53.283 15.3777 52.891 15.3777C52.483 15.3777 52.159 15.4817 51.919 15.6897C51.679 15.8977 51.531 16.1737 51.475 16.5177ZM57.1408 20.1777V14.2257H58.6288V15.0057H58.8448C58.9408 14.7977 59.1208 14.6017 59.3848 14.4177C59.6488 14.2257 60.0488 14.1297 60.5848 14.1297C61.0488 14.1297 61.4528 14.2377 61.7968 14.4537C62.1488 14.6617 62.4208 14.9537 62.6128 15.3297C62.8048 15.6977 62.9008 16.1297 62.9008 16.6257V20.1777H61.3888V16.7457C61.3888 16.2977 61.2768 15.9617 61.0528 15.7377C60.8368 15.5137 60.5248 15.4017 60.1168 15.4017C59.6528 15.4017 59.2928 15.5577 59.0368 15.8697C58.7808 16.1737 58.6528 16.6017 58.6528 17.1537V20.1777H57.1408ZM11.4131 36.1777V27.7777H14.3531L15.8051 35.0977H16.0211L17.4731 27.7777H20.4131V36.1777H18.8771V28.9417H18.6611L17.2211 36.1777H14.6051L13.1651 28.9417H12.9491V36.1777H11.4131ZM22.0431 36.1777V30.2257H23.5551V36.1777H22.0431ZM22.7991 29.5297C22.5271 29.5297 22.2951 29.4417 22.1031 29.2657C21.9191 29.0897 21.8271 28.8577 21.8271 28.5697C21.8271 28.2817 21.9191 28.0497 22.1031 27.8737C22.2951 27.6977 22.5271 27.6097 22.7991 27.6097C23.0791 27.6097 23.3111 27.6977 23.4951 27.8737C23.6791 28.0497 23.7711 28.2817 23.7711 28.5697C23.7711 28.8577 23.6791 29.0897 23.4951 29.2657C23.3111 29.4417 23.0791 29.5297 22.7991 29.5297ZM24.9426 33.2257V33.0337C24.9426 32.4097 25.0666 31.8777 25.3146 31.4377C25.5626 30.9897 25.8906 30.6497 26.2986 30.4177C26.7146 30.1777 27.1666 30.0577 27.6546 30.0577C28.1986 30.0577 28.6106 30.1537 28.8906 30.3457C29.1706 30.5377 29.3746 30.7377 29.5026 30.9457H29.7186V30.2257H31.2066V37.2337C31.2066 37.6417 31.0866 37.9657 30.8466 38.2057C30.6066 38.4537 30.2866 38.5777 29.8866 38.5777H25.9026V37.2577H29.3586C29.5826 37.2577 29.6946 37.1377 29.6946 36.8977V35.3497H29.4786C29.3986 35.4777 29.2866 35.6097 29.1426 35.7457C28.9986 35.8737 28.8066 35.9817 28.5666 36.0697C28.3266 36.1577 28.0226 36.2017 27.6546 36.2017C27.1666 36.2017 26.7146 36.0857 26.2986 35.8537C25.8906 35.6137 25.5626 35.2737 25.3146 34.8337C25.0666 34.3857 24.9426 33.8497 24.9426 33.2257ZM28.0866 34.8817C28.5506 34.8817 28.9386 34.7337 29.2506 34.4377C29.5626 34.1417 29.7186 33.7257 29.7186 33.1897V33.0697C29.7186 32.5257 29.5626 32.1097 29.2506 31.8217C28.9466 31.5257 28.5586 31.3777 28.0866 31.3777C27.6226 31.3777 27.2346 31.5257 26.9226 31.8217C26.6106 32.1097 26.4546 32.5257 26.4546 33.0697V33.1897C26.4546 33.7257 26.6106 34.1417 26.9226 34.4377C27.2346 34.7337 27.6226 34.8817 28.0866 34.8817ZM32.883 36.1777V30.2257H34.371V30.8977H34.587C34.675 30.6577 34.819 30.4817 35.019 30.3697C35.227 30.2577 35.467 30.2017 35.739 30.2017H36.459V31.5457H35.715C35.331 31.5457 35.015 31.6497 34.767 31.8577C34.519 32.0577 34.395 32.3697 34.395 32.7937V36.1777H32.883ZM39.3482 36.3457C38.9242 36.3457 38.5442 36.2737 38.2082 36.1297C37.8722 35.9777 37.6042 35.7617 37.4042 35.4817C37.2122 35.1937 37.1162 34.8457 37.1162 34.4377C37.1162 34.0297 37.2122 33.6897 37.4042 33.4177C37.6042 33.1377 37.8762 32.9297 38.2202 32.7937C38.5722 32.6497 38.9722 32.5777 39.4202 32.5777H41.0522V32.2417C41.0522 31.9617 40.9642 31.7337 40.7882 31.5577C40.6122 31.3737 40.3322 31.2817 39.9482 31.2817C39.5722 31.2817 39.2922 31.3697 39.1082 31.5457C38.9242 31.7137 38.8042 31.9337 38.7482 32.2057L37.3562 31.7377C37.4522 31.4337 37.6042 31.1577 37.8122 30.9097C38.0282 30.6537 38.3122 30.4497 38.6642 30.2977C39.0242 30.1377 39.4602 30.0577 39.9722 30.0577C40.7562 30.0577 41.3762 30.2537 41.8322 30.6457C42.2882 31.0377 42.5162 31.6057 42.5162 32.3497V34.5697C42.5162 34.8097 42.6282 34.9297 42.8522 34.9297H43.3322V36.1777H42.3242C42.0282 36.1777 41.7842 36.1057 41.5922 35.9617C41.4002 35.8177 41.3042 35.6257 41.3042 35.3857V35.3737H41.0762C41.0442 35.4697 40.9722 35.5977 40.8602 35.7577C40.7482 35.9097 40.5722 36.0457 40.3322 36.1657C40.0922 36.2857 39.7642 36.3457 39.3482 36.3457ZM39.6122 35.1217C40.0362 35.1217 40.3802 35.0057 40.6442 34.7737C40.9162 34.5337 41.0522 34.2177 41.0522 33.8257V33.7057H39.5282C39.2482 33.7057 39.0282 33.7657 38.8682 33.8857C38.7082 34.0057 38.6282 34.1737 38.6282 34.3897C38.6282 34.6057 38.7122 34.7817 38.8802 34.9177C39.0482 35.0537 39.2922 35.1217 39.6122 35.1217ZM44.4377 36.1777V30.2257H45.9257V31.0057H46.1417C46.2377 30.7977 46.4177 30.6017 46.6817 30.4177C46.9457 30.2257 47.3457 30.1297 47.8817 30.1297C48.3457 30.1297 48.7497 30.2377 49.0937 30.4537C49.4457 30.6617 49.7177 30.9537 49.9097 31.3297C50.1017 31.6977 50.1977 32.1297 50.1977 32.6257V36.1777H48.6857V32.7457C48.6857 32.2977 48.5737 31.9617 48.3497 31.7377C48.1337 31.5137 47.8217 31.4017 47.4137 31.4017C46.9497 31.4017 46.5897 31.5577 46.3337 31.8697C46.0777 32.1737 45.9497 32.6017 45.9497 33.1537V36.1777H44.4377ZM53.9481 36.1777C53.5561 36.1777 53.2361 36.0577 52.9881 35.8177C52.7481 35.5697 52.6281 35.2417 52.6281 34.8337V31.4737H51.1401V30.2257H52.6281V28.3777H54.1401V30.2257H55.7721V31.4737H54.1401V34.5697C54.1401 34.8097 54.2521 34.9297 54.4761 34.9297H55.6281V36.1777H53.9481ZM59.6128 36.3457C58.8368 36.3457 58.2008 36.1777 57.7048 35.8417C57.2088 35.5057 56.9088 35.0257 56.8048 34.4017L58.1968 34.0417C58.2528 34.3217 58.3448 34.5417 58.4728 34.7017C58.6088 34.8617 58.7728 34.9777 58.9648 35.0497C59.1648 35.1137 59.3808 35.1457 59.6128 35.1457C59.9648 35.1457 60.2248 35.0857 60.3928 34.9657C60.5608 34.8377 60.6448 34.6817 60.6448 34.4977C60.6448 34.3137 60.5648 34.1737 60.4048 34.0777C60.2448 33.9737 59.9888 33.8897 59.6368 33.8257L59.3008 33.7657C58.8848 33.6857 58.5048 33.5777 58.1608 33.4417C57.8168 33.2977 57.5408 33.1017 57.3328 32.8537C57.1248 32.6057 57.0208 32.2857 57.0208 31.8937C57.0208 31.3017 57.2368 30.8497 57.6688 30.5377C58.1008 30.2177 58.6688 30.0577 59.3728 30.0577C60.0368 30.0577 60.5888 30.2057 61.0288 30.5017C61.4688 30.7977 61.7568 31.1857 61.8928 31.6657L60.4888 32.0977C60.4248 31.7937 60.2928 31.5777 60.0928 31.4497C59.9008 31.3217 59.6608 31.2577 59.3728 31.2577C59.0848 31.2577 58.8648 31.3097 58.7128 31.4137C58.5608 31.5097 58.4848 31.6457 58.4848 31.8217C58.4848 32.0137 58.5648 32.1577 58.7248 32.2537C58.8848 32.3417 59.1008 32.4097 59.3728 32.4577L59.7088 32.5177C60.1568 32.5977 60.5608 32.7057 60.9208 32.8417C61.2888 32.9697 61.5768 33.1577 61.7848 33.4057C62.0008 33.6457 62.1088 33.9737 62.1088 34.3897C62.1088 35.0137 61.8808 35.4977 61.4248 35.8417C60.9768 36.1777 60.3728 36.3457 59.6128 36.3457ZM13.1911 54.1777V47.7177H13.0411L11.6811 50.2077H10.8011L12.4711 47.1777H14.0011V54.1777H13.1911ZM18.0008 54.3177C17.2074 54.3177 16.5741 54.0844 16.1008 53.6177C15.6341 53.1444 15.4008 52.4377 15.4008 51.4977V49.8577C15.4008 48.9244 15.6341 48.2211 16.1008 47.7477C16.5741 47.2744 17.2074 47.0377 18.0008 47.0377C18.8008 47.0377 19.4341 47.2744 19.9008 47.7477C20.3741 48.2211 20.6108 48.9244 20.6108 49.8577V51.4977C20.6108 52.4377 20.3741 53.1444 19.9008 53.6177C19.4341 54.0844 18.8008 54.3177 18.0008 54.3177ZM18.0008 53.5877C18.6008 53.5877 19.0508 53.4077 19.3508 53.0477C19.6508 52.6877 19.8008 52.1844 19.8008 51.5377V49.8077C19.8008 49.1611 19.6474 48.6611 19.3408 48.3077C19.0341 47.9477 18.5874 47.7677 18.0008 47.7677C17.4141 47.7677 16.9674 47.9477 16.6608 48.3077C16.3608 48.6677 16.2108 49.1677 16.2108 49.8077V51.5377C16.2108 52.1911 16.3608 52.6977 16.6608 53.0577C16.9608 53.4111 17.4074 53.5877 18.0008 53.5877ZM24.6054 56.1777V49.2877H25.3754V50.0977H25.5154C25.6421 49.8511 25.8454 49.6311 26.1254 49.4377C26.4121 49.2444 26.8087 49.1477 27.3154 49.1477C27.7354 49.1477 28.1187 49.2511 28.4654 49.4577C28.8187 49.6577 29.0987 49.9444 29.3054 50.3177C29.5187 50.6911 29.6254 51.1411 29.6254 51.6677V51.7977C29.6254 52.3177 29.5221 52.7677 29.3154 53.1477C29.1087 53.5277 28.8287 53.8177 28.4754 54.0177C28.1287 54.2177 27.7421 54.3177 27.3154 54.3177C26.9754 54.3177 26.6854 54.2711 26.4454 54.1777C26.2121 54.0911 26.0221 53.9777 25.8754 53.8377C25.7287 53.6977 25.6154 53.5544 25.5354 53.4077H25.3954V56.1777H24.6054ZM27.1054 53.6177C27.6121 53.6177 28.0221 53.4577 28.3354 53.1377C28.6554 52.8111 28.8154 52.3577 28.8154 51.7777V51.6877C28.8154 51.1077 28.6554 50.6577 28.3354 50.3377C28.0221 50.0111 27.6121 49.8477 27.1054 49.8477C26.6054 49.8477 26.1921 50.0111 25.8654 50.3377C25.5454 50.6577 25.3854 51.1077 25.3854 51.6877V51.7777C25.3854 52.3577 25.5454 52.8111 25.8654 53.1377C26.1921 53.4577 26.6054 53.6177 27.1054 53.6177ZM33.2809 54.3177C32.7876 54.3177 32.3543 54.2144 31.9809 54.0077C31.6076 53.7944 31.3176 53.4977 31.1109 53.1177C30.9043 52.7377 30.8009 52.2977 30.8009 51.7977V51.6777C30.8009 51.1711 30.9043 50.7277 31.1109 50.3477C31.3176 49.9677 31.6043 49.6744 31.9709 49.4677C32.3376 49.2544 32.7576 49.1477 33.2309 49.1477C33.6909 49.1477 34.0976 49.2477 34.4509 49.4477C34.8043 49.6411 35.0809 49.9211 35.2809 50.2877C35.4809 50.6544 35.5809 51.0844 35.5809 51.5777V51.9377H31.5909C31.6109 52.4644 31.7809 52.8777 32.1009 53.1777C32.4209 53.4711 32.8209 53.6177 33.3009 53.6177C33.7209 53.6177 34.0443 53.5211 34.2709 53.3277C34.4976 53.1344 34.6709 52.9044 34.7909 52.6377L35.4709 52.9677C35.3709 53.1744 35.2309 53.3811 35.0509 53.5877C34.8776 53.7944 34.6476 53.9677 34.3609 54.1077C34.0809 54.2477 33.7209 54.3177 33.2809 54.3177ZM31.6009 51.2877H34.7809C34.7543 50.8344 34.5976 50.4811 34.3109 50.2277C34.0309 49.9744 33.6709 49.8477 33.2309 49.8477C32.7843 49.8477 32.4176 49.9744 32.1309 50.2277C31.8443 50.4811 31.6676 50.8344 31.6009 51.2877ZM39.2189 54.3177C38.7256 54.3177 38.2889 54.2144 37.9089 54.0077C37.5356 53.8011 37.2422 53.5111 37.0289 53.1377C36.8222 52.7577 36.7189 52.3111 36.7189 51.7977V51.6677C36.7189 51.1611 36.8222 50.7177 37.0289 50.3377C37.2422 49.9577 37.5356 49.6644 37.9089 49.4577C38.2889 49.2511 38.7256 49.1477 39.2189 49.1477C39.7122 49.1477 40.1456 49.2511 40.5189 49.4577C40.8989 49.6644 41.1922 49.9577 41.3989 50.3377C41.6122 50.7177 41.7189 51.1611 41.7189 51.6677V51.7977C41.7189 52.3111 41.6122 52.7577 41.3989 53.1377C41.1922 53.5111 40.8989 53.8011 40.5189 54.0077C40.1456 54.2144 39.7122 54.3177 39.2189 54.3177ZM39.2189 53.6077C39.7389 53.6077 40.1522 53.4444 40.4589 53.1177C40.7722 52.7844 40.9289 52.3377 40.9289 51.7777V51.6877C40.9289 51.1277 40.7722 50.6844 40.4589 50.3577C40.1522 50.0244 39.7389 49.8577 39.2189 49.8577C38.7056 49.8577 38.2922 50.0244 37.9789 50.3577C37.6656 50.6844 37.5089 51.1277 37.5089 51.6877V51.7777C37.5089 52.3377 37.6656 52.7844 37.9789 53.1177C38.2922 53.4444 38.7056 53.6077 39.2189 53.6077ZM43.1405 56.1777V49.2877H43.9105V50.0977H44.0505C44.1772 49.8511 44.3805 49.6311 44.6605 49.4377C44.9472 49.2444 45.3439 49.1477 45.8505 49.1477C46.2705 49.1477 46.6539 49.2511 47.0005 49.4577C47.3539 49.6577 47.6339 49.9444 47.8405 50.3177C48.0539 50.6911 48.1605 51.1411 48.1605 51.6677V51.7977C48.1605 52.3177 48.0572 52.7677 47.8505 53.1477C47.6439 53.5277 47.3639 53.8177 47.0105 54.0177C46.6639 54.2177 46.2772 54.3177 45.8505 54.3177C45.5105 54.3177 45.2205 54.2711 44.9805 54.1777C44.7472 54.0911 44.5572 53.9777 44.4105 53.8377C44.2639 53.6977 44.1505 53.5544 44.0705 53.4077H43.9305V56.1777H43.1405ZM45.6405 53.6177C46.1472 53.6177 46.5572 53.4577 46.8705 53.1377C47.1905 52.8111 47.3505 52.3577 47.3505 51.7777V51.6877C47.3505 51.1077 47.1905 50.6577 46.8705 50.3377C46.5572 50.0111 46.1472 49.8477 45.6405 49.8477C45.1405 49.8477 44.7272 50.0111 44.4005 50.3377C44.0805 50.6577 43.9205 51.1077 43.9205 51.6877V51.7777C43.9205 52.3577 44.0805 52.8111 44.4005 53.1377C44.7272 53.4577 45.1405 53.6177 45.6405 53.6177ZM49.5761 54.1777V47.1777H50.3661V54.1777H49.5761ZM54.2673 54.3177C53.7739 54.3177 53.3406 54.2144 52.9673 54.0077C52.5939 53.7944 52.3039 53.4977 52.0973 53.1177C51.8906 52.7377 51.7873 52.2977 51.7873 51.7977V51.6777C51.7873 51.1711 51.8906 50.7277 52.0973 50.3477C52.3039 49.9677 52.5906 49.6744 52.9573 49.4677C53.3239 49.2544 53.7439 49.1477 54.2173 49.1477C54.6773 49.1477 55.0839 49.2477 55.4373 49.4477C55.7906 49.6411 56.0673 49.9211 56.2673 50.2877C56.4673 50.6544 56.5673 51.0844 56.5673 51.5777V51.9377H52.5773C52.5973 52.4644 52.7673 52.8777 53.0873 53.1777C53.4073 53.4711 53.8073 53.6177 54.2873 53.6177C54.7073 53.6177 55.0306 53.5211 55.2573 53.3277C55.4839 53.1344 55.6573 52.9044 55.7773 52.6377L56.4573 52.9677C56.3573 53.1744 56.2173 53.3811 56.0373 53.5877C55.8639 53.7944 55.6339 53.9677 55.3473 54.1077C55.0673 54.2477 54.7073 54.3177 54.2673 54.3177ZM52.5873 51.2877H55.7673C55.7406 50.8344 55.5839 50.4811 55.2973 50.2277C55.0173 49.9744 54.6573 49.8477 54.2173 49.8477C53.7706 49.8477 53.4039 49.9744 53.1173 50.2277C52.8306 50.4811 52.6539 50.8344 52.5873 51.2877Z" fill="white"/>
<path d="M95.5791 20.3457C94.9311 20.3457 94.3591 20.2297 93.8631 19.9977C93.3671 19.7657 92.9791 19.4337 92.6991 19.0017C92.4191 18.5697 92.2791 18.0497 92.2791 17.4417V17.1057H93.8391V17.4417C93.8391 17.9457 93.9951 18.3257 94.3071 18.5817C94.6191 18.8297 95.0431 18.9537 95.5791 18.9537C96.1231 18.9537 96.5271 18.8457 96.7911 18.6297C97.0631 18.4137 97.1991 18.1377 97.1991 17.8017C97.1991 17.5697 97.1311 17.3817 96.9951 17.2377C96.8671 17.0937 96.6751 16.9777 96.4191 16.8897C96.1711 16.7937 95.8671 16.7057 95.5071 16.6257L95.2311 16.5657C94.6551 16.4377 94.1591 16.2777 93.7431 16.0857C93.3351 15.8857 93.0191 15.6257 92.7951 15.3057C92.5791 14.9857 92.4711 14.5697 92.4711 14.0577C92.4711 13.5457 92.5911 13.1097 92.8311 12.7497C93.0791 12.3817 93.4231 12.1017 93.8631 11.9097C94.3111 11.7097 94.8351 11.6097 95.4351 11.6097C96.0351 11.6097 96.5671 11.7137 97.0311 11.9217C97.5031 12.1217 97.8711 12.4257 98.1351 12.8337C98.4071 13.2337 98.5431 13.7377 98.5431 14.3457V14.7057H96.9831V14.3457C96.9831 14.0257 96.9191 13.7697 96.7911 13.5777C96.6711 13.3777 96.4951 13.2337 96.2631 13.1457C96.0311 13.0497 95.7551 13.0017 95.4351 13.0017C94.9551 13.0017 94.5991 13.0937 94.3671 13.2777C94.1431 13.4537 94.0311 13.6977 94.0311 14.0097C94.0311 14.2177 94.0831 14.3937 94.1871 14.5377C94.2991 14.6817 94.4631 14.8017 94.6791 14.8977C94.8951 14.9937 95.1711 15.0777 95.5071 15.1497L95.7831 15.2097C96.3831 15.3377 96.9031 15.5017 97.3431 15.7017C97.7911 15.9017 98.1391 16.1657 98.3871 16.4937C98.6351 16.8217 98.7591 17.2417 98.7591 17.7537C98.7591 18.2657 98.6271 18.7177 98.3631 19.1097C98.1071 19.4937 97.7391 19.7977 97.2591 20.0217C96.7871 20.2377 96.2271 20.3457 95.5791 20.3457ZM102.7 20.3457C102.108 20.3457 101.584 20.2217 101.128 19.9737C100.68 19.7177 100.328 19.3617 100.072 18.9057C99.8244 18.4417 99.7004 17.8977 99.7004 17.2737V17.1297C99.7004 16.5057 99.8244 15.9657 100.072 15.5097C100.32 15.0457 100.668 14.6897 101.116 14.4417C101.564 14.1857 102.084 14.0577 102.676 14.0577C103.26 14.0577 103.768 14.1897 104.2 14.4537C104.632 14.7097 104.968 15.0697 105.208 15.5337C105.448 15.9897 105.568 16.5217 105.568 17.1297V17.6457H101.236C101.252 18.0537 101.404 18.3857 101.692 18.6417C101.98 18.8977 102.332 19.0257 102.748 19.0257C103.172 19.0257 103.484 18.9337 103.684 18.7497C103.884 18.5657 104.036 18.3617 104.14 18.1377L105.376 18.7857C105.264 18.9937 105.1 19.2217 104.884 19.4697C104.676 19.7097 104.396 19.9177 104.044 20.0937C103.692 20.2617 103.244 20.3457 102.7 20.3457ZM101.248 16.5177H104.032C104 16.1737 103.86 15.8977 103.612 15.6897C103.372 15.4817 103.056 15.3777 102.664 15.3777C102.256 15.3777 101.932 15.4817 101.692 15.6897C101.452 15.8977 101.304 16.1737 101.248 16.5177ZM109.71 20.3457C109.134 20.3457 108.61 20.2257 108.138 19.9857C107.674 19.7457 107.306 19.3977 107.034 18.9417C106.762 18.4857 106.626 17.9337 106.626 17.2857V17.1177C106.626 16.4697 106.762 15.9177 107.034 15.4617C107.306 15.0057 107.674 14.6577 108.138 14.4177C108.61 14.1777 109.134 14.0577 109.71 14.0577C110.278 14.0577 110.766 14.1577 111.174 14.3577C111.582 14.5577 111.91 14.8337 112.158 15.1857C112.414 15.5297 112.582 15.9217 112.662 16.3617L111.198 16.6737C111.166 16.4337 111.094 16.2177 110.982 16.0257C110.87 15.8337 110.71 15.6817 110.502 15.5697C110.302 15.4577 110.05 15.4017 109.746 15.4017C109.442 15.4017 109.166 15.4697 108.918 15.6057C108.678 15.7337 108.486 15.9297 108.342 16.1937C108.206 16.4497 108.138 16.7657 108.138 17.1417V17.2617C108.138 17.6377 108.206 17.9577 108.342 18.2217C108.486 18.4777 108.678 18.6737 108.918 18.8097C109.166 18.9377 109.442 19.0017 109.746 19.0017C110.202 19.0017 110.546 18.8857 110.778 18.6537C111.018 18.4137 111.17 18.1017 111.234 17.7177L112.698 18.0657C112.594 18.4897 112.414 18.8777 112.158 19.2297C111.91 19.5737 111.582 19.8457 111.174 20.0457C110.766 20.2457 110.278 20.3457 109.71 20.3457ZM116.777 20.3457C116.185 20.3457 115.653 20.2257 115.181 19.9857C114.709 19.7457 114.337 19.3977 114.065 18.9417C113.793 18.4857 113.657 17.9377 113.657 17.2977V17.1057C113.657 16.4657 113.793 15.9177 114.065 15.4617C114.337 15.0057 114.709 14.6577 115.181 14.4177C115.653 14.1777 116.185 14.0577 116.777 14.0577C117.369 14.0577 117.901 14.1777 118.373 14.4177C118.845 14.6577 119.217 15.0057 119.489 15.4617C119.761 15.9177 119.897 16.4657 119.897 17.1057V17.2977C119.897 17.9377 119.761 18.4857 119.489 18.9417C119.217 19.3977 118.845 19.7457 118.373 19.9857C117.901 20.2257 117.369 20.3457 116.777 20.3457ZM116.777 19.0017C117.241 19.0017 117.625 18.8537 117.929 18.5577C118.233 18.2537 118.385 17.8217 118.385 17.2617V17.1417C118.385 16.5817 118.233 16.1537 117.929 15.8577C117.633 15.5537 117.249 15.4017 116.777 15.4017C116.313 15.4017 115.929 15.5537 115.625 15.8577C115.321 16.1537 115.169 16.5817 115.169 17.1417V17.2617C115.169 17.8217 115.321 18.2537 115.625 18.5577C115.929 18.8537 116.313 19.0017 116.777 19.0017ZM121.293 20.1777V14.2257H122.781V15.0057H122.997C123.093 14.7977 123.273 14.6017 123.537 14.4177C123.801 14.2257 124.201 14.1297 124.737 14.1297C125.201 14.1297 125.605 14.2377 125.949 14.4537C126.301 14.6617 126.573 14.9537 126.765 15.3297C126.957 15.6977 127.053 16.1297 127.053 16.6257V20.1777H125.541V16.7457C125.541 16.2977 125.429 15.9617 125.205 15.7377C124.989 15.5137 124.677 15.4017 124.269 15.4017C123.805 15.4017 123.445 15.5577 123.189 15.8697C122.933 16.1737 122.805 16.6017 122.805 17.1537V20.1777H121.293ZM131.088 20.3457C130.616 20.3457 130.172 20.2297 129.756 19.9977C129.348 19.7577 129.02 19.4097 128.772 18.9537C128.524 18.4977 128.4 17.9457 128.4 17.2977V17.1057C128.4 16.4577 128.524 15.9057 128.772 15.4497C129.02 14.9937 129.348 14.6497 129.756 14.4177C130.164 14.1777 130.608 14.0577 131.088 14.0577C131.448 14.0577 131.748 14.1017 131.988 14.1897C132.236 14.2697 132.436 14.3737 132.588 14.5017C132.74 14.6297 132.856 14.7657 132.936 14.9097H133.152V11.7777H134.664V20.1777H133.176V19.4577H132.96C132.824 19.6817 132.612 19.8857 132.324 20.0697C132.044 20.2537 131.632 20.3457 131.088 20.3457ZM131.544 19.0257C132.008 19.0257 132.396 18.8777 132.708 18.5817C133.02 18.2777 133.176 17.8377 133.176 17.2617V17.1417C133.176 16.5657 133.02 16.1297 132.708 15.8337C132.404 15.5297 132.016 15.3777 131.544 15.3777C131.08 15.3777 130.692 15.5297 130.38 15.8337C130.068 16.1297 129.912 16.5657 129.912 17.1417V17.2617C129.912 17.8377 130.068 18.2777 130.38 18.5817C130.692 18.8777 131.08 19.0257 131.544 19.0257ZM136.316 17.8017V16.4337H139.868V17.8017H136.316ZM144.376 20.3457C143.8 20.3457 143.276 20.2177 142.804 19.9617C142.34 19.6977 141.968 19.3177 141.688 18.8217C141.416 18.3177 141.28 17.7057 141.28 16.9857V14.9697C141.28 13.8897 141.584 13.0617 142.192 12.4857C142.8 11.9017 143.624 11.6097 144.664 11.6097C145.696 11.6097 146.492 11.8857 147.052 12.4377C147.62 12.9817 147.904 13.7217 147.904 14.6577V14.7057H146.344V14.6097C146.344 14.3137 146.28 14.0457 146.152 13.8057C146.032 13.5657 145.848 13.3777 145.6 13.2417C145.352 13.0977 145.04 13.0257 144.664 13.0257C144.104 13.0257 143.664 13.1977 143.344 13.5417C143.024 13.8857 142.864 14.3537 142.864 14.9457V17.0097C142.864 17.5937 143.024 18.0657 143.344 18.4257C143.664 18.7777 144.112 18.9537 144.688 18.9537C145.264 18.9537 145.684 18.8017 145.948 18.4977C146.212 18.1937 146.344 17.8097 146.344 17.3457V17.2257H144.352V15.8817H147.904V20.1777H146.44V19.3737H146.224C146.168 19.5097 146.076 19.6537 145.948 19.8057C145.828 19.9577 145.644 20.0857 145.396 20.1897C145.148 20.2937 144.808 20.3457 144.376 20.3457ZM152.177 20.3457C151.585 20.3457 151.061 20.2217 150.605 19.9737C150.157 19.7177 149.805 19.3617 149.549 18.9057C149.301 18.4417 149.177 17.8977 149.177 17.2737V17.1297C149.177 16.5057 149.301 15.9657 149.549 15.5097C149.797 15.0457 150.145 14.6897 150.593 14.4417C151.041 14.1857 151.561 14.0577 152.153 14.0577C152.737 14.0577 153.245 14.1897 153.677 14.4537C154.109 14.7097 154.445 15.0697 154.685 15.5337C154.925 15.9897 155.045 16.5217 155.045 17.1297V17.6457H150.713C150.729 18.0537 150.881 18.3857 151.169 18.6417C151.457 18.8977 151.809 19.0257 152.225 19.0257C152.649 19.0257 152.961 18.9337 153.161 18.7497C153.361 18.5657 153.513 18.3617 153.617 18.1377L154.853 18.7857C154.741 18.9937 154.577 19.2217 154.361 19.4697C154.153 19.7097 153.873 19.9177 153.521 20.0937C153.169 20.2617 152.721 20.3457 152.177 20.3457ZM150.725 16.5177H153.509C153.477 16.1737 153.337 15.8977 153.089 15.6897C152.849 15.4817 152.533 15.3777 152.141 15.3777C151.733 15.3777 151.409 15.4817 151.169 15.6897C150.929 15.8977 150.781 16.1737 150.725 16.5177ZM156.391 20.1777V14.2257H157.879V15.0057H158.095C158.191 14.7977 158.371 14.6017 158.635 14.4177C158.899 14.2257 159.299 14.1297 159.835 14.1297C160.299 14.1297 160.703 14.2377 161.047 14.4537C161.399 14.6617 161.671 14.9537 161.863 15.3297C162.055 15.6977 162.151 16.1297 162.151 16.6257V20.1777H160.639V16.7457C160.639 16.2977 160.527 15.9617 160.303 15.7377C160.087 15.5137 159.775 15.4017 159.367 15.4017C158.903 15.4017 158.543 15.5577 158.287 15.8697C158.031 16.1737 157.903 16.6017 157.903 17.1537V20.1777H156.391ZM92.6631 36.1777V27.7777H95.6031L97.0551 35.0977H97.2711L98.7231 27.7777H101.663V36.1777H100.127V28.9417H99.9111L98.4711 36.1777H95.8551L94.4151 28.9417H94.1991V36.1777H92.6631ZM103.293 36.1777V30.2257H104.805V36.1777H103.293ZM104.049 29.5297C103.777 29.5297 103.545 29.4417 103.353 29.2657C103.169 29.0897 103.077 28.8577 103.077 28.5697C103.077 28.2817 103.169 28.0497 103.353 27.8737C103.545 27.6977 103.777 27.6097 104.049 27.6097C104.329 27.6097 104.561 27.6977 104.745 27.8737C104.929 28.0497 105.021 28.2817 105.021 28.5697C105.021 28.8577 104.929 29.0897 104.745 29.2657C104.561 29.4417 104.329 29.5297 104.049 29.5297ZM106.193 33.2257V33.0337C106.193 32.4097 106.317 31.8777 106.565 31.4377C106.813 30.9897 107.141 30.6497 107.549 30.4177C107.965 30.1777 108.417 30.0577 108.905 30.0577C109.449 30.0577 109.861 30.1537 110.141 30.3457C110.421 30.5377 110.625 30.7377 110.753 30.9457H110.969V30.2257H112.457V37.2337C112.457 37.6417 112.337 37.9657 112.097 38.2057C111.857 38.4537 111.537 38.5777 111.137 38.5777H107.153V37.2577H110.609C110.833 37.2577 110.945 37.1377 110.945 36.8977V35.3497H110.729C110.649 35.4777 110.537 35.6097 110.393 35.7457C110.249 35.8737 110.057 35.9817 109.817 36.0697C109.577 36.1577 109.273 36.2017 108.905 36.2017C108.417 36.2017 107.965 36.0857 107.549 35.8537C107.141 35.6137 106.813 35.2737 106.565 34.8337C106.317 34.3857 106.193 33.8497 106.193 33.2257ZM109.337 34.8817C109.801 34.8817 110.189 34.7337 110.501 34.4377C110.813 34.1417 110.969 33.7257 110.969 33.1897V33.0697C110.969 32.5257 110.813 32.1097 110.501 31.8217C110.197 31.5257 109.809 31.3777 109.337 31.3777C108.873 31.3777 108.485 31.5257 108.173 31.8217C107.861 32.1097 107.705 32.5257 107.705 33.0697V33.1897C107.705 33.7257 107.861 34.1417 108.173 34.4377C108.485 34.7337 108.873 34.8817 109.337 34.8817ZM114.133 36.1777V30.2257H115.621V30.8977H115.837C115.925 30.6577 116.069 30.4817 116.269 30.3697C116.477 30.2577 116.717 30.2017 116.989 30.2017H117.709V31.5457H116.965C116.581 31.5457 116.265 31.6497 116.017 31.8577C115.769 32.0577 115.645 32.3697 115.645 32.7937V36.1777H114.133ZM120.598 36.3457C120.174 36.3457 119.794 36.2737 119.458 36.1297C119.122 35.9777 118.854 35.7617 118.654 35.4817C118.462 35.1937 118.366 34.8457 118.366 34.4377C118.366 34.0297 118.462 33.6897 118.654 33.4177C118.854 33.1377 119.126 32.9297 119.47 32.7937C119.822 32.6497 120.222 32.5777 120.67 32.5777H122.302V32.2417C122.302 31.9617 122.214 31.7337 122.038 31.5577C121.862 31.3737 121.582 31.2817 121.198 31.2817C120.822 31.2817 120.542 31.3697 120.358 31.5457C120.174 31.7137 120.054 31.9337 119.998 32.2057L118.606 31.7377C118.702 31.4337 118.854 31.1577 119.062 30.9097C119.278 30.6537 119.562 30.4497 119.914 30.2977C120.274 30.1377 120.71 30.0577 121.222 30.0577C122.006 30.0577 122.626 30.2537 123.082 30.6457C123.538 31.0377 123.766 31.6057 123.766 32.3497V34.5697C123.766 34.8097 123.878 34.9297 124.102 34.9297H124.582V36.1777H123.574C123.278 36.1777 123.034 36.1057 122.842 35.9617C122.65 35.8177 122.554 35.6257 122.554 35.3857V35.3737H122.326C122.294 35.4697 122.222 35.5977 122.11 35.7577C121.998 35.9097 121.822 36.0457 121.582 36.1657C121.342 36.2857 121.014 36.3457 120.598 36.3457ZM120.862 35.1217C121.286 35.1217 121.63 35.0057 121.894 34.7737C122.166 34.5337 122.302 34.2177 122.302 33.8257V33.7057H120.778C120.498 33.7057 120.278 33.7657 120.118 33.8857C119.958 34.0057 119.878 34.1737 119.878 34.3897C119.878 34.6057 119.962 34.7817 120.13 34.9177C120.298 35.0537 120.542 35.1217 120.862 35.1217ZM125.688 36.1777V30.2257H127.176V31.0057H127.392C127.488 30.7977 127.668 30.6017 127.932 30.4177C128.196 30.2257 128.596 30.1297 129.132 30.1297C129.596 30.1297 130 30.2377 130.344 30.4537C130.696 30.6617 130.968 30.9537 131.16 31.3297C131.352 31.6977 131.448 32.1297 131.448 32.6257V36.1777H129.936V32.7457C129.936 32.2977 129.824 31.9617 129.6 31.7377C129.384 31.5137 129.072 31.4017 128.664 31.4017C128.2 31.4017 127.84 31.5577 127.584 31.8697C127.328 32.1737 127.2 32.6017 127.2 33.1537V36.1777H125.688ZM135.198 36.1777C134.806 36.1777 134.486 36.0577 134.238 35.8177C133.998 35.5697 133.878 35.2417 133.878 34.8337V31.4737H132.39V30.2257H133.878V28.3777H135.39V30.2257H137.022V31.4737H135.39V34.5697C135.39 34.8097 135.502 34.9297 135.726 34.9297H136.878V36.1777H135.198ZM140.863 36.3457C140.087 36.3457 139.451 36.1777 138.955 35.8417C138.459 35.5057 138.159 35.0257 138.055 34.4017L139.447 34.0417C139.503 34.3217 139.595 34.5417 139.723 34.7017C139.859 34.8617 140.023 34.9777 140.215 35.0497C140.415 35.1137 140.631 35.1457 140.863 35.1457C141.215 35.1457 141.475 35.0857 141.643 34.9657C141.811 34.8377 141.895 34.6817 141.895 34.4977C141.895 34.3137 141.815 34.1737 141.655 34.0777C141.495 33.9737 141.239 33.8897 140.887 33.8257L140.551 33.7657C140.135 33.6857 139.755 33.5777 139.411 33.4417C139.067 33.2977 138.791 33.1017 138.583 32.8537C138.375 32.6057 138.271 32.2857 138.271 31.8937C138.271 31.3017 138.487 30.8497 138.919 30.5377C139.351 30.2177 139.919 30.0577 140.623 30.0577C141.287 30.0577 141.839 30.2057 142.279 30.5017C142.719 30.7977 143.007 31.1857 143.143 31.6657L141.739 32.0977C141.675 31.7937 141.543 31.5777 141.343 31.4497C141.151 31.3217 140.911 31.2577 140.623 31.2577C140.335 31.2577 140.115 31.3097 139.963 31.4137C139.811 31.5097 139.735 31.6457 139.735 31.8217C139.735 32.0137 139.815 32.1577 139.975 32.2537C140.135 32.3417 140.351 32.4097 140.623 32.4577L140.959 32.5177C141.407 32.5977 141.811 32.7057 142.171 32.8417C142.539 32.9697 142.827 33.1577 143.035 33.4057C143.251 33.6457 143.359 33.9737 143.359 34.3897C143.359 35.0137 143.131 35.4977 142.675 35.8417C142.227 36.1777 141.623 36.3457 140.863 36.3457ZM92.4011 54.1777V53.4477C92.4011 52.9477 92.4878 52.5477 92.6611 52.2477C92.8411 51.9477 93.0878 51.7077 93.4011 51.5277C93.7211 51.3411 94.1011 51.1811 94.5411 51.0477L95.0911 50.8777C95.3911 50.7844 95.6544 50.6711 95.8811 50.5377C96.1078 50.3977 96.2844 50.2244 96.4111 50.0177C96.5378 49.8044 96.6011 49.5444 96.6011 49.2377V49.1977C96.6011 48.7577 96.4478 48.4111 96.1411 48.1577C95.8344 47.8977 95.4411 47.7677 94.9611 47.7677C94.4544 47.7677 94.0411 47.9044 93.7211 48.1777C93.4011 48.4444 93.2411 48.8511 93.2411 49.3977V49.5377H92.4411V49.4077C92.4411 48.9011 92.5511 48.4711 92.7711 48.1177C92.9911 47.7644 93.2911 47.4977 93.6711 47.3177C94.0511 47.1311 94.4811 47.0377 94.9611 47.0377C95.4411 47.0377 95.8644 47.1277 96.2311 47.3077C96.6044 47.4877 96.8944 47.7377 97.1011 48.0577C97.3078 48.3777 97.4111 48.7511 97.4111 49.1777V49.2677C97.4111 49.7211 97.3211 50.0977 97.1411 50.3977C96.9611 50.6911 96.7111 50.9311 96.3911 51.1177C96.0778 51.3044 95.7078 51.4644 95.2811 51.5977L94.7411 51.7677C94.4011 51.8744 94.1178 51.9877 93.8911 52.1077C93.6711 52.2211 93.5044 52.3677 93.3911 52.5477C93.2778 52.7277 93.2211 52.9711 93.2211 53.2777V53.4477H97.3511V54.1777H92.4011ZM101.295 56.1777V49.2877H102.065V50.0977H102.205C102.332 49.8511 102.535 49.6311 102.815 49.4377C103.102 49.2444 103.498 49.1477 104.005 49.1477C104.425 49.1477 104.808 49.2511 105.155 49.4577C105.508 49.6577 105.788 49.9444 105.995 50.3177C106.208 50.6911 106.315 51.1411 106.315 51.6677V51.7977C106.315 52.3177 106.212 52.7677 106.005 53.1477C105.798 53.5277 105.518 53.8177 105.165 54.0177C104.818 54.2177 104.432 54.3177 104.005 54.3177C103.665 54.3177 103.375 54.2711 103.135 54.1777C102.902 54.0911 102.712 53.9777 102.565 53.8377C102.418 53.6977 102.305 53.5544 102.225 53.4077H102.085V56.1777H101.295ZM103.795 53.6177C104.302 53.6177 104.712 53.4577 105.025 53.1377C105.345 52.8111 105.505 52.3577 105.505 51.7777V51.6877C105.505 51.1077 105.345 50.6577 105.025 50.3377C104.712 50.0111 104.302 49.8477 103.795 49.8477C103.295 49.8477 102.882 50.0111 102.555 50.3377C102.235 50.6577 102.075 51.1077 102.075 51.6877V51.7777C102.075 52.3577 102.235 52.8111 102.555 53.1377C102.882 53.4577 103.295 53.6177 103.795 53.6177ZM109.97 54.3177C109.477 54.3177 109.044 54.2144 108.67 54.0077C108.297 53.7944 108.007 53.4977 107.8 53.1177C107.594 52.7377 107.49 52.2977 107.49 51.7977V51.6777C107.49 51.1711 107.594 50.7277 107.8 50.3477C108.007 49.9677 108.294 49.6744 108.66 49.4677C109.027 49.2544 109.447 49.1477 109.92 49.1477C110.38 49.1477 110.787 49.2477 111.14 49.4477C111.494 49.6411 111.77 49.9211 111.97 50.2877C112.17 50.6544 112.27 51.0844 112.27 51.5777V51.9377H108.28C108.3 52.4644 108.47 52.8777 108.79 53.1777C109.11 53.4711 109.51 53.6177 109.99 53.6177C110.41 53.6177 110.734 53.5211 110.96 53.3277C111.187 53.1344 111.36 52.9044 111.48 52.6377L112.16 52.9677C112.06 53.1744 111.92 53.3811 111.74 53.5877C111.567 53.7944 111.337 53.9677 111.05 54.1077C110.77 54.2477 110.41 54.3177 109.97 54.3177ZM108.29 51.2877H111.47C111.444 50.8344 111.287 50.4811 111 50.2277C110.72 49.9744 110.36 49.8477 109.92 49.8477C109.474 49.8477 109.107 49.9744 108.82 50.2277C108.534 50.4811 108.357 50.8344 108.29 51.2877ZM115.908 54.3177C115.415 54.3177 114.978 54.2144 114.598 54.0077C114.225 53.8011 113.932 53.5111 113.718 53.1377C113.512 52.7577 113.408 52.3111 113.408 51.7977V51.6677C113.408 51.1611 113.512 50.7177 113.718 50.3377C113.932 49.9577 114.225 49.6644 114.598 49.4577C114.978 49.2511 115.415 49.1477 115.908 49.1477C116.402 49.1477 116.835 49.2511 117.208 49.4577C117.588 49.6644 117.882 49.9577 118.088 50.3377C118.302 50.7177 118.408 51.1611 118.408 51.6677V51.7977C118.408 52.3111 118.302 52.7577 118.088 53.1377C117.882 53.5111 117.588 53.8011 117.208 54.0077C116.835 54.2144 116.402 54.3177 115.908 54.3177ZM115.908 53.6077C116.428 53.6077 116.842 53.4444 117.148 53.1177C117.462 52.7844 117.618 52.3377 117.618 51.7777V51.6877C117.618 51.1277 117.462 50.6844 117.148 50.3577C116.842 50.0244 116.428 49.8577 115.908 49.8577C115.395 49.8577 114.982 50.0244 114.668 50.3577C114.355 50.6844 114.198 51.1277 114.198 51.6877V51.7777C114.198 52.3377 114.355 52.7844 114.668 53.1177C114.982 53.4444 115.395 53.6077 115.908 53.6077ZM119.83 56.1777V49.2877H120.6V50.0977H120.74C120.867 49.8511 121.07 49.6311 121.35 49.4377C121.637 49.2444 122.033 49.1477 122.54 49.1477C122.96 49.1477 123.343 49.2511 123.69 49.4577C124.043 49.6577 124.323 49.9444 124.53 50.3177C124.743 50.6911 124.85 51.1411 124.85 51.6677V51.7977C124.85 52.3177 124.747 52.7677 124.54 53.1477C124.333 53.5277 124.053 53.8177 123.7 54.0177C123.353 54.2177 122.967 54.3177 122.54 54.3177C122.2 54.3177 121.91 54.2711 121.67 54.1777C121.437 54.0911 121.247 53.9777 121.1 53.8377C120.953 53.6977 120.84 53.5544 120.76 53.4077H120.62V56.1777H119.83ZM122.33 53.6177C122.837 53.6177 123.247 53.4577 123.56 53.1377C123.88 52.8111 124.04 52.3577 124.04 51.7777V51.6877C124.04 51.1077 123.88 50.6577 123.56 50.3377C123.247 50.0111 122.837 49.8477 122.33 49.8477C121.83 49.8477 121.417 50.0111 121.09 50.3377C120.77 50.6577 120.61 51.1077 120.61 51.6877V51.7777C120.61 52.3577 120.77 52.8111 121.09 53.1377C121.417 53.4577 121.83 53.6177 122.33 53.6177ZM126.266 54.1777V47.1777H127.056V54.1777H126.266ZM130.957 54.3177C130.463 54.3177 130.03 54.2144 129.657 54.0077C129.283 53.7944 128.993 53.4977 128.787 53.1177C128.58 52.7377 128.477 52.2977 128.477 51.7977V51.6777C128.477 51.1711 128.58 50.7277 128.787 50.3477C128.993 49.9677 129.28 49.6744 129.647 49.4677C130.013 49.2544 130.433 49.1477 130.907 49.1477C131.367 49.1477 131.773 49.2477 132.127 49.4477C132.48 49.6411 132.757 49.9211 132.957 50.2877C133.157 50.6544 133.257 51.0844 133.257 51.5777V51.9377H129.267C129.287 52.4644 129.457 52.8777 129.777 53.1777C130.097 53.4711 130.497 53.6177 130.977 53.6177C131.397 53.6177 131.72 53.5211 131.947 53.3277C132.173 53.1344 132.347 52.9044 132.467 52.6377L133.147 52.9677C133.047 53.1744 132.907 53.3811 132.727 53.5877C132.553 53.7944 132.323 53.9677 132.037 54.1077C131.757 54.2477 131.397 54.3177 130.957 54.3177ZM129.277 51.2877H132.457C132.43 50.8344 132.273 50.4811 131.987 50.2277C131.707 49.9744 131.347 49.8477 130.907 49.8477C130.46 49.8477 130.093 49.9744 129.807 50.2277C129.52 50.4811 129.343 50.8344 129.277 51.2877Z" fill="black"/>
</svg>
