<svg width="326" height="244" viewBox="0 0 326 244" fill="none" xmlns="http://www.w3.org/2000/svg">
<rect x="244.371" y="162.678" width="81.25" height="81.25" fill="#FEE0DD" stroke="white" stroke-width="4"/>
<rect x="163.121" y="162.678" width="81.25" height="81.25" fill="#FCC2BB" stroke="white" stroke-width="4"/>
<path fill-rule="evenodd" clip-rule="evenodd" d="M0.621094 0.177734H81.8711H163.121H244.371H325.621V81.4277H244.371H163.121H81.8711V162.678H0.621094V81.4277V0.177734Z" fill="#F6331C"/>
<path d="M0.621094 0.177734V-1.82227H-1.37891V0.177734H0.621094ZM325.621 0.177734H327.621V-1.82227H325.621V0.177734ZM325.621 81.4277V83.4277H327.621V81.4277H325.621ZM81.8711 81.4277V79.4277H79.8711V81.4277H81.8711ZM81.8711 162.678V164.678H83.8711V162.678H81.8711ZM0.621094 162.678H-1.37891V164.678H0.621094V162.678ZM81.8711 -1.82227H0.621094V2.17773H81.8711V-1.82227ZM163.121 -1.82227H81.8711V2.17773H163.121V-1.82227ZM244.371 -1.82227H163.121V2.17773H244.371V-1.82227ZM325.621 -1.82227H244.371V2.17773H325.621V-1.82227ZM327.621 81.4277V0.177734H323.621V81.4277H327.621ZM244.371 83.4277H325.621V79.4277H244.371V83.4277ZM163.121 83.4277H244.371V79.4277H163.121V83.4277ZM81.8711 83.4277H163.121V79.4277H81.8711V83.4277ZM79.8711 81.4277V162.678H83.8711V81.4277H79.8711ZM81.8711 160.678H0.621094V164.678H81.8711V160.678ZM2.62109 162.678V81.4277H-1.37891V162.678H2.62109ZM-1.37891 0.177734V81.4277H2.62109V0.177734H-1.37891Z" fill="white"/>
<path fill-rule="evenodd" clip-rule="evenodd" d="M163.121 81.4287H81.8711V162.679H163.121H244.367H244.371H325.617V81.4287H244.371H244.367H163.121Z" fill="#F8604E"/>
<path d="M81.8711 81.4287V79.4287H79.8711V81.4287H81.8711ZM81.8711 162.679H79.8711V164.679H81.8711V162.679ZM325.617 162.679V164.679H327.617V162.679H325.617ZM325.617 81.4287H327.617V79.4287H325.617V81.4287ZM81.8711 83.4287H163.121V79.4287H81.8711V83.4287ZM83.8711 162.679V81.4287H79.8711V162.679H83.8711ZM163.121 160.679H81.8711V164.679H163.121V160.679ZM163.121 164.679H244.367V160.679H163.121V164.679ZM244.367 164.679H244.371V160.679H244.367V164.679ZM244.371 164.679H325.617V160.679H244.371V164.679ZM327.617 162.679V81.4287H323.617V162.679H327.617ZM325.617 79.4287H244.371V83.4287H325.617V79.4287ZM244.371 79.4287H244.367V83.4287H244.371V79.4287ZM244.367 79.4287H163.121V83.4287H244.367V79.4287Z" fill="white"/>
<path fill-rule="evenodd" clip-rule="evenodd" d="M81.8711 162.677H0.621094V243.927H81.8711H163.121V162.677H81.8711Z" fill="#FB998D"/>
<path d="M0.621094 162.677V160.677H-1.37891V162.677H0.621094ZM0.621094 243.927H-1.37891V245.927H0.621094V243.927ZM163.121 243.927V245.927H165.121V243.927H163.121ZM163.121 162.677H165.121V160.677H163.121V162.677ZM0.621094 164.677H81.8711V160.677H0.621094V164.677ZM2.62109 243.927V162.677H-1.37891V243.927H2.62109ZM81.8711 241.927H0.621094V245.927H81.8711V241.927ZM163.121 241.927H81.8711V245.927H163.121V241.927ZM161.121 162.677V243.927H165.121V162.677H161.121ZM81.8711 164.677H163.121V160.677H81.8711V164.677Z" fill="white"/>
<path d="M11.1731 20.1777V18.7857H12.2771V13.1697H11.1731V11.7777H15.4931C16.0051 11.7777 16.4491 11.8657 16.8251 12.0417C17.2091 12.2097 17.5051 12.4537 17.7131 12.7737C17.9291 13.0857 18.0371 13.4617 18.0371 13.9017V14.0217C18.0371 14.4057 17.9651 14.7217 17.8211 14.9697C17.6771 15.2097 17.5051 15.3977 17.3051 15.5337C17.1131 15.6617 16.9291 15.7537 16.7531 15.8097V16.0257C16.9291 16.0737 17.1211 16.1657 17.3291 16.3017C17.5371 16.4297 17.7131 16.6177 17.8571 16.8657C18.0091 17.1137 18.0851 17.4377 18.0851 17.8377V17.9577C18.0851 18.4217 17.9771 18.8217 17.7611 19.1577C17.5451 19.4857 17.2451 19.7377 16.8611 19.9137C16.4851 20.0897 16.0451 20.1777 15.5411 20.1777H11.1731ZM13.8611 18.7377H15.3491C15.6931 18.7377 15.9691 18.6537 16.1771 18.4857C16.3931 18.3177 16.5011 18.0777 16.5011 17.7657V17.6457C16.5011 17.3337 16.3971 17.0937 16.1891 16.9257C15.9811 16.7577 15.7011 16.6737 15.3491 16.6737H13.8611V18.7377ZM13.8611 15.2337H15.3251C15.6531 15.2337 15.9211 15.1497 16.1291 14.9817C16.3451 14.8137 16.4531 14.5817 16.4531 14.2857V14.1657C16.4531 13.8617 16.3491 13.6297 16.1411 13.4697C15.9331 13.3017 15.6611 13.2177 15.3251 13.2177H13.8611V15.2337ZM19.4298 20.1777V11.7777H20.9418V20.1777H19.4298ZM24.4653 20.3457C24.0413 20.3457 23.6613 20.2737 23.3253 20.1297C22.9893 19.9777 22.7213 19.7617 22.5213 19.4817C22.3293 19.1937 22.2333 18.8457 22.2333 18.4377C22.2333 18.0297 22.3293 17.6897 22.5213 17.4177C22.7213 17.1377 22.9933 16.9297 23.3373 16.7937C23.6893 16.6497 24.0893 16.5777 24.5373 16.5777H26.1693V16.2417C26.1693 15.9617 26.0813 15.7337 25.9053 15.5577C25.7293 15.3737 25.4493 15.2817 25.0653 15.2817C24.6893 15.2817 24.4093 15.3697 24.2253 15.5457C24.0413 15.7137 23.9213 15.9337 23.8653 16.2057L22.4733 15.7377C22.5693 15.4337 22.7213 15.1577 22.9293 14.9097C23.1453 14.6537 23.4293 14.4497 23.7813 14.2977C24.1413 14.1377 24.5773 14.0577 25.0893 14.0577C25.8733 14.0577 26.4933 14.2537 26.9493 14.6457C27.4053 15.0377 27.6333 15.6057 27.6333 16.3497V18.5697C27.6333 18.8097 27.7453 18.9297 27.9693 18.9297H28.4493V20.1777H27.4413C27.1453 20.1777 26.9013 20.1057 26.7093 19.9617C26.5173 19.8177 26.4213 19.6257 26.4213 19.3857V19.3737H26.1933C26.1613 19.4697 26.0893 19.5977 25.9773 19.7577C25.8653 19.9097 25.6893 20.0457 25.4493 20.1657C25.2093 20.2857 24.8813 20.3457 24.4653 20.3457ZM24.7293 19.1217C25.1533 19.1217 25.4973 19.0057 25.7613 18.7737C26.0333 18.5337 26.1693 18.2177 26.1693 17.8257V17.7057H24.6453C24.3653 17.7057 24.1453 17.7657 23.9853 17.8857C23.8253 18.0057 23.7453 18.1737 23.7453 18.3897C23.7453 18.6057 23.8293 18.7817 23.9973 18.9177C24.1653 19.0537 24.4093 19.1217 24.7293 19.1217ZM32.2337 20.3457C31.6577 20.3457 31.1337 20.2257 30.6617 19.9857C30.1977 19.7457 29.8297 19.3977 29.5577 18.9417C29.2857 18.4857 29.1497 17.9337 29.1497 17.2857V17.1177C29.1497 16.4697 29.2857 15.9177 29.5577 15.4617C29.8297 15.0057 30.1977 14.6577 30.6617 14.4177C31.1337 14.1777 31.6577 14.0577 32.2337 14.0577C32.8017 14.0577 33.2897 14.1577 33.6977 14.3577C34.1057 14.5577 34.4337 14.8337 34.6817 15.1857C34.9377 15.5297 35.1057 15.9217 35.1857 16.3617L33.7217 16.6737C33.6897 16.4337 33.6177 16.2177 33.5057 16.0257C33.3937 15.8337 33.2337 15.6817 33.0257 15.5697C32.8257 15.4577 32.5737 15.4017 32.2697 15.4017C31.9657 15.4017 31.6897 15.4697 31.4417 15.6057C31.2017 15.7337 31.0097 15.9297 30.8657 16.1937C30.7297 16.4497 30.6617 16.7657 30.6617 17.1417V17.2617C30.6617 17.6377 30.7297 17.9577 30.8657 18.2217C31.0097 18.4777 31.2017 18.6737 31.4417 18.8097C31.6897 18.9377 31.9657 19.0017 32.2697 19.0017C32.7257 19.0017 33.0697 18.8857 33.3017 18.6537C33.5417 18.4137 33.6937 18.1017 33.7577 17.7177L35.2217 18.0657C35.1177 18.4897 34.9377 18.8777 34.6817 19.2297C34.4337 19.5737 34.1057 19.8457 33.6977 20.0457C33.2897 20.2457 32.8017 20.3457 32.2337 20.3457ZM36.4689 20.1777V11.7777H37.9809V16.4217H38.1969L40.1649 14.2257H42.1329L39.3849 17.1057L42.2289 20.1777H40.2849L38.1969 17.8137H37.9809V20.1777H36.4689ZM13.6411 38.3177C13.1278 38.3177 12.6844 38.2211 12.3111 38.0277C11.9378 37.8277 11.6478 37.5544 11.4411 37.2077C11.2344 36.8544 11.1311 36.4477 11.1311 35.9877V35.8677H11.9411V35.9577C11.9411 36.4844 12.0944 36.8877 12.4011 37.1677C12.7078 37.4477 13.1144 37.5877 13.6211 37.5877C14.1544 37.5877 14.5711 37.4377 14.8711 37.1377C15.1711 36.8377 15.3211 36.4277 15.3211 35.9077V35.8177C15.3211 35.3177 15.1744 34.9211 14.8811 34.6277C14.5944 34.3277 14.2211 34.1777 13.7611 34.1777C13.4944 34.1777 13.2744 34.2211 13.1011 34.3077C12.9278 34.3877 12.7911 34.4911 12.6911 34.6177C12.5911 34.7377 12.5078 34.8544 12.4411 34.9677H11.3411V31.1777H15.9411V31.9077H12.1511V34.3277H12.2911C12.3644 34.1944 12.4644 34.0644 12.5911 33.9377C12.7244 33.8111 12.9011 33.7044 13.1211 33.6177C13.3411 33.5311 13.6144 33.4877 13.9411 33.4877C14.3478 33.4877 14.7144 33.5811 15.0411 33.7677C15.3744 33.9544 15.6378 34.2211 15.8311 34.5677C16.0311 34.9144 16.1311 35.3277 16.1311 35.8077V35.9177C16.1311 36.3911 16.0311 36.8077 15.8311 37.1677C15.6311 37.5277 15.3444 37.8111 14.9711 38.0177C14.5978 38.2177 14.1544 38.3177 13.6411 38.3177ZM20.0058 40.1777V33.2877H20.7758V34.0977H20.9158C21.0424 33.8511 21.2458 33.6311 21.5258 33.4377C21.8124 33.2444 22.2091 33.1477 22.7158 33.1477C23.1358 33.1477 23.5191 33.2511 23.8658 33.4577C24.2191 33.6577 24.4991 33.9444 24.7058 34.3177C24.9191 34.6911 25.0258 35.1411 25.0258 35.6677V35.7977C25.0258 36.3177 24.9224 36.7677 24.7158 37.1477C24.5091 37.5277 24.2291 37.8177 23.8758 38.0177C23.5291 38.2177 23.1424 38.3177 22.7158 38.3177C22.3758 38.3177 22.0858 38.2711 21.8458 38.1777C21.6124 38.0911 21.4224 37.9777 21.2758 37.8377C21.1291 37.6977 21.0158 37.5544 20.9358 37.4077H20.7958V40.1777H20.0058ZM22.5058 37.6177C23.0124 37.6177 23.4224 37.4577 23.7358 37.1377C24.0558 36.8111 24.2158 36.3577 24.2158 35.7777V35.6877C24.2158 35.1077 24.0558 34.6577 23.7358 34.3377C23.4224 34.0111 23.0124 33.8477 22.5058 33.8477C22.0058 33.8477 21.5924 34.0111 21.2658 34.3377C20.9458 34.6577 20.7858 35.1077 20.7858 35.6877V35.7777C20.7858 36.3577 20.9458 36.8111 21.2658 37.1377C21.5924 37.4577 22.0058 37.6177 22.5058 37.6177ZM28.6813 38.3177C28.188 38.3177 27.7547 38.2144 27.3813 38.0077C27.008 37.7944 26.718 37.4977 26.5113 37.1177C26.3047 36.7377 26.2013 36.2977 26.2013 35.7977V35.6777C26.2013 35.1711 26.3047 34.7277 26.5113 34.3477C26.718 33.9677 27.0047 33.6744 27.3713 33.4677C27.738 33.2544 28.158 33.1477 28.6313 33.1477C29.0913 33.1477 29.498 33.2477 29.8513 33.4477C30.2047 33.6411 30.4813 33.9211 30.6813 34.2877C30.8813 34.6544 30.9813 35.0844 30.9813 35.5777V35.9377H26.9913C27.0113 36.4644 27.1813 36.8777 27.5013 37.1777C27.8213 37.4711 28.2213 37.6177 28.7013 37.6177C29.1213 37.6177 29.4447 37.5211 29.6713 37.3277C29.898 37.1344 30.0713 36.9044 30.1913 36.6377L30.8713 36.9677C30.7713 37.1744 30.6313 37.3811 30.4513 37.5877C30.278 37.7944 30.048 37.9677 29.7613 38.1077C29.4813 38.2477 29.1213 38.3177 28.6813 38.3177ZM27.0013 35.2877H30.1813C30.1547 34.8344 29.998 34.4811 29.7113 34.2277C29.4313 33.9744 29.0713 33.8477 28.6313 33.8477C28.1847 33.8477 27.818 33.9744 27.5313 34.2277C27.2447 34.4811 27.068 34.8344 27.0013 35.2877ZM34.6193 38.3177C34.126 38.3177 33.6893 38.2144 33.3093 38.0077C32.936 37.8011 32.6426 37.5111 32.4293 37.1377C32.2226 36.7577 32.1193 36.3111 32.1193 35.7977V35.6677C32.1193 35.1611 32.2226 34.7177 32.4293 34.3377C32.6426 33.9577 32.936 33.6644 33.3093 33.4577C33.6893 33.2511 34.126 33.1477 34.6193 33.1477C35.1126 33.1477 35.546 33.2511 35.9193 33.4577C36.2993 33.6644 36.5926 33.9577 36.7993 34.3377C37.0126 34.7177 37.1193 35.1611 37.1193 35.6677V35.7977C37.1193 36.3111 37.0126 36.7577 36.7993 37.1377C36.5926 37.5111 36.2993 37.8011 35.9193 38.0077C35.546 38.2144 35.1126 38.3177 34.6193 38.3177ZM34.6193 37.6077C35.1393 37.6077 35.5526 37.4444 35.8593 37.1177C36.1726 36.7844 36.3293 36.3377 36.3293 35.7777V35.6877C36.3293 35.1277 36.1726 34.6844 35.8593 34.3577C35.5526 34.0244 35.1393 33.8577 34.6193 33.8577C34.106 33.8577 33.6926 34.0244 33.3793 34.3577C33.066 34.6844 32.9093 35.1277 32.9093 35.6877V35.7777C32.9093 36.3377 33.066 36.7844 33.3793 37.1177C33.6926 37.4444 34.106 37.6077 34.6193 37.6077ZM38.5409 40.1777V33.2877H39.3109V34.0977H39.4509C39.5776 33.8511 39.7809 33.6311 40.0609 33.4377C40.3476 33.2444 40.7443 33.1477 41.2509 33.1477C41.6709 33.1477 42.0543 33.2511 42.4009 33.4577C42.7543 33.6577 43.0343 33.9444 43.2409 34.3177C43.4543 34.6911 43.5609 35.1411 43.5609 35.6677V35.7977C43.5609 36.3177 43.4576 36.7677 43.2509 37.1477C43.0443 37.5277 42.7643 37.8177 42.4109 38.0177C42.0643 38.2177 41.6776 38.3177 41.2509 38.3177C40.9109 38.3177 40.6209 38.2711 40.3809 38.1777C40.1476 38.0911 39.9576 37.9777 39.8109 37.8377C39.6643 37.6977 39.5509 37.5544 39.4709 37.4077H39.3309V40.1777H38.5409ZM41.0409 37.6177C41.5476 37.6177 41.9576 37.4577 42.2709 37.1377C42.5909 36.8111 42.7509 36.3577 42.7509 35.7777V35.6877C42.7509 35.1077 42.5909 34.6577 42.2709 34.3377C41.9576 34.0111 41.5476 33.8477 41.0409 33.8477C40.5409 33.8477 40.1276 34.0111 39.8009 34.3377C39.4809 34.6577 39.3209 35.1077 39.3209 35.6877V35.7777C39.3209 36.3577 39.4809 36.8111 39.8009 37.1377C40.1276 37.4577 40.5409 37.6177 41.0409 37.6177ZM44.9765 38.1777V31.1777H45.7665V38.1777H44.9765ZM49.6677 38.3177C49.1743 38.3177 48.741 38.2144 48.3677 38.0077C47.9943 37.7944 47.7043 37.4977 47.4977 37.1177C47.291 36.7377 47.1877 36.2977 47.1877 35.7977V35.6777C47.1877 35.1711 47.291 34.7277 47.4977 34.3477C47.7043 33.9677 47.991 33.6744 48.3577 33.4677C48.7243 33.2544 49.1443 33.1477 49.6177 33.1477C50.0777 33.1477 50.4843 33.2477 50.8377 33.4477C51.191 33.6411 51.4677 33.9211 51.6677 34.2877C51.8677 34.6544 51.9677 35.0844 51.9677 35.5777V35.9377H47.9777C47.9977 36.4644 48.1677 36.8777 48.4877 37.1777C48.8077 37.4711 49.2077 37.6177 49.6877 37.6177C50.1077 37.6177 50.431 37.5211 50.6577 37.3277C50.8843 37.1344 51.0577 36.9044 51.1777 36.6377L51.8577 36.9677C51.7577 37.1744 51.6177 37.3811 51.4377 37.5877C51.2643 37.7944 51.0343 37.9677 50.7477 38.1077C50.4677 38.2477 50.1077 38.3177 49.6677 38.3177ZM47.9877 35.2877H51.1677C51.141 34.8344 50.9843 34.4811 50.6977 34.2277C50.4177 33.9744 50.0577 33.8477 49.6177 33.8477C49.171 33.8477 48.8043 33.9744 48.5177 34.2277C48.231 34.4811 48.0543 34.8344 47.9877 35.2877Z" fill="white"/>
<path d="M173.341 182.677L175.549 174.277H178.309L180.517 182.677H178.885L178.429 180.829H175.429L174.973 182.677H173.341ZM175.801 179.365H178.057L177.037 175.273H176.821L175.801 179.365ZM181.57 182.677V176.725H183.058V177.397H183.274C183.362 177.157 183.506 176.981 183.706 176.869C183.914 176.757 184.154 176.701 184.426 176.701H185.146V178.045H184.402C184.018 178.045 183.702 178.149 183.454 178.357C183.206 178.557 183.082 178.869 183.082 179.293V182.677H181.57ZM188.036 182.845C187.612 182.845 187.232 182.773 186.896 182.629C186.56 182.477 186.292 182.261 186.092 181.981C185.9 181.693 185.804 181.345 185.804 180.937C185.804 180.529 185.9 180.189 186.092 179.917C186.292 179.637 186.564 179.429 186.908 179.293C187.26 179.149 187.66 179.077 188.108 179.077H189.74V178.741C189.74 178.461 189.652 178.233 189.476 178.057C189.3 177.873 189.02 177.781 188.636 177.781C188.26 177.781 187.98 177.869 187.796 178.045C187.612 178.213 187.492 178.433 187.436 178.705L186.044 178.237C186.14 177.933 186.292 177.657 186.5 177.409C186.716 177.153 187 176.949 187.352 176.797C187.712 176.637 188.148 176.557 188.66 176.557C189.444 176.557 190.064 176.753 190.52 177.145C190.976 177.537 191.204 178.105 191.204 178.849V181.069C191.204 181.309 191.316 181.429 191.54 181.429H192.02V182.677H191.012C190.716 182.677 190.472 182.605 190.28 182.461C190.088 182.317 189.992 182.125 189.992 181.885V181.873H189.764C189.732 181.969 189.66 182.097 189.548 182.257C189.436 182.409 189.26 182.545 189.02 182.665C188.78 182.785 188.452 182.845 188.036 182.845ZM188.3 181.621C188.724 181.621 189.068 181.505 189.332 181.273C189.604 181.033 189.74 180.717 189.74 180.325V180.205H188.216C187.936 180.205 187.716 180.265 187.556 180.385C187.396 180.505 187.316 180.673 187.316 180.889C187.316 181.105 187.4 181.281 187.568 181.417C187.736 181.553 187.98 181.621 188.3 181.621ZM196.701 182.845C196.165 182.845 195.753 182.753 195.465 182.569C195.177 182.385 194.965 182.181 194.829 181.957H194.613V182.677H193.125V174.277H194.637V177.409H194.853C194.941 177.265 195.057 177.129 195.201 177.001C195.353 176.873 195.549 176.769 195.789 176.689C196.037 176.601 196.341 176.557 196.701 176.557C197.181 176.557 197.625 176.677 198.033 176.917C198.441 177.149 198.769 177.493 199.017 177.949C199.265 178.405 199.389 178.957 199.389 179.605V179.797C199.389 180.445 199.265 180.997 199.017 181.453C198.769 181.909 198.441 182.257 198.033 182.497C197.625 182.729 197.181 182.845 196.701 182.845ZM196.245 181.525C196.709 181.525 197.097 181.377 197.409 181.081C197.721 180.777 197.877 180.337 197.877 179.761V179.641C197.877 179.065 197.721 178.629 197.409 178.333C197.105 178.029 196.717 177.877 196.245 177.877C195.781 177.877 195.393 178.029 195.081 178.333C194.769 178.629 194.613 179.065 194.613 179.641V179.761C194.613 180.337 194.769 180.777 195.081 181.081C195.393 181.377 195.781 181.525 196.245 181.525ZM175.695 200.677V194.217H175.545L174.185 196.707H173.305L174.975 193.677H176.505V200.677H175.695ZM180.703 202.677V195.787H181.473V196.597H181.613C181.74 196.35 181.943 196.13 182.223 195.937C182.51 195.743 182.906 195.647 183.413 195.647C183.833 195.647 184.216 195.75 184.563 195.957C184.916 196.157 185.196 196.443 185.403 196.817C185.616 197.19 185.723 197.64 185.723 198.167V198.297C185.723 198.817 185.62 199.267 185.413 199.647C185.206 200.027 184.926 200.317 184.573 200.517C184.226 200.717 183.84 200.817 183.413 200.817C183.073 200.817 182.783 200.77 182.543 200.677C182.31 200.59 182.12 200.477 181.973 200.337C181.826 200.197 181.713 200.053 181.633 199.907H181.493V202.677H180.703ZM183.203 200.117C183.71 200.117 184.12 199.957 184.433 199.637C184.753 199.31 184.913 198.857 184.913 198.277V198.187C184.913 197.607 184.753 197.157 184.433 196.837C184.12 196.51 183.71 196.347 183.203 196.347C182.703 196.347 182.29 196.51 181.963 196.837C181.643 197.157 181.483 197.607 181.483 198.187V198.277C181.483 198.857 181.643 199.31 181.963 199.637C182.29 199.957 182.703 200.117 183.203 200.117ZM189.379 200.817C188.885 200.817 188.452 200.713 188.079 200.507C187.705 200.293 187.415 199.997 187.209 199.617C187.002 199.237 186.899 198.797 186.899 198.297V198.177C186.899 197.67 187.002 197.227 187.209 196.847C187.415 196.467 187.702 196.173 188.069 195.967C188.435 195.753 188.855 195.647 189.329 195.647C189.789 195.647 190.195 195.747 190.549 195.947C190.902 196.14 191.179 196.42 191.379 196.787C191.579 197.153 191.679 197.583 191.679 198.077V198.437H187.689C187.709 198.963 187.879 199.377 188.199 199.677C188.519 199.97 188.919 200.117 189.399 200.117C189.819 200.117 190.142 200.02 190.369 199.827C190.595 199.633 190.769 199.403 190.889 199.137L191.569 199.467C191.469 199.673 191.329 199.88 191.149 200.087C190.975 200.293 190.745 200.467 190.459 200.607C190.179 200.747 189.819 200.817 189.379 200.817ZM187.699 197.787H190.879C190.852 197.333 190.695 196.98 190.409 196.727C190.129 196.473 189.769 196.347 189.329 196.347C188.882 196.347 188.515 196.473 188.229 196.727C187.942 196.98 187.765 197.333 187.699 197.787ZM193.057 200.677V195.787H193.827V196.387H193.967C194.053 196.173 194.187 196.017 194.367 195.917C194.547 195.817 194.783 195.767 195.077 195.767H195.657V196.487H195.027C194.673 196.487 194.387 196.587 194.167 196.787C193.953 196.98 193.847 197.283 193.847 197.697V200.677H193.057ZM198.698 200.817C198.092 200.817 197.578 200.677 197.158 200.397C196.745 200.117 196.495 199.673 196.408 199.067L197.158 198.897C197.212 199.217 197.312 199.47 197.458 199.657C197.605 199.837 197.785 199.967 197.998 200.047C198.218 200.12 198.452 200.157 198.698 200.157C199.065 200.157 199.355 200.083 199.568 199.937C199.782 199.79 199.888 199.593 199.888 199.347C199.888 199.093 199.785 198.917 199.578 198.817C199.378 198.71 199.102 198.623 198.748 198.557L198.338 198.487C198.025 198.433 197.738 198.35 197.478 198.237C197.218 198.123 197.012 197.97 196.858 197.777C196.705 197.583 196.628 197.34 196.628 197.047C196.628 196.607 196.798 196.263 197.138 196.017C197.478 195.77 197.928 195.647 198.488 195.647C199.042 195.647 199.488 195.773 199.828 196.027C200.175 196.273 200.398 196.623 200.498 197.077L199.758 197.267C199.698 196.913 199.555 196.667 199.328 196.527C199.102 196.38 198.822 196.307 198.488 196.307C198.155 196.307 197.892 196.37 197.698 196.497C197.505 196.617 197.408 196.797 197.408 197.037C197.408 197.27 197.498 197.443 197.678 197.557C197.865 197.663 198.112 197.743 198.418 197.797L198.828 197.867C199.175 197.927 199.485 198.01 199.758 198.117C200.038 198.217 200.258 198.363 200.418 198.557C200.585 198.75 200.668 199.003 200.668 199.317C200.668 199.797 200.488 200.167 200.128 200.427C199.775 200.687 199.298 200.817 198.698 200.817ZM204.262 200.817C203.769 200.817 203.332 200.713 202.952 200.507C202.579 200.3 202.285 200.01 202.072 199.637C201.865 199.257 201.762 198.81 201.762 198.297V198.167C201.762 197.66 201.865 197.217 202.072 196.837C202.285 196.457 202.579 196.163 202.952 195.957C203.332 195.75 203.769 195.647 204.262 195.647C204.755 195.647 205.189 195.75 205.562 195.957C205.942 196.163 206.235 196.457 206.442 196.837C206.655 197.217 206.762 197.66 206.762 198.167V198.297C206.762 198.81 206.655 199.257 206.442 199.637C206.235 200.01 205.942 200.3 205.562 200.507C205.189 200.713 204.755 200.817 204.262 200.817ZM204.262 200.107C204.782 200.107 205.195 199.943 205.502 199.617C205.815 199.283 205.972 198.837 205.972 198.277V198.187C205.972 197.627 205.815 197.183 205.502 196.857C205.195 196.523 204.782 196.357 204.262 196.357C203.749 196.357 203.335 196.523 203.022 196.857C202.709 197.183 202.552 197.627 202.552 198.187V198.277C202.552 198.837 202.709 199.283 203.022 199.617C203.335 199.943 203.749 200.107 204.262 200.107ZM208.184 200.677V195.787H208.954V196.617H209.094C209.2 196.383 209.38 196.173 209.634 195.987C209.894 195.793 210.274 195.697 210.774 195.697C211.14 195.697 211.467 195.773 211.754 195.927C212.047 196.08 212.28 196.307 212.454 196.607C212.627 196.907 212.714 197.277 212.714 197.717V200.677H211.924V197.777C211.924 197.29 211.8 196.937 211.554 196.717C211.314 196.497 210.987 196.387 210.574 196.387C210.1 196.387 209.714 196.54 209.414 196.847C209.12 197.153 208.974 197.61 208.974 198.217V200.677H208.184Z" fill="black"/>
<path d="M92.0871 101.429L94.2951 93.0287H97.0551L99.2631 101.429H97.6311L97.1751 99.5807H94.1751L93.7191 101.429H92.0871ZM94.5471 98.1167H96.8031L95.7831 94.0247H95.5671L94.5471 98.1167ZM102.789 101.597C102.013 101.597 101.377 101.429 100.881 101.093C100.385 100.757 100.085 100.277 99.9806 99.6527L101.373 99.2927C101.429 99.5727 101.521 99.7927 101.649 99.9527C101.785 100.113 101.949 100.229 102.141 100.301C102.341 100.365 102.557 100.397 102.789 100.397C103.141 100.397 103.401 100.337 103.569 100.217C103.737 100.089 103.821 99.9327 103.821 99.7487C103.821 99.5647 103.741 99.4247 103.581 99.3287C103.421 99.2247 103.165 99.1407 102.813 99.0767L102.477 99.0167C102.061 98.9367 101.681 98.8287 101.337 98.6927C100.993 98.5487 100.717 98.3527 100.509 98.1047C100.301 97.8567 100.197 97.5367 100.197 97.1447C100.197 96.5527 100.413 96.1007 100.845 95.7887C101.277 95.4687 101.845 95.3087 102.549 95.3087C103.213 95.3087 103.765 95.4567 104.205 95.7527C104.645 96.0487 104.933 96.4367 105.069 96.9167L103.665 97.3487C103.601 97.0447 103.469 96.8287 103.269 96.7007C103.077 96.5727 102.837 96.5087 102.549 96.5087C102.261 96.5087 102.041 96.5607 101.889 96.6647C101.737 96.7607 101.661 96.8967 101.661 97.0727C101.661 97.2647 101.741 97.4087 101.901 97.5047C102.061 97.5927 102.277 97.6607 102.549 97.7087L102.885 97.7687C103.333 97.8487 103.737 97.9567 104.097 98.0927C104.465 98.2207 104.753 98.4087 104.961 98.6567C105.177 98.8967 105.285 99.2247 105.285 99.6407C105.285 100.265 105.057 100.749 104.601 101.093C104.153 101.429 103.549 101.597 102.789 101.597ZM106.61 101.429V95.4767H108.122V101.429H106.61ZM107.366 94.7807C107.094 94.7807 106.862 94.6927 106.67 94.5167C106.486 94.3407 106.394 94.1087 106.394 93.8207C106.394 93.5327 106.486 93.3007 106.67 93.1247C106.862 92.9487 107.094 92.8607 107.366 92.8607C107.646 92.8607 107.878 92.9487 108.062 93.1247C108.246 93.3007 108.338 93.5327 108.338 93.8207C108.338 94.1087 108.246 94.3407 108.062 94.5167C107.878 94.6927 107.646 94.7807 107.366 94.7807ZM111.645 101.597C111.221 101.597 110.841 101.525 110.505 101.381C110.169 101.229 109.901 101.013 109.701 100.733C109.509 100.445 109.413 100.097 109.413 99.6887C109.413 99.2807 109.509 98.9407 109.701 98.6687C109.901 98.3887 110.173 98.1807 110.517 98.0447C110.869 97.9007 111.269 97.8287 111.717 97.8287H113.349V97.4927C113.349 97.2127 113.261 96.9847 113.085 96.8087C112.909 96.6247 112.629 96.5327 112.245 96.5327C111.869 96.5327 111.589 96.6207 111.405 96.7967C111.221 96.9647 111.101 97.1847 111.045 97.4567L109.653 96.9887C109.749 96.6847 109.901 96.4087 110.109 96.1607C110.325 95.9047 110.609 95.7007 110.961 95.5487C111.321 95.3887 111.757 95.3087 112.269 95.3087C113.053 95.3087 113.673 95.5047 114.129 95.8967C114.585 96.2887 114.813 96.8567 114.813 97.6007V99.8207C114.813 100.061 114.925 100.181 115.149 100.181H115.629V101.429H114.621C114.325 101.429 114.081 101.357 113.889 101.213C113.697 101.069 113.601 100.877 113.601 100.637V100.625H113.373C113.341 100.721 113.269 100.849 113.157 101.009C113.045 101.161 112.869 101.297 112.629 101.417C112.389 101.537 112.061 101.597 111.645 101.597ZM111.909 100.373C112.333 100.373 112.677 100.257 112.941 100.025C113.213 99.7847 113.349 99.4687 113.349 99.0767V98.9567H111.825C111.545 98.9567 111.325 99.0167 111.165 99.1367C111.005 99.2567 110.925 99.4247 110.925 99.6407C110.925 99.8567 111.009 100.033 111.177 100.169C111.345 100.305 111.589 100.373 111.909 100.373ZM116.735 101.429V95.4767H118.223V96.2567H118.439C118.535 96.0487 118.715 95.8527 118.979 95.6687C119.243 95.4767 119.643 95.3807 120.179 95.3807C120.643 95.3807 121.047 95.4887 121.391 95.7047C121.743 95.9127 122.015 96.2047 122.207 96.5807C122.399 96.9487 122.495 97.3807 122.495 97.8767V101.429H120.983V97.9967C120.983 97.5487 120.871 97.2127 120.647 96.9887C120.431 96.7647 120.119 96.6527 119.711 96.6527C119.247 96.6527 118.887 96.8087 118.631 97.1207C118.375 97.4247 118.247 97.8527 118.247 98.4047V101.429H116.735ZM94.9011 119.569C94.4078 119.569 93.9644 119.475 93.5711 119.289C93.1844 119.102 92.8778 118.832 92.6511 118.479C92.4311 118.125 92.3211 117.699 92.3211 117.199V117.009H93.1311V117.189C93.1311 117.702 93.2944 118.105 93.6211 118.399C93.9478 118.692 94.3744 118.839 94.9011 118.839C95.4344 118.839 95.8478 118.702 96.1411 118.429C96.4411 118.149 96.5911 117.799 96.5911 117.379V117.299C96.5911 116.992 96.5178 116.745 96.3711 116.559C96.2244 116.365 96.0244 116.225 95.7711 116.139C95.5244 116.045 95.2511 115.999 94.9511 115.999H93.8111V114.989L96.4811 113.279V113.159H92.4911V112.429H97.3411V113.559L94.7311 115.239V115.359H95.2311C95.6244 115.359 95.9844 115.432 96.3111 115.579C96.6444 115.719 96.9078 115.932 97.1011 116.219C97.3011 116.499 97.4011 116.852 97.4011 117.279V117.389C97.4011 117.829 97.2978 118.212 97.0911 118.539C96.8844 118.865 96.5944 119.119 96.2211 119.299C95.8478 119.479 95.4078 119.569 94.9011 119.569ZM101.305 121.429V114.539H102.075V115.349H102.215C102.341 115.102 102.545 114.882 102.825 114.689C103.111 114.495 103.508 114.399 104.015 114.399C104.435 114.399 104.818 114.502 105.165 114.709C105.518 114.909 105.798 115.195 106.005 115.569C106.218 115.942 106.325 116.392 106.325 116.919V117.049C106.325 117.569 106.221 118.019 106.015 118.399C105.808 118.779 105.528 119.069 105.175 119.269C104.828 119.469 104.441 119.569 104.015 119.569C103.675 119.569 103.385 119.522 103.145 119.429C102.911 119.342 102.721 119.229 102.575 119.089C102.428 118.949 102.315 118.805 102.235 118.659H102.095V121.429H101.305ZM103.805 118.869C104.311 118.869 104.721 118.709 105.035 118.389C105.355 118.062 105.515 117.609 105.515 117.029V116.939C105.515 116.359 105.355 115.909 105.035 115.589C104.721 115.262 104.311 115.099 103.805 115.099C103.305 115.099 102.891 115.262 102.565 115.589C102.245 115.909 102.085 116.359 102.085 116.939V117.029C102.085 117.609 102.245 118.062 102.565 118.389C102.891 118.709 103.305 118.869 103.805 118.869ZM109.98 119.569C109.487 119.569 109.053 119.465 108.68 119.259C108.307 119.045 108.017 118.749 107.81 118.369C107.603 117.989 107.5 117.549 107.5 117.049V116.929C107.5 116.422 107.603 115.979 107.81 115.599C108.017 115.219 108.303 114.925 108.67 114.719C109.037 114.505 109.457 114.399 109.93 114.399C110.39 114.399 110.797 114.499 111.15 114.699C111.503 114.892 111.78 115.172 111.98 115.539C112.18 115.905 112.28 116.335 112.28 116.829V117.189H108.29C108.31 117.715 108.48 118.129 108.8 118.429C109.12 118.722 109.52 118.869 110 118.869C110.42 118.869 110.743 118.772 110.97 118.579C111.197 118.385 111.37 118.155 111.49 117.889L112.17 118.219C112.07 118.425 111.93 118.632 111.75 118.839C111.577 119.045 111.347 119.219 111.06 119.359C110.78 119.499 110.42 119.569 109.98 119.569ZM108.3 116.539H111.48C111.453 116.085 111.297 115.732 111.01 115.479C110.73 115.225 110.37 115.099 109.93 115.099C109.483 115.099 109.117 115.225 108.83 115.479C108.543 115.732 108.367 116.085 108.3 116.539ZM115.918 119.569C115.425 119.569 114.988 119.465 114.608 119.259C114.235 119.052 113.941 118.762 113.728 118.389C113.521 118.009 113.418 117.562 113.418 117.049V116.919C113.418 116.412 113.521 115.969 113.728 115.589C113.941 115.209 114.235 114.915 114.608 114.709C114.988 114.502 115.425 114.399 115.918 114.399C116.411 114.399 116.845 114.502 117.218 114.709C117.598 114.915 117.891 115.209 118.098 115.589C118.311 115.969 118.418 116.412 118.418 116.919V117.049C118.418 117.562 118.311 118.009 118.098 118.389C117.891 118.762 117.598 119.052 117.218 119.259C116.845 119.465 116.411 119.569 115.918 119.569ZM115.918 118.859C116.438 118.859 116.851 118.695 117.158 118.369C117.471 118.035 117.628 117.589 117.628 117.029V116.939C117.628 116.379 117.471 115.935 117.158 115.609C116.851 115.275 116.438 115.109 115.918 115.109C115.405 115.109 114.991 115.275 114.678 115.609C114.365 115.935 114.208 116.379 114.208 116.939V117.029C114.208 117.589 114.365 118.035 114.678 118.369C114.991 118.695 115.405 118.859 115.918 118.859ZM119.84 121.429V114.539H120.61V115.349H120.75C120.876 115.102 121.08 114.882 121.36 114.689C121.646 114.495 122.043 114.399 122.55 114.399C122.97 114.399 123.353 114.502 123.7 114.709C124.053 114.909 124.333 115.195 124.54 115.569C124.753 115.942 124.86 116.392 124.86 116.919V117.049C124.86 117.569 124.756 118.019 124.55 118.399C124.343 118.779 124.063 119.069 123.71 119.269C123.363 119.469 122.976 119.569 122.55 119.569C122.21 119.569 121.92 119.522 121.68 119.429C121.446 119.342 121.256 119.229 121.11 119.089C120.963 118.949 120.85 118.805 120.77 118.659H120.63V121.429H119.84ZM122.34 118.869C122.846 118.869 123.256 118.709 123.57 118.389C123.89 118.062 124.05 117.609 124.05 117.029V116.939C124.05 116.359 123.89 115.909 123.57 115.589C123.256 115.262 122.846 115.099 122.34 115.099C121.84 115.099 121.426 115.262 121.1 115.589C120.78 115.909 120.62 116.359 120.62 116.939V117.029C120.62 117.609 120.78 118.062 121.1 118.389C121.426 118.709 121.84 118.869 122.34 118.869ZM126.275 119.429V112.429H127.065V119.429H126.275ZM130.966 119.569C130.473 119.569 130.04 119.465 129.666 119.259C129.293 119.045 129.003 118.749 128.796 118.369C128.59 117.989 128.486 117.549 128.486 117.049V116.929C128.486 116.422 128.59 115.979 128.796 115.599C129.003 115.219 129.29 114.925 129.656 114.719C130.023 114.505 130.443 114.399 130.916 114.399C131.376 114.399 131.783 114.499 132.136 114.699C132.49 114.892 132.766 115.172 132.966 115.539C133.166 115.905 133.266 116.335 133.266 116.829V117.189H129.276C129.296 117.715 129.466 118.129 129.786 118.429C130.106 118.722 130.506 118.869 130.986 118.869C131.406 118.869 131.73 118.772 131.956 118.579C132.183 118.385 132.356 118.155 132.476 117.889L133.156 118.219C133.056 118.425 132.916 118.632 132.736 118.839C132.563 119.045 132.333 119.219 132.046 119.359C131.766 119.499 131.406 119.569 130.966 119.569ZM129.286 116.539H132.466C132.44 116.085 132.283 115.732 131.996 115.479C131.716 115.225 131.356 115.099 130.916 115.099C130.47 115.099 130.103 115.225 129.816 115.479C129.53 115.732 129.353 116.085 129.286 116.539Z" fill="black"/>
<path d="M255.167 182.679V174.279H258.107L259.559 181.599H259.775L261.227 174.279H264.167V182.679H262.631V175.443H262.415L260.975 182.679H258.359L256.919 175.443H256.703V182.679H255.167ZM265.797 182.679V176.727H267.309V182.679H265.797ZM266.553 176.031C266.281 176.031 266.049 175.943 265.857 175.767C265.673 175.591 265.581 175.359 265.581 175.071C265.581 174.783 265.673 174.551 265.857 174.375C266.049 174.199 266.281 174.111 266.553 174.111C266.833 174.111 267.065 174.199 267.249 174.375C267.433 174.551 267.525 174.783 267.525 175.071C267.525 175.359 267.433 175.591 267.249 175.767C267.065 175.943 266.833 176.031 266.553 176.031ZM268.457 182.679L270.617 179.679L268.481 176.727H270.233L271.589 178.707H271.805L273.161 176.727H274.913L272.777 179.679L274.937 182.679H273.161L271.805 180.675H271.589L270.233 182.679H268.457ZM278.411 182.847C277.819 182.847 277.295 182.723 276.839 182.475C276.391 182.219 276.039 181.863 275.783 181.407C275.535 180.943 275.411 180.399 275.411 179.775V179.631C275.411 179.007 275.535 178.467 275.783 178.011C276.031 177.547 276.379 177.191 276.827 176.943C277.275 176.687 277.795 176.559 278.387 176.559C278.971 176.559 279.479 176.691 279.911 176.955C280.343 177.211 280.679 177.571 280.919 178.035C281.159 178.491 281.279 179.023 281.279 179.631V180.147H276.947C276.963 180.555 277.115 180.887 277.403 181.143C277.691 181.399 278.043 181.527 278.459 181.527C278.883 181.527 279.195 181.435 279.395 181.251C279.595 181.067 279.747 180.863 279.851 180.639L281.087 181.287C280.975 181.495 280.811 181.723 280.595 181.971C280.387 182.211 280.107 182.419 279.755 182.595C279.403 182.763 278.955 182.847 278.411 182.847ZM276.959 179.019H279.743C279.711 178.675 279.571 178.399 279.323 178.191C279.083 177.983 278.767 177.879 278.375 177.879C277.967 177.879 277.643 177.983 277.403 178.191C277.163 178.399 277.015 178.675 276.959 179.019ZM285.025 182.847C284.553 182.847 284.109 182.731 283.693 182.499C283.285 182.259 282.957 181.911 282.709 181.455C282.461 180.999 282.337 180.447 282.337 179.799V179.607C282.337 178.959 282.461 178.407 282.709 177.951C282.957 177.495 283.285 177.151 283.693 176.919C284.101 176.679 284.545 176.559 285.025 176.559C285.385 176.559 285.685 176.603 285.925 176.691C286.173 176.771 286.373 176.875 286.525 177.003C286.677 177.131 286.793 177.267 286.873 177.411H287.089V174.279H288.601V182.679H287.113V181.959H286.897C286.761 182.183 286.549 182.387 286.261 182.571C285.981 182.755 285.569 182.847 285.025 182.847ZM285.481 181.527C285.945 181.527 286.333 181.379 286.645 181.083C286.957 180.779 287.113 180.339 287.113 179.763V179.643C287.113 179.067 286.957 178.631 286.645 178.335C286.341 178.031 285.953 177.879 285.481 177.879C285.017 177.879 284.629 178.031 284.317 178.335C284.005 178.631 283.849 179.067 283.849 179.643V179.763C283.849 180.339 284.005 180.779 284.317 181.083C284.629 181.379 285.017 181.527 285.481 181.527ZM256.945 200.679V194.219H256.795L255.435 196.709H254.555L256.225 193.679H257.755V200.679H256.945ZM261.953 202.679V195.789H262.723V196.599H262.863C262.99 196.352 263.193 196.132 263.473 195.939C263.76 195.745 264.156 195.649 264.663 195.649C265.083 195.649 265.466 195.752 265.813 195.959C266.166 196.159 266.446 196.445 266.653 196.819C266.866 197.192 266.973 197.642 266.973 198.169V198.299C266.973 198.819 266.87 199.269 266.663 199.649C266.456 200.029 266.176 200.319 265.823 200.519C265.476 200.719 265.09 200.819 264.663 200.819C264.323 200.819 264.033 200.772 263.793 200.679C263.56 200.592 263.37 200.479 263.223 200.339C263.076 200.199 262.963 200.055 262.883 199.909H262.743V202.679H261.953ZM264.453 200.119C264.96 200.119 265.37 199.959 265.683 199.639C266.003 199.312 266.163 198.859 266.163 198.279V198.189C266.163 197.609 266.003 197.159 265.683 196.839C265.37 196.512 264.96 196.349 264.453 196.349C263.953 196.349 263.54 196.512 263.213 196.839C262.893 197.159 262.733 197.609 262.733 198.189V198.279C262.733 198.859 262.893 199.312 263.213 199.639C263.54 199.959 263.953 200.119 264.453 200.119ZM270.629 200.819C270.135 200.819 269.702 200.715 269.329 200.509C268.955 200.295 268.665 199.999 268.459 199.619C268.252 199.239 268.149 198.799 268.149 198.299V198.179C268.149 197.672 268.252 197.229 268.459 196.849C268.665 196.469 268.952 196.175 269.319 195.969C269.685 195.755 270.105 195.649 270.579 195.649C271.039 195.649 271.445 195.749 271.799 195.949C272.152 196.142 272.429 196.422 272.629 196.789C272.829 197.155 272.929 197.585 272.929 198.079V198.439H268.939C268.959 198.965 269.129 199.379 269.449 199.679C269.769 199.972 270.169 200.119 270.649 200.119C271.069 200.119 271.392 200.022 271.619 199.829C271.845 199.635 272.019 199.405 272.139 199.139L272.819 199.469C272.719 199.675 272.579 199.882 272.399 200.089C272.225 200.295 271.995 200.469 271.709 200.609C271.429 200.749 271.069 200.819 270.629 200.819ZM268.949 197.789H272.129C272.102 197.335 271.945 196.982 271.659 196.729C271.379 196.475 271.019 196.349 270.579 196.349C270.132 196.349 269.765 196.475 269.479 196.729C269.192 196.982 269.015 197.335 268.949 197.789ZM274.307 200.679V195.789H275.077V196.389H275.217C275.303 196.175 275.437 196.019 275.617 195.919C275.797 195.819 276.033 195.769 276.327 195.769H276.907V196.489H276.277C275.923 196.489 275.637 196.589 275.417 196.789C275.203 196.982 275.097 197.285 275.097 197.699V200.679H274.307ZM279.948 200.819C279.342 200.819 278.828 200.679 278.408 200.399C277.995 200.119 277.745 199.675 277.658 199.069L278.408 198.899C278.462 199.219 278.562 199.472 278.708 199.659C278.855 199.839 279.035 199.969 279.248 200.049C279.468 200.122 279.702 200.159 279.948 200.159C280.315 200.159 280.605 200.085 280.818 199.939C281.032 199.792 281.138 199.595 281.138 199.349C281.138 199.095 281.035 198.919 280.828 198.819C280.628 198.712 280.352 198.625 279.998 198.559L279.588 198.489C279.275 198.435 278.988 198.352 278.728 198.239C278.468 198.125 278.262 197.972 278.108 197.779C277.955 197.585 277.878 197.342 277.878 197.049C277.878 196.609 278.048 196.265 278.388 196.019C278.728 195.772 279.178 195.649 279.738 195.649C280.292 195.649 280.738 195.775 281.078 196.029C281.425 196.275 281.648 196.625 281.748 197.079L281.008 197.269C280.948 196.915 280.805 196.669 280.578 196.529C280.352 196.382 280.072 196.309 279.738 196.309C279.405 196.309 279.142 196.372 278.948 196.499C278.755 196.619 278.658 196.799 278.658 197.039C278.658 197.272 278.748 197.445 278.928 197.559C279.115 197.665 279.362 197.745 279.668 197.799L280.078 197.869C280.425 197.929 280.735 198.012 281.008 198.119C281.288 198.219 281.508 198.365 281.668 198.559C281.835 198.752 281.918 199.005 281.918 199.319C281.918 199.799 281.738 200.169 281.378 200.429C281.025 200.689 280.548 200.819 279.948 200.819ZM285.512 200.819C285.019 200.819 284.582 200.715 284.202 200.509C283.829 200.302 283.535 200.012 283.322 199.639C283.115 199.259 283.012 198.812 283.012 198.299V198.169C283.012 197.662 283.115 197.219 283.322 196.839C283.535 196.459 283.829 196.165 284.202 195.959C284.582 195.752 285.019 195.649 285.512 195.649C286.005 195.649 286.439 195.752 286.812 195.959C287.192 196.165 287.485 196.459 287.692 196.839C287.905 197.219 288.012 197.662 288.012 198.169V198.299C288.012 198.812 287.905 199.259 287.692 199.639C287.485 200.012 287.192 200.302 286.812 200.509C286.439 200.715 286.005 200.819 285.512 200.819ZM285.512 200.109C286.032 200.109 286.445 199.945 286.752 199.619C287.065 199.285 287.222 198.839 287.222 198.279V198.189C287.222 197.629 287.065 197.185 286.752 196.859C286.445 196.525 286.032 196.359 285.512 196.359C284.999 196.359 284.585 196.525 284.272 196.859C283.959 197.185 283.802 197.629 283.802 198.189V198.279C283.802 198.839 283.959 199.285 284.272 199.619C284.585 199.945 284.999 200.109 285.512 200.109ZM289.434 200.679V195.789H290.204V196.619H290.344C290.45 196.385 290.63 196.175 290.884 195.989C291.144 195.795 291.524 195.699 292.024 195.699C292.39 195.699 292.717 195.775 293.004 195.929C293.297 196.082 293.53 196.309 293.704 196.609C293.877 196.909 293.964 197.279 293.964 197.719V200.679H293.174V197.779C293.174 197.292 293.05 196.939 292.804 196.719C292.564 196.499 292.237 196.389 291.824 196.389C291.35 196.389 290.964 196.542 290.664 196.849C290.37 197.155 290.224 197.612 290.224 198.219V200.679H289.434Z" fill="black"/>
<path d="M11.4131 182.679V174.279H12.9971V181.239H16.8371V182.679H11.4131ZM19.813 182.847C19.389 182.847 19.009 182.775 18.673 182.631C18.337 182.479 18.069 182.263 17.869 181.983C17.677 181.695 17.581 181.347 17.581 180.939C17.581 180.531 17.677 180.191 17.869 179.919C18.069 179.639 18.341 179.431 18.685 179.295C19.037 179.151 19.437 179.079 19.885 179.079H21.517V178.743C21.517 178.463 21.429 178.235 21.253 178.059C21.077 177.875 20.797 177.783 20.413 177.783C20.037 177.783 19.757 177.871 19.573 178.047C19.389 178.215 19.269 178.435 19.213 178.707L17.821 178.239C17.917 177.935 18.069 177.659 18.277 177.411C18.493 177.155 18.777 176.951 19.129 176.799C19.489 176.639 19.925 176.559 20.437 176.559C21.221 176.559 21.841 176.755 22.297 177.147C22.753 177.539 22.981 178.107 22.981 178.851V181.071C22.981 181.311 23.093 181.431 23.317 181.431H23.797V182.679H22.789C22.493 182.679 22.249 182.607 22.057 182.463C21.865 182.319 21.769 182.127 21.769 181.887V181.875H21.541C21.509 181.971 21.437 182.099 21.325 182.259C21.213 182.411 21.037 182.547 20.797 182.667C20.557 182.787 20.229 182.847 19.813 182.847ZM20.077 181.623C20.501 181.623 20.845 181.507 21.109 181.275C21.381 181.035 21.517 180.719 21.517 180.327V180.207H19.993C19.713 180.207 19.493 180.267 19.333 180.387C19.173 180.507 19.093 180.675 19.093 180.891C19.093 181.107 19.177 181.283 19.345 181.419C19.513 181.555 19.757 181.623 20.077 181.623ZM26.7489 182.679C26.3569 182.679 26.0369 182.559 25.7889 182.319C25.5489 182.071 25.4289 181.743 25.4289 181.335V177.975H23.9409V176.727H25.4289V174.879H26.9409V176.727H28.5729V177.975H26.9409V181.071C26.9409 181.311 27.0529 181.431 27.2769 181.431H28.4289V182.679H26.7489ZM29.9416 182.679V176.727H31.4536V182.679H29.9416ZM30.6976 176.031C30.4256 176.031 30.1936 175.943 30.0016 175.767C29.8176 175.591 29.7256 175.359 29.7256 175.071C29.7256 174.783 29.8176 174.551 30.0016 174.375C30.1936 174.199 30.4256 174.111 30.6976 174.111C30.9776 174.111 31.2096 174.199 31.3936 174.375C31.5776 174.551 31.6696 174.783 31.6696 175.071C31.6696 175.359 31.5776 175.591 31.3936 175.767C31.2096 175.943 30.9776 176.031 30.6976 176.031ZM33.1291 182.679V176.727H34.6171V177.507H34.8331C34.9291 177.299 35.1091 177.103 35.3731 176.919C35.6371 176.727 36.0371 176.631 36.5731 176.631C37.0371 176.631 37.4411 176.739 37.7851 176.955C38.1371 177.163 38.4091 177.455 38.6011 177.831C38.7931 178.199 38.8891 178.631 38.8891 179.127V182.679H37.3771V179.247C37.3771 178.799 37.2651 178.463 37.0411 178.239C36.8251 178.015 36.5131 177.903 36.1051 177.903C35.6411 177.903 35.2811 178.059 35.0251 178.371C34.7691 178.675 34.6411 179.103 34.6411 179.655V182.679H33.1291ZM42.3716 182.847C41.9476 182.847 41.5676 182.775 41.2316 182.631C40.8956 182.479 40.6276 182.263 40.4276 181.983C40.2356 181.695 40.1396 181.347 40.1396 180.939C40.1396 180.531 40.2356 180.191 40.4276 179.919C40.6276 179.639 40.8996 179.431 41.2436 179.295C41.5956 179.151 41.9956 179.079 42.4436 179.079H44.0756V178.743C44.0756 178.463 43.9876 178.235 43.8116 178.059C43.6356 177.875 43.3556 177.783 42.9716 177.783C42.5956 177.783 42.3156 177.871 42.1316 178.047C41.9476 178.215 41.8276 178.435 41.7716 178.707L40.3796 178.239C40.4756 177.935 40.6276 177.659 40.8356 177.411C41.0516 177.155 41.3356 176.951 41.6876 176.799C42.0476 176.639 42.4836 176.559 42.9956 176.559C43.7796 176.559 44.3996 176.755 44.8556 177.147C45.3116 177.539 45.5396 178.107 45.5396 178.851V181.071C45.5396 181.311 45.6516 181.431 45.8756 181.431H46.3556V182.679H45.3476C45.0516 182.679 44.8076 182.607 44.6156 182.463C44.4236 182.319 44.3276 182.127 44.3276 181.887V181.875H44.0996C44.0676 181.971 43.9956 182.099 43.8836 182.259C43.7716 182.411 43.5956 182.547 43.3556 182.667C43.1156 182.787 42.7876 182.847 42.3716 182.847ZM42.6356 181.623C43.0596 181.623 43.4036 181.507 43.6676 181.275C43.9396 181.035 44.0756 180.719 44.0756 180.327V180.207H42.5516C42.2716 180.207 42.0516 180.267 41.8916 180.387C41.7316 180.507 41.6516 180.675 41.6516 180.891C41.6516 181.107 41.7356 181.283 41.9036 181.419C42.0716 181.555 42.3156 181.623 42.6356 181.623ZM11.1511 200.679V199.949C11.1511 199.449 11.2378 199.049 11.4111 198.749C11.5911 198.449 11.8378 198.209 12.1511 198.029C12.4711 197.842 12.8511 197.682 13.2911 197.549L13.8411 197.379C14.1411 197.285 14.4044 197.172 14.6311 197.039C14.8578 196.899 15.0344 196.725 15.1611 196.519C15.2878 196.305 15.3511 196.045 15.3511 195.739V195.699C15.3511 195.259 15.1978 194.912 14.8911 194.659C14.5844 194.399 14.1911 194.269 13.7111 194.269C13.2044 194.269 12.7911 194.405 12.4711 194.679C12.1511 194.945 11.9911 195.352 11.9911 195.899V196.039H11.1911V195.909C11.1911 195.402 11.3011 194.972 11.5211 194.619C11.7411 194.265 12.0411 193.999 12.4211 193.819C12.8011 193.632 13.2311 193.539 13.7111 193.539C14.1911 193.539 14.6144 193.629 14.9811 193.809C15.3544 193.989 15.6444 194.239 15.8511 194.559C16.0578 194.879 16.1611 195.252 16.1611 195.679V195.769C16.1611 196.222 16.0711 196.599 15.8911 196.899C15.7111 197.192 15.4611 197.432 15.1411 197.619C14.8278 197.805 14.4578 197.965 14.0311 198.099L13.4911 198.269C13.1511 198.375 12.8678 198.489 12.6411 198.609C12.4211 198.722 12.2544 198.869 12.1411 199.049C12.0278 199.229 11.9711 199.472 11.9711 199.779V199.949H16.1011V200.679H11.1511ZM20.0448 202.679V195.789H20.8148V196.599H20.9548C21.0815 196.352 21.2848 196.132 21.5648 195.939C21.8515 195.745 22.2482 195.649 22.7548 195.649C23.1748 195.649 23.5582 195.752 23.9048 195.959C24.2582 196.159 24.5382 196.445 24.7448 196.819C24.9582 197.192 25.0648 197.642 25.0648 198.169V198.299C25.0648 198.819 24.9615 199.269 24.7548 199.649C24.5482 200.029 24.2682 200.319 23.9148 200.519C23.5682 200.719 23.1815 200.819 22.7548 200.819C22.4148 200.819 22.1248 200.772 21.8848 200.679C21.6515 200.592 21.4615 200.479 21.3148 200.339C21.1682 200.199 21.0548 200.055 20.9748 199.909H20.8348V202.679H20.0448ZM22.5448 200.119C23.0515 200.119 23.4615 199.959 23.7748 199.639C24.0948 199.312 24.2548 198.859 24.2548 198.279V198.189C24.2548 197.609 24.0948 197.159 23.7748 196.839C23.4615 196.512 23.0515 196.349 22.5448 196.349C22.0448 196.349 21.6315 196.512 21.3048 196.839C20.9848 197.159 20.8248 197.609 20.8248 198.189V198.279C20.8248 198.859 20.9848 199.312 21.3048 199.639C21.6315 199.959 22.0448 200.119 22.5448 200.119ZM28.7204 200.819C28.2271 200.819 27.7937 200.715 27.4204 200.509C27.0471 200.295 26.7571 199.999 26.5504 199.619C26.3437 199.239 26.2404 198.799 26.2404 198.299V198.179C26.2404 197.672 26.3437 197.229 26.5504 196.849C26.7571 196.469 27.0437 196.175 27.4104 195.969C27.7771 195.755 28.1971 195.649 28.6704 195.649C29.1304 195.649 29.5371 195.749 29.8904 195.949C30.2437 196.142 30.5204 196.422 30.7204 196.789C30.9204 197.155 31.0204 197.585 31.0204 198.079V198.439H27.0304C27.0504 198.965 27.2204 199.379 27.5404 199.679C27.8604 199.972 28.2604 200.119 28.7404 200.119C29.1604 200.119 29.4837 200.022 29.7104 199.829C29.9371 199.635 30.1104 199.405 30.2304 199.139L30.9104 199.469C30.8104 199.675 30.6704 199.882 30.4904 200.089C30.3171 200.295 30.0871 200.469 29.8004 200.609C29.5204 200.749 29.1604 200.819 28.7204 200.819ZM27.0404 197.789H30.2204C30.1937 197.335 30.0371 196.982 29.7504 196.729C29.4704 196.475 29.1104 196.349 28.6704 196.349C28.2237 196.349 27.8571 196.475 27.5704 196.729C27.2837 196.982 27.1071 197.335 27.0404 197.789ZM34.6584 200.819C34.165 200.819 33.7284 200.715 33.3484 200.509C32.975 200.302 32.6817 200.012 32.4684 199.639C32.2617 199.259 32.1584 198.812 32.1584 198.299V198.169C32.1584 197.662 32.2617 197.219 32.4684 196.839C32.6817 196.459 32.975 196.165 33.3484 195.959C33.7284 195.752 34.165 195.649 34.6584 195.649C35.1517 195.649 35.585 195.752 35.9584 195.959C36.3384 196.165 36.6317 196.459 36.8384 196.839C37.0517 197.219 37.1584 197.662 37.1584 198.169V198.299C37.1584 198.812 37.0517 199.259 36.8384 199.639C36.6317 200.012 36.3384 200.302 35.9584 200.509C35.585 200.715 35.1517 200.819 34.6584 200.819ZM34.6584 200.109C35.1784 200.109 35.5917 199.945 35.8984 199.619C36.2117 199.285 36.3684 198.839 36.3684 198.279V198.189C36.3684 197.629 36.2117 197.185 35.8984 196.859C35.5917 196.525 35.1784 196.359 34.6584 196.359C34.145 196.359 33.7317 196.525 33.4184 196.859C33.105 197.185 32.9484 197.629 32.9484 198.189V198.279C32.9484 198.839 33.105 199.285 33.4184 199.619C33.7317 199.945 34.145 200.109 34.6584 200.109ZM38.58 202.679V195.789H39.35V196.599H39.49C39.6167 196.352 39.82 196.132 40.1 195.939C40.3867 195.745 40.7833 195.649 41.29 195.649C41.71 195.649 42.0933 195.752 42.44 195.959C42.7933 196.159 43.0733 196.445 43.28 196.819C43.4933 197.192 43.6 197.642 43.6 198.169V198.299C43.6 198.819 43.4967 199.269 43.29 199.649C43.0833 200.029 42.8033 200.319 42.45 200.519C42.1033 200.719 41.7167 200.819 41.29 200.819C40.95 200.819 40.66 200.772 40.42 200.679C40.1867 200.592 39.9967 200.479 39.85 200.339C39.7033 200.199 39.59 200.055 39.51 199.909H39.37V202.679H38.58ZM41.08 200.119C41.5867 200.119 41.9967 199.959 42.31 199.639C42.63 199.312 42.79 198.859 42.79 198.279V198.189C42.79 197.609 42.63 197.159 42.31 196.839C41.9967 196.512 41.5867 196.349 41.08 196.349C40.58 196.349 40.1667 196.512 39.84 196.839C39.52 197.159 39.36 197.609 39.36 198.189V198.279C39.36 198.859 39.52 199.312 39.84 199.639C40.1667 199.959 40.58 200.119 41.08 200.119ZM45.0155 200.679V193.679H45.8055V200.679H45.0155ZM49.7067 200.819C49.2134 200.819 48.7801 200.715 48.4067 200.509C48.0334 200.295 47.7434 199.999 47.5367 199.619C47.3301 199.239 47.2267 198.799 47.2267 198.299V198.179C47.2267 197.672 47.3301 197.229 47.5367 196.849C47.7434 196.469 48.0301 196.175 48.3967 195.969C48.7634 195.755 49.1834 195.649 49.6567 195.649C50.1167 195.649 50.5234 195.749 50.8767 195.949C51.2301 196.142 51.5067 196.422 51.7067 196.789C51.9067 197.155 52.0067 197.585 52.0067 198.079V198.439H48.0167C48.0367 198.965 48.2067 199.379 48.5267 199.679C48.8467 199.972 49.2467 200.119 49.7267 200.119C50.1467 200.119 50.4701 200.022 50.6967 199.829C50.9234 199.635 51.0967 199.405 51.2167 199.139L51.8967 199.469C51.7967 199.675 51.6567 199.882 51.4767 200.089C51.3034 200.295 51.0734 200.469 50.7867 200.609C50.5067 200.749 50.1467 200.819 49.7067 200.819ZM48.0267 197.789H51.2067C51.1801 197.335 51.0234 196.982 50.7367 196.729C50.4567 196.475 50.0967 196.349 49.6567 196.349C49.2101 196.349 48.8434 196.475 48.5567 196.729C48.2701 196.982 48.0934 197.335 48.0267 197.789Z" fill="black"/>
</svg>
