<svg width="326" height="244" viewBox="0 0 326 244" fill="none" xmlns="http://www.w3.org/2000/svg">
<rect width="81.25" height="81.25" transform="matrix(1 0 0 -1 244.371 243.928)" fill="#F1FEA3" stroke="white" stroke-width="4"/>
<path fill-rule="evenodd" clip-rule="evenodd" d="M244.367 162.677H163.117V81.4268H244.367H325.617V162.677H244.367Z" fill="#EAFD7B"/>
<path d="M163.117 162.677V164.677H161.117V162.677H163.117ZM163.117 81.4268H161.117V79.4268H163.117V81.4268ZM325.617 81.4268V79.4268H327.617V81.4268H325.617ZM325.617 162.677H327.617V164.677H325.617V162.677ZM163.117 160.677H244.367V164.677H163.117V160.677ZM165.117 81.4268V162.677H161.117V81.4268H165.117ZM244.367 83.4268H163.117V79.4268H244.367V83.4268ZM325.617 83.4268H244.367V79.4268H325.617V83.4268ZM323.617 162.677V81.4268H327.617V162.677H323.617ZM244.367 160.677H325.617V164.677H244.367V160.677Z" fill="white"/>
<path fill-rule="evenodd" clip-rule="evenodd" d="M244.367 81.4287H163.117V0.178711H244.367H325.617V81.4287H244.367Z" fill="#E4FD53"/>
<path d="M163.117 81.4287V83.4287H161.117V81.4287H163.117ZM163.117 0.178711H161.117V-1.82129H163.117V0.178711ZM325.617 0.178711V-1.82129H327.617V0.178711H325.617ZM325.617 81.4287H327.617V83.4287H325.617V81.4287ZM163.117 79.4287H244.367V83.4287H163.117V79.4287ZM165.117 0.178711V81.4287H161.117V0.178711H165.117ZM244.367 2.17871H163.117V-1.82129H244.367V2.17871ZM325.617 2.17871H244.367V-1.82129H325.617V2.17871ZM323.617 81.4287V0.178711H327.617V81.4287H323.617ZM244.367 79.4287H325.617V83.4287H244.367V79.4287Z" fill="white"/>
<path fill-rule="evenodd" clip-rule="evenodd" d="M0.621094 243.928H81.8711H163.121H244.371V162.678H163.121V81.4277V0.177734H81.8711H0.621094V65.7776V81.4277V162.678V162.678V243.928Z" fill="#D7FB03"/>
<path d="M0.621094 243.928V245.928H-1.37891V243.928H0.621094ZM244.371 243.928H246.371V245.928H244.371V243.928ZM244.371 162.678V160.678H246.371V162.678H244.371ZM163.121 162.678V164.678H161.121V162.678H163.121ZM163.121 0.177734V-1.82227H165.121V0.177734H163.121ZM0.621094 0.177734H-1.37891V-1.82227H0.621094V0.177734ZM81.8711 245.928H0.621094V241.928H81.8711V245.928ZM163.121 245.928H81.8711V241.928H163.121V245.928ZM244.371 245.928H163.121V241.928H244.371V245.928ZM246.371 162.678V243.928H242.371V162.678H246.371ZM163.121 160.678H244.371V164.678H163.121V160.678ZM165.121 81.4277V162.678H161.121V81.4277H165.121ZM161.121 81.4277V0.177734H165.121V81.4277H161.121ZM163.121 2.17773H81.8711V-1.82227H163.121V2.17773ZM0.621094 -1.82227H81.8711V2.17773H0.621094V-1.82227ZM-1.37891 65.7776V0.177734H2.62109V65.7776H-1.37891ZM-1.37891 81.4277V65.7776H2.62109V81.4277H-1.37891ZM-1.37891 162.678V81.4277H2.62109V162.678H-1.37891ZM-1.37891 162.678V162.678H2.62109V162.678H-1.37891ZM-1.37891 243.928V162.678H2.62109V243.928H-1.37891Z" fill="white"/>
<path d="M173.909 20.1777V11.7777H177.365C177.893 11.7777 178.357 11.8857 178.757 12.1017C179.165 12.3097 179.481 12.6057 179.705 12.9897C179.937 13.3737 180.053 13.8297 180.053 14.3577V14.5257C180.053 15.0457 179.933 15.5017 179.693 15.8937C179.461 16.2777 179.141 16.5777 178.733 16.7937C178.333 17.0017 177.877 17.1057 177.365 17.1057H175.493V20.1777H173.909ZM175.493 15.6657H177.209C177.585 15.6657 177.889 15.5617 178.121 15.3537C178.353 15.1457 178.469 14.8617 178.469 14.5017V14.3817C178.469 14.0217 178.353 13.7377 178.121 13.5297C177.889 13.3217 177.585 13.2177 177.209 13.2177H175.493V15.6657ZM183.891 20.3457C183.299 20.3457 182.767 20.2257 182.295 19.9857C181.823 19.7457 181.451 19.3977 181.179 18.9417C180.907 18.4857 180.771 17.9377 180.771 17.2977V17.1057C180.771 16.4657 180.907 15.9177 181.179 15.4617C181.451 15.0057 181.823 14.6577 182.295 14.4177C182.767 14.1777 183.299 14.0577 183.891 14.0577C184.483 14.0577 185.015 14.1777 185.487 14.4177C185.959 14.6577 186.331 15.0057 186.603 15.4617C186.875 15.9177 187.011 16.4657 187.011 17.1057V17.2977C187.011 17.9377 186.875 18.4857 186.603 18.9417C186.331 19.3977 185.959 19.7457 185.487 19.9857C185.015 20.2257 184.483 20.3457 183.891 20.3457ZM183.891 19.0017C184.355 19.0017 184.739 18.8537 185.043 18.5577C185.347 18.2537 185.499 17.8217 185.499 17.2617V17.1417C185.499 16.5817 185.347 16.1537 185.043 15.8577C184.747 15.5537 184.363 15.4017 183.891 15.4017C183.427 15.4017 183.043 15.5537 182.739 15.8577C182.435 16.1537 182.283 16.5817 182.283 17.1417V17.2617C182.283 17.8217 182.435 18.2537 182.739 18.5577C183.043 18.8537 183.427 19.0017 183.891 19.0017ZM188.406 20.1777V11.7777H189.918V20.1777H188.406ZM191.594 20.1777V14.2257H193.106V20.1777H191.594ZM192.35 13.5297C192.078 13.5297 191.846 13.4417 191.654 13.2657C191.47 13.0897 191.378 12.8577 191.378 12.5697C191.378 12.2817 191.47 12.0497 191.654 11.8737C191.846 11.6977 192.078 11.6097 192.35 11.6097C192.63 11.6097 192.862 11.6977 193.046 11.8737C193.23 12.0497 193.322 12.2817 193.322 12.5697C193.322 12.8577 193.23 13.0897 193.046 13.2657C192.862 13.4417 192.63 13.5297 192.35 13.5297ZM197.061 20.1777C196.669 20.1777 196.349 20.0577 196.101 19.8177C195.861 19.5697 195.741 19.2417 195.741 18.8337V15.4737H194.253V14.2257H195.741V12.3777H197.253V14.2257H198.885V15.4737H197.253V18.5697C197.253 18.8097 197.365 18.9297 197.589 18.9297H198.741V20.1777H197.061ZM200.254 20.1777V14.2257H201.766V20.1777H200.254ZM201.01 13.5297C200.738 13.5297 200.506 13.4417 200.314 13.2657C200.13 13.0897 200.038 12.8577 200.038 12.5697C200.038 12.2817 200.13 12.0497 200.314 11.8737C200.506 11.6977 200.738 11.6097 201.01 11.6097C201.29 11.6097 201.522 11.6977 201.706 11.8737C201.89 12.0497 201.982 12.2817 201.982 12.5697C201.982 12.8577 201.89 13.0897 201.706 13.2657C201.522 13.4417 201.29 13.5297 201.01 13.5297ZM206.238 20.3457C205.662 20.3457 205.138 20.2257 204.666 19.9857C204.202 19.7457 203.834 19.3977 203.562 18.9417C203.29 18.4857 203.154 17.9337 203.154 17.2857V17.1177C203.154 16.4697 203.29 15.9177 203.562 15.4617C203.834 15.0057 204.202 14.6577 204.666 14.4177C205.138 14.1777 205.662 14.0577 206.238 14.0577C206.806 14.0577 207.294 14.1577 207.702 14.3577C208.11 14.5577 208.438 14.8337 208.686 15.1857C208.942 15.5297 209.11 15.9217 209.19 16.3617L207.726 16.6737C207.694 16.4337 207.622 16.2177 207.51 16.0257C207.398 15.8337 207.238 15.6817 207.03 15.5697C206.83 15.4577 206.578 15.4017 206.274 15.4017C205.97 15.4017 205.694 15.4697 205.446 15.6057C205.206 15.7337 205.014 15.9297 204.87 16.1937C204.734 16.4497 204.666 16.7657 204.666 17.1417V17.2617C204.666 17.6377 204.734 17.9577 204.87 18.2217C205.014 18.4777 205.206 18.6737 205.446 18.8097C205.694 18.9377 205.97 19.0017 206.274 19.0017C206.73 19.0017 207.074 18.8857 207.306 18.6537C207.546 18.4137 207.698 18.1017 207.762 17.7177L209.226 18.0657C209.122 18.4897 208.942 18.8777 208.686 19.2297C208.438 19.5737 208.11 19.8457 207.702 20.0457C207.294 20.2457 206.806 20.3457 206.238 20.3457ZM212.321 20.3457C211.897 20.3457 211.517 20.2737 211.181 20.1297C210.845 19.9777 210.577 19.7617 210.377 19.4817C210.185 19.1937 210.089 18.8457 210.089 18.4377C210.089 18.0297 210.185 17.6897 210.377 17.4177C210.577 17.1377 210.849 16.9297 211.193 16.7937C211.545 16.6497 211.945 16.5777 212.393 16.5777H214.025V16.2417C214.025 15.9617 213.937 15.7337 213.761 15.5577C213.585 15.3737 213.305 15.2817 212.921 15.2817C212.545 15.2817 212.265 15.3697 212.081 15.5457C211.897 15.7137 211.777 15.9337 211.721 16.2057L210.329 15.7377C210.425 15.4337 210.577 15.1577 210.785 14.9097C211.001 14.6537 211.285 14.4497 211.637 14.2977C211.997 14.1377 212.433 14.0577 212.945 14.0577C213.729 14.0577 214.349 14.2537 214.805 14.6457C215.261 15.0377 215.489 15.6057 215.489 16.3497V18.5697C215.489 18.8097 215.601 18.9297 215.825 18.9297H216.305V20.1777H215.297C215.001 20.1777 214.757 20.1057 214.565 19.9617C214.373 19.8177 214.277 19.6257 214.277 19.3857V19.3737H214.049C214.017 19.4697 213.945 19.5977 213.833 19.7577C213.721 19.9097 213.545 20.0457 213.305 20.1657C213.065 20.2857 212.737 20.3457 212.321 20.3457ZM212.585 19.1217C213.009 19.1217 213.353 19.0057 213.617 18.7737C213.889 18.5337 214.025 18.2177 214.025 17.8257V17.7057H212.501C212.221 17.7057 212.001 17.7657 211.841 17.8857C211.681 18.0057 211.601 18.1737 211.601 18.3897C211.601 18.6057 211.685 18.7817 211.853 18.9177C212.021 19.0537 212.265 19.1217 212.585 19.1217ZM217.41 20.1777V11.7777H218.922V20.1777H217.41ZM226.513 20.3457C225.865 20.3457 225.293 20.2297 224.797 19.9977C224.301 19.7657 223.913 19.4337 223.633 19.0017C223.353 18.5697 223.213 18.0497 223.213 17.4417V17.1057H224.773V17.4417C224.773 17.9457 224.929 18.3257 225.241 18.5817C225.553 18.8297 225.977 18.9537 226.513 18.9537C227.057 18.9537 227.461 18.8457 227.725 18.6297C227.997 18.4137 228.133 18.1377 228.133 17.8017C228.133 17.5697 228.065 17.3817 227.929 17.2377C227.801 17.0937 227.609 16.9777 227.353 16.8897C227.105 16.7937 226.801 16.7057 226.441 16.6257L226.165 16.5657C225.589 16.4377 225.093 16.2777 224.677 16.0857C224.269 15.8857 223.953 15.6257 223.729 15.3057C223.513 14.9857 223.405 14.5697 223.405 14.0577C223.405 13.5457 223.525 13.1097 223.765 12.7497C224.013 12.3817 224.357 12.1017 224.797 11.9097C225.245 11.7097 225.769 11.6097 226.369 11.6097C226.969 11.6097 227.501 11.7137 227.965 11.9217C228.437 12.1217 228.805 12.4257 229.069 12.8337C229.341 13.2337 229.477 13.7377 229.477 14.3457V14.7057H227.917V14.3457C227.917 14.0257 227.853 13.7697 227.725 13.5777C227.605 13.3777 227.429 13.2337 227.197 13.1457C226.965 13.0497 226.689 13.0017 226.369 13.0017C225.889 13.0017 225.533 13.0937 225.301 13.2777C225.077 13.4537 224.965 13.6977 224.965 14.0097C224.965 14.2177 225.017 14.3937 225.121 14.5377C225.233 14.6817 225.397 14.8017 225.613 14.8977C225.829 14.9937 226.105 15.0777 226.441 15.1497L226.717 15.2097C227.317 15.3377 227.837 15.5017 228.277 15.7017C228.725 15.9017 229.073 16.1657 229.321 16.4937C229.569 16.8217 229.693 17.2417 229.693 17.7537C229.693 18.2657 229.561 18.7177 229.297 19.1097C229.041 19.4937 228.673 19.7977 228.193 20.0217C227.721 20.2377 227.161 20.3457 226.513 20.3457ZM233.718 20.3457C233.142 20.3457 232.618 20.2257 232.146 19.9857C231.682 19.7457 231.314 19.3977 231.042 18.9417C230.77 18.4857 230.634 17.9337 230.634 17.2857V17.1177C230.634 16.4697 230.77 15.9177 231.042 15.4617C231.314 15.0057 231.682 14.6577 232.146 14.4177C232.618 14.1777 233.142 14.0577 233.718 14.0577C234.286 14.0577 234.774 14.1577 235.182 14.3577C235.59 14.5577 235.918 14.8337 236.166 15.1857C236.422 15.5297 236.59 15.9217 236.67 16.3617L235.206 16.6737C235.174 16.4337 235.102 16.2177 234.99 16.0257C234.878 15.8337 234.718 15.6817 234.51 15.5697C234.31 15.4577 234.058 15.4017 233.754 15.4017C233.45 15.4017 233.174 15.4697 232.926 15.6057C232.686 15.7337 232.494 15.9297 232.35 16.1937C232.214 16.4497 232.146 16.7657 232.146 17.1417V17.2617C232.146 17.6377 232.214 17.9577 232.35 18.2217C232.494 18.4777 232.686 18.6737 232.926 18.8097C233.174 18.9377 233.45 19.0017 233.754 19.0017C234.21 19.0017 234.554 18.8857 234.786 18.6537C235.026 18.4137 235.178 18.1017 235.242 17.7177L236.706 18.0657C236.602 18.4897 236.422 18.8777 236.166 19.2297C235.918 19.5737 235.59 19.8457 235.182 20.0457C234.774 20.2457 234.286 20.3457 233.718 20.3457ZM237.953 20.1777V14.2257H239.465V20.1777H237.953ZM238.709 13.5297C238.437 13.5297 238.205 13.4417 238.013 13.2657C237.829 13.0897 237.737 12.8577 237.737 12.5697C237.737 12.2817 237.829 12.0497 238.013 11.8737C238.205 11.6977 238.437 11.6097 238.709 11.6097C238.989 11.6097 239.221 11.6977 239.405 11.8737C239.589 12.0497 239.681 12.2817 239.681 12.5697C239.681 12.8577 239.589 13.0897 239.405 13.2657C239.221 13.4417 238.989 13.5297 238.709 13.5297ZM243.853 20.3457C243.261 20.3457 242.737 20.2217 242.281 19.9737C241.833 19.7177 241.481 19.3617 241.225 18.9057C240.977 18.4417 240.853 17.8977 240.853 17.2737V17.1297C240.853 16.5057 240.977 15.9657 241.225 15.5097C241.473 15.0457 241.821 14.6897 242.269 14.4417C242.717 14.1857 243.237 14.0577 243.829 14.0577C244.413 14.0577 244.921 14.1897 245.353 14.4537C245.785 14.7097 246.121 15.0697 246.361 15.5337C246.601 15.9897 246.721 16.5217 246.721 17.1297V17.6457H242.389C242.405 18.0537 242.557 18.3857 242.845 18.6417C243.133 18.8977 243.485 19.0257 243.901 19.0257C244.325 19.0257 244.637 18.9337 244.837 18.7497C245.037 18.5657 245.189 18.3617 245.293 18.1377L246.529 18.7857C246.417 18.9937 246.253 19.2217 246.037 19.4697C245.829 19.7097 245.549 19.9177 245.197 20.0937C244.845 20.2617 244.397 20.3457 243.853 20.3457ZM242.401 16.5177H245.185C245.153 16.1737 245.013 15.8977 244.765 15.6897C244.525 15.4817 244.209 15.3777 243.817 15.3777C243.409 15.3777 243.085 15.4817 242.845 15.6897C242.605 15.8977 242.457 16.1737 242.401 16.5177ZM248.067 20.1777V14.2257H249.555V15.0057H249.771C249.867 14.7977 250.047 14.6017 250.311 14.4177C250.575 14.2257 250.975 14.1297 251.511 14.1297C251.975 14.1297 252.379 14.2377 252.723 14.4537C253.075 14.6617 253.347 14.9537 253.539 15.3297C253.731 15.6977 253.827 16.1297 253.827 16.6257V20.1777H252.315V16.7457C252.315 16.2977 252.203 15.9617 251.979 15.7377C251.763 15.5137 251.451 15.4017 251.043 15.4017C250.579 15.4017 250.219 15.5577 249.963 15.8697C249.707 16.1737 249.579 16.6017 249.579 17.1537V20.1777H248.067ZM258.257 20.3457C257.681 20.3457 257.157 20.2257 256.685 19.9857C256.221 19.7457 255.853 19.3977 255.581 18.9417C255.309 18.4857 255.173 17.9337 255.173 17.2857V17.1177C255.173 16.4697 255.309 15.9177 255.581 15.4617C255.853 15.0057 256.221 14.6577 256.685 14.4177C257.157 14.1777 257.681 14.0577 258.257 14.0577C258.825 14.0577 259.313 14.1577 259.721 14.3577C260.129 14.5577 260.457 14.8337 260.705 15.1857C260.961 15.5297 261.129 15.9217 261.209 16.3617L259.745 16.6737C259.713 16.4337 259.641 16.2177 259.529 16.0257C259.417 15.8337 259.257 15.6817 259.049 15.5697C258.849 15.4577 258.597 15.4017 258.293 15.4017C257.989 15.4017 257.713 15.4697 257.465 15.6057C257.225 15.7337 257.033 15.9297 256.889 16.1937C256.753 16.4497 256.685 16.7657 256.685 17.1417V17.2617C256.685 17.6377 256.753 17.9577 256.889 18.2217C257.033 18.4777 257.225 18.6737 257.465 18.8097C257.713 18.9377 257.989 19.0017 258.293 19.0017C258.749 19.0017 259.093 18.8857 259.325 18.6537C259.565 18.4137 259.717 18.1017 259.781 17.7177L261.245 18.0657C261.141 18.4897 260.961 18.8777 260.705 19.2297C260.457 19.5737 260.129 19.8457 259.721 20.0457C259.313 20.2457 258.825 20.3457 258.257 20.3457ZM265.204 20.3457C264.612 20.3457 264.088 20.2217 263.632 19.9737C263.184 19.7177 262.832 19.3617 262.576 18.9057C262.328 18.4417 262.204 17.8977 262.204 17.2737V17.1297C262.204 16.5057 262.328 15.9657 262.576 15.5097C262.824 15.0457 263.172 14.6897 263.62 14.4417C264.068 14.1857 264.588 14.0577 265.18 14.0577C265.764 14.0577 266.272 14.1897 266.704 14.4537C267.136 14.7097 267.472 15.0697 267.712 15.5337C267.952 15.9897 268.072 16.5217 268.072 17.1297V17.6457H263.74C263.756 18.0537 263.908 18.3857 264.196 18.6417C264.484 18.8977 264.836 19.0257 265.252 19.0257C265.676 19.0257 265.988 18.9337 266.188 18.7497C266.388 18.5657 266.54 18.3617 266.644 18.1377L267.88 18.7857C267.768 18.9937 267.604 19.2217 267.388 19.4697C267.18 19.7097 266.9 19.9177 266.548 20.0937C266.196 20.2617 265.748 20.3457 265.204 20.3457ZM263.752 16.5177H266.536C266.504 16.1737 266.364 15.8977 266.116 15.6897C265.876 15.4817 265.56 15.3777 265.168 15.3777C264.76 15.3777 264.436 15.4817 264.196 15.6897C263.956 15.8977 263.808 16.1737 263.752 16.5177ZM173.647 38.1777V37.4477C173.647 36.9477 173.734 36.5477 173.907 36.2477C174.087 35.9477 174.334 35.7077 174.647 35.5277C174.967 35.3411 175.347 35.1811 175.787 35.0477L176.337 34.8777C176.637 34.7844 176.901 34.6711 177.127 34.5377C177.354 34.3977 177.531 34.2244 177.657 34.0177C177.784 33.8044 177.847 33.5444 177.847 33.2377V33.1977C177.847 32.7577 177.694 32.4111 177.387 32.1577C177.081 31.8977 176.687 31.7677 176.207 31.7677C175.701 31.7677 175.287 31.9044 174.967 32.1777C174.647 32.4444 174.487 32.8511 174.487 33.3977V33.5377H173.687V33.4077C173.687 32.9011 173.797 32.4711 174.017 32.1177C174.237 31.7644 174.537 31.4977 174.917 31.3177C175.297 31.1311 175.727 31.0377 176.207 31.0377C176.687 31.0377 177.111 31.1277 177.477 31.3077C177.851 31.4877 178.141 31.7377 178.347 32.0577C178.554 32.3777 178.657 32.7511 178.657 33.1777V33.2677C178.657 33.7211 178.567 34.0977 178.387 34.3977C178.207 34.6911 177.957 34.9311 177.637 35.1177C177.324 35.3044 176.954 35.4644 176.527 35.5977L175.987 35.7677C175.647 35.8744 175.364 35.9877 175.137 36.1077C174.917 36.2211 174.751 36.3677 174.637 36.5477C174.524 36.7277 174.467 36.9711 174.467 37.2777V37.4477H178.597V38.1777H173.647ZM182.541 40.1777V33.2877H183.311V34.0977H183.451C183.578 33.8511 183.781 33.6311 184.061 33.4377C184.348 33.2444 184.744 33.1477 185.251 33.1477C185.671 33.1477 186.054 33.2511 186.401 33.4577C186.754 33.6577 187.034 33.9444 187.241 34.3177C187.454 34.6911 187.561 35.1411 187.561 35.6677V35.7977C187.561 36.3177 187.458 36.7677 187.251 37.1477C187.044 37.5277 186.764 37.8177 186.411 38.0177C186.064 38.2177 185.678 38.3177 185.251 38.3177C184.911 38.3177 184.621 38.2711 184.381 38.1777C184.148 38.0911 183.958 37.9777 183.811 37.8377C183.664 37.6977 183.551 37.5544 183.471 37.4077H183.331V40.1777H182.541ZM185.041 37.6177C185.548 37.6177 185.958 37.4577 186.271 37.1377C186.591 36.8111 186.751 36.3577 186.751 35.7777V35.6877C186.751 35.1077 186.591 34.6577 186.271 34.3377C185.958 34.0111 185.548 33.8477 185.041 33.8477C184.541 33.8477 184.128 34.0111 183.801 34.3377C183.481 34.6577 183.321 35.1077 183.321 35.6877V35.7777C183.321 36.3577 183.481 36.8111 183.801 37.1377C184.128 37.4577 184.541 37.6177 185.041 37.6177ZM191.216 38.3177C190.723 38.3177 190.29 38.2144 189.916 38.0077C189.543 37.7944 189.253 37.4977 189.046 37.1177C188.84 36.7377 188.736 36.2977 188.736 35.7977V35.6777C188.736 35.1711 188.84 34.7277 189.046 34.3477C189.253 33.9677 189.54 33.6744 189.906 33.4677C190.273 33.2544 190.693 33.1477 191.166 33.1477C191.626 33.1477 192.033 33.2477 192.386 33.4477C192.74 33.6411 193.016 33.9211 193.216 34.2877C193.416 34.6544 193.516 35.0844 193.516 35.5777V35.9377H189.526C189.546 36.4644 189.716 36.8777 190.036 37.1777C190.356 37.4711 190.756 37.6177 191.236 37.6177C191.656 37.6177 191.98 37.5211 192.206 37.3277C192.433 37.1344 192.606 36.9044 192.726 36.6377L193.406 36.9677C193.306 37.1744 193.166 37.3811 192.986 37.5877C192.813 37.7944 192.583 37.9677 192.296 38.1077C192.016 38.2477 191.656 38.3177 191.216 38.3177ZM189.536 35.2877H192.716C192.69 34.8344 192.533 34.4811 192.246 34.2277C191.966 33.9744 191.606 33.8477 191.166 33.8477C190.72 33.8477 190.353 33.9744 190.066 34.2277C189.78 34.4811 189.603 34.8344 189.536 35.2877ZM197.154 38.3177C196.661 38.3177 196.224 38.2144 195.844 38.0077C195.471 37.8011 195.178 37.5111 194.964 37.1377C194.758 36.7577 194.654 36.3111 194.654 35.7977V35.6677C194.654 35.1611 194.758 34.7177 194.964 34.3377C195.178 33.9577 195.471 33.6644 195.844 33.4577C196.224 33.2511 196.661 33.1477 197.154 33.1477C197.648 33.1477 198.081 33.2511 198.454 33.4577C198.834 33.6644 199.128 33.9577 199.334 34.3377C199.548 34.7177 199.654 35.1611 199.654 35.6677V35.7977C199.654 36.3111 199.548 36.7577 199.334 37.1377C199.128 37.5111 198.834 37.8011 198.454 38.0077C198.081 38.2144 197.648 38.3177 197.154 38.3177ZM197.154 37.6077C197.674 37.6077 198.088 37.4444 198.394 37.1177C198.708 36.7844 198.864 36.3377 198.864 35.7777V35.6877C198.864 35.1277 198.708 34.6844 198.394 34.3577C198.088 34.0244 197.674 33.8577 197.154 33.8577C196.641 33.8577 196.228 34.0244 195.914 34.3577C195.601 34.6844 195.444 35.1277 195.444 35.6877V35.7777C195.444 36.3377 195.601 36.7844 195.914 37.1177C196.228 37.4444 196.641 37.6077 197.154 37.6077ZM201.076 40.1777V33.2877H201.846V34.0977H201.986C202.113 33.8511 202.316 33.6311 202.596 33.4377C202.883 33.2444 203.279 33.1477 203.786 33.1477C204.206 33.1477 204.589 33.2511 204.936 33.4577C205.289 33.6577 205.569 33.9444 205.776 34.3177C205.989 34.6911 206.096 35.1411 206.096 35.6677V35.7977C206.096 36.3177 205.993 36.7677 205.786 37.1477C205.579 37.5277 205.299 37.8177 204.946 38.0177C204.599 38.2177 204.213 38.3177 203.786 38.3177C203.446 38.3177 203.156 38.2711 202.916 38.1777C202.683 38.0911 202.493 37.9777 202.346 37.8377C202.199 37.6977 202.086 37.5544 202.006 37.4077H201.866V40.1777H201.076ZM203.576 37.6177C204.083 37.6177 204.493 37.4577 204.806 37.1377C205.126 36.8111 205.286 36.3577 205.286 35.7777V35.6877C205.286 35.1077 205.126 34.6577 204.806 34.3377C204.493 34.0111 204.083 33.8477 203.576 33.8477C203.076 33.8477 202.663 34.0111 202.336 34.3377C202.016 34.6577 201.856 35.1077 201.856 35.6877V35.7777C201.856 36.3577 202.016 36.8111 202.336 37.1377C202.663 37.4577 203.076 37.6177 203.576 37.6177ZM207.512 38.1777V31.1777H208.302V38.1777H207.512ZM212.203 38.3177C211.709 38.3177 211.276 38.2144 210.903 38.0077C210.529 37.7944 210.239 37.4977 210.033 37.1177C209.826 36.7377 209.723 36.2977 209.723 35.7977V35.6777C209.723 35.1711 209.826 34.7277 210.033 34.3477C210.239 33.9677 210.526 33.6744 210.893 33.4677C211.259 33.2544 211.679 33.1477 212.153 33.1477C212.613 33.1477 213.019 33.2477 213.373 33.4477C213.726 33.6411 214.003 33.9211 214.203 34.2877C214.403 34.6544 214.503 35.0844 214.503 35.5777V35.9377H210.513C210.533 36.4644 210.703 36.8777 211.023 37.1777C211.343 37.4711 211.743 37.6177 212.223 37.6177C212.643 37.6177 212.966 37.5211 213.193 37.3277C213.419 37.1344 213.593 36.9044 213.713 36.6377L214.393 36.9677C214.293 37.1744 214.153 37.3811 213.973 37.5877C213.799 37.7944 213.569 37.9677 213.283 38.1077C213.003 38.2477 212.643 38.3177 212.203 38.3177ZM210.523 35.2877H213.703C213.676 34.8344 213.519 34.4811 213.233 34.2277C212.953 33.9744 212.593 33.8477 212.153 33.8477C211.706 33.8477 211.339 33.9744 211.053 34.2277C210.766 34.4811 210.589 34.8344 210.523 35.2877Z" fill="black"/>
<path d="M176.825 101.595C176.177 101.595 175.605 101.479 175.109 101.247C174.613 101.015 174.225 100.683 173.945 100.251C173.665 99.8188 173.525 99.2988 173.525 98.6908V98.3548H175.085V98.6908C175.085 99.1948 175.241 99.5748 175.553 99.8308C175.865 100.079 176.289 100.203 176.825 100.203C177.369 100.203 177.773 100.095 178.037 99.8788C178.309 99.6628 178.445 99.3868 178.445 99.0508C178.445 98.8188 178.377 98.6308 178.241 98.4868C178.113 98.3428 177.921 98.2268 177.665 98.1388C177.417 98.0428 177.113 97.9548 176.753 97.8748L176.477 97.8148C175.901 97.6868 175.405 97.5268 174.989 97.3348C174.581 97.1348 174.265 96.8748 174.041 96.5548C173.825 96.2348 173.717 95.8188 173.717 95.3068C173.717 94.7948 173.837 94.3588 174.077 93.9988C174.325 93.6308 174.669 93.3508 175.109 93.1588C175.557 92.9588 176.081 92.8588 176.681 92.8588C177.281 92.8588 177.813 92.9628 178.277 93.1708C178.749 93.3708 179.117 93.6748 179.381 94.0828C179.653 94.4828 179.789 94.9868 179.789 95.5948V95.9548H178.229V95.5948C178.229 95.2748 178.165 95.0188 178.037 94.8268C177.917 94.6268 177.741 94.4828 177.509 94.3948C177.277 94.2988 177.001 94.2508 176.681 94.2508C176.201 94.2508 175.845 94.3428 175.613 94.5268C175.389 94.7028 175.277 94.9468 175.277 95.2588C175.277 95.4668 175.329 95.6428 175.433 95.7868C175.545 95.9308 175.709 96.0508 175.925 96.1468C176.141 96.2428 176.417 96.3268 176.753 96.3988L177.029 96.4588C177.629 96.5868 178.149 96.7508 178.589 96.9508C179.037 97.1508 179.385 97.4148 179.633 97.7428C179.881 98.0708 180.005 98.4908 180.005 99.0028C180.005 99.5148 179.873 99.9668 179.609 100.359C179.353 100.743 178.985 101.047 178.505 101.271C178.033 101.487 177.473 101.595 176.825 101.595ZM182.861 101.427V94.4668H180.413V93.0268H186.893V94.4668H184.445V101.427H182.861ZM187.972 101.427V93.0268H193.372V94.4668H189.556V96.4708H193.036V97.9108H189.556V99.9868H193.444V101.427H187.972ZM194.616 101.427V93.0268H197.556L199.008 100.347H199.224L200.676 93.0268H203.616V101.427H202.08V94.1908H201.864L200.424 101.427H197.808L196.368 94.1908H196.152V101.427H194.616ZM173.647 119.427V118.697C173.647 118.197 173.734 117.797 173.907 117.497C174.087 117.197 174.334 116.957 174.647 116.777C174.967 116.59 175.347 116.43 175.787 116.297L176.337 116.127C176.637 116.033 176.901 115.92 177.127 115.787C177.354 115.647 177.531 115.473 177.657 115.267C177.784 115.053 177.847 114.793 177.847 114.487V114.447C177.847 114.007 177.694 113.66 177.387 113.407C177.081 113.147 176.687 113.017 176.207 113.017C175.701 113.017 175.287 113.153 174.967 113.427C174.647 113.693 174.487 114.1 174.487 114.647V114.787H173.687V114.657C173.687 114.15 173.797 113.72 174.017 113.367C174.237 113.013 174.537 112.747 174.917 112.567C175.297 112.38 175.727 112.287 176.207 112.287C176.687 112.287 177.111 112.377 177.477 112.557C177.851 112.737 178.141 112.987 178.347 113.307C178.554 113.627 178.657 114 178.657 114.427V114.517C178.657 114.97 178.567 115.347 178.387 115.647C178.207 115.94 177.957 116.18 177.637 116.367C177.324 116.553 176.954 116.713 176.527 116.847L175.987 117.017C175.647 117.123 175.364 117.237 175.137 117.357C174.917 117.47 174.751 117.617 174.637 117.797C174.524 117.977 174.467 118.22 174.467 118.527V118.697H178.597V119.427H173.647ZM182.541 121.427V114.537H183.311V115.347H183.451C183.578 115.1 183.781 114.88 184.061 114.687C184.348 114.493 184.744 114.397 185.251 114.397C185.671 114.397 186.054 114.5 186.401 114.707C186.754 114.907 187.034 115.193 187.241 115.567C187.454 115.94 187.561 116.39 187.561 116.917V117.047C187.561 117.567 187.458 118.017 187.251 118.397C187.044 118.777 186.764 119.067 186.411 119.267C186.064 119.467 185.678 119.567 185.251 119.567C184.911 119.567 184.621 119.52 184.381 119.427C184.148 119.34 183.958 119.227 183.811 119.087C183.664 118.947 183.551 118.803 183.471 118.657H183.331V121.427H182.541ZM185.041 118.867C185.548 118.867 185.958 118.707 186.271 118.387C186.591 118.06 186.751 117.607 186.751 117.027V116.937C186.751 116.357 186.591 115.907 186.271 115.587C185.958 115.26 185.548 115.097 185.041 115.097C184.541 115.097 184.128 115.26 183.801 115.587C183.481 115.907 183.321 116.357 183.321 116.937V117.027C183.321 117.607 183.481 118.06 183.801 118.387C184.128 118.707 184.541 118.867 185.041 118.867ZM191.216 119.567C190.723 119.567 190.29 119.463 189.916 119.257C189.543 119.043 189.253 118.747 189.046 118.367C188.84 117.987 188.736 117.547 188.736 117.047V116.927C188.736 116.42 188.84 115.977 189.046 115.597C189.253 115.217 189.54 114.923 189.906 114.717C190.273 114.503 190.693 114.397 191.166 114.397C191.626 114.397 192.033 114.497 192.386 114.697C192.74 114.89 193.016 115.17 193.216 115.537C193.416 115.903 193.516 116.333 193.516 116.827V117.187H189.526C189.546 117.713 189.716 118.127 190.036 118.427C190.356 118.72 190.756 118.867 191.236 118.867C191.656 118.867 191.98 118.77 192.206 118.577C192.433 118.383 192.606 118.153 192.726 117.887L193.406 118.217C193.306 118.423 193.166 118.63 192.986 118.837C192.813 119.043 192.583 119.217 192.296 119.357C192.016 119.497 191.656 119.567 191.216 119.567ZM189.536 116.537H192.716C192.69 116.083 192.533 115.73 192.246 115.477C191.966 115.223 191.606 115.097 191.166 115.097C190.72 115.097 190.353 115.223 190.066 115.477C189.78 115.73 189.603 116.083 189.536 116.537ZM197.154 119.567C196.661 119.567 196.224 119.463 195.844 119.257C195.471 119.05 195.178 118.76 194.964 118.387C194.758 118.007 194.654 117.56 194.654 117.047V116.917C194.654 116.41 194.758 115.967 194.964 115.587C195.178 115.207 195.471 114.913 195.844 114.707C196.224 114.5 196.661 114.397 197.154 114.397C197.648 114.397 198.081 114.5 198.454 114.707C198.834 114.913 199.128 115.207 199.334 115.587C199.548 115.967 199.654 116.41 199.654 116.917V117.047C199.654 117.56 199.548 118.007 199.334 118.387C199.128 118.76 198.834 119.05 198.454 119.257C198.081 119.463 197.648 119.567 197.154 119.567ZM197.154 118.857C197.674 118.857 198.088 118.693 198.394 118.367C198.708 118.033 198.864 117.587 198.864 117.027V116.937C198.864 116.377 198.708 115.933 198.394 115.607C198.088 115.273 197.674 115.107 197.154 115.107C196.641 115.107 196.228 115.273 195.914 115.607C195.601 115.933 195.444 116.377 195.444 116.937V117.027C195.444 117.587 195.601 118.033 195.914 118.367C196.228 118.693 196.641 118.857 197.154 118.857ZM201.076 121.427V114.537H201.846V115.347H201.986C202.113 115.1 202.316 114.88 202.596 114.687C202.883 114.493 203.279 114.397 203.786 114.397C204.206 114.397 204.589 114.5 204.936 114.707C205.289 114.907 205.569 115.193 205.776 115.567C205.989 115.94 206.096 116.39 206.096 116.917V117.047C206.096 117.567 205.993 118.017 205.786 118.397C205.579 118.777 205.299 119.067 204.946 119.267C204.599 119.467 204.213 119.567 203.786 119.567C203.446 119.567 203.156 119.52 202.916 119.427C202.683 119.34 202.493 119.227 202.346 119.087C202.199 118.947 202.086 118.803 202.006 118.657H201.866V121.427H201.076ZM203.576 118.867C204.083 118.867 204.493 118.707 204.806 118.387C205.126 118.06 205.286 117.607 205.286 117.027V116.937C205.286 116.357 205.126 115.907 204.806 115.587C204.493 115.26 204.083 115.097 203.576 115.097C203.076 115.097 202.663 115.26 202.336 115.587C202.016 115.907 201.856 116.357 201.856 116.937V117.027C201.856 117.607 202.016 118.06 202.336 118.387C202.663 118.707 203.076 118.867 203.576 118.867ZM207.512 119.427V112.427H208.302V119.427H207.512ZM212.203 119.567C211.709 119.567 211.276 119.463 210.903 119.257C210.529 119.043 210.239 118.747 210.033 118.367C209.826 117.987 209.723 117.547 209.723 117.047V116.927C209.723 116.42 209.826 115.977 210.033 115.597C210.239 115.217 210.526 114.923 210.893 114.717C211.259 114.503 211.679 114.397 212.153 114.397C212.613 114.397 213.019 114.497 213.373 114.697C213.726 114.89 214.003 115.17 214.203 115.537C214.403 115.903 214.503 116.333 214.503 116.827V117.187H210.513C210.533 117.713 210.703 118.127 211.023 118.427C211.343 118.72 211.743 118.867 212.223 118.867C212.643 118.867 212.966 118.77 213.193 118.577C213.419 118.383 213.593 118.153 213.713 117.887L214.393 118.217C214.293 118.423 214.153 118.63 213.973 118.837C213.799 119.043 213.569 119.217 213.283 119.357C213.003 119.497 212.643 119.567 212.203 119.567ZM210.523 116.537H213.703C213.676 116.083 213.519 115.73 213.233 115.477C212.953 115.223 212.593 115.097 212.153 115.097C211.706 115.097 211.339 115.223 211.053 115.477C210.766 115.73 210.589 116.083 210.523 116.537Z" fill="black"/>
<path d="M255.163 182.678V174.278H258.103L259.555 181.598H259.771L261.223 174.278H264.163V182.678H262.627V175.442H262.411L260.971 182.678H258.355L256.915 175.442H256.699V182.678H255.163ZM268.061 182.774C267.597 182.774 267.189 182.67 266.837 182.462C266.493 182.246 266.225 181.95 266.033 181.574C265.841 181.198 265.745 180.766 265.745 180.278V176.726H267.257V180.158C267.257 180.606 267.365 180.942 267.581 181.166C267.805 181.39 268.121 181.502 268.529 181.502C268.993 181.502 269.353 181.35 269.609 181.046C269.865 180.734 269.993 180.302 269.993 179.75V176.726H271.505V182.678H270.017V181.898H269.801C269.705 182.098 269.525 182.294 269.261 182.486C268.997 182.678 268.597 182.774 268.061 182.774ZM275.66 182.846C274.884 182.846 274.248 182.678 273.752 182.342C273.256 182.006 272.956 181.526 272.852 180.902L274.244 180.542C274.3 180.822 274.392 181.042 274.52 181.202C274.656 181.362 274.82 181.478 275.012 181.55C275.212 181.614 275.428 181.646 275.66 181.646C276.012 181.646 276.272 181.586 276.44 181.466C276.608 181.338 276.692 181.182 276.692 180.998C276.692 180.814 276.612 180.674 276.452 180.578C276.292 180.474 276.036 180.39 275.684 180.326L275.348 180.266C274.932 180.186 274.552 180.078 274.208 179.942C273.864 179.798 273.588 179.602 273.38 179.354C273.172 179.106 273.068 178.786 273.068 178.394C273.068 177.802 273.284 177.35 273.716 177.038C274.148 176.718 274.716 176.558 275.42 176.558C276.084 176.558 276.636 176.706 277.076 177.002C277.516 177.298 277.804 177.686 277.94 178.166L276.536 178.598C276.472 178.294 276.34 178.078 276.14 177.95C275.948 177.822 275.708 177.758 275.42 177.758C275.132 177.758 274.912 177.81 274.76 177.914C274.608 178.01 274.532 178.146 274.532 178.322C274.532 178.514 274.612 178.658 274.772 178.754C274.932 178.842 275.148 178.91 275.42 178.958L275.756 179.018C276.204 179.098 276.608 179.206 276.968 179.342C277.336 179.47 277.624 179.658 277.832 179.906C278.048 180.146 278.156 180.474 278.156 180.89C278.156 181.514 277.928 181.998 277.472 182.342C277.024 182.678 276.42 182.846 275.66 182.846ZM279.481 182.678V176.726H280.993V182.678H279.481ZM280.237 176.03C279.965 176.03 279.733 175.942 279.541 175.766C279.357 175.59 279.265 175.358 279.265 175.07C279.265 174.782 279.357 174.55 279.541 174.374C279.733 174.198 279.965 174.11 280.237 174.11C280.517 174.11 280.749 174.198 280.933 174.374C281.117 174.55 281.209 174.782 281.209 175.07C281.209 175.358 281.117 175.59 280.933 175.766C280.749 175.942 280.517 176.03 280.237 176.03ZM285.464 182.846C284.888 182.846 284.364 182.726 283.892 182.486C283.428 182.246 283.06 181.898 282.788 181.442C282.516 180.986 282.38 180.434 282.38 179.786V179.618C282.38 178.97 282.516 178.418 282.788 177.962C283.06 177.506 283.428 177.158 283.892 176.918C284.364 176.678 284.888 176.558 285.464 176.558C286.032 176.558 286.52 176.658 286.928 176.858C287.336 177.058 287.664 177.334 287.912 177.686C288.168 178.03 288.336 178.422 288.416 178.862L286.952 179.174C286.92 178.934 286.848 178.718 286.736 178.526C286.624 178.334 286.464 178.182 286.256 178.07C286.056 177.958 285.804 177.902 285.5 177.902C285.196 177.902 284.92 177.97 284.672 178.106C284.432 178.234 284.24 178.43 284.096 178.694C283.96 178.95 283.892 179.266 283.892 179.642V179.762C283.892 180.138 283.96 180.458 284.096 180.722C284.24 180.978 284.432 181.174 284.672 181.31C284.92 181.438 285.196 181.502 285.5 181.502C285.956 181.502 286.3 181.386 286.532 181.154C286.772 180.914 286.924 180.602 286.988 180.218L288.452 180.566C288.348 180.99 288.168 181.378 287.912 181.73C287.664 182.074 287.336 182.346 286.928 182.546C286.52 182.746 286.032 182.846 285.464 182.846ZM256.941 200.678V194.218H256.791L255.431 196.708H254.551L256.221 193.678H257.751V200.678H256.941ZM261.949 202.678V195.788H262.719V196.598H262.859C262.986 196.351 263.189 196.131 263.469 195.938C263.756 195.744 264.152 195.648 264.659 195.648C265.079 195.648 265.462 195.751 265.809 195.958C266.162 196.158 266.442 196.444 266.649 196.818C266.862 197.191 266.969 197.641 266.969 198.168V198.298C266.969 198.818 266.866 199.268 266.659 199.648C266.452 200.028 266.172 200.318 265.819 200.518C265.472 200.718 265.086 200.818 264.659 200.818C264.319 200.818 264.029 200.771 263.789 200.678C263.556 200.591 263.366 200.478 263.219 200.338C263.072 200.198 262.959 200.054 262.879 199.908H262.739V202.678H261.949ZM264.449 200.118C264.956 200.118 265.366 199.958 265.679 199.638C265.999 199.311 266.159 198.858 266.159 198.278V198.188C266.159 197.608 265.999 197.158 265.679 196.838C265.366 196.511 264.956 196.348 264.449 196.348C263.949 196.348 263.536 196.511 263.209 196.838C262.889 197.158 262.729 197.608 262.729 198.188V198.278C262.729 198.858 262.889 199.311 263.209 199.638C263.536 199.958 263.949 200.118 264.449 200.118ZM270.625 200.818C270.131 200.818 269.698 200.714 269.325 200.508C268.951 200.294 268.661 199.998 268.455 199.618C268.248 199.238 268.145 198.798 268.145 198.298V198.178C268.145 197.671 268.248 197.228 268.455 196.848C268.661 196.468 268.948 196.174 269.315 195.968C269.681 195.754 270.101 195.648 270.575 195.648C271.035 195.648 271.441 195.748 271.795 195.948C272.148 196.141 272.425 196.421 272.625 196.788C272.825 197.154 272.925 197.584 272.925 198.078V198.438H268.935C268.955 198.964 269.125 199.378 269.445 199.678C269.765 199.971 270.165 200.118 270.645 200.118C271.065 200.118 271.388 200.021 271.615 199.828C271.841 199.634 272.015 199.404 272.135 199.138L272.815 199.468C272.715 199.674 272.575 199.881 272.395 200.088C272.221 200.294 271.991 200.468 271.705 200.608C271.425 200.748 271.065 200.818 270.625 200.818ZM268.945 197.788H272.125C272.098 197.334 271.941 196.981 271.655 196.728C271.375 196.474 271.015 196.348 270.575 196.348C270.128 196.348 269.761 196.474 269.475 196.728C269.188 196.981 269.011 197.334 268.945 197.788ZM274.303 200.678V195.788H275.073V196.388H275.213C275.299 196.174 275.433 196.018 275.613 195.918C275.793 195.818 276.029 195.768 276.323 195.768H276.903V196.488H276.273C275.919 196.488 275.633 196.588 275.413 196.788C275.199 196.981 275.093 197.284 275.093 197.698V200.678H274.303ZM279.945 200.818C279.338 200.818 278.825 200.678 278.405 200.398C277.991 200.118 277.741 199.674 277.655 199.068L278.405 198.898C278.458 199.218 278.558 199.471 278.705 199.658C278.851 199.838 279.031 199.968 279.245 200.048C279.465 200.121 279.698 200.158 279.945 200.158C280.311 200.158 280.601 200.084 280.815 199.938C281.028 199.791 281.135 199.594 281.135 199.348C281.135 199.094 281.031 198.918 280.825 198.818C280.625 198.711 280.348 198.624 279.995 198.558L279.585 198.488C279.271 198.434 278.985 198.351 278.725 198.238C278.465 198.124 278.258 197.971 278.105 197.778C277.951 197.584 277.875 197.341 277.875 197.048C277.875 196.608 278.045 196.264 278.385 196.018C278.725 195.771 279.175 195.648 279.735 195.648C280.288 195.648 280.735 195.774 281.075 196.028C281.421 196.274 281.645 196.624 281.745 197.078L281.005 197.268C280.945 196.914 280.801 196.668 280.575 196.528C280.348 196.381 280.068 196.308 279.735 196.308C279.401 196.308 279.138 196.371 278.945 196.498C278.751 196.618 278.655 196.798 278.655 197.038C278.655 197.271 278.745 197.444 278.925 197.558C279.111 197.664 279.358 197.744 279.665 197.798L280.075 197.868C280.421 197.928 280.731 198.011 281.005 198.118C281.285 198.218 281.505 198.364 281.665 198.558C281.831 198.751 281.915 199.004 281.915 199.318C281.915 199.798 281.735 200.168 281.375 200.428C281.021 200.688 280.545 200.818 279.945 200.818ZM285.508 200.818C285.015 200.818 284.578 200.714 284.198 200.508C283.825 200.301 283.531 200.011 283.318 199.638C283.111 199.258 283.008 198.811 283.008 198.298V198.168C283.008 197.661 283.111 197.218 283.318 196.838C283.531 196.458 283.825 196.164 284.198 195.958C284.578 195.751 285.015 195.648 285.508 195.648C286.001 195.648 286.435 195.751 286.808 195.958C287.188 196.164 287.481 196.458 287.688 196.838C287.901 197.218 288.008 197.661 288.008 198.168V198.298C288.008 198.811 287.901 199.258 287.688 199.638C287.481 200.011 287.188 200.301 286.808 200.508C286.435 200.714 286.001 200.818 285.508 200.818ZM285.508 200.108C286.028 200.108 286.441 199.944 286.748 199.618C287.061 199.284 287.218 198.838 287.218 198.278V198.188C287.218 197.628 287.061 197.184 286.748 196.858C286.441 196.524 286.028 196.358 285.508 196.358C284.995 196.358 284.581 196.524 284.268 196.858C283.955 197.184 283.798 197.628 283.798 198.188V198.278C283.798 198.838 283.955 199.284 284.268 199.618C284.581 199.944 284.995 200.108 285.508 200.108ZM289.43 200.678V195.788H290.2V196.618H290.34C290.446 196.384 290.626 196.174 290.88 195.988C291.14 195.794 291.52 195.698 292.02 195.698C292.386 195.698 292.713 195.774 293 195.928C293.293 196.081 293.526 196.308 293.7 196.608C293.873 196.908 293.96 197.278 293.96 197.718V200.678H293.17V197.778C293.17 197.291 293.046 196.938 292.8 196.718C292.56 196.498 292.233 196.388 291.82 196.388C291.346 196.388 290.96 196.541 290.66 196.848C290.366 197.154 290.22 197.611 290.22 198.218V200.678H289.43Z" fill="black"/>
<path d="M11.1731 20.1787V18.7867H12.2771V13.1707H11.1731V11.7787H15.4931C16.0051 11.7787 16.4491 11.8667 16.8251 12.0427C17.2091 12.2107 17.5051 12.4547 17.7131 12.7747C17.9291 13.0867 18.0371 13.4627 18.0371 13.9027V14.0227C18.0371 14.4067 17.9651 14.7227 17.8211 14.9707C17.6771 15.2107 17.5051 15.3987 17.3051 15.5347C17.1131 15.6627 16.9291 15.7547 16.7531 15.8107V16.0267C16.9291 16.0747 17.1211 16.1667 17.3291 16.3027C17.5371 16.4307 17.7131 16.6187 17.8571 16.8667C18.0091 17.1147 18.0851 17.4387 18.0851 17.8387V17.9587C18.0851 18.4227 17.9771 18.8227 17.7611 19.1587C17.5451 19.4867 17.2451 19.7387 16.8611 19.9147C16.4851 20.0907 16.0451 20.1787 15.5411 20.1787H11.1731ZM13.8611 18.7387H15.3491C15.6931 18.7387 15.9691 18.6547 16.1771 18.4867C16.3931 18.3187 16.5011 18.0787 16.5011 17.7667V17.6467C16.5011 17.3347 16.3971 17.0947 16.1891 16.9267C15.9811 16.7587 15.7011 16.6747 15.3491 16.6747H13.8611V18.7387ZM13.8611 15.2347H15.3251C15.6531 15.2347 15.9211 15.1507 16.1291 14.9827C16.3451 14.8147 16.4531 14.5827 16.4531 14.2867V14.1667C16.4531 13.8627 16.3491 13.6307 16.1411 13.4707C15.9331 13.3027 15.6611 13.2187 15.3251 13.2187H13.8611V15.2347ZM21.6978 20.2747C21.2338 20.2747 20.8258 20.1707 20.4738 19.9627C20.1298 19.7467 19.8618 19.4507 19.6698 19.0747C19.4778 18.6987 19.3818 18.2667 19.3818 17.7787V14.2267H20.8938V17.6587C20.8938 18.1067 21.0018 18.4427 21.2178 18.6667C21.4418 18.8907 21.7578 19.0027 22.1658 19.0027C22.6298 19.0027 22.9898 18.8507 23.2458 18.5467C23.5018 18.2347 23.6298 17.8027 23.6298 17.2507V14.2267H25.1418V20.1787H23.6538V19.3987H23.4378C23.3418 19.5987 23.1618 19.7947 22.8978 19.9867C22.6338 20.1787 22.2338 20.2747 21.6978 20.2747ZM29.2964 20.3467C28.5204 20.3467 27.8844 20.1787 27.3884 19.8427C26.8924 19.5067 26.5924 19.0267 26.4884 18.4027L27.8804 18.0427C27.9364 18.3227 28.0284 18.5427 28.1564 18.7027C28.2924 18.8627 28.4564 18.9787 28.6484 19.0507C28.8484 19.1147 29.0644 19.1467 29.2964 19.1467C29.6484 19.1467 29.9084 19.0867 30.0764 18.9667C30.2444 18.8387 30.3284 18.6827 30.3284 18.4987C30.3284 18.3147 30.2484 18.1747 30.0884 18.0787C29.9284 17.9747 29.6724 17.8907 29.3204 17.8267L28.9844 17.7667C28.5684 17.6867 28.1884 17.5787 27.8444 17.4427C27.5004 17.2987 27.2244 17.1027 27.0164 16.8547C26.8084 16.6067 26.7044 16.2867 26.7044 15.8947C26.7044 15.3027 26.9204 14.8507 27.3524 14.5387C27.7844 14.2187 28.3524 14.0587 29.0564 14.0587C29.7204 14.0587 30.2724 14.2067 30.7124 14.5027C31.1524 14.7987 31.4404 15.1867 31.5764 15.6667L30.1724 16.0987C30.1084 15.7947 29.9764 15.5787 29.7764 15.4507C29.5844 15.3227 29.3444 15.2587 29.0564 15.2587C28.7684 15.2587 28.5484 15.3107 28.3964 15.4147C28.2444 15.5107 28.1684 15.6467 28.1684 15.8227C28.1684 16.0147 28.2484 16.1587 28.4084 16.2547C28.5684 16.3427 28.7844 16.4107 29.0564 16.4587L29.3924 16.5187C29.8404 16.5987 30.2444 16.7067 30.6044 16.8427C30.9724 16.9707 31.2604 17.1587 31.4684 17.4067C31.6844 17.6467 31.7924 17.9747 31.7924 18.3907C31.7924 19.0147 31.5644 19.4987 31.1084 19.8427C30.6604 20.1787 30.0564 20.3467 29.2964 20.3467ZM33.1173 20.1787V14.2267H34.6293V20.1787H33.1173ZM33.8733 13.5307C33.6013 13.5307 33.3693 13.4427 33.1773 13.2667C32.9933 13.0907 32.9013 12.8587 32.9013 12.5707C32.9013 12.2827 32.9933 12.0507 33.1773 11.8747C33.3693 11.6987 33.6013 11.6107 33.8733 11.6107C34.1533 11.6107 34.3853 11.6987 34.5693 11.8747C34.7533 12.0507 34.8453 12.2827 34.8453 12.5707C34.8453 12.8587 34.7533 13.0907 34.5693 13.2667C34.3853 13.4427 34.1533 13.5307 33.8733 13.5307ZM36.3048 20.1787V14.2267H37.7928V15.0067H38.0088C38.1048 14.7987 38.2848 14.6027 38.5488 14.4187C38.8128 14.2267 39.2128 14.1307 39.7488 14.1307C40.2128 14.1307 40.6168 14.2387 40.9608 14.4547C41.3128 14.6627 41.5848 14.9547 41.7768 15.3307C41.9688 15.6987 42.0648 16.1307 42.0648 16.6267V20.1787H40.5528V16.7467C40.5528 16.2987 40.4408 15.9627 40.2168 15.7387C40.0008 15.5147 39.6888 15.4027 39.2808 15.4027C38.8168 15.4027 38.4568 15.5587 38.2008 15.8707C37.9448 16.1747 37.8168 16.6027 37.8168 17.1547V20.1787H36.3048ZM46.4114 20.3467C45.8194 20.3467 45.2954 20.2227 44.8394 19.9747C44.3914 19.7187 44.0394 19.3627 43.7834 18.9067C43.5354 18.4427 43.4114 17.8987 43.4114 17.2747V17.1307C43.4114 16.5067 43.5354 15.9667 43.7834 15.5107C44.0314 15.0467 44.3794 14.6907 44.8274 14.4427C45.2754 14.1867 45.7954 14.0587 46.3874 14.0587C46.9714 14.0587 47.4794 14.1907 47.9114 14.4547C48.3434 14.7107 48.6794 15.0707 48.9194 15.5347C49.1594 15.9907 49.2794 16.5227 49.2794 17.1307V17.6467H44.9474C44.9634 18.0547 45.1154 18.3867 45.4034 18.6427C45.6914 18.8987 46.0434 19.0267 46.4594 19.0267C46.8834 19.0267 47.1954 18.9347 47.3954 18.7507C47.5954 18.5667 47.7474 18.3627 47.8514 18.1387L49.0874 18.7867C48.9754 18.9947 48.8114 19.2227 48.5954 19.4707C48.3874 19.7107 48.1074 19.9187 47.7554 20.0947C47.4034 20.2627 46.9554 20.3467 46.4114 20.3467ZM44.9594 16.5187H47.7434C47.7114 16.1747 47.5714 15.8987 47.3234 15.6907C47.0834 15.4827 46.7674 15.3787 46.3754 15.3787C45.9674 15.3787 45.6434 15.4827 45.4034 15.6907C45.1634 15.8987 45.0154 16.1747 44.9594 16.5187ZM53.0972 20.3467C52.3212 20.3467 51.6852 20.1787 51.1892 19.8427C50.6932 19.5067 50.3932 19.0267 50.2892 18.4027L51.6812 18.0427C51.7372 18.3227 51.8292 18.5427 51.9572 18.7027C52.0932 18.8627 52.2572 18.9787 52.4492 19.0507C52.6492 19.1147 52.8652 19.1467 53.0972 19.1467C53.4492 19.1467 53.7092 19.0867 53.8772 18.9667C54.0452 18.8387 54.1292 18.6827 54.1292 18.4987C54.1292 18.3147 54.0492 18.1747 53.8892 18.0787C53.7292 17.9747 53.4732 17.8907 53.1212 17.8267L52.7852 17.7667C52.3692 17.6867 51.9892 17.5787 51.6452 17.4427C51.3012 17.2987 51.0252 17.1027 50.8172 16.8547C50.6092 16.6067 50.5052 16.2867 50.5052 15.8947C50.5052 15.3027 50.7212 14.8507 51.1532 14.5387C51.5852 14.2187 52.1532 14.0587 52.8572 14.0587C53.5212 14.0587 54.0732 14.2067 54.5132 14.5027C54.9532 14.7987 55.2412 15.1867 55.3772 15.6667L53.9732 16.0987C53.9092 15.7947 53.7772 15.5787 53.5772 15.4507C53.3852 15.3227 53.1452 15.2587 52.8572 15.2587C52.5692 15.2587 52.3492 15.3107 52.1972 15.4147C52.0452 15.5107 51.9692 15.6467 51.9692 15.8227C51.9692 16.0147 52.0492 16.1587 52.2092 16.2547C52.3692 16.3427 52.5852 16.4107 52.8572 16.4587L53.1932 16.5187C53.6412 16.5987 54.0452 16.7067 54.4052 16.8427C54.7732 16.9707 55.0612 17.1587 55.2692 17.4067C55.4852 17.6467 55.5932 17.9747 55.5932 18.3907C55.5932 19.0147 55.3652 19.4987 54.9092 19.8427C54.4612 20.1787 53.8572 20.3467 53.0972 20.3467ZM59.3901 20.3467C58.6141 20.3467 57.9781 20.1787 57.4821 19.8427C56.9861 19.5067 56.6861 19.0267 56.5821 18.4027L57.9741 18.0427C58.0301 18.3227 58.1221 18.5427 58.2501 18.7027C58.3861 18.8627 58.5501 18.9787 58.7421 19.0507C58.9421 19.1147 59.1581 19.1467 59.3901 19.1467C59.7421 19.1467 60.0021 19.0867 60.1701 18.9667C60.3381 18.8387 60.4221 18.6827 60.4221 18.4987C60.4221 18.3147 60.3421 18.1747 60.1821 18.0787C60.0221 17.9747 59.7661 17.8907 59.4141 17.8267L59.0781 17.7667C58.6621 17.6867 58.2821 17.5787 57.9381 17.4427C57.5941 17.2987 57.3181 17.1027 57.1101 16.8547C56.9021 16.6067 56.7981 16.2867 56.7981 15.8947C56.7981 15.3027 57.0141 14.8507 57.4461 14.5387C57.8781 14.2187 58.4461 14.0587 59.1501 14.0587C59.8141 14.0587 60.3661 14.2067 60.8061 14.5027C61.2461 14.7987 61.5341 15.1867 61.6701 15.6667L60.2661 16.0987C60.2021 15.7947 60.0701 15.5787 59.8701 15.4507C59.6781 15.3227 59.4381 15.2587 59.1501 15.2587C58.8621 15.2587 58.6421 15.3107 58.4901 15.4147C58.3381 15.5107 58.2621 15.6467 58.2621 15.8227C58.2621 16.0147 58.3421 16.1587 58.5021 16.2547C58.6621 16.3427 58.8781 16.4107 59.1501 16.4587L59.4861 16.5187C59.9341 16.5987 60.3381 16.7067 60.6981 16.8427C61.0661 16.9707 61.3541 17.1587 61.5621 17.4067C61.7781 17.6467 61.8861 17.9747 61.8861 18.3907C61.8861 19.0147 61.6581 19.4987 61.2021 19.8427C60.7541 20.1787 60.1501 20.3467 59.3901 20.3467ZM12.1411 38.1787V37.9287C12.1411 37.6954 12.1611 37.4987 12.2011 37.3387C12.2411 37.1787 12.3178 36.9887 12.4311 36.7687L15.1011 32.0187V31.9087H10.9411V31.1787H15.9511V32.1387L13.1611 37.1387C13.0811 37.2787 13.0244 37.4054 12.9911 37.5187C12.9644 37.632 12.9511 37.7754 12.9511 37.9487V38.1787H12.1411ZM19.664 40.1787V33.2887H20.434V34.0987H20.574C20.7007 33.852 20.904 33.632 21.184 33.4387C21.4707 33.2454 21.8673 33.1487 22.374 33.1487C22.794 33.1487 23.1773 33.252 23.524 33.4587C23.8773 33.6587 24.1573 33.9454 24.364 34.3187C24.5773 34.692 24.684 35.142 24.684 35.6687V35.7987C24.684 36.3187 24.5807 36.7687 24.374 37.1487C24.1673 37.5287 23.8873 37.8187 23.534 38.0187C23.1873 38.2187 22.8007 38.3187 22.374 38.3187C22.034 38.3187 21.744 38.272 21.504 38.1787C21.2707 38.092 21.0807 37.9787 20.934 37.8387C20.7873 37.6987 20.674 37.5554 20.594 37.4087H20.454V40.1787H19.664ZM22.164 37.6187C22.6707 37.6187 23.0807 37.4587 23.394 37.1387C23.714 36.812 23.874 36.3587 23.874 35.7787V35.6887C23.874 35.1087 23.714 34.6587 23.394 34.3387C23.0807 34.012 22.6707 33.8487 22.164 33.8487C21.664 33.8487 21.2507 34.012 20.924 34.3387C20.604 34.6587 20.444 35.1087 20.444 35.6887V35.7787C20.444 36.3587 20.604 36.812 20.924 37.1387C21.2507 37.4587 21.664 37.6187 22.164 37.6187ZM28.3395 38.3187C27.8462 38.3187 27.4129 38.2154 27.0395 38.0087C26.6662 37.7954 26.3762 37.4987 26.1695 37.1187C25.9629 36.7387 25.8595 36.2987 25.8595 35.7987V35.6787C25.8595 35.172 25.9629 34.7287 26.1695 34.3487C26.3762 33.9687 26.6629 33.6754 27.0295 33.4687C27.3962 33.2554 27.8162 33.1487 28.2895 33.1487C28.7495 33.1487 29.1562 33.2487 29.5095 33.4487C29.8629 33.642 30.1395 33.922 30.3395 34.2887C30.5395 34.6554 30.6395 35.0854 30.6395 35.5787V35.9387H26.6495C26.6695 36.4654 26.8395 36.8787 27.1595 37.1787C27.4795 37.472 27.8795 37.6187 28.3595 37.6187C28.7795 37.6187 29.1029 37.522 29.3295 37.3287C29.5562 37.1354 29.7295 36.9054 29.8495 36.6387L30.5295 36.9687C30.4295 37.1754 30.2895 37.382 30.1095 37.5887C29.9362 37.7954 29.7062 37.9687 29.4195 38.1087C29.1395 38.2487 28.7795 38.3187 28.3395 38.3187ZM26.6595 35.2887H29.8395C29.8129 34.8354 29.6562 34.482 29.3695 34.2287C29.0895 33.9754 28.7295 33.8487 28.2895 33.8487C27.8429 33.8487 27.4762 33.9754 27.1895 34.2287C26.9029 34.482 26.7262 34.8354 26.6595 35.2887ZM34.2775 38.3187C33.7842 38.3187 33.3475 38.2154 32.9675 38.0087C32.5942 37.802 32.3008 37.512 32.0875 37.1387C31.8808 36.7587 31.7775 36.312 31.7775 35.7987V35.6687C31.7775 35.162 31.8808 34.7187 32.0875 34.3387C32.3008 33.9587 32.5942 33.6654 32.9675 33.4587C33.3475 33.252 33.7842 33.1487 34.2775 33.1487C34.7708 33.1487 35.2042 33.252 35.5775 33.4587C35.9575 33.6654 36.2508 33.9587 36.4575 34.3387C36.6708 34.7187 36.7775 35.162 36.7775 35.6687V35.7987C36.7775 36.312 36.6708 36.7587 36.4575 37.1387C36.2508 37.512 35.9575 37.802 35.5775 38.0087C35.2042 38.2154 34.7708 38.3187 34.2775 38.3187ZM34.2775 37.6087C34.7975 37.6087 35.2108 37.4454 35.5175 37.1187C35.8308 36.7854 35.9875 36.3387 35.9875 35.7787V35.6887C35.9875 35.1287 35.8308 34.6854 35.5175 34.3587C35.2108 34.0254 34.7975 33.8587 34.2775 33.8587C33.7642 33.8587 33.3508 34.0254 33.0375 34.3587C32.7242 34.6854 32.5675 35.1287 32.5675 35.6887V35.7787C32.5675 36.3387 32.7242 36.7854 33.0375 37.1187C33.3508 37.4454 33.7642 37.6087 34.2775 37.6087ZM38.1991 40.1787V33.2887H38.9691V34.0987H39.1091C39.2358 33.852 39.4391 33.632 39.7191 33.4387C40.0058 33.2454 40.4025 33.1487 40.9091 33.1487C41.3291 33.1487 41.7125 33.252 42.0591 33.4587C42.4125 33.6587 42.6925 33.9454 42.8991 34.3187C43.1125 34.692 43.2191 35.142 43.2191 35.6687V35.7987C43.2191 36.3187 43.1158 36.7687 42.9091 37.1487C42.7025 37.5287 42.4225 37.8187 42.0691 38.0187C41.7225 38.2187 41.3358 38.3187 40.9091 38.3187C40.5691 38.3187 40.2791 38.272 40.0391 38.1787C39.8058 38.092 39.6158 37.9787 39.4691 37.8387C39.3225 37.6987 39.2091 37.5554 39.1291 37.4087H38.9891V40.1787H38.1991ZM40.6991 37.6187C41.2058 37.6187 41.6158 37.4587 41.9291 37.1387C42.2491 36.812 42.4091 36.3587 42.4091 35.7787V35.6887C42.4091 35.1087 42.2491 34.6587 41.9291 34.3387C41.6158 34.012 41.2058 33.8487 40.6991 33.8487C40.1991 33.8487 39.7858 34.012 39.4591 34.3387C39.1391 34.6587 38.9791 35.1087 38.9791 35.6887V35.7787C38.9791 36.3587 39.1391 36.812 39.4591 37.1387C39.7858 37.4587 40.1991 37.6187 40.6991 37.6187ZM44.6347 38.1787V31.1787H45.4247V38.1787H44.6347ZM49.3259 38.3187C48.8325 38.3187 48.3992 38.2154 48.0259 38.0087C47.6525 37.7954 47.3625 37.4987 47.1559 37.1187C46.9492 36.7387 46.8459 36.2987 46.8459 35.7987V35.6787C46.8459 35.172 46.9492 34.7287 47.1559 34.3487C47.3625 33.9687 47.6492 33.6754 48.0159 33.4687C48.3825 33.2554 48.8025 33.1487 49.2759 33.1487C49.7359 33.1487 50.1425 33.2487 50.4959 33.4487C50.8492 33.642 51.1259 33.922 51.3259 34.2887C51.5259 34.6554 51.6259 35.0854 51.6259 35.5787V35.9387H47.6359C47.6559 36.4654 47.8259 36.8787 48.1459 37.1787C48.4659 37.472 48.8659 37.6187 49.3459 37.6187C49.7659 37.6187 50.0892 37.522 50.3159 37.3287C50.5425 37.1354 50.7159 36.9054 50.8359 36.6387L51.5159 36.9687C51.4159 37.1754 51.2759 37.382 51.0959 37.5887C50.9225 37.7954 50.6925 37.9687 50.4059 38.1087C50.1259 38.2487 49.7659 38.3187 49.3259 38.3187ZM47.6459 35.2887H50.8259C50.7992 34.8354 50.6425 34.482 50.3559 34.2287C50.0759 33.9754 49.7159 33.8487 49.2759 33.8487C48.8292 33.8487 48.4625 33.9754 48.1759 34.2287C47.8892 34.482 47.7125 34.8354 47.6459 35.2887Z" fill="black"/>
</svg>
