<svg width="770" height="329" viewBox="0 0 770 329" fill="none" xmlns="http://www.w3.org/2000/svg">
<path d="M10.656 32.504C8.88 32.504 7.308 32.132 5.94 31.388C4.596 30.62 3.54 29.552 2.772 28.184C2.028 26.792 1.656 25.16 1.656 23.288V22.856C1.656 20.984 2.028 19.364 2.772 17.996C3.516 16.604 4.56 15.536 5.904 14.792C7.248 14.024 8.808 13.64 10.584 13.64C12.336 13.64 13.86 14.036 15.156 14.828C16.452 15.596 17.46 16.676 18.18 18.068C18.9 19.436 19.26 21.032 19.26 22.856V24.404H6.264C6.312 25.628 6.768 26.624 7.632 27.392C8.496 28.16 9.552 28.544 10.8 28.544C12.072 28.544 13.008 28.268 13.608 27.716C14.208 27.164 14.664 26.552 14.976 25.88L18.684 27.824C18.348 28.448 17.856 29.132 17.208 29.876C16.584 30.596 15.744 31.22 14.688 31.748C13.632 32.252 12.288 32.504 10.656 32.504ZM6.3 21.02H14.652C14.556 19.988 14.136 19.16 13.392 18.536C12.672 17.912 11.724 17.6 10.548 17.6C9.324 17.6 8.352 17.912 7.632 18.536C6.912 19.16 6.468 19.988 6.3 21.02ZM26.514 32L20.826 14.144H25.65L29.79 28.688H30.438L34.578 14.144H39.402L33.714 32H26.514ZM50.1013 32.504C48.3253 32.504 46.7533 32.132 45.3853 31.388C44.0413 30.62 42.9853 29.552 42.2173 28.184C41.4733 26.792 41.1013 25.16 41.1013 23.288V22.856C41.1013 20.984 41.4733 19.364 42.2173 17.996C42.9613 16.604 44.0053 15.536 45.3493 14.792C46.6933 14.024 48.2533 13.64 50.0293 13.64C51.7813 13.64 53.3053 14.036 54.6013 14.828C55.8973 15.596 56.9053 16.676 57.6253 18.068C58.3453 19.436 58.7053 21.032 58.7053 22.856V24.404H45.7093C45.7573 25.628 46.2133 26.624 47.0773 27.392C47.9413 28.16 48.9973 28.544 50.2453 28.544C51.5173 28.544 52.4533 28.268 53.0533 27.716C53.6533 27.164 54.1093 26.552 54.4213 25.88L58.1293 27.824C57.7933 28.448 57.3013 29.132 56.6533 29.876C56.0293 30.596 55.1893 31.22 54.1333 31.748C53.0773 32.252 51.7333 32.504 50.1013 32.504ZM45.7453 21.02H54.0973C54.0013 19.988 53.5813 19.16 52.8373 18.536C52.1173 17.912 51.1693 17.6 49.9933 17.6C48.7693 17.6 47.7973 17.912 47.0773 18.536C46.3573 19.16 45.9133 19.988 45.7453 21.02ZM62.7427 32V14.144H67.2067V16.484H67.8547C68.1427 15.86 68.6827 15.272 69.4747 14.72C70.2667 14.144 71.4667 13.856 73.0747 13.856C74.4667 13.856 75.6787 14.18 76.7107 14.828C77.7667 15.452 78.5827 16.328 79.1587 17.456C79.7347 18.56 80.0227 19.856 80.0227 21.344V32H75.4867V21.704C75.4867 20.36 75.1507 19.352 74.4787 18.68C73.8307 18.008 72.8947 17.672 71.6707 17.672C70.2787 17.672 69.1987 18.14 68.4307 19.076C67.6627 19.988 67.2787 21.272 67.2787 22.928V32H62.7427ZM100.907 32C99.7309 32 98.7709 31.64 98.0269 30.92C97.3069 30.176 96.9469 29.192 96.9469 27.968V17.888H92.4829V14.144H96.9469V8.6H101.483V14.144H106.379V17.888H101.483V27.176C101.483 27.896 101.819 28.256 102.491 28.256H105.947V32H100.907ZM110.485 32V6.8H115.021V16.34H115.669C115.861 15.956 116.161 15.572 116.569 15.188C116.977 14.804 117.517 14.492 118.189 14.252C118.885 13.988 119.761 13.856 120.817 13.856C122.209 13.856 123.421 14.18 124.453 14.828C125.509 15.452 126.325 16.328 126.901 17.456C127.477 18.56 127.765 19.856 127.765 21.344V32H123.229V21.704C123.229 20.36 122.893 19.352 122.221 18.68C121.573 18.008 120.637 17.672 119.413 17.672C118.021 17.672 116.941 18.14 116.173 19.076C115.405 19.988 115.021 21.272 115.021 22.928V32H110.485ZM132.668 32V14.144H137.132V16.16H137.78C138.044 15.44 138.476 14.912 139.076 14.576C139.7 14.24 140.42 14.072 141.236 14.072H143.396V18.104H141.164C140.012 18.104 139.064 18.416 138.32 19.04C137.576 19.64 137.204 20.576 137.204 21.848V32H132.668ZM154.805 32.504C153.029 32.504 151.433 32.144 150.017 31.424C148.601 30.704 147.485 29.66 146.669 28.292C145.853 26.924 145.445 25.28 145.445 23.36V22.784C145.445 20.864 145.853 19.22 146.669 17.852C147.485 16.484 148.601 15.44 150.017 14.72C151.433 14 153.029 13.64 154.805 13.64C156.581 13.64 158.177 14 159.593 14.72C161.009 15.44 162.125 16.484 162.941 17.852C163.757 19.22 164.165 20.864 164.165 22.784V23.36C164.165 25.28 163.757 26.924 162.941 28.292C162.125 29.66 161.009 30.704 159.593 31.424C158.177 32.144 156.581 32.504 154.805 32.504ZM154.805 28.472C156.197 28.472 157.349 28.028 158.261 27.14C159.173 26.228 159.629 24.932 159.629 23.252V22.892C159.629 21.212 159.173 19.928 158.261 19.04C157.373 18.128 156.221 17.672 154.805 17.672C153.413 17.672 152.261 18.128 151.349 19.04C150.437 19.928 149.981 21.212 149.981 22.892V23.252C149.981 24.932 150.437 26.228 151.349 27.14C152.261 28.028 153.413 28.472 154.805 28.472ZM175.156 32.288C173.764 32.288 172.54 31.976 171.484 31.352C170.452 30.704 169.648 29.816 169.072 28.688C168.496 27.56 168.208 26.264 168.208 24.8V14.144H172.744V24.44C172.744 25.784 173.068 26.792 173.716 27.464C174.388 28.136 175.336 28.472 176.56 28.472C177.952 28.472 179.032 28.016 179.8 27.104C180.568 26.168 180.952 24.872 180.952 23.216V14.144H185.488V32H181.024V29.66H180.376C180.088 30.26 179.548 30.848 178.756 31.424C177.964 32 176.764 32.288 175.156 32.288ZM189.672 23.144V22.568C189.672 20.696 190.044 19.1 190.788 17.78C191.532 16.436 192.516 15.416 193.74 14.72C194.988 14 196.344 13.64 197.808 13.64C199.44 13.64 200.676 13.928 201.516 14.504C202.356 15.08 202.968 15.68 203.352 16.304H204V14.144H208.464V35.168C208.464 36.392 208.104 37.364 207.384 38.084C206.664 38.828 205.704 39.2 204.504 39.2H192.552V35.24H202.92C203.592 35.24 203.928 34.88 203.928 34.16V29.516H203.28C203.04 29.9 202.704 30.296 202.272 30.704C201.84 31.088 201.264 31.412 200.544 31.676C199.824 31.94 198.912 32.072 197.808 32.072C196.344 32.072 194.988 31.724 193.74 31.028C192.516 30.308 191.532 29.288 190.788 27.968C190.044 26.624 189.672 25.016 189.672 23.144ZM199.104 28.112C200.496 28.112 201.66 27.668 202.596 26.78C203.532 25.892 204 24.644 204 23.036V22.676C204 21.044 203.532 19.796 202.596 18.932C201.684 18.044 200.52 17.6 199.104 17.6C197.712 17.6 196.548 18.044 195.612 18.932C194.676 19.796 194.208 21.044 194.208 22.676V23.036C194.208 24.644 194.676 25.892 195.612 26.78C196.548 27.668 197.712 28.112 199.104 28.112ZM213.493 32V6.8H218.029V16.34H218.677C218.869 15.956 219.169 15.572 219.577 15.188C219.985 14.804 220.525 14.492 221.197 14.252C221.893 13.988 222.769 13.856 223.825 13.856C225.217 13.856 226.429 14.18 227.461 14.828C228.517 15.452 229.333 16.328 229.909 17.456C230.485 18.56 230.773 19.856 230.773 21.344V32H226.237V21.704C226.237 20.36 225.901 19.352 225.229 18.68C224.581 18.008 223.645 17.672 222.421 17.672C221.029 17.672 219.949 18.14 219.181 19.076C218.413 19.988 218.029 21.272 218.029 22.928V32H213.493ZM3.96 72L1.44 54.144H5.94L7.524 68.94H8.172L10.476 54.144H17.748L20.052 68.94H20.7L22.284 54.144H26.784L24.264 72H16.74L14.436 57.204H13.788L11.484 72H3.96ZM39.1762 72.504C37.4002 72.504 35.8042 72.144 34.3882 71.424C32.9722 70.704 31.8562 69.66 31.0402 68.292C30.2242 66.924 29.8162 65.28 29.8162 63.36V62.784C29.8162 60.864 30.2242 59.22 31.0402 57.852C31.8562 56.484 32.9722 55.44 34.3882 54.72C35.8042 54 37.4002 53.64 39.1762 53.64C40.9522 53.64 42.5482 54 43.9642 54.72C45.3802 55.44 46.4962 56.484 47.3122 57.852C48.1282 59.22 48.5362 60.864 48.5362 62.784V63.36C48.5362 65.28 48.1282 66.924 47.3122 68.292C46.4962 69.66 45.3802 70.704 43.9642 71.424C42.5482 72.144 40.9522 72.504 39.1762 72.504ZM39.1762 68.472C40.5682 68.472 41.7202 68.028 42.6322 67.14C43.5442 66.228 44.0002 64.932 44.0002 63.252V62.892C44.0002 61.212 43.5442 59.928 42.6322 59.04C41.7442 58.128 40.5922 57.672 39.1762 57.672C37.7842 57.672 36.6322 58.128 35.7202 59.04C34.8082 59.928 34.3522 61.212 34.3522 62.892V63.252C34.3522 64.932 34.8082 66.228 35.7202 67.14C36.6322 68.028 37.7842 68.472 39.1762 68.472ZM52.7231 72V54.144H57.1871V56.088H57.8351C58.1471 55.488 58.6631 54.972 59.3831 54.54C60.1031 54.084 61.0511 53.856 62.2271 53.856C63.4991 53.856 64.5191 54.108 65.2871 54.612C66.0551 55.092 66.6431 55.728 67.0511 56.52H67.6991C68.1071 55.752 68.6831 55.116 69.4271 54.612C70.1711 54.108 71.2271 53.856 72.5951 53.856C73.6991 53.856 74.6951 54.096 75.5831 54.576C76.4951 55.032 77.2151 55.74 77.7431 56.7C78.2951 57.636 78.5711 58.824 78.5711 60.264V72H74.0351V60.588C74.0351 59.604 73.7831 58.872 73.2791 58.392C72.7751 57.888 72.0671 57.636 71.1551 57.636C70.1231 57.636 69.3191 57.972 68.7431 58.644C68.1911 59.292 67.9151 60.228 67.9151 61.452V72H63.3791V60.588C63.3791 59.604 63.1271 58.872 62.6231 58.392C62.1191 57.888 61.4111 57.636 60.4991 57.636C59.4671 57.636 58.6631 57.972 58.0871 58.644C57.5351 59.292 57.2591 60.228 57.2591 61.452V72H52.7231ZM91.5857 72.504C89.8097 72.504 88.2377 72.132 86.8697 71.388C85.5257 70.62 84.4697 69.552 83.7017 68.184C82.9577 66.792 82.5857 65.16 82.5857 63.288V62.856C82.5857 60.984 82.9577 59.364 83.7017 57.996C84.4457 56.604 85.4897 55.536 86.8337 54.792C88.1777 54.024 89.7377 53.64 91.5137 53.64C93.2657 53.64 94.7897 54.036 96.0857 54.828C97.3817 55.596 98.3897 56.676 99.1097 58.068C99.8297 59.436 100.19 61.032 100.19 62.856V64.404H87.1937C87.2417 65.628 87.6977 66.624 88.5617 67.392C89.4257 68.16 90.4817 68.544 91.7297 68.544C93.0017 68.544 93.9377 68.268 94.5377 67.716C95.1377 67.164 95.5937 66.552 95.9057 65.88L99.6137 67.824C99.2777 68.448 98.7857 69.132 98.1377 69.876C97.5137 70.596 96.6737 71.22 95.6177 71.748C94.5617 72.252 93.2177 72.504 91.5857 72.504ZM87.2297 61.02H95.5817C95.4857 59.988 95.0657 59.16 94.3217 58.536C93.6017 57.912 92.6537 57.6 91.4777 57.6C90.2537 57.6 89.2817 57.912 88.5617 58.536C87.8417 59.16 87.3977 59.988 87.2297 61.02ZM104.227 72V54.144H108.691V56.484H109.339C109.627 55.86 110.167 55.272 110.959 54.72C111.751 54.144 112.951 53.856 114.559 53.856C115.951 53.856 117.163 54.18 118.195 54.828C119.251 55.452 120.067 56.328 120.643 57.456C121.219 58.56 121.507 59.856 121.507 61.344V72H116.971V61.704C116.971 60.36 116.635 59.352 115.963 58.68C115.315 58.008 114.379 57.672 113.155 57.672C111.763 57.672 110.683 58.14 109.915 59.076C109.147 59.988 108.763 61.272 108.763 62.928V72H104.227ZM141.095 72.504C139.823 72.504 138.683 72.288 137.675 71.856C136.667 71.4 135.863 70.752 135.263 69.912C134.687 69.048 134.399 68.004 134.399 66.78C134.399 65.556 134.687 64.536 135.263 63.72C135.863 62.88 136.679 62.256 137.711 61.848C138.767 61.416 139.967 61.2 141.311 61.2H146.207V60.192C146.207 59.352 145.943 58.668 145.415 58.14C144.887 57.588 144.047 57.312 142.895 57.312C141.767 57.312 140.927 57.576 140.375 58.104C139.823 58.608 139.463 59.268 139.295 60.084L135.119 58.68C135.407 57.768 135.863 56.94 136.487 56.196C137.135 55.428 137.987 54.816 139.043 54.36C140.123 53.88 141.431 53.64 142.967 53.64C145.319 53.64 147.179 54.228 148.547 55.404C149.915 56.58 150.599 58.284 150.599 60.516V67.176C150.599 67.896 150.935 68.256 151.607 68.256H153.047V72H150.023C149.135 72 148.403 71.784 147.827 71.352C147.251 70.92 146.963 70.344 146.963 69.624V69.588H146.279C146.183 69.876 145.967 70.26 145.631 70.74C145.295 71.196 144.767 71.604 144.047 71.964C143.327 72.324 142.343 72.504 141.095 72.504ZM141.887 68.832C143.159 68.832 144.191 68.484 144.983 67.788C145.799 67.068 146.207 66.12 146.207 64.944V64.584H141.635C140.795 64.584 140.135 64.764 139.655 65.124C139.175 65.484 138.935 65.988 138.935 66.636C138.935 67.284 139.187 67.812 139.691 68.22C140.195 68.628 140.927 68.832 141.887 68.832ZM156.364 72V54.144H160.828V56.16H161.476C161.74 55.44 162.172 54.912 162.772 54.576C163.396 54.24 164.116 54.072 164.932 54.072H167.092V58.104H164.86C163.708 58.104 162.76 58.416 162.016 59.04C161.272 59.64 160.9 60.576 160.9 61.848V72H156.364ZM178.14 72.504C176.364 72.504 174.792 72.132 173.424 71.388C172.08 70.62 171.024 69.552 170.256 68.184C169.512 66.792 169.14 65.16 169.14 63.288V62.856C169.14 60.984 169.512 59.364 170.256 57.996C171 56.604 172.044 55.536 173.388 54.792C174.732 54.024 176.292 53.64 178.068 53.64C179.82 53.64 181.344 54.036 182.64 54.828C183.936 55.596 184.944 56.676 185.664 58.068C186.384 59.436 186.744 61.032 186.744 62.856V64.404H173.748C173.796 65.628 174.252 66.624 175.116 67.392C175.98 68.16 177.036 68.544 178.284 68.544C179.556 68.544 180.492 68.268 181.092 67.716C181.692 67.164 182.148 66.552 182.46 65.88L186.168 67.824C185.832 68.448 185.34 69.132 184.692 69.876C184.068 70.596 183.228 71.22 182.172 71.748C181.116 72.252 179.772 72.504 178.14 72.504ZM173.784 61.02H182.136C182.04 59.988 181.62 59.16 180.876 58.536C180.156 57.912 179.208 57.6 178.032 57.6C176.808 57.6 175.836 57.912 175.116 58.536C174.396 59.16 173.952 59.988 173.784 61.02ZM282.071 72.504C280.295 72.504 278.699 72.144 277.283 71.424C275.867 70.704 274.751 69.66 273.935 68.292C273.119 66.924 272.711 65.28 272.711 63.36V62.784C272.711 60.864 273.119 59.22 273.935 57.852C274.751 56.484 275.867 55.44 277.283 54.72C278.699 54 280.295 53.64 282.071 53.64C283.847 53.64 285.443 54 286.859 54.72C288.275 55.44 289.391 56.484 290.207 57.852C291.023 59.22 291.431 60.864 291.431 62.784V63.36C291.431 65.28 291.023 66.924 290.207 68.292C289.391 69.66 288.275 70.704 286.859 71.424C285.443 72.144 283.847 72.504 282.071 72.504ZM282.071 68.472C283.463 68.472 284.615 68.028 285.527 67.14C286.439 66.228 286.895 64.932 286.895 63.252V62.892C286.895 61.212 286.439 59.928 285.527 59.04C284.639 58.128 283.487 57.672 282.071 57.672C280.679 57.672 279.527 58.128 278.615 59.04C277.703 59.928 277.247 61.212 277.247 62.892V63.252C277.247 64.932 277.703 66.228 278.615 67.14C279.527 68.028 280.679 68.472 282.071 68.472ZM297.972 72V57.888H293.436V54.144H297.972V50.832C297.972 49.608 298.332 48.636 299.052 47.916C299.796 47.172 300.756 46.8 301.932 46.8H306.612V50.544H303.516C302.844 50.544 302.508 50.904 302.508 51.624V54.144H307.188V57.888H302.508V72H297.972ZM9.36 112C8.184 112 7.224 111.64 6.48 110.92C5.76 110.176 5.4 109.192 5.4 107.968V97.888H0.936V94.144H5.4V88.6H9.936V94.144H14.832V97.888H9.936V107.176C9.936 107.896 10.272 108.256 10.944 108.256H14.4V112H9.36ZM18.938 112V86.8H23.474V96.34H24.122C24.314 95.956 24.614 95.572 25.022 95.188C25.43 94.804 25.97 94.492 26.642 94.252C27.338 93.988 28.214 93.856 29.27 93.856C30.662 93.856 31.874 94.18 32.906 94.828C33.962 95.452 34.778 96.328 35.354 97.456C35.93 98.56 36.218 99.856 36.218 101.344V112H31.682V101.704C31.682 100.36 31.346 99.352 30.674 98.68C30.026 98.008 29.09 97.672 27.866 97.672C26.474 97.672 25.394 98.14 24.626 99.076C23.858 99.988 23.474 101.272 23.474 102.928V112H18.938ZM49.2576 112.504C47.4816 112.504 45.9096 112.132 44.5416 111.388C43.1976 110.62 42.1416 109.552 41.3736 108.184C40.6296 106.792 40.2576 105.16 40.2576 103.288V102.856C40.2576 100.984 40.6296 99.364 41.3736 97.996C42.1176 96.604 43.1616 95.536 44.5056 94.792C45.8496 94.024 47.4096 93.64 49.1856 93.64C50.9376 93.64 52.4616 94.036 53.7576 94.828C55.0536 95.596 56.0616 96.676 56.7816 98.068C57.5016 99.436 57.8616 101.032 57.8616 102.856V104.404H44.8656C44.9136 105.628 45.3696 106.624 46.2336 107.392C47.0976 108.16 48.1536 108.544 49.4016 108.544C50.6736 108.544 51.6096 108.268 52.2096 107.716C52.8096 107.164 53.2656 106.552 53.5776 105.88L57.2856 107.824C56.9496 108.448 56.4576 109.132 55.8096 109.876C55.1856 110.596 54.3456 111.22 53.2896 111.748C52.2336 112.252 50.8896 112.504 49.2576 112.504ZM44.9016 101.02H53.2536C53.1576 99.988 52.7376 99.16 51.9936 98.536C51.2736 97.912 50.3256 97.6 49.1496 97.6C47.9256 97.6 46.9536 97.912 46.2336 98.536C45.5136 99.16 45.0696 99.988 44.9016 101.02ZM70.8955 112V86.8H87.0955V91.12H75.6475V97.132H86.0875V101.452H75.6475V107.68H87.3115V112H70.8955ZM97.7771 112.288C96.3851 112.288 95.1611 111.976 94.1051 111.352C93.0731 110.704 92.2691 109.816 91.6931 108.688C91.1171 107.56 90.8291 106.264 90.8291 104.8V94.144H95.3651V104.44C95.3651 105.784 95.6891 106.792 96.3371 107.464C97.0091 108.136 97.9571 108.472 99.1811 108.472C100.573 108.472 101.653 108.016 102.421 107.104C103.189 106.168 103.573 104.872 103.573 103.216V94.144H108.109V112H103.645V109.66H102.997C102.709 110.26 102.169 110.848 101.377 111.424C100.585 112 99.3851 112.288 97.7771 112.288ZM113.157 112V94.144H117.621V96.16H118.269C118.533 95.44 118.965 94.912 119.565 94.576C120.189 94.24 120.909 94.072 121.725 94.072H123.885V98.104H121.653C120.501 98.104 119.553 98.416 118.809 99.04C118.065 99.64 117.693 100.576 117.693 101.848V112H113.157ZM135.293 112.504C133.517 112.504 131.921 112.144 130.505 111.424C129.089 110.704 127.973 109.66 127.157 108.292C126.341 106.924 125.933 105.28 125.933 103.36V102.784C125.933 100.864 126.341 99.22 127.157 97.852C127.973 96.484 129.089 95.44 130.505 94.72C131.921 94 133.517 93.64 135.293 93.64C137.069 93.64 138.665 94 140.081 94.72C141.497 95.44 142.613 96.484 143.429 97.852C144.245 99.22 144.653 100.864 144.653 102.784V103.36C144.653 105.28 144.245 106.924 143.429 108.292C142.613 109.66 141.497 110.704 140.081 111.424C138.665 112.144 137.069 112.504 135.293 112.504ZM135.293 108.472C136.685 108.472 137.837 108.028 138.749 107.14C139.661 106.228 140.117 104.932 140.117 103.252V102.892C140.117 101.212 139.661 99.928 138.749 99.04C137.861 98.128 136.709 97.672 135.293 97.672C133.901 97.672 132.749 98.128 131.837 99.04C130.925 99.928 130.469 101.212 130.469 102.892V103.252C130.469 104.932 130.925 106.228 131.837 107.14C132.749 108.028 133.901 108.472 135.293 108.472ZM148.84 119.2V94.144H153.304V96.304H153.952C154.36 95.608 154.996 94.996 155.86 94.468C156.724 93.916 157.96 93.64 159.568 93.64C161.008 93.64 162.34 94 163.564 94.72C164.788 95.416 165.772 96.448 166.516 97.816C167.26 99.184 167.632 100.84 167.632 102.784V103.36C167.632 105.304 167.26 106.96 166.516 108.328C165.772 109.696 164.788 110.74 163.564 111.46C162.34 112.156 161.008 112.504 159.568 112.504C158.488 112.504 157.576 112.372 156.832 112.108C156.112 111.868 155.524 111.556 155.068 111.172C154.636 110.764 154.288 110.356 154.024 109.948H153.376V119.2H148.84ZM158.2 108.544C159.616 108.544 160.78 108.1 161.692 107.212C162.628 106.3 163.096 104.98 163.096 103.252V102.892C163.096 101.164 162.628 99.856 161.692 98.968C160.756 98.056 159.592 97.6 158.2 97.6C156.808 97.6 155.644 98.056 154.708 98.968C153.772 99.856 153.304 101.164 153.304 102.892V103.252C153.304 104.98 153.772 106.3 154.708 107.212C155.644 108.1 156.808 108.544 158.2 108.544ZM179.933 112.504C178.157 112.504 176.585 112.132 175.217 111.388C173.873 110.62 172.817 109.552 172.049 108.184C171.305 106.792 170.933 105.16 170.933 103.288V102.856C170.933 100.984 171.305 99.364 172.049 97.996C172.793 96.604 173.837 95.536 175.181 94.792C176.525 94.024 178.085 93.64 179.861 93.64C181.613 93.64 183.137 94.036 184.433 94.828C185.729 95.596 186.737 96.676 187.457 98.068C188.177 99.436 188.537 101.032 188.537 102.856V104.404H175.541C175.589 105.628 176.045 106.624 176.909 107.392C177.773 108.16 178.829 108.544 180.077 108.544C181.349 108.544 182.285 108.268 182.885 107.716C183.485 107.164 183.941 106.552 184.253 105.88L187.961 107.824C187.625 108.448 187.133 109.132 186.485 109.876C185.861 110.596 185.021 111.22 183.965 111.748C182.909 112.252 181.565 112.504 179.933 112.504ZM175.577 101.02H183.929C183.833 99.988 183.413 99.16 182.669 98.536C181.949 97.912 181.001 97.6 179.825 97.6C178.601 97.6 177.629 97.912 176.909 98.536C176.189 99.16 175.745 99.988 175.577 101.02ZM198.119 112.504C196.847 112.504 195.707 112.288 194.699 111.856C193.691 111.4 192.887 110.752 192.287 109.912C191.711 109.048 191.423 108.004 191.423 106.78C191.423 105.556 191.711 104.536 192.287 103.72C192.887 102.88 193.703 102.256 194.735 101.848C195.791 101.416 196.991 101.2 198.335 101.2H203.231V100.192C203.231 99.352 202.967 98.668 202.439 98.14C201.911 97.588 201.071 97.312 199.919 97.312C198.791 97.312 197.951 97.576 197.399 98.104C196.847 98.608 196.487 99.268 196.319 100.084L192.143 98.68C192.431 97.768 192.887 96.94 193.511 96.196C194.159 95.428 195.011 94.816 196.067 94.36C197.147 93.88 198.455 93.64 199.991 93.64C202.343 93.64 204.203 94.228 205.571 95.404C206.939 96.58 207.623 98.284 207.623 100.516V107.176C207.623 107.896 207.959 108.256 208.631 108.256H210.071V112H207.047C206.159 112 205.427 111.784 204.851 111.352C204.275 110.92 203.987 110.344 203.987 109.624V109.588H203.303C203.207 109.876 202.991 110.26 202.655 110.74C202.319 111.196 201.791 111.604 201.071 111.964C200.351 112.324 199.367 112.504 198.119 112.504ZM198.911 108.832C200.183 108.832 201.215 108.484 202.007 107.788C202.823 107.068 203.231 106.12 203.231 104.944V104.584H198.659C197.819 104.584 197.159 104.764 196.679 105.124C196.199 105.484 195.959 105.988 195.959 106.636C195.959 107.284 196.211 107.812 196.715 108.22C197.219 108.628 197.951 108.832 198.911 108.832ZM213.387 112V94.144H217.851V96.484H218.499C218.787 95.86 219.327 95.272 220.119 94.72C220.911 94.144 222.111 93.856 223.719 93.856C225.111 93.856 226.323 94.18 227.355 94.828C228.411 95.452 229.227 96.328 229.803 97.456C230.379 98.56 230.667 99.856 230.667 101.344V112H226.131V101.704C226.131 100.36 225.795 99.352 225.123 98.68C224.475 98.008 223.539 97.672 222.315 97.672C220.923 97.672 219.843 98.14 219.075 99.076C218.307 99.988 217.923 101.272 217.923 102.928V112H213.387ZM2.52 159.2V134.144H6.984V136.304H7.632C8.04 135.608 8.676 134.996 9.54 134.468C10.404 133.916 11.64 133.64 13.248 133.64C14.688 133.64 16.02 134 17.244 134.72C18.468 135.416 19.452 136.448 20.196 137.816C20.94 139.184 21.312 140.84 21.312 142.784V143.36C21.312 145.304 20.94 146.96 20.196 148.328C19.452 149.696 18.468 150.74 17.244 151.46C16.02 152.156 14.688 152.504 13.248 152.504C12.168 152.504 11.256 152.372 10.512 152.108C9.792 151.868 9.204 151.556 8.748 151.172C8.316 150.764 7.968 150.356 7.704 149.948H7.056V159.2H2.52ZM11.88 148.544C13.296 148.544 14.46 148.1 15.372 147.212C16.308 146.3 16.776 144.98 16.776 143.252V142.892C16.776 141.164 16.308 139.856 15.372 138.968C14.436 138.056 13.272 137.6 11.88 137.6C10.488 137.6 9.324 138.056 8.388 138.968C7.452 139.856 6.984 141.164 6.984 142.892V143.252C6.984 144.98 7.452 146.3 8.388 147.212C9.324 148.1 10.488 148.544 11.88 148.544ZM33.973 152.504C32.197 152.504 30.601 152.144 29.185 151.424C27.769 150.704 26.653 149.66 25.837 148.292C25.021 146.924 24.613 145.28 24.613 143.36V142.784C24.613 140.864 25.021 139.22 25.837 137.852C26.653 136.484 27.769 135.44 29.185 134.72C30.601 134 32.197 133.64 33.973 133.64C35.749 133.64 37.345 134 38.761 134.72C40.177 135.44 41.293 136.484 42.109 137.852C42.925 139.22 43.333 140.864 43.333 142.784V143.36C43.333 145.28 42.925 146.924 42.109 148.292C41.293 149.66 40.177 150.704 38.761 151.424C37.345 152.144 35.749 152.504 33.973 152.504ZM33.973 148.472C35.365 148.472 36.517 148.028 37.429 147.14C38.341 146.228 38.797 144.932 38.797 143.252V142.892C38.797 141.212 38.341 139.928 37.429 139.04C36.541 138.128 35.389 137.672 33.973 137.672C32.581 137.672 31.429 138.128 30.517 139.04C29.605 139.928 29.149 141.212 29.149 142.892V143.252C29.149 144.932 29.605 146.228 30.517 147.14C31.429 148.028 32.581 148.472 33.973 148.472ZM47.52 159.2V134.144H51.984V136.304H52.632C53.04 135.608 53.676 134.996 54.54 134.468C55.404 133.916 56.64 133.64 58.248 133.64C59.688 133.64 61.02 134 62.244 134.72C63.468 135.416 64.452 136.448 65.196 137.816C65.94 139.184 66.312 140.84 66.312 142.784V143.36C66.312 145.304 65.94 146.96 65.196 148.328C64.452 149.696 63.468 150.74 62.244 151.46C61.02 152.156 59.688 152.504 58.248 152.504C57.168 152.504 56.256 152.372 55.512 152.108C54.792 151.868 54.204 151.556 53.748 151.172C53.316 150.764 52.968 150.356 52.704 149.948H52.056V159.2H47.52ZM56.88 148.544C58.296 148.544 59.46 148.1 60.372 147.212C61.308 146.3 61.776 144.98 61.776 143.252V142.892C61.776 141.164 61.308 139.856 60.372 138.968C59.436 138.056 58.272 137.6 56.88 137.6C55.488 137.6 54.324 138.056 53.388 138.968C52.452 139.856 51.984 141.164 51.984 142.892V143.252C51.984 144.98 52.452 146.3 53.388 147.212C54.324 148.1 55.488 148.544 56.88 148.544ZM77.281 152.288C75.889 152.288 74.665 151.976 73.609 151.352C72.577 150.704 71.773 149.816 71.197 148.688C70.621 147.56 70.333 146.264 70.333 144.8V134.144H74.869V144.44C74.869 145.784 75.193 146.792 75.841 147.464C76.513 148.136 77.461 148.472 78.685 148.472C80.077 148.472 81.157 148.016 81.925 147.104C82.693 146.168 83.077 144.872 83.077 143.216V134.144H87.613V152H83.149V149.66H82.501C82.213 150.26 81.673 150.848 80.881 151.424C80.089 152 78.889 152.288 77.281 152.288ZM92.6606 152V126.8H97.1966V152H92.6606ZM107.767 152.504C106.495 152.504 105.355 152.288 104.347 151.856C103.339 151.4 102.535 150.752 101.935 149.912C101.359 149.048 101.071 148.004 101.071 146.78C101.071 145.556 101.359 144.536 101.935 143.72C102.535 142.88 103.351 142.256 104.383 141.848C105.439 141.416 106.639 141.2 107.983 141.2H112.879V140.192C112.879 139.352 112.615 138.668 112.087 138.14C111.559 137.588 110.719 137.312 109.567 137.312C108.439 137.312 107.599 137.576 107.047 138.104C106.495 138.608 106.135 139.268 105.967 140.084L101.791 138.68C102.079 137.768 102.535 136.94 103.159 136.196C103.807 135.428 104.659 134.816 105.715 134.36C106.795 133.88 108.103 133.64 109.639 133.64C111.991 133.64 113.851 134.228 115.219 135.404C116.587 136.58 117.271 138.284 117.271 140.516V147.176C117.271 147.896 117.607 148.256 118.279 148.256H119.719V152H116.695C115.807 152 115.075 151.784 114.499 151.352C113.923 150.92 113.635 150.344 113.635 149.624V149.588H112.951C112.855 149.876 112.639 150.26 112.303 150.74C111.967 151.196 111.439 151.604 110.719 151.964C109.999 152.324 109.015 152.504 107.767 152.504ZM108.559 148.832C109.831 148.832 110.863 148.484 111.655 147.788C112.471 147.068 112.879 146.12 112.879 144.944V144.584H108.307C107.467 144.584 106.807 144.764 106.327 145.124C105.847 145.484 105.607 145.988 105.607 146.636C105.607 147.284 105.859 147.812 106.363 148.22C106.867 148.628 107.599 148.832 108.559 148.832ZM128.575 152C127.399 152 126.439 151.64 125.695 150.92C124.975 150.176 124.615 149.192 124.615 147.968V137.888H120.151V134.144H124.615V128.6H129.151V134.144H134.047V137.888H129.151V147.176C129.151 147.896 129.487 148.256 130.159 148.256H133.615V152H128.575ZM138.153 152V134.144H142.689V152H138.153ZM140.421 132.056C139.605 132.056 138.909 131.792 138.333 131.264C137.781 130.736 137.505 130.04 137.505 129.176C137.505 128.312 137.781 127.616 138.333 127.088C138.909 126.56 139.605 126.296 140.421 126.296C141.261 126.296 141.957 126.56 142.509 127.088C143.061 127.616 143.337 128.312 143.337 129.176C143.337 130.04 143.061 130.736 142.509 131.264C141.957 131.792 141.261 132.056 140.421 132.056ZM156.211 152.504C154.435 152.504 152.839 152.144 151.423 151.424C150.007 150.704 148.891 149.66 148.075 148.292C147.259 146.924 146.851 145.28 146.851 143.36V142.784C146.851 140.864 147.259 139.22 148.075 137.852C148.891 136.484 150.007 135.44 151.423 134.72C152.839 134 154.435 133.64 156.211 133.64C157.987 133.64 159.583 134 160.999 134.72C162.415 135.44 163.531 136.484 164.347 137.852C165.163 139.22 165.571 140.864 165.571 142.784V143.36C165.571 145.28 165.163 146.924 164.347 148.292C163.531 149.66 162.415 150.704 160.999 151.424C159.583 152.144 157.987 152.504 156.211 152.504ZM156.211 148.472C157.603 148.472 158.755 148.028 159.667 147.14C160.579 146.228 161.035 144.932 161.035 143.252V142.892C161.035 141.212 160.579 139.928 159.667 139.04C158.779 138.128 157.627 137.672 156.211 137.672C154.819 137.672 153.667 138.128 152.755 139.04C151.843 139.928 151.387 141.212 151.387 142.892V143.252C151.387 144.932 151.843 146.228 152.755 147.14C153.667 148.028 154.819 148.472 156.211 148.472ZM169.758 152V134.144H174.222V136.484H174.87C175.158 135.86 175.698 135.272 176.49 134.72C177.282 134.144 178.482 133.856 180.09 133.856C181.482 133.856 182.694 134.18 183.726 134.828C184.782 135.452 185.598 136.328 186.174 137.456C186.75 138.56 187.038 139.856 187.038 141.344V152H182.502V141.704C182.502 140.36 182.166 139.352 181.494 138.68C180.846 138.008 179.91 137.672 178.686 137.672C177.294 137.672 176.214 138.14 175.446 139.076C174.678 139.988 174.294 141.272 174.294 142.928V152H169.758Z" fill="black"/>
<path d="M208.31 72.504C206.342 72.504 204.638 72.156 203.198 71.46C201.782 70.764 200.69 69.78 199.922 68.508C199.154 67.236 198.77 65.76 198.77 64.08V63.72H203.45V64.044C203.45 65.244 203.846 66.276 204.638 67.14C205.454 67.98 206.654 68.4 208.238 68.4C209.822 68.4 211.034 67.98 211.874 67.14C212.738 66.276 213.17 65.16 213.17 63.792V63.432C213.17 62.088 212.738 61.02 211.874 60.228C211.034 59.436 209.978 59.04 208.706 59.04C208.01 59.04 207.434 59.136 206.978 59.328C206.522 59.52 206.15 59.76 205.862 60.048C205.574 60.336 205.334 60.624 205.142 60.912H199.562V46.8H216.77V50.976H204.17V57.132H204.818C205.058 56.82 205.382 56.52 205.79 56.232C206.198 55.944 206.726 55.704 207.374 55.512C208.022 55.32 208.79 55.224 209.678 55.224C211.166 55.224 212.522 55.536 213.746 56.16C214.97 56.784 215.942 57.708 216.662 58.932C217.406 60.132 217.778 61.62 217.778 63.396V63.828C217.778 65.604 217.394 67.14 216.626 68.436C215.882 69.732 214.802 70.74 213.386 71.46C211.97 72.156 210.278 72.504 208.31 72.504ZM227.643 72V50.184H226.995L223.611 58.176H218.787L223.935 46.8H232.251V72H227.643ZM239.961 72.468L237.225 70.272L256.593 46.332L259.329 48.528L239.961 72.468ZM255.153 72.36C253.329 72.36 251.901 71.88 250.869 70.92C249.837 69.936 249.321 68.604 249.321 66.924V66.672C249.321 64.968 249.837 63.636 250.869 62.676C251.901 61.692 253.329 61.2 255.153 61.2C256.929 61.2 258.345 61.692 259.401 62.676C260.457 63.636 260.985 64.968 260.985 66.672V66.924C260.985 68.604 260.469 69.936 259.437 70.92C258.405 71.88 256.977 72.36 255.153 72.36ZM255.153 69.408C255.849 69.408 256.389 69.192 256.773 68.76C257.181 68.328 257.385 67.764 257.385 67.068V66.492C257.385 65.796 257.181 65.232 256.773 64.8C256.389 64.368 255.849 64.152 255.153 64.152C254.457 64.152 253.905 64.368 253.497 64.8C253.113 65.232 252.921 65.796 252.921 66.492V67.068C252.921 67.764 253.113 68.328 253.497 68.76C253.905 69.192 254.457 69.408 255.153 69.408ZM241.401 57.6C239.577 57.6 238.149 57.12 237.117 56.16C236.085 55.176 235.569 53.844 235.569 52.164V51.912C235.569 50.208 236.085 48.876 237.117 47.916C238.149 46.932 239.577 46.44 241.401 46.44C243.177 46.44 244.593 46.932 245.649 47.916C246.705 48.876 247.233 50.208 247.233 51.912V52.164C247.233 53.844 246.717 55.176 245.685 56.16C244.653 57.12 243.225 57.6 241.401 57.6ZM241.401 54.648C242.097 54.648 242.637 54.432 243.021 54C243.429 53.568 243.633 53.004 243.633 52.308V51.732C243.633 51.036 243.429 50.472 243.021 50.04C242.637 49.608 242.097 49.392 241.401 49.392C240.705 49.392 240.153 49.608 239.745 50.04C239.361 50.472 239.169 51.036 239.169 51.732V52.308C239.169 53.004 239.361 53.568 239.745 54C240.153 54.432 240.705 54.648 241.401 54.648Z" fill="#DFF851"/>
<path d="M208.908 72.504C206.94 72.504 205.236 72.156 203.796 71.46C202.38 70.764 201.288 69.78 200.52 68.508C199.752 67.236 199.368 65.76 199.368 64.08V63.72H204.048V64.044C204.048 65.244 204.444 66.276 205.236 67.14C206.052 67.98 207.252 68.4 208.836 68.4C210.42 68.4 211.632 67.98 212.472 67.14C213.336 66.276 213.768 65.16 213.768 63.792V63.432C213.768 62.088 213.336 61.02 212.472 60.228C211.632 59.436 210.576 59.04 209.304 59.04C208.608 59.04 208.032 59.136 207.576 59.328C207.12 59.52 206.748 59.76 206.46 60.048C206.172 60.336 205.932 60.624 205.74 60.912H200.16V46.8H217.368V50.976H204.768V57.132H205.416C205.656 56.82 205.98 56.52 206.388 56.232C206.796 55.944 207.324 55.704 207.972 55.512C208.62 55.32 209.388 55.224 210.276 55.224C211.764 55.224 213.12 55.536 214.344 56.16C215.568 56.784 216.54 57.708 217.26 58.932C218.004 60.132 218.376 61.62 218.376 63.396V63.828C218.376 65.604 217.992 67.14 217.224 68.436C216.48 69.732 215.4 70.74 213.984 71.46C212.568 72.156 210.876 72.504 208.908 72.504ZM228.241 72V50.184H227.593L224.209 58.176H219.385L224.533 46.8H232.849V72H228.241ZM240.558 72.468L237.822 70.272L257.19 46.332L259.926 48.528L240.558 72.468ZM255.75 72.36C253.926 72.36 252.498 71.88 251.466 70.92C250.434 69.936 249.918 68.604 249.918 66.924V66.672C249.918 64.968 250.434 63.636 251.466 62.676C252.498 61.692 253.926 61.2 255.75 61.2C257.526 61.2 258.942 61.692 259.998 62.676C261.054 63.636 261.582 64.968 261.582 66.672V66.924C261.582 68.604 261.066 69.936 260.034 70.92C259.002 71.88 257.574 72.36 255.75 72.36ZM255.75 69.408C256.446 69.408 256.986 69.192 257.37 68.76C257.778 68.328 257.982 67.764 257.982 67.068V66.492C257.982 65.796 257.778 65.232 257.37 64.8C256.986 64.368 256.446 64.152 255.75 64.152C255.054 64.152 254.502 64.368 254.094 64.8C253.71 65.232 253.518 65.796 253.518 66.492V67.068C253.518 67.764 253.71 68.328 254.094 68.76C254.502 69.192 255.054 69.408 255.75 69.408ZM241.998 57.6C240.174 57.6 238.746 57.12 237.714 56.16C236.682 55.176 236.166 53.844 236.166 52.164V51.912C236.166 50.208 236.682 48.876 237.714 47.916C238.746 46.932 240.174 46.44 241.998 46.44C243.774 46.44 245.19 46.932 246.246 47.916C247.302 48.876 247.83 50.208 247.83 51.912V52.164C247.83 53.844 247.314 55.176 246.282 56.16C245.25 57.12 243.822 57.6 241.998 57.6ZM241.998 54.648C242.694 54.648 243.234 54.432 243.618 54C244.026 53.568 244.23 53.004 244.23 52.308V51.732C244.23 51.036 244.026 50.472 243.618 50.04C243.234 49.608 242.694 49.392 241.998 49.392C241.302 49.392 240.75 49.608 240.342 50.04C239.958 50.472 239.766 51.036 239.766 51.732V52.308C239.766 53.004 239.958 53.568 240.342 54C240.75 54.432 241.302 54.648 241.998 54.648Z" fill="#DFF851"/>
<path d="M203.796 71.46L203.355 72.3575L203.361 72.3603L203.796 71.46ZM200.52 68.508L199.664 69.0249L199.664 69.0249L200.52 68.508ZM199.368 63.72V62.72H198.368V63.72H199.368ZM204.048 63.72H205.048V62.72H204.048V63.72ZM205.236 67.14L204.499 67.8157L204.509 67.8264L204.519 67.8368L205.236 67.14ZM212.472 67.14L211.765 66.4329L211.765 66.4329L212.472 67.14ZM212.472 60.228L211.786 60.9557L211.796 60.9652L212.472 60.228ZM207.576 59.328L207.188 58.4064L207.188 58.4064L207.576 59.328ZM206.46 60.048L207.167 60.7551L207.167 60.7551L206.46 60.048ZM205.74 60.912V61.912H206.275L206.572 61.4667L205.74 60.912ZM200.16 60.912H199.16V61.912H200.16V60.912ZM200.16 46.8V45.8H199.16V46.8H200.16ZM217.368 46.8H218.368V45.8H217.368V46.8ZM217.368 50.976V51.976H218.368V50.976H217.368ZM204.768 50.976V49.976H203.768V50.976H204.768ZM204.768 57.132H203.768V58.132H204.768V57.132ZM205.416 57.132V58.132H205.908L206.209 57.7417L205.416 57.132ZM206.388 56.232L206.965 57.049L206.965 57.049L206.388 56.232ZM207.972 55.512L207.688 54.5532L207.688 54.5532L207.972 55.512ZM214.344 56.16L214.798 55.2691L214.798 55.2691L214.344 56.16ZM217.26 58.932L216.398 59.439L216.404 59.449L216.41 59.4589L217.26 58.932ZM217.224 68.436L216.364 67.9261L216.357 67.9381L217.224 68.436ZM213.984 71.46L214.425 72.3575L214.437 72.3514L213.984 71.46ZM208.908 71.504C207.057 71.504 205.508 71.1767 204.231 70.5597L203.361 72.3603C204.964 73.1353 206.823 73.504 208.908 73.504V71.504ZM204.237 70.5626C202.982 69.9456 202.039 69.0888 201.376 67.9911L199.664 69.0249C200.537 70.4712 201.778 71.5824 203.355 72.3574L204.237 70.5626ZM201.376 67.9911C200.714 66.8947 200.368 65.6022 200.368 64.08H198.368C198.368 65.9178 198.79 67.5773 199.664 69.0249L201.376 67.9911ZM200.368 64.08V63.72H198.368V64.08H200.368ZM199.368 64.72H204.048V62.72H199.368V64.72ZM203.048 63.72V64.044H205.048V63.72H203.048ZM203.048 64.044C203.048 65.4876 203.533 66.7625 204.499 67.8157L205.973 66.4643C205.355 65.7895 205.048 65.0004 205.048 64.044H203.048ZM204.519 67.8368C205.582 68.9314 207.08 69.4 208.836 69.4V67.4C207.424 67.4 206.522 67.0286 205.953 66.4432L204.519 67.8368ZM208.836 69.4C210.594 69.4 212.096 68.9306 213.179 67.8471L211.765 66.4329C211.168 67.0294 210.246 67.4 208.836 67.4V69.4ZM213.179 67.8471C214.254 66.7724 214.768 65.3905 214.768 63.792H212.768C212.768 64.9295 212.418 65.7796 211.765 66.4329L213.179 67.8471ZM214.768 63.792V63.432H212.768V63.792H214.768ZM214.768 63.432C214.768 61.853 214.25 60.5008 213.148 59.4908L211.796 60.9652C212.422 61.5392 212.768 62.323 212.768 63.432H214.768ZM213.158 59.5004C212.113 58.515 210.803 58.04 209.304 58.04V60.04C210.349 60.04 211.151 60.357 211.786 60.9556L213.158 59.5004ZM209.304 58.04C208.525 58.04 207.806 58.1462 207.188 58.4064L207.964 60.2496C208.258 60.1258 208.691 60.04 209.304 60.04V58.04ZM207.188 58.4064C206.638 58.6381 206.15 58.9441 205.753 59.3409L207.167 60.7551C207.346 60.5759 207.602 60.4019 207.964 60.2496L207.188 58.4064ZM205.753 59.3409C205.426 59.6675 205.142 60.0059 204.908 60.3573L206.572 61.4667C206.722 61.2421 206.918 61.0045 207.167 60.7551L205.753 59.3409ZM205.74 59.912H200.16V61.912H205.74V59.912ZM201.16 60.912V46.8H199.16V60.912H201.16ZM200.16 47.8H217.368V45.8H200.16V47.8ZM216.368 46.8V50.976H218.368V46.8H216.368ZM217.368 49.976H204.768V51.976H217.368V49.976ZM203.768 50.976V57.132H205.768V50.976H203.768ZM204.768 58.132H205.416V56.132H204.768V58.132ZM206.209 57.7417C206.374 57.5273 206.618 57.2939 206.965 57.049L205.811 55.415C205.342 55.7461 204.938 56.1127 204.623 56.5223L206.209 57.7417ZM206.965 57.049C207.258 56.8417 207.678 56.642 208.256 56.4708L207.688 54.5532C206.97 54.766 206.334 55.0463 205.811 55.415L206.965 57.049ZM208.256 56.4708C208.788 56.3131 209.456 56.224 210.276 56.224V54.224C209.32 54.224 208.452 54.3269 207.688 54.5532L208.256 56.4708ZM210.276 56.224C211.62 56.224 212.818 56.5045 213.89 57.0509L214.798 55.2691C213.422 54.5675 211.908 54.224 210.276 54.224V56.224ZM213.89 57.0509C214.938 57.5854 215.771 58.3734 216.398 59.439L218.122 58.425C217.309 57.0426 216.198 55.9826 214.798 55.2691L213.89 57.0509ZM216.41 59.4589C217.034 60.4646 217.376 61.7585 217.376 63.396H219.376C219.376 61.4815 218.974 59.7994 218.11 58.4051L216.41 59.4589ZM217.376 63.396V63.828H219.376V63.396H217.376ZM217.376 63.828C217.376 65.457 217.025 66.8102 216.364 67.9262L218.084 68.9458C218.959 67.4698 219.376 65.751 219.376 63.828H217.376ZM216.357 67.9381C215.716 69.0547 214.785 69.9309 213.531 70.5686L214.437 72.3514C216.015 71.5491 217.244 70.4093 218.091 68.9339L216.357 67.9381ZM213.543 70.5626C212.294 71.1765 210.76 71.504 208.908 71.504V73.504C210.992 73.504 212.842 73.1355 214.425 72.3574L213.543 70.5626ZM228.241 72H227.241V73H228.241V72ZM228.241 50.184H229.241V49.184H228.241V50.184ZM227.593 50.184V49.184H226.931L226.672 49.7941L227.593 50.184ZM224.209 58.176V59.176H224.872L225.13 58.5659L224.209 58.176ZM219.385 58.176L218.474 57.7637L217.835 59.176H219.385V58.176ZM224.533 46.8V45.8H223.888L223.622 46.3877L224.533 46.8ZM232.849 46.8H233.849V45.8H232.849V46.8ZM232.849 72V73H233.849V72H232.849ZM229.241 72V50.184H227.241V72H229.241ZM228.241 49.184H227.593V51.184H228.241V49.184ZM226.672 49.7941L223.288 57.7861L225.13 58.5659L228.514 50.5739L226.672 49.7941ZM224.209 57.176H219.385V59.176H224.209V57.176ZM220.296 58.5883L225.444 47.2123L223.622 46.3877L218.474 57.7637L220.296 58.5883ZM224.533 47.8H232.849V45.8H224.533V47.8ZM231.849 46.8V72H233.849V46.8H231.849ZM232.849 71H228.241V73H232.849V71ZM240.558 72.468L239.933 73.2479L240.709 73.8714L241.336 73.097L240.558 72.468ZM237.822 70.272L237.045 69.643L236.414 70.4235L237.197 71.0519L237.822 70.272ZM257.19 46.332L257.816 45.5521L257.04 44.9286L256.413 45.703L257.19 46.332ZM259.926 48.528L260.704 49.157L261.335 48.3765L260.552 47.7481L259.926 48.528ZM251.466 70.92L250.776 71.6438L250.785 71.6522L251.466 70.92ZM251.466 62.676L252.148 63.4082L252.157 63.3997L251.466 62.676ZM259.998 62.676L259.317 63.4077L259.326 63.4159L259.998 62.676ZM260.034 70.92L260.716 71.6522L260.725 71.6437L260.034 70.92ZM257.37 68.76L256.643 68.0734L256.633 68.0844L256.623 68.0956L257.37 68.76ZM257.37 64.8L256.623 65.4644L256.633 65.4756L256.643 65.4866L257.37 64.8ZM254.094 64.8L253.367 64.1134L253.357 64.1244L253.347 64.1356L254.094 64.8ZM254.094 68.76L253.347 69.4244L253.357 69.4356L253.367 69.4466L254.094 68.76ZM237.714 56.16L237.024 56.8838L237.033 56.8922L237.714 56.16ZM237.714 47.916L238.396 48.6482L238.405 48.6397L237.714 47.916ZM246.246 47.916L245.565 48.6477L245.574 48.6559L246.246 47.916ZM246.282 56.16L246.964 56.8922L246.973 56.8837L246.282 56.16ZM243.618 54L242.891 53.3134L242.881 53.3244L242.871 53.3356L243.618 54ZM243.618 50.04L242.871 50.7044L242.881 50.7156L242.891 50.7266L243.618 50.04ZM240.342 50.04L239.615 49.3534L239.605 49.3644L239.595 49.3756L240.342 50.04ZM240.342 54L239.595 54.6644L239.605 54.6756L239.615 54.6866L240.342 54ZM241.184 71.6881L238.448 69.4921L237.197 71.0519L239.933 73.2479L241.184 71.6881ZM238.6 70.901L257.968 46.961L256.413 45.703L237.045 69.643L238.6 70.901ZM256.565 47.1119L259.301 49.3079L260.552 47.7481L257.816 45.5521L256.565 47.1119ZM259.149 47.899L239.781 71.839L241.336 73.097L260.704 49.157L259.149 47.899ZM255.75 71.36C254.102 71.36 252.945 70.9297 252.148 70.1878L250.785 71.6522C252.052 72.8303 253.75 73.36 255.75 73.36V71.36ZM252.157 70.1963C251.358 69.4346 250.918 68.3834 250.918 66.924H248.918C248.918 68.8246 249.511 70.4374 250.776 71.6437L252.157 70.1963ZM250.918 66.924V66.672H248.918V66.924H250.918ZM250.918 66.672C250.918 65.1831 251.361 64.1402 252.148 63.4082L250.785 61.9438C249.508 63.1318 248.918 64.7529 248.918 66.672H250.918ZM252.157 63.3997C252.955 62.6386 254.109 62.2 255.75 62.2V60.2C253.744 60.2 252.042 60.7454 250.776 61.9523L252.157 63.3997ZM255.75 62.2C257.335 62.2 258.486 62.6337 259.317 63.4076L260.68 61.9444C259.399 60.7503 257.718 60.2 255.75 60.2V62.2ZM259.326 63.4159C260.133 64.1498 260.582 65.1902 260.582 66.672H262.582C262.582 64.7458 261.976 63.1222 260.671 61.9361L259.326 63.4159ZM260.582 66.672V66.924H262.582V66.672H260.582ZM260.582 66.924C260.582 68.3834 260.143 69.4346 259.344 70.1963L260.725 71.6437C261.99 70.4374 262.582 68.8246 262.582 66.924H260.582ZM259.353 70.1878C258.556 70.9297 257.398 71.36 255.75 71.36V73.36C257.75 73.36 259.449 72.8303 260.716 71.6522L259.353 70.1878ZM255.75 70.408C256.669 70.408 257.506 70.1131 258.118 69.4244L256.623 68.0956C256.467 68.2709 256.224 68.408 255.75 68.408V70.408ZM258.097 69.4466C258.71 68.7976 258.982 67.9726 258.982 67.068H256.982C256.982 67.5554 256.846 67.8584 256.643 68.0734L258.097 69.4466ZM258.982 67.068V66.492H256.982V67.068H258.982ZM258.982 66.492C258.982 65.5874 258.71 64.7624 258.097 64.1134L256.643 65.4866C256.846 65.7016 256.982 66.0046 256.982 66.492H258.982ZM258.118 64.1356C257.506 63.4469 256.669 63.152 255.75 63.152V65.152C256.224 65.152 256.467 65.2891 256.623 65.4644L258.118 64.1356ZM255.75 63.152C254.831 63.152 253.997 63.4469 253.367 64.1134L254.821 65.4866C255.008 65.2891 255.278 65.152 255.75 65.152V63.152ZM253.347 64.1356C252.769 64.7865 252.518 65.6036 252.518 66.492H254.518C254.518 65.9884 254.652 65.6775 254.842 65.4644L253.347 64.1356ZM252.518 66.492V67.068H254.518V66.492H252.518ZM252.518 67.068C252.518 67.9564 252.769 68.7735 253.347 69.4244L254.842 68.0956C254.652 67.8825 254.518 67.5716 254.518 67.068H252.518ZM253.367 69.4466C253.997 70.1131 254.831 70.408 255.75 70.408V68.408C255.278 68.408 255.008 68.2709 254.821 68.0734L253.367 69.4466ZM241.998 56.6C240.35 56.6 239.193 56.1697 238.396 55.4278L237.033 56.8922C238.3 58.0703 239.998 58.6 241.998 58.6V56.6ZM238.405 55.4363C237.606 54.6746 237.166 53.6234 237.166 52.164H235.166C235.166 54.0646 235.759 55.6774 237.024 56.8837L238.405 55.4363ZM237.166 52.164V51.912H235.166V52.164H237.166ZM237.166 51.912C237.166 50.4231 237.609 49.3802 238.396 48.6482L237.033 47.1838C235.756 48.3718 235.166 49.9929 235.166 51.912H237.166ZM238.405 48.6397C239.203 47.8786 240.357 47.44 241.998 47.44V45.44C239.992 45.44 238.29 45.9854 237.024 47.1923L238.405 48.6397ZM241.998 47.44C243.583 47.44 244.734 47.8737 245.565 48.6476L246.928 47.1844C245.647 45.9903 243.966 45.44 241.998 45.44V47.44ZM245.574 48.6559C246.381 49.3898 246.83 50.4302 246.83 51.912H248.83C248.83 49.9858 248.224 48.3622 246.919 47.1761L245.574 48.6559ZM246.83 51.912V52.164H248.83V51.912H246.83ZM246.83 52.164C246.83 53.6234 246.391 54.6746 245.592 55.4363L246.973 56.8837C248.238 55.6774 248.83 54.0646 248.83 52.164H246.83ZM245.601 55.4278C244.804 56.1697 243.646 56.6 241.998 56.6V58.6C243.998 58.6 245.697 58.0703 246.964 56.8922L245.601 55.4278ZM241.998 55.648C242.917 55.648 243.754 55.3531 244.366 54.6644L242.871 53.3356C242.715 53.5108 242.472 53.648 241.998 53.648V55.648ZM244.345 54.6866C244.958 54.0376 245.23 53.2126 245.23 52.308H243.23C243.23 52.7954 243.094 53.0984 242.891 53.3134L244.345 54.6866ZM245.23 52.308V51.732H243.23V52.308H245.23ZM245.23 51.732C245.23 50.8274 244.958 50.0024 244.345 49.3534L242.891 50.7266C243.094 50.9416 243.23 51.2446 243.23 51.732H245.23ZM244.366 49.3756C243.754 48.6868 242.917 48.392 241.998 48.392V50.392C242.472 50.392 242.715 50.5291 242.871 50.7044L244.366 49.3756ZM241.998 48.392C241.079 48.392 240.245 48.6869 239.615 49.3534L241.069 50.7266C241.256 50.5291 241.526 50.392 241.998 50.392V48.392ZM239.595 49.3756C239.017 50.0265 238.766 50.8436 238.766 51.732H240.766C240.766 51.2284 240.9 50.9175 241.09 50.7044L239.595 49.3756ZM238.766 51.732V52.308H240.766V51.732H238.766ZM238.766 52.308C238.766 53.1964 239.017 54.0135 239.595 54.6644L241.09 53.3356C240.9 53.1225 240.766 52.8116 240.766 52.308H238.766ZM239.615 54.6866C240.245 55.3531 241.079 55.648 241.998 55.648V53.648C241.526 53.648 241.256 53.5109 241.069 53.3134L239.615 54.6866Z" fill="black"/>
<path d="M637.71 164.839C637.71 171.337 635.783 177.69 632.173 183.093C628.563 188.496 623.432 192.707 617.428 195.193C611.425 197.68 604.819 198.331 598.445 197.063C592.072 195.795 586.218 192.666 581.623 188.071C577.028 183.477 573.899 177.622 572.631 171.249C571.364 164.876 572.014 158.27 574.501 152.266C576.988 146.263 581.199 141.132 586.602 137.521C592.005 133.911 598.357 131.984 604.855 131.984L604.855 164.839H637.71Z" fill="#DFF851"/>
<circle cx="473.855" cy="98.565" r="31.355" fill="#DFF851" stroke="black" stroke-width="3"/>
<circle cx="473.855" cy="32.855" r="31.355" fill="#DFF851" stroke="black" stroke-width="3"/>
<circle cx="473.855" cy="164.275" r="31.355" fill="#DFF851" stroke="black" stroke-width="3"/>
<circle cx="473.855" cy="229.985" r="31.355" stroke="black" stroke-width="3"/>
<circle cx="473.855" cy="295.695" r="31.355" stroke="black" stroke-width="3"/>
<circle cx="539.563" cy="32.855" r="31.355" fill="#DFF851" stroke="black" stroke-width="3"/>
<circle cx="539.563" cy="98.565" r="31.355" fill="#DFF851" stroke="black" stroke-width="3"/>
<circle cx="539.563" cy="164.275" r="31.355" fill="#DFF851" stroke="black" stroke-width="3"/>
<circle cx="539.563" cy="229.985" r="31.355" stroke="black" stroke-width="3"/>
<circle cx="539.563" cy="295.695" r="31.355" stroke="black" stroke-width="3"/>
<circle cx="605.276" cy="32.855" r="31.355" fill="#DFF851" stroke="black" stroke-width="3"/>
<circle cx="605.276" cy="98.565" r="31.355" fill="#DFF851" stroke="black" stroke-width="3"/>
<circle cx="605.276" cy="164.275" r="31.355" stroke="black" stroke-width="3"/>
<circle cx="605.276" cy="229.985" r="31.355" stroke="black" stroke-width="3"/>
<circle cx="605.276" cy="295.695" r="31.355" stroke="black" stroke-width="3"/>
<circle cx="670.984" cy="32.855" r="31.355" fill="#DFF851" stroke="black" stroke-width="3"/>
<circle cx="670.984" cy="98.565" r="31.355" fill="#DFF851" stroke="black" stroke-width="3"/>
<circle cx="670.984" cy="164.275" r="31.355" stroke="black" stroke-width="3"/>
<circle cx="670.984" cy="229.985" r="31.355" stroke="black" stroke-width="3"/>
<circle cx="670.984" cy="295.695" r="31.355" stroke="black" stroke-width="3"/>
<circle cx="736.697" cy="32.855" r="31.355" fill="#DFF851" stroke="black" stroke-width="3"/>
<circle cx="736.697" cy="98.565" r="31.355" fill="#DFF851" stroke="black" stroke-width="3"/>
<circle cx="736.697" cy="164.275" r="31.355" stroke="black" stroke-width="3"/>
<circle cx="736.697" cy="229.985" r="31.355" stroke="black" stroke-width="3"/>
<circle cx="737.145" cy="296.145" r="31.355" stroke="black" stroke-width="3"/>
</svg>
