<svg  viewBox="0 0 326 244" fill="none" xmlns="http://www.w3.org/2000/svg">
<path fill-rule="evenodd" clip-rule="evenodd" d="M81.8711 0.177734H0.621094V81.4277V162.678V243.928H81.8711H163.121H244.371H325.621V162.678V81.4277V0.177734H244.371H163.121H81.8711Z" fill="#D7FB03"/>
<path d="M0.621094 0.177734V-1.82227H-1.37891V0.177734H0.621094ZM0.621094 243.928H-1.37891V245.928H0.621094V243.928ZM325.621 243.928V245.928H327.621V243.928H325.621ZM325.621 0.177734H327.621V-1.82227H325.621V0.177734ZM0.621094 2.17773H81.8711V-1.82227H0.621094V2.17773ZM2.62109 81.4277V0.177734H-1.37891V81.4277H2.62109ZM2.62109 162.678V81.4277H-1.37891V162.678H2.62109ZM2.62109 243.928V162.678H-1.37891V243.928H2.62109ZM81.8711 241.928H0.621094V245.928H81.8711V241.928ZM163.121 241.928H81.8711V245.928H163.121V241.928ZM244.371 241.928H163.121V245.928H244.371V241.928ZM325.621 241.928H244.371V245.928H325.621V241.928ZM323.621 162.678V243.928H327.621V162.678H323.621ZM323.621 81.4277V162.678H327.621V81.4277H323.621ZM323.621 0.177734V81.4277H327.621V0.177734H323.621ZM244.371 2.17773H325.621V-1.82227H244.371V2.17773ZM163.121 2.17773H244.371V-1.82227H163.121V2.17773ZM81.8711 2.17773H163.121V-1.82227H81.8711V2.17773Z" fill="white"/>
<path d="M12.0851 20.1777L10.9811 11.7777H12.5531L13.3691 19.0737H13.5851L14.6411 11.7777H17.3771L18.4331 19.0737H18.6491L19.4651 11.7777H21.0371L19.9331 20.1777H17.1971L16.1171 12.7137H15.9011L14.8211 20.1777H12.0851ZM25.004 20.3457C24.412 20.3457 23.88 20.2257 23.408 19.9857C22.936 19.7457 22.564 19.3977 22.292 18.9417C22.02 18.4857 21.884 17.9377 21.884 17.2977V17.1057C21.884 16.4657 22.02 15.9177 22.292 15.4617C22.564 15.0057 22.936 14.6577 23.408 14.4177C23.88 14.1777 24.412 14.0577 25.004 14.0577C25.596 14.0577 26.128 14.1777 26.6 14.4177C27.072 14.6577 27.444 15.0057 27.716 15.4617C27.988 15.9177 28.124 16.4657 28.124 17.1057V17.2977C28.124 17.9377 27.988 18.4857 27.716 18.9417C27.444 19.3977 27.072 19.7457 26.6 19.9857C26.128 20.2257 25.596 20.3457 25.004 20.3457ZM25.004 19.0017C25.468 19.0017 25.852 18.8537 26.156 18.5577C26.46 18.2537 26.612 17.8217 26.612 17.2617V17.1417C26.612 16.5817 26.46 16.1537 26.156 15.8577C25.86 15.5537 25.476 15.4017 25.004 15.4017C24.54 15.4017 24.156 15.5537 23.852 15.8577C23.548 16.1537 23.396 16.5817 23.396 17.1417V17.2617C23.396 17.8217 23.548 18.2537 23.852 18.5577C24.156 18.8537 24.54 19.0017 25.004 19.0017ZM29.5197 20.1777V14.2257H31.0077V14.8737H31.2237C31.3277 14.6737 31.4997 14.5017 31.7397 14.3577C31.9797 14.2057 32.2957 14.1297 32.6877 14.1297C33.1117 14.1297 33.4517 14.2137 33.7077 14.3817C33.9637 14.5417 34.1597 14.7537 34.2957 15.0177H34.5117C34.6477 14.7617 34.8397 14.5497 35.0877 14.3817C35.3357 14.2137 35.6877 14.1297 36.1437 14.1297C36.5117 14.1297 36.8437 14.2097 37.1397 14.3697C37.4437 14.5217 37.6837 14.7577 37.8597 15.0777C38.0437 15.3897 38.1357 15.7857 38.1357 16.2657V20.1777H36.6237V16.3737C36.6237 16.0457 36.5397 15.8017 36.3717 15.6417C36.2037 15.4737 35.9677 15.3897 35.6637 15.3897C35.3197 15.3897 35.0517 15.5017 34.8597 15.7257C34.6757 15.9417 34.5837 16.2537 34.5837 16.6617V20.1777H33.0717V16.3737C33.0717 16.0457 32.9877 15.8017 32.8197 15.6417C32.6517 15.4737 32.4157 15.3897 32.1117 15.3897C31.7677 15.3897 31.4997 15.5017 31.3077 15.7257C31.1237 15.9417 31.0317 16.2537 31.0317 16.6617V20.1777H29.5197ZM42.4739 20.3457C41.8819 20.3457 41.3579 20.2217 40.9019 19.9737C40.4539 19.7177 40.1019 19.3617 39.8459 18.9057C39.5979 18.4417 39.4739 17.8977 39.4739 17.2737V17.1297C39.4739 16.5057 39.5979 15.9657 39.8459 15.5097C40.0939 15.0457 40.4419 14.6897 40.8899 14.4417C41.3379 14.1857 41.8579 14.0577 42.4499 14.0577C43.0339 14.0577 43.5419 14.1897 43.9739 14.4537C44.4059 14.7097 44.7419 15.0697 44.9819 15.5337C45.2219 15.9897 45.3419 16.5217 45.3419 17.1297V17.6457H41.0099C41.0259 18.0537 41.1779 18.3857 41.4659 18.6417C41.7539 18.8977 42.1059 19.0257 42.5219 19.0257C42.9459 19.0257 43.2579 18.9337 43.4579 18.7497C43.6579 18.5657 43.8099 18.3617 43.9139 18.1377L45.1499 18.7857C45.0379 18.9937 44.8739 19.2217 44.6579 19.4697C44.4499 19.7097 44.1699 19.9177 43.8179 20.0937C43.4659 20.2617 43.0179 20.3457 42.4739 20.3457ZM41.0219 16.5177H43.8059C43.7739 16.1737 43.6339 15.8977 43.3859 15.6897C43.1459 15.4817 42.8299 15.3777 42.4379 15.3777C42.0299 15.3777 41.7059 15.4817 41.4659 15.6897C41.2259 15.8977 41.0779 16.1737 41.0219 16.5177ZM46.6877 20.1777V14.2257H48.1757V15.0057H48.3917C48.4877 14.7977 48.6677 14.6017 48.9317 14.4177C49.1957 14.2257 49.5957 14.1297 50.1317 14.1297C50.5957 14.1297 50.9997 14.2377 51.3437 14.4537C51.6957 14.6617 51.9677 14.9537 52.1597 15.3297C52.3517 15.6977 52.4477 16.1297 52.4477 16.6257V20.1777H50.9357V16.7457C50.9357 16.2977 50.8237 15.9617 50.5997 15.7377C50.3837 15.5137 50.0717 15.4017 49.6637 15.4017C49.1997 15.4017 48.8397 15.5577 48.5837 15.8697C48.3277 16.1737 48.1997 16.6017 48.1997 17.1537V20.1777H46.6877ZM59.9611 20.3457C59.3691 20.3457 58.8371 20.2257 58.3651 19.9857C57.8931 19.7457 57.5211 19.3977 57.2491 18.9417C56.9771 18.4857 56.8411 17.9377 56.8411 17.2977V17.1057C56.8411 16.4657 56.9771 15.9177 57.2491 15.4617C57.5211 15.0057 57.8931 14.6577 58.3651 14.4177C58.8371 14.1777 59.3691 14.0577 59.9611 14.0577C60.5531 14.0577 61.0851 14.1777 61.5571 14.4177C62.0291 14.6577 62.4011 15.0057 62.6731 15.4617C62.9451 15.9177 63.0811 16.4657 63.0811 17.1057V17.2977C63.0811 17.9377 62.9451 18.4857 62.6731 18.9417C62.4011 19.3977 62.0291 19.7457 61.5571 19.9857C61.0851 20.2257 60.5531 20.3457 59.9611 20.3457ZM59.9611 19.0017C60.4251 19.0017 60.8091 18.8537 61.1131 18.5577C61.4171 18.2537 61.5691 17.8217 61.5691 17.2617V17.1417C61.5691 16.5817 61.4171 16.1537 61.1131 15.8577C60.8171 15.5537 60.4331 15.4017 59.9611 15.4017C59.4971 15.4017 59.1131 15.5537 58.8091 15.8577C58.5051 16.1537 58.3531 16.5817 58.3531 17.1417V17.2617C58.3531 17.8217 58.5051 18.2537 58.8091 18.5577C59.1131 18.8537 59.4971 19.0017 59.9611 19.0017ZM65.2615 20.1777V15.4737H63.7495V14.2257H65.2615V13.1217C65.2615 12.7137 65.3815 12.3897 65.6215 12.1497C65.8695 11.9017 66.1895 11.7777 66.5815 11.7777H68.1415V13.0257H67.1095C66.8855 13.0257 66.7735 13.1457 66.7735 13.3857V14.2257H68.3335V15.4737H66.7735V20.1777H65.2615ZM75.3469 20.3457C74.7709 20.3457 74.2469 20.2257 73.7749 19.9857C73.3109 19.7457 72.9429 19.3977 72.6709 18.9417C72.3989 18.4857 72.2629 17.9337 72.2629 17.2857V17.1177C72.2629 16.4697 72.3989 15.9177 72.6709 15.4617C72.9429 15.0057 73.3109 14.6577 73.7749 14.4177C74.2469 14.1777 74.7709 14.0577 75.3469 14.0577C75.9149 14.0577 76.4029 14.1577 76.8109 14.3577C77.2189 14.5577 77.5469 14.8337 77.7949 15.1857C78.0509 15.5297 78.2189 15.9217 78.2989 16.3617L76.8349 16.6737C76.8029 16.4337 76.7309 16.2177 76.6189 16.0257C76.5069 15.8337 76.3469 15.6817 76.1389 15.5697C75.9389 15.4577 75.6869 15.4017 75.3829 15.4017C75.0789 15.4017 74.8029 15.4697 74.5549 15.6057C74.3149 15.7337 74.1229 15.9297 73.9789 16.1937C73.8429 16.4497 73.7749 16.7657 73.7749 17.1417V17.2617C73.7749 17.6377 73.8429 17.9577 73.9789 18.2217C74.1229 18.4777 74.3149 18.6737 74.5549 18.8097C74.8029 18.9377 75.0789 19.0017 75.3829 19.0017C75.8389 19.0017 76.1829 18.8857 76.4149 18.6537C76.6549 18.4137 76.8069 18.1017 76.8709 17.7177L78.3349 18.0657C78.2309 18.4897 78.0509 18.8777 77.7949 19.2297C77.5469 19.5737 77.2189 19.8457 76.8109 20.0457C76.4029 20.2457 75.9149 20.3457 75.3469 20.3457ZM82.4142 20.3457C81.8222 20.3457 81.2902 20.2257 80.8182 19.9857C80.3462 19.7457 79.9742 19.3977 79.7022 18.9417C79.4302 18.4857 79.2942 17.9377 79.2942 17.2977V17.1057C79.2942 16.4657 79.4302 15.9177 79.7022 15.4617C79.9742 15.0057 80.3462 14.6577 80.8182 14.4177C81.2902 14.1777 81.8222 14.0577 82.4142 14.0577C83.0062 14.0577 83.5382 14.1777 84.0102 14.4177C84.4822 14.6577 84.8542 15.0057 85.1262 15.4617C85.3982 15.9177 85.5342 16.4657 85.5342 17.1057V17.2977C85.5342 17.9377 85.3982 18.4857 85.1262 18.9417C84.8542 19.3977 84.4822 19.7457 84.0102 19.9857C83.5382 20.2257 83.0062 20.3457 82.4142 20.3457ZM82.4142 19.0017C82.8782 19.0017 83.2622 18.8537 83.5662 18.5577C83.8702 18.2537 84.0222 17.8217 84.0222 17.2617V17.1417C84.0222 16.5817 83.8702 16.1537 83.5662 15.8577C83.2702 15.5537 82.8862 15.4017 82.4142 15.4017C81.9502 15.4017 81.5662 15.5537 81.2622 15.8577C80.9582 16.1537 80.8062 16.5817 80.8062 17.1417V17.2617C80.8062 17.8217 80.9582 18.2537 81.2622 18.5577C81.5662 18.8537 81.9502 19.0017 82.4142 19.0017ZM86.9298 20.1777V11.7777H88.4418V20.1777H86.9298ZM92.9493 20.3457C92.3573 20.3457 91.8253 20.2257 91.3533 19.9857C90.8813 19.7457 90.5093 19.3977 90.2373 18.9417C89.9653 18.4857 89.8293 17.9377 89.8293 17.2977V17.1057C89.8293 16.4657 89.9653 15.9177 90.2373 15.4617C90.5093 15.0057 90.8813 14.6577 91.3533 14.4177C91.8253 14.1777 92.3573 14.0577 92.9493 14.0577C93.5413 14.0577 94.0733 14.1777 94.5453 14.4177C95.0173 14.6577 95.3893 15.0057 95.6613 15.4617C95.9333 15.9177 96.0693 16.4657 96.0693 17.1057V17.2977C96.0693 17.9377 95.9333 18.4857 95.6613 18.9417C95.3893 19.3977 95.0173 19.7457 94.5453 19.9857C94.0733 20.2257 93.5413 20.3457 92.9493 20.3457ZM92.9493 19.0017C93.4133 19.0017 93.7973 18.8537 94.1013 18.5577C94.4053 18.2537 94.5573 17.8217 94.5573 17.2617V17.1417C94.5573 16.5817 94.4053 16.1537 94.1013 15.8577C93.8053 15.5537 93.4213 15.4017 92.9493 15.4017C92.4853 15.4017 92.1013 15.5537 91.7973 15.8577C91.4933 16.1537 91.3413 16.5817 91.3413 17.1417V17.2617C91.3413 17.8217 91.4933 18.2537 91.7973 18.5577C92.1013 18.8537 92.4853 19.0017 92.9493 19.0017ZM97.465 20.1777V14.2257H98.953V14.8977H99.169C99.257 14.6577 99.401 14.4817 99.601 14.3697C99.809 14.2577 100.049 14.2017 100.321 14.2017H101.041V15.5457H100.297C99.913 15.5457 99.597 15.6497 99.349 15.8577C99.101 16.0577 98.977 16.3697 98.977 16.7937V20.1777H97.465ZM11.4131 36.1777V27.7777H16.8131V29.2177H12.9971V31.2217H16.4771V32.6617H12.9971V34.7377H16.8851V36.1777H11.4131ZM18.1056 36.1777V30.2257H19.5936V31.0057H19.8096C19.9056 30.7977 20.0856 30.6017 20.3496 30.4177C20.6136 30.2257 21.0136 30.1297 21.5496 30.1297C22.0136 30.1297 22.4176 30.2377 22.7616 30.4537C23.1136 30.6617 23.3856 30.9537 23.5776 31.3297C23.7696 31.6977 23.8656 32.1297 23.8656 32.6257V36.1777H22.3536V32.7457C22.3536 32.2977 22.2416 31.9617 22.0176 31.7377C21.8016 31.5137 21.4896 31.4017 21.0816 31.4017C20.6176 31.4017 20.2576 31.5577 20.0016 31.8697C19.7456 32.1737 19.6176 32.6017 19.6176 33.1537V36.1777H18.1056ZM27.6161 36.1777C27.2241 36.1777 26.9041 36.0577 26.6561 35.8177C26.4161 35.5697 26.2961 35.2417 26.2961 34.8337V31.4737H24.8081V30.2257H26.2961V28.3777H27.8081V30.2257H29.4401V31.4737H27.8081V34.5697C27.8081 34.8097 27.9201 34.9297 28.1441 34.9297H29.2961V36.1777H27.6161ZM30.8088 36.1777V30.2257H32.2968V30.8977H32.5128C32.6008 30.6577 32.7448 30.4817 32.9448 30.3697C33.1528 30.2577 33.3928 30.2017 33.6648 30.2017H34.3848V31.5457H33.6408C33.2568 31.5457 32.9408 31.6497 32.6928 31.8577C32.4448 32.0577 32.3208 32.3697 32.3208 32.7937V36.1777H30.8088ZM38.0676 36.3457C37.4756 36.3457 36.9516 36.2217 36.4956 35.9737C36.0476 35.7177 35.6956 35.3617 35.4396 34.9057C35.1916 34.4417 35.0676 33.8977 35.0676 33.2737V33.1297C35.0676 32.5057 35.1916 31.9657 35.4396 31.5097C35.6876 31.0457 36.0356 30.6897 36.4836 30.4417C36.9316 30.1857 37.4516 30.0577 38.0436 30.0577C38.6276 30.0577 39.1356 30.1897 39.5676 30.4537C39.9996 30.7097 40.3356 31.0697 40.5756 31.5337C40.8156 31.9897 40.9356 32.5217 40.9356 33.1297V33.6457H36.6036C36.6196 34.0537 36.7716 34.3857 37.0596 34.6417C37.3476 34.8977 37.6996 35.0257 38.1156 35.0257C38.5396 35.0257 38.8516 34.9337 39.0516 34.7497C39.2516 34.5657 39.4036 34.3617 39.5076 34.1377L40.7436 34.7857C40.6316 34.9937 40.4676 35.2217 40.2516 35.4697C40.0436 35.7097 39.7636 35.9177 39.4116 36.0937C39.0596 36.2617 38.6116 36.3457 38.0676 36.3457ZM36.6156 32.5177H39.3996C39.3676 32.1737 39.2276 31.8977 38.9796 31.6897C38.7396 31.4817 38.4236 31.3777 38.0316 31.3777C37.6236 31.3777 37.2996 31.4817 37.0596 31.6897C36.8196 31.8977 36.6716 32.1737 36.6156 32.5177ZM42.2814 38.5777V30.2257H43.7694V30.9457H43.9854C44.1214 30.7137 44.3334 30.5097 44.6214 30.3337C44.9094 30.1497 45.3214 30.0577 45.8574 30.0577C46.3374 30.0577 46.7814 30.1777 47.1894 30.4177C47.5974 30.6497 47.9254 30.9937 48.1734 31.4497C48.4214 31.9057 48.5454 32.4577 48.5454 33.1057V33.2977C48.5454 33.9457 48.4214 34.4977 48.1734 34.9537C47.9254 35.4097 47.5974 35.7577 47.1894 35.9977C46.7814 36.2297 46.3374 36.3457 45.8574 36.3457C45.4974 36.3457 45.1934 36.3017 44.9454 36.2137C44.7054 36.1337 44.5094 36.0297 44.3574 35.9017C44.2134 35.7657 44.0974 35.6297 44.0094 35.4937H43.7934V38.5777H42.2814ZM45.4014 35.0257C45.8734 35.0257 46.2614 34.8777 46.5654 34.5817C46.8774 34.2777 47.0334 33.8377 47.0334 33.2617V33.1417C47.0334 32.5657 46.8774 32.1297 46.5654 31.8337C46.2534 31.5297 45.8654 31.3777 45.4014 31.3777C44.9374 31.3777 44.5494 31.5297 44.2374 31.8337C43.9254 32.1297 43.7694 32.5657 43.7694 33.1417V33.2617C43.7694 33.8377 43.9254 34.2777 44.2374 34.5817C44.5494 34.8777 44.9374 35.0257 45.4014 35.0257ZM49.9338 36.1777V30.2257H51.4218V30.8977H51.6378C51.7258 30.6577 51.8698 30.4817 52.0698 30.3697C52.2778 30.2577 52.5178 30.2017 52.7898 30.2017H53.5098V31.5457H52.7658C52.3818 31.5457 52.0658 31.6497 51.8178 31.8577C51.5698 32.0577 51.4458 32.3697 51.4458 32.7937V36.1777H49.9338ZM57.1926 36.3457C56.6006 36.3457 56.0766 36.2217 55.6206 35.9737C55.1726 35.7177 54.8206 35.3617 54.5646 34.9057C54.3166 34.4417 54.1926 33.8977 54.1926 33.2737V33.1297C54.1926 32.5057 54.3166 31.9657 54.5646 31.5097C54.8126 31.0457 55.1606 30.6897 55.6086 30.4417C56.0566 30.1857 56.5766 30.0577 57.1686 30.0577C57.7526 30.0577 58.2606 30.1897 58.6926 30.4537C59.1246 30.7097 59.4606 31.0697 59.7006 31.5337C59.9406 31.9897 60.0606 32.5217 60.0606 33.1297V33.6457H55.7286C55.7446 34.0537 55.8966 34.3857 56.1846 34.6417C56.4726 34.8977 56.8246 35.0257 57.2406 35.0257C57.6646 35.0257 57.9766 34.9337 58.1766 34.7497C58.3766 34.5657 58.5286 34.3617 58.6326 34.1377L59.8686 34.7857C59.7566 34.9937 59.5926 35.2217 59.3766 35.4697C59.1686 35.7097 58.8886 35.9177 58.5366 36.0937C58.1846 36.2617 57.7366 36.3457 57.1926 36.3457ZM55.7406 32.5177H58.5246C58.4926 32.1737 58.3526 31.8977 58.1046 31.6897C57.8646 31.4817 57.5486 31.3777 57.1566 31.3777C56.7486 31.3777 56.4246 31.4817 56.1846 31.6897C55.9446 31.8977 55.7966 32.1737 55.7406 32.5177ZM61.4064 36.1777V30.2257H62.8944V31.0057H63.1104C63.2064 30.7977 63.3864 30.6017 63.6504 30.4177C63.9144 30.2257 64.3144 30.1297 64.8504 30.1297C65.3144 30.1297 65.7184 30.2377 66.0624 30.4537C66.4144 30.6617 66.6864 30.9537 66.8784 31.3297C67.0704 31.6977 67.1664 32.1297 67.1664 32.6257V36.1777H65.6544V32.7457C65.6544 32.2977 65.5424 31.9617 65.3184 31.7377C65.1024 31.5137 64.7904 31.4017 64.3824 31.4017C63.9184 31.4017 63.5584 31.5577 63.3024 31.8697C63.0464 32.1737 62.9184 32.6017 62.9184 33.1537V36.1777H61.4064ZM71.5129 36.3457C70.9209 36.3457 70.3969 36.2217 69.9409 35.9737C69.4929 35.7177 69.1409 35.3617 68.8849 34.9057C68.6369 34.4417 68.5129 33.8977 68.5129 33.2737V33.1297C68.5129 32.5057 68.6369 31.9657 68.8849 31.5097C69.1329 31.0457 69.4809 30.6897 69.9289 30.4417C70.3769 30.1857 70.8969 30.0577 71.4889 30.0577C72.0729 30.0577 72.5809 30.1897 73.0129 30.4537C73.4449 30.7097 73.7809 31.0697 74.0209 31.5337C74.2609 31.9897 74.3809 32.5217 74.3809 33.1297V33.6457H70.0489C70.0649 34.0537 70.2169 34.3857 70.5049 34.6417C70.7929 34.8977 71.1449 35.0257 71.5609 35.0257C71.9849 35.0257 72.2969 34.9337 72.4969 34.7497C72.6969 34.5657 72.8489 34.3617 72.9529 34.1377L74.1889 34.7857C74.0769 34.9937 73.9129 35.2217 73.6969 35.4697C73.4889 35.7097 73.2089 35.9177 72.8569 36.0937C72.5049 36.2617 72.0569 36.3457 71.5129 36.3457ZM70.0609 32.5177H72.8449C72.8129 32.1737 72.6729 31.8977 72.4249 31.6897C72.1849 31.4817 71.8689 31.3777 71.4769 31.3777C71.0689 31.3777 70.7449 31.4817 70.5049 31.6897C70.2649 31.8977 70.1169 32.1737 70.0609 32.5177ZM77.9947 36.2737C77.5307 36.2737 77.1227 36.1697 76.7707 35.9617C76.4267 35.7457 76.1587 35.4497 75.9667 35.0737C75.7747 34.6977 75.6787 34.2657 75.6787 33.7777V30.2257H77.1907V33.6577C77.1907 34.1057 77.2987 34.4417 77.5147 34.6657C77.7387 34.8897 78.0547 35.0017 78.4627 35.0017C78.9267 35.0017 79.2867 34.8497 79.5427 34.5457C79.7987 34.2337 79.9267 33.8017 79.9267 33.2497V30.2257H81.4387V36.1777H79.9507V35.3977H79.7347C79.6387 35.5977 79.4587 35.7937 79.1947 35.9857C78.9307 36.1777 78.5307 36.2737 77.9947 36.2737ZM83.1213 36.1777V30.2257H84.6093V30.8977H84.8253C84.9133 30.6577 85.0573 30.4817 85.2573 30.3697C85.4653 30.2577 85.7053 30.2017 85.9773 30.2017H86.6973V31.5457H85.9533C85.5693 31.5457 85.2533 31.6497 85.0053 31.8577C84.7573 32.0577 84.6333 32.3697 84.6333 32.7937V36.1777H83.1213ZM90.2104 36.3457C89.4344 36.3457 88.7984 36.1777 88.3024 35.8417C87.8064 35.5057 87.5064 35.0257 87.4024 34.4017L88.7944 34.0417C88.8504 34.3217 88.9424 34.5417 89.0704 34.7017C89.2064 34.8617 89.3704 34.9777 89.5624 35.0497C89.7624 35.1137 89.9784 35.1457 90.2104 35.1457C90.5624 35.1457 90.8224 35.0857 90.9904 34.9657C91.1584 34.8377 91.2424 34.6817 91.2424 34.4977C91.2424 34.3137 91.1624 34.1737 91.0024 34.0777C90.8424 33.9737 90.5864 33.8897 90.2344 33.8257L89.8984 33.7657C89.4824 33.6857 89.1024 33.5777 88.7584 33.4417C88.4144 33.2977 88.1384 33.1017 87.9304 32.8537C87.7224 32.6057 87.6184 32.2857 87.6184 31.8937C87.6184 31.3017 87.8344 30.8497 88.2664 30.5377C88.6984 30.2177 89.2664 30.0577 89.9704 30.0577C90.6344 30.0577 91.1864 30.2057 91.6264 30.5017C92.0664 30.7977 92.3544 31.1857 92.4904 31.6657L91.0864 32.0977C91.0224 31.7937 90.8904 31.5777 90.6904 31.4497C90.4984 31.3217 90.2584 31.2577 89.9704 31.2577C89.6824 31.2577 89.4624 31.3097 89.3104 31.4137C89.1584 31.5097 89.0824 31.6457 89.0824 31.8217C89.0824 32.0137 89.1624 32.1577 89.3224 32.2537C89.4824 32.3417 89.6984 32.4097 89.9704 32.4577L90.3064 32.5177C90.7544 32.5977 91.1584 32.7057 91.5184 32.8417C91.8864 32.9697 92.1744 33.1577 92.3824 33.4057C92.5984 33.6457 92.7064 33.9737 92.7064 34.3897C92.7064 35.0137 92.4784 35.4977 92.0224 35.8417C91.5744 36.1777 90.9704 36.3457 90.2104 36.3457ZM13.1911 54.1777V47.7177H13.0411L11.6811 50.2077H10.8011L12.4711 47.1777H14.0011V54.1777H13.1911ZM15.3308 54.1777V53.4477C15.3308 52.9477 15.4174 52.5477 15.5908 52.2477C15.7708 51.9477 16.0174 51.7077 16.3308 51.5277C16.6508 51.3411 17.0308 51.1811 17.4708 51.0477L18.0208 50.8777C18.3208 50.7844 18.5841 50.6711 18.8108 50.5377C19.0374 50.3977 19.2141 50.2244 19.3408 50.0177C19.4674 49.8044 19.5308 49.5444 19.5308 49.2377V49.1977C19.5308 48.7577 19.3774 48.4111 19.0708 48.1577C18.7641 47.8977 18.3708 47.7677 17.8908 47.7677C17.3841 47.7677 16.9708 47.9044 16.6508 48.1777C16.3308 48.4444 16.1708 48.8511 16.1708 49.3977V49.5377H15.3708V49.4077C15.3708 48.9011 15.4808 48.4711 15.7008 48.1177C15.9208 47.7644 16.2208 47.4977 16.6008 47.3177C16.9808 47.1311 17.4108 47.0377 17.8908 47.0377C18.3708 47.0377 18.7941 47.1277 19.1608 47.3077C19.5341 47.4877 19.8241 47.7377 20.0308 48.0577C20.2374 48.3777 20.3408 48.7511 20.3408 49.1777V49.2677C20.3408 49.7211 20.2508 50.0977 20.0708 50.3977C19.8908 50.6911 19.6408 50.9311 19.3208 51.1177C19.0074 51.3044 18.6374 51.4644 18.2108 51.5977L17.6708 51.7677C17.3308 51.8744 17.0474 51.9877 16.8208 52.1077C16.6008 52.2211 16.4341 52.3677 16.3208 52.5477C16.2074 52.7277 16.1508 52.9711 16.1508 53.2777V53.4477H20.2808V54.1777H15.3308ZM24.2245 56.1777V49.2877H24.9945V50.0977H25.1345C25.2612 49.8511 25.4645 49.6311 25.7445 49.4377C26.0312 49.2444 26.4279 49.1477 26.9345 49.1477C27.3545 49.1477 27.7379 49.2511 28.0845 49.4577C28.4379 49.6577 28.7179 49.9444 28.9245 50.3177C29.1379 50.6911 29.2445 51.1411 29.2445 51.6677V51.7977C29.2445 52.3177 29.1412 52.7677 28.9345 53.1477C28.7279 53.5277 28.4479 53.8177 28.0945 54.0177C27.7479 54.2177 27.3612 54.3177 26.9345 54.3177C26.5945 54.3177 26.3045 54.2711 26.0645 54.1777C25.8312 54.0911 25.6412 53.9777 25.4945 53.8377C25.3479 53.6977 25.2345 53.5544 25.1545 53.4077H25.0145V56.1777H24.2245ZM26.7245 53.6177C27.2312 53.6177 27.6412 53.4577 27.9545 53.1377C28.2745 52.8111 28.4345 52.3577 28.4345 51.7777V51.6877C28.4345 51.1077 28.2745 50.6577 27.9545 50.3377C27.6412 50.0111 27.2312 49.8477 26.7245 49.8477C26.2245 49.8477 25.8112 50.0111 25.4845 50.3377C25.1645 50.6577 25.0045 51.1077 25.0045 51.6877V51.7777C25.0045 52.3577 25.1645 52.8111 25.4845 53.1377C25.8112 53.4577 26.2245 53.6177 26.7245 53.6177ZM32.9001 54.3177C32.4067 54.3177 31.9734 54.2144 31.6001 54.0077C31.2267 53.7944 30.9367 53.4977 30.7301 53.1177C30.5234 52.7377 30.4201 52.2977 30.4201 51.7977V51.6777C30.4201 51.1711 30.5234 50.7277 30.7301 50.3477C30.9367 49.9677 31.2234 49.6744 31.5901 49.4677C31.9567 49.2544 32.3767 49.1477 32.8501 49.1477C33.3101 49.1477 33.7167 49.2477 34.0701 49.4477C34.4234 49.6411 34.7001 49.9211 34.9001 50.2877C35.1001 50.6544 35.2001 51.0844 35.2001 51.5777V51.9377H31.2101C31.2301 52.4644 31.4001 52.8777 31.7201 53.1777C32.0401 53.4711 32.4401 53.6177 32.9201 53.6177C33.3401 53.6177 33.6634 53.5211 33.8901 53.3277C34.1167 53.1344 34.2901 52.9044 34.4101 52.6377L35.0901 52.9677C34.9901 53.1744 34.8501 53.3811 34.6701 53.5877C34.4967 53.7944 34.2667 53.9677 33.9801 54.1077C33.7001 54.2477 33.3401 54.3177 32.9001 54.3177ZM31.2201 51.2877H34.4001C34.3734 50.8344 34.2167 50.4811 33.9301 50.2277C33.6501 49.9744 33.2901 49.8477 32.8501 49.8477C32.4034 49.8477 32.0367 49.9744 31.7501 50.2277C31.4634 50.4811 31.2867 50.8344 31.2201 51.2877ZM38.838 54.3177C38.3447 54.3177 37.908 54.2144 37.528 54.0077C37.1547 53.8011 36.8614 53.5111 36.648 53.1377C36.4414 52.7577 36.338 52.3111 36.338 51.7977V51.6677C36.338 51.1611 36.4414 50.7177 36.648 50.3377C36.8614 49.9577 37.1547 49.6644 37.528 49.4577C37.908 49.2511 38.3447 49.1477 38.838 49.1477C39.3314 49.1477 39.7647 49.2511 40.138 49.4577C40.518 49.6644 40.8114 49.9577 41.018 50.3377C41.2314 50.7177 41.338 51.1611 41.338 51.6677V51.7977C41.338 52.3111 41.2314 52.7577 41.018 53.1377C40.8114 53.5111 40.518 53.8011 40.138 54.0077C39.7647 54.2144 39.3314 54.3177 38.838 54.3177ZM38.838 53.6077C39.358 53.6077 39.7714 53.4444 40.078 53.1177C40.3914 52.7844 40.548 52.3377 40.548 51.7777V51.6877C40.548 51.1277 40.3914 50.6844 40.078 50.3577C39.7714 50.0244 39.358 49.8577 38.838 49.8577C38.3247 49.8577 37.9114 50.0244 37.598 50.3577C37.2847 50.6844 37.128 51.1277 37.128 51.6877V51.7777C37.128 52.3377 37.2847 52.7844 37.598 53.1177C37.9114 53.4444 38.3247 53.6077 38.838 53.6077ZM42.7597 56.1777V49.2877H43.5297V50.0977H43.6697C43.7964 49.8511 43.9997 49.6311 44.2797 49.4377C44.5664 49.2444 44.963 49.1477 45.4697 49.1477C45.8897 49.1477 46.273 49.2511 46.6197 49.4577C46.973 49.6577 47.253 49.9444 47.4597 50.3177C47.673 50.6911 47.7797 51.1411 47.7797 51.6677V51.7977C47.7797 52.3177 47.6764 52.7677 47.4697 53.1477C47.263 53.5277 46.983 53.8177 46.6297 54.0177C46.283 54.2177 45.8964 54.3177 45.4697 54.3177C45.1297 54.3177 44.8397 54.2711 44.5997 54.1777C44.3664 54.0911 44.1764 53.9777 44.0297 53.8377C43.883 53.6977 43.7697 53.5544 43.6897 53.4077H43.5497V56.1777H42.7597ZM45.2597 53.6177C45.7664 53.6177 46.1764 53.4577 46.4897 53.1377C46.8097 52.8111 46.9697 52.3577 46.9697 51.7777V51.6877C46.9697 51.1077 46.8097 50.6577 46.4897 50.3377C46.1764 50.0111 45.7664 49.8477 45.2597 49.8477C44.7597 49.8477 44.3464 50.0111 44.0197 50.3377C43.6997 50.6577 43.5397 51.1077 43.5397 51.6877V51.7777C43.5397 52.3577 43.6997 52.8111 44.0197 53.1377C44.3464 53.4577 44.7597 53.6177 45.2597 53.6177ZM49.1952 54.1777V47.1777H49.9852V54.1777H49.1952ZM53.8864 54.3177C53.3931 54.3177 52.9597 54.2144 52.5864 54.0077C52.2131 53.7944 51.9231 53.4977 51.7164 53.1177C51.5097 52.7377 51.4064 52.2977 51.4064 51.7977V51.6777C51.4064 51.1711 51.5097 50.7277 51.7164 50.3477C51.9231 49.9677 52.2097 49.6744 52.5764 49.4677C52.9431 49.2544 53.3631 49.1477 53.8364 49.1477C54.2964 49.1477 54.7031 49.2477 55.0564 49.4477C55.4097 49.6411 55.6864 49.9211 55.8864 50.2877C56.0864 50.6544 56.1864 51.0844 56.1864 51.5777V51.9377H52.1964C52.2164 52.4644 52.3864 52.8777 52.7064 53.1777C53.0264 53.4711 53.4264 53.6177 53.9064 53.6177C54.3264 53.6177 54.6497 53.5211 54.8764 53.3277C55.1031 53.1344 55.2764 52.9044 55.3964 52.6377L56.0764 52.9677C55.9764 53.1744 55.8364 53.3811 55.6564 53.5877C55.4831 53.7944 55.2531 53.9677 54.9664 54.1077C54.6864 54.2477 54.3264 54.3177 53.8864 54.3177ZM52.2064 51.2877H55.3864C55.3597 50.8344 55.2031 50.4811 54.9164 50.2277C54.6364 49.9744 54.2764 49.8477 53.8364 49.8477C53.3897 49.8477 53.0231 49.9744 52.7364 50.2277C52.4497 50.4811 52.2731 50.8344 52.2064 51.2877Z" fill="black"/>
</svg>
