<svg width="326" height="244" viewBox="0 0 326 244" fill="none" xmlns="http://www.w3.org/2000/svg">
<path fill-rule="evenodd" clip-rule="evenodd" d="M244.371 0.177734H163.125V81.4277H244.371H244.375H325.621V0.177734H244.375H244.371Z" fill="#E4FD53"/>
<path d="M163.125 0.177734V-1.82227H161.125V0.177734H163.125ZM163.125 81.4277H161.125V83.4277H163.125V81.4277ZM325.621 81.4277V83.4277H327.621V81.4277H325.621ZM325.621 0.177734H327.621V-1.82227H325.621V0.177734ZM163.125 2.17773H244.371V-1.82227H163.125V2.17773ZM165.125 81.4277V0.177734H161.125V81.4277H165.125ZM244.371 79.4277H163.125V83.4277H244.371V79.4277ZM244.375 79.4277H244.371V83.4277H244.375V79.4277ZM325.621 79.4277H244.375V83.4277H325.621V79.4277ZM323.621 0.177734V81.4277H327.621V0.177734H323.621ZM244.375 2.17773H325.621V-1.82227H244.375V2.17773ZM244.371 2.17773H244.375V-1.82227H244.371V2.17773Z" fill="white"/>
<path fill-rule="evenodd" clip-rule="evenodd" d="M163.125 0.177734H81.8711H71.125H0.621094V81.4277V162.678V243.928H81.8711H163.121H244.371H325.621V162.678V81.4277H244.371H163.125V0.177734Z" fill="#D7FB03"/>
<path d="M163.125 0.177734H165.125V-1.82227H163.125V0.177734ZM0.621094 0.177734V-1.82227H-1.37891V0.177734H0.621094ZM0.621094 243.928H-1.37891V245.928H0.621094V243.928ZM325.621 243.928V245.928H327.621V243.928H325.621ZM325.621 81.4277H327.621V79.4277H325.621V81.4277ZM163.125 81.4277H161.125V83.4277H163.125V81.4277ZM81.8711 2.17773H163.125V-1.82227H81.8711V2.17773ZM71.125 2.17773H81.8711V-1.82227H71.125V2.17773ZM0.621094 2.17773H71.125V-1.82227H0.621094V2.17773ZM2.62109 81.4277V0.177734H-1.37891V81.4277H2.62109ZM2.62109 162.678V81.4277H-1.37891V162.678H2.62109ZM2.62109 243.928V162.678H-1.37891V243.928H2.62109ZM81.8711 241.928H0.621094V245.928H81.8711V241.928ZM163.121 241.928H81.8711V245.928H163.121V241.928ZM244.371 241.928H163.121V245.928H244.371V241.928ZM325.621 241.928H244.371V245.928H325.621V241.928ZM323.621 162.678V243.928H327.621V162.678H323.621ZM323.621 81.4277V162.678H327.621V81.4277H323.621ZM244.371 83.4277H325.621V79.4277H244.371V83.4277ZM163.125 83.4277H244.371V79.4277H163.125V83.4277ZM161.125 0.177734V81.4277H165.125V0.177734H161.125Z" fill="white"/>
<path d="M11.4131 20.1777V11.7777H12.9971V20.1777H11.4131ZM14.6252 20.1777V14.2257H16.1132V14.8737H16.3292C16.4332 14.6737 16.6052 14.5017 16.8452 14.3577C17.0852 14.2057 17.4012 14.1297 17.7932 14.1297C18.2172 14.1297 18.5572 14.2137 18.8132 14.3817C19.0692 14.5417 19.2652 14.7537 19.4012 15.0177H19.6172C19.7532 14.7617 19.9452 14.5497 20.1932 14.3817C20.4412 14.2137 20.7932 14.1297 21.2492 14.1297C21.6172 14.1297 21.9492 14.2097 22.2452 14.3697C22.5492 14.5217 22.7892 14.7577 22.9652 15.0777C23.1492 15.3897 23.2412 15.7857 23.2412 16.2657V20.1777H21.7292V16.3737C21.7292 16.0457 21.6452 15.8017 21.4772 15.6417C21.3092 15.4737 21.0732 15.3897 20.7692 15.3897C20.4252 15.3897 20.1572 15.5017 19.9652 15.7257C19.7812 15.9417 19.6892 16.2537 19.6892 16.6617V20.1777H18.1772V16.3737C18.1772 16.0457 18.0932 15.8017 17.9252 15.6417C17.7572 15.4737 17.5212 15.3897 17.2172 15.3897C16.8732 15.3897 16.6052 15.5017 16.4132 15.7257C16.2292 15.9417 16.1372 16.2537 16.1372 16.6617V20.1777H14.6252ZM24.8673 22.5777V14.2257H26.3553V14.9457H26.5713C26.7073 14.7137 26.9193 14.5097 27.2073 14.3337C27.4953 14.1497 27.9073 14.0577 28.4433 14.0577C28.9233 14.0577 29.3673 14.1777 29.7753 14.4177C30.1833 14.6497 30.5113 14.9937 30.7593 15.4497C31.0073 15.9057 31.1313 16.4577 31.1313 17.1057V17.2977C31.1313 17.9457 31.0073 18.4977 30.7593 18.9537C30.5113 19.4097 30.1833 19.7577 29.7753 19.9977C29.3673 20.2297 28.9233 20.3457 28.4433 20.3457C28.0833 20.3457 27.7793 20.3017 27.5313 20.2137C27.2913 20.1337 27.0953 20.0297 26.9433 19.9017C26.7993 19.7657 26.6833 19.6297 26.5953 19.4937H26.3793V22.5777H24.8673ZM27.9873 19.0257C28.4593 19.0257 28.8473 18.8777 29.1513 18.5817C29.4633 18.2777 29.6193 17.8377 29.6193 17.2617V17.1417C29.6193 16.5657 29.4633 16.1297 29.1513 15.8337C28.8393 15.5297 28.4513 15.3777 27.9873 15.3777C27.5233 15.3777 27.1353 15.5297 26.8233 15.8337C26.5113 16.1297 26.3553 16.5657 26.3553 17.1417V17.2617C26.3553 17.8377 26.5113 18.2777 26.8233 18.5817C27.1353 18.8777 27.5233 19.0257 27.9873 19.0257ZM34.3677 20.3457C33.9437 20.3457 33.5637 20.2737 33.2277 20.1297C32.8917 19.9777 32.6237 19.7617 32.4237 19.4817C32.2317 19.1937 32.1357 18.8457 32.1357 18.4377C32.1357 18.0297 32.2317 17.6897 32.4237 17.4177C32.6237 17.1377 32.8957 16.9297 33.2397 16.7937C33.5917 16.6497 33.9917 16.5777 34.4397 16.5777H36.0717V16.2417C36.0717 15.9617 35.9837 15.7337 35.8077 15.5577C35.6317 15.3737 35.3517 15.2817 34.9677 15.2817C34.5917 15.2817 34.3117 15.3697 34.1277 15.5457C33.9437 15.7137 33.8237 15.9337 33.7677 16.2057L32.3757 15.7377C32.4717 15.4337 32.6237 15.1577 32.8317 14.9097C33.0477 14.6537 33.3317 14.4497 33.6837 14.2977C34.0437 14.1377 34.4797 14.0577 34.9917 14.0577C35.7757 14.0577 36.3957 14.2537 36.8517 14.6457C37.3077 15.0377 37.5357 15.6057 37.5357 16.3497V18.5697C37.5357 18.8097 37.6477 18.9297 37.8717 18.9297H38.3517V20.1777H37.3437C37.0477 20.1777 36.8037 20.1057 36.6117 19.9617C36.4197 19.8177 36.3237 19.6257 36.3237 19.3857V19.3737H36.0957C36.0637 19.4697 35.9917 19.5977 35.8797 19.7577C35.7677 19.9097 35.5917 20.0457 35.3517 20.1657C35.1117 20.2857 34.7837 20.3457 34.3677 20.3457ZM34.6317 19.1217C35.0557 19.1217 35.3997 19.0057 35.6637 18.7737C35.9357 18.5337 36.0717 18.2177 36.0717 17.8257V17.7057H34.5477C34.2677 17.7057 34.0477 17.7657 33.8877 17.8857C33.7277 18.0057 33.6477 18.1737 33.6477 18.3897C33.6477 18.6057 33.7317 18.7817 33.8997 18.9177C34.0677 19.0537 34.3117 19.1217 34.6317 19.1217ZM42.136 20.3457C41.56 20.3457 41.036 20.2257 40.564 19.9857C40.1 19.7457 39.732 19.3977 39.46 18.9417C39.188 18.4857 39.052 17.9337 39.052 17.2857V17.1177C39.052 16.4697 39.188 15.9177 39.46 15.4617C39.732 15.0057 40.1 14.6577 40.564 14.4177C41.036 14.1777 41.56 14.0577 42.136 14.0577C42.704 14.0577 43.192 14.1577 43.6 14.3577C44.008 14.5577 44.336 14.8337 44.584 15.1857C44.84 15.5297 45.008 15.9217 45.088 16.3617L43.624 16.6737C43.592 16.4337 43.52 16.2177 43.408 16.0257C43.296 15.8337 43.136 15.6817 42.928 15.5697C42.728 15.4577 42.476 15.4017 42.172 15.4017C41.868 15.4017 41.592 15.4697 41.344 15.6057C41.104 15.7337 40.912 15.9297 40.768 16.1937C40.632 16.4497 40.564 16.7657 40.564 17.1417V17.2617C40.564 17.6377 40.632 17.9577 40.768 18.2217C40.912 18.4777 41.104 18.6737 41.344 18.8097C41.592 18.9377 41.868 19.0017 42.172 19.0017C42.628 19.0017 42.972 18.8857 43.204 18.6537C43.444 18.4137 43.596 18.1017 43.66 17.7177L45.124 18.0657C45.02 18.4897 44.84 18.8777 44.584 19.2297C44.336 19.5737 44.008 19.8457 43.6 20.0457C43.192 20.2457 42.704 20.3457 42.136 20.3457ZM48.452 20.1777C48.06 20.1777 47.74 20.0577 47.492 19.8177C47.252 19.5697 47.132 19.2417 47.132 18.8337V15.4737H45.644V14.2257H47.132V12.3777H48.644V14.2257H50.276V15.4737H48.644V18.5697C48.644 18.8097 48.756 18.9297 48.98 18.9297H50.132V20.1777H48.452ZM12.9731 36.1777L10.8371 27.7777H12.4691L14.2451 35.1577H14.4131L16.1891 27.7777H17.8211L15.6851 36.1777H12.9731ZM21.2278 36.3457C20.6358 36.3457 20.1118 36.2217 19.6558 35.9737C19.2078 35.7177 18.8558 35.3617 18.5998 34.9057C18.3518 34.4417 18.2278 33.8977 18.2278 33.2737V33.1297C18.2278 32.5057 18.3518 31.9657 18.5998 31.5097C18.8478 31.0457 19.1958 30.6897 19.6438 30.4417C20.0918 30.1857 20.6118 30.0577 21.2038 30.0577C21.7878 30.0577 22.2958 30.1897 22.7278 30.4537C23.1598 30.7097 23.4958 31.0697 23.7358 31.5337C23.9758 31.9897 24.0958 32.5217 24.0958 33.1297V33.6457H19.7638C19.7798 34.0537 19.9318 34.3857 20.2198 34.6417C20.5078 34.8977 20.8598 35.0257 21.2758 35.0257C21.6998 35.0257 22.0118 34.9337 22.2118 34.7497C22.4118 34.5657 22.5638 34.3617 22.6678 34.1377L23.9038 34.7857C23.7918 34.9937 23.6278 35.2217 23.4118 35.4697C23.2038 35.7097 22.9238 35.9177 22.5718 36.0937C22.2198 36.2617 21.7718 36.3457 21.2278 36.3457ZM19.7758 32.5177H22.5598C22.5278 32.1737 22.3878 31.8977 22.1398 31.6897C21.8998 31.4817 21.5838 31.3777 21.1918 31.3777C20.7838 31.3777 20.4598 31.4817 20.2198 31.6897C19.9798 31.8977 19.8318 32.1737 19.7758 32.5177ZM25.4416 36.1777V30.2257H26.9296V31.0057H27.1456C27.2416 30.7977 27.4216 30.6017 27.6856 30.4177C27.9496 30.2257 28.3496 30.1297 28.8856 30.1297C29.3496 30.1297 29.7536 30.2377 30.0976 30.4537C30.4496 30.6617 30.7216 30.9537 30.9136 31.3297C31.1056 31.6977 31.2016 32.1297 31.2016 32.6257V36.1777H29.6896V32.7457C29.6896 32.2977 29.5776 31.9617 29.3536 31.7377C29.1376 31.5137 28.8256 31.4017 28.4176 31.4017C27.9536 31.4017 27.5936 31.5577 27.3376 31.8697C27.0816 32.1737 26.9536 32.6017 26.9536 33.1537V36.1777H25.4416ZM34.952 36.1777C34.56 36.1777 34.24 36.0577 33.992 35.8177C33.752 35.5697 33.632 35.2417 33.632 34.8337V31.4737H32.144V30.2257H33.632V28.3777H35.144V30.2257H36.776V31.4737H35.144V34.5697C35.144 34.8097 35.256 34.9297 35.48 34.9297H36.632V36.1777H34.952ZM40.4127 36.2737C39.9487 36.2737 39.5407 36.1697 39.1887 35.9617C38.8447 35.7457 38.5767 35.4497 38.3847 35.0737C38.1927 34.6977 38.0967 34.2657 38.0967 33.7777V30.2257H39.6087V33.6577C39.6087 34.1057 39.7167 34.4417 39.9327 34.6657C40.1567 34.8897 40.4727 35.0017 40.8807 35.0017C41.3447 35.0017 41.7047 34.8497 41.9607 34.5457C42.2167 34.2337 42.3447 33.8017 42.3447 33.2497V30.2257H43.8567V36.1777H42.3687V35.3977H42.1527C42.0567 35.5977 41.8767 35.7937 41.6127 35.9857C41.3487 36.1777 40.9487 36.2737 40.4127 36.2737ZM45.5392 36.1777V30.2257H47.0272V30.8977H47.2432C47.3312 30.6577 47.4752 30.4817 47.6752 30.3697C47.8832 30.2577 48.1232 30.2017 48.3952 30.2017H49.1152V31.5457H48.3712C47.9872 31.5457 47.6712 31.6497 47.4232 31.8577C47.1752 32.0577 47.0512 32.3697 47.0512 32.7937V36.1777H45.5392ZM52.7981 36.3457C52.2061 36.3457 51.6821 36.2217 51.2261 35.9737C50.7781 35.7177 50.4261 35.3617 50.1701 34.9057C49.9221 34.4417 49.7981 33.8977 49.7981 33.2737V33.1297C49.7981 32.5057 49.9221 31.9657 50.1701 31.5097C50.4181 31.0457 50.7661 30.6897 51.2141 30.4417C51.6621 30.1857 52.1821 30.0577 52.7741 30.0577C53.3581 30.0577 53.8661 30.1897 54.2981 30.4537C54.7301 30.7097 55.0661 31.0697 55.3061 31.5337C55.5461 31.9897 55.6661 32.5217 55.6661 33.1297V33.6457H51.3341C51.3501 34.0537 51.5021 34.3857 51.7901 34.6417C52.0781 34.8977 52.4301 35.0257 52.8461 35.0257C53.2701 35.0257 53.5821 34.9337 53.7821 34.7497C53.9821 34.5657 54.1341 34.3617 54.2381 34.1377L55.4741 34.7857C55.3621 34.9937 55.1981 35.2217 54.9821 35.4697C54.7741 35.7097 54.4941 35.9177 54.1421 36.0937C53.7901 36.2617 53.3421 36.3457 52.7981 36.3457ZM51.3461 32.5177H54.1301C54.0981 32.1737 53.9581 31.8977 53.7101 31.6897C53.4701 31.4817 53.1541 31.3777 52.7621 31.3777C52.3541 31.3777 52.0301 31.4817 51.7901 31.6897C51.5501 31.8977 51.4021 32.1737 51.3461 32.5177ZM13.1911 54.1777V47.7177H13.0411L11.6811 50.2077H10.8011L12.4711 47.1777H14.0011V54.1777H13.1911ZM18.0008 54.3177C17.2074 54.3177 16.5741 54.0844 16.1008 53.6177C15.6341 53.1444 15.4008 52.4377 15.4008 51.4977V49.8577C15.4008 48.9244 15.6341 48.2211 16.1008 47.7477C16.5741 47.2744 17.2074 47.0377 18.0008 47.0377C18.8008 47.0377 19.4341 47.2744 19.9008 47.7477C20.3741 48.2211 20.6108 48.9244 20.6108 49.8577V51.4977C20.6108 52.4377 20.3741 53.1444 19.9008 53.6177C19.4341 54.0844 18.8008 54.3177 18.0008 54.3177ZM18.0008 53.5877C18.6008 53.5877 19.0508 53.4077 19.3508 53.0477C19.6508 52.6877 19.8008 52.1844 19.8008 51.5377V49.8077C19.8008 49.1611 19.6474 48.6611 19.3408 48.3077C19.0341 47.9477 18.5874 47.7677 18.0008 47.7677C17.4141 47.7677 16.9674 47.9477 16.6608 48.3077C16.3608 48.6677 16.2108 49.1677 16.2108 49.8077V51.5377C16.2108 52.1911 16.3608 52.6977 16.6608 53.0577C16.9608 53.4111 17.4074 53.5877 18.0008 53.5877ZM24.6054 56.1777V49.2877H25.3754V50.0977H25.5154C25.6421 49.8511 25.8454 49.6311 26.1254 49.4377C26.4121 49.2444 26.8087 49.1477 27.3154 49.1477C27.7354 49.1477 28.1187 49.2511 28.4654 49.4577C28.8187 49.6577 29.0987 49.9444 29.3054 50.3177C29.5187 50.6911 29.6254 51.1411 29.6254 51.6677V51.7977C29.6254 52.3177 29.5221 52.7677 29.3154 53.1477C29.1087 53.5277 28.8287 53.8177 28.4754 54.0177C28.1287 54.2177 27.7421 54.3177 27.3154 54.3177C26.9754 54.3177 26.6854 54.2711 26.4454 54.1777C26.2121 54.0911 26.0221 53.9777 25.8754 53.8377C25.7287 53.6977 25.6154 53.5544 25.5354 53.4077H25.3954V56.1777H24.6054ZM27.1054 53.6177C27.6121 53.6177 28.0221 53.4577 28.3354 53.1377C28.6554 52.8111 28.8154 52.3577 28.8154 51.7777V51.6877C28.8154 51.1077 28.6554 50.6577 28.3354 50.3377C28.0221 50.0111 27.6121 49.8477 27.1054 49.8477C26.6054 49.8477 26.1921 50.0111 25.8654 50.3377C25.5454 50.6577 25.3854 51.1077 25.3854 51.6877V51.7777C25.3854 52.3577 25.5454 52.8111 25.8654 53.1377C26.1921 53.4577 26.6054 53.6177 27.1054 53.6177ZM33.2809 54.3177C32.7876 54.3177 32.3543 54.2144 31.9809 54.0077C31.6076 53.7944 31.3176 53.4977 31.1109 53.1177C30.9043 52.7377 30.8009 52.2977 30.8009 51.7977V51.6777C30.8009 51.1711 30.9043 50.7277 31.1109 50.3477C31.3176 49.9677 31.6043 49.6744 31.9709 49.4677C32.3376 49.2544 32.7576 49.1477 33.2309 49.1477C33.6909 49.1477 34.0976 49.2477 34.4509 49.4477C34.8043 49.6411 35.0809 49.9211 35.2809 50.2877C35.4809 50.6544 35.5809 51.0844 35.5809 51.5777V51.9377H31.5909C31.6109 52.4644 31.7809 52.8777 32.1009 53.1777C32.4209 53.4711 32.8209 53.6177 33.3009 53.6177C33.7209 53.6177 34.0443 53.5211 34.2709 53.3277C34.4976 53.1344 34.6709 52.9044 34.7909 52.6377L35.4709 52.9677C35.3709 53.1744 35.2309 53.3811 35.0509 53.5877C34.8776 53.7944 34.6476 53.9677 34.3609 54.1077C34.0809 54.2477 33.7209 54.3177 33.2809 54.3177ZM31.6009 51.2877H34.7809C34.7543 50.8344 34.5976 50.4811 34.3109 50.2277C34.0309 49.9744 33.6709 49.8477 33.2309 49.8477C32.7843 49.8477 32.4176 49.9744 32.1309 50.2277C31.8443 50.4811 31.6676 50.8344 31.6009 51.2877ZM39.2189 54.3177C38.7256 54.3177 38.2889 54.2144 37.9089 54.0077C37.5356 53.8011 37.2422 53.5111 37.0289 53.1377C36.8222 52.7577 36.7189 52.3111 36.7189 51.7977V51.6677C36.7189 51.1611 36.8222 50.7177 37.0289 50.3377C37.2422 49.9577 37.5356 49.6644 37.9089 49.4577C38.2889 49.2511 38.7256 49.1477 39.2189 49.1477C39.7122 49.1477 40.1456 49.2511 40.5189 49.4577C40.8989 49.6644 41.1922 49.9577 41.3989 50.3377C41.6122 50.7177 41.7189 51.1611 41.7189 51.6677V51.7977C41.7189 52.3111 41.6122 52.7577 41.3989 53.1377C41.1922 53.5111 40.8989 53.8011 40.5189 54.0077C40.1456 54.2144 39.7122 54.3177 39.2189 54.3177ZM39.2189 53.6077C39.7389 53.6077 40.1522 53.4444 40.4589 53.1177C40.7722 52.7844 40.9289 52.3377 40.9289 51.7777V51.6877C40.9289 51.1277 40.7722 50.6844 40.4589 50.3577C40.1522 50.0244 39.7389 49.8577 39.2189 49.8577C38.7056 49.8577 38.2922 50.0244 37.9789 50.3577C37.6656 50.6844 37.5089 51.1277 37.5089 51.6877V51.7777C37.5089 52.3377 37.6656 52.7844 37.9789 53.1177C38.2922 53.4444 38.7056 53.6077 39.2189 53.6077ZM43.1405 56.1777V49.2877H43.9105V50.0977H44.0505C44.1772 49.8511 44.3805 49.6311 44.6605 49.4377C44.9472 49.2444 45.3439 49.1477 45.8505 49.1477C46.2705 49.1477 46.6539 49.2511 47.0005 49.4577C47.3539 49.6577 47.6339 49.9444 47.8405 50.3177C48.0539 50.6911 48.1605 51.1411 48.1605 51.6677V51.7977C48.1605 52.3177 48.0572 52.7677 47.8505 53.1477C47.6439 53.5277 47.3639 53.8177 47.0105 54.0177C46.6639 54.2177 46.2772 54.3177 45.8505 54.3177C45.5105 54.3177 45.2205 54.2711 44.9805 54.1777C44.7472 54.0911 44.5572 53.9777 44.4105 53.8377C44.2639 53.6977 44.1505 53.5544 44.0705 53.4077H43.9305V56.1777H43.1405ZM45.6405 53.6177C46.1472 53.6177 46.5572 53.4577 46.8705 53.1377C47.1905 52.8111 47.3505 52.3577 47.3505 51.7777V51.6877C47.3505 51.1077 47.1905 50.6577 46.8705 50.3377C46.5572 50.0111 46.1472 49.8477 45.6405 49.8477C45.1405 49.8477 44.7272 50.0111 44.4005 50.3377C44.0805 50.6577 43.9205 51.1077 43.9205 51.6877V51.7777C43.9205 52.3577 44.0805 52.8111 44.4005 53.1377C44.7272 53.4577 45.1405 53.6177 45.6405 53.6177ZM49.5761 54.1777V47.1777H50.3661V54.1777H49.5761ZM54.2673 54.3177C53.7739 54.3177 53.3406 54.2144 52.9673 54.0077C52.5939 53.7944 52.3039 53.4977 52.0973 53.1177C51.8906 52.7377 51.7873 52.2977 51.7873 51.7977V51.6777C51.7873 51.1711 51.8906 50.7277 52.0973 50.3477C52.3039 49.9677 52.5906 49.6744 52.9573 49.4677C53.3239 49.2544 53.7439 49.1477 54.2173 49.1477C54.6773 49.1477 55.0839 49.2477 55.4373 49.4477C55.7906 49.6411 56.0673 49.9211 56.2673 50.2877C56.4673 50.6544 56.5673 51.0844 56.5673 51.5777V51.9377H52.5773C52.5973 52.4644 52.7673 52.8777 53.0873 53.1777C53.4073 53.4711 53.8073 53.6177 54.2873 53.6177C54.7073 53.6177 55.0306 53.5211 55.2573 53.3277C55.4839 53.1344 55.6573 52.9044 55.7773 52.6377L56.4573 52.9677C56.3573 53.1744 56.2173 53.3811 56.0373 53.5877C55.8639 53.7944 55.6339 53.9677 55.3473 54.1077C55.0673 54.2477 54.7073 54.3177 54.2673 54.3177ZM52.5873 51.2877H55.7673C55.7406 50.8344 55.5839 50.4811 55.2973 50.2277C55.0173 49.9744 54.6573 49.8477 54.2173 49.8477C53.7706 49.8477 53.4039 49.9744 53.1173 50.2277C52.8306 50.4811 52.6539 50.8344 52.5873 51.2877Z" fill="black"/>
<path d="M173.913 20.1777V11.7777H176.925L178.593 19.0977H178.809V11.7777H180.369V20.1777H177.357L175.689 12.8577H175.473V20.1777H173.913ZM184.832 20.3457C184.24 20.3457 183.708 20.2257 183.236 19.9857C182.764 19.7457 182.392 19.3977 182.12 18.9417C181.848 18.4857 181.712 17.9377 181.712 17.2977V17.1057C181.712 16.4657 181.848 15.9177 182.12 15.4617C182.392 15.0057 182.764 14.6577 183.236 14.4177C183.708 14.1777 184.24 14.0577 184.832 14.0577C185.424 14.0577 185.956 14.1777 186.428 14.4177C186.9 14.6577 187.272 15.0057 187.544 15.4617C187.816 15.9177 187.952 16.4657 187.952 17.1057V17.2977C187.952 17.9377 187.816 18.4857 187.544 18.9417C187.272 19.3977 186.9 19.7457 186.428 19.9857C185.956 20.2257 185.424 20.3457 184.832 20.3457ZM184.832 19.0017C185.296 19.0017 185.68 18.8537 185.984 18.5577C186.288 18.2537 186.44 17.8217 186.44 17.2617V17.1417C186.44 16.5817 186.288 16.1537 185.984 15.8577C185.688 15.5537 185.304 15.4017 184.832 15.4017C184.368 15.4017 183.984 15.5537 183.68 15.8577C183.376 16.1537 183.224 16.5817 183.224 17.1417V17.2617C183.224 17.8217 183.376 18.2537 183.68 18.5577C183.984 18.8537 184.368 19.0017 184.832 19.0017ZM191.429 20.1777C191.037 20.1777 190.717 20.0577 190.469 19.8177C190.229 19.5697 190.109 19.2417 190.109 18.8337V15.4737H188.621V14.2257H190.109V12.3777H191.621V14.2257H193.253V15.4737H191.621V18.5697C191.621 18.8097 191.733 18.9297 191.957 18.9297H193.109V20.1777H191.429ZM197.62 20.1777V11.7777H199.204V20.1777H197.62ZM200.832 20.1777V14.2257H202.32V14.8737H202.536C202.64 14.6737 202.812 14.5017 203.052 14.3577C203.292 14.2057 203.608 14.1297 204 14.1297C204.424 14.1297 204.764 14.2137 205.02 14.3817C205.276 14.5417 205.472 14.7537 205.608 15.0177H205.824C205.96 14.7617 206.152 14.5497 206.4 14.3817C206.648 14.2137 207 14.1297 207.456 14.1297C207.824 14.1297 208.156 14.2097 208.452 14.3697C208.756 14.5217 208.996 14.7577 209.172 15.0777C209.356 15.3897 209.448 15.7857 209.448 16.2657V20.1777H207.936V16.3737C207.936 16.0457 207.852 15.8017 207.684 15.6417C207.516 15.4737 207.28 15.3897 206.976 15.3897C206.632 15.3897 206.364 15.5017 206.172 15.7257C205.988 15.9417 205.896 16.2537 205.896 16.6617V20.1777H204.384V16.3737C204.384 16.0457 204.3 15.8017 204.132 15.6417C203.964 15.4737 203.728 15.3897 203.424 15.3897C203.08 15.3897 202.812 15.5017 202.62 15.7257C202.436 15.9417 202.344 16.2537 202.344 16.6617V20.1777H200.832ZM211.074 22.5777V14.2257H212.562V14.9457H212.778C212.914 14.7137 213.126 14.5097 213.414 14.3337C213.702 14.1497 214.114 14.0577 214.65 14.0577C215.13 14.0577 215.574 14.1777 215.982 14.4177C216.39 14.6497 216.718 14.9937 216.966 15.4497C217.214 15.9057 217.338 16.4577 217.338 17.1057V17.2977C217.338 17.9457 217.214 18.4977 216.966 18.9537C216.718 19.4097 216.39 19.7577 215.982 19.9977C215.574 20.2297 215.13 20.3457 214.65 20.3457C214.29 20.3457 213.986 20.3017 213.738 20.2137C213.498 20.1337 213.302 20.0297 213.15 19.9017C213.006 19.7657 212.89 19.6297 212.802 19.4937H212.586V22.5777H211.074ZM214.194 19.0257C214.666 19.0257 215.054 18.8777 215.358 18.5817C215.67 18.2777 215.826 17.8377 215.826 17.2617V17.1417C215.826 16.5657 215.67 16.1297 215.358 15.8337C215.046 15.5297 214.658 15.3777 214.194 15.3777C213.73 15.3777 213.342 15.5297 213.03 15.8337C212.718 16.1297 212.562 16.5657 212.562 17.1417V17.2617C212.562 17.8377 212.718 18.2777 213.03 18.5817C213.342 18.8777 213.73 19.0257 214.194 19.0257ZM220.575 20.3457C220.151 20.3457 219.771 20.2737 219.435 20.1297C219.099 19.9777 218.831 19.7617 218.631 19.4817C218.439 19.1937 218.343 18.8457 218.343 18.4377C218.343 18.0297 218.439 17.6897 218.631 17.4177C218.831 17.1377 219.103 16.9297 219.447 16.7937C219.799 16.6497 220.199 16.5777 220.647 16.5777H222.279V16.2417C222.279 15.9617 222.191 15.7337 222.015 15.5577C221.839 15.3737 221.559 15.2817 221.175 15.2817C220.799 15.2817 220.519 15.3697 220.335 15.5457C220.151 15.7137 220.031 15.9337 219.975 16.2057L218.583 15.7377C218.679 15.4337 218.831 15.1577 219.039 14.9097C219.255 14.6537 219.539 14.4497 219.891 14.2977C220.251 14.1377 220.687 14.0577 221.199 14.0577C221.983 14.0577 222.603 14.2537 223.059 14.6457C223.515 15.0377 223.743 15.6057 223.743 16.3497V18.5697C223.743 18.8097 223.855 18.9297 224.079 18.9297H224.559V20.1777H223.551C223.255 20.1777 223.011 20.1057 222.819 19.9617C222.627 19.8177 222.531 19.6257 222.531 19.3857V19.3737H222.303C222.271 19.4697 222.199 19.5977 222.087 19.7577C221.975 19.9097 221.799 20.0457 221.559 20.1657C221.319 20.2857 220.991 20.3457 220.575 20.3457ZM220.839 19.1217C221.263 19.1217 221.607 19.0057 221.871 18.7737C222.143 18.5337 222.279 18.2177 222.279 17.8257V17.7057H220.755C220.475 17.7057 220.255 17.7657 220.095 17.8857C219.935 18.0057 219.855 18.1737 219.855 18.3897C219.855 18.6057 219.939 18.7817 220.107 18.9177C220.275 19.0537 220.519 19.1217 220.839 19.1217ZM228.343 20.3457C227.767 20.3457 227.243 20.2257 226.771 19.9857C226.307 19.7457 225.939 19.3977 225.667 18.9417C225.395 18.4857 225.259 17.9337 225.259 17.2857V17.1177C225.259 16.4697 225.395 15.9177 225.667 15.4617C225.939 15.0057 226.307 14.6577 226.771 14.4177C227.243 14.1777 227.767 14.0577 228.343 14.0577C228.911 14.0577 229.399 14.1577 229.807 14.3577C230.215 14.5577 230.543 14.8337 230.791 15.1857C231.047 15.5297 231.215 15.9217 231.295 16.3617L229.831 16.6737C229.799 16.4337 229.727 16.2177 229.615 16.0257C229.503 15.8337 229.343 15.6817 229.135 15.5697C228.935 15.4577 228.683 15.4017 228.379 15.4017C228.075 15.4017 227.799 15.4697 227.551 15.6057C227.311 15.7337 227.119 15.9297 226.975 16.1937C226.839 16.4497 226.771 16.7657 226.771 17.1417V17.2617C226.771 17.6377 226.839 17.9577 226.975 18.2217C227.119 18.4777 227.311 18.6737 227.551 18.8097C227.799 18.9377 228.075 19.0017 228.379 19.0017C228.835 19.0017 229.179 18.8857 229.411 18.6537C229.651 18.4137 229.803 18.1017 229.867 17.7177L231.331 18.0657C231.227 18.4897 231.047 18.8777 230.791 19.2297C230.543 19.5737 230.215 19.8457 229.807 20.0457C229.399 20.2457 228.911 20.3457 228.343 20.3457ZM234.659 20.1777C234.267 20.1777 233.947 20.0577 233.699 19.8177C233.459 19.5697 233.339 19.2417 233.339 18.8337V15.4737H231.851V14.2257H233.339V12.3777H234.851V14.2257H236.483V15.4737H234.851V18.5697C234.851 18.8097 234.963 18.9297 235.187 18.9297H236.339V20.1777H234.659ZM175.473 36.1777L173.337 27.7777H174.969L176.745 35.1577H176.913L178.689 27.7777H180.321L178.185 36.1777H175.473ZM183.728 36.3457C183.136 36.3457 182.612 36.2217 182.156 35.9737C181.708 35.7177 181.356 35.3617 181.1 34.9057C180.852 34.4417 180.728 33.8977 180.728 33.2737V33.1297C180.728 32.5057 180.852 31.9657 181.1 31.5097C181.348 31.0457 181.696 30.6897 182.144 30.4417C182.592 30.1857 183.112 30.0577 183.704 30.0577C184.288 30.0577 184.796 30.1897 185.228 30.4537C185.66 30.7097 185.996 31.0697 186.236 31.5337C186.476 31.9897 186.596 32.5217 186.596 33.1297V33.6457H182.264C182.28 34.0537 182.432 34.3857 182.72 34.6417C183.008 34.8977 183.36 35.0257 183.776 35.0257C184.2 35.0257 184.512 34.9337 184.712 34.7497C184.912 34.5657 185.064 34.3617 185.168 34.1377L186.404 34.7857C186.292 34.9937 186.128 35.2217 185.912 35.4697C185.704 35.7097 185.424 35.9177 185.072 36.0937C184.72 36.2617 184.272 36.3457 183.728 36.3457ZM182.276 32.5177H185.06C185.028 32.1737 184.888 31.8977 184.64 31.6897C184.4 31.4817 184.084 31.3777 183.692 31.3777C183.284 31.3777 182.96 31.4817 182.72 31.6897C182.48 31.8977 182.332 32.1737 182.276 32.5177ZM187.942 36.1777V30.2257H189.43V31.0057H189.646C189.742 30.7977 189.922 30.6017 190.186 30.4177C190.45 30.2257 190.85 30.1297 191.386 30.1297C191.85 30.1297 192.254 30.2377 192.598 30.4537C192.95 30.6617 193.222 30.9537 193.414 31.3297C193.606 31.6977 193.702 32.1297 193.702 32.6257V36.1777H192.19V32.7457C192.19 32.2977 192.078 31.9617 191.854 31.7377C191.638 31.5137 191.326 31.4017 190.918 31.4017C190.454 31.4017 190.094 31.5577 189.838 31.8697C189.582 32.1737 189.454 32.6017 189.454 33.1537V36.1777H187.942ZM197.452 36.1777C197.06 36.1777 196.74 36.0577 196.492 35.8177C196.252 35.5697 196.132 35.2417 196.132 34.8337V31.4737H194.644V30.2257H196.132V28.3777H197.644V30.2257H199.276V31.4737H197.644V34.5697C197.644 34.8097 197.756 34.9297 197.98 34.9297H199.132V36.1777H197.452ZM202.913 36.2737C202.449 36.2737 202.041 36.1697 201.689 35.9617C201.345 35.7457 201.077 35.4497 200.885 35.0737C200.693 34.6977 200.597 34.2657 200.597 33.7777V30.2257H202.109V33.6577C202.109 34.1057 202.217 34.4417 202.433 34.6657C202.657 34.8897 202.973 35.0017 203.381 35.0017C203.845 35.0017 204.205 34.8497 204.461 34.5457C204.717 34.2337 204.845 33.8017 204.845 33.2497V30.2257H206.357V36.1777H204.869V35.3977H204.653C204.557 35.5977 204.377 35.7937 204.113 35.9857C203.849 36.1777 203.449 36.2737 202.913 36.2737ZM208.039 36.1777V30.2257H209.527V30.8977H209.743C209.831 30.6577 209.975 30.4817 210.175 30.3697C210.383 30.2577 210.623 30.2017 210.895 30.2017H211.615V31.5457H210.871C210.487 31.5457 210.171 31.6497 209.923 31.8577C209.675 32.0577 209.551 32.3697 209.551 32.7937V36.1777H208.039ZM215.298 36.3457C214.706 36.3457 214.182 36.2217 213.726 35.9737C213.278 35.7177 212.926 35.3617 212.67 34.9057C212.422 34.4417 212.298 33.8977 212.298 33.2737V33.1297C212.298 32.5057 212.422 31.9657 212.67 31.5097C212.918 31.0457 213.266 30.6897 213.714 30.4417C214.162 30.1857 214.682 30.0577 215.274 30.0577C215.858 30.0577 216.366 30.1897 216.798 30.4537C217.23 30.7097 217.566 31.0697 217.806 31.5337C218.046 31.9897 218.166 32.5217 218.166 33.1297V33.6457H213.834C213.85 34.0537 214.002 34.3857 214.29 34.6417C214.578 34.8977 214.93 35.0257 215.346 35.0257C215.77 35.0257 216.082 34.9337 216.282 34.7497C216.482 34.5657 216.634 34.3617 216.738 34.1377L217.974 34.7857C217.862 34.9937 217.698 35.2217 217.482 35.4697C217.274 35.7097 216.994 35.9177 216.642 36.0937C216.29 36.2617 215.842 36.3457 215.298 36.3457ZM213.846 32.5177H216.63C216.598 32.1737 216.458 31.8977 216.21 31.6897C215.97 31.4817 215.654 31.3777 215.262 31.3777C214.854 31.3777 214.53 31.4817 214.29 31.6897C214.05 31.8977 213.902 32.1737 213.846 32.5177ZM173.651 54.1777V53.4477C173.651 52.9477 173.738 52.5477 173.911 52.2477C174.091 51.9477 174.338 51.7077 174.651 51.5277C174.971 51.3411 175.351 51.1811 175.791 51.0477L176.341 50.8777C176.641 50.7844 176.904 50.6711 177.131 50.5377C177.358 50.3977 177.534 50.2244 177.661 50.0177C177.788 49.8044 177.851 49.5444 177.851 49.2377V49.1977C177.851 48.7577 177.698 48.4111 177.391 48.1577C177.084 47.8977 176.691 47.7677 176.211 47.7677C175.704 47.7677 175.291 47.9044 174.971 48.1777C174.651 48.4444 174.491 48.8511 174.491 49.3977V49.5377H173.691V49.4077C173.691 48.9011 173.801 48.4711 174.021 48.1177C174.241 47.7644 174.541 47.4977 174.921 47.3177C175.301 47.1311 175.731 47.0377 176.211 47.0377C176.691 47.0377 177.114 47.1277 177.481 47.3077C177.854 47.4877 178.144 47.7377 178.351 48.0577C178.558 48.3777 178.661 48.7511 178.661 49.1777V49.2677C178.661 49.7211 178.571 50.0977 178.391 50.3977C178.211 50.6911 177.961 50.9311 177.641 51.1177C177.328 51.3044 176.958 51.4644 176.531 51.5977L175.991 51.7677C175.651 51.8744 175.368 51.9877 175.141 52.1077C174.921 52.2211 174.754 52.3677 174.641 52.5477C174.528 52.7277 174.471 52.9711 174.471 53.2777V53.4477H178.601V54.1777H173.651ZM182.545 56.1777V49.2877H183.315V50.0977H183.455C183.582 49.8511 183.785 49.6311 184.065 49.4377C184.352 49.2444 184.748 49.1477 185.255 49.1477C185.675 49.1477 186.058 49.2511 186.405 49.4577C186.758 49.6577 187.038 49.9444 187.245 50.3177C187.458 50.6911 187.565 51.1411 187.565 51.6677V51.7977C187.565 52.3177 187.462 52.7677 187.255 53.1477C187.048 53.5277 186.768 53.8177 186.415 54.0177C186.068 54.2177 185.682 54.3177 185.255 54.3177C184.915 54.3177 184.625 54.2711 184.385 54.1777C184.152 54.0911 183.962 53.9777 183.815 53.8377C183.668 53.6977 183.555 53.5544 183.475 53.4077H183.335V56.1777H182.545ZM185.045 53.6177C185.552 53.6177 185.962 53.4577 186.275 53.1377C186.595 52.8111 186.755 52.3577 186.755 51.7777V51.6877C186.755 51.1077 186.595 50.6577 186.275 50.3377C185.962 50.0111 185.552 49.8477 185.045 49.8477C184.545 49.8477 184.132 50.0111 183.805 50.3377C183.485 50.6577 183.325 51.1077 183.325 51.6877V51.7777C183.325 52.3577 183.485 52.8111 183.805 53.1377C184.132 53.4577 184.545 53.6177 185.045 53.6177ZM191.22 54.3177C190.727 54.3177 190.294 54.2144 189.92 54.0077C189.547 53.7944 189.257 53.4977 189.05 53.1177C188.844 52.7377 188.74 52.2977 188.74 51.7977V51.6777C188.74 51.1711 188.844 50.7277 189.05 50.3477C189.257 49.9677 189.544 49.6744 189.91 49.4677C190.277 49.2544 190.697 49.1477 191.17 49.1477C191.63 49.1477 192.037 49.2477 192.39 49.4477C192.744 49.6411 193.02 49.9211 193.22 50.2877C193.42 50.6544 193.52 51.0844 193.52 51.5777V51.9377H189.53C189.55 52.4644 189.72 52.8777 190.04 53.1777C190.36 53.4711 190.76 53.6177 191.24 53.6177C191.66 53.6177 191.984 53.5211 192.21 53.3277C192.437 53.1344 192.61 52.9044 192.73 52.6377L193.41 52.9677C193.31 53.1744 193.17 53.3811 192.99 53.5877C192.817 53.7944 192.587 53.9677 192.3 54.1077C192.02 54.2477 191.66 54.3177 191.22 54.3177ZM189.54 51.2877H192.72C192.694 50.8344 192.537 50.4811 192.25 50.2277C191.97 49.9744 191.61 49.8477 191.17 49.8477C190.724 49.8477 190.357 49.9744 190.07 50.2277C189.784 50.4811 189.607 50.8344 189.54 51.2877ZM197.158 54.3177C196.665 54.3177 196.228 54.2144 195.848 54.0077C195.475 53.8011 195.182 53.5111 194.968 53.1377C194.762 52.7577 194.658 52.3111 194.658 51.7977V51.6677C194.658 51.1611 194.762 50.7177 194.968 50.3377C195.182 49.9577 195.475 49.6644 195.848 49.4577C196.228 49.2511 196.665 49.1477 197.158 49.1477C197.652 49.1477 198.085 49.2511 198.458 49.4577C198.838 49.6644 199.132 49.9577 199.338 50.3377C199.552 50.7177 199.658 51.1611 199.658 51.6677V51.7977C199.658 52.3111 199.552 52.7577 199.338 53.1377C199.132 53.5111 198.838 53.8011 198.458 54.0077C198.085 54.2144 197.652 54.3177 197.158 54.3177ZM197.158 53.6077C197.678 53.6077 198.092 53.4444 198.398 53.1177C198.712 52.7844 198.868 52.3377 198.868 51.7777V51.6877C198.868 51.1277 198.712 50.6844 198.398 50.3577C198.092 50.0244 197.678 49.8577 197.158 49.8577C196.645 49.8577 196.232 50.0244 195.918 50.3577C195.605 50.6844 195.448 51.1277 195.448 51.6877V51.7777C195.448 52.3377 195.605 52.7844 195.918 53.1177C196.232 53.4444 196.645 53.6077 197.158 53.6077ZM201.08 56.1777V49.2877H201.85V50.0977H201.99C202.117 49.8511 202.32 49.6311 202.6 49.4377C202.887 49.2444 203.283 49.1477 203.79 49.1477C204.21 49.1477 204.593 49.2511 204.94 49.4577C205.293 49.6577 205.573 49.9444 205.78 50.3177C205.993 50.6911 206.1 51.1411 206.1 51.6677V51.7977C206.1 52.3177 205.997 52.7677 205.79 53.1477C205.583 53.5277 205.303 53.8177 204.95 54.0177C204.603 54.2177 204.217 54.3177 203.79 54.3177C203.45 54.3177 203.16 54.2711 202.92 54.1777C202.687 54.0911 202.497 53.9777 202.35 53.8377C202.203 53.6977 202.09 53.5544 202.01 53.4077H201.87V56.1777H201.08ZM203.58 53.6177C204.087 53.6177 204.497 53.4577 204.81 53.1377C205.13 52.8111 205.29 52.3577 205.29 51.7777V51.6877C205.29 51.1077 205.13 50.6577 204.81 50.3377C204.497 50.0111 204.087 49.8477 203.58 49.8477C203.08 49.8477 202.667 50.0111 202.34 50.3377C202.02 50.6577 201.86 51.1077 201.86 51.6877V51.7777C201.86 52.3577 202.02 52.8111 202.34 53.1377C202.667 53.4577 203.08 53.6177 203.58 53.6177ZM207.516 54.1777V47.1777H208.306V54.1777H207.516ZM212.207 54.3177C211.713 54.3177 211.28 54.2144 210.907 54.0077C210.533 53.7944 210.243 53.4977 210.037 53.1177C209.83 52.7377 209.727 52.2977 209.727 51.7977V51.6777C209.727 51.1711 209.83 50.7277 210.037 50.3477C210.243 49.9677 210.53 49.6744 210.897 49.4677C211.263 49.2544 211.683 49.1477 212.157 49.1477C212.617 49.1477 213.023 49.2477 213.377 49.4477C213.73 49.6411 214.007 49.9211 214.207 50.2877C214.407 50.6544 214.507 51.0844 214.507 51.5777V51.9377H210.517C210.537 52.4644 210.707 52.8777 211.027 53.1777C211.347 53.4711 211.747 53.6177 212.227 53.6177C212.647 53.6177 212.97 53.5211 213.197 53.3277C213.423 53.1344 213.597 52.9044 213.717 52.6377L214.397 52.9677C214.297 53.1744 214.157 53.3811 213.977 53.5877C213.803 53.7944 213.573 53.9677 213.287 54.1077C213.007 54.2477 212.647 54.3177 212.207 54.3177ZM210.527 51.2877H213.707C213.68 50.8344 213.523 50.4811 213.237 50.2277C212.957 49.9744 212.597 49.8477 212.157 49.8477C211.71 49.8477 211.343 49.9744 211.057 50.2277C210.77 50.4811 210.593 50.8344 210.527 51.2877Z" fill="black"/>
</svg>
