<svg width="326" height="244" viewBox="0 0 326 244" fill="none" xmlns="http://www.w3.org/2000/svg">
<rect x="244.371" y="0.177734" width="81.25" height="81.25" fill="#FB998D" stroke="white" stroke-width="4"/>
<path fill-rule="evenodd" clip-rule="evenodd" d="M244.371 0.177734H159.117V81.4277V162.678V243.928H244.367H244.371H325.617V162.678V81.4277H244.371V0.177734Z" fill="#F8604E"/>
<path d="M159.117 0.177734V-1.82227H157.117V0.177734H159.117ZM244.371 0.177734H246.371V-1.82227H244.371V0.177734ZM159.117 243.928H157.117V245.928H159.117V243.928ZM325.617 243.928V245.928H327.617V243.928H325.617ZM325.617 81.4277H327.617V79.4277H325.617V81.4277ZM244.371 81.4277H242.371V83.4277H244.371V81.4277ZM159.117 2.17773H244.371V-1.82227H159.117V2.17773ZM161.117 81.4277V0.177734H157.117V81.4277H161.117ZM161.117 162.678V81.4277H157.117V162.678H161.117ZM161.117 243.928V162.678H157.117V243.928H161.117ZM244.367 241.928H159.117V245.928H244.367V241.928ZM244.371 241.928H244.367V245.928H244.371V241.928ZM325.617 241.928H244.371V245.928H325.617V241.928ZM323.617 162.678V243.928H327.617V162.678H323.617ZM323.617 81.4277V162.678H327.617V81.4277H323.617ZM244.371 83.4277H325.617V79.4277H244.371V83.4277ZM242.371 0.177734V81.4277H246.371V0.177734H242.371Z" fill="white"/>
<path fill-rule="evenodd" clip-rule="evenodd" d="M77.8711 0.177734H0.621094V81.4277V162.678V243.928H77.8711H81.8711H159.121V162.678V81.4277V0.177734H81.8711H77.8711Z" fill="#F6331C"/>
<path d="M0.621094 0.177734V-1.82227H-1.37891V0.177734H0.621094ZM0.621094 243.928H-1.37891V245.928H0.621094V243.928ZM159.121 243.928V245.928H161.121V243.928H159.121ZM159.121 0.177734H161.121V-1.82227H159.121V0.177734ZM0.621094 2.17773H77.8711V-1.82227H0.621094V2.17773ZM2.62109 81.4277V0.177734H-1.37891V81.4277H2.62109ZM2.62109 162.678V81.4277H-1.37891V162.678H2.62109ZM2.62109 243.928V162.678H-1.37891V243.928H2.62109ZM77.8711 241.928H0.621094V245.928H77.8711V241.928ZM81.8711 241.928H77.8711V245.928H81.8711V241.928ZM159.121 241.928H81.8711V245.928H159.121V241.928ZM157.121 162.678V243.928H161.121V162.678H157.121ZM157.121 81.4277V162.678H161.121V81.4277H157.121ZM157.121 0.177734V81.4277H161.121V0.177734H157.121ZM81.8711 2.17773H159.121V-1.82227H81.8711V2.17773ZM77.8711 2.17773H81.8711V-1.82227H77.8711V2.17773Z" fill="white"/>
<path d="M169.669 20.1777V18.7857H170.773V13.1697H169.669V11.7777H173.989C174.501 11.7777 174.945 11.8657 175.321 12.0417C175.705 12.2097 176.001 12.4537 176.209 12.7737C176.425 13.0857 176.533 13.4617 176.533 13.9017V14.0217C176.533 14.4057 176.461 14.7217 176.317 14.9697C176.173 15.2097 176.001 15.3977 175.801 15.5337C175.609 15.6617 175.425 15.7537 175.249 15.8097V16.0257C175.425 16.0737 175.617 16.1657 175.825 16.3017C176.033 16.4297 176.209 16.6177 176.353 16.8657C176.505 17.1137 176.581 17.4377 176.581 17.8377V17.9577C176.581 18.4217 176.473 18.8217 176.257 19.1577C176.041 19.4857 175.741 19.7377 175.357 19.9137C174.981 20.0897 174.541 20.1777 174.037 20.1777H169.669ZM172.357 18.7377H173.845C174.189 18.7377 174.465 18.6537 174.673 18.4857C174.889 18.3177 174.997 18.0777 174.997 17.7657V17.6457C174.997 17.3337 174.893 17.0937 174.685 16.9257C174.477 16.7577 174.197 16.6737 173.845 16.6737H172.357V18.7377ZM172.357 15.2337H173.821C174.149 15.2337 174.417 15.1497 174.625 14.9817C174.841 14.8137 174.949 14.5817 174.949 14.2857V14.1657C174.949 13.8617 174.845 13.6297 174.637 13.4697C174.429 13.3017 174.157 13.2177 173.821 13.2177H172.357V15.2337ZM179.774 20.3457C179.35 20.3457 178.97 20.2737 178.634 20.1297C178.298 19.9777 178.03 19.7617 177.83 19.4817C177.638 19.1937 177.542 18.8457 177.542 18.4377C177.542 18.0297 177.638 17.6897 177.83 17.4177C178.03 17.1377 178.302 16.9297 178.646 16.7937C178.998 16.6497 179.398 16.5777 179.846 16.5777H181.478V16.2417C181.478 15.9617 181.39 15.7337 181.214 15.5577C181.038 15.3737 180.758 15.2817 180.374 15.2817C179.998 15.2817 179.718 15.3697 179.534 15.5457C179.35 15.7137 179.23 15.9337 179.174 16.2057L177.782 15.7377C177.878 15.4337 178.03 15.1577 178.238 14.9097C178.454 14.6537 178.738 14.4497 179.09 14.2977C179.45 14.1377 179.886 14.0577 180.398 14.0577C181.182 14.0577 181.802 14.2537 182.258 14.6457C182.714 15.0377 182.942 15.6057 182.942 16.3497V18.5697C182.942 18.8097 183.054 18.9297 183.278 18.9297H183.758V20.1777H182.75C182.454 20.1777 182.21 20.1057 182.018 19.9617C181.826 19.8177 181.73 19.6257 181.73 19.3857V19.3737H181.502C181.47 19.4697 181.398 19.5977 181.286 19.7577C181.174 19.9097 180.998 20.0457 180.758 20.1657C180.518 20.2857 180.19 20.3457 179.774 20.3457ZM180.038 19.1217C180.462 19.1217 180.806 19.0057 181.07 18.7737C181.342 18.5337 181.478 18.2177 181.478 17.8257V17.7057H179.954C179.674 17.7057 179.454 17.7657 179.294 17.8857C179.134 18.0057 179.054 18.1737 179.054 18.3897C179.054 18.6057 179.138 18.7817 179.306 18.9177C179.474 19.0537 179.718 19.1217 180.038 19.1217ZM187.542 20.3457C186.966 20.3457 186.442 20.2257 185.97 19.9857C185.506 19.7457 185.138 19.3977 184.866 18.9417C184.594 18.4857 184.458 17.9337 184.458 17.2857V17.1177C184.458 16.4697 184.594 15.9177 184.866 15.4617C185.138 15.0057 185.506 14.6577 185.97 14.4177C186.442 14.1777 186.966 14.0577 187.542 14.0577C188.11 14.0577 188.598 14.1577 189.006 14.3577C189.414 14.5577 189.742 14.8337 189.99 15.1857C190.246 15.5297 190.414 15.9217 190.494 16.3617L189.03 16.6737C188.998 16.4337 188.926 16.2177 188.814 16.0257C188.702 15.8337 188.542 15.6817 188.334 15.5697C188.134 15.4577 187.882 15.4017 187.578 15.4017C187.274 15.4017 186.998 15.4697 186.75 15.6057C186.51 15.7337 186.318 15.9297 186.174 16.1937C186.038 16.4497 185.97 16.7657 185.97 17.1417V17.2617C185.97 17.6377 186.038 17.9577 186.174 18.2217C186.318 18.4777 186.51 18.6737 186.75 18.8097C186.998 18.9377 187.274 19.0017 187.578 19.0017C188.034 19.0017 188.378 18.8857 188.61 18.6537C188.85 18.4137 189.002 18.1017 189.066 17.7177L190.53 18.0657C190.426 18.4897 190.246 18.8777 189.99 19.2297C189.742 19.5737 189.414 19.8457 189.006 20.0457C188.598 20.2457 188.11 20.3457 187.542 20.3457ZM191.778 20.1777V11.7777H193.29V14.9577H193.506C193.57 14.8297 193.67 14.7017 193.806 14.5737C193.942 14.4457 194.122 14.3417 194.346 14.2617C194.578 14.1737 194.87 14.1297 195.222 14.1297C195.686 14.1297 196.09 14.2377 196.434 14.4537C196.786 14.6617 197.058 14.9537 197.25 15.3297C197.442 15.6977 197.538 16.1297 197.538 16.6257V20.1777H196.026V16.7457C196.026 16.2977 195.914 15.9617 195.69 15.7377C195.474 15.5137 195.162 15.4017 194.754 15.4017C194.29 15.4017 193.93 15.5577 193.674 15.8697C193.418 16.1737 193.29 16.6017 193.29 17.1537V20.1777H191.778ZM201.884 20.3457C201.292 20.3457 200.768 20.2217 200.312 19.9737C199.864 19.7177 199.512 19.3617 199.256 18.9057C199.008 18.4417 198.884 17.8977 198.884 17.2737V17.1297C198.884 16.5057 199.008 15.9657 199.256 15.5097C199.504 15.0457 199.852 14.6897 200.3 14.4417C200.748 14.1857 201.268 14.0577 201.86 14.0577C202.444 14.0577 202.952 14.1897 203.384 14.4537C203.816 14.7097 204.152 15.0697 204.392 15.5337C204.632 15.9897 204.752 16.5217 204.752 17.1297V17.6457H200.42C200.436 18.0537 200.588 18.3857 200.876 18.6417C201.164 18.8977 201.516 19.0257 201.932 19.0257C202.356 19.0257 202.668 18.9337 202.868 18.7497C203.068 18.5657 203.22 18.3617 203.324 18.1377L204.56 18.7857C204.448 18.9937 204.284 19.2217 204.068 19.4697C203.86 19.7097 203.58 19.9177 203.228 20.0937C202.876 20.2617 202.428 20.3457 201.884 20.3457ZM200.432 16.5177H203.216C203.184 16.1737 203.044 15.8977 202.796 15.6897C202.556 15.4817 202.24 15.3777 201.848 15.3777C201.44 15.3777 201.116 15.4817 200.876 15.6897C200.636 15.8977 200.488 16.1737 200.432 16.5177ZM206.098 20.1777V11.7777H207.61V20.1777H206.098ZM212.117 20.3457C211.525 20.3457 210.993 20.2257 210.521 19.9857C210.049 19.7457 209.677 19.3977 209.405 18.9417C209.133 18.4857 208.997 17.9377 208.997 17.2977V17.1057C208.997 16.4657 209.133 15.9177 209.405 15.4617C209.677 15.0057 210.049 14.6577 210.521 14.4177C210.993 14.1777 211.525 14.0577 212.117 14.0577C212.709 14.0577 213.241 14.1777 213.713 14.4177C214.185 14.6577 214.557 15.0057 214.829 15.4617C215.101 15.9177 215.237 16.4657 215.237 17.1057V17.2977C215.237 17.9377 215.101 18.4857 214.829 18.9417C214.557 19.3977 214.185 19.7457 213.713 19.9857C213.241 20.2257 212.709 20.3457 212.117 20.3457ZM212.117 19.0017C212.581 19.0017 212.965 18.8537 213.269 18.5577C213.573 18.2537 213.725 17.8217 213.725 17.2617V17.1417C213.725 16.5817 213.573 16.1537 213.269 15.8577C212.973 15.5537 212.589 15.4017 212.117 15.4017C211.653 15.4017 211.269 15.5537 210.965 15.8577C210.661 16.1537 210.509 16.5817 210.509 17.1417V17.2617C210.509 17.8217 210.661 18.2537 210.965 18.5577C211.269 18.8537 211.653 19.0017 212.117 19.0017ZM216.633 20.1777V14.2257H218.121V14.8977H218.337C218.425 14.6577 218.569 14.4817 218.769 14.3697C218.977 14.2577 219.217 14.2017 219.489 14.2017H220.209V15.5457H219.465C219.081 15.5457 218.765 15.6497 218.517 15.8577C218.269 16.0577 218.145 16.3697 218.145 16.7937V20.1777H216.633ZM221.499 15.4617V14.6457H221.967C222.335 14.6457 222.519 14.4617 222.519 14.0937V13.7097H222.315C221.995 13.7097 221.727 13.6137 221.511 13.4217C221.303 13.2297 221.199 12.9857 221.199 12.6897C221.199 12.3697 221.303 12.1097 221.511 11.9097C221.727 11.7097 221.995 11.6097 222.315 11.6097C222.643 11.6097 222.911 11.7137 223.119 11.9217C223.327 12.1217 223.431 12.3937 223.431 12.7377V14.1177C223.431 15.0137 222.983 15.4617 222.087 15.4617H221.499ZM227.273 20.3457C226.497 20.3457 225.861 20.1777 225.365 19.8417C224.869 19.5057 224.569 19.0257 224.465 18.4017L225.857 18.0417C225.913 18.3217 226.005 18.5417 226.133 18.7017C226.269 18.8617 226.433 18.9777 226.625 19.0497C226.825 19.1137 227.041 19.1457 227.273 19.1457C227.625 19.1457 227.885 19.0857 228.053 18.9657C228.221 18.8377 228.305 18.6817 228.305 18.4977C228.305 18.3137 228.225 18.1737 228.065 18.0777C227.905 17.9737 227.649 17.8897 227.297 17.8257L226.961 17.7657C226.545 17.6857 226.165 17.5777 225.821 17.4417C225.477 17.2977 225.201 17.1017 224.993 16.8537C224.785 16.6057 224.681 16.2857 224.681 15.8937C224.681 15.3017 224.897 14.8497 225.329 14.5377C225.761 14.2177 226.329 14.0577 227.033 14.0577C227.697 14.0577 228.249 14.2057 228.689 14.5017C229.129 14.7977 229.417 15.1857 229.553 15.6657L228.149 16.0977C228.085 15.7937 227.953 15.5777 227.753 15.4497C227.561 15.3217 227.321 15.2577 227.033 15.2577C226.745 15.2577 226.525 15.3097 226.373 15.4137C226.221 15.5097 226.145 15.6457 226.145 15.8217C226.145 16.0137 226.225 16.1577 226.385 16.2537C226.545 16.3417 226.761 16.4097 227.033 16.4577L227.369 16.5177C227.817 16.5977 228.221 16.7057 228.581 16.8417C228.949 16.9697 229.237 17.1577 229.445 17.4057C229.661 17.6457 229.769 17.9737 229.769 18.3897C229.769 19.0137 229.541 19.4977 229.085 19.8417C228.637 20.1777 228.033 20.3457 227.273 20.3457ZM169.669 36.1777V34.7857H170.773V29.1697H169.669V27.7777H173.125C174.253 27.7777 175.109 28.0657 175.693 28.6417C176.285 29.2097 176.581 30.0577 176.581 31.1857V32.7697C176.581 33.8977 176.285 34.7497 175.693 35.3257C175.109 35.8937 174.253 36.1777 173.125 36.1777H169.669ZM172.357 34.7377H173.149C173.789 34.7377 174.257 34.5697 174.553 34.2337C174.849 33.8977 174.997 33.4257 174.997 32.8177V31.1377C174.997 30.5217 174.849 30.0497 174.553 29.7217C174.257 29.3857 173.789 29.2177 173.149 29.2177H172.357V34.7377ZM180.661 36.3457C180.069 36.3457 179.545 36.2217 179.089 35.9737C178.641 35.7177 178.289 35.3617 178.033 34.9057C177.785 34.4417 177.661 33.8977 177.661 33.2737V33.1297C177.661 32.5057 177.785 31.9657 178.033 31.5097C178.281 31.0457 178.629 30.6897 179.077 30.4417C179.525 30.1857 180.045 30.0577 180.637 30.0577C181.221 30.0577 181.729 30.1897 182.161 30.4537C182.593 30.7097 182.929 31.0697 183.169 31.5337C183.409 31.9897 183.529 32.5217 183.529 33.1297V33.6457H179.197C179.213 34.0537 179.365 34.3857 179.653 34.6417C179.941 34.8977 180.293 35.0257 180.709 35.0257C181.133 35.0257 181.445 34.9337 181.645 34.7497C181.845 34.5657 181.997 34.3617 182.101 34.1377L183.337 34.7857C183.225 34.9937 183.061 35.2217 182.845 35.4697C182.637 35.7097 182.357 35.9177 182.005 36.0937C181.653 36.2617 181.205 36.3457 180.661 36.3457ZM179.209 32.5177H181.993C181.961 32.1737 181.821 31.8977 181.573 31.6897C181.333 31.4817 181.017 31.3777 180.625 31.3777C180.217 31.3777 179.893 31.4817 179.653 31.6897C179.413 31.8977 179.265 32.1737 179.209 32.5177ZM184.587 33.2257V33.0337C184.587 32.4097 184.711 31.8777 184.959 31.4377C185.207 30.9897 185.535 30.6497 185.943 30.4177C186.359 30.1777 186.811 30.0577 187.299 30.0577C187.843 30.0577 188.255 30.1537 188.535 30.3457C188.815 30.5377 189.019 30.7377 189.147 30.9457H189.363V30.2257H190.851V37.2337C190.851 37.6417 190.731 37.9657 190.491 38.2057C190.251 38.4537 189.931 38.5777 189.531 38.5777H185.547V37.2577H189.003C189.227 37.2577 189.339 37.1377 189.339 36.8977V35.3497H189.123C189.043 35.4777 188.931 35.6097 188.787 35.7457C188.643 35.8737 188.451 35.9817 188.211 36.0697C187.971 36.1577 187.667 36.2017 187.299 36.2017C186.811 36.2017 186.359 36.0857 185.943 35.8537C185.535 35.6137 185.207 35.2737 184.959 34.8337C184.711 34.3857 184.587 33.8497 184.587 33.2257ZM187.731 34.8817C188.195 34.8817 188.583 34.7337 188.895 34.4377C189.207 34.1417 189.363 33.7257 189.363 33.1897V33.0697C189.363 32.5257 189.207 32.1097 188.895 31.8217C188.591 31.5257 188.203 31.3777 187.731 31.3777C187.267 31.3777 186.879 31.5257 186.567 31.8217C186.255 32.1097 186.099 32.5257 186.099 33.0697V33.1897C186.099 33.7257 186.255 34.1417 186.567 34.4377C186.879 34.7337 187.267 34.8817 187.731 34.8817ZM192.528 36.1777V30.2257H194.016V30.8977H194.232C194.32 30.6577 194.464 30.4817 194.664 30.3697C194.872 30.2577 195.112 30.2017 195.384 30.2017H196.104V31.5457H195.36C194.976 31.5457 194.66 31.6497 194.412 31.8577C194.164 32.0577 194.04 32.3697 194.04 32.7937V36.1777H192.528ZM199.786 36.3457C199.194 36.3457 198.67 36.2217 198.214 35.9737C197.766 35.7177 197.414 35.3617 197.158 34.9057C196.91 34.4417 196.786 33.8977 196.786 33.2737V33.1297C196.786 32.5057 196.91 31.9657 197.158 31.5097C197.406 31.0457 197.754 30.6897 198.202 30.4417C198.65 30.1857 199.17 30.0577 199.762 30.0577C200.346 30.0577 200.854 30.1897 201.286 30.4537C201.718 30.7097 202.054 31.0697 202.294 31.5337C202.534 31.9897 202.654 32.5217 202.654 33.1297V33.6457H198.322C198.338 34.0537 198.49 34.3857 198.778 34.6417C199.066 34.8977 199.418 35.0257 199.834 35.0257C200.258 35.0257 200.57 34.9337 200.77 34.7497C200.97 34.5657 201.122 34.3617 201.226 34.1377L202.462 34.7857C202.35 34.9937 202.186 35.2217 201.97 35.4697C201.762 35.7097 201.482 35.9177 201.13 36.0937C200.778 36.2617 200.33 36.3457 199.786 36.3457ZM198.334 32.5177H201.118C201.086 32.1737 200.946 31.8977 200.698 31.6897C200.458 31.4817 200.142 31.3777 199.75 31.3777C199.342 31.3777 199.018 31.4817 198.778 31.6897C198.538 31.8977 198.39 32.1737 198.334 32.5177ZM206.712 36.3457C206.12 36.3457 205.596 36.2217 205.14 35.9737C204.692 35.7177 204.34 35.3617 204.084 34.9057C203.836 34.4417 203.712 33.8977 203.712 33.2737V33.1297C203.712 32.5057 203.836 31.9657 204.084 31.5097C204.332 31.0457 204.68 30.6897 205.128 30.4417C205.576 30.1857 206.096 30.0577 206.688 30.0577C207.272 30.0577 207.78 30.1897 208.212 30.4537C208.644 30.7097 208.98 31.0697 209.22 31.5337C209.46 31.9897 209.58 32.5217 209.58 33.1297V33.6457H205.248C205.264 34.0537 205.416 34.3857 205.704 34.6417C205.992 34.8977 206.344 35.0257 206.76 35.0257C207.184 35.0257 207.496 34.9337 207.696 34.7497C207.896 34.5657 208.048 34.3617 208.152 34.1377L209.388 34.7857C209.276 34.9937 209.112 35.2217 208.896 35.4697C208.688 35.7097 208.408 35.9177 208.056 36.0937C207.704 36.2617 207.256 36.3457 206.712 36.3457ZM205.26 32.5177H208.044C208.012 32.1737 207.872 31.8977 207.624 31.6897C207.384 31.4817 207.068 31.3777 206.676 31.3777C206.268 31.3777 205.944 31.4817 205.704 31.6897C205.464 31.8977 205.316 32.1737 205.26 32.5177ZM172.137 54.3177C171.624 54.3177 171.181 54.2211 170.807 54.0277C170.434 53.8277 170.144 53.5544 169.937 53.2077C169.731 52.8544 169.627 52.4477 169.627 51.9877V51.8677H170.437V51.9577C170.437 52.4844 170.591 52.8877 170.897 53.1677C171.204 53.4477 171.611 53.5877 172.117 53.5877C172.651 53.5877 173.067 53.4377 173.367 53.1377C173.667 52.8377 173.817 52.4277 173.817 51.9077V51.8177C173.817 51.3177 173.671 50.9211 173.377 50.6277C173.091 50.3277 172.717 50.1777 172.257 50.1777C171.991 50.1777 171.771 50.2211 171.597 50.3077C171.424 50.3877 171.287 50.4911 171.187 50.6177C171.087 50.7377 171.004 50.8544 170.937 50.9677H169.837V47.1777H174.437V47.9077H170.647V50.3277H170.787C170.861 50.1944 170.961 50.0644 171.087 49.9377C171.221 49.8111 171.397 49.7044 171.617 49.6177C171.837 49.5311 172.111 49.4877 172.437 49.4877C172.844 49.4877 173.211 49.5811 173.537 49.7677C173.871 49.9544 174.134 50.2211 174.327 50.5677C174.527 50.9144 174.627 51.3277 174.627 51.8077V51.9177C174.627 52.3911 174.527 52.8077 174.327 53.1677C174.127 53.5277 173.841 53.8111 173.467 54.0177C173.094 54.2177 172.651 54.3177 172.137 54.3177ZM178.502 56.1777V49.2877H179.272V50.0977H179.412C179.539 49.8511 179.742 49.6311 180.022 49.4377C180.309 49.2444 180.705 49.1477 181.212 49.1477C181.632 49.1477 182.015 49.2511 182.362 49.4577C182.715 49.6577 182.995 49.9444 183.202 50.3177C183.415 50.6911 183.522 51.1411 183.522 51.6677V51.7977C183.522 52.3177 183.419 52.7677 183.212 53.1477C183.005 53.5277 182.725 53.8177 182.372 54.0177C182.025 54.2177 181.639 54.3177 181.212 54.3177C180.872 54.3177 180.582 54.2711 180.342 54.1777C180.109 54.0911 179.919 53.9777 179.772 53.8377C179.625 53.6977 179.512 53.5544 179.432 53.4077H179.292V56.1777H178.502ZM181.002 53.6177C181.509 53.6177 181.919 53.4577 182.232 53.1377C182.552 52.8111 182.712 52.3577 182.712 51.7777V51.6877C182.712 51.1077 182.552 50.6577 182.232 50.3377C181.919 50.0111 181.509 49.8477 181.002 49.8477C180.502 49.8477 180.089 50.0111 179.762 50.3377C179.442 50.6577 179.282 51.1077 179.282 51.6877V51.7777C179.282 52.3577 179.442 52.8111 179.762 53.1377C180.089 53.4577 180.502 53.6177 181.002 53.6177ZM187.177 54.3177C186.684 54.3177 186.251 54.2144 185.877 54.0077C185.504 53.7944 185.214 53.4977 185.007 53.1177C184.801 52.7377 184.697 52.2977 184.697 51.7977V51.6777C184.697 51.1711 184.801 50.7277 185.007 50.3477C185.214 49.9677 185.501 49.6744 185.867 49.4677C186.234 49.2544 186.654 49.1477 187.127 49.1477C187.587 49.1477 187.994 49.2477 188.347 49.4477C188.701 49.6411 188.977 49.9211 189.177 50.2877C189.377 50.6544 189.477 51.0844 189.477 51.5777V51.9377H185.487C185.507 52.4644 185.677 52.8777 185.997 53.1777C186.317 53.4711 186.717 53.6177 187.197 53.6177C187.617 53.6177 187.941 53.5211 188.167 53.3277C188.394 53.1344 188.567 52.9044 188.687 52.6377L189.367 52.9677C189.267 53.1744 189.127 53.3811 188.947 53.5877C188.774 53.7944 188.544 53.9677 188.257 54.1077C187.977 54.2477 187.617 54.3177 187.177 54.3177ZM185.497 51.2877H188.677C188.651 50.8344 188.494 50.4811 188.207 50.2277C187.927 49.9744 187.567 49.8477 187.127 49.8477C186.681 49.8477 186.314 49.9744 186.027 50.2277C185.741 50.4811 185.564 50.8344 185.497 51.2877ZM193.115 54.3177C192.622 54.3177 192.185 54.2144 191.805 54.0077C191.432 53.8011 191.139 53.5111 190.925 53.1377C190.719 52.7577 190.615 52.3111 190.615 51.7977V51.6677C190.615 51.1611 190.719 50.7177 190.925 50.3377C191.139 49.9577 191.432 49.6644 191.805 49.4577C192.185 49.2511 192.622 49.1477 193.115 49.1477C193.609 49.1477 194.042 49.2511 194.415 49.4577C194.795 49.6644 195.089 49.9577 195.295 50.3377C195.509 50.7177 195.615 51.1611 195.615 51.6677V51.7977C195.615 52.3111 195.509 52.7577 195.295 53.1377C195.089 53.5111 194.795 53.8011 194.415 54.0077C194.042 54.2144 193.609 54.3177 193.115 54.3177ZM193.115 53.6077C193.635 53.6077 194.049 53.4444 194.355 53.1177C194.669 52.7844 194.825 52.3377 194.825 51.7777V51.6877C194.825 51.1277 194.669 50.6844 194.355 50.3577C194.049 50.0244 193.635 49.8577 193.115 49.8577C192.602 49.8577 192.189 50.0244 191.875 50.3577C191.562 50.6844 191.405 51.1277 191.405 51.6877V51.7777C191.405 52.3377 191.562 52.7844 191.875 53.1177C192.189 53.4444 192.602 53.6077 193.115 53.6077ZM197.037 56.1777V49.2877H197.807V50.0977H197.947C198.074 49.8511 198.277 49.6311 198.557 49.4377C198.844 49.2444 199.24 49.1477 199.747 49.1477C200.167 49.1477 200.55 49.2511 200.897 49.4577C201.25 49.6577 201.53 49.9444 201.737 50.3177C201.95 50.6911 202.057 51.1411 202.057 51.6677V51.7977C202.057 52.3177 201.954 52.7677 201.747 53.1477C201.54 53.5277 201.26 53.8177 200.907 54.0177C200.56 54.2177 200.174 54.3177 199.747 54.3177C199.407 54.3177 199.117 54.2711 198.877 54.1777C198.644 54.0911 198.454 53.9777 198.307 53.8377C198.16 53.6977 198.047 53.5544 197.967 53.4077H197.827V56.1777H197.037ZM199.537 53.6177C200.044 53.6177 200.454 53.4577 200.767 53.1377C201.087 52.8111 201.247 52.3577 201.247 51.7777V51.6877C201.247 51.1077 201.087 50.6577 200.767 50.3377C200.454 50.0111 200.044 49.8477 199.537 49.8477C199.037 49.8477 198.624 50.0111 198.297 50.3377C197.977 50.6577 197.817 51.1077 197.817 51.6877V51.7777C197.817 52.3577 197.977 52.8111 198.297 53.1377C198.624 53.4577 199.037 53.6177 199.537 53.6177ZM203.473 54.1777V47.1777H204.263V54.1777H203.473ZM208.164 54.3177C207.67 54.3177 207.237 54.2144 206.864 54.0077C206.49 53.7944 206.2 53.4977 205.994 53.1177C205.787 52.7377 205.684 52.2977 205.684 51.7977V51.6777C205.684 51.1711 205.787 50.7277 205.994 50.3477C206.2 49.9677 206.487 49.6744 206.854 49.4677C207.22 49.2544 207.64 49.1477 208.114 49.1477C208.574 49.1477 208.98 49.2477 209.334 49.4477C209.687 49.6411 209.964 49.9211 210.164 50.2877C210.364 50.6544 210.464 51.0844 210.464 51.5777V51.9377H206.474C206.494 52.4644 206.664 52.8777 206.984 53.1777C207.304 53.4711 207.704 53.6177 208.184 53.6177C208.604 53.6177 208.927 53.5211 209.154 53.3277C209.38 53.1344 209.554 52.9044 209.674 52.6377L210.354 52.9677C210.254 53.1744 210.114 53.3811 209.934 53.5877C209.76 53.7944 209.53 53.9677 209.244 54.1077C208.964 54.2477 208.604 54.3177 208.164 54.3177ZM206.484 51.2877H209.664C209.637 50.8344 209.48 50.4811 209.194 50.2277C208.914 49.9744 208.554 49.8477 208.114 49.8477C207.667 49.8477 207.3 49.9744 207.014 50.2277C206.727 50.4811 206.55 50.8344 206.484 51.2877Z" fill="black"/>
<path d="M258.427 20.3457C257.371 20.3457 256.531 20.0577 255.907 19.4817C255.283 18.8977 254.971 18.0657 254.971 16.9857V14.9697C254.971 13.8897 255.283 13.0617 255.907 12.4857C256.531 11.9017 257.371 11.6097 258.427 11.6097C259.483 11.6097 260.323 11.9017 260.947 12.4857C261.571 13.0617 261.883 13.8897 261.883 14.9697V16.9857C261.883 18.0657 261.571 18.8977 260.947 19.4817C260.323 20.0577 259.483 20.3457 258.427 20.3457ZM258.427 18.9297C259.019 18.9297 259.479 18.7577 259.807 18.4137C260.135 18.0697 260.299 17.6097 260.299 17.0337V14.9217C260.299 14.3457 260.135 13.8857 259.807 13.5417C259.479 13.1977 259.019 13.0257 258.427 13.0257C257.843 13.0257 257.383 13.1977 257.047 13.5417C256.719 13.8857 256.555 14.3457 256.555 14.9217V17.0337C256.555 17.6097 256.719 18.0697 257.047 18.4137C257.383 18.7577 257.843 18.9297 258.427 18.9297ZM265.6 20.1777C265.208 20.1777 264.888 20.0577 264.64 19.8177C264.4 19.5697 264.28 19.2417 264.28 18.8337V15.4737H262.792V14.2257H264.28V12.3777H265.792V14.2257H267.424V15.4737H265.792V18.5697C265.792 18.8097 265.904 18.9297 266.128 18.9297H267.28V20.1777H265.6ZM268.793 20.1777V11.7777H270.305V14.9577H270.521C270.585 14.8297 270.685 14.7017 270.821 14.5737C270.957 14.4457 271.137 14.3417 271.361 14.2617C271.593 14.1737 271.885 14.1297 272.237 14.1297C272.701 14.1297 273.105 14.2377 273.449 14.4537C273.801 14.6617 274.073 14.9537 274.265 15.3297C274.457 15.6977 274.553 16.1297 274.553 16.6257V20.1777H273.041V16.7457C273.041 16.2977 272.929 15.9617 272.705 15.7377C272.489 15.5137 272.177 15.4017 271.769 15.4017C271.305 15.4017 270.945 15.5577 270.689 15.8697C270.433 16.1737 270.305 16.6017 270.305 17.1537V20.1777H268.793ZM278.9 20.3457C278.308 20.3457 277.784 20.2217 277.328 19.9737C276.88 19.7177 276.528 19.3617 276.272 18.9057C276.024 18.4417 275.9 17.8977 275.9 17.2737V17.1297C275.9 16.5057 276.024 15.9657 276.272 15.5097C276.52 15.0457 276.868 14.6897 277.316 14.4417C277.764 14.1857 278.284 14.0577 278.876 14.0577C279.46 14.0577 279.968 14.1897 280.4 14.4537C280.832 14.7097 281.168 15.0697 281.408 15.5337C281.648 15.9897 281.768 16.5217 281.768 17.1297V17.6457H277.436C277.452 18.0537 277.604 18.3857 277.892 18.6417C278.18 18.8977 278.532 19.0257 278.948 19.0257C279.372 19.0257 279.684 18.9337 279.884 18.7497C280.084 18.5657 280.236 18.3617 280.34 18.1377L281.576 18.7857C281.464 18.9937 281.3 19.2217 281.084 19.4697C280.876 19.7097 280.596 19.9177 280.244 20.0937C279.892 20.2617 279.444 20.3457 278.9 20.3457ZM277.448 16.5177H280.232C280.2 16.1737 280.06 15.8977 279.812 15.6897C279.572 15.4817 279.256 15.3777 278.864 15.3777C278.456 15.3777 278.132 15.4817 277.892 15.6897C277.652 15.8977 277.504 16.1737 277.448 16.5177ZM283.113 20.1777V14.2257H284.601V14.8977H284.817C284.905 14.6577 285.049 14.4817 285.249 14.3697C285.457 14.2577 285.697 14.2017 285.969 14.2017H286.689V15.5457H285.945C285.561 15.5457 285.245 15.6497 284.997 15.8577C284.749 16.0577 284.625 16.3697 284.625 16.7937V20.1777H283.113ZM256.941 38.1777V31.7177H256.791L255.431 34.2077H254.551L256.221 31.1777H257.751V38.1777H256.941ZM261.949 40.1777V33.2877H262.719V34.0977H262.859C262.986 33.8511 263.189 33.6311 263.469 33.4377C263.756 33.2444 264.152 33.1477 264.659 33.1477C265.079 33.1477 265.462 33.2511 265.809 33.4577C266.162 33.6577 266.442 33.9444 266.649 34.3177C266.862 34.6911 266.969 35.1411 266.969 35.6677V35.7977C266.969 36.3177 266.866 36.7677 266.659 37.1477C266.452 37.5277 266.172 37.8177 265.819 38.0177C265.472 38.2177 265.086 38.3177 264.659 38.3177C264.319 38.3177 264.029 38.2711 263.789 38.1777C263.556 38.0911 263.366 37.9777 263.219 37.8377C263.072 37.6977 262.959 37.5544 262.879 37.4077H262.739V40.1777H261.949ZM264.449 37.6177C264.956 37.6177 265.366 37.4577 265.679 37.1377C265.999 36.8111 266.159 36.3577 266.159 35.7777V35.6877C266.159 35.1077 265.999 34.6577 265.679 34.3377C265.366 34.0111 264.956 33.8477 264.449 33.8477C263.949 33.8477 263.536 34.0111 263.209 34.3377C262.889 34.6577 262.729 35.1077 262.729 35.6877V35.7777C262.729 36.3577 262.889 36.8111 263.209 37.1377C263.536 37.4577 263.949 37.6177 264.449 37.6177ZM270.625 38.3177C270.131 38.3177 269.698 38.2144 269.325 38.0077C268.951 37.7944 268.661 37.4977 268.455 37.1177C268.248 36.7377 268.145 36.2977 268.145 35.7977V35.6777C268.145 35.1711 268.248 34.7277 268.455 34.3477C268.661 33.9677 268.948 33.6744 269.315 33.4677C269.681 33.2544 270.101 33.1477 270.575 33.1477C271.035 33.1477 271.441 33.2477 271.795 33.4477C272.148 33.6411 272.425 33.9211 272.625 34.2877C272.825 34.6544 272.925 35.0844 272.925 35.5777V35.9377H268.935C268.955 36.4644 269.125 36.8777 269.445 37.1777C269.765 37.4711 270.165 37.6177 270.645 37.6177C271.065 37.6177 271.388 37.5211 271.615 37.3277C271.841 37.1344 272.015 36.9044 272.135 36.6377L272.815 36.9677C272.715 37.1744 272.575 37.3811 272.395 37.5877C272.221 37.7944 271.991 37.9677 271.705 38.1077C271.425 38.2477 271.065 38.3177 270.625 38.3177ZM268.945 35.2877H272.125C272.098 34.8344 271.941 34.4811 271.655 34.2277C271.375 33.9744 271.015 33.8477 270.575 33.8477C270.128 33.8477 269.761 33.9744 269.475 34.2277C269.188 34.4811 269.011 34.8344 268.945 35.2877ZM274.303 38.1777V33.2877H275.073V33.8877H275.213C275.299 33.6744 275.433 33.5177 275.613 33.4177C275.793 33.3177 276.029 33.2677 276.323 33.2677H276.903V33.9877H276.273C275.919 33.9877 275.633 34.0877 275.413 34.2877C275.199 34.4811 275.093 34.7844 275.093 35.1977V38.1777H274.303ZM279.945 38.3177C279.338 38.3177 278.825 38.1777 278.405 37.8977C277.991 37.6177 277.741 37.1744 277.655 36.5677L278.405 36.3977C278.458 36.7177 278.558 36.9711 278.705 37.1577C278.851 37.3377 279.031 37.4677 279.245 37.5477C279.465 37.6211 279.698 37.6577 279.945 37.6577C280.311 37.6577 280.601 37.5844 280.815 37.4377C281.028 37.2911 281.135 37.0944 281.135 36.8477C281.135 36.5944 281.031 36.4177 280.825 36.3177C280.625 36.2111 280.348 36.1244 279.995 36.0577L279.585 35.9877C279.271 35.9344 278.985 35.8511 278.725 35.7377C278.465 35.6244 278.258 35.4711 278.105 35.2777C277.951 35.0844 277.875 34.8411 277.875 34.5477C277.875 34.1077 278.045 33.7644 278.385 33.5177C278.725 33.2711 279.175 33.1477 279.735 33.1477C280.288 33.1477 280.735 33.2744 281.075 33.5277C281.421 33.7744 281.645 34.1244 281.745 34.5777L281.005 34.7677C280.945 34.4144 280.801 34.1677 280.575 34.0277C280.348 33.8811 280.068 33.8077 279.735 33.8077C279.401 33.8077 279.138 33.8711 278.945 33.9977C278.751 34.1177 278.655 34.2977 278.655 34.5377C278.655 34.7711 278.745 34.9444 278.925 35.0577C279.111 35.1644 279.358 35.2444 279.665 35.2977L280.075 35.3677C280.421 35.4277 280.731 35.5111 281.005 35.6177C281.285 35.7177 281.505 35.8644 281.665 36.0577C281.831 36.2511 281.915 36.5044 281.915 36.8177C281.915 37.2977 281.735 37.6677 281.375 37.9277C281.021 38.1877 280.545 38.3177 279.945 38.3177ZM285.508 38.3177C285.015 38.3177 284.578 38.2144 284.198 38.0077C283.825 37.8011 283.531 37.5111 283.318 37.1377C283.111 36.7577 283.008 36.3111 283.008 35.7977V35.6677C283.008 35.1611 283.111 34.7177 283.318 34.3377C283.531 33.9577 283.825 33.6644 284.198 33.4577C284.578 33.2511 285.015 33.1477 285.508 33.1477C286.001 33.1477 286.435 33.2511 286.808 33.4577C287.188 33.6644 287.481 33.9577 287.688 34.3377C287.901 34.7177 288.008 35.1611 288.008 35.6677V35.7977C288.008 36.3111 287.901 36.7577 287.688 37.1377C287.481 37.5111 287.188 37.8011 286.808 38.0077C286.435 38.2144 286.001 38.3177 285.508 38.3177ZM285.508 37.6077C286.028 37.6077 286.441 37.4444 286.748 37.1177C287.061 36.7844 287.218 36.3377 287.218 35.7777V35.6877C287.218 35.1277 287.061 34.6844 286.748 34.3577C286.441 34.0244 286.028 33.8577 285.508 33.8577C284.995 33.8577 284.581 34.0244 284.268 34.3577C283.955 34.6844 283.798 35.1277 283.798 35.6877V35.7777C283.798 36.3377 283.955 36.7844 284.268 37.1177C284.581 37.4444 284.995 37.6077 285.508 37.6077ZM289.43 38.1777V33.2877H290.2V34.1177H290.34C290.446 33.8844 290.626 33.6744 290.88 33.4877C291.14 33.2944 291.52 33.1977 292.02 33.1977C292.386 33.1977 292.713 33.2744 293 33.4277C293.293 33.5811 293.526 33.8077 293.7 34.1077C293.873 34.4077 293.96 34.7777 293.96 35.2177V38.1777H293.17V35.2777C293.17 34.7911 293.046 34.4377 292.8 34.2177C292.56 33.9977 292.233 33.8877 291.82 33.8877C291.346 33.8877 290.96 34.0411 290.66 34.3477C290.366 34.6544 290.22 35.1111 290.22 35.7177V38.1777H289.43Z" fill="black"/>
<path d="M11.4131 20.1777V11.7777H14.3531L15.8051 19.0977H16.0211L17.4731 11.7777H20.4131V20.1777H18.8771V12.9417H18.6611L17.2211 20.1777H14.6051L13.1651 12.9417H12.9491V20.1777H11.4131ZM23.8911 20.3457C23.4671 20.3457 23.0871 20.2737 22.7511 20.1297C22.4151 19.9777 22.1471 19.7617 21.9471 19.4817C21.7551 19.1937 21.6591 18.8457 21.6591 18.4377C21.6591 18.0297 21.7551 17.6897 21.9471 17.4177C22.1471 17.1377 22.4191 16.9297 22.7631 16.7937C23.1151 16.6497 23.5151 16.5777 23.9631 16.5777H25.5951V16.2417C25.5951 15.9617 25.5071 15.7337 25.3311 15.5577C25.1551 15.3737 24.8751 15.2817 24.4911 15.2817C24.1151 15.2817 23.8351 15.3697 23.6511 15.5457C23.4671 15.7137 23.3471 15.9337 23.2911 16.2057L21.8991 15.7377C21.9951 15.4337 22.1471 15.1577 22.3551 14.9097C22.5711 14.6537 22.8551 14.4497 23.2071 14.2977C23.5671 14.1377 24.0031 14.0577 24.5151 14.0577C25.2991 14.0577 25.9191 14.2537 26.3751 14.6457C26.8311 15.0377 27.0591 15.6057 27.0591 16.3497V18.5697C27.0591 18.8097 27.1711 18.9297 27.3951 18.9297H27.8751V20.1777H26.8671C26.5711 20.1777 26.3271 20.1057 26.1351 19.9617C25.9431 19.8177 25.8471 19.6257 25.8471 19.3857V19.3737H25.6191C25.5871 19.4697 25.5151 19.5977 25.4031 19.7577C25.2911 19.9097 25.1151 20.0457 24.8751 20.1657C24.6351 20.2857 24.3071 20.3457 23.8911 20.3457ZM24.1551 19.1217C24.5791 19.1217 24.9231 19.0057 25.1871 18.7737C25.4591 18.5337 25.5951 18.2177 25.5951 17.8257V17.7057H24.0711C23.7911 17.7057 23.5711 17.7657 23.4111 17.8857C23.2511 18.0057 23.1711 18.1737 23.1711 18.3897C23.1711 18.6057 23.2551 18.7817 23.4231 18.9177C23.5911 19.0537 23.8351 19.1217 24.1551 19.1217ZM31.4058 20.3457C30.6298 20.3457 29.9938 20.1777 29.4978 19.8417C29.0018 19.5057 28.7018 19.0257 28.5978 18.4017L29.9898 18.0417C30.0458 18.3217 30.1378 18.5417 30.2658 18.7017C30.4018 18.8617 30.5658 18.9777 30.7578 19.0497C30.9578 19.1137 31.1738 19.1457 31.4058 19.1457C31.7578 19.1457 32.0178 19.0857 32.1858 18.9657C32.3538 18.8377 32.4378 18.6817 32.4378 18.4977C32.4378 18.3137 32.3578 18.1737 32.1978 18.0777C32.0378 17.9737 31.7818 17.8897 31.4298 17.8257L31.0938 17.7657C30.6778 17.6857 30.2978 17.5777 29.9538 17.4417C29.6098 17.2977 29.3338 17.1017 29.1258 16.8537C28.9178 16.6057 28.8138 16.2857 28.8138 15.8937C28.8138 15.3017 29.0298 14.8497 29.4618 14.5377C29.8938 14.2177 30.4618 14.0577 31.1658 14.0577C31.8298 14.0577 32.3818 14.2057 32.8218 14.5017C33.2618 14.7977 33.5498 15.1857 33.6858 15.6657L32.2818 16.0977C32.2178 15.7937 32.0858 15.5777 31.8858 15.4497C31.6938 15.3217 31.4538 15.2577 31.1658 15.2577C30.8778 15.2577 30.6578 15.3097 30.5058 15.4137C30.3538 15.5097 30.2778 15.6457 30.2778 15.8217C30.2778 16.0137 30.3578 16.1577 30.5178 16.2537C30.6778 16.3417 30.8938 16.4097 31.1658 16.4577L31.5018 16.5177C31.9498 16.5977 32.3538 16.7057 32.7138 16.8417C33.0818 16.9697 33.3698 17.1577 33.5778 17.4057C33.7938 17.6457 33.9018 17.9737 33.9018 18.3897C33.9018 19.0137 33.6738 19.4977 33.2178 19.8417C32.7698 20.1777 32.1658 20.3457 31.4058 20.3457ZM37.3895 20.1777C36.9975 20.1777 36.6775 20.0577 36.4295 19.8177C36.1895 19.5697 36.0695 19.2417 36.0695 18.8337V15.4737H34.5815V14.2257H36.0695V12.3777H37.5815V14.2257H39.2135V15.4737H37.5815V18.5697C37.5815 18.8097 37.6935 18.9297 37.9175 18.9297H39.0695V20.1777H37.3895ZM43.0833 20.3457C42.4913 20.3457 41.9673 20.2217 41.5113 19.9737C41.0633 19.7177 40.7113 19.3617 40.4553 18.9057C40.2073 18.4417 40.0833 17.8977 40.0833 17.2737V17.1297C40.0833 16.5057 40.2073 15.9657 40.4553 15.5097C40.7033 15.0457 41.0513 14.6897 41.4993 14.4417C41.9473 14.1857 42.4673 14.0577 43.0592 14.0577C43.6433 14.0577 44.1513 14.1897 44.5833 14.4537C45.0153 14.7097 45.3513 15.0697 45.5912 15.5337C45.8313 15.9897 45.9513 16.5217 45.9513 17.1297V17.6457H41.6193C41.6353 18.0537 41.7873 18.3857 42.0753 18.6417C42.3633 18.8977 42.7153 19.0257 43.1313 19.0257C43.5553 19.0257 43.8673 18.9337 44.0673 18.7497C44.2673 18.5657 44.4193 18.3617 44.5233 18.1377L45.7593 18.7857C45.6473 18.9937 45.4833 19.2217 45.2673 19.4697C45.0593 19.7097 44.7793 19.9177 44.4273 20.0937C44.0753 20.2617 43.6273 20.3457 43.0833 20.3457ZM41.6313 16.5177H44.4153C44.3833 16.1737 44.2433 15.8977 43.9953 15.6897C43.7553 15.4817 43.4393 15.3777 43.0473 15.3777C42.6393 15.3777 42.3153 15.4817 42.0753 15.6897C41.8353 15.8977 41.6873 16.1737 41.6313 16.5177ZM47.297 20.1777V14.2257H48.785V14.8977H49.001C49.089 14.6577 49.233 14.4817 49.433 14.3697C49.641 14.2577 49.881 14.2017 50.153 14.2017H50.873V15.5457H50.129C49.745 15.5457 49.429 15.6497 49.181 15.8577C48.933 16.0577 48.809 16.3697 48.809 16.7937V20.1777H47.297ZM52.1628 15.4617V14.6457H52.6308C52.9988 14.6457 53.1828 14.4617 53.1828 14.0937V13.7097H52.9788C52.6588 13.7097 52.3908 13.6137 52.1748 13.4217C51.9668 13.2297 51.8628 12.9857 51.8628 12.6897C51.8628 12.3697 51.9668 12.1097 52.1748 11.9097C52.3908 11.7097 52.6588 11.6097 52.9788 11.6097C53.3068 11.6097 53.5748 11.7137 53.7828 11.9217C53.9908 12.1217 54.0948 12.3937 54.0948 12.7377V14.1177C54.0948 15.0137 53.6468 15.4617 52.7508 15.4617H52.1628ZM57.937 20.3457C57.161 20.3457 56.525 20.1777 56.029 19.8417C55.533 19.5057 55.233 19.0257 55.129 18.4017L56.521 18.0417C56.577 18.3217 56.669 18.5417 56.797 18.7017C56.933 18.8617 57.097 18.9777 57.289 19.0497C57.489 19.1137 57.705 19.1457 57.937 19.1457C58.289 19.1457 58.549 19.0857 58.717 18.9657C58.885 18.8377 58.969 18.6817 58.969 18.4977C58.969 18.3137 58.889 18.1737 58.729 18.0777C58.569 17.9737 58.313 17.8897 57.961 17.8257L57.625 17.7657C57.209 17.6857 56.829 17.5777 56.485 17.4417C56.141 17.2977 55.865 17.1017 55.657 16.8537C55.449 16.6057 55.345 16.2857 55.345 15.8937C55.345 15.3017 55.561 14.8497 55.993 14.5377C56.425 14.2177 56.993 14.0577 57.697 14.0577C58.361 14.0577 58.913 14.2057 59.353 14.5017C59.793 14.7977 60.081 15.1857 60.217 15.6657L58.813 16.0977C58.749 15.7937 58.617 15.5777 58.417 15.4497C58.225 15.3217 57.985 15.2577 57.697 15.2577C57.409 15.2577 57.189 15.3097 57.037 15.4137C56.885 15.5097 56.809 15.6457 56.809 15.8217C56.809 16.0137 56.889 16.1577 57.049 16.2537C57.209 16.3417 57.425 16.4097 57.697 16.4577L58.033 16.5177C58.481 16.5977 58.885 16.7057 59.245 16.8417C59.613 16.9697 59.901 17.1577 60.109 17.4057C60.325 17.6457 60.433 17.9737 60.433 18.3897C60.433 19.0137 60.205 19.4977 59.749 19.8417C59.301 20.1777 58.697 20.3457 57.937 20.3457ZM11.1731 36.1777V34.7857H12.2771V29.1697H11.1731V27.7777H14.6291C15.7571 27.7777 16.6131 28.0657 17.1971 28.6417C17.7891 29.2097 18.0851 30.0577 18.0851 31.1857V32.7697C18.0851 33.8977 17.7891 34.7497 17.1971 35.3257C16.6131 35.8937 15.7571 36.1777 14.6291 36.1777H11.1731ZM13.8611 34.7377H14.6531C15.2931 34.7377 15.7611 34.5697 16.0571 34.2337C16.3531 33.8977 16.5011 33.4257 16.5011 32.8177V31.1377C16.5011 30.5217 16.3531 30.0497 16.0571 29.7217C15.7611 29.3857 15.2931 29.2177 14.6531 29.2177H13.8611V34.7377ZM22.1653 36.3457C21.5733 36.3457 21.0493 36.2217 20.5933 35.9737C20.1453 35.7177 19.7933 35.3617 19.5373 34.9057C19.2893 34.4417 19.1653 33.8977 19.1653 33.2737V33.1297C19.1653 32.5057 19.2893 31.9657 19.5373 31.5097C19.7853 31.0457 20.1333 30.6897 20.5813 30.4417C21.0293 30.1857 21.5493 30.0577 22.1413 30.0577C22.7253 30.0577 23.2333 30.1897 23.6653 30.4537C24.0973 30.7097 24.4333 31.0697 24.6733 31.5337C24.9133 31.9897 25.0333 32.5217 25.0333 33.1297V33.6457H20.7013C20.7173 34.0537 20.8693 34.3857 21.1573 34.6417C21.4453 34.8977 21.7973 35.0257 22.2133 35.0257C22.6373 35.0257 22.9493 34.9337 23.1493 34.7497C23.3493 34.5657 23.5013 34.3617 23.6053 34.1377L24.8413 34.7857C24.7293 34.9937 24.5653 35.2217 24.3493 35.4697C24.1413 35.7097 23.8613 35.9177 23.5093 36.0937C23.1573 36.2617 22.7093 36.3457 22.1653 36.3457ZM20.7133 32.5177H23.4973C23.4653 32.1737 23.3253 31.8977 23.0773 31.6897C22.8373 31.4817 22.5213 31.3777 22.1293 31.3777C21.7213 31.3777 21.3973 31.4817 21.1573 31.6897C20.9173 31.8977 20.7693 32.1737 20.7133 32.5177ZM26.0911 33.2257V33.0337C26.0911 32.4097 26.2151 31.8777 26.4631 31.4377C26.7111 30.9897 27.0391 30.6497 27.4471 30.4177C27.8631 30.1777 28.3151 30.0577 28.8031 30.0577C29.3471 30.0577 29.7591 30.1537 30.0391 30.3457C30.3191 30.5377 30.5231 30.7377 30.6511 30.9457H30.8671V30.2257H32.3551V37.2337C32.3551 37.6417 32.2351 37.9657 31.9951 38.2057C31.7551 38.4537 31.4351 38.5777 31.0351 38.5777H27.0511V37.2577H30.5071C30.7311 37.2577 30.8431 37.1377 30.8431 36.8977V35.3497H30.6271C30.5471 35.4777 30.4351 35.6097 30.2911 35.7457C30.1471 35.8737 29.9551 35.9817 29.7151 36.0697C29.4751 36.1577 29.1711 36.2017 28.8031 36.2017C28.3151 36.2017 27.8631 36.0857 27.4471 35.8537C27.0391 35.6137 26.7111 35.2737 26.4631 34.8337C26.2151 34.3857 26.0911 33.8497 26.0911 33.2257ZM29.2351 34.8817C29.6991 34.8817 30.0871 34.7337 30.3991 34.4377C30.7111 34.1417 30.8671 33.7257 30.8671 33.1897V33.0697C30.8671 32.5257 30.7111 32.1097 30.3991 31.8217C30.0951 31.5257 29.7071 31.3777 29.2351 31.3777C28.7711 31.3777 28.3831 31.5257 28.0711 31.8217C27.7591 32.1097 27.6031 32.5257 27.6031 33.0697V33.1897C27.6031 33.7257 27.7591 34.1417 28.0711 34.4377C28.3831 34.7337 28.7711 34.8817 29.2351 34.8817ZM34.0314 36.1777V30.2257H35.5194V30.8977H35.7354C35.8234 30.6577 35.9674 30.4817 36.1674 30.3697C36.3754 30.2577 36.6154 30.2017 36.8874 30.2017H37.6074V31.5457H36.8634C36.4794 31.5457 36.1634 31.6497 35.9154 31.8577C35.6674 32.0577 35.5434 32.3697 35.5434 32.7937V36.1777H34.0314ZM41.2903 36.3457C40.6983 36.3457 40.1743 36.2217 39.7183 35.9737C39.2703 35.7177 38.9183 35.3617 38.6623 34.9057C38.4143 34.4417 38.2903 33.8977 38.2903 33.2737V33.1297C38.2903 32.5057 38.4143 31.9657 38.6623 31.5097C38.9103 31.0457 39.2583 30.6897 39.7063 30.4417C40.1543 30.1857 40.6743 30.0577 41.2663 30.0577C41.8503 30.0577 42.3583 30.1897 42.7903 30.4537C43.2223 30.7097 43.5583 31.0697 43.7983 31.5337C44.0383 31.9897 44.1583 32.5217 44.1583 33.1297V33.6457H39.8263C39.8423 34.0537 39.9943 34.3857 40.2823 34.6417C40.5703 34.8977 40.9223 35.0257 41.3383 35.0257C41.7623 35.0257 42.0743 34.9337 42.2743 34.7497C42.4743 34.5657 42.6263 34.3617 42.7303 34.1377L43.9663 34.7857C43.8543 34.9937 43.6903 35.2217 43.4743 35.4697C43.2663 35.7097 42.9863 35.9177 42.6343 36.0937C42.2823 36.2617 41.8343 36.3457 41.2903 36.3457ZM39.8383 32.5177H42.6223C42.5903 32.1737 42.4503 31.8977 42.2023 31.6897C41.9623 31.4817 41.6463 31.3777 41.2543 31.3777C40.8463 31.3777 40.5223 31.4817 40.2823 31.6897C40.0423 31.8977 39.8943 32.1737 39.8383 32.5177ZM48.2161 36.3457C47.6241 36.3457 47.1001 36.2217 46.6441 35.9737C46.1961 35.7177 45.8441 35.3617 45.5881 34.9057C45.3401 34.4417 45.2161 33.8977 45.2161 33.2737V33.1297C45.2161 32.5057 45.3401 31.9657 45.5881 31.5097C45.8361 31.0457 46.1841 30.6897 46.6321 30.4417C47.0801 30.1857 47.6001 30.0577 48.1921 30.0577C48.7761 30.0577 49.2841 30.1897 49.7161 30.4537C50.1481 30.7097 50.4841 31.0697 50.7241 31.5337C50.9641 31.9897 51.0841 32.5217 51.0841 33.1297V33.6457H46.7521C46.7681 34.0537 46.9201 34.3857 47.2081 34.6417C47.4961 34.8977 47.8481 35.0257 48.2641 35.0257C48.6881 35.0257 49.0001 34.9337 49.2001 34.7497C49.4001 34.5657 49.5521 34.3617 49.6561 34.1377L50.8921 34.7857C50.7801 34.9937 50.6161 35.2217 50.4001 35.4697C50.1921 35.7097 49.9121 35.9177 49.5601 36.0937C49.2081 36.2617 48.7601 36.3457 48.2161 36.3457ZM46.7641 32.5177H49.5481C49.5161 32.1737 49.3761 31.8977 49.1281 31.6897C48.8881 31.4817 48.5721 31.3777 48.1801 31.3777C47.7721 31.3777 47.4481 31.4817 47.2081 31.6897C46.9681 31.8977 46.8201 32.1737 46.7641 32.5177ZM13.7211 54.3177C13.2411 54.3177 12.8111 54.2244 12.4311 54.0377C12.0578 53.8444 11.7611 53.5711 11.5411 53.2177C11.3278 52.8644 11.2211 52.4444 11.2211 51.9577V49.5177C11.2211 48.9911 11.3244 48.5444 11.5311 48.1777C11.7378 47.8111 12.0278 47.5311 12.4011 47.3377C12.7811 47.1377 13.2311 47.0377 13.7511 47.0377C14.2644 47.0377 14.7011 47.1311 15.0611 47.3177C15.4278 47.4977 15.7044 47.7477 15.8911 48.0677C16.0844 48.3811 16.1811 48.7444 16.1811 49.1577H15.3611C15.3611 48.7444 15.2278 48.4111 14.9611 48.1577C14.6944 47.8977 14.2911 47.7677 13.7511 47.7677C13.2044 47.7677 12.7811 47.9177 12.4811 48.2177C12.1811 48.5111 12.0311 48.9177 12.0311 49.4377V50.4077H12.1711C12.2911 50.2077 12.4911 50.0244 12.7711 49.8577C13.0511 49.6844 13.4411 49.5977 13.9411 49.5977C14.3611 49.5977 14.7444 49.6911 15.0911 49.8777C15.4378 50.0644 15.7144 50.3277 15.9211 50.6677C16.1278 51.0077 16.2311 51.4111 16.2311 51.8777V51.9977C16.2311 52.4711 16.1211 52.8811 15.9011 53.2277C15.6878 53.5744 15.3911 53.8444 15.0111 54.0377C14.6311 54.2244 14.2011 54.3177 13.7211 54.3177ZM13.7211 53.5877C14.2278 53.5877 14.6378 53.4444 14.9511 53.1577C15.2644 52.8711 15.4211 52.4811 15.4211 51.9877V51.9077C15.4211 51.5744 15.3478 51.2877 15.2011 51.0477C15.0611 50.8077 14.8644 50.6211 14.6111 50.4877C14.3578 50.3477 14.0611 50.2777 13.7211 50.2777C13.3878 50.2777 13.0944 50.3477 12.8411 50.4877C12.5878 50.6211 12.3878 50.8077 12.2411 51.0477C12.1011 51.2877 12.0311 51.5744 12.0311 51.9077V51.9877C12.0311 52.4811 12.1878 52.8711 12.5011 53.1577C12.8144 53.4444 13.2211 53.5877 13.7211 53.5877ZM20.1425 56.1777V49.2877H20.9125V50.0977H21.0525C21.1792 49.8511 21.3825 49.6311 21.6625 49.4377C21.9492 49.2444 22.3458 49.1477 22.8525 49.1477C23.2725 49.1477 23.6558 49.2511 24.0025 49.4577C24.3558 49.6577 24.6358 49.9444 24.8425 50.3177C25.0558 50.6911 25.1625 51.1411 25.1625 51.6677V51.7977C25.1625 52.3177 25.0592 52.7677 24.8525 53.1477C24.6458 53.5277 24.3658 53.8177 24.0125 54.0177C23.6658 54.2177 23.2792 54.3177 22.8525 54.3177C22.5125 54.3177 22.2225 54.2711 21.9825 54.1777C21.7492 54.0911 21.5592 53.9777 21.4125 53.8377C21.2658 53.6977 21.1525 53.5544 21.0725 53.4077H20.9325V56.1777H20.1425ZM22.6425 53.6177C23.1492 53.6177 23.5592 53.4577 23.8725 53.1377C24.1925 52.8111 24.3525 52.3577 24.3525 51.7777V51.6877C24.3525 51.1077 24.1925 50.6577 23.8725 50.3377C23.5592 50.0111 23.1492 49.8477 22.6425 49.8477C22.1425 49.8477 21.7292 50.0111 21.4025 50.3377C21.0825 50.6577 20.9225 51.1077 20.9225 51.6877V51.7777C20.9225 52.3577 21.0825 52.8111 21.4025 53.1377C21.7292 53.4577 22.1425 53.6177 22.6425 53.6177ZM28.818 54.3177C28.3247 54.3177 27.8914 54.2144 27.518 54.0077C27.1447 53.7944 26.8547 53.4977 26.648 53.1177C26.4414 52.7377 26.338 52.2977 26.338 51.7977V51.6777C26.338 51.1711 26.4414 50.7277 26.648 50.3477C26.8547 49.9677 27.1414 49.6744 27.508 49.4677C27.8747 49.2544 28.2947 49.1477 28.768 49.1477C29.228 49.1477 29.6347 49.2477 29.988 49.4477C30.3414 49.6411 30.618 49.9211 30.818 50.2877C31.018 50.6544 31.118 51.0844 31.118 51.5777V51.9377H27.128C27.148 52.4644 27.318 52.8777 27.638 53.1777C27.958 53.4711 28.358 53.6177 28.838 53.6177C29.258 53.6177 29.5814 53.5211 29.808 53.3277C30.0347 53.1344 30.208 52.9044 30.328 52.6377L31.008 52.9677C30.908 53.1744 30.768 53.3811 30.588 53.5877C30.4147 53.7944 30.1847 53.9677 29.898 54.1077C29.618 54.2477 29.258 54.3177 28.818 54.3177ZM27.138 51.2877H30.318C30.2914 50.8344 30.1347 50.4811 29.848 50.2277C29.568 49.9744 29.208 49.8477 28.768 49.8477C28.3214 49.8477 27.9547 49.9744 27.668 50.2277C27.3814 50.4811 27.2047 50.8344 27.138 51.2877ZM34.756 54.3177C34.2627 54.3177 33.826 54.2144 33.446 54.0077C33.0727 53.8011 32.7793 53.5111 32.566 53.1377C32.3593 52.7577 32.256 52.3111 32.256 51.7977V51.6677C32.256 51.1611 32.3593 50.7177 32.566 50.3377C32.7793 49.9577 33.0727 49.6644 33.446 49.4577C33.826 49.2511 34.2627 49.1477 34.756 49.1477C35.2493 49.1477 35.6827 49.2511 36.056 49.4577C36.436 49.6644 36.7293 49.9577 36.936 50.3377C37.1493 50.7177 37.256 51.1611 37.256 51.6677V51.7977C37.256 52.3111 37.1493 52.7577 36.936 53.1377C36.7293 53.5111 36.436 53.8011 36.056 54.0077C35.6827 54.2144 35.2493 54.3177 34.756 54.3177ZM34.756 53.6077C35.276 53.6077 35.6893 53.4444 35.996 53.1177C36.3093 52.7844 36.466 52.3377 36.466 51.7777V51.6877C36.466 51.1277 36.3093 50.6844 35.996 50.3577C35.6893 50.0244 35.276 49.8577 34.756 49.8577C34.2427 49.8577 33.8293 50.0244 33.516 50.3577C33.2027 50.6844 33.046 51.1277 33.046 51.6877V51.7777C33.046 52.3377 33.2027 52.7844 33.516 53.1177C33.8293 53.4444 34.2427 53.6077 34.756 53.6077ZM38.6777 56.1777V49.2877H39.4477V50.0977H39.5877C39.7143 49.8511 39.9177 49.6311 40.1977 49.4377C40.4843 49.2444 40.881 49.1477 41.3877 49.1477C41.8077 49.1477 42.191 49.2511 42.5377 49.4577C42.891 49.6577 43.171 49.9444 43.3777 50.3177C43.591 50.6911 43.6977 51.1411 43.6977 51.6677V51.7977C43.6977 52.3177 43.5943 52.7677 43.3877 53.1477C43.181 53.5277 42.901 53.8177 42.5477 54.0177C42.201 54.2177 41.8143 54.3177 41.3877 54.3177C41.0477 54.3177 40.7577 54.2711 40.5177 54.1777C40.2843 54.0911 40.0943 53.9777 39.9477 53.8377C39.801 53.6977 39.6877 53.5544 39.6077 53.4077H39.4677V56.1777H38.6777ZM41.1777 53.6177C41.6843 53.6177 42.0943 53.4577 42.4077 53.1377C42.7277 52.8111 42.8877 52.3577 42.8877 51.7777V51.6877C42.8877 51.1077 42.7277 50.6577 42.4077 50.3377C42.0943 50.0111 41.6843 49.8477 41.1777 49.8477C40.6777 49.8477 40.2643 50.0111 39.9377 50.3377C39.6177 50.6577 39.4577 51.1077 39.4577 51.6877V51.7777C39.4577 52.3577 39.6177 52.8111 39.9377 53.1377C40.2643 53.4577 40.6777 53.6177 41.1777 53.6177ZM45.1132 54.1777V47.1777H45.9032V54.1777H45.1132ZM49.8044 54.3177C49.311 54.3177 48.8777 54.2144 48.5044 54.0077C48.131 53.7944 47.841 53.4977 47.6344 53.1177C47.4277 52.7377 47.3244 52.2977 47.3244 51.7977V51.6777C47.3244 51.1711 47.4277 50.7277 47.6344 50.3477C47.841 49.9677 48.1277 49.6744 48.4944 49.4677C48.861 49.2544 49.281 49.1477 49.7544 49.1477C50.2144 49.1477 50.621 49.2477 50.9744 49.4477C51.3277 49.6411 51.6044 49.9211 51.8044 50.2877C52.0044 50.6544 52.1044 51.0844 52.1044 51.5777V51.9377H48.1144C48.1344 52.4644 48.3044 52.8777 48.6244 53.1777C48.9444 53.4711 49.3444 53.6177 49.8244 53.6177C50.2444 53.6177 50.5677 53.5211 50.7944 53.3277C51.021 53.1344 51.1944 52.9044 51.3144 52.6377L51.9944 52.9677C51.8944 53.1744 51.7544 53.3811 51.5744 53.5877C51.401 53.7944 51.171 53.9677 50.8844 54.1077C50.6044 54.2477 50.2444 54.3177 49.8044 54.3177ZM48.1244 51.2877H51.3044C51.2777 50.8344 51.121 50.4811 50.8344 50.2277C50.5544 49.9744 50.1944 49.8477 49.7544 49.8477C49.3077 49.8477 48.941 49.9744 48.6544 50.2277C48.3677 50.4811 48.191 50.8344 48.1244 51.2877Z" fill="white"/>
</svg>
