<svg width="326" height="244" viewBox="0 0 326 244" fill="none" xmlns="http://www.w3.org/2000/svg">
<rect x="244.371" y="162.678" width="81.25" height="81.25" fill="#F1FEA3" stroke="white" stroke-width="4"/>
<rect x="0.621094" y="0.177734" width="81.25" height="81.25" fill="#E4FD53" stroke="white" stroke-width="4"/>
<path fill-rule="evenodd" clip-rule="evenodd" d="M163.121 0.177734H81.8711V81.4277H0.621094V162.678H81.8711H163.121H244.371H325.621V81.4277V0.177734H244.371H163.121Z" fill="#D7FB03"/>
<path d="M81.8711 0.177734V-1.82227H79.8711V0.177734H81.8711ZM81.8711 81.4277V83.4277H83.8711V81.4277H81.8711ZM0.621094 81.4277V79.4277H-1.37891V81.4277H0.621094ZM0.621094 162.678H-1.37891V164.678H0.621094V162.678ZM325.621 162.678V164.678H327.621V162.678H325.621ZM325.621 0.177734H327.621V-1.82227H325.621V0.177734ZM81.8711 2.17773H163.121V-1.82227H81.8711V2.17773ZM83.8711 81.4277V0.177734H79.8711V81.4277H83.8711ZM0.621094 83.4277H81.8711V79.4277H0.621094V83.4277ZM2.62109 162.678V81.4277H-1.37891V162.678H2.62109ZM81.8711 160.678H0.621094V164.678H81.8711V160.678ZM163.121 160.678H81.8711V164.678H163.121V160.678ZM244.371 160.678H163.121V164.678H244.371V160.678ZM325.621 160.678H244.371V164.678H325.621V160.678ZM323.621 81.4277V162.678H327.621V81.4277H323.621ZM323.621 0.177734V81.4277H327.621V0.177734H323.621ZM244.371 2.17773H325.621V-1.82227H244.371V2.17773ZM163.121 2.17773H244.371V-1.82227H163.121V2.17773Z" fill="white"/>
<path fill-rule="evenodd" clip-rule="evenodd" d="M0.621094 162.677H81.8711H163.121H244.371V243.927H163.121H81.8711H0.621094V162.677Z" fill="#D7FB03"/>
<path d="M0.621094 162.677V160.677H-1.37891V162.677H0.621094ZM244.371 162.677H246.371V160.677H244.371V162.677ZM244.371 243.927V245.927H246.371V243.927H244.371ZM0.621094 243.927H-1.37891V245.927H0.621094V243.927ZM81.8711 160.677H0.621094V164.677H81.8711V160.677ZM81.8711 164.677H163.121V160.677H81.8711V164.677ZM244.371 160.677H163.121V164.677H244.371V160.677ZM246.371 243.927V162.677H242.371V243.927H246.371ZM163.121 245.927H244.371V241.927H163.121V245.927ZM163.121 241.927H81.8711V245.927H163.121V241.927ZM0.621094 245.927H81.8711V241.927H0.621094V245.927ZM-1.37891 162.677V243.927H2.62109V162.677H-1.37891Z" fill="white"/>
<path fill-rule="evenodd" clip-rule="evenodd" d="M81.8711 0.177734H163.121H244.371H325.621V81.4277V162.678H244.371V243.927H163.121H81.8711H0.621094V162.678V162.677V81.4277H81.8711V0.177734Z" fill="#D7FB03"/>
<path d="M81.8711 0.177734V-1.82227H79.8711V0.177734H81.8711ZM325.621 0.177734H327.621V-1.82227H325.621V0.177734ZM325.621 162.678V164.678H327.621V162.678H325.621ZM244.371 162.678V160.678H242.371V162.678H244.371ZM244.371 243.927V245.927H246.371V243.927H244.371ZM0.621094 243.927H-1.37891V245.927H0.621094V243.927ZM0.621094 81.4277V79.4277H-1.37891V81.4277H0.621094ZM81.8711 81.4277V83.4277H83.8711V81.4277H81.8711ZM163.121 -1.82227H81.8711V2.17773H163.121V-1.82227ZM244.371 -1.82227H163.121V2.17773H244.371V-1.82227ZM325.621 -1.82227H244.371V2.17773H325.621V-1.82227ZM327.621 81.4277V0.177734H323.621V81.4277H327.621ZM327.621 162.678V81.4277H323.621V162.678H327.621ZM244.371 164.678H325.621V160.678H244.371V164.678ZM242.371 162.678V243.927H246.371V162.678H242.371ZM244.371 241.927H163.121V245.927H244.371V241.927ZM163.121 241.927H81.8711V245.927H163.121V241.927ZM81.8711 241.927H0.621094V245.927H81.8711V241.927ZM2.62109 243.927V162.678H-1.37891V243.927H2.62109ZM2.62109 162.678V162.677H-1.37891V162.678H2.62109ZM-1.37891 81.4277V162.677H2.62109V81.4277H-1.37891ZM81.8711 79.4277H0.621094V83.4277H81.8711V79.4277ZM79.8711 0.177734V81.4277H83.8711V0.177734H79.8711Z" fill="white"/>
<path d="M94.6071 20.1777V13.2177H92.1591V11.7777H98.6391V13.2177H96.1911V20.1777H94.6071ZM99.7658 20.1777V11.7777H101.278V14.9577H101.494C101.558 14.8297 101.658 14.7017 101.794 14.5737C101.93 14.4457 102.11 14.3417 102.334 14.2617C102.566 14.1737 102.858 14.1297 103.21 14.1297C103.674 14.1297 104.078 14.2377 104.422 14.4537C104.774 14.6617 105.046 14.9537 105.238 15.3297C105.43 15.6977 105.526 16.1297 105.526 16.6257V20.1777H104.014V16.7457C104.014 16.2977 103.902 15.9617 103.678 15.7377C103.462 15.5137 103.15 15.4017 102.742 15.4017C102.278 15.4017 101.918 15.5577 101.662 15.8697C101.406 16.1737 101.278 16.6017 101.278 17.1537V20.1777H99.7658ZM107.16 20.1777V14.2257H108.672V20.1777H107.16ZM107.916 13.5297C107.644 13.5297 107.412 13.4417 107.22 13.2657C107.036 13.0897 106.944 12.8577 106.944 12.5697C106.944 12.2817 107.036 12.0497 107.22 11.8737C107.412 11.6977 107.644 11.6097 107.916 11.6097C108.196 11.6097 108.428 11.6977 108.612 11.8737C108.796 12.0497 108.888 12.2817 108.888 12.5697C108.888 12.8577 108.796 13.0897 108.612 13.2657C108.428 13.4417 108.196 13.5297 107.916 13.5297ZM110.348 20.1777V14.2257H111.836V14.8977H112.052C112.14 14.6577 112.284 14.4817 112.484 14.3697C112.692 14.2577 112.932 14.2017 113.204 14.2017H113.924V15.5457H113.18C112.796 15.5457 112.48 15.6497 112.232 15.8577C111.984 16.0577 111.86 16.3697 111.86 16.7937V20.1777H110.348ZM117.386 20.1777C116.994 20.1777 116.674 20.0577 116.426 19.8177C116.186 19.5697 116.066 19.2417 116.066 18.8337V15.4737H114.578V14.2257H116.066V12.3777H117.578V14.2257H119.21V15.4737H117.578V18.5697C117.578 18.8097 117.69 18.9297 117.914 18.9297H119.066V20.1777H117.386ZM120.578 20.1777V14.2257H122.09V20.1777H120.578ZM121.334 13.5297C121.062 13.5297 120.83 13.4417 120.638 13.2657C120.454 13.0897 120.362 12.8577 120.362 12.5697C120.362 12.2817 120.454 12.0497 120.638 11.8737C120.83 11.6977 121.062 11.6097 121.334 11.6097C121.614 11.6097 121.846 11.6977 122.03 11.8737C122.214 12.0497 122.306 12.2817 122.306 12.5697C122.306 12.8577 122.214 13.0897 122.03 13.2657C121.846 13.4417 121.614 13.5297 121.334 13.5297ZM126.478 20.3457C125.886 20.3457 125.362 20.2217 124.906 19.9737C124.458 19.7177 124.106 19.3617 123.85 18.9057C123.602 18.4417 123.478 17.8977 123.478 17.2737V17.1297C123.478 16.5057 123.602 15.9657 123.85 15.5097C124.098 15.0457 124.446 14.6897 124.894 14.4417C125.342 14.1857 125.862 14.0577 126.454 14.0577C127.038 14.0577 127.546 14.1897 127.978 14.4537C128.41 14.7097 128.746 15.0697 128.986 15.5337C129.226 15.9897 129.346 16.5217 129.346 17.1297V17.6457H125.014C125.03 18.0537 125.182 18.3857 125.47 18.6417C125.758 18.8977 126.11 19.0257 126.526 19.0257C126.95 19.0257 127.262 18.9337 127.462 18.7497C127.662 18.5657 127.814 18.3617 127.918 18.1377L129.154 18.7857C129.042 18.9937 128.878 19.2217 128.662 19.4697C128.454 19.7097 128.174 19.9177 127.822 20.0937C127.47 20.2617 127.022 20.3457 126.478 20.3457ZM125.026 16.5177H127.81C127.778 16.1737 127.638 15.8977 127.39 15.6897C127.15 15.4817 126.834 15.3777 126.442 15.3777C126.034 15.3777 125.71 15.4817 125.47 15.6897C125.23 15.8977 125.082 16.1737 125.026 16.5177ZM133.164 20.3457C132.388 20.3457 131.752 20.1777 131.256 19.8417C130.76 19.5057 130.46 19.0257 130.356 18.4017L131.748 18.0417C131.804 18.3217 131.896 18.5417 132.024 18.7017C132.16 18.8617 132.324 18.9777 132.516 19.0497C132.716 19.1137 132.932 19.1457 133.164 19.1457C133.516 19.1457 133.776 19.0857 133.944 18.9657C134.112 18.8377 134.196 18.6817 134.196 18.4977C134.196 18.3137 134.116 18.1737 133.956 18.0777C133.796 17.9737 133.54 17.8897 133.188 17.8257L132.852 17.7657C132.436 17.6857 132.056 17.5777 131.712 17.4417C131.368 17.2977 131.092 17.1017 130.884 16.8537C130.676 16.6057 130.572 16.2857 130.572 15.8937C130.572 15.3017 130.788 14.8497 131.22 14.5377C131.652 14.2177 132.22 14.0577 132.924 14.0577C133.588 14.0577 134.14 14.2057 134.58 14.5017C135.02 14.7977 135.308 15.1857 135.444 15.6657L134.04 16.0977C133.976 15.7937 133.844 15.5777 133.644 15.4497C133.452 15.3217 133.212 15.2577 132.924 15.2577C132.636 15.2577 132.416 15.3097 132.264 15.4137C132.112 15.5097 132.036 15.6457 132.036 15.8217C132.036 16.0137 132.116 16.1577 132.276 16.2537C132.436 16.3417 132.652 16.4097 132.924 16.4577L133.26 16.5177C133.708 16.5977 134.112 16.7057 134.472 16.8417C134.84 16.9697 135.128 17.1577 135.336 17.4057C135.552 17.6457 135.66 17.9737 135.66 18.3897C135.66 19.0137 135.432 19.4977 134.976 19.8417C134.528 20.1777 133.924 20.3457 133.164 20.3457ZM94.4411 38.1777V31.7177H94.2911L92.9311 34.2077H92.0511L93.7211 31.1777H95.2511V38.1777H94.4411ZM99.2508 38.3177C98.4574 38.3177 97.8241 38.0844 97.3508 37.6177C96.8841 37.1444 96.6508 36.4377 96.6508 35.4977V33.8577C96.6508 32.9244 96.8841 32.2211 97.3508 31.7477C97.8241 31.2744 98.4574 31.0377 99.2508 31.0377C100.051 31.0377 100.684 31.2744 101.151 31.7477C101.624 32.2211 101.861 32.9244 101.861 33.8577V35.4977C101.861 36.4377 101.624 37.1444 101.151 37.6177C100.684 38.0844 100.051 38.3177 99.2508 38.3177ZM99.2508 37.5877C99.8508 37.5877 100.301 37.4077 100.601 37.0477C100.901 36.6877 101.051 36.1844 101.051 35.5377V33.8077C101.051 33.1611 100.897 32.6611 100.591 32.3077C100.284 31.9477 99.8374 31.7677 99.2508 31.7677C98.6641 31.7677 98.2174 31.9477 97.9108 32.3077C97.6108 32.6677 97.4608 33.1677 97.4608 33.8077V35.5377C97.4608 36.1911 97.6108 36.6977 97.9108 37.0577C98.2108 37.4111 98.6574 37.5877 99.2508 37.5877ZM105.855 40.1777V33.2877H106.625V34.0977H106.765C106.892 33.8511 107.095 33.6311 107.375 33.4377C107.662 33.2444 108.059 33.1477 108.565 33.1477C108.985 33.1477 109.369 33.2511 109.715 33.4577C110.069 33.6577 110.349 33.9444 110.555 34.3177C110.769 34.6911 110.875 35.1411 110.875 35.6677V35.7977C110.875 36.3177 110.772 36.7677 110.565 37.1477C110.359 37.5277 110.079 37.8177 109.725 38.0177C109.379 38.2177 108.992 38.3177 108.565 38.3177C108.225 38.3177 107.935 38.2711 107.695 38.1777C107.462 38.0911 107.272 37.9777 107.125 37.8377C106.979 37.6977 106.865 37.5544 106.785 37.4077H106.645V40.1777H105.855ZM108.355 37.6177C108.862 37.6177 109.272 37.4577 109.585 37.1377C109.905 36.8111 110.065 36.3577 110.065 35.7777V35.6877C110.065 35.1077 109.905 34.6577 109.585 34.3377C109.272 34.0111 108.862 33.8477 108.355 33.8477C107.855 33.8477 107.442 34.0111 107.115 34.3377C106.795 34.6577 106.635 35.1077 106.635 35.6877V35.7777C106.635 36.3577 106.795 36.8111 107.115 37.1377C107.442 37.4577 107.855 37.6177 108.355 37.6177ZM114.531 38.3177C114.038 38.3177 113.604 38.2144 113.231 38.0077C112.858 37.7944 112.568 37.4977 112.361 37.1177C112.154 36.7377 112.051 36.2977 112.051 35.7977V35.6777C112.051 35.1711 112.154 34.7277 112.361 34.3477C112.568 33.9677 112.854 33.6744 113.221 33.4677C113.588 33.2544 114.008 33.1477 114.481 33.1477C114.941 33.1477 115.348 33.2477 115.701 33.4477C116.054 33.6411 116.331 33.9211 116.531 34.2877C116.731 34.6544 116.831 35.0844 116.831 35.5777V35.9377H112.841C112.861 36.4644 113.031 36.8777 113.351 37.1777C113.671 37.4711 114.071 37.6177 114.551 37.6177C114.971 37.6177 115.294 37.5211 115.521 37.3277C115.748 37.1344 115.921 36.9044 116.041 36.6377L116.721 36.9677C116.621 37.1744 116.481 37.3811 116.301 37.5877C116.128 37.7944 115.898 37.9677 115.611 38.1077C115.331 38.2477 114.971 38.3177 114.531 38.3177ZM112.851 35.2877H116.031C116.004 34.8344 115.848 34.4811 115.561 34.2277C115.281 33.9744 114.921 33.8477 114.481 33.8477C114.034 33.8477 113.668 33.9744 113.381 34.2277C113.094 34.4811 112.918 34.8344 112.851 35.2877ZM120.469 38.3177C119.976 38.3177 119.539 38.2144 119.159 38.0077C118.786 37.8011 118.492 37.5111 118.279 37.1377C118.072 36.7577 117.969 36.3111 117.969 35.7977V35.6677C117.969 35.1611 118.072 34.7177 118.279 34.3377C118.492 33.9577 118.786 33.6644 119.159 33.4577C119.539 33.2511 119.976 33.1477 120.469 33.1477C120.962 33.1477 121.396 33.2511 121.769 33.4577C122.149 33.6644 122.442 33.9577 122.649 34.3377C122.862 34.7177 122.969 35.1611 122.969 35.6677V35.7977C122.969 36.3111 122.862 36.7577 122.649 37.1377C122.442 37.5111 122.149 37.8011 121.769 38.0077C121.396 38.2144 120.962 38.3177 120.469 38.3177ZM120.469 37.6077C120.989 37.6077 121.402 37.4444 121.709 37.1177C122.022 36.7844 122.179 36.3377 122.179 35.7777V35.6877C122.179 35.1277 122.022 34.6844 121.709 34.3577C121.402 34.0244 120.989 33.8577 120.469 33.8577C119.956 33.8577 119.542 34.0244 119.229 34.3577C118.916 34.6844 118.759 35.1277 118.759 35.6877V35.7777C118.759 36.3377 118.916 36.7844 119.229 37.1177C119.542 37.4444 119.956 37.6077 120.469 37.6077ZM124.391 40.1777V33.2877H125.161V34.0977H125.301C125.427 33.8511 125.631 33.6311 125.911 33.4377C126.197 33.2444 126.594 33.1477 127.101 33.1477C127.521 33.1477 127.904 33.2511 128.251 33.4577C128.604 33.6577 128.884 33.9444 129.091 34.3177C129.304 34.6911 129.411 35.1411 129.411 35.6677V35.7977C129.411 36.3177 129.307 36.7677 129.101 37.1477C128.894 37.5277 128.614 37.8177 128.261 38.0177C127.914 38.2177 127.527 38.3177 127.101 38.3177C126.761 38.3177 126.471 38.2711 126.231 38.1777C125.997 38.0911 125.807 37.9777 125.661 37.8377C125.514 37.6977 125.401 37.5544 125.321 37.4077H125.181V40.1777H124.391ZM126.891 37.6177C127.397 37.6177 127.807 37.4577 128.121 37.1377C128.441 36.8111 128.601 36.3577 128.601 35.7777V35.6877C128.601 35.1077 128.441 34.6577 128.121 34.3377C127.807 34.0111 127.397 33.8477 126.891 33.8477C126.391 33.8477 125.977 34.0111 125.651 34.3377C125.331 34.6577 125.171 35.1077 125.171 35.6877V35.7777C125.171 36.3577 125.331 36.8111 125.651 37.1377C125.977 37.4577 126.391 37.6177 126.891 37.6177ZM130.826 38.1777V31.1777H131.616V38.1777H130.826ZM135.517 38.3177C135.024 38.3177 134.591 38.2144 134.217 38.0077C133.844 37.7944 133.554 37.4977 133.347 37.1177C133.141 36.7377 133.037 36.2977 133.037 35.7977V35.6777C133.037 35.1711 133.141 34.7277 133.347 34.3477C133.554 33.9677 133.841 33.6744 134.207 33.4677C134.574 33.2544 134.994 33.1477 135.467 33.1477C135.927 33.1477 136.334 33.2477 136.687 33.4477C137.041 33.6411 137.317 33.9211 137.517 34.2877C137.717 34.6544 137.817 35.0844 137.817 35.5777V35.9377H133.827C133.847 36.4644 134.017 36.8777 134.337 37.1777C134.657 37.4711 135.057 37.6177 135.537 37.6177C135.957 37.6177 136.281 37.5211 136.507 37.3277C136.734 37.1344 136.907 36.9044 137.027 36.6377L137.707 36.9677C137.607 37.1744 137.467 37.3811 137.287 37.5877C137.114 37.7944 136.884 37.9677 136.597 38.1077C136.317 38.2477 135.957 38.3177 135.517 38.3177ZM133.837 35.2877H137.017C136.991 34.8344 136.834 34.4811 136.547 34.2277C136.267 33.9744 135.907 33.8477 135.467 33.8477C135.021 33.8477 134.654 33.9744 134.367 34.2277C134.081 34.4811 133.904 34.8344 133.837 35.2877Z" fill="black"/>
<path d="M11.4131 20.1777V11.7777H12.9971V18.7377H16.8371V20.1777H11.4131ZM19.813 20.3457C19.389 20.3457 19.009 20.2737 18.673 20.1297C18.337 19.9777 18.069 19.7617 17.869 19.4817C17.677 19.1937 17.581 18.8457 17.581 18.4377C17.581 18.0297 17.677 17.6897 17.869 17.4177C18.069 17.1377 18.341 16.9297 18.685 16.7937C19.037 16.6497 19.437 16.5777 19.885 16.5777H21.517V16.2417C21.517 15.9617 21.429 15.7337 21.253 15.5577C21.077 15.3737 20.797 15.2817 20.413 15.2817C20.037 15.2817 19.757 15.3697 19.573 15.5457C19.389 15.7137 19.269 15.9337 19.213 16.2057L17.821 15.7377C17.917 15.4337 18.069 15.1577 18.277 14.9097C18.493 14.6537 18.777 14.4497 19.129 14.2977C19.489 14.1377 19.925 14.0577 20.437 14.0577C21.221 14.0577 21.841 14.2537 22.297 14.6457C22.753 15.0377 22.981 15.6057 22.981 16.3497V18.5697C22.981 18.8097 23.093 18.9297 23.317 18.9297H23.797V20.1777H22.789C22.493 20.1777 22.249 20.1057 22.057 19.9617C21.865 19.8177 21.769 19.6257 21.769 19.3857V19.3737H21.541C21.509 19.4697 21.437 19.5977 21.325 19.7577C21.213 19.9097 21.037 20.0457 20.797 20.1657C20.557 20.2857 20.229 20.3457 19.813 20.3457ZM20.077 19.1217C20.501 19.1217 20.845 19.0057 21.109 18.7737C21.381 18.5337 21.517 18.2177 21.517 17.8257V17.7057H19.993C19.713 17.7057 19.493 17.7657 19.333 17.8857C19.173 18.0057 19.093 18.1737 19.093 18.3897C19.093 18.6057 19.177 18.7817 19.345 18.9177C19.513 19.0537 19.757 19.1217 20.077 19.1217ZM26.7489 20.1777C26.3569 20.1777 26.0369 20.0577 25.7889 19.8177C25.5489 19.5697 25.4289 19.2417 25.4289 18.8337V15.4737H23.9409V14.2257H25.4289V12.3777H26.9409V14.2257H28.5729V15.4737H26.9409V18.5697C26.9409 18.8097 27.0529 18.9297 27.2769 18.9297H28.4289V20.1777H26.7489ZM32.4426 20.3457C31.8506 20.3457 31.3266 20.2217 30.8706 19.9737C30.4226 19.7177 30.0706 19.3617 29.8146 18.9057C29.5666 18.4417 29.4426 17.8977 29.4426 17.2737V17.1297C29.4426 16.5057 29.5666 15.9657 29.8146 15.5097C30.0626 15.0457 30.4106 14.6897 30.8586 14.4417C31.3066 14.1857 31.8266 14.0577 32.4186 14.0577C33.0026 14.0577 33.5106 14.1897 33.9426 14.4537C34.3746 14.7097 34.7106 15.0697 34.9506 15.5337C35.1906 15.9897 35.3106 16.5217 35.3106 17.1297V17.6457H30.9786C30.9946 18.0537 31.1466 18.3857 31.4346 18.6417C31.7226 18.8977 32.0746 19.0257 32.4906 19.0257C32.9146 19.0257 33.2266 18.9337 33.4266 18.7497C33.6266 18.5657 33.7786 18.3617 33.8826 18.1377L35.1186 18.7857C35.0066 18.9937 34.8426 19.2217 34.6266 19.4697C34.4186 19.7097 34.1386 19.9177 33.7866 20.0937C33.4346 20.2617 32.9866 20.3457 32.4426 20.3457ZM30.9906 16.5177H33.7746C33.7426 16.1737 33.6026 15.8977 33.3546 15.6897C33.1146 15.4817 32.7986 15.3777 32.4066 15.3777C31.9986 15.3777 31.6746 15.4817 31.4346 15.6897C31.1946 15.8977 31.0466 16.1737 30.9906 16.5177ZM13.3571 36.1777V29.2177H10.9091V27.7777H17.3891V29.2177H14.9411V36.1777H13.3571ZM18.1755 36.1777L17.3355 30.2257H18.8355L19.3635 35.1577H19.5795L20.3475 30.2257H22.7715L23.5395 35.1577H23.7555L24.2835 30.2257H25.7835L24.9435 36.1777H22.4355L21.6675 31.2457H21.4515L20.6835 36.1777H18.1755ZM29.7942 36.3457C29.2022 36.3457 28.6782 36.2217 28.2222 35.9737C27.7742 35.7177 27.4222 35.3617 27.1662 34.9057C26.9182 34.4417 26.7942 33.8977 26.7942 33.2737V33.1297C26.7942 32.5057 26.9182 31.9657 27.1662 31.5097C27.4142 31.0457 27.7622 30.6897 28.2102 30.4417C28.6582 30.1857 29.1782 30.0577 29.7702 30.0577C30.3542 30.0577 30.8622 30.1897 31.2942 30.4537C31.7262 30.7097 32.0622 31.0697 32.3022 31.5337C32.5422 31.9897 32.6622 32.5217 32.6622 33.1297V33.6457H28.3302C28.3462 34.0537 28.4982 34.3857 28.7862 34.6417C29.0742 34.8977 29.4262 35.0257 29.8422 35.0257C30.2662 35.0257 30.5782 34.9337 30.7782 34.7497C30.9782 34.5657 31.1302 34.3617 31.2342 34.1377L32.4702 34.7857C32.3582 34.9937 32.1942 35.2217 31.9782 35.4697C31.7702 35.7097 31.4902 35.9177 31.1382 36.0937C30.7862 36.2617 30.3382 36.3457 29.7942 36.3457ZM28.3422 32.5177H31.1262C31.0942 32.1737 30.9542 31.8977 30.7062 31.6897C30.4662 31.4817 30.1502 31.3777 29.7582 31.3777C29.3502 31.3777 29.0262 31.4817 28.7862 31.6897C28.5462 31.8977 28.3982 32.1737 28.3422 32.5177ZM34.008 36.1777V30.2257H35.496V31.0057H35.712C35.808 30.7977 35.988 30.6017 36.252 30.4177C36.516 30.2257 36.916 30.1297 37.452 30.1297C37.916 30.1297 38.32 30.2377 38.664 30.4537C39.016 30.6617 39.288 30.9537 39.48 31.3297C39.672 31.6977 39.768 32.1297 39.768 32.6257V36.1777H38.256V32.7457C38.256 32.2977 38.144 31.9617 37.92 31.7377C37.704 31.5137 37.392 31.4017 36.984 31.4017C36.52 31.4017 36.16 31.5577 35.904 31.8697C35.648 32.1737 35.52 32.6017 35.52 33.1537V36.1777H34.008ZM43.5184 36.1777C43.1264 36.1777 42.8064 36.0577 42.5584 35.8177C42.3184 35.5697 42.1984 35.2417 42.1984 34.8337V31.4737H40.7104V30.2257H42.1984V28.3777H43.7104V30.2257H45.3424V31.4737H43.7104V34.5697C43.7104 34.8097 43.8224 34.9297 44.0464 34.9297H45.1984V36.1777H43.5184ZM46.7111 36.1777V30.2257H48.2231V36.1777H46.7111ZM47.4671 29.5297C47.1951 29.5297 46.9631 29.4417 46.7711 29.2657C46.5871 29.0897 46.4951 28.8577 46.4951 28.5697C46.4951 28.2817 46.5871 28.0497 46.7711 27.8737C46.9631 27.6977 47.1951 27.6097 47.4671 27.6097C47.7471 27.6097 47.9791 27.6977 48.1631 27.8737C48.3471 28.0497 48.4391 28.2817 48.4391 28.5697C48.4391 28.8577 48.3471 29.0897 48.1631 29.2657C47.9791 29.4417 47.7471 29.5297 47.4671 29.5297ZM52.6106 36.3457C52.0186 36.3457 51.4946 36.2217 51.0386 35.9737C50.5906 35.7177 50.2386 35.3617 49.9826 34.9057C49.7346 34.4417 49.6106 33.8977 49.6106 33.2737V33.1297C49.6106 32.5057 49.7346 31.9657 49.9826 31.5097C50.2306 31.0457 50.5786 30.6897 51.0266 30.4417C51.4746 30.1857 51.9946 30.0577 52.5866 30.0577C53.1706 30.0577 53.6786 30.1897 54.1106 30.4537C54.5426 30.7097 54.8786 31.0697 55.1186 31.5337C55.3586 31.9897 55.4786 32.5217 55.4786 33.1297V33.6457H51.1466C51.1626 34.0537 51.3146 34.3857 51.6026 34.6417C51.8906 34.8977 52.2426 35.0257 52.6586 35.0257C53.0826 35.0257 53.3946 34.9337 53.5946 34.7497C53.7946 34.5657 53.9466 34.3617 54.0506 34.1377L55.2866 34.7857C55.1746 34.9937 55.0106 35.2217 54.7946 35.4697C54.5866 35.7097 54.3066 35.9177 53.9546 36.0937C53.6026 36.2617 53.1546 36.3457 52.6106 36.3457ZM51.1586 32.5177H53.9426C53.9106 32.1737 53.7706 31.8977 53.5226 31.6897C53.2826 31.4817 52.9666 31.3777 52.5746 31.3777C52.1666 31.3777 51.8426 31.4817 51.6026 31.6897C51.3626 31.8977 51.2146 32.1737 51.1586 32.5177ZM59.2964 36.3457C58.5204 36.3457 57.8844 36.1777 57.3884 35.8417C56.8924 35.5057 56.5924 35.0257 56.4884 34.4017L57.8804 34.0417C57.9364 34.3217 58.0284 34.5417 58.1564 34.7017C58.2924 34.8617 58.4564 34.9777 58.6484 35.0497C58.8484 35.1137 59.0644 35.1457 59.2964 35.1457C59.6484 35.1457 59.9084 35.0857 60.0764 34.9657C60.2444 34.8377 60.3284 34.6817 60.3284 34.4977C60.3284 34.3137 60.2484 34.1737 60.0884 34.0777C59.9284 33.9737 59.6724 33.8897 59.3204 33.8257L58.9844 33.7657C58.5684 33.6857 58.1884 33.5777 57.8444 33.4417C57.5004 33.2977 57.2244 33.1017 57.0164 32.8537C56.8084 32.6057 56.7044 32.2857 56.7044 31.8937C56.7044 31.3017 56.9204 30.8497 57.3524 30.5377C57.7844 30.2177 58.3524 30.0577 59.0564 30.0577C59.7204 30.0577 60.2724 30.2057 60.7124 30.5017C61.1524 30.7977 61.4404 31.1857 61.5764 31.6657L60.1724 32.0977C60.1084 31.7937 59.9764 31.5777 59.7764 31.4497C59.5844 31.3217 59.3444 31.2577 59.0564 31.2577C58.7684 31.2577 58.5484 31.3097 58.3964 31.4137C58.2444 31.5097 58.1684 31.6457 58.1684 31.8217C58.1684 32.0137 58.2484 32.1577 58.4084 32.2537C58.5684 32.3417 58.7844 32.4097 59.0564 32.4577L59.3924 32.5177C59.8404 32.5977 60.2444 32.7057 60.6044 32.8417C60.9724 32.9697 61.2604 33.1577 61.4684 33.4057C61.6844 33.6457 61.7924 33.9737 61.7924 34.3897C61.7924 35.0137 61.5644 35.4977 61.1084 35.8417C60.6604 36.1777 60.0564 36.3457 59.2964 36.3457ZM13.1911 54.1777V47.7177H13.0411L11.6811 50.2077H10.8011L12.4711 47.1777H14.0011V54.1777H13.1911ZM18.1991 56.1777V49.2877H18.9691V50.0977H19.1091C19.2358 49.8511 19.4391 49.6311 19.7191 49.4377C20.0058 49.2444 20.4025 49.1477 20.9091 49.1477C21.3291 49.1477 21.7125 49.2511 22.0591 49.4577C22.4125 49.6577 22.6925 49.9444 22.8991 50.3177C23.1125 50.6911 23.2191 51.1411 23.2191 51.6677V51.7977C23.2191 52.3177 23.1158 52.7677 22.9091 53.1477C22.7025 53.5277 22.4225 53.8177 22.0691 54.0177C21.7225 54.2177 21.3358 54.3177 20.9091 54.3177C20.5691 54.3177 20.2791 54.2711 20.0391 54.1777C19.8058 54.0911 19.6158 53.9777 19.4691 53.8377C19.3225 53.6977 19.2091 53.5544 19.1291 53.4077H18.9891V56.1777H18.1991ZM20.6991 53.6177C21.2058 53.6177 21.6158 53.4577 21.9291 53.1377C22.2491 52.8111 22.4091 52.3577 22.4091 51.7777V51.6877C22.4091 51.1077 22.2491 50.6577 21.9291 50.3377C21.6158 50.0111 21.2058 49.8477 20.6991 49.8477C20.1991 49.8477 19.7858 50.0111 19.4591 50.3377C19.1391 50.6577 18.9791 51.1077 18.9791 51.6877V51.7777C18.9791 52.3577 19.1391 52.8111 19.4591 53.1377C19.7858 53.4577 20.1991 53.6177 20.6991 53.6177ZM26.8747 54.3177C26.3814 54.3177 25.948 54.2144 25.5747 54.0077C25.2014 53.7944 24.9114 53.4977 24.7047 53.1177C24.498 52.7377 24.3947 52.2977 24.3947 51.7977V51.6777C24.3947 51.1711 24.498 50.7277 24.7047 50.3477C24.9114 49.9677 25.198 49.6744 25.5647 49.4677C25.9314 49.2544 26.3514 49.1477 26.8247 49.1477C27.2847 49.1477 27.6914 49.2477 28.0447 49.4477C28.398 49.6411 28.6747 49.9211 28.8747 50.2877C29.0747 50.6544 29.1747 51.0844 29.1747 51.5777V51.9377H25.1847C25.2047 52.4644 25.3747 52.8777 25.6947 53.1777C26.0147 53.4711 26.4147 53.6177 26.8947 53.6177C27.3147 53.6177 27.638 53.5211 27.8647 53.3277C28.0914 53.1344 28.2647 52.9044 28.3847 52.6377L29.0647 52.9677C28.9647 53.1744 28.8247 53.3811 28.6447 53.5877C28.4714 53.7944 28.2414 53.9677 27.9547 54.1077C27.6747 54.2477 27.3147 54.3177 26.8747 54.3177ZM25.1947 51.2877H28.3747C28.348 50.8344 28.1914 50.4811 27.9047 50.2277C27.6247 49.9744 27.2647 49.8477 26.8247 49.8477C26.378 49.8477 26.0114 49.9744 25.7247 50.2277C25.438 50.4811 25.2614 50.8344 25.1947 51.2877ZM30.5527 54.1777V49.2877H31.3227V49.8877H31.4627C31.5493 49.6744 31.6827 49.5177 31.8627 49.4177C32.0427 49.3177 32.2793 49.2677 32.5727 49.2677H33.1527V49.9877H32.5227C32.1693 49.9877 31.8827 50.0877 31.6627 50.2877C31.4493 50.4811 31.3427 50.7844 31.3427 51.1977V54.1777H30.5527ZM36.1945 54.3177C35.5879 54.3177 35.0745 54.1777 34.6545 53.8977C34.2412 53.6177 33.9912 53.1744 33.9045 52.5677L34.6545 52.3977C34.7079 52.7177 34.8079 52.9711 34.9545 53.1577C35.1012 53.3377 35.2812 53.4677 35.4945 53.5477C35.7145 53.6211 35.9479 53.6577 36.1945 53.6577C36.5612 53.6577 36.8512 53.5844 37.0645 53.4377C37.2779 53.2911 37.3845 53.0944 37.3845 52.8477C37.3845 52.5944 37.2812 52.4177 37.0745 52.3177C36.8745 52.2111 36.5979 52.1244 36.2445 52.0577L35.8345 51.9877C35.5212 51.9344 35.2345 51.8511 34.9745 51.7377C34.7145 51.6244 34.5079 51.4711 34.3545 51.2777C34.2012 51.0844 34.1245 50.8411 34.1245 50.5477C34.1245 50.1077 34.2945 49.7644 34.6345 49.5177C34.9745 49.2711 35.4245 49.1477 35.9845 49.1477C36.5379 49.1477 36.9845 49.2744 37.3245 49.5277C37.6712 49.7744 37.8945 50.1244 37.9945 50.5777L37.2545 50.7677C37.1945 50.4144 37.0512 50.1677 36.8245 50.0277C36.5979 49.8811 36.3179 49.8077 35.9845 49.8077C35.6512 49.8077 35.3879 49.8711 35.1945 49.9977C35.0012 50.1177 34.9045 50.2977 34.9045 50.5377C34.9045 50.7711 34.9945 50.9444 35.1745 51.0577C35.3612 51.1644 35.6079 51.2444 35.9145 51.2977L36.3245 51.3677C36.6712 51.4277 36.9812 51.5111 37.2545 51.6177C37.5345 51.7177 37.7545 51.8644 37.9145 52.0577C38.0812 52.2511 38.1645 52.5044 38.1645 52.8177C38.1645 53.2977 37.9845 53.6677 37.6245 53.9277C37.2712 54.1877 36.7945 54.3177 36.1945 54.3177ZM41.758 54.3177C41.2646 54.3177 40.828 54.2144 40.448 54.0077C40.0746 53.8011 39.7813 53.5111 39.568 53.1377C39.3613 52.7577 39.258 52.3111 39.258 51.7977V51.6677C39.258 51.1611 39.3613 50.7177 39.568 50.3377C39.7813 49.9577 40.0746 49.6644 40.448 49.4577C40.828 49.2511 41.2646 49.1477 41.758 49.1477C42.2513 49.1477 42.6846 49.2511 43.058 49.4577C43.438 49.6644 43.7313 49.9577 43.938 50.3377C44.1513 50.7177 44.258 51.1611 44.258 51.6677V51.7977C44.258 52.3111 44.1513 52.7577 43.938 53.1377C43.7313 53.5111 43.438 53.8011 43.058 54.0077C42.6846 54.2144 42.2513 54.3177 41.758 54.3177ZM41.758 53.6077C42.278 53.6077 42.6913 53.4444 42.998 53.1177C43.3113 52.7844 43.468 52.3377 43.468 51.7777V51.6877C43.468 51.1277 43.3113 50.6844 42.998 50.3577C42.6913 50.0244 42.278 49.8577 41.758 49.8577C41.2446 49.8577 40.8313 50.0244 40.518 50.3577C40.2046 50.6844 40.048 51.1277 40.048 51.6877V51.7777C40.048 52.3377 40.2046 52.7844 40.518 53.1177C40.8313 53.4444 41.2446 53.6077 41.758 53.6077ZM45.6796 54.1777V49.2877H46.4496V50.1177H46.5896C46.6963 49.8844 46.8763 49.6744 47.1296 49.4877C47.3896 49.2944 47.7696 49.1977 48.2696 49.1977C48.6363 49.1977 48.9629 49.2744 49.2496 49.4277C49.5429 49.5811 49.7763 49.8077 49.9496 50.1077C50.1229 50.4077 50.2096 50.7777 50.2096 51.2177V54.1777H49.4196V51.2777C49.4196 50.7911 49.2963 50.4377 49.0496 50.2177C48.8096 49.9977 48.4829 49.8877 48.0696 49.8877C47.5963 49.8877 47.2096 50.0411 46.9096 50.3477C46.6163 50.6544 46.4696 51.1111 46.4696 51.7177V54.1777H45.6796Z" fill="black"/>
<path d="M255.163 181.678V173.278H260.563V174.718H256.747V176.722H260.227V178.162H256.747V180.238H260.635V181.678H255.163ZM263.704 181.846C263.28 181.846 262.9 181.774 262.564 181.63C262.228 181.478 261.96 181.262 261.76 180.982C261.568 180.694 261.472 180.346 261.472 179.938C261.472 179.53 261.568 179.19 261.76 178.918C261.96 178.638 262.232 178.43 262.576 178.294C262.928 178.15 263.328 178.078 263.776 178.078H265.408V177.742C265.408 177.462 265.32 177.234 265.144 177.058C264.968 176.874 264.688 176.782 264.304 176.782C263.928 176.782 263.648 176.87 263.464 177.046C263.28 177.214 263.16 177.434 263.104 177.706L261.712 177.238C261.808 176.934 261.96 176.658 262.168 176.41C262.384 176.154 262.668 175.95 263.02 175.798C263.38 175.638 263.816 175.558 264.328 175.558C265.112 175.558 265.732 175.754 266.188 176.146C266.644 176.538 266.872 177.106 266.872 177.85V180.07C266.872 180.31 266.984 180.43 267.208 180.43H267.688V181.678H266.68C266.384 181.678 266.14 181.606 265.948 181.462C265.756 181.318 265.66 181.126 265.66 180.886V180.874H265.432C265.4 180.97 265.328 181.098 265.216 181.258C265.104 181.41 264.928 181.546 264.688 181.666C264.448 181.786 264.12 181.846 263.704 181.846ZM263.968 180.622C264.392 180.622 264.736 180.506 265 180.274C265.272 180.034 265.408 179.718 265.408 179.326V179.206H263.884C263.604 179.206 263.384 179.266 263.224 179.386C263.064 179.506 262.984 179.674 262.984 179.89C262.984 180.106 263.068 180.282 263.236 180.418C263.404 180.554 263.648 180.622 263.968 180.622ZM268.793 181.678V175.726H270.281V176.398H270.497C270.585 176.158 270.729 175.982 270.929 175.87C271.137 175.758 271.377 175.702 271.649 175.702H272.369V177.046H271.625C271.241 177.046 270.925 177.15 270.677 177.358C270.429 177.558 270.305 177.87 270.305 178.294V181.678H268.793ZM273.551 181.678V173.278H275.063V181.678H273.551ZM277.386 184.078V182.758H280.626C280.85 182.758 280.962 182.638 280.962 182.398V180.898H280.746C280.682 181.034 280.582 181.17 280.446 181.306C280.31 181.442 280.126 181.554 279.894 181.642C279.662 181.73 279.366 181.774 279.006 181.774C278.542 181.774 278.134 181.67 277.782 181.462C277.438 181.246 277.17 180.95 276.978 180.574C276.786 180.198 276.69 179.766 276.69 179.278V175.726H278.202V179.158C278.202 179.606 278.31 179.942 278.526 180.166C278.75 180.39 279.066 180.502 279.474 180.502C279.938 180.502 280.298 180.35 280.554 180.046C280.81 179.734 280.938 179.302 280.938 178.75V175.726H282.45V182.734C282.45 183.142 282.33 183.466 282.09 183.706C281.85 183.954 281.53 184.078 281.13 184.078H277.386ZM255.163 197.678V189.278H260.443V190.718H256.747V192.746H260.155V194.186H256.747V197.678H255.163ZM264.406 197.846C263.814 197.846 263.282 197.726 262.81 197.486C262.338 197.246 261.966 196.898 261.694 196.442C261.422 195.986 261.286 195.438 261.286 194.798V194.606C261.286 193.966 261.422 193.418 261.694 192.962C261.966 192.506 262.338 192.158 262.81 191.918C263.282 191.678 263.814 191.558 264.406 191.558C264.998 191.558 265.53 191.678 266.002 191.918C266.474 192.158 266.846 192.506 267.118 192.962C267.39 193.418 267.526 193.966 267.526 194.606V194.798C267.526 195.438 267.39 195.986 267.118 196.442C266.846 196.898 266.474 197.246 266.002 197.486C265.53 197.726 264.998 197.846 264.406 197.846ZM264.406 196.502C264.87 196.502 265.254 196.354 265.558 196.058C265.862 195.754 266.014 195.322 266.014 194.762V194.642C266.014 194.082 265.862 193.654 265.558 193.358C265.262 193.054 264.878 192.902 264.406 192.902C263.942 192.902 263.558 193.054 263.254 193.358C262.95 193.654 262.798 194.082 262.798 194.642V194.762C262.798 195.322 262.95 195.754 263.254 196.058C263.558 196.354 263.942 196.502 264.406 196.502ZM271.19 197.774C270.726 197.774 270.318 197.67 269.966 197.462C269.622 197.246 269.354 196.95 269.162 196.574C268.97 196.198 268.874 195.766 268.874 195.278V191.726H270.386V195.158C270.386 195.606 270.494 195.942 270.71 196.166C270.934 196.39 271.25 196.502 271.658 196.502C272.122 196.502 272.482 196.35 272.738 196.046C272.994 195.734 273.122 195.302 273.122 194.75V191.726H274.634V197.678H273.146V196.898H272.93C272.834 197.098 272.654 197.294 272.39 197.486C272.126 197.678 271.726 197.774 271.19 197.774ZM276.317 197.678V191.726H277.805V192.398H278.021C278.109 192.158 278.253 191.982 278.453 191.87C278.661 191.758 278.901 191.702 279.173 191.702H279.893V193.046H279.149C278.765 193.046 278.449 193.15 278.201 193.358C277.953 193.558 277.829 193.87 277.829 194.294V197.678H276.317ZM283.354 197.678C282.962 197.678 282.642 197.558 282.394 197.318C282.154 197.07 282.034 196.742 282.034 196.334V192.974H280.546V191.726H282.034V189.878H283.546V191.726H285.178V192.974H283.546V196.07C283.546 196.31 283.658 196.43 283.882 196.43H285.034V197.678H283.354ZM286.547 197.678V191.726H288.059V197.678H286.547ZM287.303 191.03C287.031 191.03 286.799 190.942 286.607 190.766C286.423 190.59 286.331 190.358 286.331 190.07C286.331 189.782 286.423 189.55 286.607 189.374C286.799 189.198 287.031 189.11 287.303 189.11C287.583 189.11 287.815 189.198 287.999 189.374C288.183 189.55 288.275 189.782 288.275 190.07C288.275 190.358 288.183 190.59 287.999 190.766C287.815 190.942 287.583 191.03 287.303 191.03ZM292.447 197.846C291.855 197.846 291.331 197.722 290.875 197.474C290.427 197.218 290.075 196.862 289.819 196.406C289.571 195.942 289.447 195.398 289.447 194.774V194.63C289.447 194.006 289.571 193.466 289.819 193.01C290.067 192.546 290.415 192.19 290.863 191.942C291.311 191.686 291.831 191.558 292.423 191.558C293.007 191.558 293.515 191.69 293.947 191.954C294.379 192.21 294.715 192.57 294.955 193.034C295.195 193.49 295.315 194.022 295.315 194.63V195.146H290.983C290.999 195.554 291.151 195.886 291.439 196.142C291.727 196.398 292.079 196.526 292.495 196.526C292.919 196.526 293.231 196.434 293.431 196.25C293.631 196.066 293.783 195.862 293.887 195.638L295.123 196.286C295.011 196.494 294.847 196.722 294.631 196.97C294.423 197.21 294.143 197.418 293.791 197.594C293.439 197.762 292.991 197.846 292.447 197.846ZM290.995 194.018H293.779C293.747 193.674 293.607 193.398 293.359 193.19C293.119 192.982 292.803 192.878 292.411 192.878C292.003 192.878 291.679 192.982 291.439 193.19C291.199 193.398 291.051 193.674 290.995 194.018ZM299.132 197.846C298.356 197.846 297.72 197.678 297.224 197.342C296.728 197.006 296.428 196.526 296.324 195.902L297.716 195.542C297.772 195.822 297.864 196.042 297.992 196.202C298.128 196.362 298.292 196.478 298.484 196.55C298.684 196.614 298.9 196.646 299.132 196.646C299.484 196.646 299.744 196.586 299.912 196.466C300.08 196.338 300.164 196.182 300.164 195.998C300.164 195.814 300.084 195.674 299.924 195.578C299.764 195.474 299.508 195.39 299.156 195.326L298.82 195.266C298.404 195.186 298.024 195.078 297.68 194.942C297.336 194.798 297.06 194.602 296.852 194.354C296.644 194.106 296.54 193.786 296.54 193.394C296.54 192.802 296.756 192.35 297.188 192.038C297.62 191.718 298.188 191.558 298.892 191.558C299.556 191.558 300.108 191.706 300.548 192.002C300.988 192.298 301.276 192.686 301.412 193.166L300.008 193.598C299.944 193.294 299.812 193.078 299.612 192.95C299.42 192.822 299.18 192.758 298.892 192.758C298.604 192.758 298.384 192.81 298.232 192.914C298.08 193.01 298.004 193.146 298.004 193.322C298.004 193.514 298.084 193.658 298.244 193.754C298.404 193.842 298.62 193.91 298.892 193.958L299.228 194.018C299.676 194.098 300.08 194.206 300.44 194.342C300.808 194.47 301.096 194.658 301.304 194.906C301.52 195.146 301.628 195.474 301.628 195.89C301.628 196.514 301.4 196.998 300.944 197.342C300.496 197.678 299.892 197.846 299.132 197.846ZM256.941 215.678V209.218H256.791L255.431 211.708H254.551L256.221 208.678H257.751V215.678H256.941ZM261.949 217.678V210.788H262.719V211.598H262.859C262.986 211.351 263.189 211.131 263.469 210.938C263.756 210.744 264.152 210.648 264.659 210.648C265.079 210.648 265.462 210.751 265.809 210.958C266.162 211.158 266.442 211.444 266.649 211.818C266.862 212.191 266.969 212.641 266.969 213.168V213.298C266.969 213.818 266.866 214.268 266.659 214.648C266.452 215.028 266.172 215.318 265.819 215.518C265.472 215.718 265.086 215.818 264.659 215.818C264.319 215.818 264.029 215.771 263.789 215.678C263.556 215.591 263.366 215.478 263.219 215.338C263.072 215.198 262.959 215.054 262.879 214.908H262.739V217.678H261.949ZM264.449 215.118C264.956 215.118 265.366 214.958 265.679 214.638C265.999 214.311 266.159 213.858 266.159 213.278V213.188C266.159 212.608 265.999 212.158 265.679 211.838C265.366 211.511 264.956 211.348 264.449 211.348C263.949 211.348 263.536 211.511 263.209 211.838C262.889 212.158 262.729 212.608 262.729 213.188V213.278C262.729 213.858 262.889 214.311 263.209 214.638C263.536 214.958 263.949 215.118 264.449 215.118ZM270.625 215.818C270.131 215.818 269.698 215.714 269.325 215.508C268.951 215.294 268.661 214.998 268.455 214.618C268.248 214.238 268.145 213.798 268.145 213.298V213.178C268.145 212.671 268.248 212.228 268.455 211.848C268.661 211.468 268.948 211.174 269.315 210.968C269.681 210.754 270.101 210.648 270.575 210.648C271.035 210.648 271.441 210.748 271.795 210.948C272.148 211.141 272.425 211.421 272.625 211.788C272.825 212.154 272.925 212.584 272.925 213.078V213.438H268.935C268.955 213.964 269.125 214.378 269.445 214.678C269.765 214.971 270.165 215.118 270.645 215.118C271.065 215.118 271.388 215.021 271.615 214.828C271.841 214.634 272.015 214.404 272.135 214.138L272.815 214.468C272.715 214.674 272.575 214.881 272.395 215.088C272.221 215.294 271.991 215.468 271.705 215.608C271.425 215.748 271.065 215.818 270.625 215.818ZM268.945 212.788H272.125C272.098 212.334 271.941 211.981 271.655 211.728C271.375 211.474 271.015 211.348 270.575 211.348C270.128 211.348 269.761 211.474 269.475 211.728C269.188 211.981 269.011 212.334 268.945 212.788ZM274.303 215.678V210.788H275.073V211.388H275.213C275.299 211.174 275.433 211.018 275.613 210.918C275.793 210.818 276.029 210.768 276.323 210.768H276.903V211.488H276.273C275.919 211.488 275.633 211.588 275.413 211.788C275.199 211.981 275.093 212.284 275.093 212.698V215.678H274.303ZM279.945 215.818C279.338 215.818 278.825 215.678 278.405 215.398C277.991 215.118 277.741 214.674 277.655 214.068L278.405 213.898C278.458 214.218 278.558 214.471 278.705 214.658C278.851 214.838 279.031 214.968 279.245 215.048C279.465 215.121 279.698 215.158 279.945 215.158C280.311 215.158 280.601 215.084 280.815 214.938C281.028 214.791 281.135 214.594 281.135 214.348C281.135 214.094 281.031 213.918 280.825 213.818C280.625 213.711 280.348 213.624 279.995 213.558L279.585 213.488C279.271 213.434 278.985 213.351 278.725 213.238C278.465 213.124 278.258 212.971 278.105 212.778C277.951 212.584 277.875 212.341 277.875 212.048C277.875 211.608 278.045 211.264 278.385 211.018C278.725 210.771 279.175 210.648 279.735 210.648C280.288 210.648 280.735 210.774 281.075 211.028C281.421 211.274 281.645 211.624 281.745 212.078L281.005 212.268C280.945 211.914 280.801 211.668 280.575 211.528C280.348 211.381 280.068 211.308 279.735 211.308C279.401 211.308 279.138 211.371 278.945 211.498C278.751 211.618 278.655 211.798 278.655 212.038C278.655 212.271 278.745 212.444 278.925 212.558C279.111 212.664 279.358 212.744 279.665 212.798L280.075 212.868C280.421 212.928 280.731 213.011 281.005 213.118C281.285 213.218 281.505 213.364 281.665 213.558C281.831 213.751 281.915 214.004 281.915 214.318C281.915 214.798 281.735 215.168 281.375 215.428C281.021 215.688 280.545 215.818 279.945 215.818ZM285.508 215.818C285.015 215.818 284.578 215.714 284.198 215.508C283.825 215.301 283.531 215.011 283.318 214.638C283.111 214.258 283.008 213.811 283.008 213.298V213.168C283.008 212.661 283.111 212.218 283.318 211.838C283.531 211.458 283.825 211.164 284.198 210.958C284.578 210.751 285.015 210.648 285.508 210.648C286.001 210.648 286.435 210.751 286.808 210.958C287.188 211.164 287.481 211.458 287.688 211.838C287.901 212.218 288.008 212.661 288.008 213.168V213.298C288.008 213.811 287.901 214.258 287.688 214.638C287.481 215.011 287.188 215.301 286.808 215.508C286.435 215.714 286.001 215.818 285.508 215.818ZM285.508 215.108C286.028 215.108 286.441 214.944 286.748 214.618C287.061 214.284 287.218 213.838 287.218 213.278V213.188C287.218 212.628 287.061 212.184 286.748 211.858C286.441 211.524 286.028 211.358 285.508 211.358C284.995 211.358 284.581 211.524 284.268 211.858C283.955 212.184 283.798 212.628 283.798 213.188V213.278C283.798 213.838 283.955 214.284 284.268 214.618C284.581 214.944 284.995 215.108 285.508 215.108ZM289.43 215.678V210.788H290.2V211.618H290.34C290.446 211.384 290.626 211.174 290.88 210.988C291.14 210.794 291.52 210.698 292.02 210.698C292.386 210.698 292.713 210.774 293 210.928C293.293 211.081 293.526 211.308 293.7 211.608C293.873 211.908 293.96 212.278 293.96 212.718V215.678H293.17V212.778C293.17 212.291 293.046 211.938 292.8 211.718C292.56 211.498 292.233 211.388 291.82 211.388C291.346 211.388 290.96 211.541 290.66 211.848C290.366 212.154 290.22 212.611 290.22 213.218V215.678H289.43Z" fill="black"/>
</svg>
