<?xml version="1.0" encoding="UTF-8"?>
<!-- Generated by Pixelmator Pro 3.1.1 -->
<svg width="325" height="172" viewBox="0 0 325 172" xmlns="http://www.w3.org/2000/svg" xmlns:xlink="http://www.w3.org/1999/xlink">
    <path id="Path" fill="#f6331c" stroke="none" d="M 167 2 L 323 2 L 323 146 L 167 146 Z"/>
    <path id="path1" fill="#ffffff" stroke="none" d="M 231.858994 52.130997 C 230.151993 52.130997 228.669998 51.811005 227.410995 51.171005 C 226.151993 50.530998 225.182007 49.645996 224.498993 48.514999 C 223.815994 47.384995 223.475006 46.083 223.475006 44.611 L 223.475006 36.962997 C 223.475006 35.149994 223.837997 33.645996 224.563004 32.451004 C 225.281311 31.260544 226.340302 30.313019 227.602997 29.731003 C 228.904007 29.134003 230.386993 28.834991 232.050995 28.834991 C 233.714996 28.834991 235.154999 29.113007 236.371002 29.666992 C 237.608002 30.222 238.557999 31.022003 239.218994 32.067001 C 239.901993 33.113007 240.242996 34.360992 240.242996 35.811005 L 236.082993 35.811005 C 236.082993 34.915009 235.774002 34.136993 235.154999 33.475006 C 234.535995 32.813995 233.501999 32.483002 232.050995 32.483002 C 230.621994 32.483002 229.511993 32.856995 228.723007 33.602997 C 227.955002 34.350006 227.570999 35.384995 227.570999 36.707001 L 227.570999 39.011002 L 228.147003 39.011002 C 228.509995 38.584991 229.063995 38.179001 229.811005 37.794998 C 230.557999 37.410995 231.645996 37.218994 233.074997 37.218994 C 234.376007 37.218994 235.570999 37.497009 236.658997 38.050995 C 237.76123 38.599579 238.691208 39.440979 239.347 40.483002 C 240.029999 41.528992 240.371002 42.798004 240.371002 44.291 L 240.371002 44.675003 C 240.371002 46.147003 240.018997 47.449005 239.315002 48.578995 C 238.610992 49.688995 237.619003 50.563004 236.339005 51.203003 C 235.059006 51.821999 233.565994 52.130997 231.858994 52.130997 Z M 231.923004 48.483002 C 233.266998 48.483002 234.322998 48.130997 235.091003 47.427002 C 235.880005 46.723 236.274994 45.785004 236.274994 44.611 L 236.274994 44.354996 C 236.274994 43.56601 236.093994 42.882996 235.731003 42.307007 C 235.389999 41.731003 234.888 41.283005 234.227005 40.962997 C 233.587006 40.643005 232.819 40.483002 231.923004 40.483002 C 231.048004 40.483002 230.279999 40.643005 229.619003 40.962997 C 228.957993 41.283005 228.445999 41.731003 228.082993 42.307007 C 227.742004 42.882996 227.570999 43.56601 227.570999 44.354996 L 227.570999 44.611 C 227.570999 45.785004 227.955002 46.723 228.723007 47.427002 C 229.511993 48.130997 230.578995 48.483002 231.923004 48.483002 Z M 249.787003 51.682999 L 249.787003 32.291 L 249.210999 32.291 L 246.203003 39.395004 L 241.914993 39.395004 L 246.490997 29.283005 L 253.882996 29.283005 L 253.882996 51.682999 L 249.787003 51.682999 Z M 262.368011 46.890999 L 261.152008 45.915001 L 269.76001 35.274994 L 270.976013 36.251007 L 262.368011 46.890999 Z M 269.119995 46.843002 C 268.30899 46.843002 267.674988 46.630005 267.216003 46.203003 C 266.756989 45.765999 266.528015 45.173996 266.528015 44.427002 L 266.528015 44.315002 C 266.528015 43.557999 266.756989 42.966003 267.216003 42.539001 C 267.674988 42.102005 268.30899 41.882996 269.119995 41.882996 C 269.908997 41.882996 270.539001 42.102005 271.007996 42.539001 C 271.47699 42.966003 271.712006 43.557999 271.712006 44.315002 L 271.712006 44.427002 C 271.712006 45.173996 271.483002 45.765999 271.023987 46.203003 C 270.565002 46.630005 269.931 46.843002 269.119995 46.843002 Z M 269.119995 45.530998 C 269.428986 45.530998 269.669006 45.434998 269.839996 45.242996 C 270.020996 45.050995 270.112 44.800995 270.112 44.490997 L 270.112 44.235001 C 270.112 43.925995 270.020996 43.675003 269.839996 43.483002 C 269.669006 43.291 269.428986 43.195007 269.119995 43.195007 C 268.811005 43.195007 268.565002 43.291 268.384003 43.483002 C 268.213013 43.675003 268.127991 43.925995 268.127991 44.235001 L 268.127991 44.490997 C 268.127991 44.800995 268.213013 45.050995 268.384003 45.242996 C 268.565002 45.434998 268.811005 45.530998 269.119995 45.530998 Z M 263.007996 40.283005 C 262.196991 40.283005 261.562988 40.070007 261.104004 39.643005 C 260.644989 39.205994 260.415985 38.613998 260.415985 37.867004 L 260.415985 37.755005 C 260.415985 36.998001 260.644989 36.406006 261.104004 35.979004 C 261.562988 35.541992 262.196991 35.322998 263.007996 35.322998 C 263.796997 35.322998 264.427002 35.541992 264.895996 35.979004 C 265.36499 36.406006 265.600006 36.998001 265.600006 37.755005 L 265.600006 37.867004 C 265.600006 38.613998 265.371002 39.205994 264.911987 39.643005 C 264.453003 40.070007 263.819 40.283005 263.007996 40.283005 Z M 263.007996 38.971008 C 263.316986 38.971008 263.557007 38.875 263.727997 38.682999 C 263.908997 38.490997 264 38.240997 264 37.931 L 264 37.675003 C 264 37.365997 263.908997 37.115005 263.727997 36.923004 C 263.557007 36.731003 263.316986 36.634995 263.007996 36.634995 C 262.699005 36.634995 262.453003 36.731003 262.272003 36.923004 C 262.101013 37.115005 262.015991 37.365997 262.015991 37.675003 L 262.015991 37.931 C 262.015991 38.240997 262.101013 38.490997 262.272003 38.682999 C 262.453003 38.875 262.699005 38.971008 263.007996 38.971008 Z M 195.345993 90.682999 L 195.345993 89.483002 L 196.914001 89.483002 L 196.914001 80.682999 L 195.345993 80.682999 L 195.345993 79.483002 L 200.962006 79.483002 C 201.612 79.483002 202.188004 79.600998 202.690002 79.834999 C 203.201996 80.07 203.595993 80.401001 203.873993 80.827003 C 204.162003 81.242996 204.306 81.734001 204.306 82.299004 L 204.306 82.427002 C 204.306 82.949997 204.203995 83.382004 204.001999 83.723 C 203.819336 84.031715 203.574081 84.298775 203.281998 84.507004 C 203.003998 84.689003 202.731995 84.821999 202.466003 84.906998 L 202.466003 85.130997 C 202.731995 85.195 203.009995 85.322998 203.298004 85.514999 C 203.585999 85.696999 203.826004 85.958 204.018005 86.299004 C 204.220001 86.640999 204.322006 87.072998 204.322006 87.595001 L 204.322006 87.754997 C 204.322006 88.362999 204.171997 88.890999 203.873993 89.338997 C 203.578522 89.782753 203.162094 90.132553 202.673996 90.347 C 202.171997 90.570999 201.595993 90.682999 200.945999 90.682999 L 195.345993 90.682999 Z M 198.257996 89.467003 L 200.802002 89.467003 C 201.505997 89.467003 202.044006 89.302002 202.417999 88.971001 C 202.791 88.640999 202.977997 88.193001 202.977997 87.626999 L 202.977997 87.483002 C 202.977997 86.917999 202.791 86.470001 202.417999 86.139 C 202.044006 85.808998 201.505997 85.642998 200.802002 85.642998 L 198.257996 85.642998 L 198.257996 89.467003 Z M 198.257996 84.427002 L 200.850006 84.427002 C 201.490005 84.427002 202.001999 84.266998 202.386002 83.946999 C 202.770004 83.616997 202.962006 83.184998 202.962006 82.651001 L 202.962006 82.490997 C 202.962006 81.946999 202.770004 81.514999 202.386002 81.195 C 202.011993 80.864998 201.5 80.698997 200.850006 80.698997 L 198.257996 80.698997 L 198.257996 84.427002 Z M 210.084 90.906998 C 209.294998 90.906998 208.600998 90.741997 208.003998 90.411003 C 207.414673 90.07753 206.931992 89.583755 206.612 88.987 C 206.281006 88.378998 206.115997 87.675003 206.115997 86.875 L 206.115997 86.682999 C 206.115997 85.873001 206.281006 85.163002 206.612 84.555 C 206.926407 83.963615 207.403992 83.474922 207.988007 83.147003 C 208.574997 82.806 209.246994 82.635002 210.003998 82.635002 C 210.740005 82.635002 211.391006 82.794998 211.955994 83.114998 C 212.520996 83.425003 212.964005 83.873001 213.283997 84.459 C 213.604004 85.045998 213.764008 85.734001 213.764008 86.523003 L 213.764008 87.098999 L 207.380005 87.098999 C 207.412003 87.942001 207.684006 88.602997 208.195999 89.083 C 208.707993 89.553001 209.348007 89.787003 210.115997 89.787003 C 210.787994 89.787003 211.304993 89.633003 211.667999 89.322998 C 212.031006 89.014 212.307999 88.646004 212.5 88.219002 L 213.587997 88.747002 C 213.427994 89.078003 213.203995 89.408997 212.916 89.738998 C 212.639008 90.07 212.270996 90.347 211.811996 90.570999 C 211.363998 90.794998 210.787994 90.906998 210.084 90.906998 Z M 207.395996 86.058998 L 212.483994 86.058998 C 212.440994 85.334 212.190994 84.768997 211.731995 84.362999 C 211.283997 83.958 210.707993 83.754997 210.003998 83.754997 C 209.289001 83.754997 208.703003 83.958 208.244003 84.362999 C 207.785004 84.768997 207.503006 85.334 207.395996 86.058998 Z M 219.569 90.906998 C 218.811005 90.906998 218.128998 90.747002 217.520996 90.427002 C 216.925308 90.09832 216.432388 89.610947 216.097 89.018997 C 215.755005 88.411003 215.585007 87.691002 215.585007 86.859001 L 215.585007 86.682999 C 215.585007 85.841003 215.755005 85.121002 216.097 84.523003 C 216.429947 83.933258 216.923843 83.450455 217.520996 83.130997 C 218.128998 82.801003 218.811005 82.635002 219.569 82.635002 C 220.315002 82.635002 220.949997 82.774002 221.473007 83.051003 C 222.005997 83.329002 222.421997 83.696999 222.720993 84.154999 C 223.029999 84.613998 223.227005 85.105003 223.313004 85.626999 L 222.080994 85.883003 C 222.030106 85.507561 221.899155 85.147438 221.697006 84.827003 C 221.499588 84.501816 221.217545 84.236366 220.880997 84.058998 C 220.529007 83.866997 220.097 83.771004 219.585007 83.771004 C 219.061996 83.771004 218.593002 83.889 218.177002 84.123001 C 217.770996 84.358002 217.445999 84.694 217.201004 85.130997 C 216.966003 85.569 216.848999 86.091003 216.848999 86.698997 L 216.848999 86.843002 C 216.848999 87.450996 216.966003 87.973999 217.201004 88.411003 C 217.445999 88.848999 217.770996 89.184998 218.177002 89.418999 C 218.593002 89.653999 219.061996 89.771004 219.585007 89.771004 C 220.363007 89.771004 220.955002 89.569 221.360992 89.163002 C 221.776993 88.758003 222.033005 88.257004 222.128998 87.658997 L 223.376999 87.931 C 223.255402 88.451683 223.038406 88.945343 222.737 89.387001 C 222.427002 89.846001 222.005997 90.213997 221.473007 90.490997 C 220.949997 90.768997 220.315002 90.906998 219.569 90.906998 Z M 229.147003 90.906998 C 228.358002 90.906998 227.658997 90.741997 227.050995 90.411003 C 226.460922 90.087547 225.973175 89.605347 225.643005 89.018997 C 225.311996 88.411003 225.147003 87.696999 225.147003 86.875 L 225.147003 86.667 C 225.147003 85.857002 225.311996 85.147003 225.643005 84.539001 C 225.969513 83.945793 226.457794 83.45752 227.050995 83.130997 C 227.658997 82.801003 228.358002 82.635002 229.147003 82.635002 C 229.936005 82.635002 230.630005 82.801003 231.227005 83.130997 C 231.835007 83.461998 232.304001 83.931 232.634995 84.539001 C 232.975998 85.147003 233.147003 85.857002 233.147003 86.667 L 233.147003 86.875 C 233.147003 87.696999 232.975998 88.411003 232.634995 89.018997 C 232.310806 89.609894 231.821564 90.093582 231.227005 90.411003 C 230.630005 90.741997 229.936005 90.906998 229.147003 90.906998 Z M 229.147003 89.771004 C 229.979004 89.771004 230.639999 89.510002 231.130997 88.987 C 231.632004 88.454002 231.882996 87.738998 231.882996 86.843002 L 231.882996 86.699997 C 231.882996 85.804001 231.632004 85.095001 231.130997 84.571999 C 230.639999 84.039001 229.979004 83.772003 229.147003 83.772003 C 228.326004 83.772003 227.664001 84.039001 227.162994 84.571999 C 226.662003 85.095001 226.410995 85.804001 226.410995 86.699997 L 226.410995 86.844002 C 226.410995 87.739998 226.662003 88.455002 227.162994 88.987999 C 227.664001 89.511002 228.326004 89.772003 229.147003 89.772003 Z M 235.421997 90.682999 L 235.421997 82.860001 L 236.654007 82.860001 L 236.654007 83.835999 L 236.878006 83.835999 C 237.026993 83.558998 237.272003 83.303001 237.613998 83.068001 C 237.955002 82.834 238.434998 82.716003 239.054001 82.716003 C 239.662003 82.716003 240.151993 82.849998 240.526001 83.115997 C 240.910004 83.383003 241.186996 83.708 241.358002 84.092003 L 241.582001 84.092003 C 241.767181 83.70295 242.047913 83.367172 242.397995 83.115997 C 242.770996 82.849998 243.287994 82.716003 243.949997 82.716003 C 244.472 82.716003 244.931 82.822998 245.326004 83.036003 C 245.720001 83.25 246.029999 83.558998 246.253998 83.963997 C 246.488007 84.359001 246.606003 84.834 246.606003 85.388 L 246.606003 90.683998 L 245.341995 90.683998 L 245.341995 85.5 C 245.341995 84.977997 245.186996 84.567001 244.878006 84.267998 C 244.578995 83.959 244.158005 83.804001 243.613998 83.804001 C 243.037994 83.804001 242.563004 83.990997 242.190002 84.363998 C 241.826996 84.737999 241.645996 85.276001 241.645996 85.980003 L 241.645996 90.683998 L 240.382004 90.683998 L 240.382004 85.5 C 240.382004 84.977997 240.227005 84.567001 239.917999 84.267998 C 239.619003 83.959 239.197998 83.804001 238.654007 83.804001 C 238.078003 83.804001 237.602997 83.990997 237.229996 84.363998 C 236.867004 84.737999 236.686005 85.276001 236.686005 85.980003 L 236.686005 90.683998 L 235.421997 90.683998 Z M 249.186996 90.682999 L 249.186996 82.860001 L 250.451004 82.860001 L 250.451004 90.683998 L 249.186996 90.683998 Z M 249.826996 81.642998 C 249.565567 81.649178 249.312363 81.551346 249.123001 81.371002 C 248.941498 81.188881 248.843109 80.939995 248.850998 80.682999 C 248.850998 80.394997 248.942001 80.161003 249.123001 79.978996 C 249.312424 79.798744 249.565582 79.700935 249.826996 79.707001 C 250.104996 79.707001 250.334 79.797997 250.514999 79.978996 C 250.697006 80.161003 250.787003 80.394997 250.787003 80.682999 C 250.795441 80.940102 250.697006 81.189217 250.515106 81.371109 C 250.333206 81.553009 250.084106 81.651436 249.826996 81.642998 Z M 253.108994 90.682999 L 253.108994 82.860001 L 254.341003 82.860001 L 254.341003 84.188004 L 254.565002 84.188004 C 254.735992 83.815002 255.024002 83.478996 255.429001 83.18 C 255.845001 82.871002 256.453003 82.716003 257.252991 82.716003 C 257.839996 82.716003 258.363007 82.838997 258.821014 83.084 C 259.290985 83.330002 259.664001 83.692001 259.94101 84.171997 C 260.218994 84.652 260.356995 85.244003 260.356995 85.947998 L 260.356995 90.683998 L 259.092987 90.683998 L 259.092987 86.043999 C 259.092987 85.265999 258.895996 84.699997 258.501007 84.348 C 258.117004 83.996002 257.595001 83.82 256.933014 83.82 C 256.175995 83.82 255.557007 84.066002 255.076996 84.556 C 254.608002 85.046997 254.373001 85.778 254.373001 86.748001 L 254.373001 90.683998 L 253.108994 90.683998 Z M 262.537994 86.810997 L 262.537994 86.586998 C 262.537994 85.765999 262.703003 85.061996 263.033997 84.474998 C 263.364014 83.889 263.812012 83.434998 264.377991 83.114998 C 264.943787 82.794807 265.583923 82.629257 266.234009 82.635002 C 267.054993 82.635002 267.68399 82.794998 268.122009 83.114998 C 268.570007 83.425003 268.899994 83.771004 269.114014 84.154999 L 269.338013 84.154999 L 269.338013 82.860001 L 270.537994 82.860001 L 270.537994 92.508003 C 270.537994 92.934998 270.420013 93.271004 270.186005 93.515999 C 269.950989 93.762001 269.609985 93.884003 269.161987 93.884003 L 263.850006 93.884003 L 263.850006 92.764 L 268.825989 92.764 C 269.145996 92.764 269.306 92.603996 269.306 92.283997 L 269.306 89.307999 L 269.082001 89.307999 C 268.95401 89.542999 268.772003 89.772003 268.537994 89.996002 C 268.303009 90.220001 267.998993 90.406998 267.626007 90.556 C 267.252014 90.695 266.787994 90.764 266.234009 90.764 C 265.562012 90.764 264.942993 90.603996 264.377991 90.283997 C 263.812317 89.964363 263.346924 89.493416 263.033997 88.924004 C 262.703003 88.327003 262.537994 87.623001 262.537994 86.811996 Z M 266.570007 89.642998 C 267.380005 89.642998 268.036011 89.387001 268.537994 88.875 C 269.049988 88.362999 269.306 87.658997 269.306 86.763 L 269.306 86.635002 C 269.306 85.728996 269.049988 85.025002 268.537994 84.523003 C 268.036011 84.011002 267.380005 83.754997 266.570007 83.754997 C 265.769989 83.754997 265.108002 84.011002 264.585999 84.523003 C 264.074005 85.025002 263.817993 85.728996 263.817993 86.635002 L 263.817993 86.763 C 263.817993 87.658997 264.074005 88.362999 264.585999 88.875 C 265.108002 89.387001 265.769989 89.642998 266.570007 89.642998 Z M 277.296997 90.682999 L 277.296997 82.860001 L 278.528992 82.860001 L 278.528992 83.835999 L 278.752991 83.835999 C 278.902008 83.558998 279.147003 83.303001 279.489014 83.068001 C 279.829987 82.834 280.309998 82.716003 280.928986 82.716003 C 281.536987 82.716003 282.027008 82.849998 282.401001 83.115997 C 282.785004 83.383003 283.062012 83.708 283.233002 84.092003 L 283.457001 84.092003 C 283.642181 83.70295 283.922913 83.367172 284.27301 83.115997 C 284.645996 82.849998 285.162994 82.716003 285.825012 82.716003 C 286.346985 82.716003 286.806 82.822998 287.200989 83.036003 C 287.595001 83.25 287.904999 83.558998 288.128998 83.963997 C 288.363007 84.359001 288.480988 84.834 288.480988 85.388 L 288.480988 90.683998 L 287.21701 90.683998 L 287.21701 85.5 C 287.21701 84.977997 287.062012 84.567001 286.752991 84.267998 C 286.45401 83.959 286.03299 83.804001 285.489014 83.804001 C 284.912994 83.804001 284.437988 83.990997 284.065002 84.363998 C 283.701996 84.737999 283.520996 85.276001 283.520996 85.980003 L 283.520996 90.683998 L 282.256989 90.683998 L 282.256989 85.5 C 282.256989 84.977997 282.10199 84.567001 281.792999 84.267998 C 281.493988 83.959 281.072998 83.804001 280.528992 83.804001 C 279.953003 83.804001 279.477997 83.990997 279.105011 84.363998 C 278.742004 84.737999 278.561005 85.276001 278.561005 85.980003 L 278.561005 90.683998 L 277.296997 90.683998 Z M 291.881012 93.883003 L 291.881012 92.763 L 296.360992 92.763 C 296.67099 92.763 296.825012 92.602997 296.825012 92.282997 L 296.825012 89.434998 L 296.601013 89.434998 C 296.322021 89.99144 295.84137 90.420586 295.256989 90.635002 C 294.904999 90.763 294.463013 90.827003 293.928986 90.827003 C 293.384369 90.831879 292.846588 90.705666 292.360992 90.459 C 291.890442 90.212074 291.501465 89.834198 291.240997 89.371002 C 290.975006 88.890999 290.841003 88.305 290.841003 87.611 L 290.841003 82.860001 L 292.105011 82.860001 L 292.105011 87.515999 C 292.105011 88.283997 292.296997 88.844002 292.681 89.195999 C 293.075989 89.547997 293.604004 89.723999 294.265015 89.723999 C 295.011993 89.723999 295.625 89.478996 296.105011 88.987999 C 296.584991 88.498001 296.825012 87.766998 296.825012 86.795998 L 296.825012 82.860001 L 298.088989 82.860001 L 298.088989 92.508003 C 298.088989 92.934998 297.96701 93.271004 297.721008 93.515999 C 297.487 93.762001 297.140015 93.884003 296.681 93.884003 L 291.881012 93.884003 Z M 215.177994 114.906998 C 214.389008 114.906998 213.690002 114.741997 213.082001 114.411003 C 212.491852 114.087631 212.004089 113.605415 211.673996 113.018997 C 211.343994 112.411003 211.177994 111.696999 211.177994 110.875 L 211.177994 110.667 C 211.177994 109.857002 211.343994 109.147003 211.673996 108.539001 C 212.000916 107.946091 212.48909 107.457916 213.082001 107.130997 C 213.690002 106.801003 214.389008 106.635002 215.177994 106.635002 C 215.968002 106.635002 216.660995 106.801003 217.257996 107.130997 C 217.865997 107.461998 218.335999 107.931 218.666 108.539001 C 219.007996 109.147003 219.177994 109.857002 219.177994 110.667 L 219.177994 110.875 C 219.177994 111.696999 219.007996 112.411003 218.666 113.018997 C 218.335999 113.616997 217.865997 114.081001 217.257996 114.411003 C 216.660995 114.741997 215.968002 114.906998 215.177994 114.906998 Z M 215.177994 113.771004 C 216.009995 113.771004 216.671997 113.510002 217.162003 112.987 C 217.664001 112.454002 217.914001 111.738998 217.914001 110.843002 L 217.914001 110.698997 C 217.914001 109.803001 217.664001 109.094002 217.162003 108.570999 C 216.671997 108.038002 216.009995 107.771004 215.177994 107.771004 C 214.356995 107.771004 213.695999 108.038002 213.194 108.570999 C 212.692993 109.094002 212.442001 109.803001 212.442001 110.698997 L 212.442001 110.843002 C 212.442001 111.738998 212.692993 112.454002 213.194 112.987 C 213.695999 113.510002 214.356995 113.771004 215.177994 113.771004 Z M 222.384995 114.682999 L 220.817001 106.859001 L 222.097 106.859001 L 223.393005 113.834999 L 223.617004 113.834999 L 225.328995 106.859001 L 227.425003 106.859001 L 229.136993 113.834999 L 229.360992 113.834999 L 230.656998 106.859001 L 231.936996 106.859001 L 230.369003 114.682999 L 228.209 114.682999 L 226.481003 107.707001 L 226.272995 107.707001 L 224.544998 114.682999 L 222.384995 114.682999 Z M 234.108994 114.682999 L 234.108994 106.859001 L 235.341003 106.859001 L 235.341003 108.186996 L 235.565002 108.186996 C 235.735992 107.814003 236.024002 107.477997 236.429001 107.179001 C 236.845001 106.870003 237.453003 106.714996 238.253006 106.714996 C 238.839996 106.714996 239.363007 106.837997 239.820999 107.083 C 240.291 107.329002 240.664001 107.691002 240.940994 108.170998 C 241.218994 108.651001 241.356995 109.242996 241.356995 109.946999 L 241.356995 114.682999 L 240.093002 114.682999 L 240.093002 110.042999 C 240.093002 109.264999 239.895996 108.698997 239.501007 108.347 C 239.117004 107.995003 238.595001 107.819 237.932999 107.819 C 237.175995 107.819 236.557007 108.065002 236.076996 108.555 C 235.608002 109.045998 235.373001 109.777 235.373001 110.747002 L 235.373001 114.682999 L 234.108994 114.682999 Z M 252.367004 114.906998 C 251.556 114.906998 250.921997 114.752998 250.462997 114.443001 C 250.014999 114.134003 249.690002 113.781998 249.487 113.387001 L 249.263 113.387001 L 249.263 114.682999 L 248.031006 114.682999 L 248.031006 103.483002 L 249.294998 103.483002 L 249.294998 108.091003 L 249.518997 108.091003 C 249.647003 107.846001 249.828003 107.616997 250.063004 107.403 C 250.298004 107.179001 250.602005 106.998001 250.975006 106.859001 C 251.358994 106.709999 251.822998 106.635002 252.367004 106.635002 C 253.050003 106.635002 253.667999 106.801003 254.223007 107.130997 C 254.787994 107.450996 255.235992 107.915001 255.567001 108.523003 C 255.897995 109.121002 256.062988 109.834999 256.062988 110.667 L 256.062988 110.875 C 256.062988 111.707001 255.891998 112.427002 255.550995 113.035004 C 255.244675 113.617508 254.778397 114.100433 254.207001 114.427002 C 253.651993 114.747002 253.039001 114.906998 252.367004 114.906998 Z M 252.031006 113.787003 C 252.841995 113.787003 253.498001 113.530998 253.998993 113.018997 C 254.511002 112.497002 254.766998 111.771004 254.766998 110.843002 L 254.766998 110.698997 C 254.766998 109.771004 254.511002 109.051003 253.998993 108.539001 C 253.498001 108.016998 252.841995 107.754997 252.031006 107.754997 C 251.231003 107.754997 250.570007 108.016998 250.046997 108.539001 C 249.535004 109.051003 249.279007 109.771004 249.279007 110.698997 L 249.279007 110.843002 C 249.279007 111.771004 249.535004 112.497002 250.046997 113.018997 C 250.570007 113.530998 251.231003 113.787003 252.031006 113.787003 Z M 261.944 114.906998 C 261.154999 114.906998 260.455994 114.741997 259.847992 114.411003 C 259.25766 114.087891 258.769836 113.605614 258.440002 113.018997 C 258.109009 112.411003 257.944 111.696999 257.944 110.875 L 257.944 110.667 C 257.944 109.857002 258.109009 109.147003 258.440002 108.539001 C 258.766602 107.945862 259.254852 107.457611 259.847992 107.130997 C 260.455994 106.801003 261.154999 106.635002 261.944 106.635002 C 262.733002 106.635002 263.427002 106.801003 264.023987 107.130997 C 264.631989 107.461998 265.101013 107.931 265.432007 108.539001 C 265.77301 109.147003 265.944 109.857002 265.944 110.667 L 265.944 110.875 C 265.944 111.696999 265.77301 112.411003 265.432007 113.018997 C 265.108124 113.610138 264.618805 114.093918 264.023987 114.411003 C 263.427002 114.741997 262.733002 114.906998 261.944 114.906998 Z M 261.944 113.771004 C 262.776001 113.771004 263.437012 113.510002 263.928009 112.987 C 264.428986 112.454002 264.679993 111.738998 264.679993 110.843002 L 264.679993 110.698997 C 264.679993 109.803001 264.428986 109.094002 263.928009 108.570999 C 263.437012 108.038002 262.776001 107.771004 261.944 107.771004 C 261.122986 107.771004 260.460999 108.038002 259.959991 108.570999 C 259.459015 109.094002 259.208008 109.803001 259.208008 110.698997 L 259.208008 110.843002 C 259.208008 111.738998 259.459015 112.454002 259.959991 112.987 C 260.460999 113.510002 261.122986 113.771004 261.944 113.771004 Z M 271.371002 114.906998 C 270.399994 114.906998 269.57901 114.682999 268.907013 114.235001 C 268.244995 113.787003 267.845001 113.078003 267.707001 112.107002 L 268.907013 111.834999 C 268.992004 112.347 269.152008 112.752998 269.386993 113.051003 C 269.621002 113.338997 269.908997 113.546997 270.251007 113.675003 C 270.602997 113.792999 270.976013 113.850998 271.371002 113.850998 C 271.957001 113.850998 272.42099 113.734001 272.763 113.499001 C 273.104004 113.264999 273.274994 112.949997 273.274994 112.555 C 273.274994 112.150002 273.109009 111.866997 272.778992 111.707001 C 272.459015 111.537003 272.015991 111.398003 271.450989 111.291 L 270.795013 111.179001 C 270.321686 111.102463 269.859589 110.968124 269.419006 110.778999 C 269.032196 110.620132 268.691193 110.367134 268.427002 110.042999 C 268.181 109.734001 268.05899 109.345001 268.05899 108.875 C 268.05899 108.170998 268.330994 107.622002 268.875 107.226997 C 269.419006 106.833 270.139008 106.635002 271.035004 106.635002 C 271.920013 106.635002 272.63501 106.837997 273.178986 107.242996 C 273.733002 107.638 274.091003 108.197998 274.251007 108.922997 L 273.066986 109.226997 C 272.971008 108.662003 272.740997 108.266998 272.378998 108.042999 C 272.015991 107.808998 271.567993 107.691002 271.035004 107.691002 C 270.501007 107.691002 270.079987 107.792999 269.770996 107.995003 C 269.460999 108.186996 269.307007 108.474998 269.307007 108.859001 C 269.307007 109.233002 269.450989 109.510002 269.739014 109.691002 C 270.036987 109.862 270.432007 109.989998 270.923004 110.074997 L 271.57901 110.186996 C 272.132996 110.282997 272.628998 110.417 273.066986 110.586998 C 273.515015 110.747002 273.867004 110.982002 274.122986 111.291 C 274.389008 111.600998 274.52301 112.005997 274.52301 112.507004 C 274.52301 113.275002 274.234985 113.866997 273.658997 114.282997 C 273.092987 114.698997 272.330994 114.906998 271.371002 114.906998 Z M 279.808014 114.906998 C 278.837006 114.906998 278.015991 114.682999 277.343994 114.235001 C 276.683014 113.787003 276.28299 113.078003 276.144012 112.107002 L 277.343994 111.834999 C 277.428986 112.347 277.588989 112.752998 277.824005 113.051003 C 278.05899 113.338997 278.346985 113.546997 278.687988 113.675003 C 279.040009 113.792999 279.412994 113.850998 279.808014 113.850998 C 280.394989 113.850998 280.859009 113.734001 281.200012 113.499001 C 281.540985 113.264999 281.712006 112.949997 281.712006 112.555 C 281.712006 112.150002 281.546997 111.866997 281.216003 111.707001 C 280.895996 111.537003 280.453003 111.398003 279.888 111.291 L 279.231995 111.179001 C 278.758728 111.102325 278.296631 110.967987 277.855988 110.778999 C 277.469177 110.620132 277.128204 110.367134 276.864014 110.042999 C 276.618988 109.734001 276.496002 109.345001 276.496002 108.875 C 276.496002 108.170998 276.768005 107.622002 277.312012 107.226997 C 277.855988 106.833 278.575989 106.635002 279.471985 106.635002 C 280.356995 106.635002 281.071991 106.837997 281.615997 107.242996 C 282.17099 107.638 282.528015 108.197998 282.687988 108.922997 L 281.503998 109.226997 C 281.40799 108.662003 281.178986 108.266998 280.81601 108.042999 C 280.453003 107.808998 280.005005 107.691002 279.471985 107.691002 C 278.938995 107.691002 278.516998 107.792999 278.208008 107.995003 C 277.898987 108.186996 277.743988 108.474998 277.743988 108.859001 C 277.743988 109.233002 277.888 109.510002 278.175995 109.691002 C 278.475006 109.862 278.868988 109.989998 279.359985 110.074997 L 280.015991 110.186996 C 280.571014 110.282997 281.066986 110.417 281.503998 110.586998 C 281.951996 110.747002 282.303986 110.982002 282.559998 111.291 C 282.826996 111.600998 282.959991 112.005997 282.959991 112.507004 C 282.959991 113.275002 282.671997 113.866997 282.096008 114.282997 C 281.531006 114.698997 280.768005 114.906998 279.808014 114.906998 Z"/>
    <path id="path2" fill="#f6331c" fill-rule="evenodd" stroke="none" d="M 92 146 L 68 146 L 68 157.912018 L 59 157.912018 L 80 171.475006 L 101 157.912018 L 92 157.912018 L 92 146 Z"/>
    <path id="path3" fill="#ffffff" stroke="#f6331c" stroke-width="3" stroke-linecap="round" stroke-linejoin="round" d="M 2 2 L 158 2 L 158 146 L 2 146 Z"/>
    <path id="path4" fill="#f6331c" stroke="none" d="M 60.327999 52.397995 C 58.620998 52.397995 57.138 52.078003 55.880001 51.438004 C 54.620998 50.798004 53.650002 49.912994 52.967999 48.781998 C 52.285 47.652 51.944 46.349998 51.944 44.877998 L 51.944 37.229996 C 51.944 35.416992 52.306 33.912994 53.032001 32.718002 C 53.750168 31.527435 54.809204 30.579865 56.071999 29.998001 C 57.373001 29.401001 58.855999 29.102005 60.52 29.102005 C 62.183998 29.102005 63.624001 29.380005 64.839996 29.934006 C 66.077003 30.488998 67.026001 31.289001 67.688004 32.334 C 68.370003 33.380005 68.711998 34.627991 68.711998 36.078003 L 64.552002 36.078003 C 64.552002 35.182007 64.241997 34.403992 63.624001 33.742004 C 63.005001 33.080994 61.970001 32.75 60.52 32.75 C 59.09 32.75 57.980999 33.123993 57.192001 33.869995 C 56.424 34.617004 56.040001 35.652008 56.040001 36.973999 L 56.040001 39.278 L 56.616001 39.278 C 56.978001 38.852005 57.533001 38.445999 58.279999 38.061996 C 59.026001 37.678009 60.113998 37.485992 61.543999 37.485992 C 62.845001 37.485992 64.040001 37.764008 65.127998 38.317993 C 66.230354 38.866409 67.160362 39.707855 67.816002 40.75 C 68.498001 41.796005 68.839996 43.065002 68.839996 44.557999 L 68.839996 44.942001 C 68.839996 46.414001 68.487999 47.716003 67.783997 48.846001 C 67.080002 49.956001 66.087997 50.830002 64.807999 51.470001 C 63.528 52.089005 62.034 52.397995 60.327999 52.397995 Z M 60.391998 48.75 C 61.736 48.75 62.792 48.397995 63.560001 47.694 C 64.349998 46.990005 64.744003 46.052002 64.744003 44.877998 L 64.744003 44.622002 C 64.744003 43.833008 64.561996 43.149994 64.199997 42.574005 C 63.858002 41.998001 63.356998 41.550003 62.695999 41.229996 C 62.056 40.910004 61.287998 40.75 60.391998 40.75 C 59.516998 40.75 58.749001 40.910004 58.088001 41.229996 C 57.425999 41.550003 56.914001 41.998001 56.551998 42.574005 C 56.209999 43.149994 56.040001 43.833008 56.040001 44.622002 L 56.040001 44.877998 C 56.040001 46.052002 56.424 46.990005 57.192001 47.694 C 57.981998 48.397995 59.048 48.75 60.391998 48.75 Z M 71.344002 51.949997 L 71.344002 49.262001 C 71.344002 47.705002 71.599998 46.414001 72.112 45.389999 C 72.612015 44.358627 73.37323 43.476059 74.32 42.830002 C 75.301003 42.147995 76.496002 41.593002 77.903999 41.166 L 80.047997 40.494003 C 80.837997 40.238007 81.498001 39.929001 82.031998 39.56601 C 82.540565 39.210083 82.957329 38.73848 83.248001 38.190002 C 83.546997 37.656998 83.695999 37.048996 83.695999 36.365997 L 83.695999 36.238007 C 83.695999 35.171997 83.333 34.328995 82.608002 33.709991 C 81.883003 33.070007 80.890999 32.75 79.632004 32.75 C 78.394997 32.75 77.391998 33.091995 76.624001 33.774002 C 75.876999 34.436005 75.503998 35.395996 75.503998 36.653992 L 75.503998 37.229996 L 71.407997 37.229996 L 71.407997 36.718002 C 71.407997 35.097 71.771004 33.721008 72.496002 32.589996 C 73.213676 31.466019 74.234169 30.567535 75.440002 29.998001 C 76.698997 29.401001 78.096001 29.102005 79.632004 29.102005 C 81.167999 29.102005 82.555 29.401001 83.792 29.998001 C 85.028999 30.574005 86 31.395996 86.704002 32.462006 C 87.429001 33.507996 87.792 34.744995 87.792 36.173996 L 87.792 36.494003 C 87.792 37.923996 87.492996 39.139999 86.896004 40.141998 C 86.31292 41.130676 85.500786 41.964767 84.528 42.574005 C 83.525002 43.192993 82.384003 43.705002 81.103996 44.110001 L 79.056 44.75 C 78.139 45.028 77.424004 45.337006 76.912003 45.678001 C 76.400002 45.998001 76.037003 46.361 75.823997 46.765999 C 75.632004 47.150002 75.536003 47.619995 75.536003 48.173996 L 75.536003 48.302002 L 87.599998 48.302002 L 87.599998 51.949997 L 71.344002 51.949997 Z M 95.367996 47.158005 L 94.152 46.181999 L 102.760002 35.541992 L 103.975998 36.518005 L 95.367996 47.158005 Z M 102.120003 47.110001 C 101.308998 47.110001 100.675003 46.897003 100.216003 46.470001 C 99.757004 46.033005 99.528 45.441002 99.528 44.694 L 99.528 44.582001 C 99.528 43.824997 99.758003 43.233002 100.216003 42.806 C 100.675003 42.369003 101.308998 42.149994 102.120003 42.149994 C 102.908997 42.149994 103.539001 42.369003 104.008003 42.806 C 104.476997 43.233002 104.711998 43.824997 104.711998 44.582001 L 104.711998 44.694 C 104.711998 45.441002 104.483002 46.033005 104.024002 46.470001 C 103.565002 46.897003 102.931 47.110001 102.120003 47.110001 Z M 102.120003 45.798004 C 102.429001 45.798004 102.668999 45.701996 102.839996 45.509995 C 103.021004 45.318001 103.112 45.068001 103.112 44.757996 L 103.112 44.501999 C 103.112 44.193001 103.021004 43.942001 102.839996 43.75 C 102.668999 43.557999 102.429001 43.462006 102.120003 43.462006 C 101.810997 43.462006 101.565002 43.557999 101.384003 43.75 C 101.212997 43.942001 101.127998 44.193001 101.127998 44.501999 L 101.127998 44.757996 C 101.127998 45.068001 101.212997 45.318001 101.384003 45.509995 C 101.565002 45.701996 101.810997 45.798004 102.120003 45.798004 Z M 96.008003 40.550003 C 95.197998 40.550003 94.563004 40.337006 94.103996 39.910004 C 93.644997 39.472992 93.416 38.880997 93.416 38.134003 L 93.416 38.022003 C 93.416 37.264999 93.646004 36.673004 94.103996 36.246002 C 94.563004 35.80899 95.196999 35.589996 96.008003 35.589996 C 96.797997 35.589996 97.427002 35.80899 97.896004 36.246002 C 98.365997 36.673004 98.599998 37.264999 98.599998 38.022003 L 98.599998 38.134003 C 98.599998 38.880997 98.370003 39.472992 97.912003 39.910004 C 97.453003 40.337006 96.819 40.550003 96.008003 40.550003 Z M 96.008003 39.238007 C 96.318001 39.238007 96.557999 39.141998 96.727997 38.949997 C 96.908997 38.757996 97 38.507996 97 38.197998 L 97 37.942001 C 97 37.632996 96.910004 37.382004 96.727997 37.190002 C 96.557999 36.998001 96.318001 36.902008 96.008003 36.902008 C 95.697998 36.902008 95.453003 36.998001 95.272003 37.190002 C 95.101997 37.382004 95.015999 37.632996 95.015999 37.942001 L 95.015999 38.197998 C 95.015999 38.507996 95.100998 38.757996 95.272003 38.949997 C 95.453003 39.141998 95.698997 39.238007 96.008003 39.238007 Z M 18.695 91.174004 C 17.863001 91.174004 17.138 91.025002 16.518999 90.725998 C 15.914719 90.440666 15.412222 89.977249 15.079 89.398003 C 14.738 88.801003 14.567 88.07 14.567 87.206001 L 14.567 79.75 L 15.895 79.75 L 15.895 87.222 C 15.895 88.139999 16.139999 88.828003 16.631001 89.286003 C 17.121 89.745003 17.809999 89.973999 18.695 89.973999 C 19.580999 89.973999 20.268 89.745003 20.759001 89.286003 C 21.249001 88.828003 21.495001 88.139999 21.495001 87.222 L 21.495001 79.75 L 22.839001 79.75 L 22.839001 87.206001 C 22.839001 88.07 22.669001 88.801003 22.327 89.398003 C 21.990442 89.980392 21.481821 90.444305 20.871 90.725998 C 20.253 91.025002 19.527 91.174004 18.695 91.174004 Z M 25.351 90.949997 L 25.351 83.125999 L 26.583 83.125999 L 26.583 84.454002 L 26.806999 84.454002 C 26.978001 84.081001 27.267 83.745003 27.671 83.445999 C 28.087 83.137001 28.695 82.982002 29.495001 82.982002 C 30.082001 82.982002 30.605 83.105003 31.063 83.349998 C 31.533001 83.596001 31.906 83.958 32.182999 84.438004 C 32.460999 84.917999 32.598999 85.510002 32.598999 86.213997 L 32.598999 90.949997 L 31.334999 90.949997 L 31.334999 86.309998 C 31.334999 85.531998 31.138 84.966003 30.743 84.613998 C 30.358999 84.262001 29.837 84.085999 29.174999 84.085999 C 28.417999 84.085999 27.799 84.332001 27.319 84.821999 C 26.85 85.313004 26.615 86.043999 26.615 87.014 L 26.615 90.949997 L 25.351 90.949997 Z M 36.480999 90.949997 L 36.480999 84.230003 L 34.081001 84.230003 L 34.081001 83.125999 L 36.480999 83.125999 L 36.480999 81.125999 C 36.480999 80.699997 36.598 80.363998 36.833 80.117996 C 37.077999 79.873001 37.424999 79.75 37.873001 79.75 L 39.841 79.75 L 39.841 80.837997 L 38.224998 80.837997 C 37.904999 80.837997 37.744999 80.998001 37.744999 81.318001 L 37.744999 83.125999 L 40.209 83.125999 L 40.209 84.230003 L 37.744999 84.230003 L 37.744999 90.949997 L 36.480999 90.949997 Z M 44.283001 91.174004 C 43.772541 91.180557 43.266148 91.08255 42.794998 90.886002 C 42.347 90.694 41.994999 90.417 41.738998 90.054001 C 41.483002 89.692001 41.355 89.249001 41.355 88.725998 C 41.355 88.193001 41.483002 87.755997 41.738998 87.414001 C 42.005707 87.05397 42.373203 86.781136 42.794998 86.629997 C 43.243 86.448997 43.743999 86.358002 44.299 86.358002 L 46.938999 86.358002 L 46.938999 85.781998 C 46.938999 85.227997 46.772999 84.790001 46.443001 84.470001 C 46.123001 84.150002 45.643002 83.989998 45.002998 83.989998 C 44.373001 83.989998 43.882999 84.144997 43.530998 84.454002 C 43.179001 84.752998 42.938999 85.157997 42.811001 85.669998 L 41.626999 85.286003 C 41.751369 84.855797 41.957832 84.453735 42.235001 84.101997 C 42.512001 83.739998 42.880001 83.452003 43.339001 83.237999 C 43.807999 83.014 44.368 82.902 45.019001 82.902 C 46.021 82.902 46.799999 83.164001 47.355 83.685997 C 47.909 84.197998 48.187 84.924004 48.187 85.862 L 48.187 89.398003 C 48.187 89.718002 48.335999 89.877998 48.634998 89.877998 L 49.355 89.877998 L 49.355 90.949997 L 48.25 90.949997 C 47.897999 90.949997 47.615002 90.853996 47.402 90.662003 C 47.188 90.459999 47.082001 90.193001 47.082001 89.862 L 47.082001 89.781998 L 46.889999 89.781998 C 46.752743 90.011482 46.591869 90.225983 46.41 90.421997 C 46.217999 90.636002 45.951 90.811996 45.610001 90.949997 C 45.268002 91.099998 44.826 91.174004 44.282001 91.174004 Z M 44.426998 90.085999 C 45.173 90.085999 45.776001 89.867996 46.235001 89.43 C 46.703999 88.982002 46.938999 88.358002 46.938999 87.557999 L 46.938999 87.382004 L 44.347 87.382004 C 43.845001 87.382004 43.429001 87.494003 43.098999 87.718002 C 42.778999 87.931999 42.618999 88.257004 42.618999 88.694 C 42.618999 89.132004 42.784 89.473 43.115002 89.718002 C 43.456001 89.963997 43.893002 90.085999 44.426998 90.085999 Z M 51.085999 90.949997 L 51.085999 83.125999 L 52.349998 83.125999 L 52.349998 90.949997 L 51.085999 90.949997 Z M 51.726002 81.910004 C 51.464565 81.916176 51.211369 81.818352 51.021999 81.638 C 50.840298 81.456017 50.741863 81.207039 50.75 80.949997 C 50.75 80.662003 50.84 80.428001 51.021999 80.246002 C 51.211369 80.065651 51.464565 79.967827 51.726002 79.973999 C 52.002998 79.973999 52.233002 80.065002 52.414001 80.246002 C 52.595001 80.428001 52.686001 80.662003 52.686001 80.949997 C 52.686001 81.227997 52.596001 81.457001 52.414001 81.638 C 52.232014 81.819702 51.98304 81.918137 51.726002 81.910004 Z M 55.007999 90.949997 L 55.007999 83.125999 L 56.240002 83.125999 L 56.240002 84.085999 L 56.464001 84.085999 C 56.602001 83.745003 56.816002 83.494003 57.104 83.334 C 57.391998 83.174004 57.77 83.094002 58.240002 83.094002 L 59.167999 83.094002 L 59.167999 84.246002 L 58.16 84.246002 C 57.594002 84.246002 57.136002 84.405998 56.784 84.725998 C 56.442001 85.036003 56.271999 85.521004 56.271999 86.181999 L 56.271999 90.949997 L 55.007999 90.949997 Z M 68.028 90.949997 C 67.580002 90.949997 67.234001 90.828003 66.987999 90.582001 C 66.753998 90.336998 66.636002 90.000999 66.636002 89.573997 L 66.636002 84.230003 L 64.283997 84.230003 L 64.283997 83.125999 L 66.636002 83.125999 L 66.636002 80.342003 L 67.900002 80.342003 L 67.900002 83.125999 L 70.459999 83.125999 L 70.459999 84.230003 L 67.900002 84.230003 L 67.900002 89.382004 C 67.900002 89.702003 68.055 89.862 68.363998 89.862 L 70.108002 89.862 L 70.108002 90.949997 L 68.028 90.949997 Z M 72.508003 90.949997 L 72.508003 83.125999 L 73.739998 83.125999 L 73.739998 84.085999 L 73.963997 84.085999 C 74.101997 83.745003 74.316002 83.494003 74.603996 83.334 C 74.891998 83.174004 75.269997 83.094002 75.739998 83.094002 L 76.667999 83.094002 L 76.667999 84.246002 L 75.660004 84.246002 C 75.094002 84.246002 74.636002 84.405998 74.283997 84.725998 C 73.942001 85.036003 73.772003 85.521004 73.772003 86.181999 L 73.772003 90.949997 L 72.508003 90.949997 Z M 81.842003 91.174004 C 81.052002 91.174004 80.359001 91.009003 79.762001 90.678001 C 79.172531 90.344704 78.689812 89.850891 78.370003 89.253998 C 78.039001 88.646004 77.874001 87.942001 77.874001 87.141998 L 77.874001 86.949997 C 77.874001 86.139999 78.039001 85.43 78.370003 84.821999 C 78.699997 84.213997 79.158997 83.745003 79.746002 83.414001 C 80.332001 83.072998 81.003998 82.902 81.762001 82.902 C 82.498001 82.902 83.148003 83.061996 83.713997 83.382004 C 84.278999 83.692001 84.722 84.139999 85.042 84.725998 C 85.362 85.313004 85.522003 86.000999 85.522003 86.790001 L 85.522003 87.365997 L 79.138 87.365997 C 79.169998 88.209 79.442001 88.870003 79.954002 89.349998 C 80.466003 89.82 81.106003 90.054001 81.874001 90.054001 C 82.545998 90.054001 83.063004 89.900002 83.426003 89.589996 C 83.788002 89.280998 84.066002 88.913002 84.258003 88.486 L 85.346001 89.014 C 85.185997 89.345001 84.961998 89.676003 84.674004 90.005997 C 84.396004 90.336998 84.028 90.613998 83.57 90.837997 C 83.122002 91.061996 82.545998 91.174004 81.842003 91.174004 Z M 79.153999 86.325996 L 84.241997 86.325996 C 84.198997 85.600998 83.947998 85.036003 83.489998 84.629997 C 83.042 84.224998 82.466003 84.022003 81.762001 84.022003 C 81.046997 84.022003 80.459999 84.224998 80.001999 84.629997 C 79.542999 85.036003 79.260002 85.600998 79.153999 86.325996 Z M 90.125999 91.174004 C 89.61554 91.180557 89.109146 91.08255 88.638 90.886002 C 88.190002 90.694 87.837997 90.417 87.582001 90.054001 C 87.325996 89.692001 87.197998 89.249001 87.197998 88.725998 C 87.197998 88.193001 87.325996 87.755997 87.582001 87.414001 C 87.848709 87.05397 88.216202 86.781136 88.638 86.629997 C 89.085999 86.448997 89.587997 86.358002 90.141998 86.358002 L 92.781998 86.358002 L 92.781998 85.781998 C 92.781998 85.227997 92.616997 84.790001 92.286003 84.470001 C 91.966003 84.150002 91.486 83.989998 90.846001 83.989998 C 90.217003 83.989998 89.725998 84.144997 89.374001 84.454002 C 89.022003 84.752998 88.781998 85.157997 88.653999 85.669998 L 87.470001 85.286003 C 87.594368 84.855797 87.800835 84.453735 88.078003 84.101997 C 88.369804 83.72805 88.748878 83.431381 89.181999 83.237999 C 89.652 83.014 90.211998 82.902 90.862 82.902 C 91.864998 82.902 92.643997 83.164001 93.197998 83.685997 C 93.752998 84.197998 94.029999 84.924004 94.029999 85.862 L 94.029999 89.398003 C 94.029999 89.718002 94.18 89.877998 94.477997 89.877998 L 95.197998 89.877998 L 95.197998 90.949997 L 94.094002 90.949997 C 93.741997 90.949997 93.459999 90.853996 93.246002 90.662003 C 93.032997 90.459999 92.926003 90.193001 92.926003 89.862 L 92.926003 89.781998 L 92.734001 89.781998 C 92.596741 90.011482 92.435867 90.225983 92.253998 90.421997 C 92.061996 90.636002 91.795998 90.811996 91.454002 90.949997 C 91.113998 91.099998 90.669998 91.174004 90.125999 91.174004 Z M 90.269997 90.085999 C 91.016998 90.085999 91.620003 89.867996 92.078003 89.43 C 92.547997 88.982002 92.781998 88.358002 92.781998 87.557999 L 92.781998 87.382004 L 90.190002 87.382004 C 89.690002 87.382004 89.273003 87.494003 88.942001 87.718002 C 88.622002 87.931999 88.461998 88.257004 88.461998 88.694 C 88.461998 89.132004 88.627998 89.473 88.958 89.718002 C 89.300003 89.963997 89.737999 90.085999 90.269997 90.085999 Z M 99.293999 90.949997 C 98.846001 90.949997 98.499001 90.828003 98.253998 90.582001 C 98.018997 90.336998 97.902 90.000999 97.902 89.573997 L 97.902 84.230003 L 95.550003 84.230003 L 95.550003 83.125999 L 97.902 83.125999 L 97.902 80.342003 L 99.166 80.342003 L 99.166 83.125999 L 101.725998 83.125999 L 101.725998 84.230003 L 99.166 84.230003 L 99.166 89.382004 C 99.166 89.702003 99.320999 89.862 99.629997 89.862 L 101.374001 89.862 L 101.374001 90.949997 L 99.293999 90.949997 Z M 103.773003 90.949997 L 103.773003 83.125999 L 105.004997 83.125999 L 105.004997 84.101997 L 105.228996 84.101997 C 105.378998 83.824997 105.624001 83.569 105.964996 83.334 C 106.306999 83.099998 106.787003 82.982002 107.404999 82.982002 C 108.013 82.982002 108.503998 83.115997 108.876999 83.382004 C 109.261002 83.649002 109.539001 83.973999 109.709 84.358002 L 109.932999 84.358002 C 110.114998 83.973999 110.387001 83.649002 110.749001 83.382004 C 111.123001 83.115997 111.639999 82.982002 112.301003 82.982002 C 112.823997 82.982002 113.282997 83.088997 113.677002 83.302002 C 114.071999 83.515999 114.380997 83.824997 114.605003 84.230003 C 114.839996 84.625 114.957001 85.099998 114.957001 85.653999 L 114.957001 90.949997 L 113.693001 90.949997 L 113.693001 85.765999 C 113.693001 85.244003 113.539001 84.833 113.228996 84.533997 C 112.931 84.224998 112.509003 84.07 111.964996 84.07 C 111.389 84.07 110.915001 84.257004 110.541 84.629997 C 110.179001 85.003998 109.997002 85.542 109.997002 86.246002 L 109.997002 90.949997 L 108.733002 90.949997 L 108.733002 85.765999 C 108.733002 85.244003 108.579002 84.833 108.268997 84.533997 C 107.971001 84.224998 107.549004 84.07 107.004997 84.07 C 106.429001 84.07 105.955002 84.257004 105.581001 84.629997 C 105.219002 85.003998 105.037003 85.542 105.037003 86.246002 L 105.037003 90.949997 L 103.773003 90.949997 Z M 121.123001 91.174004 C 120.334 91.174004 119.639999 91.009003 119.042999 90.678001 C 118.453667 90.344528 117.970993 89.850761 117.651001 89.253998 C 117.32 88.646004 117.154999 87.942001 117.154999 87.141998 L 117.154999 86.949997 C 117.154999 86.139999 117.32 85.43 117.651001 84.821999 C 117.965408 84.230614 118.442993 83.74192 119.027 83.414001 C 119.613998 83.072998 120.286003 82.902 121.042999 82.902 C 121.778999 82.902 122.43 83.061996 122.995003 83.382004 C 123.559998 83.692001 124.002998 84.139999 124.322998 84.725998 C 124.642998 85.313004 124.803001 86.000999 124.803001 86.790001 L 124.803001 87.365997 L 118.418999 87.365997 C 118.450996 88.209 118.723 88.870003 119.235001 89.349998 C 119.747002 89.82 120.387001 90.054001 121.154999 90.054001 C 121.827003 90.054001 122.344002 89.900002 122.707001 89.589996 C 123.07 89.280998 123.347 88.913002 123.539001 88.486 L 124.626999 89.014 C 124.467003 89.345001 124.242996 89.676003 123.955002 90.005997 C 123.678001 90.336998 123.309998 90.613998 122.850998 90.837997 C 122.403 91.061996 121.827003 91.174004 121.123001 91.174004 Z M 118.434998 86.325996 L 123.523003 86.325996 C 123.480003 85.600998 123.230003 85.036003 122.771004 84.629997 C 122.322998 84.224998 121.747002 84.022003 121.042999 84.022003 C 120.328003 84.022003 119.741997 84.224998 119.282997 84.629997 C 118.823997 85.036003 118.542 85.600998 118.434998 86.325996 Z M 127.008003 90.949997 L 127.008003 83.125999 L 128.240005 83.125999 L 128.240005 84.454002 L 128.464005 84.454002 C 128.634003 84.081001 128.921997 83.745003 129.328003 83.445999 C 129.744003 83.137001 130.352005 82.982002 131.151993 82.982002 C 131.738007 82.982002 132.261002 83.105003 132.720001 83.349998 C 133.188995 83.596001 133.561996 83.958 133.839996 84.438004 C 134.117004 84.917999 134.255997 85.510002 134.255997 86.213997 L 134.255997 90.949997 L 132.992004 90.949997 L 132.992004 86.309998 C 132.992004 85.531998 132.794006 84.966003 132.399994 84.613998 C 132.016006 84.262001 131.492996 84.085999 130.832001 84.085999 C 130.074005 84.085999 129.455994 84.332001 128.975998 84.821999 C 128.505997 85.313004 128.272003 86.043999 128.272003 87.014 L 128.272003 90.949997 L 127.008003 90.949997 Z M 139.481003 90.949997 C 139.033005 90.949997 138.686996 90.828003 138.440994 90.582001 C 138.207001 90.336998 138.089005 90.000999 138.089005 89.573997 L 138.089005 84.230003 L 135.737 84.230003 L 135.737 83.125999 L 138.089005 83.125999 L 138.089005 80.342003 L 139.352997 80.342003 L 139.352997 83.125999 L 141.912994 83.125999 L 141.912994 84.230003 L 139.352997 84.230003 L 139.352997 89.382004 C 139.352997 89.702003 139.507996 89.862 139.817001 89.862 L 141.561005 89.862 L 141.561005 90.949997 L 139.481003 90.949997 Z M 31.297001 114.949997 L 31.297001 107.125999 L 32.561001 107.125999 L 32.561001 114.949997 L 31.297001 114.949997 Z M 31.937 105.910004 C 31.675508 105.916512 31.422186 105.818634 31.233 105.638 C 31.051092 105.456146 30.952623 105.207077 30.961 104.949997 C 30.961 104.662003 31.051001 104.428001 31.233 104.246002 C 31.422426 104.065742 31.675585 103.967934 31.937 103.973999 C 32.214001 103.973999 32.443001 104.065002 32.625 104.246002 C 32.808582 104.433304 32.906956 104.68792 32.896999 104.949997 C 32.90514 105.207016 32.806614 105.455956 32.624783 105.637779 C 32.442955 105.819611 32.194016 105.918137 31.937 105.910004 Z M 35.219002 114.949997 L 35.219002 107.125999 L 36.451 107.125999 L 36.451 108.454002 L 36.674999 108.454002 C 36.845001 108.081001 37.132999 107.745003 37.539001 107.445999 C 37.955002 107.137001 38.563 106.982002 39.362999 106.982002 C 39.949001 106.982002 40.472 107.105003 40.931 107.349998 C 41.400002 107.596001 41.772999 107.958 42.050999 108.438004 C 42.327999 108.917999 42.466999 109.510002 42.466999 110.213997 L 42.466999 114.949997 L 41.202999 114.949997 L 41.202999 110.309998 C 41.202999 109.531998 41.005001 108.966003 40.611 108.613998 C 40.227001 108.262001 39.703999 108.085999 39.042999 108.085999 C 38.285 108.085999 37.667 108.332001 37.187 108.821999 C 36.716999 109.313004 36.483002 110.043999 36.483002 111.014 L 36.483002 114.949997 L 35.219002 114.949997 Z M 49.140999 118.150002 L 49.140999 107.125999 L 50.373001 107.125999 L 50.373001 108.421997 L 50.597 108.421997 C 50.799 108.028 51.124001 107.676003 51.571999 107.365997 C 52.032001 107.056999 52.666 106.902 53.476002 106.902 C 54.147999 106.902 54.762001 107.068001 55.316002 107.398003 C 55.884377 107.721291 56.35017 108.198174 56.66 108.774002 C 57.001999 109.372002 57.173 110.092003 57.173 110.933998 L 57.173 111.141998 C 57.173 111.973999 57.007 112.694 56.675999 113.302002 C 56.370132 113.884499 55.904171 114.367462 55.333 114.694 C 54.778 115.014 54.159 115.174004 53.477001 115.174004 C 52.932999 115.174004 52.469002 115.099998 52.084999 114.949997 C 51.746639 114.833076 51.435886 114.647919 51.172001 114.405998 C 50.956524 114.206116 50.77335 113.974022 50.629002 113.718002 L 50.404999 113.718002 L 50.404999 118.150002 L 49.139999 118.150002 Z M 53.140999 114.054001 C 53.951 114.054001 54.606998 113.797997 55.109001 113.286003 C 55.619999 112.764 55.875999 112.038002 55.875999 111.110001 L 55.875999 110.966003 C 55.875999 110.038002 55.620998 109.318001 55.109001 108.806 C 54.606998 108.283997 53.951 108.022003 53.140999 108.022003 C 52.341 108.022003 51.679001 108.283997 51.157001 108.806 C 50.645 109.318001 50.389 110.038002 50.389 110.966003 L 50.389 111.110001 C 50.389 112.038002 50.644001 112.764 51.155998 113.286003 C 51.679001 113.797997 52.34 114.054001 53.140999 114.054001 Z M 59.437 114.949997 L 59.437 107.125999 L 60.668999 107.125999 L 60.668999 108.085999 L 60.893002 108.085999 C 61.032001 107.745003 61.244999 107.494003 61.533001 107.334 C 61.820999 107.174004 62.200001 107.094002 62.668999 107.094002 L 63.597 107.094002 L 63.597 108.246002 L 62.59 108.246002 C 62.025002 108.246002 61.566002 108.405998 61.214001 108.725998 C 60.873001 109.036003 60.702 109.521004 60.702 110.181999 L 60.702 114.949997 L 59.438 114.949997 Z M 68.771004 115.174004 C 67.982002 115.174004 67.289001 115.009003 66.691002 114.678001 C 66.101433 114.344841 65.618675 113.85099 65.299004 113.253998 C 64.969002 112.646004 64.803001 111.942001 64.803001 111.141998 L 64.803001 110.949997 C 64.803001 110.139999 64.969002 109.43 65.299004 108.821999 C 65.613503 108.230682 66.091064 107.742012 66.675003 107.414001 C 67.262001 107.072998 67.933998 106.902 68.691002 106.902 C 69.427002 106.902 70.078003 107.061996 70.642998 107.382004 C 71.209 107.692001 71.651001 108.139999 71.971001 108.725998 C 72.291 109.313004 72.450996 110.000999 72.450996 110.790001 L 72.450996 111.365997 L 66.067001 111.365997 C 66.098999 112.209 66.371002 112.870003 66.883003 113.349998 C 67.394997 113.82 68.035004 114.054001 68.803001 114.054001 C 69.474998 114.054001 69.992996 113.900002 70.355003 113.589996 C 70.718002 113.280998 70.995003 112.913002 71.186996 112.486 L 72.275002 113.014 C 72.114998 113.345001 71.890999 113.676003 71.602997 114.005997 C 71.325996 114.336998 70.958 114.613998 70.499001 114.837997 C 70.051003 115.061996 69.474998 115.174004 68.771004 115.174004 Z M 66.083 110.325996 L 71.170998 110.325996 C 71.128998 109.600998 70.877998 109.036003 70.418999 108.629997 C 69.971001 108.224998 69.394997 108.022003 68.691002 108.022003 C 67.976997 108.022003 67.389999 108.224998 66.931 108.629997 C 66.473 109.036003 66.190002 109.600998 66.083 110.325996 Z M 76.311996 114.949997 L 73.512001 107.125999 L 74.856003 107.125999 L 77.208 114.005997 L 77.431999 114.005997 L 79.783997 107.125999 L 81.127998 107.125999 L 78.328003 114.949997 L 76.311996 114.949997 Z M 82.954002 115.174004 C 82.643997 115.174004 82.383003 115.072998 82.169998 114.870003 C 81.967003 114.667999 81.864998 114.405998 81.864998 114.085999 C 81.864998 113.765999 81.967003 113.504997 82.169998 113.302002 C 82.383003 113.099998 82.643997 112.998001 82.954002 112.998001 C 83.274002 112.998001 83.533997 113.099998 83.737999 113.302002 C 83.940002 113.504997 84.041 113.765999 84.041 114.085999 C 84.041 114.405998 83.941002 114.667999 83.737999 114.870003 C 83.535004 115.072998 83.273003 115.174004 82.954002 115.174004 Z M 89.890999 114.949997 L 89.890999 107.125999 L 91.122002 107.125999 L 91.122002 108.085999 L 91.347 108.085999 C 91.465782 107.768173 91.692253 107.502068 91.987 107.334 C 92.275002 107.174004 92.653 107.094002 93.123001 107.094002 L 94.050003 107.094002 L 94.050003 108.246002 L 93.042999 108.246002 C 92.476997 108.246002 92.017998 108.405998 91.666 108.725998 C 91.325996 109.036003 91.154999 109.521004 91.154999 110.181999 L 91.154999 114.949997 L 89.889999 114.949997 Z M 99.255997 115.174004 C 98.467003 115.174004 97.768997 115.009003 97.160004 114.678001 C 96.57003 114.354744 96.082565 113.872475 95.752998 113.286003 C 95.421997 112.678001 95.257004 111.963997 95.257004 111.141998 L 95.257004 110.933998 C 95.257004 110.124001 95.421997 109.414001 95.751999 108.806 C 96.07888 108.212723 96.56749 107.724457 97.161003 107.398003 C 97.768997 107.068001 98.467003 106.902 99.257004 106.902 C 100.045998 106.902 100.738998 107.068001 101.336998 107.398003 C 101.945 107.728996 102.414001 108.197998 102.745003 108.806 C 103.085999 109.414001 103.257004 110.124001 103.257004 110.933998 L 103.257004 111.141998 C 103.257004 111.963997 103.085999 112.678001 102.745003 113.286003 C 102.421135 113.877136 101.931801 114.360916 101.336998 114.678001 C 100.738998 115.009003 100.045998 115.174004 99.257004 115.174004 Z M 99.255997 114.038002 C 100.088997 114.038002 100.75 113.777 101.240997 113.253998 C 101.741997 112.721001 101.992996 112.005997 101.992996 111.110001 L 101.992996 110.966003 C 101.992996 110.07 101.741997 109.361 101.240997 108.837997 C 100.75 108.305 100.088997 108.038002 99.257004 108.038002 C 98.434998 108.038002 97.774002 108.305 97.272003 108.837997 C 96.772003 109.361 96.519997 110.07 96.519997 110.966003 L 96.519997 111.110001 C 96.519997 112.005997 96.771004 112.721001 97.272003 113.253998 C 97.774002 113.777 98.434998 114.038002 99.255997 114.038002 Z M 105.530998 114.949997 L 105.530998 103.75 L 106.794998 103.75 L 106.794998 114.949997 L 105.530998 114.949997 Z M 113.037003 115.174004 C 112.248001 115.174004 111.554001 115.009003 110.957001 114.678001 C 110.367599 114.34462 109.884903 113.850822 109.565002 113.253998 C 109.234001 112.646004 109.069 111.942001 109.069 111.141998 L 109.069 110.949997 C 109.069 110.139999 109.234001 109.43 109.565002 108.821999 C 109.879501 108.230682 110.357063 107.742012 110.941002 107.414001 C 111.528 107.072998 112.199997 106.902 112.957001 106.902 C 113.693001 106.902 114.344002 107.061996 114.908997 107.382004 C 115.473198 107.690994 115.934784 108.158142 116.237 108.725998 C 116.556999 109.313004 116.717003 110.000999 116.717003 110.790001 L 116.717003 111.365997 L 110.333 111.365997 C 110.364998 112.209 110.637001 112.870003 111.149002 113.349998 C 111.661003 113.82 112.301003 114.054001 113.069 114.054001 C 113.740997 114.054001 114.258003 113.900002 114.621002 113.589996 C 114.984001 113.280998 115.261002 112.913002 115.453003 112.486 L 116.541 113.014 C 116.380997 113.345001 116.156998 113.676003 115.869003 114.005997 C 115.592003 114.336998 115.223999 114.613998 114.764999 114.837997 C 114.317001 115.061996 113.740997 115.174004 113.037003 115.174004 Z M 110.348999 110.325996 L 115.436996 110.325996 C 115.393997 109.600998 115.143997 109.036003 114.684998 108.629997 C 114.237 108.224998 113.661003 108.022003 112.957001 108.022003 C 112.241997 108.022003 111.655998 108.224998 111.196999 108.629997 C 110.737999 109.036003 110.456001 109.600998 110.348999 110.325996 Z M 122.073997 115.174004 C 121.102997 115.174004 120.281998 114.949997 119.610001 114.501999 C 118.947998 114.054001 118.547997 113.345001 118.410004 112.374001 L 119.610001 112.101997 C 119.695 112.613998 119.855003 113.019997 120.089996 113.318001 C 120.323997 113.606003 120.612 113.814003 120.954002 113.942001 C 121.306 114.059998 121.679001 114.117996 122.073997 114.117996 C 122.660004 114.117996 123.124001 114.000999 123.466003 113.765999 C 123.806999 113.531998 123.977997 113.217003 123.977997 112.821999 C 123.977997 112.417 123.811996 112.134003 123.482002 111.973999 C 123.162003 111.804001 122.719002 111.665001 122.153999 111.557999 L 121.498001 111.445999 C 121.024696 111.369461 120.562576 111.235123 120.122002 111.045998 C 119.735184 110.887131 119.394196 110.63414 119.129997 110.309998 C 118.884003 110.000999 118.762001 109.612 118.762001 109.141998 C 118.762001 108.438004 119.033997 107.889 119.578003 107.494003 C 120.122002 107.099998 120.842003 106.902 121.737999 106.902 C 122.623001 106.902 123.337997 107.105003 123.882004 107.510002 C 124.435997 107.904999 124.793999 108.464996 124.954002 109.190002 L 123.769997 109.494003 C 123.674004 108.929001 123.444 108.533997 123.082001 108.309998 C 122.719002 108.075996 122.271004 107.958 121.737999 107.958 C 121.204002 107.958 120.782997 108.059998 120.473999 108.262001 C 120.164001 108.454002 120.010002 108.741997 120.010002 109.125999 C 120.010002 109.5 120.153999 109.777 120.442001 109.958 C 120.739998 110.128998 121.135002 110.257004 121.625999 110.342003 L 122.281998 110.454002 C 122.835999 110.550003 123.332001 110.683998 123.769997 110.853996 C 124.218002 111.014 124.57 111.249001 124.825996 111.557999 C 125.092003 111.867996 125.225998 112.273003 125.225998 112.774002 C 125.225998 113.542 124.938004 114.134003 124.362 114.550003 C 123.795998 114.966003 123.033997 115.174004 122.073997 115.174004 Z"/>
</svg>
