<svg width="318" height="170" viewBox="0 0 318 170" fill="none" xmlns="http://www.w3.org/2000/svg">
<path fill-rule="evenodd" clip-rule="evenodd" d="M84.8834 142.425H68.5139V155.318H62.376L76.6993 170L91.0226 155.318H84.8834V142.425Z" fill="#F6331C"/>
<rect width="150" height="150" transform="translate(167.583)" fill="#F6331C"/>
<path d="M227.442 51.448C225.735 51.448 224.253 51.128 222.994 50.488C221.735 49.848 220.765 48.9627 220.082 47.832C219.399 46.7013 219.058 45.4 219.058 43.928V36.28C219.058 34.4667 219.421 32.9627 220.146 31.768C220.893 30.552 221.906 29.6453 223.186 29.048C224.487 28.4507 225.97 28.152 227.634 28.152C229.298 28.152 230.738 28.4293 231.954 28.984C233.191 29.5387 234.141 30.3387 234.802 31.384C235.485 32.4293 235.826 33.6773 235.826 35.128H231.666C231.666 34.232 231.357 33.4533 230.738 32.792C230.119 32.1307 229.085 31.8 227.634 31.8C226.205 31.8 225.095 32.1733 224.306 32.92C223.538 33.6667 223.154 34.7013 223.154 36.024V38.328H223.73C224.093 37.9013 224.647 37.496 225.394 37.112C226.141 36.728 227.229 36.536 228.658 36.536C229.959 36.536 231.154 36.8133 232.242 37.368C233.351 37.9227 234.247 38.7333 234.93 39.8C235.613 40.8453 235.954 42.1147 235.954 43.608V43.992C235.954 45.464 235.602 46.7653 234.898 47.896C234.194 49.0053 233.202 49.88 231.922 50.52C230.642 51.1387 229.149 51.448 227.442 51.448ZM227.506 47.8C228.85 47.8 229.906 47.448 230.674 46.744C231.463 46.04 231.858 45.1013 231.858 43.928V43.672C231.858 42.8827 231.677 42.2 231.314 41.624C230.973 41.048 230.471 40.6 229.81 40.28C229.17 39.96 228.402 39.8 227.506 39.8C226.631 39.8 225.863 39.96 225.202 40.28C224.541 40.6 224.029 41.048 223.666 41.624C223.325 42.2 223.154 42.8827 223.154 43.672V43.928C223.154 45.1013 223.538 46.04 224.306 46.744C225.095 47.448 226.162 47.8 227.506 47.8ZM245.37 51V31.608H244.794L241.786 38.712H237.498L242.074 28.6H249.466V51H245.37Z" fill="white"/>
<path d="M257.951 46.208L256.735 45.232L265.343 34.592L266.559 35.568L257.951 46.208ZM264.703 46.16C263.892 46.16 263.258 45.9467 262.799 45.52C262.34 45.0827 262.111 44.4907 262.111 43.744V43.632C262.111 42.8747 262.34 42.2827 262.799 41.856C263.258 41.4187 263.892 41.2 264.703 41.2C265.492 41.2 266.122 41.4187 266.591 41.856C267.06 42.2827 267.295 42.8747 267.295 43.632V43.744C267.295 44.4907 267.066 45.0827 266.607 45.52C266.148 45.9467 265.514 46.16 264.703 46.16ZM264.703 44.848C265.012 44.848 265.252 44.752 265.423 44.56C265.604 44.368 265.695 44.1173 265.695 43.808V43.552C265.695 43.2427 265.604 42.992 265.423 42.8C265.252 42.608 265.012 42.512 264.703 42.512C264.394 42.512 264.148 42.608 263.967 42.8C263.796 42.992 263.711 43.2427 263.711 43.552V43.808C263.711 44.1173 263.796 44.368 263.967 44.56C264.148 44.752 264.394 44.848 264.703 44.848ZM258.591 39.6C257.78 39.6 257.146 39.3867 256.687 38.96C256.228 38.5227 255.999 37.9307 255.999 37.184V37.072C255.999 36.3147 256.228 35.7227 256.687 35.296C257.146 34.8587 257.78 34.64 258.591 34.64C259.38 34.64 260.01 34.8587 260.479 35.296C260.948 35.7227 261.183 36.3147 261.183 37.072V37.184C261.183 37.9307 260.954 38.5227 260.495 38.96C260.036 39.3867 259.402 39.6 258.591 39.6ZM258.591 38.288C258.9 38.288 259.14 38.192 259.311 38C259.492 37.808 259.583 37.5573 259.583 37.248V36.992C259.583 36.6827 259.492 36.432 259.311 36.24C259.14 36.048 258.9 35.952 258.591 35.952C258.282 35.952 258.036 36.048 257.855 36.24C257.684 36.432 257.599 36.6827 257.599 36.992V37.248C257.599 37.5573 257.684 37.808 257.855 38C258.036 38.192 258.282 38.288 258.591 38.288Z" fill="white"/>
<path d="M190.929 90V88.8H192.497V80H190.929V78.8H196.545C197.195 78.8 197.771 78.9173 198.273 79.152C198.785 79.3867 199.179 79.7173 199.457 80.144C199.745 80.56 199.889 81.0507 199.889 81.616V81.744C199.889 82.2667 199.787 82.6987 199.585 83.04C199.382 83.3707 199.142 83.632 198.865 83.824C198.587 84.0053 198.315 84.1387 198.049 84.224V84.448C198.315 84.512 198.593 84.64 198.881 84.832C199.169 85.0133 199.409 85.2747 199.601 85.616C199.803 85.9573 199.905 86.3893 199.905 86.912V87.072C199.905 87.68 199.755 88.208 199.457 88.656C199.169 89.0933 198.769 89.4293 198.257 89.664C197.755 89.888 197.179 90 196.529 90H190.929ZM193.841 88.784H196.385C197.089 88.784 197.627 88.6187 198.001 88.288C198.374 87.9573 198.561 87.5093 198.561 86.944V86.8C198.561 86.2347 198.374 85.7867 198.001 85.456C197.627 85.1253 197.089 84.96 196.385 84.96H193.841V88.784ZM193.841 83.744H196.433C197.073 83.744 197.585 83.584 197.969 83.264C198.353 82.9333 198.545 82.5013 198.545 81.968V81.808C198.545 81.264 198.353 80.832 197.969 80.512C197.595 80.1813 197.083 80.016 196.433 80.016H193.841V83.744ZM205.667 90.224C204.878 90.224 204.184 90.0587 203.587 89.728C202.99 89.3867 202.526 88.912 202.195 88.304C201.864 87.696 201.699 86.992 201.699 86.192V86C201.699 85.1893 201.864 84.48 202.195 83.872C202.526 83.264 202.984 82.7947 203.571 82.464C204.158 82.1227 204.83 81.952 205.587 81.952C206.323 81.952 206.974 82.112 207.539 82.432C208.104 82.7413 208.547 83.1893 208.867 83.776C209.187 84.3627 209.347 85.0507 209.347 85.84V86.416H202.963C202.995 87.2587 203.267 87.92 203.779 88.4C204.291 88.8693 204.931 89.104 205.699 89.104C206.371 89.104 206.888 88.9493 207.251 88.64C207.614 88.3307 207.891 87.9627 208.083 87.536L209.171 88.064C209.011 88.3947 208.787 88.7253 208.499 89.056C208.222 89.3867 207.854 89.664 207.395 89.888C206.947 90.112 206.371 90.224 205.667 90.224ZM202.979 85.376H208.067C208.024 84.6507 207.774 84.0853 207.315 83.68C206.867 83.2747 206.291 83.072 205.587 83.072C204.872 83.072 204.286 83.2747 203.827 83.68C203.368 84.0853 203.086 84.6507 202.979 85.376ZM215.152 90.224C214.394 90.224 213.712 90.064 213.104 89.744C212.506 89.4133 212.032 88.944 211.68 88.336C211.338 87.728 211.168 87.008 211.168 86.176V86C211.168 85.1573 211.338 84.4373 211.68 83.84C212.032 83.232 212.506 82.768 213.104 82.448C213.712 82.1173 214.394 81.952 215.152 81.952C215.898 81.952 216.533 82.0907 217.056 82.368C217.589 82.6453 218.005 83.0133 218.304 83.472C218.613 83.9307 218.81 84.4213 218.896 84.944L217.664 85.2C217.61 84.816 217.482 84.464 217.28 84.144C217.088 83.824 216.816 83.568 216.464 83.376C216.112 83.184 215.68 83.088 215.168 83.088C214.645 83.088 214.176 83.2053 213.76 83.44C213.354 83.6747 213.029 84.0107 212.784 84.448C212.549 84.8853 212.432 85.408 212.432 86.016V86.16C212.432 86.768 212.549 87.2907 212.784 87.728C213.029 88.1653 213.354 88.5013 213.76 88.736C214.176 88.9707 214.645 89.088 215.168 89.088C215.946 89.088 216.538 88.8853 216.944 88.48C217.36 88.0747 217.616 87.5733 217.712 86.976L218.96 87.248C218.842 87.76 218.629 88.2453 218.32 88.704C218.01 89.1627 217.589 89.5307 217.056 89.808C216.533 90.0853 215.898 90.224 215.152 90.224ZM224.73 90.224C223.941 90.224 223.242 90.0587 222.634 89.728C222.037 89.3973 221.567 88.9333 221.226 88.336C220.895 87.728 220.73 87.0133 220.73 86.192V85.984C220.73 85.1733 220.895 84.464 221.226 83.856C221.567 83.248 222.037 82.7787 222.634 82.448C223.242 82.1173 223.941 81.952 224.73 81.952C225.519 81.952 226.213 82.1173 226.81 82.448C227.418 82.7787 227.887 83.248 228.218 83.856C228.559 84.464 228.73 85.1733 228.73 85.984V86.192C228.73 87.0133 228.559 87.728 228.218 88.336C227.887 88.9333 227.418 89.3973 226.81 89.728C226.213 90.0587 225.519 90.224 224.73 90.224ZM224.73 89.088C225.562 89.088 226.223 88.8267 226.714 88.304C227.215 87.7707 227.466 87.056 227.466 86.16V86.016C227.466 85.12 227.215 84.4107 226.714 83.888C226.223 83.3547 225.562 83.088 224.73 83.088C223.909 83.088 223.247 83.3547 222.746 83.888C222.245 84.4107 221.994 85.12 221.994 86.016V86.16C221.994 87.056 222.245 87.7707 222.746 88.304C223.247 88.8267 223.909 89.088 224.73 89.088ZM231.005 90V82.176H232.237V83.152H232.461C232.61 82.8747 232.855 82.6187 233.197 82.384C233.538 82.1493 234.018 82.032 234.637 82.032C235.245 82.032 235.735 82.1653 236.109 82.432C236.493 82.6987 236.77 83.024 236.941 83.408H237.165C237.346 83.024 237.618 82.6987 237.981 82.432C238.354 82.1653 238.871 82.032 239.533 82.032C240.055 82.032 240.514 82.1387 240.909 82.352C241.303 82.5653 241.613 82.8747 241.837 83.28C242.071 83.6747 242.189 84.1493 242.189 84.704V90H240.925V84.816C240.925 84.2933 240.77 83.8827 240.461 83.584C240.162 83.2747 239.741 83.12 239.197 83.12C238.621 83.12 238.146 83.3067 237.773 83.68C237.41 84.0533 237.229 84.592 237.229 85.296V90H235.965V84.816C235.965 84.2933 235.81 83.8827 235.501 83.584C235.202 83.2747 234.781 83.12 234.237 83.12C233.661 83.12 233.186 83.3067 232.813 83.68C232.45 84.0533 232.269 84.592 232.269 85.296V90H231.005ZM244.77 90V82.176H246.034V90H244.77ZM245.41 80.96C245.133 80.96 244.898 80.8693 244.706 80.688C244.525 80.5067 244.434 80.2773 244.434 80C244.434 79.712 244.525 79.4773 244.706 79.296C244.898 79.1147 245.133 79.024 245.41 79.024C245.688 79.024 245.917 79.1147 246.098 79.296C246.28 79.4773 246.37 79.712 246.37 80C246.37 80.2773 246.28 80.5067 246.098 80.688C245.917 80.8693 245.688 80.96 245.41 80.96ZM248.692 90V82.176H249.924V83.504H250.148C250.319 83.1307 250.607 82.7947 251.012 82.496C251.428 82.1867 252.036 82.032 252.836 82.032C253.423 82.032 253.946 82.1547 254.404 82.4C254.874 82.6453 255.247 83.008 255.524 83.488C255.802 83.968 255.94 84.56 255.94 85.264V90H254.676V85.36C254.676 84.5813 254.479 84.016 254.084 83.664C253.7 83.312 253.178 83.136 252.516 83.136C251.759 83.136 251.14 83.3813 250.66 83.872C250.191 84.3627 249.956 85.0933 249.956 86.064V90H248.692ZM258.121 86.128V85.904C258.121 85.0827 258.286 84.3787 258.617 83.792C258.947 83.2053 259.395 82.752 259.961 82.432C260.526 82.112 261.145 81.952 261.817 81.952C262.638 81.952 263.267 82.112 263.705 82.432C264.153 82.7413 264.483 83.088 264.697 83.472H264.921V82.176H266.121V91.824C266.121 92.2507 266.003 92.5867 265.769 92.832C265.534 93.0773 265.193 93.2 264.745 93.2H259.433V92.08H264.409C264.729 92.08 264.889 91.92 264.889 91.6V88.624H264.665C264.537 88.8587 264.355 89.088 264.121 89.312C263.886 89.536 263.582 89.7227 263.209 89.872C262.835 90.0107 262.371 90.08 261.817 90.08C261.145 90.08 260.526 89.92 259.961 89.6C259.395 89.28 258.947 88.8267 258.617 88.24C258.286 87.6427 258.121 86.9387 258.121 86.128ZM262.153 88.96C262.963 88.96 263.619 88.704 264.121 88.192C264.633 87.68 264.889 86.976 264.889 86.08V85.952C264.889 85.0453 264.633 84.3413 264.121 83.84C263.619 83.328 262.963 83.072 262.153 83.072C261.353 83.072 260.691 83.328 260.169 83.84C259.657 84.3413 259.401 85.0453 259.401 85.952V86.08C259.401 86.976 259.657 87.68 260.169 88.192C260.691 88.704 261.353 88.96 262.153 88.96ZM272.88 90V82.176H274.112V83.152H274.336C274.485 82.8747 274.73 82.6187 275.072 82.384C275.413 82.1493 275.893 82.032 276.512 82.032C277.12 82.032 277.61 82.1653 277.984 82.432C278.368 82.6987 278.645 83.024 278.816 83.408H279.04C279.221 83.024 279.493 82.6987 279.856 82.432C280.229 82.1653 280.746 82.032 281.408 82.032C281.93 82.032 282.389 82.1387 282.784 82.352C283.178 82.5653 283.488 82.8747 283.712 83.28C283.946 83.6747 284.064 84.1493 284.064 84.704V90H282.8V84.816C282.8 84.2933 282.645 83.8827 282.336 83.584C282.037 83.2747 281.616 83.12 281.072 83.12C280.496 83.12 280.021 83.3067 279.648 83.68C279.285 84.0533 279.104 84.592 279.104 85.296V90H277.84V84.816C277.84 84.2933 277.685 83.8827 277.376 83.584C277.077 83.2747 276.656 83.12 276.112 83.12C275.536 83.12 275.061 83.3067 274.688 83.68C274.325 84.0533 274.144 84.592 274.144 85.296V90H272.88ZM287.464 93.2V92.08H291.944C292.254 92.08 292.408 91.92 292.408 91.6V88.752H292.184C292.078 88.976 291.912 89.2 291.688 89.424C291.475 89.6373 291.192 89.8133 290.84 89.952C290.488 90.08 290.046 90.144 289.512 90.144C288.947 90.144 288.424 90.0213 287.944 89.776C287.475 89.5307 287.102 89.168 286.824 88.688C286.558 88.208 286.424 87.6213 286.424 86.928V82.176H287.688V86.832C287.688 87.6 287.88 88.16 288.264 88.512C288.659 88.864 289.187 89.04 289.848 89.04C290.595 89.04 291.208 88.7947 291.688 88.304C292.168 87.8133 292.408 87.0827 292.408 86.112V82.176H293.672V91.824C293.672 92.2507 293.55 92.5867 293.304 92.832C293.07 93.0773 292.723 93.2 292.264 93.2H287.464ZM210.761 114.224C209.972 114.224 209.273 114.059 208.665 113.728C208.068 113.397 207.599 112.933 207.257 112.336C206.927 111.728 206.761 111.013 206.761 110.192V109.984C206.761 109.173 206.927 108.464 207.257 107.856C207.599 107.248 208.068 106.779 208.665 106.448C209.273 106.117 209.972 105.952 210.761 105.952C211.551 105.952 212.244 106.117 212.841 106.448C213.449 106.779 213.919 107.248 214.249 107.856C214.591 108.464 214.761 109.173 214.761 109.984V110.192C214.761 111.013 214.591 111.728 214.249 112.336C213.919 112.933 213.449 113.397 212.841 113.728C212.244 114.059 211.551 114.224 210.761 114.224ZM210.761 113.088C211.593 113.088 212.255 112.827 212.745 112.304C213.247 111.771 213.497 111.056 213.497 110.16V110.016C213.497 109.12 213.247 108.411 212.745 107.888C212.255 107.355 211.593 107.088 210.761 107.088C209.94 107.088 209.279 107.355 208.777 107.888C208.276 108.411 208.025 109.12 208.025 110.016V110.16C208.025 111.056 208.276 111.771 208.777 112.304C209.279 112.827 209.94 113.088 210.761 113.088ZM217.968 114L216.4 106.176H217.68L218.976 113.152H219.2L220.912 106.176H223.008L224.72 113.152H224.944L226.24 106.176H227.52L225.952 114H223.792L222.064 107.024H221.856L220.128 114H217.968ZM229.692 114V106.176H230.924V107.504H231.148C231.319 107.131 231.607 106.795 232.012 106.496C232.428 106.187 233.036 106.032 233.836 106.032C234.423 106.032 234.946 106.155 235.404 106.4C235.874 106.645 236.247 107.008 236.524 107.488C236.802 107.968 236.94 108.56 236.94 109.264V114H235.676V109.36C235.676 108.581 235.479 108.016 235.084 107.664C234.7 107.312 234.178 107.136 233.516 107.136C232.759 107.136 232.14 107.381 231.66 107.872C231.191 108.363 230.956 109.093 230.956 110.064V114H229.692ZM247.95 114.224C247.139 114.224 246.505 114.069 246.046 113.76C245.598 113.451 245.273 113.099 245.07 112.704H244.846V114H243.614V102.8H244.878V107.408H245.102C245.23 107.163 245.411 106.933 245.646 106.72C245.881 106.496 246.185 106.315 246.558 106.176C246.942 106.027 247.406 105.952 247.95 105.952C248.633 105.952 249.251 106.117 249.806 106.448C250.371 106.768 250.819 107.232 251.15 107.84C251.481 108.437 251.646 109.152 251.646 109.984V110.192C251.646 111.024 251.475 111.744 251.134 112.352C250.803 112.96 250.355 113.424 249.79 113.744C249.235 114.064 248.622 114.224 247.95 114.224ZM247.614 113.104C248.425 113.104 249.081 112.848 249.582 112.336C250.094 111.813 250.35 111.088 250.35 110.16V110.016C250.35 109.088 250.094 108.368 249.582 107.856C249.081 107.333 248.425 107.072 247.614 107.072C246.814 107.072 246.153 107.333 245.63 107.856C245.118 108.368 244.862 109.088 244.862 110.016V110.16C244.862 111.088 245.118 111.813 245.63 112.336C246.153 112.848 246.814 113.104 247.614 113.104ZM257.527 114.224C256.738 114.224 256.039 114.059 255.431 113.728C254.834 113.397 254.364 112.933 254.023 112.336C253.692 111.728 253.527 111.013 253.527 110.192V109.984C253.527 109.173 253.692 108.464 254.023 107.856C254.364 107.248 254.834 106.779 255.431 106.448C256.039 106.117 256.738 105.952 257.527 105.952C258.316 105.952 259.01 106.117 259.607 106.448C260.215 106.779 260.684 107.248 261.015 107.856C261.356 108.464 261.527 109.173 261.527 109.984V110.192C261.527 111.013 261.356 111.728 261.015 112.336C260.684 112.933 260.215 113.397 259.607 113.728C259.01 114.059 258.316 114.224 257.527 114.224ZM257.527 113.088C258.359 113.088 259.02 112.827 259.511 112.304C260.012 111.771 260.263 111.056 260.263 110.16V110.016C260.263 109.12 260.012 108.411 259.511 107.888C259.02 107.355 258.359 107.088 257.527 107.088C256.706 107.088 256.044 107.355 255.543 107.888C255.042 108.411 254.791 109.12 254.791 110.016V110.16C254.791 111.056 255.042 111.771 255.543 112.304C256.044 112.827 256.706 113.088 257.527 113.088ZM266.954 114.224C265.983 114.224 265.162 114 264.49 113.552C263.828 113.104 263.428 112.395 263.29 111.424L264.49 111.152C264.575 111.664 264.735 112.069 264.97 112.368C265.204 112.656 265.492 112.864 265.834 112.992C266.186 113.109 266.559 113.168 266.954 113.168C267.54 113.168 268.004 113.051 268.346 112.816C268.687 112.581 268.858 112.267 268.858 111.872C268.858 111.467 268.692 111.184 268.362 111.024C268.042 110.853 267.599 110.715 267.034 110.608L266.378 110.496C265.876 110.411 265.418 110.277 265.002 110.096C264.586 109.915 264.255 109.669 264.01 109.36C263.764 109.051 263.642 108.661 263.642 108.192C263.642 107.488 263.914 106.939 264.458 106.544C265.002 106.149 265.722 105.952 266.618 105.952C267.503 105.952 268.218 106.155 268.762 106.56C269.316 106.955 269.674 107.515 269.834 108.24L268.65 108.544C268.554 107.979 268.324 107.584 267.962 107.36C267.599 107.125 267.151 107.008 266.618 107.008C266.084 107.008 265.663 107.109 265.354 107.312C265.044 107.504 264.89 107.792 264.89 108.176C264.89 108.549 265.034 108.827 265.322 109.008C265.62 109.179 266.015 109.307 266.506 109.392L267.162 109.504C267.716 109.6 268.212 109.733 268.65 109.904C269.098 110.064 269.45 110.299 269.706 110.608C269.972 110.917 270.106 111.323 270.106 111.824C270.106 112.592 269.818 113.184 269.242 113.6C268.676 114.016 267.914 114.224 266.954 114.224ZM275.391 114.224C274.42 114.224 273.599 114 272.927 113.552C272.266 113.104 271.866 112.395 271.727 111.424L272.927 111.152C273.012 111.664 273.172 112.069 273.407 112.368C273.642 112.656 273.93 112.864 274.271 112.992C274.623 113.109 274.996 113.168 275.391 113.168C275.978 113.168 276.442 113.051 276.783 112.816C277.124 112.581 277.295 112.267 277.295 111.872C277.295 111.467 277.13 111.184 276.799 111.024C276.479 110.853 276.036 110.715 275.471 110.608L274.815 110.496C274.314 110.411 273.855 110.277 273.439 110.096C273.023 109.915 272.692 109.669 272.447 109.36C272.202 109.051 272.079 108.661 272.079 108.192C272.079 107.488 272.351 106.939 272.895 106.544C273.439 106.149 274.159 105.952 275.055 105.952C275.94 105.952 276.655 106.155 277.199 106.56C277.754 106.955 278.111 107.515 278.271 108.24L277.087 108.544C276.991 107.979 276.762 107.584 276.399 107.36C276.036 107.125 275.588 107.008 275.055 107.008C274.522 107.008 274.1 107.109 273.791 107.312C273.482 107.504 273.327 107.792 273.327 108.176C273.327 108.549 273.471 108.827 273.759 109.008C274.058 109.179 274.452 109.307 274.943 109.392L275.599 109.504C276.154 109.6 276.65 109.733 277.087 109.904C277.535 110.064 277.887 110.299 278.143 110.608C278.41 110.917 278.543 111.323 278.543 111.824C278.543 112.592 278.255 113.184 277.679 113.6C277.114 114.016 276.351 114.224 275.391 114.224Z" fill="white"/>
<rect x="1" y="1.2522" width="148" height="148" fill="white"/>
<rect width="66" height="30" transform="translate(42 28.2522)" fill="white"/>
<path d="M62.3278 53.7002C60.6211 53.7002 59.1384 53.3802 57.8798 52.7402C56.6211 52.1002 55.6504 51.2149 54.9678 50.0842C54.2851 48.9535 53.9438 47.6522 53.9438 46.1802V38.5322C53.9438 36.7189 54.3064 35.2149 55.0318 34.0202C55.7784 32.8042 56.7918 31.8975 58.0718 31.3002C59.3731 30.7029 60.8558 30.4042 62.5198 30.4042C64.1838 30.4042 65.6238 30.6815 66.8398 31.2362C68.0771 31.7909 69.0264 32.5909 69.6878 33.6362C70.3704 34.6815 70.7118 35.9295 70.7118 37.3802H66.5518C66.5518 36.4842 66.2424 35.7055 65.6238 35.0442C65.0051 34.3829 63.9704 34.0522 62.5198 34.0522C61.0904 34.0522 59.9811 34.4255 59.1918 35.1722C58.4238 35.9189 58.0398 36.9535 58.0398 38.2762V40.5802H58.6158C58.9784 40.1535 59.5331 39.7482 60.2798 39.3642C61.0264 38.9802 62.1144 38.7882 63.5438 38.7882C64.8451 38.7882 66.0398 39.0655 67.1278 39.6202C68.2371 40.1749 69.1331 40.9855 69.8158 42.0522C70.4984 43.0975 70.8398 44.3669 70.8398 45.8602V46.2442C70.8398 47.7162 70.4878 49.0175 69.7838 50.1482C69.0798 51.2575 68.0878 52.1322 66.8078 52.7722C65.5278 53.3909 64.0344 53.7002 62.3278 53.7002ZM62.3918 50.0522C63.7358 50.0522 64.7918 49.7002 65.5598 48.9962C66.3491 48.2922 66.7438 47.3535 66.7438 46.1802V45.9242C66.7438 45.1349 66.5624 44.4522 66.1998 43.8762C65.8584 43.3002 65.3571 42.8522 64.6958 42.5322C64.0558 42.2122 63.2878 42.0522 62.3918 42.0522C61.5171 42.0522 60.7491 42.2122 60.0878 42.5322C59.4264 42.8522 58.9144 43.3002 58.5518 43.8762C58.2104 44.4522 58.0398 45.1349 58.0398 45.9242V46.1802C58.0398 47.3535 58.4238 48.2922 59.1918 48.9962C59.9811 49.7002 61.0478 50.0522 62.3918 50.0522ZM73.344 53.2522V50.5642C73.344 49.0069 73.6 47.7162 74.112 46.6922C74.624 45.6469 75.36 44.7935 76.32 44.1322C77.3013 43.4495 78.496 42.8949 79.904 42.4682L82.048 41.7962C82.8373 41.5402 83.4987 41.2309 84.032 40.8682C84.5653 40.4842 84.9707 40.0255 85.248 39.4922C85.5467 38.9589 85.696 38.3509 85.696 37.6682V37.5402C85.696 36.4735 85.3333 35.6309 84.608 35.0122C83.8827 34.3722 82.8907 34.0522 81.632 34.0522C80.3947 34.0522 79.392 34.3935 78.624 35.0762C77.8773 35.7375 77.504 36.6975 77.504 37.9562V38.5322H73.408V38.0202C73.408 36.3989 73.7707 35.0229 74.496 33.8922C75.2213 32.7615 76.2027 31.8975 77.44 31.3002C78.6987 30.7029 80.096 30.4042 81.632 30.4042C83.168 30.4042 84.5547 30.7029 85.792 31.3002C87.0293 31.8762 88 32.6975 88.704 33.7642C89.4293 34.8095 89.792 36.0469 89.792 37.4762V37.7962C89.792 39.2255 89.4933 40.4415 88.896 41.4442C88.32 42.4255 87.5307 43.2362 86.528 43.8762C85.5253 44.4949 84.384 45.0069 83.104 45.4122L81.056 46.0522C80.1387 46.3295 79.424 46.6389 78.912 46.9802C78.4 47.3002 78.0373 47.6629 77.824 48.0682C77.632 48.4522 77.536 48.9215 77.536 49.4762V49.6042H89.6V53.2522H73.344Z" fill="#F6331C"/>
<path d="M97.368 49.4602L96.152 48.4842L104.76 37.8442L105.976 38.8202L97.368 49.4602ZM104.12 49.4122C103.309 49.4122 102.675 49.1989 102.216 48.7722C101.757 48.3349 101.528 47.7429 101.528 46.9962V46.8842C101.528 46.1269 101.757 45.5349 102.216 45.1082C102.675 44.6709 103.309 44.4522 104.12 44.4522C104.909 44.4522 105.539 44.6709 106.008 45.1082C106.477 45.5349 106.712 46.1269 106.712 46.8842V46.9962C106.712 47.7429 106.483 48.3349 106.024 48.7722C105.565 49.1989 104.931 49.4122 104.12 49.4122ZM104.12 48.1002C104.429 48.1002 104.669 48.0042 104.84 47.8122C105.021 47.6202 105.112 47.3695 105.112 47.0602V46.8042C105.112 46.4949 105.021 46.2442 104.84 46.0522C104.669 45.8602 104.429 45.7642 104.12 45.7642C103.811 45.7642 103.565 45.8602 103.384 46.0522C103.213 46.2442 103.128 46.4949 103.128 46.8042V47.0602C103.128 47.3695 103.213 47.6202 103.384 47.8122C103.565 48.0042 103.811 48.1002 104.12 48.1002ZM98.008 42.8522C97.1973 42.8522 96.5627 42.6389 96.104 42.2122C95.6453 41.7749 95.416 41.1829 95.416 40.4362V40.3242C95.416 39.5669 95.6453 38.9749 96.104 38.5482C96.5627 38.1109 97.1973 37.8922 98.008 37.8922C98.7973 37.8922 99.4267 38.1109 99.896 38.5482C100.365 38.9749 100.6 39.5669 100.6 40.3242V40.4362C100.6 41.1829 100.371 41.7749 99.912 42.2122C99.4533 42.6389 98.8187 42.8522 98.008 42.8522ZM98.008 41.5402C98.3173 41.5402 98.5573 41.4442 98.728 41.2522C98.9093 41.0602 99 40.8095 99 40.5002V40.2442C99 39.9349 98.9093 39.6842 98.728 39.4922C98.5573 39.3002 98.3173 39.2042 98.008 39.2042C97.6987 39.2042 97.4533 39.3002 97.272 39.4922C97.1013 39.6842 97.016 39.9349 97.016 40.2442V40.5002C97.016 40.8095 97.1013 41.0602 97.272 41.2522C97.4533 41.4442 97.6987 41.5402 98.008 41.5402Z" fill="#F6331C"/>
<path d="M15.6952 92.4762C14.8632 92.4762 14.1379 92.3269 13.5192 92.0282C12.9005 91.7295 12.4205 91.2869 12.0792 90.7002C11.7379 90.1029 11.5672 89.3722 11.5672 88.5082V81.0522H12.8952V88.5242C12.8952 89.4415 13.1405 90.1295 13.6312 90.5882C14.1219 91.0469 14.8099 91.2762 15.6952 91.2762C16.5805 91.2762 17.2685 91.0469 17.7592 90.5882C18.2499 90.1295 18.4952 89.4415 18.4952 88.5242V81.0522H19.8392V88.5082C19.8392 89.3722 19.6685 90.1029 19.3272 90.7002C18.9859 91.2869 18.5005 91.7295 17.8712 92.0282C17.2525 92.3269 16.5272 92.4762 15.6952 92.4762ZM22.3514 92.2522V84.4282H23.5834V85.7562H23.8074C23.9781 85.3829 24.2661 85.0469 24.6714 84.7482C25.0874 84.4389 25.6954 84.2842 26.4954 84.2842C27.0821 84.2842 27.6048 84.4069 28.0634 84.6522C28.5328 84.8975 28.9061 85.2602 29.1834 85.7402C29.4608 86.2202 29.5994 86.8122 29.5994 87.5162V92.2522H28.3354V87.6122C28.3354 86.8335 28.1381 86.2682 27.7434 85.9162C27.3594 85.5642 26.8368 85.3882 26.1754 85.3882C25.4181 85.3882 24.7994 85.6335 24.3194 86.1242C23.8501 86.6149 23.6154 87.3455 23.6154 88.3162V92.2522H22.3514ZM33.4812 92.2522V85.5322H31.0812V84.4282H33.4812V82.4282C33.4812 82.0015 33.5985 81.6655 33.8332 81.4202C34.0785 81.1749 34.4252 81.0522 34.8732 81.0522H36.8412V82.1402H35.2252C34.9052 82.1402 34.7452 82.3002 34.7452 82.6202V84.4282H37.2092V85.5322H34.7452V92.2522H33.4812ZM41.2827 92.4762C40.7387 92.4762 40.2427 92.3802 39.7947 92.1882C39.3467 91.9962 38.9947 91.7189 38.7387 91.3562C38.4827 90.9935 38.3547 90.5509 38.3547 90.0282C38.3547 89.4949 38.4827 89.0575 38.7387 88.7162C38.9947 88.3642 39.3467 88.1029 39.7947 87.9322C40.2427 87.7509 40.744 87.6602 41.2987 87.6602H43.9387V87.0842C43.9387 86.5295 43.7734 86.0922 43.4427 85.7722C43.1227 85.4522 42.6427 85.2922 42.0027 85.2922C41.3734 85.2922 40.8827 85.4469 40.5307 85.7562C40.1787 86.0549 39.9387 86.4602 39.8107 86.9722L38.6267 86.5882C38.7547 86.1509 38.9574 85.7562 39.2347 85.4042C39.512 85.0415 39.88 84.7535 40.3387 84.5402C40.808 84.3162 41.368 84.2042 42.0187 84.2042C43.0214 84.2042 43.8 84.4655 44.3547 84.9882C44.9094 85.5002 45.1867 86.2255 45.1867 87.1642V90.7002C45.1867 91.0202 45.336 91.1802 45.6347 91.1802H46.3547V92.2522H45.2507C44.8987 92.2522 44.616 92.1562 44.4027 91.9642C44.1894 91.7615 44.0827 91.4949 44.0827 91.1642V91.0842H43.8907C43.7734 91.2869 43.6134 91.5002 43.4107 91.7242C43.2187 91.9375 42.952 92.1135 42.6107 92.2522C42.2694 92.4015 41.8267 92.4762 41.2827 92.4762ZM41.4267 91.3882C42.1734 91.3882 42.776 91.1695 43.2347 90.7322C43.704 90.2842 43.9387 89.6602 43.9387 88.8602V88.6842H41.3467C40.8454 88.6842 40.4294 88.7962 40.0987 89.0202C39.7787 89.2335 39.6187 89.5589 39.6187 89.9962C39.6187 90.4335 39.784 90.7749 40.1147 91.0202C40.456 91.2655 40.8934 91.3882 41.4267 91.3882ZM48.0858 92.2522V84.4282H49.3498V92.2522H48.0858ZM48.7258 83.2122C48.4485 83.2122 48.2138 83.1215 48.0218 82.9402C47.8405 82.7589 47.7498 82.5295 47.7498 82.2522C47.7498 81.9642 47.8405 81.7295 48.0218 81.5482C48.2138 81.3669 48.4485 81.2762 48.7258 81.2762C49.0031 81.2762 49.2325 81.3669 49.4138 81.5482C49.5951 81.7295 49.6858 81.9642 49.6858 82.2522C49.6858 82.5295 49.5951 82.7589 49.4138 82.9402C49.2325 83.1215 49.0031 83.2122 48.7258 83.2122ZM52.0077 92.2522V84.4282H53.2397V85.3882H53.4637C53.6024 85.0469 53.8157 84.7962 54.1037 84.6362C54.3917 84.4762 54.7704 84.3962 55.2397 84.3962H56.1677V85.5482H55.1597C54.5944 85.5482 54.1357 85.7082 53.7837 86.0282C53.4424 86.3375 53.2717 86.8229 53.2717 87.4842V92.2522H52.0077ZM65.0283 92.2522C64.5803 92.2522 64.2336 92.1295 63.9883 91.8842C63.7536 91.6389 63.6363 91.3029 63.6363 90.8762V85.5322H61.2843V84.4282H63.6363V81.6442H64.9003V84.4282H67.4603V85.5322H64.9003V90.6842C64.9003 91.0042 65.055 91.1642 65.3643 91.1642H67.1083V92.2522H65.0283ZM69.5077 92.2522V84.4282H70.7397V85.3882H70.9637C71.1024 85.0469 71.3157 84.7962 71.6037 84.6362C71.8917 84.4762 72.2704 84.3962 72.7397 84.3962H73.6677V85.5482H72.6597C72.0944 85.5482 71.6357 85.7082 71.2837 86.0282C70.9424 86.3375 70.7717 86.8229 70.7717 87.4842V92.2522H69.5077ZM78.8417 92.4762C78.0524 92.4762 77.359 92.3109 76.7617 91.9802C76.1644 91.6389 75.7004 91.1642 75.3697 90.5562C75.039 89.9482 74.8737 89.2442 74.8737 88.4442V88.2522C74.8737 87.4415 75.039 86.7322 75.3697 86.1242C75.7004 85.5162 76.159 85.0469 76.7457 84.7162C77.3324 84.3749 78.0044 84.2042 78.7617 84.2042C79.4977 84.2042 80.1484 84.3642 80.7137 84.6842C81.279 84.9935 81.7217 85.4415 82.0417 86.0282C82.3617 86.6149 82.5217 87.3029 82.5217 88.0922V88.6682H76.1377C76.1697 89.5109 76.4417 90.1722 76.9537 90.6522C77.4657 91.1215 78.1057 91.3562 78.8737 91.3562C79.5457 91.3562 80.063 91.2015 80.4257 90.8922C80.7884 90.5829 81.0657 90.2149 81.2577 89.7882L82.3457 90.3162C82.1857 90.6469 81.9617 90.9775 81.6737 91.3082C81.3964 91.6389 81.0284 91.9162 80.5697 92.1402C80.1217 92.3642 79.5457 92.4762 78.8417 92.4762ZM76.1537 87.6282H81.2417C81.199 86.9029 80.9484 86.3375 80.4897 85.9322C80.0417 85.5269 79.4657 85.3242 78.7617 85.3242C78.047 85.3242 77.4604 85.5269 77.0017 85.9322C76.543 86.3375 76.2604 86.9029 76.1537 87.6282ZM87.1264 92.4762C86.5824 92.4762 86.0864 92.3802 85.6384 92.1882C85.1904 91.9962 84.8384 91.7189 84.5824 91.3562C84.3264 90.9935 84.1984 90.5509 84.1984 90.0282C84.1984 89.4949 84.3264 89.0575 84.5824 88.7162C84.8384 88.3642 85.1904 88.1029 85.6384 87.9322C86.0864 87.7509 86.5878 87.6602 87.1424 87.6602H89.7824V87.0842C89.7824 86.5295 89.6171 86.0922 89.2864 85.7722C88.9664 85.4522 88.4864 85.2922 87.8464 85.2922C87.2171 85.2922 86.7264 85.4469 86.3744 85.7562C86.0224 86.0549 85.7824 86.4602 85.6544 86.9722L84.4704 86.5882C84.5984 86.1509 84.8011 85.7562 85.0784 85.4042C85.3558 85.0415 85.7238 84.7535 86.1824 84.5402C86.6518 84.3162 87.2118 84.2042 87.8624 84.2042C88.8651 84.2042 89.6438 84.4655 90.1984 84.9882C90.7531 85.5002 91.0304 86.2255 91.0304 87.1642V90.7002C91.0304 91.0202 91.1798 91.1802 91.4784 91.1802H92.1984V92.2522H91.0944C90.7424 92.2522 90.4598 92.1562 90.2464 91.9642C90.0331 91.7615 89.9264 91.4949 89.9264 91.1642V91.0842H89.7344C89.6171 91.2869 89.4571 91.5002 89.2544 91.7242C89.0624 91.9375 88.7958 92.1135 88.4544 92.2522C88.1131 92.4015 87.6704 92.4762 87.1264 92.4762ZM87.2704 91.3882C88.0171 91.3882 88.6198 91.1695 89.0784 90.7322C89.5478 90.2842 89.7824 89.6602 89.7824 88.8602V88.6842H87.1904C86.6891 88.6842 86.2731 88.7962 85.9424 89.0202C85.6224 89.2335 85.4624 89.5589 85.4624 89.9962C85.4624 90.4335 85.6278 90.7749 85.9584 91.0202C86.2998 91.2655 86.7371 91.3882 87.2704 91.3882ZM96.2939 92.2522C95.8459 92.2522 95.4993 92.1295 95.2539 91.8842C95.0193 91.6389 94.9019 91.3029 94.9019 90.8762V85.5322H92.5499V84.4282H94.9019V81.6442H96.1659V84.4282H98.7259V85.5322H96.1659V90.6842C96.1659 91.0042 96.3206 91.1642 96.6299 91.1642H98.3739V92.2522H96.2939ZM100.773 92.2522V84.4282H102.005V85.4042H102.229C102.379 85.1269 102.624 84.8709 102.965 84.6362C103.307 84.4015 103.787 84.2842 104.405 84.2842C105.013 84.2842 105.504 84.4175 105.877 84.6842C106.261 84.9509 106.539 85.2762 106.709 85.6602H106.933C107.115 85.2762 107.387 84.9509 107.749 84.6842C108.123 84.4175 108.64 84.2842 109.301 84.2842C109.824 84.2842 110.283 84.3909 110.677 84.6042C111.072 84.8175 111.381 85.1269 111.605 85.5322C111.84 85.9269 111.957 86.4015 111.957 86.9562V92.2522H110.693V87.0682C110.693 86.5455 110.539 86.1349 110.229 85.8362C109.931 85.5269 109.509 85.3722 108.965 85.3722C108.389 85.3722 107.915 85.5589 107.541 85.9322C107.179 86.3055 106.997 86.8442 106.997 87.5482V92.2522H105.733V87.0682C105.733 86.5455 105.579 86.1349 105.269 85.8362C104.971 85.5269 104.549 85.3722 104.005 85.3722C103.429 85.3722 102.955 85.5589 102.581 85.9322C102.219 86.3055 102.037 86.8442 102.037 87.5482V92.2522H100.773ZM118.123 92.4762C117.334 92.4762 116.64 92.3109 116.043 91.9802C115.446 91.6389 114.982 91.1642 114.651 90.5562C114.32 89.9482 114.155 89.2442 114.155 88.4442V88.2522C114.155 87.4415 114.32 86.7322 114.651 86.1242C114.982 85.5162 115.44 85.0469 116.027 84.7162C116.614 84.3749 117.286 84.2042 118.043 84.2042C118.779 84.2042 119.43 84.3642 119.995 84.6842C120.56 84.9935 121.003 85.4415 121.323 86.0282C121.643 86.6149 121.803 87.3029 121.803 88.0922V88.6682H115.419C115.451 89.5109 115.723 90.1722 116.235 90.6522C116.747 91.1215 117.387 91.3562 118.155 91.3562C118.827 91.3562 119.344 91.2015 119.707 90.8922C120.07 90.5829 120.347 90.2149 120.539 89.7882L121.627 90.3162C121.467 90.6469 121.243 90.9775 120.955 91.3082C120.678 91.6389 120.31 91.9162 119.851 92.1402C119.403 92.3642 118.827 92.4762 118.123 92.4762ZM115.435 87.6282H120.523C120.48 86.9029 120.23 86.3375 119.771 85.9322C119.323 85.5269 118.747 85.3242 118.043 85.3242C117.328 85.3242 116.742 85.5269 116.283 85.9322C115.824 86.3375 115.542 86.9029 115.435 87.6282ZM124.008 92.2522V84.4282H125.24V85.7562H125.464C125.634 85.3829 125.922 85.0469 126.328 84.7482C126.744 84.4389 127.352 84.2842 128.152 84.2842C128.738 84.2842 129.261 84.4069 129.72 84.6522C130.189 84.8975 130.562 85.2602 130.84 85.7402C131.117 86.2202 131.256 86.8122 131.256 87.5162V92.2522H129.992V87.6122C129.992 86.8335 129.794 86.2682 129.4 85.9162C129.016 85.5642 128.493 85.3882 127.832 85.3882C127.074 85.3882 126.456 85.6335 125.976 86.1242C125.506 86.6149 125.272 87.3455 125.272 88.3162V92.2522H124.008ZM136.481 92.2522C136.033 92.2522 135.687 92.1295 135.441 91.8842C135.207 91.6389 135.089 91.3029 135.089 90.8762V85.5322H132.737V84.4282H135.089V81.6442H136.353V84.4282H138.913V85.5322H136.353V90.6842C136.353 91.0042 136.508 91.1642 136.817 91.1642H138.561V92.2522H136.481ZM28.2968 116.252V108.428H29.5608V116.252H28.2968ZM28.9368 107.212C28.6594 107.212 28.4248 107.122 28.2328 106.94C28.0514 106.759 27.9608 106.53 27.9608 106.252C27.9608 105.964 28.0514 105.73 28.2328 105.548C28.4248 105.367 28.6594 105.276 28.9368 105.276C29.2141 105.276 29.4434 105.367 29.6248 105.548C29.8061 105.73 29.8968 105.964 29.8968 106.252C29.8968 106.53 29.8061 106.759 29.6248 106.94C29.4434 107.122 29.2141 107.212 28.9368 107.212ZM32.2186 116.252V108.428H33.4506V109.756H33.6746C33.8453 109.383 34.1333 109.047 34.5386 108.748C34.9546 108.439 35.5626 108.284 36.3626 108.284C36.9493 108.284 37.472 108.407 37.9306 108.652C38.4 108.898 38.7733 109.26 39.0506 109.74C39.328 110.22 39.4666 110.812 39.4666 111.516V116.252H38.2026V111.612C38.2026 110.834 38.0053 110.268 37.6106 109.916C37.2266 109.564 36.704 109.388 36.0426 109.388C35.2853 109.388 34.6666 109.634 34.1866 110.124C33.7173 110.615 33.4826 111.346 33.4826 112.316V116.252H32.2186ZM46.1405 119.452V108.428H47.3725V109.724H47.5965C47.7992 109.33 48.1245 108.978 48.5725 108.668C49.0312 108.359 49.6658 108.204 50.4765 108.204C51.1485 108.204 51.7618 108.37 52.3165 108.7C52.8818 109.02 53.3298 109.479 53.6605 110.076C54.0018 110.674 54.1725 111.394 54.1725 112.236V112.444C54.1725 113.276 54.0072 113.996 53.6765 114.604C53.3458 115.212 52.8978 115.676 52.3325 115.996C51.7778 116.316 51.1592 116.476 50.4765 116.476C49.9325 116.476 49.4685 116.402 49.0845 116.252C48.7112 116.114 48.4072 115.932 48.1725 115.708C47.9378 115.484 47.7565 115.255 47.6285 115.02H47.4045V119.452H46.1405ZM50.1405 115.356C50.9512 115.356 51.6072 115.1 52.1085 114.588C52.6205 114.066 52.8765 113.34 52.8765 112.412V112.268C52.8765 111.34 52.6205 110.62 52.1085 110.108C51.6072 109.586 50.9512 109.324 50.1405 109.324C49.3405 109.324 48.6792 109.586 48.1565 110.108C47.6445 110.62 47.3885 111.34 47.3885 112.268V112.412C47.3885 113.34 47.6445 114.066 48.1565 114.588C48.6792 115.1 49.3405 115.356 50.1405 115.356ZM56.4374 116.252V108.428H57.6694V109.388H57.8934C58.032 109.047 58.2454 108.796 58.5334 108.636C58.8214 108.476 59.2 108.396 59.6694 108.396H60.5974V109.548H59.5894C59.024 109.548 58.5654 109.708 58.2134 110.028C57.872 110.338 57.7014 110.823 57.7014 111.484V116.252H56.4374ZM65.7714 116.476C64.982 116.476 64.2887 116.311 63.6914 115.98C63.094 115.639 62.63 115.164 62.2994 114.556C61.9687 113.948 61.8034 113.244 61.8034 112.444V112.252C61.8034 111.442 61.9687 110.732 62.2994 110.124C62.63 109.516 63.0887 109.047 63.6754 108.716C64.262 108.375 64.934 108.204 65.6914 108.204C66.4274 108.204 67.078 108.364 67.6434 108.684C68.2087 108.994 68.6514 109.442 68.9714 110.028C69.2914 110.615 69.4514 111.303 69.4514 112.092V112.668H63.0674C63.0994 113.511 63.3714 114.172 63.8834 114.652C64.3954 115.122 65.0354 115.356 65.8034 115.356C66.4754 115.356 66.9927 115.202 67.3554 114.892C67.718 114.583 67.9954 114.215 68.1874 113.788L69.2754 114.316C69.1154 114.647 68.8914 114.978 68.6034 115.308C68.326 115.639 67.958 115.916 67.4994 116.14C67.0514 116.364 66.4754 116.476 65.7714 116.476ZM63.0834 111.628H68.1714C68.1287 110.903 67.878 110.338 67.4194 109.932C66.9714 109.527 66.3954 109.324 65.6914 109.324C64.9767 109.324 64.39 109.527 63.9314 109.932C63.4727 110.338 63.19 110.903 63.0834 111.628ZM73.312 116.252L70.512 108.428H71.856L74.208 115.308H74.432L76.784 108.428H78.128L75.328 116.252H73.312ZM79.9535 116.476C79.6442 116.476 79.3828 116.375 79.1695 116.172C78.9668 115.97 78.8655 115.708 78.8655 115.388C78.8655 115.068 78.9668 114.807 79.1695 114.604C79.3828 114.402 79.6442 114.3 79.9535 114.3C80.2735 114.3 80.5348 114.402 80.7375 114.604C80.9402 114.807 81.0415 115.068 81.0415 115.388C81.0415 115.708 80.9402 115.97 80.7375 116.172C80.5348 116.375 80.2735 116.476 79.9535 116.476ZM86.8905 116.252V108.428H88.1225V109.388H88.3465C88.4852 109.047 88.6985 108.796 88.9865 108.636C89.2745 108.476 89.6532 108.396 90.1225 108.396H91.0505V109.548H90.0425C89.4772 109.548 89.0185 109.708 88.6665 110.028C88.3252 110.338 88.1545 110.823 88.1545 111.484V116.252H86.8905ZM96.2565 116.476C95.4672 116.476 94.7685 116.311 94.1605 115.98C93.5632 115.65 93.0938 115.186 92.7525 114.588C92.4218 113.98 92.2565 113.266 92.2565 112.444V112.236C92.2565 111.426 92.4218 110.716 92.7525 110.108C93.0938 109.5 93.5632 109.031 94.1605 108.7C94.7685 108.37 95.4672 108.204 96.2565 108.204C97.0458 108.204 97.7392 108.37 98.3365 108.7C98.9445 109.031 99.4138 109.5 99.7445 110.108C100.086 110.716 100.257 111.426 100.257 112.236V112.444C100.257 113.266 100.086 113.98 99.7445 114.588C99.4138 115.186 98.9445 115.65 98.3365 115.98C97.7392 116.311 97.0458 116.476 96.2565 116.476ZM96.2565 115.34C97.0885 115.34 97.7498 115.079 98.2405 114.556C98.7418 114.023 98.9925 113.308 98.9925 112.412V112.268C98.9925 111.372 98.7418 110.663 98.2405 110.14C97.7498 109.607 97.0885 109.34 96.2565 109.34C95.4352 109.34 94.7738 109.607 94.2725 110.14C93.7712 110.663 93.5205 111.372 93.5205 112.268V112.412C93.5205 113.308 93.7712 114.023 94.2725 114.556C94.7738 115.079 95.4352 115.34 96.2565 115.34ZM102.531 116.252V105.052H103.795V116.252H102.531ZM110.037 116.476C109.248 116.476 108.554 116.311 107.957 115.98C107.36 115.639 106.896 115.164 106.565 114.556C106.234 113.948 106.069 113.244 106.069 112.444V112.252C106.069 111.442 106.234 110.732 106.565 110.124C106.896 109.516 107.354 109.047 107.941 108.716C108.528 108.375 109.2 108.204 109.957 108.204C110.693 108.204 111.344 108.364 111.909 108.684C112.474 108.994 112.917 109.442 113.237 110.028C113.557 110.615 113.717 111.303 113.717 112.092V112.668H107.333C107.365 113.511 107.637 114.172 108.149 114.652C108.661 115.122 109.301 115.356 110.069 115.356C110.741 115.356 111.258 115.202 111.621 114.892C111.984 114.583 112.261 114.215 112.453 113.788L113.541 114.316C113.381 114.647 113.157 114.978 112.869 115.308C112.592 115.639 112.224 115.916 111.765 116.14C111.317 116.364 110.741 116.476 110.037 116.476ZM107.349 111.628H112.437C112.394 110.903 112.144 110.338 111.685 109.932C111.237 109.527 110.661 109.324 109.957 109.324C109.242 109.324 108.656 109.527 108.197 109.932C107.738 110.338 107.456 110.903 107.349 111.628ZM119.074 116.476C118.103 116.476 117.282 116.252 116.61 115.804C115.948 115.356 115.548 114.647 115.41 113.676L116.61 113.404C116.695 113.916 116.855 114.322 117.09 114.62C117.324 114.908 117.612 115.116 117.954 115.244C118.306 115.362 118.679 115.42 119.074 115.42C119.66 115.42 120.124 115.303 120.466 115.068C120.807 114.834 120.978 114.519 120.978 114.124C120.978 113.719 120.812 113.436 120.482 113.276C120.162 113.106 119.719 112.967 119.154 112.86L118.498 112.748C117.996 112.663 117.538 112.53 117.122 112.348C116.706 112.167 116.375 111.922 116.13 111.612C115.884 111.303 115.762 110.914 115.762 110.444C115.762 109.74 116.034 109.191 116.578 108.796C117.122 108.402 117.842 108.204 118.738 108.204C119.623 108.204 120.338 108.407 120.882 108.812C121.436 109.207 121.794 109.767 121.954 110.492L120.77 110.796C120.674 110.231 120.444 109.836 120.082 109.612C119.719 109.378 119.271 109.26 118.738 109.26C118.204 109.26 117.783 109.362 117.474 109.564C117.164 109.756 117.01 110.044 117.01 110.428C117.01 110.802 117.154 111.079 117.442 111.26C117.74 111.431 118.135 111.559 118.626 111.644L119.282 111.756C119.836 111.852 120.332 111.986 120.77 112.156C121.218 112.316 121.57 112.551 121.826 112.86C122.092 113.17 122.226 113.575 122.226 114.076C122.226 114.844 121.938 115.436 121.362 115.852C120.796 116.268 120.034 116.476 119.074 116.476Z" fill="#F6331C"/>
<rect x="1" y="1.2522" width="148" height="148" stroke="#F6331C" stroke-width="2"/>
</svg>
