<svg width="291" height="330" viewBox="0 0 291 330" fill="none" xmlns="http://www.w3.org/2000/svg">
<rect width="290" height="330" transform="translate(0.819336)" fill="#F6331C"/>
<path d="M83.8397 45L81.5597 31H83.2397L85.2197 43.92H85.4997L88.0797 31H91.0797L93.6397 43.92H93.9197L95.8997 31H97.5797L95.2997 45H92.2997L89.7197 32H89.4397L86.8597 45H83.8397ZM104.863 45.28C103.196 45.28 101.863 44.8 100.863 43.84C99.8763 42.8667 99.383 41.4533 99.383 39.6V36.4C99.383 34.5467 99.8763 33.14 100.863 32.18C101.863 31.2067 103.196 30.72 104.863 30.72C106.543 30.72 107.876 31.2067 108.863 32.18C109.863 33.14 110.363 34.5467 110.363 36.4V39.6C110.363 41.4533 109.863 42.8667 108.863 43.84C107.876 44.8 106.543 45.28 104.863 45.28ZM104.863 43.78C106.076 43.78 107.016 43.42 107.683 42.7C108.35 41.9667 108.683 40.9533 108.683 39.66V36.34C108.683 35.0467 108.35 34.04 107.683 33.32C107.016 32.5867 106.076 32.22 104.863 32.22C103.663 32.22 102.73 32.5867 102.063 33.32C101.396 34.04 101.063 35.0467 101.063 36.34V39.66C101.063 40.9533 101.396 41.9667 102.063 42.7C102.73 43.42 103.663 43.78 104.863 43.78ZM113.162 45V31H116.362L120.082 43.94H120.342L124.062 31H127.262V45H125.642V32.1H125.362L121.662 45H118.762L115.062 32.1H114.782V45H113.162ZM130.467 45V31H139.087V32.52H132.147V37.2H138.527V38.72H132.147V43.48H139.187V45H130.467ZM141.736 45V31H144.996L149.876 43.94H150.136V31H151.796V45H148.536L143.676 32.04H143.396V45H141.736ZM161.437 45L159.157 31H160.837L162.817 43.92H163.097L165.677 31H168.677L171.237 43.92H171.517L173.497 31H175.177L172.897 45H169.897L167.317 32H167.037L164.457 45H161.437ZM177.517 45V31H179.197V45H177.517ZM185.84 45V32.52H181.34V31H192.02V32.52H187.52V45H185.84ZM194.158 45V31H195.838V37.22H202.398V31H204.078V45H202.398V38.74H195.838V45H194.158ZM106.386 73.28C104.719 73.28 103.393 72.8 102.406 71.84C101.419 70.8667 100.926 69.4533 100.926 67.6V64.4C100.926 62.5467 101.419 61.14 102.406 60.18C103.393 59.2067 104.719 58.72 106.386 58.72C108.039 58.72 109.306 59.18 110.186 60.1C111.079 61.02 111.526 62.28 111.526 63.88V63.98H109.866V63.82C109.866 62.7667 109.579 61.9067 109.006 61.24C108.446 60.56 107.573 60.22 106.386 60.22C105.199 60.22 104.273 60.5867 103.606 61.32C102.939 62.04 102.606 63.0533 102.606 64.36V67.64C102.606 68.9467 102.939 69.9667 103.606 70.7C104.273 71.42 105.199 71.78 106.386 71.78C107.573 71.78 108.446 71.4467 109.006 70.78C109.579 70.1 109.866 69.2333 109.866 68.18V67.86H111.526V68.12C111.526 69.72 111.079 70.98 110.186 71.9C109.306 72.82 108.039 73.28 106.386 73.28ZM114.158 73V59H115.838V65.22H122.398V59H124.078V73H122.398V66.74H115.838V73H114.158ZM127.283 73V59H128.963V73H127.283ZM132.166 73V59H133.846V71.48H140.926V73H132.166ZM142.424 73V71.5H144.384V60.5H142.424V59H147.884C149.724 59 151.144 59.4667 152.144 60.4C153.157 61.3333 153.664 62.7667 153.664 64.7V67.3C153.664 69.2467 153.157 70.6867 152.144 71.62C151.144 72.54 149.724 73 147.884 73H142.424ZM146.064 71.48H147.884C149.244 71.48 150.27 71.1467 150.964 70.48C151.657 69.8133 152.004 68.78 152.004 67.38V64.64C152.004 63.2133 151.657 62.1733 150.964 61.52C150.27 60.8667 149.244 60.54 147.884 60.54H146.064V71.48ZM156.346 73V59H162.006C162.872 59 163.632 59.1533 164.286 59.46C164.952 59.7533 165.472 60.18 165.846 60.74C166.219 61.2867 166.406 61.9467 166.406 62.72V62.94C166.406 63.86 166.186 64.5867 165.746 65.12C165.306 65.6533 164.786 66.0133 164.186 66.2V66.48C164.666 66.4933 165.059 66.6533 165.366 66.96C165.686 67.2533 165.846 67.7 165.846 68.3V73H164.186V68.5C164.186 68.1 164.072 67.7933 163.846 67.58C163.632 67.3667 163.306 67.26 162.866 67.26H158.026V73H156.346ZM158.026 65.74H161.846C162.766 65.74 163.472 65.52 163.966 65.08C164.472 64.6267 164.726 64 164.726 63.2V63.06C164.726 62.26 164.479 61.64 163.986 61.2C163.492 60.7467 162.779 60.52 161.846 60.52H158.026V65.74ZM168.963 73V59H177.583V60.52H170.643V65.2H177.023V66.72H170.643V71.48H177.683V73H168.963ZM180.232 73V59H183.492L188.372 71.94H188.632V59H190.292V73H187.032L182.172 60.04H181.892V73H180.232Z" fill="white"/>
<path d="M99.8711 182V179.864C99.8711 177.729 100.035 175.921 100.364 174.443C100.693 172.909 101.404 171.184 102.5 169.268L121.803 135.178V133.864H91.2461V124.5H132.646V136.985L112.275 173.375C111.563 174.634 111.07 175.757 110.796 176.743C110.522 177.729 110.385 178.933 110.385 180.357V182H99.8711ZM159.237 183.15C154.966 183.15 151.242 182.438 148.066 181.014C144.944 179.59 142.507 177.537 140.755 174.854C139.057 172.17 138.208 168.967 138.208 165.243H148.887C148.887 167.543 149.681 169.542 151.269 171.239C152.912 172.937 155.568 173.786 159.237 173.786C162.961 173.786 165.808 172.827 167.78 170.911C169.751 168.939 170.737 166.283 170.737 162.943V157.028H169.258C168.328 158.124 166.904 159.164 164.987 160.15C163.125 161.136 160.332 161.628 156.608 161.628C153.323 161.628 150.256 160.917 147.408 159.493C144.561 158.069 142.261 156.015 140.508 153.332C138.756 150.594 137.88 147.308 137.88 143.475V142.489C137.88 138.656 138.783 135.315 140.59 132.468C142.398 129.62 144.944 127.402 148.23 125.814C151.516 124.171 155.349 123.35 159.73 123.35C164.111 123.35 167.917 124.171 171.148 125.814C174.379 127.457 176.87 129.729 178.623 132.632C180.375 135.534 181.251 138.875 181.251 142.653V162.286C181.251 166.94 180.293 170.829 178.376 173.95C176.514 177.017 173.913 179.317 170.573 180.85C167.287 182.383 163.508 183.15 159.237 183.15ZM159.566 153.25C161.866 153.25 163.837 152.839 165.48 152.018C167.178 151.196 168.464 150.046 169.341 148.568C170.272 147.089 170.737 145.337 170.737 143.311V142.653C170.737 139.587 169.724 137.177 167.698 135.425C165.726 133.618 163.016 132.714 159.566 132.714C156.116 132.714 153.377 133.618 151.351 135.425C149.38 137.177 148.394 139.587 148.394 142.653V143.311C148.394 145.337 148.832 147.089 149.708 148.568C150.639 150.046 151.954 151.196 153.651 152.018C155.349 152.839 157.32 153.25 159.566 153.25Z" fill="white"/>
<path d="M194.32 168.034L191.198 165.529L213.295 138.216L216.416 140.721L194.32 168.034ZM211.652 167.911C209.571 167.911 207.942 167.363 206.765 166.268C205.587 165.145 204.998 163.626 204.998 161.709V161.421C204.998 159.477 205.587 157.958 206.765 156.862C207.942 155.74 209.571 155.179 211.652 155.179C213.678 155.179 215.294 155.74 216.499 156.862C217.703 157.958 218.306 159.477 218.306 161.421V161.709C218.306 163.626 217.717 165.145 216.54 166.268C215.362 167.363 213.733 167.911 211.652 167.911ZM211.652 164.543C212.446 164.543 213.062 164.296 213.5 163.804C213.966 163.311 214.198 162.667 214.198 161.873V161.216C214.198 160.422 213.966 159.779 213.5 159.286C213.062 158.793 212.446 158.546 211.652 158.546C210.858 158.546 210.228 158.793 209.763 159.286C209.325 159.779 209.106 160.422 209.106 161.216V161.873C209.106 162.667 209.325 163.311 209.763 163.804C210.228 164.296 210.858 164.543 211.652 164.543ZM195.963 151.071C193.882 151.071 192.253 150.524 191.075 149.428C189.898 148.306 189.309 146.786 189.309 144.87V144.582C189.309 142.638 189.898 141.118 191.075 140.023C192.253 138.9 193.882 138.339 195.963 138.339C197.989 138.339 199.604 138.9 200.809 140.023C202.014 141.118 202.616 142.638 202.616 144.582V144.87C202.616 146.786 202.028 148.306 200.85 149.428C199.673 150.524 198.044 151.071 195.963 151.071ZM195.963 147.703C196.757 147.703 197.373 147.457 197.811 146.964C198.276 146.471 198.509 145.828 198.509 145.034V144.377C198.509 143.583 198.276 142.939 197.811 142.446C197.373 141.953 196.757 141.707 195.963 141.707C195.169 141.707 194.539 141.953 194.073 142.446C193.635 142.939 193.416 143.583 193.416 144.377V145.034C193.416 145.828 193.635 146.471 194.073 146.964C194.539 147.457 195.169 147.703 195.963 147.703Z" fill="white"/>
<path d="M61.7169 245V233.8H63.0609V243.784H68.7249V245H61.7169ZM74.0208 245.224C73.2315 245.224 72.5381 245.059 71.9408 244.728C71.3435 244.387 70.8795 243.912 70.5488 243.304C70.2181 242.696 70.0528 241.992 70.0528 241.192V241C70.0528 240.189 70.2181 239.48 70.5488 238.872C70.8795 238.264 71.3381 237.795 71.9248 237.464C72.5115 237.123 73.1835 236.952 73.9408 236.952C74.6768 236.952 75.3275 237.112 75.8928 237.432C76.4581 237.741 76.9008 238.189 77.2208 238.776C77.5408 239.363 77.7008 240.051 77.7008 240.84V241.416H71.3168C71.3488 242.259 71.6208 242.92 72.1328 243.4C72.6448 243.869 73.2848 244.104 74.0528 244.104C74.7248 244.104 75.2421 243.949 75.6048 243.64C75.9675 243.331 76.2448 242.963 76.4368 242.536L77.5248 243.064C77.3648 243.395 77.1408 243.725 76.8528 244.056C76.5755 244.387 76.2075 244.664 75.7488 244.888C75.3008 245.112 74.7248 245.224 74.0208 245.224ZM71.3328 240.376H76.4208C76.3781 239.651 76.1275 239.085 75.6688 238.68C75.2208 238.275 74.6448 238.072 73.9408 238.072C73.2261 238.072 72.6395 238.275 72.1808 238.68C71.7221 239.085 71.4395 239.651 71.3328 240.376ZM83.0575 245.224C82.0869 245.224 81.2655 245 80.5935 244.552C79.9322 244.104 79.5322 243.395 79.3935 242.424L80.5935 242.152C80.6789 242.664 80.8389 243.069 81.0735 243.368C81.3082 243.656 81.5962 243.864 81.9375 243.992C82.2895 244.109 82.6629 244.168 83.0575 244.168C83.6442 244.168 84.1082 244.051 84.4495 243.816C84.7909 243.581 84.9615 243.267 84.9615 242.872C84.9615 242.467 84.7962 242.184 84.4655 242.024C84.1455 241.853 83.7029 241.715 83.1375 241.608L82.4815 241.496C81.9802 241.411 81.5215 241.277 81.1055 241.096C80.6895 240.915 80.3589 240.669 80.1135 240.36C79.8682 240.051 79.7455 239.661 79.7455 239.192C79.7455 238.488 80.0175 237.939 80.5615 237.544C81.1055 237.149 81.8255 236.952 82.7215 236.952C83.6069 236.952 84.3215 237.155 84.8655 237.56C85.4202 237.955 85.7775 238.515 85.9375 239.24L84.7535 239.544C84.6575 238.979 84.4282 238.584 84.0655 238.36C83.7029 238.125 83.2549 238.008 82.7215 238.008C82.1882 238.008 81.7669 238.109 81.4575 238.312C81.1482 238.504 80.9935 238.792 80.9935 239.176C80.9935 239.549 81.1375 239.827 81.4255 240.008C81.7242 240.179 82.1189 240.307 82.6095 240.392L83.2655 240.504C83.8202 240.6 84.3162 240.733 84.7535 240.904C85.2015 241.064 85.5535 241.299 85.8095 241.608C86.0762 241.917 86.2095 242.323 86.2095 242.824C86.2095 243.592 85.9215 244.184 85.3455 244.6C84.7802 245.016 84.0175 245.224 83.0575 245.224ZM91.495 245.224C90.5244 245.224 89.703 245 89.031 244.552C88.3697 244.104 87.9697 243.395 87.831 242.424L89.031 242.152C89.1164 242.664 89.2764 243.069 89.511 243.368C89.7457 243.656 90.0337 243.864 90.375 243.992C90.727 244.109 91.1004 244.168 91.495 244.168C92.0817 244.168 92.5457 244.051 92.887 243.816C93.2284 243.581 93.399 243.267 93.399 242.872C93.399 242.467 93.2337 242.184 92.903 242.024C92.583 241.853 92.1404 241.715 91.575 241.608L90.919 241.496C90.4177 241.411 89.959 241.277 89.543 241.096C89.127 240.915 88.7964 240.669 88.551 240.36C88.3057 240.051 88.183 239.661 88.183 239.192C88.183 238.488 88.455 237.939 88.999 237.544C89.543 237.149 90.263 236.952 91.159 236.952C92.0444 236.952 92.759 237.155 93.303 237.56C93.8577 237.955 94.215 238.515 94.375 239.24L93.191 239.544C93.095 238.979 92.8657 238.584 92.503 238.36C92.1404 238.125 91.6924 238.008 91.159 238.008C90.6257 238.008 90.2044 238.109 89.895 238.312C89.5857 238.504 89.431 238.792 89.431 239.176C89.431 239.549 89.575 239.827 89.863 240.008C90.1617 240.179 90.5564 240.307 91.047 240.392L91.703 240.504C92.2577 240.6 92.7537 240.733 93.191 240.904C93.639 241.064 93.991 241.299 94.247 241.608C94.5137 241.917 94.647 242.323 94.647 242.824C94.647 243.592 94.359 244.184 93.783 244.6C93.2177 245.016 92.455 245.224 91.495 245.224ZM100.89 245V233.8H102.154V245H100.89ZM104.812 245V237.176H106.076V245H104.812ZM105.452 235.96C105.174 235.96 104.94 235.869 104.748 235.688C104.566 235.507 104.476 235.277 104.476 235C104.476 234.712 104.566 234.477 104.748 234.296C104.94 234.115 105.174 234.024 105.452 234.024C105.729 234.024 105.958 234.115 106.14 234.296C106.321 234.477 106.412 234.712 106.412 235C106.412 235.277 106.321 235.507 106.14 235.688C105.958 235.869 105.729 235.96 105.452 235.96ZM108.734 245V233.8H109.998V240.392H110.222L113.806 237.176H115.566L111.23 240.984L115.694 245H113.95L110.222 241.592H109.998V245H108.734ZM120.505 245.224C119.716 245.224 119.022 245.059 118.425 244.728C117.828 244.387 117.364 243.912 117.033 243.304C116.702 242.696 116.537 241.992 116.537 241.192V241C116.537 240.189 116.702 239.48 117.033 238.872C117.364 238.264 117.822 237.795 118.409 237.464C118.996 237.123 119.668 236.952 120.425 236.952C121.161 236.952 121.812 237.112 122.377 237.432C122.942 237.741 123.385 238.189 123.705 238.776C124.025 239.363 124.185 240.051 124.185 240.84V241.416H117.801C117.833 242.259 118.105 242.92 118.617 243.4C119.129 243.869 119.769 244.104 120.537 244.104C121.209 244.104 121.726 243.949 122.089 243.64C122.452 243.331 122.729 242.963 122.921 242.536L124.009 243.064C123.849 243.395 123.625 243.725 123.337 244.056C123.06 244.387 122.692 244.664 122.233 244.888C121.785 245.112 121.209 245.224 120.505 245.224ZM117.817 240.376H122.905C122.862 239.651 122.612 239.085 122.153 238.68C121.705 238.275 121.129 238.072 120.425 238.072C119.71 238.072 119.124 238.275 118.665 238.68C118.206 239.085 117.924 239.651 117.817 240.376ZM126.39 245V233.8H127.654V245H126.39ZM131.256 248.2V247.08H135.736C136.045 247.08 136.2 246.92 136.2 246.6V243.752H135.976C135.869 243.976 135.704 244.2 135.48 244.424C135.266 244.637 134.984 244.813 134.632 244.952C134.28 245.08 133.837 245.144 133.304 245.144C132.738 245.144 132.216 245.021 131.736 244.776C131.266 244.531 130.893 244.168 130.616 243.688C130.349 243.208 130.216 242.621 130.216 241.928V237.176H131.48V241.832C131.48 242.6 131.672 243.16 132.056 243.512C132.45 243.864 132.978 244.04 133.64 244.04C134.386 244.04 135 243.795 135.48 243.304C135.96 242.813 136.2 242.083 136.2 241.112V237.176H137.464V246.824C137.464 247.251 137.341 247.587 137.096 247.832C136.861 248.077 136.514 248.2 136.056 248.2H131.256ZM147.098 245C146.65 245 146.303 244.877 146.058 244.632C145.823 244.387 145.706 244.051 145.706 243.624V238.28H143.354V237.176H145.706V234.392H146.97V237.176H149.53V238.28H146.97V243.432C146.97 243.752 147.125 243.912 147.434 243.912H149.178V245H147.098ZM154.912 245.224C154.123 245.224 153.424 245.059 152.816 244.728C152.219 244.397 151.75 243.933 151.408 243.336C151.078 242.728 150.912 242.013 150.912 241.192V240.984C150.912 240.173 151.078 239.464 151.408 238.856C151.75 238.248 152.219 237.779 152.816 237.448C153.424 237.117 154.123 236.952 154.912 236.952C155.702 236.952 156.395 237.117 156.992 237.448C157.6 237.779 158.07 238.248 158.4 238.856C158.742 239.464 158.912 240.173 158.912 240.984V241.192C158.912 242.013 158.742 242.728 158.4 243.336C158.07 243.933 157.6 244.397 156.992 244.728C156.395 245.059 155.702 245.224 154.912 245.224ZM154.912 244.088C155.744 244.088 156.406 243.827 156.896 243.304C157.398 242.771 157.648 242.056 157.648 241.16V241.016C157.648 240.12 157.398 239.411 156.896 238.888C156.406 238.355 155.744 238.088 154.912 238.088C154.091 238.088 153.43 238.355 152.928 238.888C152.427 239.411 152.176 240.12 152.176 241.016V241.16C152.176 242.056 152.427 242.771 152.928 243.304C153.43 243.827 154.091 244.088 154.912 244.088ZM169.632 245.224C168.822 245.224 168.187 245.069 167.728 244.76C167.28 244.451 166.955 244.099 166.752 243.704H166.528V245H165.296V233.8H166.56V238.408H166.784C166.912 238.163 167.094 237.933 167.328 237.72C167.563 237.496 167.867 237.315 168.24 237.176C168.624 237.027 169.088 236.952 169.632 236.952C170.315 236.952 170.934 237.117 171.488 237.448C172.054 237.768 172.502 238.232 172.832 238.84C173.163 239.437 173.328 240.152 173.328 240.984V241.192C173.328 242.024 173.158 242.744 172.816 243.352C172.486 243.96 172.038 244.424 171.472 244.744C170.918 245.064 170.304 245.224 169.632 245.224ZM169.296 244.104C170.107 244.104 170.763 243.848 171.264 243.336C171.776 242.813 172.032 242.088 172.032 241.16V241.016C172.032 240.088 171.776 239.368 171.264 238.856C170.763 238.333 170.107 238.072 169.296 238.072C168.496 238.072 167.835 238.333 167.312 238.856C166.8 239.368 166.544 240.088 166.544 241.016V241.16C166.544 242.088 166.8 242.813 167.312 243.336C167.835 243.848 168.496 244.104 169.296 244.104ZM179.177 245.224C178.388 245.224 177.694 245.059 177.097 244.728C176.5 244.387 176.036 243.912 175.705 243.304C175.374 242.696 175.209 241.992 175.209 241.192V241C175.209 240.189 175.374 239.48 175.705 238.872C176.036 238.264 176.494 237.795 177.081 237.464C177.668 237.123 178.34 236.952 179.097 236.952C179.833 236.952 180.484 237.112 181.049 237.432C181.614 237.741 182.057 238.189 182.377 238.776C182.697 239.363 182.857 240.051 182.857 240.84V241.416H176.473C176.505 242.259 176.777 242.92 177.289 243.4C177.801 243.869 178.441 244.104 179.209 244.104C179.881 244.104 180.398 243.949 180.761 243.64C181.124 243.331 181.401 242.963 181.593 242.536L182.681 243.064C182.521 243.395 182.297 243.725 182.009 244.056C181.732 244.387 181.364 244.664 180.905 244.888C180.457 245.112 179.881 245.224 179.177 245.224ZM176.489 240.376H181.577C181.534 239.651 181.284 239.085 180.825 238.68C180.377 238.275 179.801 238.072 179.097 238.072C178.382 238.072 177.796 238.275 177.337 238.68C176.878 239.085 176.596 239.651 176.489 240.376ZM189.171 245V233.8H190.435V238.424H190.659C190.766 238.189 190.926 237.971 191.139 237.768C191.363 237.555 191.646 237.379 191.987 237.24C192.339 237.101 192.782 237.032 193.315 237.032C193.902 237.032 194.425 237.16 194.883 237.416C195.353 237.661 195.726 238.024 196.003 238.504C196.281 238.973 196.419 239.56 196.419 240.264V245H195.155V240.36C195.155 239.581 194.958 239.016 194.563 238.664C194.179 238.312 193.657 238.136 192.995 238.136C192.238 238.136 191.619 238.381 191.139 238.872C190.67 239.363 190.435 240.093 190.435 241.064V245H189.171ZM198.984 245V237.176H200.248V245H198.984ZM199.624 235.96C199.346 235.96 199.112 235.869 198.92 235.688C198.738 235.507 198.648 235.277 198.648 235C198.648 234.712 198.738 234.477 198.92 234.296C199.112 234.115 199.346 234.024 199.624 234.024C199.901 234.024 200.13 234.115 200.312 234.296C200.493 234.477 200.584 234.712 200.584 235C200.584 235.277 200.493 235.507 200.312 235.688C200.13 235.869 199.901 235.96 199.624 235.96ZM202.906 245V237.176H204.138V238.136H204.362C204.5 237.795 204.714 237.544 205.002 237.384C205.29 237.224 205.668 237.144 206.138 237.144H207.066V238.296H206.058C205.492 238.296 205.034 238.456 204.682 238.776C204.34 239.085 204.17 239.571 204.17 240.232V245H202.906ZM212.24 245.224C211.45 245.224 210.757 245.059 210.16 244.728C209.562 244.387 209.098 243.912 208.768 243.304C208.437 242.696 208.272 241.992 208.272 241.192V241C208.272 240.189 208.437 239.48 208.768 238.872C209.098 238.264 209.557 237.795 210.144 237.464C210.73 237.123 211.402 236.952 212.16 236.952C212.896 236.952 213.546 237.112 214.112 237.432C214.677 237.741 215.12 238.189 215.44 238.776C215.76 239.363 215.92 240.051 215.92 240.84V241.416H209.536C209.568 242.259 209.84 242.92 210.352 243.4C210.864 243.869 211.504 244.104 212.272 244.104C212.944 244.104 213.461 243.949 213.824 243.64C214.186 243.331 214.464 242.963 214.656 242.536L215.744 243.064C215.584 243.395 215.36 243.725 215.072 244.056C214.794 244.387 214.426 244.664 213.968 244.888C213.52 245.112 212.944 245.224 212.24 245.224ZM209.552 240.376H214.64C214.597 239.651 214.346 239.085 213.888 238.68C213.44 238.275 212.864 238.072 212.16 238.072C211.445 238.072 210.858 238.275 210.4 238.68C209.941 239.085 209.658 239.651 209.552 240.376ZM221.436 245.224C220.764 245.224 220.146 245.064 219.58 244.744C219.015 244.424 218.567 243.96 218.236 243.352C217.906 242.744 217.74 242.024 217.74 241.192V240.984C217.74 240.152 217.906 239.437 218.236 238.84C218.567 238.232 219.01 237.768 219.564 237.448C220.13 237.117 220.754 236.952 221.436 236.952C221.98 236.952 222.439 237.027 222.812 237.176C223.196 237.315 223.506 237.496 223.74 237.72C223.975 237.933 224.156 238.163 224.284 238.408H224.508V233.8H225.772V245H224.54V243.704H224.316C224.103 244.099 223.772 244.451 223.324 244.76C222.876 245.069 222.247 245.224 221.436 245.224ZM221.772 244.104C222.583 244.104 223.239 243.848 223.74 243.336C224.252 242.813 224.508 242.088 224.508 241.16V241.016C224.508 240.088 224.252 239.368 223.74 238.856C223.239 238.333 222.583 238.072 221.772 238.072C220.972 238.072 220.311 238.333 219.788 238.856C219.276 239.368 219.02 240.088 219.02 241.016V241.16C219.02 242.088 219.276 242.813 219.788 243.336C220.311 243.848 220.972 244.104 221.772 244.104ZM100.028 269C99.5797 269 99.2331 268.877 98.9877 268.632C98.7531 268.387 98.6357 268.051 98.6357 267.624V262.28H96.2837V261.176H98.6357V258.392H99.8997V261.176H102.46V262.28H99.8997V267.432C99.8997 267.752 100.054 267.912 100.364 267.912H102.108V269H100.028ZM104.507 269V257.8H105.771V262.424H105.995C106.102 262.189 106.262 261.971 106.475 261.768C106.699 261.555 106.982 261.379 107.323 261.24C107.675 261.101 108.118 261.032 108.651 261.032C109.238 261.032 109.76 261.16 110.219 261.416C110.688 261.661 111.062 262.024 111.339 262.504C111.616 262.973 111.755 263.56 111.755 264.264V269H110.491V264.36C110.491 263.581 110.294 263.016 109.899 262.664C109.515 262.312 108.992 262.136 108.331 262.136C107.574 262.136 106.955 262.381 106.475 262.872C106.006 263.363 105.771 264.093 105.771 265.064V269H104.507ZM116.72 269.224C116.176 269.224 115.68 269.128 115.232 268.936C114.784 268.744 114.432 268.467 114.176 268.104C113.92 267.741 113.792 267.299 113.792 266.776C113.792 266.243 113.92 265.805 114.176 265.464C114.432 265.112 114.784 264.851 115.232 264.68C115.68 264.499 116.181 264.408 116.736 264.408H119.376V263.832C119.376 263.277 119.21 262.84 118.88 262.52C118.56 262.2 118.08 262.04 117.44 262.04C116.81 262.04 116.32 262.195 115.968 262.504C115.616 262.803 115.376 263.208 115.248 263.72L114.064 263.336C114.192 262.899 114.394 262.504 114.672 262.152C114.949 261.789 115.317 261.501 115.776 261.288C116.245 261.064 116.805 260.952 117.456 260.952C118.458 260.952 119.237 261.213 119.792 261.736C120.346 262.248 120.624 262.973 120.624 263.912V267.448C120.624 267.768 120.773 267.928 121.072 267.928H121.792V269H120.688C120.336 269 120.053 268.904 119.84 268.712C119.626 268.509 119.52 268.243 119.52 267.912V267.832H119.328C119.21 268.035 119.05 268.248 118.848 268.472C118.656 268.685 118.389 268.861 118.048 269C117.706 269.149 117.264 269.224 116.72 269.224ZM116.864 268.136C117.61 268.136 118.213 267.917 118.672 267.48C119.141 267.032 119.376 266.408 119.376 265.608V265.432H116.784C116.282 265.432 115.866 265.544 115.536 265.768C115.216 265.981 115.056 266.307 115.056 266.744C115.056 267.181 115.221 267.523 115.552 267.768C115.893 268.013 116.33 268.136 116.864 268.136ZM123.523 269V261.176H124.755V262.504H124.979C125.149 262.131 125.437 261.795 125.843 261.496C126.259 261.187 126.867 261.032 127.667 261.032C128.253 261.032 128.776 261.155 129.235 261.4C129.704 261.645 130.077 262.008 130.355 262.488C130.632 262.968 130.771 263.56 130.771 264.264V269H129.507V264.36C129.507 263.581 129.309 263.016 128.915 262.664C128.531 262.312 128.008 262.136 127.347 262.136C126.589 262.136 125.971 262.381 125.491 262.872C125.021 263.363 124.787 264.093 124.787 265.064V269H123.523ZM138.533 269L136.965 261.176H138.245L139.541 268.152H139.765L141.477 261.176H143.573L145.285 268.152H145.509L146.805 261.176H148.085L146.517 269H144.357L142.629 262.024H142.421L140.693 269H138.533ZM153.717 269.224C152.928 269.224 152.229 269.059 151.621 268.728C151.024 268.397 150.554 267.933 150.213 267.336C149.882 266.728 149.717 266.013 149.717 265.192V264.984C149.717 264.173 149.882 263.464 150.213 262.856C150.554 262.248 151.024 261.779 151.621 261.448C152.229 261.117 152.928 260.952 153.717 260.952C154.506 260.952 155.2 261.117 155.797 261.448C156.405 261.779 156.874 262.248 157.205 262.856C157.546 263.464 157.717 264.173 157.717 264.984V265.192C157.717 266.013 157.546 266.728 157.205 267.336C156.874 267.933 156.405 268.397 155.797 268.728C155.2 269.059 154.506 269.224 153.717 269.224ZM153.717 268.088C154.549 268.088 155.21 267.827 155.701 267.304C156.202 266.771 156.453 266.056 156.453 265.16V265.016C156.453 264.12 156.202 263.411 155.701 262.888C155.21 262.355 154.549 262.088 153.717 262.088C152.896 262.088 152.234 262.355 151.733 262.888C151.232 263.411 150.981 264.12 150.981 265.016V265.16C150.981 266.056 151.232 266.771 151.733 267.304C152.234 267.827 152.896 268.088 153.717 268.088ZM159.991 269V261.176H161.223V262.152H161.447C161.597 261.875 161.842 261.619 162.183 261.384C162.525 261.149 163.005 261.032 163.623 261.032C164.231 261.032 164.722 261.165 165.095 261.432C165.479 261.699 165.757 262.024 165.927 262.408H166.151C166.333 262.024 166.605 261.699 166.967 261.432C167.341 261.165 167.858 261.032 168.519 261.032C169.042 261.032 169.501 261.139 169.895 261.352C170.29 261.565 170.599 261.875 170.823 262.28C171.058 262.675 171.175 263.149 171.175 263.704V269H169.911V263.816C169.911 263.293 169.757 262.883 169.447 262.584C169.149 262.275 168.727 262.12 168.183 262.12C167.607 262.12 167.133 262.307 166.759 262.68C166.397 263.053 166.215 263.592 166.215 264.296V269H164.951V263.816C164.951 263.293 164.797 262.883 164.487 262.584C164.189 262.275 163.767 262.12 163.223 262.12C162.647 262.12 162.173 262.307 161.799 262.68C161.437 263.053 161.255 263.592 161.255 264.296V269H159.991ZM177.341 269.224C176.552 269.224 175.858 269.059 175.261 268.728C174.664 268.387 174.2 267.912 173.869 267.304C173.538 266.696 173.373 265.992 173.373 265.192V265C173.373 264.189 173.538 263.48 173.869 262.872C174.2 262.264 174.658 261.795 175.245 261.464C175.832 261.123 176.504 260.952 177.261 260.952C177.997 260.952 178.648 261.112 179.213 261.432C179.778 261.741 180.221 262.189 180.541 262.776C180.861 263.363 181.021 264.051 181.021 264.84V265.416H174.637C174.669 266.259 174.941 266.92 175.453 267.4C175.965 267.869 176.605 268.104 177.373 268.104C178.045 268.104 178.562 267.949 178.925 267.64C179.288 267.331 179.565 266.963 179.757 266.536L180.845 267.064C180.685 267.395 180.461 267.725 180.173 268.056C179.896 268.387 179.528 268.664 179.069 268.888C178.621 269.112 178.045 269.224 177.341 269.224ZM174.653 264.376H179.741C179.698 263.651 179.448 263.085 178.989 262.68C178.541 262.275 177.965 262.072 177.261 262.072C176.546 262.072 175.96 262.275 175.501 262.68C175.042 263.085 174.76 263.651 174.653 264.376ZM183.226 269V261.176H184.458V262.504H184.682C184.853 262.131 185.141 261.795 185.546 261.496C185.962 261.187 186.57 261.032 187.37 261.032C187.957 261.032 188.479 261.155 188.938 261.4C189.407 261.645 189.781 262.008 190.058 262.488C190.335 262.968 190.474 263.56 190.474 264.264V269H189.21V264.36C189.21 263.581 189.013 263.016 188.618 262.664C188.234 262.312 187.711 262.136 187.05 262.136C186.293 262.136 185.674 262.381 185.194 262.872C184.725 263.363 184.49 264.093 184.49 265.064V269H183.226ZM84.431 293L82.863 285.176H84.143L85.439 292.152H85.663L87.375 285.176H89.471L91.183 292.152H91.407L92.703 285.176H93.983L92.415 293H90.255L88.527 286.024H88.319L86.591 293H84.431ZM96.1555 293V285.176H97.4195V293H96.1555ZM96.7955 283.96C96.5182 283.96 96.2835 283.869 96.0915 283.688C95.9102 283.507 95.8195 283.277 95.8195 283C95.8195 282.712 95.9102 282.477 96.0915 282.296C96.2835 282.115 96.5182 282.024 96.7955 282.024C97.0729 282.024 97.3022 282.115 97.4835 282.296C97.6649 282.477 97.7555 282.712 97.7555 283C97.7555 283.277 97.6649 283.507 97.4835 283.688C97.3022 283.869 97.0729 283.96 96.7955 283.96ZM102.957 293C102.509 293 102.163 292.877 101.917 292.632C101.683 292.387 101.565 292.051 101.565 291.624V286.28H99.2134V285.176H101.565V282.392H102.829V285.176H105.389V286.28H102.829V291.432C102.829 291.752 102.984 291.912 103.293 291.912H105.037V293H102.957ZM107.437 293V281.8H108.701V286.424H108.925C109.031 286.189 109.191 285.971 109.405 285.768C109.629 285.555 109.911 285.379 110.253 285.24C110.605 285.101 111.047 285.032 111.581 285.032C112.167 285.032 112.69 285.16 113.149 285.416C113.618 285.661 113.991 286.024 114.269 286.504C114.546 286.973 114.685 287.56 114.685 288.264V293H113.421V288.36C113.421 287.581 113.223 287.016 112.829 286.664C112.445 286.312 111.922 286.136 111.261 286.136C110.503 286.136 109.885 286.381 109.405 286.872C108.935 287.363 108.701 288.093 108.701 289.064V293H107.437ZM120.865 293.224C120.076 293.224 119.377 293.059 118.769 292.728C118.172 292.397 117.703 291.933 117.361 291.336C117.031 290.728 116.865 290.013 116.865 289.192V288.984C116.865 288.173 117.031 287.464 117.361 286.856C117.703 286.248 118.172 285.779 118.769 285.448C119.377 285.117 120.076 284.952 120.865 284.952C121.655 284.952 122.348 285.117 122.945 285.448C123.553 285.779 124.023 286.248 124.353 286.856C124.695 287.464 124.865 288.173 124.865 288.984V289.192C124.865 290.013 124.695 290.728 124.353 291.336C124.023 291.933 123.553 292.397 122.945 292.728C122.348 293.059 121.655 293.224 120.865 293.224ZM120.865 292.088C121.697 292.088 122.359 291.827 122.849 291.304C123.351 290.771 123.601 290.056 123.601 289.16V289.016C123.601 288.12 123.351 287.411 122.849 286.888C122.359 286.355 121.697 286.088 120.865 286.088C120.044 286.088 119.383 286.355 118.881 286.888C118.38 287.411 118.129 288.12 118.129 289.016V289.16C118.129 290.056 118.38 290.771 118.881 291.304C119.383 291.827 120.044 292.088 120.865 292.088ZM130.132 293.144C129.567 293.144 129.044 293.021 128.564 292.776C128.095 292.531 127.721 292.168 127.444 291.688C127.177 291.197 127.044 290.605 127.044 289.912V285.176H128.308V289.816C128.308 290.595 128.5 291.16 128.884 291.512C129.279 291.864 129.807 292.04 130.468 292.04C131.215 292.04 131.828 291.795 132.308 291.304C132.788 290.813 133.028 290.083 133.028 289.112V285.176H134.292V293H133.06V291.672H132.836C132.665 292.045 132.372 292.387 131.956 292.696C131.54 292.995 130.932 293.144 130.132 293.144ZM139.817 293C139.369 293 139.022 292.877 138.777 292.632C138.542 292.387 138.425 292.051 138.425 291.624V286.28H136.073V285.176H138.425V282.392H139.689V285.176H142.249V286.28H139.689V291.432C139.689 291.752 139.843 291.912 140.153 291.912H141.897V293H139.817ZM152.006 293.224C151.248 293.224 150.566 293.064 149.958 292.744C149.36 292.413 148.886 291.944 148.534 291.336C148.192 290.728 148.022 290.008 148.022 289.176V289C148.022 288.157 148.192 287.437 148.534 286.84C148.886 286.232 149.36 285.768 149.958 285.448C150.566 285.117 151.248 284.952 152.006 284.952C152.752 284.952 153.387 285.091 153.91 285.368C154.443 285.645 154.859 286.013 155.158 286.472C155.467 286.931 155.664 287.421 155.75 287.944L154.518 288.2C154.464 287.816 154.336 287.464 154.134 287.144C153.942 286.824 153.67 286.568 153.318 286.376C152.966 286.184 152.534 286.088 152.022 286.088C151.499 286.088 151.03 286.205 150.614 286.44C150.208 286.675 149.883 287.011 149.638 287.448C149.403 287.885 149.286 288.408 149.286 289.016V289.16C149.286 289.768 149.403 290.291 149.638 290.728C149.883 291.165 150.208 291.501 150.614 291.736C151.03 291.971 151.499 292.088 152.022 292.088C152.8 292.088 153.392 291.885 153.798 291.48C154.214 291.075 154.47 290.573 154.566 289.976L155.814 290.248C155.696 290.76 155.483 291.245 155.174 291.704C154.864 292.163 154.443 292.531 153.91 292.808C153.387 293.085 152.752 293.224 152.006 293.224ZM157.968 293V281.8H159.232V286.424H159.456C159.563 286.189 159.723 285.971 159.936 285.768C160.16 285.555 160.443 285.379 160.784 285.24C161.136 285.101 161.579 285.032 162.112 285.032C162.699 285.032 163.221 285.16 163.68 285.416C164.149 285.661 164.523 286.024 164.8 286.504C165.077 286.973 165.216 287.56 165.216 288.264V293H163.952V288.36C163.952 287.581 163.755 287.016 163.36 286.664C162.976 286.312 162.453 286.136 161.792 286.136C161.035 286.136 160.416 286.381 159.936 286.872C159.467 287.363 159.232 288.093 159.232 289.064V293H157.968ZM167.781 293V285.176H169.045V293H167.781ZM168.421 283.96C168.143 283.96 167.909 283.869 167.717 283.688C167.535 283.507 167.445 283.277 167.445 283C167.445 282.712 167.535 282.477 167.717 282.296C167.909 282.115 168.143 282.024 168.421 282.024C168.698 282.024 168.927 282.115 169.109 282.296C169.29 282.477 169.381 282.712 169.381 283C169.381 283.277 169.29 283.507 169.109 283.688C168.927 283.869 168.698 283.96 168.421 283.96ZM171.702 293V281.8H172.966V293H171.702ZM178.936 293.224C178.264 293.224 177.646 293.064 177.08 292.744C176.515 292.424 176.067 291.96 175.736 291.352C175.406 290.744 175.24 290.024 175.24 289.192V288.984C175.24 288.152 175.406 287.437 175.736 286.84C176.067 286.232 176.51 285.768 177.064 285.448C177.63 285.117 178.254 284.952 178.936 284.952C179.48 284.952 179.939 285.027 180.312 285.176C180.696 285.315 181.006 285.496 181.24 285.72C181.475 285.933 181.656 286.163 181.784 286.408H182.008V281.8H183.272V293H182.04V291.704H181.816C181.603 292.099 181.272 292.451 180.824 292.76C180.376 293.069 179.747 293.224 178.936 293.224ZM179.272 292.104C180.083 292.104 180.739 291.848 181.24 291.336C181.752 290.813 182.008 290.088 182.008 289.16V289.016C182.008 288.088 181.752 287.368 181.24 286.856C180.739 286.333 180.083 286.072 179.272 286.072C178.472 286.072 177.811 286.333 177.288 286.856C176.776 287.368 176.52 288.088 176.52 289.016V289.16C176.52 290.088 176.776 290.813 177.288 291.336C177.811 291.848 178.472 292.104 179.272 292.104ZM185.921 293V285.176H187.153V286.136H187.377C187.516 285.795 187.729 285.544 188.017 285.384C188.305 285.224 188.684 285.144 189.153 285.144H190.081V286.296H189.073C188.508 286.296 188.049 286.456 187.697 286.776C187.356 287.085 187.185 287.571 187.185 288.232V293H185.921ZM195.255 293.224C194.466 293.224 193.773 293.059 193.175 292.728C192.578 292.387 192.114 291.912 191.783 291.304C191.453 290.696 191.287 289.992 191.287 289.192V289C191.287 288.189 191.453 287.48 191.783 286.872C192.114 286.264 192.573 285.795 193.159 285.464C193.746 285.123 194.418 284.952 195.175 284.952C195.911 284.952 196.562 285.112 197.127 285.432C197.693 285.741 198.135 286.189 198.455 286.776C198.775 287.363 198.935 288.051 198.935 288.84V289.416H192.551C192.583 290.259 192.855 290.92 193.367 291.4C193.879 291.869 194.519 292.104 195.287 292.104C195.959 292.104 196.477 291.949 196.839 291.64C197.202 291.331 197.479 290.963 197.671 290.536L198.759 291.064C198.599 291.395 198.375 291.725 198.087 292.056C197.81 292.387 197.442 292.664 196.983 292.888C196.535 293.112 195.959 293.224 195.255 293.224ZM192.567 288.376H197.655C197.613 287.651 197.362 287.085 196.903 286.68C196.455 286.275 195.879 286.072 195.175 286.072C194.461 286.072 193.874 286.275 193.415 286.68C192.957 287.085 192.674 287.651 192.567 288.376ZM201.14 293V285.176H202.372V286.504H202.596C202.767 286.131 203.055 285.795 203.46 285.496C203.876 285.187 204.484 285.032 205.284 285.032C205.871 285.032 206.393 285.155 206.852 285.4C207.321 285.645 207.695 286.008 207.972 286.488C208.249 286.968 208.388 287.56 208.388 288.264V293H207.124V288.36C207.124 287.581 206.927 287.016 206.532 286.664C206.148 286.312 205.625 286.136 204.964 286.136C204.207 286.136 203.588 286.381 203.108 286.872C202.639 287.363 202.404 288.093 202.404 289.064V293H201.14Z" fill="white"/>
</svg>
