<svg width="290" height="330" viewBox="0 0 290 330" fill="none" xmlns="http://www.w3.org/2000/svg">
<rect width="290" height="330" fill="#F6331C"/>
<path d="M79.6903 45L77.4103 31H79.0903L81.0703 43.92H81.3503L83.9303 31H86.9303L89.4903 43.92H89.7703L91.7503 31H93.4303L91.1503 45H88.1503L85.5703 32H85.2903L82.7103 45H79.6903ZM100.714 45.28C99.0469 45.28 97.7136 44.8 96.7136 43.84C95.7269 42.8667 95.2336 41.4533 95.2336 39.6V36.4C95.2336 34.5467 95.7269 33.14 96.7136 32.18C97.7136 31.2067 99.0469 30.72 100.714 30.72C102.394 30.72 103.727 31.2067 104.714 32.18C105.714 33.14 106.214 34.5467 106.214 36.4V39.6C106.214 41.4533 105.714 42.8667 104.714 43.84C103.727 44.8 102.394 45.28 100.714 45.28ZM100.714 43.78C101.927 43.78 102.867 43.42 103.534 42.7C104.2 41.9667 104.534 40.9533 104.534 39.66V36.34C104.534 35.0467 104.2 34.04 103.534 33.32C102.867 32.5867 101.927 32.22 100.714 32.22C99.5136 32.22 98.5803 32.5867 97.9136 33.32C97.2469 34.04 96.9136 35.0467 96.9136 36.34V39.66C96.9136 40.9533 97.2469 41.9667 97.9136 42.7C98.5803 43.42 99.5136 43.78 100.714 43.78ZM109.012 45V31H112.212L115.932 43.94H116.192L119.912 31H123.112V45H121.492V32.1H121.212L117.512 45H114.612L110.912 32.1H110.632V45H109.012ZM126.317 45V31H134.937V32.52H127.997V37.2H134.377V38.72H127.997V43.48H135.037V45H126.317ZM137.587 45V31H140.847L145.727 43.94H145.987V31H147.647V45H144.387L139.527 32.04H139.247V45H137.587ZM156.005 45V31H157.685V45H156.005ZM160.888 45V31H164.148L169.028 43.94H169.288V31H170.948V45H167.688L162.828 32.04H162.548V45H160.888ZM182.218 45V32.52H177.718V31H188.398V32.52H183.898V45H182.218ZM190.536 45V31H192.216V37.22H198.776V31H200.456V45H198.776V38.74H192.216V45H190.536ZM203.661 45V31H212.281V32.52H205.341V37.2H211.721V38.72H205.341V43.48H212.381V45H203.661ZM89.8563 73L87.5763 59H89.2563L91.2363 71.92H91.5163L94.0963 59H97.0963L99.6563 71.92H99.9363L101.916 59H103.596L101.316 73H98.3163L95.7363 60H95.4563L92.8763 73H89.8563ZM110.88 73.28C109.213 73.28 107.88 72.8 106.88 71.84C105.893 70.8667 105.4 69.4533 105.4 67.6V64.4C105.4 62.5467 105.893 61.14 106.88 60.18C107.88 59.2067 109.213 58.72 110.88 58.72C112.56 58.72 113.893 59.2067 114.88 60.18C115.88 61.14 116.38 62.5467 116.38 64.4V67.6C116.38 69.4533 115.88 70.8667 114.88 71.84C113.893 72.8 112.56 73.28 110.88 73.28ZM110.88 71.78C112.093 71.78 113.033 71.42 113.7 70.7C114.366 69.9667 114.7 68.9533 114.7 67.66V64.34C114.7 63.0467 114.366 62.04 113.7 61.32C113.033 60.5867 112.093 60.22 110.88 60.22C109.68 60.22 108.746 60.5867 108.08 61.32C107.413 62.04 107.08 63.0467 107.08 64.34V67.66C107.08 68.9533 107.413 69.9667 108.08 70.7C108.746 71.42 109.68 71.78 110.88 71.78ZM119.179 73V59H124.839C125.705 59 126.465 59.1533 127.119 59.46C127.785 59.7533 128.305 60.18 128.679 60.74C129.052 61.2867 129.239 61.9467 129.239 62.72V62.94C129.239 63.86 129.019 64.5867 128.579 65.12C128.139 65.6533 127.619 66.0133 127.019 66.2V66.48C127.499 66.4933 127.892 66.6533 128.199 66.96C128.519 67.2533 128.679 67.7 128.679 68.3V73H127.019V68.5C127.019 68.1 126.905 67.7933 126.679 67.58C126.465 67.3667 126.139 67.26 125.699 67.26H120.859V73H119.179ZM120.859 65.74H124.679C125.599 65.74 126.305 65.52 126.799 65.08C127.305 64.6267 127.559 64 127.559 63.2V63.06C127.559 62.26 127.312 61.64 126.819 61.2C126.325 60.7467 125.612 60.52 124.679 60.52H120.859V65.74ZM131.796 73V59H133.476V65.1H133.756L139.676 59H141.916L135.096 65.92L142.156 73H139.856L133.756 66.78H133.476V73H131.796ZM144.003 73V59H152.463V60.52H145.683V65.22H151.923V66.74H145.683V73H144.003ZM159.747 73.28C158.08 73.28 156.747 72.8 155.747 71.84C154.76 70.8667 154.267 69.4533 154.267 67.6V64.4C154.267 62.5467 154.76 61.14 155.747 60.18C156.747 59.2067 158.08 58.72 159.747 58.72C161.427 58.72 162.76 59.2067 163.747 60.18C164.747 61.14 165.247 62.5467 165.247 64.4V67.6C165.247 69.4533 164.747 70.8667 163.747 71.84C162.76 72.8 161.427 73.28 159.747 73.28ZM159.747 71.78C160.96 71.78 161.9 71.42 162.567 70.7C163.233 69.9667 163.567 68.9533 163.567 67.66V64.34C163.567 63.0467 163.233 62.04 162.567 61.32C161.9 60.5867 160.96 60.22 159.747 60.22C158.547 60.22 157.613 60.5867 156.947 61.32C156.28 62.04 155.947 63.0467 155.947 64.34V67.66C155.947 68.9533 156.28 69.9667 156.947 70.7C157.613 71.42 158.547 71.78 159.747 71.78ZM168.046 73V59H173.706C174.572 59 175.332 59.1533 175.986 59.46C176.652 59.7533 177.172 60.18 177.546 60.74C177.919 61.2867 178.106 61.9467 178.106 62.72V62.94C178.106 63.86 177.886 64.5867 177.446 65.12C177.006 65.6533 176.486 66.0133 175.886 66.2V66.48C176.366 66.4933 176.759 66.6533 177.066 66.96C177.386 67.2533 177.546 67.7 177.546 68.3V73H175.886V68.5C175.886 68.1 175.772 67.7933 175.546 67.58C175.332 67.3667 175.006 67.26 174.566 67.26H169.726V73H168.046ZM169.726 65.74H173.546C174.466 65.74 175.172 65.52 175.666 65.08C176.172 64.6267 176.426 64 176.426 63.2V63.06C176.426 62.26 176.179 61.64 175.686 61.2C175.192 60.7467 174.479 60.52 173.546 60.52H169.726V65.74ZM185.723 73.28C184.056 73.28 182.73 72.8 181.743 71.84C180.756 70.8667 180.263 69.4533 180.263 67.6V64.4C180.263 62.5467 180.756 61.14 181.743 60.18C182.73 59.2067 184.056 58.72 185.723 58.72C187.376 58.72 188.643 59.18 189.523 60.1C190.416 61.02 190.863 62.28 190.863 63.88V63.98H189.203V63.82C189.203 62.7667 188.916 61.9067 188.343 61.24C187.783 60.56 186.91 60.22 185.723 60.22C184.536 60.22 183.61 60.5867 182.943 61.32C182.276 62.04 181.943 63.0533 181.943 64.36V67.64C181.943 68.9467 182.276 69.9667 182.943 70.7C183.61 71.42 184.536 71.78 185.723 71.78C186.91 71.78 187.783 71.4467 188.343 70.78C188.916 70.1 189.203 69.2333 189.203 68.18V67.86H190.863V68.12C190.863 69.72 190.416 70.98 189.523 71.9C188.643 72.82 187.376 73.28 185.723 73.28ZM193.495 73V59H202.115V60.52H195.175V65.2H201.555V66.72H195.175V71.48H202.215V73H193.495Z" fill="white"/>
<path d="M115.716 182V170.336H87.4587V158.178L107.337 124.5H126.23V160.971H135.759V170.336H126.23V182H115.716ZM97.4802 160.971H115.716V131.235H114.237L97.4802 159.657V160.971ZM162.516 183.15C158.19 183.15 154.357 182.383 151.016 180.85C147.676 179.317 145.047 177.126 143.131 174.279C141.269 171.376 140.338 167.953 140.338 164.011V162.532H150.852V163.682C150.852 166.749 151.92 169.213 154.056 171.075C156.191 172.882 159.012 173.786 162.516 173.786C166.076 173.786 168.814 172.937 170.731 171.239C172.702 169.542 173.688 167.406 173.688 164.832V164.011C173.688 162.258 173.25 160.834 172.374 159.739C171.497 158.644 170.32 157.85 168.842 157.357C167.363 156.809 165.693 156.536 163.831 156.536H152.331V145.036L170.895 135.178V133.864H141.816V124.5H182.559V138.464L165.227 147.664V148.978H168.267C170.84 148.978 173.332 149.499 175.742 150.539C178.206 151.58 180.232 153.195 181.82 155.386C183.408 157.521 184.202 160.314 184.202 163.764V164.75C184.202 168.474 183.299 171.732 181.492 174.525C179.684 177.263 177.138 179.399 173.852 180.932C170.621 182.411 166.843 183.15 162.516 183.15Z" fill="white"/>
<path d="M193.5 168.034L190.379 165.529L212.476 138.216L215.597 140.721L193.5 168.034ZM210.833 167.911C208.752 167.911 207.123 167.363 205.945 166.268C204.768 165.145 204.179 163.626 204.179 161.709V161.421C204.179 159.477 204.768 157.958 205.945 156.862C207.123 155.74 208.752 155.179 210.833 155.179C212.859 155.179 214.474 155.74 215.679 156.862C216.884 157.958 217.486 159.477 217.486 161.421V161.709C217.486 163.626 216.898 165.145 215.72 166.268C214.543 167.363 212.914 167.911 210.833 167.911ZM210.833 164.543C211.627 164.543 212.243 164.296 212.681 163.804C213.146 163.311 213.379 162.667 213.379 161.873V161.216C213.379 160.422 213.146 159.779 212.681 159.286C212.243 158.793 211.627 158.546 210.833 158.546C210.039 158.546 209.409 158.793 208.943 159.286C208.505 159.779 208.286 160.422 208.286 161.216V161.873C208.286 162.667 208.505 163.311 208.943 163.804C209.409 164.296 210.039 164.543 210.833 164.543ZM195.143 151.071C193.062 151.071 191.433 150.524 190.256 149.428C189.078 148.306 188.49 146.786 188.49 144.87V144.582C188.49 142.638 189.078 141.118 190.256 140.023C191.433 138.9 193.062 138.339 195.143 138.339C197.17 138.339 198.785 138.9 199.99 140.023C201.195 141.118 201.797 142.638 201.797 144.582V144.87C201.797 146.786 201.208 148.306 200.031 149.428C198.853 150.524 197.224 151.071 195.143 151.071ZM195.143 147.703C195.937 147.703 196.553 147.457 196.992 146.964C197.457 146.471 197.69 145.828 197.69 145.034V144.377C197.69 143.583 197.457 142.939 196.992 142.446C196.553 141.953 195.937 141.707 195.143 141.707C194.349 141.707 193.72 141.953 193.254 142.446C192.816 142.939 192.597 143.583 192.597 144.377V145.034C192.597 145.828 192.816 146.471 193.254 146.964C193.72 147.457 194.349 147.703 195.143 147.703Z" fill="white"/>
<path d="M35.4868 245V243.8H37.0548V235H35.4868V233.8H39.8548C41.3268 233.8 42.4628 234.173 43.2628 234.92C44.0734 235.667 44.4788 236.813 44.4788 238.36V240.44C44.4788 241.997 44.0734 243.149 43.2628 243.896C42.4628 244.632 41.3268 245 39.8548 245H35.4868ZM38.3988 243.784H39.8548C40.9428 243.784 41.7641 243.517 42.3188 242.984C42.8734 242.451 43.1508 241.624 43.1508 240.504V238.312C43.1508 237.171 42.8734 236.339 42.3188 235.816C41.7641 235.293 40.9428 235.032 39.8548 235.032H38.3988V243.784ZM50.2561 245.224C49.4668 245.224 48.7735 245.059 48.1761 244.728C47.5788 244.387 47.1148 243.912 46.7841 243.304C46.4535 242.696 46.2881 241.992 46.2881 241.192V241C46.2881 240.189 46.4535 239.48 46.7841 238.872C47.1148 238.264 47.5735 237.795 48.1601 237.464C48.7468 237.123 49.4188 236.952 50.1761 236.952C50.9121 236.952 51.5628 237.112 52.1281 237.432C52.6935 237.741 53.1361 238.189 53.4561 238.776C53.7761 239.363 53.9361 240.051 53.9361 240.84V241.416H47.5521C47.5841 242.259 47.8561 242.92 48.3681 243.4C48.8801 243.869 49.5201 244.104 50.2881 244.104C50.9601 244.104 51.4775 243.949 51.8401 243.64C52.2028 243.331 52.4801 242.963 52.6721 242.536L53.7601 243.064C53.6001 243.395 53.3761 243.725 53.0881 244.056C52.8108 244.387 52.4428 244.664 51.9841 244.888C51.5361 245.112 50.9601 245.224 50.2561 245.224ZM47.5681 240.376H52.6561C52.6135 239.651 52.3628 239.085 51.9041 238.68C51.4561 238.275 50.8801 238.072 50.1761 238.072C49.4615 238.072 48.8748 238.275 48.4161 238.68C47.9575 239.085 47.6748 239.651 47.5681 240.376ZM56.1409 245V233.8H57.4049V245H56.1409ZM62.4628 245.224C61.9188 245.224 61.4228 245.128 60.9748 244.936C60.5268 244.744 60.1748 244.467 59.9188 244.104C59.6628 243.741 59.5348 243.299 59.5348 242.776C59.5348 242.243 59.6628 241.805 59.9188 241.464C60.1748 241.112 60.5268 240.851 60.9748 240.68C61.4228 240.499 61.9241 240.408 62.4788 240.408H65.1188V239.832C65.1188 239.277 64.9534 238.84 64.6228 238.52C64.3028 238.2 63.8228 238.04 63.1828 238.04C62.5534 238.04 62.0628 238.195 61.7108 238.504C61.3588 238.803 61.1188 239.208 60.9908 239.72L59.8068 239.336C59.9348 238.899 60.1374 238.504 60.4148 238.152C60.6921 237.789 61.0601 237.501 61.5188 237.288C61.9881 237.064 62.5481 236.952 63.1988 236.952C64.2014 236.952 64.9801 237.213 65.5348 237.736C66.0894 238.248 66.3668 238.973 66.3668 239.912V243.448C66.3668 243.768 66.5161 243.928 66.8148 243.928H67.5348V245H66.4308C66.0788 245 65.7961 244.904 65.5828 244.712C65.3694 244.509 65.2628 244.243 65.2628 243.912V243.832H65.0708C64.9534 244.035 64.7934 244.248 64.5908 244.472C64.3988 244.685 64.1321 244.861 63.7908 245C63.4494 245.149 63.0068 245.224 62.4628 245.224ZM62.6068 244.136C63.3534 244.136 63.9561 243.917 64.4148 243.48C64.8841 243.032 65.1188 242.408 65.1188 241.608V241.432H62.5268C62.0254 241.432 61.6094 241.544 61.2788 241.768C60.9588 241.981 60.7988 242.307 60.7988 242.744C60.7988 243.181 60.9641 243.523 61.2948 243.768C61.6361 244.013 62.0734 244.136 62.6068 244.136ZM70.0068 248.2V247.08H74.4868C74.7961 247.08 74.9508 246.92 74.9508 246.6V243.752H74.7268C74.6201 243.976 74.4548 244.2 74.2308 244.424C74.0174 244.637 73.7348 244.813 73.3828 244.952C73.0308 245.08 72.5881 245.144 72.0548 245.144C71.4894 245.144 70.9668 245.021 70.4868 244.776C70.0174 244.531 69.6441 244.168 69.3668 243.688C69.1001 243.208 68.9668 242.621 68.9668 241.928V237.176H70.2308V241.832C70.2308 242.6 70.4228 243.16 70.8068 243.512C71.2014 243.864 71.7294 244.04 72.3908 244.04C73.1374 244.04 73.7508 243.795 74.2308 243.304C74.7108 242.813 74.9508 242.083 74.9508 241.112V237.176H76.2148V246.824C76.2148 247.251 76.0921 247.587 75.8468 247.832C75.6121 248.077 75.2654 248.2 74.8068 248.2H70.0068ZM82.4436 245.224C81.6543 245.224 80.961 245.059 80.3636 244.728C79.7663 244.387 79.3023 243.912 78.9716 243.304C78.641 242.696 78.4756 241.992 78.4756 241.192V241C78.4756 240.189 78.641 239.48 78.9716 238.872C79.3023 238.264 79.761 237.795 80.3476 237.464C80.9343 237.123 81.6063 236.952 82.3636 236.952C83.0996 236.952 83.7503 237.112 84.3156 237.432C84.881 237.741 85.3236 238.189 85.6436 238.776C85.9636 239.363 86.1236 240.051 86.1236 240.84V241.416H79.7396C79.7716 242.259 80.0436 242.92 80.5556 243.4C81.0676 243.869 81.7076 244.104 82.4756 244.104C83.1476 244.104 83.665 243.949 84.0276 243.64C84.3903 243.331 84.6676 242.963 84.8596 242.536L85.9476 243.064C85.7876 243.395 85.5636 243.725 85.2756 244.056C84.9983 244.387 84.6303 244.664 84.1716 244.888C83.7236 245.112 83.1476 245.224 82.4436 245.224ZM79.7556 240.376H84.8436C84.801 239.651 84.5503 239.085 84.0916 238.68C83.6436 238.275 83.0676 238.072 82.3636 238.072C81.649 238.072 81.0623 238.275 80.6036 238.68C80.145 239.085 79.8623 239.651 79.7556 240.376ZM91.6404 245.224C90.9684 245.224 90.3497 245.064 89.7844 244.744C89.2191 244.424 88.7711 243.96 88.4404 243.352C88.1097 242.744 87.9444 242.024 87.9444 241.192V240.984C87.9444 240.152 88.1097 239.437 88.4404 238.84C88.7711 238.232 89.2137 237.768 89.7684 237.448C90.3337 237.117 90.9577 236.952 91.6404 236.952C92.1844 236.952 92.6431 237.027 93.0164 237.176C93.4004 237.315 93.7097 237.496 93.9444 237.72C94.1791 237.933 94.3604 238.163 94.4884 238.408H94.7124V233.8H95.9764V245H94.7444V243.704H94.5204C94.3071 244.099 93.9764 244.451 93.5284 244.76C93.0804 245.069 92.4511 245.224 91.6404 245.224ZM91.9764 244.104C92.7871 244.104 93.4431 243.848 93.9444 243.336C94.4564 242.813 94.7124 242.088 94.7124 241.16V241.016C94.7124 240.088 94.4564 239.368 93.9444 238.856C93.4431 238.333 92.7871 238.072 91.9764 238.072C91.1764 238.072 90.5151 238.333 89.9924 238.856C89.4804 239.368 89.2244 240.088 89.2244 241.016V241.16C89.2244 242.088 89.4804 242.813 89.9924 243.336C90.5151 243.848 91.1764 244.104 91.9764 244.104ZM105.887 245.224C104.916 245.224 104.095 245 103.423 244.552C102.761 244.104 102.361 243.395 102.223 242.424L103.423 242.152C103.508 242.664 103.668 243.069 103.903 243.368C104.137 243.656 104.425 243.864 104.767 243.992C105.119 244.109 105.492 244.168 105.887 244.168C106.473 244.168 106.937 244.051 107.279 243.816C107.62 243.581 107.791 243.267 107.791 242.872C107.791 242.467 107.625 242.184 107.295 242.024C106.975 241.853 106.532 241.715 105.967 241.608L105.311 241.496C104.809 241.411 104.351 241.277 103.935 241.096C103.519 240.915 103.188 240.669 102.943 240.36C102.697 240.051 102.575 239.661 102.575 239.192C102.575 238.488 102.847 237.939 103.391 237.544C103.935 237.149 104.655 236.952 105.551 236.952C106.436 236.952 107.151 237.155 107.695 237.56C108.249 237.955 108.607 238.515 108.767 239.24L107.583 239.544C107.487 238.979 107.257 238.584 106.895 238.36C106.532 238.125 106.084 238.008 105.551 238.008C105.017 238.008 104.596 238.109 104.287 238.312C103.977 238.504 103.823 238.792 103.823 239.176C103.823 239.549 103.967 239.827 104.255 240.008C104.553 240.179 104.948 240.307 105.439 240.392L106.095 240.504C106.649 240.6 107.145 240.733 107.583 240.904C108.031 241.064 108.383 241.299 108.639 241.608C108.905 241.917 109.039 242.323 109.039 242.824C109.039 243.592 108.751 244.184 108.175 244.6C107.609 245.016 106.847 245.224 105.887 245.224ZM113.88 245C113.432 245 113.086 244.877 112.84 244.632C112.606 244.387 112.488 244.051 112.488 243.624V238.28H110.136V237.176H112.488V234.392H113.752V237.176H116.312V238.28H113.752V243.432C113.752 243.752 113.907 243.912 114.216 243.912H115.96V245H113.88ZM120.713 245.224C120.169 245.224 119.673 245.128 119.225 244.936C118.777 244.744 118.425 244.467 118.169 244.104C117.913 243.741 117.785 243.299 117.785 242.776C117.785 242.243 117.913 241.805 118.169 241.464C118.425 241.112 118.777 240.851 119.225 240.68C119.673 240.499 120.174 240.408 120.729 240.408H123.369V239.832C123.369 239.277 123.203 238.84 122.873 238.52C122.553 238.2 122.073 238.04 121.433 238.04C120.803 238.04 120.313 238.195 119.961 238.504C119.609 238.803 119.369 239.208 119.241 239.72L118.057 239.336C118.185 238.899 118.387 238.504 118.665 238.152C118.942 237.789 119.31 237.501 119.769 237.288C120.238 237.064 120.798 236.952 121.449 236.952C122.451 236.952 123.23 237.213 123.785 237.736C124.339 238.248 124.617 238.973 124.617 239.912V243.448C124.617 243.768 124.766 243.928 125.065 243.928H125.785V245H124.681C124.329 245 124.046 244.904 123.833 244.712C123.619 244.509 123.513 244.243 123.513 243.912V243.832H123.321C123.203 244.035 123.043 244.248 122.841 244.472C122.649 244.685 122.382 244.861 122.041 245C121.699 245.149 121.257 245.224 120.713 245.224ZM120.857 244.136C121.603 244.136 122.206 243.917 122.665 243.48C123.134 243.032 123.369 242.408 123.369 241.608V241.432H120.777C120.275 241.432 119.859 241.544 119.529 241.768C119.209 241.981 119.049 242.307 119.049 242.744C119.049 243.181 119.214 243.523 119.545 243.768C119.886 244.013 120.323 244.136 120.857 244.136ZM127.516 245V237.176H128.748V238.136H128.972C129.111 237.795 129.324 237.544 129.612 237.384C129.9 237.224 130.279 237.144 130.748 237.144H131.676V238.296H130.668C130.103 238.296 129.644 238.456 129.292 238.776C128.951 239.085 128.78 239.571 128.78 240.232V245H127.516ZM136.427 245C135.979 245 135.632 244.877 135.387 244.632C135.152 244.387 135.035 244.051 135.035 243.624V238.28H132.683V237.176H135.035V234.392H136.299V237.176H138.859V238.28H136.299V243.432C136.299 243.752 136.454 243.912 136.763 243.912H138.507V245H136.427ZM140.907 245V237.176H142.171V245H140.907ZM141.547 235.96C141.269 235.96 141.035 235.869 140.843 235.688C140.661 235.507 140.571 235.277 140.571 235C140.571 234.712 140.661 234.477 140.843 234.296C141.035 234.115 141.269 234.024 141.547 234.024C141.824 234.024 142.053 234.115 142.235 234.296C142.416 234.477 142.507 234.712 142.507 235C142.507 235.277 142.416 235.507 142.235 235.688C142.053 235.869 141.824 235.96 141.547 235.96ZM144.828 245V237.176H146.06V238.504H146.284C146.455 238.131 146.743 237.795 147.148 237.496C147.564 237.187 148.172 237.032 148.972 237.032C149.559 237.032 150.082 237.155 150.54 237.4C151.01 237.645 151.383 238.008 151.66 238.488C151.938 238.968 152.076 239.56 152.076 240.264V245H150.812V240.36C150.812 239.581 150.615 239.016 150.22 238.664C149.836 238.312 149.314 238.136 148.652 238.136C147.895 238.136 147.276 238.381 146.796 238.872C146.327 239.363 146.092 240.093 146.092 241.064V245H144.828ZM154.257 241.128V240.904C154.257 240.083 154.422 239.379 154.753 238.792C155.084 238.205 155.532 237.752 156.097 237.432C156.662 237.112 157.281 236.952 157.953 236.952C158.774 236.952 159.404 237.112 159.841 237.432C160.289 237.741 160.62 238.088 160.833 238.472H161.057V237.176H162.257V246.824C162.257 247.251 162.14 247.587 161.905 247.832C161.67 248.077 161.329 248.2 160.881 248.2H155.569V247.08H160.545C160.865 247.08 161.025 246.92 161.025 246.6V243.624H160.801C160.673 243.859 160.492 244.088 160.257 244.312C160.022 244.536 159.718 244.723 159.345 244.872C158.972 245.011 158.508 245.08 157.953 245.08C157.281 245.08 156.662 244.92 156.097 244.6C155.532 244.28 155.084 243.827 154.753 243.24C154.422 242.643 154.257 241.939 154.257 241.128ZM158.289 243.96C159.1 243.96 159.756 243.704 160.257 243.192C160.769 242.68 161.025 241.976 161.025 241.08V240.952C161.025 240.045 160.769 239.341 160.257 238.84C159.756 238.328 159.1 238.072 158.289 238.072C157.489 238.072 156.828 238.328 156.305 238.84C155.793 239.341 155.537 240.045 155.537 240.952V241.08C155.537 241.976 155.793 242.68 156.305 243.192C156.828 243.704 157.489 243.96 158.289 243.96ZM171.416 245.224C170.872 245.224 170.376 245.128 169.928 244.936C169.48 244.744 169.128 244.467 168.872 244.104C168.616 243.741 168.488 243.299 168.488 242.776C168.488 242.243 168.616 241.805 168.872 241.464C169.128 241.112 169.48 240.851 169.928 240.68C170.376 240.499 170.877 240.408 171.432 240.408H174.072V239.832C174.072 239.277 173.907 238.84 173.576 238.52C173.256 238.2 172.776 238.04 172.136 238.04C171.507 238.04 171.016 238.195 170.664 238.504C170.312 238.803 170.072 239.208 169.944 239.72L168.76 239.336C168.888 238.899 169.091 238.504 169.368 238.152C169.645 237.789 170.013 237.501 170.472 237.288C170.941 237.064 171.501 236.952 172.152 236.952C173.155 236.952 173.933 237.213 174.488 237.736C175.043 238.248 175.32 238.973 175.32 239.912V243.448C175.32 243.768 175.469 243.928 175.768 243.928H176.488V245H175.384C175.032 245 174.749 244.904 174.536 244.712C174.323 244.509 174.216 244.243 174.216 243.912V243.832H174.024C173.907 244.035 173.747 244.248 173.544 244.472C173.352 244.685 173.085 244.861 172.744 245C172.403 245.149 171.96 245.224 171.416 245.224ZM171.56 244.136C172.307 244.136 172.909 243.917 173.368 243.48C173.837 243.032 174.072 242.408 174.072 241.608V241.432H171.48C170.979 241.432 170.563 241.544 170.232 241.768C169.912 241.981 169.752 242.307 169.752 242.744C169.752 243.181 169.917 243.523 170.248 243.768C170.589 244.013 171.027 244.136 171.56 244.136ZM183.864 245V238.28H181.464V237.176H183.864V235.176C183.864 234.749 183.982 234.413 184.216 234.168C184.462 233.923 184.808 233.8 185.256 233.8H187.224V234.888H185.608C185.288 234.888 185.128 235.048 185.128 235.368V237.176H187.592V238.28H185.128V245H183.864ZM191.666 245.224C191.122 245.224 190.626 245.128 190.178 244.936C189.73 244.744 189.378 244.467 189.122 244.104C188.866 243.741 188.738 243.299 188.738 242.776C188.738 242.243 188.866 241.805 189.122 241.464C189.378 241.112 189.73 240.851 190.178 240.68C190.626 240.499 191.127 240.408 191.682 240.408H194.322V239.832C194.322 239.277 194.157 238.84 193.826 238.52C193.506 238.2 193.026 238.04 192.386 238.04C191.757 238.04 191.266 238.195 190.914 238.504C190.562 238.803 190.322 239.208 190.194 239.72L189.01 239.336C189.138 238.899 189.341 238.504 189.618 238.152C189.895 237.789 190.263 237.501 190.722 237.288C191.191 237.064 191.751 236.952 192.402 236.952C193.405 236.952 194.183 237.213 194.738 237.736C195.293 238.248 195.57 238.973 195.57 239.912V243.448C195.57 243.768 195.719 243.928 196.018 243.928H196.738V245H195.634C195.282 245 194.999 244.904 194.786 244.712C194.573 244.509 194.466 244.243 194.466 243.912V243.832H194.274C194.157 244.035 193.997 244.248 193.794 244.472C193.602 244.685 193.335 244.861 192.994 245C192.653 245.149 192.21 245.224 191.666 245.224ZM191.81 244.136C192.557 244.136 193.159 243.917 193.618 243.48C194.087 243.032 194.322 242.408 194.322 241.608V241.432H191.73C191.229 241.432 190.813 241.544 190.482 241.768C190.162 241.981 190.002 242.307 190.002 242.744C190.002 243.181 190.167 243.523 190.498 243.768C190.839 244.013 191.277 244.136 191.81 244.136ZM198.469 245V237.176H199.701V238.152H199.925C200.074 237.875 200.32 237.619 200.661 237.384C201.002 237.149 201.482 237.032 202.101 237.032C202.709 237.032 203.2 237.165 203.573 237.432C203.957 237.699 204.234 238.024 204.405 238.408H204.629C204.81 238.024 205.082 237.699 205.445 237.432C205.818 237.165 206.336 237.032 206.997 237.032C207.52 237.032 207.978 237.139 208.373 237.352C208.768 237.565 209.077 237.875 209.301 238.28C209.536 238.675 209.653 239.149 209.653 239.704V245H208.389V239.816C208.389 239.293 208.234 238.883 207.925 238.584C207.626 238.275 207.205 238.12 206.661 238.12C206.085 238.12 205.61 238.307 205.237 238.68C204.874 239.053 204.693 239.592 204.693 240.296V245H203.429V239.816C203.429 239.293 203.274 238.883 202.965 238.584C202.666 238.275 202.245 238.12 201.701 238.12C201.125 238.12 200.65 238.307 200.277 238.68C199.914 239.053 199.733 239.592 199.733 240.296V245H198.469ZM212.235 245V237.176H213.499V245H212.235ZM212.875 235.96C212.597 235.96 212.363 235.869 212.171 235.688C211.989 235.507 211.899 235.277 211.899 235C211.899 234.712 211.989 234.477 212.171 234.296C212.363 234.115 212.597 234.024 212.875 234.024C213.152 234.024 213.381 234.115 213.563 234.296C213.744 234.477 213.835 234.712 213.835 235C213.835 235.277 213.744 235.507 213.563 235.688C213.381 235.869 213.152 235.96 212.875 235.96ZM216.157 245V233.8H217.421V245H216.157ZM221.022 248.2V247.08H225.502C225.812 247.08 225.966 246.92 225.966 246.6V243.752H225.742C225.636 243.976 225.47 244.2 225.246 244.424C225.033 244.637 224.75 244.813 224.398 244.952C224.046 245.08 223.604 245.144 223.07 245.144C222.505 245.144 221.982 245.021 221.502 244.776C221.033 244.531 220.66 244.168 220.382 243.688C220.116 243.208 219.982 242.621 219.982 241.928V237.176H221.246V241.832C221.246 242.6 221.438 243.16 221.822 243.512C222.217 243.864 222.745 244.04 223.406 244.04C224.153 244.04 224.766 243.795 225.246 243.304C225.726 242.813 225.966 242.083 225.966 241.112V237.176H227.23V246.824C227.23 247.251 227.108 247.587 226.862 247.832C226.628 248.077 226.281 248.2 225.822 248.2H221.022ZM235.521 245V238.28H233.121V237.176H235.521V235.176C235.521 234.749 235.638 234.413 235.873 234.168C236.118 233.923 236.465 233.8 236.913 233.8H238.881V234.888H237.265C236.945 234.888 236.785 235.048 236.785 235.368V237.176H239.249V238.28H236.785V245H235.521ZM244.288 245.224C243.499 245.224 242.8 245.059 242.192 244.728C241.595 244.397 241.125 243.933 240.784 243.336C240.453 242.728 240.288 242.013 240.288 241.192V240.984C240.288 240.173 240.453 239.464 240.784 238.856C241.125 238.248 241.595 237.779 242.192 237.448C242.8 237.117 243.499 236.952 244.288 236.952C245.077 236.952 245.771 237.117 246.368 237.448C246.976 237.779 247.445 238.248 247.776 238.856C248.117 239.464 248.288 240.173 248.288 240.984V241.192C248.288 242.013 248.117 242.728 247.776 243.336C247.445 243.933 246.976 244.397 246.368 244.728C245.771 245.059 245.077 245.224 244.288 245.224ZM244.288 244.088C245.12 244.088 245.781 243.827 246.272 243.304C246.773 242.771 247.024 242.056 247.024 241.16V241.016C247.024 240.12 246.773 239.411 246.272 238.888C245.781 238.355 245.12 238.088 244.288 238.088C243.467 238.088 242.805 238.355 242.304 238.888C241.803 239.411 241.552 240.12 241.552 241.016V241.16C241.552 242.056 241.803 242.771 242.304 243.304C242.805 243.827 243.467 244.088 244.288 244.088ZM250.563 245V237.176H251.795V238.136H252.019C252.157 237.795 252.371 237.544 252.659 237.384C252.947 237.224 253.325 237.144 253.795 237.144H254.723V238.296H253.715C253.149 238.296 252.691 238.456 252.339 238.776C251.997 239.085 251.827 239.571 251.827 240.232V245H250.563ZM49.9503 269V262.28H47.5503V261.176H49.9503V259.176C49.9503 258.749 50.0677 258.413 50.3023 258.168C50.5477 257.923 50.8943 257.8 51.3423 257.8H53.3103V258.888H51.6943C51.3743 258.888 51.2143 259.048 51.2143 259.368V261.176H53.6783V262.28H51.2143V269H49.9503ZM58.6858 269.224C57.8965 269.224 57.2032 269.059 56.6058 268.728C56.0085 268.387 55.5445 267.912 55.2138 267.304C54.8832 266.696 54.7178 265.992 54.7178 265.192V265C54.7178 264.189 54.8832 263.48 55.2138 262.872C55.5445 262.264 56.0032 261.795 56.5898 261.464C57.1765 261.123 57.8485 260.952 58.6058 260.952C59.3418 260.952 59.9925 261.112 60.5578 261.432C61.1232 261.741 61.5658 262.189 61.8858 262.776C62.2058 263.363 62.3658 264.051 62.3658 264.84V265.416H55.9818C56.0138 266.259 56.2858 266.92 56.7978 267.4C57.3098 267.869 57.9498 268.104 58.7178 268.104C59.3898 268.104 59.9072 267.949 60.2698 267.64C60.6325 267.331 60.9098 266.963 61.1018 266.536L62.1898 267.064C62.0298 267.395 61.8058 267.725 61.5178 268.056C61.2405 268.387 60.8725 268.664 60.4138 268.888C59.9658 269.112 59.3898 269.224 58.6858 269.224ZM55.9978 264.376H61.0858C61.0432 263.651 60.7925 263.085 60.3338 262.68C59.8858 262.275 59.3098 262.072 58.6058 262.072C57.8912 262.072 57.3045 262.275 56.8458 262.68C56.3872 263.085 56.1045 263.651 55.9978 264.376ZM66.9706 269.224C66.4266 269.224 65.9306 269.128 65.4826 268.936C65.0346 268.744 64.6826 268.467 64.4266 268.104C64.1706 267.741 64.0426 267.299 64.0426 266.776C64.0426 266.243 64.1706 265.805 64.4266 265.464C64.6826 265.112 65.0346 264.851 65.4826 264.68C65.9306 264.499 66.4319 264.408 66.9866 264.408H69.6266V263.832C69.6266 263.277 69.4612 262.84 69.1306 262.52C68.8106 262.2 68.3306 262.04 67.6906 262.04C67.0612 262.04 66.5706 262.195 66.2186 262.504C65.8666 262.803 65.6266 263.208 65.4986 263.72L64.3146 263.336C64.4426 262.899 64.6452 262.504 64.9226 262.152C65.1999 261.789 65.5679 261.501 66.0266 261.288C66.4959 261.064 67.0559 260.952 67.7066 260.952C68.7092 260.952 69.4879 261.213 70.0426 261.736C70.5972 262.248 70.8746 262.973 70.8746 263.912V267.448C70.8746 267.768 71.0239 267.928 71.3226 267.928H72.0426V269H70.9386C70.5866 269 70.3039 268.904 70.0906 268.712C69.8772 268.509 69.7706 268.243 69.7706 267.912V267.832H69.5786C69.4612 268.035 69.3012 268.248 69.0986 268.472C68.9066 268.685 68.6399 268.861 68.2986 269C67.9572 269.149 67.5146 269.224 66.9706 269.224ZM67.1146 268.136C67.8612 268.136 68.4639 267.917 68.9226 267.48C69.3919 267.032 69.6266 266.408 69.6266 265.608V265.432H67.0346C66.5332 265.432 66.1172 265.544 65.7866 265.768C65.4666 265.981 65.3066 266.307 65.3066 266.744C65.3066 267.181 65.4719 267.523 65.8026 267.768C66.1439 268.013 66.5812 268.136 67.1146 268.136ZM73.7737 269V261.176H75.0057V262.136H75.2297C75.3684 261.795 75.5817 261.544 75.8697 261.384C76.1577 261.224 76.5364 261.144 77.0057 261.144H77.9337V262.296H76.9257C76.3604 262.296 75.9017 262.456 75.5497 262.776C75.2084 263.085 75.0377 263.571 75.0377 264.232V269H73.7737ZM83.9143 269V261.176H85.1783V269H83.9143ZM84.5543 259.96C84.277 259.96 84.0423 259.869 83.8503 259.688C83.669 259.507 83.5783 259.277 83.5783 259C83.5783 258.712 83.669 258.477 83.8503 258.296C84.0423 258.115 84.277 258.024 84.5543 258.024C84.8317 258.024 85.061 258.115 85.2423 258.296C85.4237 258.477 85.5143 258.712 85.5143 259C85.5143 259.277 85.4237 259.507 85.2423 259.688C85.061 259.869 84.8317 259.96 84.5543 259.96ZM90.7162 269C90.2682 269 89.9215 268.877 89.6762 268.632C89.4415 268.387 89.3242 268.051 89.3242 267.624V262.28H86.9722V261.176H89.3242V258.392H90.5882V261.176H93.1482V262.28H90.5882V267.432C90.5882 267.752 90.7429 267.912 91.0522 267.912H92.7962V269H90.7162ZM100.393 269L98.825 261.176H100.105L101.401 268.152H101.625L103.337 261.176H105.433L107.145 268.152H107.369L108.665 261.176H109.945L108.377 269H106.217L104.489 262.024H104.281L102.553 269H100.393ZM115.577 269.224C114.788 269.224 114.089 269.059 113.481 268.728C112.884 268.397 112.415 267.933 112.073 267.336C111.743 266.728 111.577 266.013 111.577 265.192V264.984C111.577 264.173 111.743 263.464 112.073 262.856C112.415 262.248 112.884 261.779 113.481 261.448C114.089 261.117 114.788 260.952 115.577 260.952C116.367 260.952 117.06 261.117 117.657 261.448C118.265 261.779 118.735 262.248 119.065 262.856C119.407 263.464 119.577 264.173 119.577 264.984V265.192C119.577 266.013 119.407 266.728 119.065 267.336C118.735 267.933 118.265 268.397 117.657 268.728C117.06 269.059 116.367 269.224 115.577 269.224ZM115.577 268.088C116.409 268.088 117.071 267.827 117.561 267.304C118.063 266.771 118.313 266.056 118.313 265.16V265.016C118.313 264.12 118.063 263.411 117.561 262.888C117.071 262.355 116.409 262.088 115.577 262.088C114.756 262.088 114.095 262.355 113.593 262.888C113.092 263.411 112.841 264.12 112.841 265.016V265.16C112.841 266.056 113.092 266.771 113.593 267.304C114.095 267.827 114.756 268.088 115.577 268.088ZM124.844 269.144C124.278 269.144 123.756 269.021 123.276 268.776C122.806 268.531 122.433 268.168 122.156 267.688C121.889 267.197 121.756 266.605 121.756 265.912V261.176H123.02V265.816C123.02 266.595 123.212 267.16 123.596 267.512C123.99 267.864 124.518 268.04 125.18 268.04C125.926 268.04 126.54 267.795 127.02 267.304C127.5 266.813 127.74 266.083 127.74 265.112V261.176H129.004V269H127.772V267.672H127.548C127.377 268.045 127.084 268.387 126.668 268.696C126.252 268.995 125.644 269.144 124.844 269.144ZM131.649 269V257.8H132.913V269H131.649ZM138.883 269.224C138.211 269.224 137.592 269.064 137.027 268.744C136.461 268.424 136.013 267.96 135.683 267.352C135.352 266.744 135.187 266.024 135.187 265.192V264.984C135.187 264.152 135.352 263.437 135.683 262.84C136.013 262.232 136.456 261.768 137.011 261.448C137.576 261.117 138.2 260.952 138.883 260.952C139.427 260.952 139.885 261.027 140.259 261.176C140.643 261.315 140.952 261.496 141.187 261.72C141.421 261.933 141.603 262.163 141.731 262.408H141.955V257.8H143.219V269H141.987V267.704H141.763C141.549 268.099 141.219 268.451 140.771 268.76C140.323 269.069 139.693 269.224 138.883 269.224ZM139.219 268.104C140.029 268.104 140.685 267.848 141.187 267.336C141.699 266.813 141.955 266.088 141.955 265.16V265.016C141.955 264.088 141.699 263.368 141.187 262.856C140.685 262.333 140.029 262.072 139.219 262.072C138.419 262.072 137.757 262.333 137.235 262.856C136.723 263.368 136.467 264.088 136.467 265.016V265.16C136.467 266.088 136.723 266.813 137.235 267.336C137.757 267.848 138.419 268.104 139.219 268.104ZM149.977 269V261.176H151.241V269H149.977ZM150.617 259.96C150.34 259.96 150.105 259.869 149.913 259.688C149.732 259.507 149.641 259.277 149.641 259C149.641 258.712 149.732 258.477 149.913 258.296C150.105 258.115 150.34 258.024 150.617 258.024C150.894 258.024 151.124 258.115 151.305 258.296C151.486 258.477 151.577 258.712 151.577 259C151.577 259.277 151.486 259.507 151.305 259.688C151.124 259.869 150.894 259.96 150.617 259.96ZM153.899 269V261.176H155.131V262.152H155.355C155.504 261.875 155.749 261.619 156.091 261.384C156.432 261.149 156.912 261.032 157.531 261.032C158.139 261.032 158.629 261.165 159.003 261.432C159.387 261.699 159.664 262.024 159.835 262.408H160.059C160.24 262.024 160.512 261.699 160.875 261.432C161.248 261.165 161.765 261.032 162.427 261.032C162.949 261.032 163.408 261.139 163.803 261.352C164.197 261.565 164.507 261.875 164.731 262.28C164.965 262.675 165.083 263.149 165.083 263.704V269H163.819V263.816C163.819 263.293 163.664 262.883 163.355 262.584C163.056 262.275 162.635 262.12 162.091 262.12C161.515 262.12 161.04 262.307 160.667 262.68C160.304 263.053 160.123 263.592 160.123 264.296V269H158.859V263.816C158.859 263.293 158.704 262.883 158.395 262.584C158.096 262.275 157.675 262.12 157.131 262.12C156.555 262.12 156.08 262.307 155.707 262.68C155.344 263.053 155.163 263.592 155.163 264.296V269H153.899ZM167.664 272.2V261.176H168.896V262.472H169.12C169.323 262.077 169.648 261.725 170.096 261.416C170.555 261.107 171.19 260.952 172 260.952C172.672 260.952 173.286 261.117 173.84 261.448C174.406 261.768 174.854 262.227 175.184 262.824C175.526 263.421 175.696 264.141 175.696 264.984V265.192C175.696 266.024 175.531 266.744 175.2 267.352C174.87 267.96 174.422 268.424 173.856 268.744C173.302 269.064 172.683 269.224 172 269.224C171.456 269.224 170.992 269.149 170.608 269C170.235 268.861 169.931 268.68 169.696 268.456C169.462 268.232 169.28 268.003 169.152 267.768H168.928V272.2H167.664ZM171.664 268.104C172.475 268.104 173.131 267.848 173.632 267.336C174.144 266.813 174.4 266.088 174.4 265.16V265.016C174.4 264.088 174.144 263.368 173.632 262.856C173.131 262.333 172.475 262.072 171.664 262.072C170.864 262.072 170.203 262.333 169.68 262.856C169.168 263.368 168.912 264.088 168.912 265.016V265.16C168.912 266.088 169.168 266.813 169.68 267.336C170.203 267.848 170.864 268.104 171.664 268.104ZM180.361 269.224C179.817 269.224 179.321 269.128 178.873 268.936C178.425 268.744 178.073 268.467 177.817 268.104C177.561 267.741 177.433 267.299 177.433 266.776C177.433 266.243 177.561 265.805 177.817 265.464C178.073 265.112 178.425 264.851 178.873 264.68C179.321 264.499 179.823 264.408 180.377 264.408H183.017V263.832C183.017 263.277 182.852 262.84 182.521 262.52C182.201 262.2 181.721 262.04 181.081 262.04C180.452 262.04 179.961 262.195 179.609 262.504C179.257 262.803 179.017 263.208 178.889 263.72L177.705 263.336C177.833 262.899 178.036 262.504 178.313 262.152C178.591 261.789 178.959 261.501 179.417 261.288C179.887 261.064 180.447 260.952 181.097 260.952C182.1 260.952 182.879 261.213 183.433 261.736C183.988 262.248 184.265 262.973 184.265 263.912V267.448C184.265 267.768 184.415 267.928 184.713 267.928H185.433V269H184.329C183.977 269 183.695 268.904 183.481 268.712C183.268 268.509 183.161 268.243 183.161 267.912V267.832H182.969C182.852 268.035 182.692 268.248 182.489 268.472C182.297 268.685 182.031 268.861 181.689 269C181.348 269.149 180.905 269.224 180.361 269.224ZM180.505 268.136C181.252 268.136 181.855 267.917 182.313 267.48C182.783 267.032 183.017 266.408 183.017 265.608V265.432H180.425C179.924 265.432 179.508 265.544 179.177 265.768C178.857 265.981 178.697 266.307 178.697 266.744C178.697 267.181 178.863 267.523 179.193 267.768C179.535 268.013 179.972 268.136 180.505 268.136ZM190.546 269.224C189.788 269.224 189.106 269.064 188.498 268.744C187.9 268.413 187.426 267.944 187.074 267.336C186.732 266.728 186.562 266.008 186.562 265.176V265C186.562 264.157 186.732 263.437 187.074 262.84C187.426 262.232 187.9 261.768 188.498 261.448C189.106 261.117 189.788 260.952 190.546 260.952C191.292 260.952 191.927 261.091 192.45 261.368C192.983 261.645 193.399 262.013 193.698 262.472C194.007 262.931 194.204 263.421 194.29 263.944L193.058 264.2C193.004 263.816 192.876 263.464 192.674 263.144C192.482 262.824 192.21 262.568 191.858 262.376C191.506 262.184 191.074 262.088 190.562 262.088C190.039 262.088 189.57 262.205 189.154 262.44C188.748 262.675 188.423 263.011 188.178 263.448C187.943 263.885 187.826 264.408 187.826 265.016V265.16C187.826 265.768 187.943 266.291 188.178 266.728C188.423 267.165 188.748 267.501 189.154 267.736C189.57 267.971 190.039 268.088 190.562 268.088C191.34 268.088 191.932 267.885 192.338 267.48C192.754 267.075 193.01 266.573 193.106 265.976L194.354 266.248C194.236 266.76 194.023 267.245 193.714 267.704C193.404 268.163 192.983 268.531 192.45 268.808C191.927 269.085 191.292 269.224 190.546 269.224ZM199.06 269C198.612 269 198.265 268.877 198.02 268.632C197.785 268.387 197.668 268.051 197.668 267.624V262.28H195.316V261.176H197.668V258.392H198.932V261.176H201.492V262.28H198.932V267.432C198.932 267.752 199.087 267.912 199.396 267.912H201.14V269H199.06ZM210.529 269C210.081 269 209.734 268.877 209.489 268.632C209.254 268.387 209.137 268.051 209.137 267.624V262.28H206.785V261.176H209.137V258.392H210.401V261.176H212.961V262.28H210.401V267.432C210.401 267.752 210.555 267.912 210.865 267.912H212.609V269H210.529ZM215.008 269V257.8H216.272V262.424H216.496C216.603 262.189 216.763 261.971 216.976 261.768C217.2 261.555 217.483 261.379 217.824 261.24C218.176 261.101 218.619 261.032 219.152 261.032C219.739 261.032 220.261 261.16 220.72 261.416C221.189 261.661 221.563 262.024 221.84 262.504C222.117 262.973 222.256 263.56 222.256 264.264V269H220.992V264.36C220.992 263.581 220.795 263.016 220.4 262.664C220.016 262.312 219.493 262.136 218.832 262.136C218.075 262.136 217.456 262.381 216.976 262.872C216.507 263.363 216.272 264.093 216.272 265.064V269H215.008ZM228.405 269.224C227.615 269.224 226.922 269.059 226.325 268.728C225.727 268.387 225.263 267.912 224.933 267.304C224.602 266.696 224.437 265.992 224.437 265.192V265C224.437 264.189 224.602 263.48 224.933 262.872C225.263 262.264 225.722 261.795 226.309 261.464C226.895 261.123 227.567 260.952 228.325 260.952C229.061 260.952 229.711 261.112 230.277 261.432C230.842 261.741 231.285 262.189 231.605 262.776C231.925 263.363 232.085 264.051 232.085 264.84V265.416H225.701C225.733 266.259 226.005 266.92 226.517 267.4C227.029 267.869 227.669 268.104 228.437 268.104C229.109 268.104 229.626 267.949 229.989 267.64C230.351 267.331 230.629 266.963 230.821 266.536L231.909 267.064C231.749 267.395 231.525 267.725 231.237 268.056C230.959 268.387 230.591 268.664 230.133 268.888C229.685 269.112 229.109 269.224 228.405 269.224ZM225.717 264.376H230.805C230.762 263.651 230.511 263.085 230.053 262.68C229.605 262.275 229.029 262.072 228.325 262.072C227.61 262.072 227.023 262.275 226.565 262.68C226.106 263.085 225.823 263.651 225.717 264.376ZM234.289 269V261.176H235.553V269H234.289ZM234.929 259.96C234.652 259.96 234.417 259.869 234.225 259.688C234.044 259.507 233.953 259.277 233.953 259C233.953 258.712 234.044 258.477 234.225 258.296C234.417 258.115 234.652 258.024 234.929 258.024C235.207 258.024 235.436 258.115 235.617 258.296C235.799 258.477 235.889 258.712 235.889 259C235.889 259.277 235.799 259.507 235.617 259.688C235.436 259.869 235.207 259.96 234.929 259.96ZM238.211 269V261.176H239.443V262.136H239.667C239.806 261.795 240.019 261.544 240.307 261.384C240.595 261.224 240.974 261.144 241.443 261.144H242.371V262.296H241.363C240.798 262.296 240.339 262.456 239.987 262.776C239.646 263.085 239.475 263.571 239.475 264.232V269H238.211ZM121.046 293.224C120.288 293.224 119.606 293.064 118.998 292.744C118.4 292.413 117.926 291.944 117.574 291.336C117.232 290.728 117.062 290.008 117.062 289.176V289C117.062 288.157 117.232 287.437 117.574 286.84C117.926 286.232 118.4 285.768 118.998 285.448C119.606 285.117 120.288 284.952 121.046 284.952C121.792 284.952 122.427 285.091 122.95 285.368C123.483 285.645 123.899 286.013 124.198 286.472C124.507 286.931 124.704 287.421 124.79 287.944L123.558 288.2C123.504 287.816 123.376 287.464 123.174 287.144C122.982 286.824 122.71 286.568 122.358 286.376C122.006 286.184 121.574 286.088 121.062 286.088C120.539 286.088 120.07 286.205 119.654 286.44C119.248 286.675 118.923 287.011 118.678 287.448C118.443 287.885 118.326 288.408 118.326 289.016V289.16C118.326 289.768 118.443 290.291 118.678 290.728C118.923 291.165 119.248 291.501 119.654 291.736C120.07 291.971 120.539 292.088 121.062 292.088C121.84 292.088 122.432 291.885 122.838 291.48C123.254 291.075 123.51 290.573 123.606 289.976L124.854 290.248C124.736 290.76 124.523 291.245 124.214 291.704C123.904 292.163 123.483 292.531 122.95 292.808C122.427 293.085 121.792 293.224 121.046 293.224ZM129.408 293.224C128.864 293.224 128.368 293.128 127.92 292.936C127.472 292.744 127.12 292.467 126.864 292.104C126.608 291.741 126.48 291.299 126.48 290.776C126.48 290.243 126.608 289.805 126.864 289.464C127.12 289.112 127.472 288.851 127.92 288.68C128.368 288.499 128.869 288.408 129.424 288.408H132.064V287.832C132.064 287.277 131.899 286.84 131.568 286.52C131.248 286.2 130.768 286.04 130.128 286.04C129.499 286.04 129.008 286.195 128.656 286.504C128.304 286.803 128.064 287.208 127.936 287.72L126.752 287.336C126.88 286.899 127.083 286.504 127.36 286.152C127.637 285.789 128.005 285.501 128.464 285.288C128.933 285.064 129.493 284.952 130.144 284.952C131.147 284.952 131.925 285.213 132.48 285.736C133.035 286.248 133.312 286.973 133.312 287.912V291.448C133.312 291.768 133.461 291.928 133.76 291.928H134.48V293H133.376C133.024 293 132.741 292.904 132.528 292.712C132.315 292.509 132.208 292.243 132.208 291.912V291.832H132.016C131.899 292.035 131.739 292.248 131.536 292.472C131.344 292.685 131.077 292.861 130.736 293C130.395 293.149 129.952 293.224 129.408 293.224ZM129.552 292.136C130.299 292.136 130.901 291.917 131.36 291.48C131.829 291.032 132.064 290.408 132.064 289.608V289.432H129.472C128.971 289.432 128.555 289.544 128.224 289.768C127.904 289.981 127.744 290.307 127.744 290.744C127.744 291.181 127.909 291.523 128.24 291.768C128.581 292.013 129.019 292.136 129.552 292.136ZM136.211 293V285.176H137.443V286.136H137.667C137.806 285.795 138.019 285.544 138.307 285.384C138.595 285.224 138.974 285.144 139.443 285.144H140.371V286.296H139.363C138.798 286.296 138.339 286.456 137.987 286.776C137.646 287.085 137.475 287.571 137.475 288.232V293H136.211ZM145.545 293.224C144.756 293.224 144.063 293.059 143.465 292.728C142.868 292.387 142.404 291.912 142.073 291.304C141.743 290.696 141.577 289.992 141.577 289.192V289C141.577 288.189 141.743 287.48 142.073 286.872C142.404 286.264 142.863 285.795 143.449 285.464C144.036 285.123 144.708 284.952 145.465 284.952C146.201 284.952 146.852 285.112 147.417 285.432C147.983 285.741 148.425 286.189 148.745 286.776C149.065 287.363 149.225 288.051 149.225 288.84V289.416H142.841C142.873 290.259 143.145 290.92 143.657 291.4C144.169 291.869 144.809 292.104 145.577 292.104C146.249 292.104 146.767 291.949 147.129 291.64C147.492 291.331 147.769 290.963 147.961 290.536L149.049 291.064C148.889 291.395 148.665 291.725 148.377 292.056C148.1 292.387 147.732 292.664 147.273 292.888C146.825 293.112 146.249 293.224 145.545 293.224ZM142.857 288.376H147.945C147.903 287.651 147.652 287.085 147.193 286.68C146.745 286.275 146.169 286.072 145.465 286.072C144.751 286.072 144.164 286.275 143.705 286.68C143.247 287.085 142.964 287.651 142.857 288.376ZM155.014 293.224C154.225 293.224 153.531 293.059 152.934 292.728C152.337 292.387 151.873 291.912 151.542 291.304C151.211 290.696 151.046 289.992 151.046 289.192V289C151.046 288.189 151.211 287.48 151.542 286.872C151.873 286.264 152.331 285.795 152.918 285.464C153.505 285.123 154.177 284.952 154.934 284.952C155.67 284.952 156.321 285.112 156.886 285.432C157.451 285.741 157.894 286.189 158.214 286.776C158.534 287.363 158.694 288.051 158.694 288.84V289.416H152.31C152.342 290.259 152.614 290.92 153.126 291.4C153.638 291.869 154.278 292.104 155.046 292.104C155.718 292.104 156.235 291.949 156.598 291.64C156.961 291.331 157.238 290.963 157.43 290.536L158.518 291.064C158.358 291.395 158.134 291.725 157.846 292.056C157.569 292.387 157.201 292.664 156.742 292.888C156.294 293.112 155.718 293.224 155.014 293.224ZM152.326 288.376H157.414C157.371 287.651 157.121 287.085 156.662 286.68C156.214 286.275 155.638 286.072 154.934 286.072C154.219 286.072 153.633 286.275 153.174 286.68C152.715 287.085 152.433 287.651 152.326 288.376ZM160.899 293V285.176H162.131V286.136H162.355C162.493 285.795 162.707 285.544 162.995 285.384C163.283 285.224 163.661 285.144 164.131 285.144H165.059V286.296H164.051C163.485 286.296 163.027 286.456 162.675 286.776C162.333 287.085 162.163 287.571 162.163 288.232V293H160.899ZM169.926 293.224C168.955 293.224 168.134 293 167.462 292.552C166.8 292.104 166.4 291.395 166.262 290.424L167.462 290.152C167.547 290.664 167.707 291.069 167.942 291.368C168.176 291.656 168.464 291.864 168.806 291.992C169.158 292.109 169.531 292.168 169.926 292.168C170.512 292.168 170.976 292.051 171.318 291.816C171.659 291.581 171.83 291.267 171.83 290.872C171.83 290.467 171.664 290.184 171.334 290.024C171.014 289.853 170.571 289.715 170.006 289.608L169.35 289.496C168.848 289.411 168.39 289.277 167.974 289.096C167.558 288.915 167.227 288.669 166.982 288.36C166.736 288.051 166.614 287.661 166.614 287.192C166.614 286.488 166.886 285.939 167.43 285.544C167.974 285.149 168.694 284.952 169.59 284.952C170.475 284.952 171.19 285.155 171.734 285.56C172.288 285.955 172.646 286.515 172.806 287.24L171.622 287.544C171.526 286.979 171.296 286.584 170.934 286.36C170.571 286.125 170.123 286.008 169.59 286.008C169.056 286.008 168.635 286.109 168.326 286.312C168.016 286.504 167.862 286.792 167.862 287.176C167.862 287.549 168.006 287.827 168.294 288.008C168.592 288.179 168.987 288.307 169.478 288.392L170.134 288.504C170.688 288.6 171.184 288.733 171.622 288.904C172.07 289.064 172.422 289.299 172.678 289.608C172.944 289.917 173.078 290.323 173.078 290.824C173.078 291.592 172.79 292.184 172.214 292.6C171.648 293.016 170.886 293.224 169.926 293.224Z" fill="white"/>
</svg>
