<svg width="627" height="160" viewBox="0 0 627 160" fill="none" xmlns="http://www.w3.org/2000/svg">
<path d="M0 1.00391H75.32V22.4039H23.32V29.2039H64.03V49.8039H23.31V71.3139H0V1.00391Z" fill="black"/>
<path d="M123.33 0.00401528C128.947 -0.0420835 134.561 0.308808 140.13 1.05403C144.757 1.68803 149.29 2.88003 153.63 4.60402C157.434 6.05308 160.892 8.28451 163.78 11.154C166.548 14.0653 168.647 17.5465 169.93 21.354C171.489 26.0085 172.237 30.8963 172.14 35.804C172.229 40.6098 171.571 45.4002 170.19 50.004C169.036 53.7393 167.126 57.1975 164.58 60.1641C161.925 63.0913 158.643 65.3815 154.98 66.864C150.674 68.6583 146.152 69.8853 141.53 70.514C135.73 71.2977 129.882 71.6653 124.03 71.614C107.49 71.614 95.4697 68.614 87.9697 62.614C80.4697 56.614 76.7197 47.2607 76.7197 34.554C76.7197 22.8207 80.5531 14.1373 88.2197 8.50401C95.8864 2.87068 107.59 0.0373486 123.33 0.00401528ZM124.23 53.204C131.29 53.204 136.756 51.7707 140.63 48.904C144.503 46.0373 146.436 41.6707 146.43 35.804C146.43 30.144 144.396 25.8107 140.33 22.804C136.263 19.7974 130.796 18.314 123.93 18.354C120.722 18.3033 117.523 18.6902 114.42 19.504C111.943 20.143 109.638 21.3211 107.67 22.954C105.936 24.4486 104.582 26.3337 103.72 28.454C102.822 30.7813 102.38 33.2598 102.42 35.754C102.327 38.1403 102.773 40.5169 103.725 42.707C104.678 44.897 106.111 46.8443 107.92 48.404C111.593 51.6107 117.023 53.2107 124.21 53.204H124.23Z" fill="black"/>
<path d="M222.04 71.3135C211.58 71.3135 202.847 70.2802 195.84 68.2135C188.833 66.1469 184 62.5802 181.34 57.5135C179.215 53.0604 177.895 48.2666 177.44 43.3535C176.648 34.8944 176.314 26.3987 176.44 17.9035L176.54 1.10352H201.14V32.5035C201.128 34.2914 201.228 36.0783 201.44 37.8535C201.704 39.6363 202.226 41.3712 202.99 43.0035C203.765 44.7994 204.946 46.3911 206.44 47.6535C208.283 49.0845 210.39 50.1379 212.64 50.7535C215.708 51.6487 218.894 52.0735 222.09 52.0135C225.273 52.0766 228.446 51.6517 231.5 50.7535C233.686 50.1533 235.727 49.1157 237.5 47.7035C238.922 46.4203 240.034 44.8301 240.75 43.0535C241.477 41.415 241.965 39.6807 242.2 37.9035C242.376 36.109 242.46 34.3066 242.45 32.5035V1.10352H267.05V17.9035C267.234 26.397 266.934 34.8942 266.15 43.3535C265.695 48.2666 264.375 53.0604 262.25 57.5135C260.827 60.2015 258.788 62.5146 256.3 64.2635C253.488 66.2083 250.358 67.6466 247.05 68.5135C243.315 69.5407 239.502 70.2598 235.65 70.6635C231.128 71.1209 226.585 71.3378 222.04 71.3135V71.3135Z" fill="black"/>
<path d="M361.97 71.3135H330.21L295.81 29.0035V71.3135H272.45V1.10352H304.96L338.76 42.7035V1.10352H361.97V71.3135Z" fill="black"/>
<path d="M416.68 71.3151H368.37V1.31509H416.37C420.416 1.28388 424.459 1.53449 428.47 2.06509C432.15 2.60632 435.745 3.61445 439.17 5.06509C442.554 6.41835 445.619 8.46176 448.17 11.0651C450.822 13.9923 452.817 17.4532 454.02 21.2151C455.613 26.0862 456.374 31.1911 456.27 36.3151C456.343 41.09 455.529 45.8369 453.87 50.3151C452.499 54.0556 450.352 57.4636 447.57 60.3151C444.879 62.9473 441.766 65.1105 438.36 66.7151C434.982 68.363 431.401 69.5566 427.71 70.2651C424.074 70.9564 420.381 71.3079 416.68 71.3151V71.3151ZM415.08 52.2151C418.347 52.3102 421.583 51.5666 424.48 50.0551C426.911 48.7958 428.899 46.8246 430.18 44.4051C431.415 41.9221 432.033 39.1778 431.98 36.4051C431.98 31.6051 430.647 27.7551 427.98 24.8551C425.313 21.9551 421.03 20.5051 415.13 20.5051H391.73V52.2151H415.08Z" fill="black"/>
<path d="M460.39 1.10352H537.9V20.5735H483.69V26.7735H534.5V45.4735H483.69V51.7735H537.9V71.2835H460.39V1.10352Z" fill="black"/>
<path d="M543.1 1.10352H594.71C596.04 1.10352 597.31 1.10352 598.51 1.20352C600.204 1.32632 601.89 1.54331 603.56 1.85352C605.571 2.17299 607.549 2.67506 609.47 3.35352C611.458 4.09973 613.354 5.07282 615.12 6.25351C617.051 7.49043 618.758 9.0458 620.17 10.8535C621.675 12.8961 622.824 15.1782 623.57 17.6035C624.511 20.612 624.967 23.7514 624.92 26.9035C624.92 37.9702 620.616 45.8735 612.01 50.6135L626.42 71.3135L599.51 71.2135L587.51 54.7135H566.41V71.3135H543.1V1.10352ZM592.51 34.2035C598.31 34.2035 601.21 32.0035 601.21 27.6035C601.21 23.6035 598.176 21.6035 592.11 21.6035H566.41V34.2035H592.51Z" fill="black"/>
<path d="M23.31 135.974H74.21V159.284H0V89.0645H23.31V135.974Z" fill="black"/>
<path d="M145.73 89.2637L177.24 159.264H150.21L144.91 147.454H110.21L104.91 159.264H78.1104L109.51 89.2637H145.73ZM118.52 127.264H136.63L127.53 108.864L118.52 127.264Z" fill="black"/>
<path d="M271.21 159.284H239.41L205.04 116.974V159.284H181.74V89.0645H214.21L248.02 130.674V89.0645H271.21V159.284Z" fill="black"/>
<path d="M326.06 159.284H277.75V89.2838H325.75C329.799 89.2527 333.846 89.5033 337.86 90.0338C341.54 90.5751 345.135 91.5832 348.56 93.0338C351.943 94.3887 355.008 96.4319 357.56 99.0338C360.212 101.965 362.206 105.429 363.41 109.194C365.004 114.065 365.765 119.17 365.66 124.294C365.735 129.069 364.921 133.816 363.26 138.294C361.894 142.037 359.746 145.446 356.96 148.294C354.273 150.927 351.163 153.09 347.76 154.694C344.38 156.348 340.795 157.545 337.1 158.254C333.459 158.934 329.764 159.279 326.06 159.284V159.284ZM324.46 140.174C327.726 140.272 330.962 139.532 333.86 138.024C336.291 136.762 338.283 134.792 339.57 132.374C340.805 129.891 341.423 127.146 341.37 124.374C341.37 119.574 340.01 115.724 337.37 112.824C334.73 109.924 330.37 108.474 324.51 108.474H301.11V140.174H324.46Z" fill="black"/>
<path d="M370.43 106.764H413.47L372.89 146.774L384.74 159.264L425.84 119.134V159.264H443.34V89.2637H370.43V106.764Z" fill="black"/>
</svg>
