<svg width="175" height="37" viewBox="0 0 175 37" fill="none"
                xmlns="http://www.w3.org/2000/svg">
                <path d="M20.7833 0.712853V5.51884H6.41188V7.04598H17.6603V11.6723H6.43951V16.5007H0V0.712853H20.7833Z"
                    fill="white" />
                <path
                    d="M48.6419 8.52821C48.6419 14.6592 44.3581 16.5681 35.3483 16.5681C26.1174 16.5681 22.3035 13.8732 22.3035 8.23625C22.3035 2.95865 26.4767 0.488281 35.1825 0.488281C43.5843 0.488281 48.6419 2.26245 48.6419 8.52821ZM41.5667 8.52821C41.5667 5.90063 38.9964 4.62053 35.3483 4.62053C31.3133 4.62053 29.4063 6.0803 29.4063 8.52821C29.4063 10.7965 31.3133 12.4359 35.4312 12.4359C39.1899 12.4359 41.5667 11.2456 41.5667 8.52821Z"
                    fill="white" />
                <path
                    d="M51.4883 13.4016C50.3552 11.6274 50.1341 9.40406 50.1341 4.50824V0.712853H56.9329C56.9329 0.712853 56.9329 5.83325 56.9329 7.76463C56.9329 9.69601 57.4857 12.1664 62.7368 12.1664C67.9879 12.1664 68.3748 9.69601 68.3748 7.78709C68.3748 5.87817 68.3748 0.735311 68.3748 0.735311H75.1736V4.53069C75.1736 9.40406 74.9525 11.6498 73.8194 13.424C72.244 15.8719 67.9602 16.5232 62.7368 16.5232C57.5133 16.5008 53.0637 15.8495 51.4883 13.4016Z"
                    fill="white" />
                <path
                    d="M92.6128 16.5007L83.1056 7.00105V16.5007H76.6661V0.735301H85.6206L94.962 10.0778V0.735301H101.402V16.5007H92.6128Z"
                    fill="white" />
                <path
                    d="M102.894 16.5008V0.780228H116.16C121.798 0.780228 127.187 1.92558 127.187 8.64049C127.187 14.7266 121.218 16.5008 116.215 16.5008H102.894ZM120.444 8.66295C120.444 6.68665 119.228 5.09214 115.773 5.09214H109.306V12.2113H115.801C118.924 12.2338 120.444 10.6392 120.444 8.66295Z"
                    fill="white" />
                <path
                    d="M150.292 0.735301V5.11459H135.313V6.50698H149.352V10.7066H135.313V12.1215H150.292V16.5007H128.873V0.735301H150.292Z"
                    fill="white" />
                <path
                    d="M166.239 0.735301C168.063 0.735301 174.585 0.937422 174.585 6.52944C174.585 9.44896 172.899 11.021 171.02 11.852L174.972 16.5007L167.538 16.4783L164.249 12.7727C162.397 12.7727 159.495 12.7727 158.417 12.7727V16.5007H152.006V0.735301H166.239ZM168.035 6.68664C168.035 5.36163 166.377 5.31671 165.52 5.31671C164.663 5.31671 158.417 5.31671 158.417 5.31671V8.1464C158.417 8.1464 164.691 8.1464 165.631 8.1464C166.57 8.16886 168.035 8.01166 168.035 6.68664Z"
                    fill="white" />
                <path d="M20.5069 31.2781V36.5107H0V20.7228H6.43951V31.2781H20.5069Z" fill="white" />
                <path
                    d="M49.4985 36.4883H42.0364L40.5716 33.8382H30.9814L29.5167 36.4883H22.1098L30.788 20.7677H40.7927L49.4985 36.4883ZM38.3054 29.3017L35.818 25.1919L33.3306 29.3017H38.3054Z"
                    fill="white" />
                <path
                    d="M66.9931 36.4883L57.4859 26.9886V36.4883H51.0464V20.7228H60.0009L69.3423 30.0653V20.7228H75.7818V36.4883H66.9931Z"
                    fill="white" />
                <path
                    d="M77.3017 36.4883V20.7677H90.5677C96.2057 20.7677 101.595 21.9131 101.595 28.628C101.595 34.7141 95.6253 36.4883 90.6229 36.4883H77.3017ZM94.8515 28.6505C94.8515 26.6742 93.6354 25.0797 90.1807 25.0797H83.7412V32.1988H90.2084C93.3314 32.2213 94.8515 30.6268 94.8515 28.6505Z"
                    fill="white" />
                <path
                    d="M102.783 24.6754H114.695L104.193 33.2094L107.592 36.0167L118.122 27.4602V36.4883H122.986V20.7228H102.783V24.6754Z"
                    fill="white" />
            </svg>