<svg width="200" height="200" xmlns="http://www.w3.org/2000/svg" xmlns:svg="http://www.w3.org/2000/svg" data-name="Layer 1">
 <g class="layer">
  <title>Layer 1</title>
  <path d="m91.94,20.35l0,21.41l-51.94,0l0,6.83l40.67,0l0,20.56l-40.67,0l0,21.5l-23.27,0l0,-70.3l75.21,0z" fill="#FFFFFF" id="svg_1"/>
  <path d="m16.73,179.65l0,-70l48,0c20.37,0 39.88,5.08 39.88,35c0,27.05 -21.56,35 -39.65,35l-48.23,0zm63.54,-34.93c0,-8.76 -4.39,-15.86 -16.89,-15.86l-23.38,0l0,31.73l23.4,0c11.31,0 16.87,-7.1 16.87,-15.87z" fill="#FFFFFF" id="svg_2"/>
  <path d="m184.1,156.4l0,23.25l-74.17,0l0,-70.25l23.25,0l0,47l50.92,0z" fill="#FFFFFF" id="svg_3"/>
  <polygon fill="#FFFFFF" id="svg_4" points="111.17999267578125,37.850006103515625 154.22998046875,37.850006103515625 113.6500244140625,77.8599853515625 125.489990234375,90.3499755859375 166.5999755859375,50.220001220703125 166.5999755859375,90.3499755859375 184.0999755859375,90.3499755859375 184.0999755859375,20.350006103515625 111.17999267578125,20.350006103515625 111.17999267578125,37.850006103515625 "/>
 </g>
</svg>